M48
;Layer_Color=9474304
;FILE_FORMAT=4:4
METRIC,LZ
;TYPE=PLATED
T1F00S00C0.3000
T2F00S00C0.7620
T3F00S00C1.1000
;TYPE=NON_PLATED
T4F00S00C0.9000
T5F00S00C1.0000
T6F00S00C3.3000
T7F00S00C3.5000
%
T01
X001Y0005
X00128Y00059
X0015Y0005
X002
X007
X008
X00881Y00054
X00989Y00069
X01026Y00082
X0135Y0005
X014
X01425Y001
X01475
X0145Y0015
X014
X01425Y002
X01475
X0145Y0025
X014
X0135
X013
X01325Y003
X01375
X014Y0035
X0135
X013
X01325Y004
X01375
X01425
X014Y0045
X0135
X013
X01325Y002
X01375
Y001
X01325
X013Y0015
X0125
X012
X0115
X011
X0105
X01075Y002
X01125
X01175
X01225
X01275
Y003
X01225
X0125Y0035
X012
X0115
X011
X0105
X01075Y004
X01125
X01175
X01225
X01275
X0125Y0045
X012
X0115
X011
X0105
X01028Y00461
X00985Y0047
X00986Y0045
X009Y0045
Y0035
X0095
X01025Y004
Y003
X0105Y0025
X011
X01125Y003
Y001
X01175
X01225
X01275
X01075
X00972Y00134
X00975Y002
X01025
X00925
X0088Y00179
X00871
X00861
X00846Y00179
X00844Y00207
X00827Y00206
X00791Y00189
X00776Y00188
X00765Y00189
X00752Y00188
X00719Y00196
Y00207
Y00219
Y0023
Y00242
X00703Y00272
X00676Y00302
X00683Y00328
X007Y0035
X00728Y00359
X00737Y0037
X00748Y00374
X00725Y004
X00775
X00825
X00875
X0085Y0045
X008
X0075
X007
X0065
X006
X0055
X005
X00525Y004
X00575
X00625
X00675
X00724Y00335
X00751Y00318
X00773Y00306
X00788Y00304
X00797Y00297
X00825Y003
X00827Y00284
X00786Y00261
X00778Y00269
X0077Y00253
X00777Y00155
X008Y0015
X00825Y001
X00775
X00865Y00138
X00875Y003
X0085Y0035
X008
X006
X0055
X00575Y003
X00625
X0065Y0025
X006
X0055
X00525Y003
X005Y0015
X00525Y001
X00575
X0065Y0015
X00641Y00171
X0045Y0015
X004
X0035
X003
X00325Y001
X00375
X00425
X00475
X0045Y0025
X004
X0035
X003
X0025
X002
X00168Y00235
X0015Y0025
X001
X00125Y003
X0015Y0035
X002
X0025
X003
X0035
X004
X0045
X00475Y004
X00425
X00375
X00325
X00275
X00225
X00175
X00125
X0015Y0045
X002
X003
X0035
X004
X00425Y003
X00475
X00375
X00275
X00225
Y002
X002Y0015
X0015
X001
X00125Y002
Y001
X00225
X00275
X00322Y00206
X001Y0035
Y0045
X0005
X00075Y004
X0005Y0035
Y0025
X00075Y002
X0005Y0015
X00075Y001
X0005Y0055
X00075Y006
X00125
X00175
X00225
X00275
X00325
X00375
X004Y0065
X0045
X00456Y00568
X00375Y005
X00275
X00225
X00175
X00125
X0015Y0055
X002
X0025
X003
Y0065
X0035
X0025
X002
X0015
X001
Y0055
X005
X0055
X00575Y005
X00625
X00675
X00725
X00775
X00825
X00875
X008Y0055
Y0065
X0085
X007
X006
X0055
X005
X00627Y00595
X00638
X00912Y0064
X01Y0065
X0105
X011
X0115
X012
X0125
X01275Y006
X01225
X01175
X01125
X01075
X01059Y00585
X01046Y00584
X0105Y0055
X011
X0115
X012
X0125
X01275Y005
X01225
X01125
X01075
X01Y0055
X0095
X00925Y005
X01026998Y00606999
X01325Y006
X01375
X01425
X01475
X0145Y0055
X014
X0135
X013
X01325Y005
X01375
X014Y0065
X0135
X013
T02
X01134926Y0034048
Y0036588
Y0039128
Y0041668
Y0044208
X00365074Y0043952
Y0041412
Y0038872
Y0036332
Y0033792
T03
X00238Y000528
Y000782
X008552Y00078
X008806
X00906
X009314
X009568
X01053Y000654
Y0004
X00891Y00121
X008656
X008402
X008148
X007894
X00764
X007386
X007132
X00687802Y00120998
X006624Y00121
X006116
X005862
X00238Y00129
Y001036
Y001544
Y001798
Y002052
X0061033Y00555
X0063573
X0066113
X0068653
X0071193
X0076273Y0055534
X0078813
X0081353
X0083893
X0086433
X0088973
T04
X00612798Y006464
X00656797
T05
X009995Y000186
X010198
X0100965Y000948
T06
X0005Y0005
X0075Y0005
X0145Y0005
X0005Y0065
X0075
X0145
T07
X01416926Y0029708
Y0048708
X01159926
Y0029708
X00340074Y0029292
Y0048292
X00083074
Y0029292
M30
