G04*
G04 #@! TF.GenerationSoftware,Altium Limited,Altium NEXUS,2.1.9 (83)*
G04*
G04 Layer_Physical_Order=1*
G04 Layer_Color=255*
%FSLAX44Y44*%
%MOMM*%
G71*
G01*
G75*
%ADD11C,0.2000*%
%ADD17R,1.2000X0.3000*%
%ADD18R,0.3000X1.2000*%
%ADD27R,0.6100X1.6100*%
%ADD28R,1.6100X0.6100*%
%ADD79C,1.0000*%
%ADD82C,0.7500*%
%ADD83R,0.9000X1.0000*%
%ADD84R,0.8000X0.7000*%
%ADD85R,0.7000X0.8000*%
%ADD86R,1.3000X1.0000*%
%ADD87R,1.0000X1.0000*%
%ADD88R,0.8000X0.6000*%
%ADD89R,0.6000X0.8000*%
G04:AMPARAMS|DCode=90|XSize=1.97mm|YSize=0.6mm|CornerRadius=0.075mm|HoleSize=0mm|Usage=FLASHONLY|Rotation=270.000|XOffset=0mm|YOffset=0mm|HoleType=Round|Shape=RoundedRectangle|*
%AMROUNDEDRECTD90*
21,1,1.9700,0.4500,0,0,270.0*
21,1,1.8200,0.6000,0,0,270.0*
1,1,0.1500,-0.2250,-0.9100*
1,1,0.1500,-0.2250,0.9100*
1,1,0.1500,0.2250,0.9100*
1,1,0.1500,0.2250,-0.9100*
%
%ADD90ROUNDEDRECTD90*%
%ADD91R,1.5240X1.0160*%
%ADD92R,1.0160X1.5240*%
%ADD93R,1.0500X1.0000*%
%ADD94R,2.2000X1.0500*%
%ADD95R,1.1000X1.0000*%
%ADD96R,0.8000X2.0000*%
%ADD97R,0.3480X1.3970*%
G04:AMPARAMS|DCode=98|XSize=0.675mm|YSize=0.25mm|CornerRadius=0mm|HoleSize=0mm|Usage=FLASHONLY|Rotation=45.000|XOffset=0mm|YOffset=0mm|HoleType=Round|Shape=Rectangle|*
%AMROTATEDRECTD98*
4,1,4,-0.1503,-0.3270,-0.3270,-0.1503,0.1503,0.3270,0.3270,0.1503,-0.1503,-0.3270,0.0*
%
%ADD98ROTATEDRECTD98*%

G04:AMPARAMS|DCode=99|XSize=0.675mm|YSize=0.25mm|CornerRadius=0mm|HoleSize=0mm|Usage=FLASHONLY|Rotation=135.000|XOffset=0mm|YOffset=0mm|HoleType=Round|Shape=Rectangle|*
%AMROTATEDRECTD99*
4,1,4,0.3270,-0.1503,0.1503,-0.3270,-0.3270,0.1503,-0.1503,0.3270,0.3270,-0.1503,0.0*
%
%ADD99ROTATEDRECTD99*%

%ADD100C,0.8000*%
G04:AMPARAMS|DCode=101|XSize=0.6mm|YSize=0.8mm|CornerRadius=0mm|HoleSize=0mm|Usage=FLASHONLY|Rotation=225.000|XOffset=0mm|YOffset=0mm|HoleType=Round|Shape=Rectangle|*
%AMROTATEDRECTD101*
4,1,4,-0.0707,0.4950,0.4950,-0.0707,0.0707,-0.4950,-0.4950,0.0707,-0.0707,0.4950,0.0*
%
%ADD101ROTATEDRECTD101*%

%ADD102R,1.0000X1.0000*%
%ADD103R,3.0000X3.0000*%
%ADD104R,1.8600X0.9000*%
%ADD105R,1.8600X3.1900*%
%ADD106R,0.9000X1.8600*%
%ADD107R,3.1900X1.8600*%
%ADD108R,0.5000X2.5000*%
%ADD109R,2.0000X2.5000*%
%ADD110C,0.3000*%
%ADD111C,0.6000*%
%ADD112C,1.6000*%
%ADD113R,1.6000X1.6000*%
%ADD114C,4.0000*%
%ADD115C,1.5240*%
%ADD116R,1.6000X1.6000*%
%ADD117C,5.0000*%
%ADD118C,0.9000*%
%ADD119C,0.6000*%
G36*
X1496941Y696941D02*
X1496941Y525059D01*
X1454000Y525059D01*
X1452829Y524826D01*
X1451837Y524163D01*
X1451174Y523171D01*
X1450941Y522000D01*
X1450941Y257500D01*
X1451174Y256329D01*
X1451837Y255337D01*
X1452829Y254674D01*
X1454000Y254441D01*
X1496941Y254441D01*
X1496942Y3059D01*
X3059Y3059D01*
X3059Y696941D01*
X1496941Y696941D01*
D02*
G37*
%LPC*%
G36*
X940000Y659000D02*
X925000D01*
Y655569D01*
X919000D01*
Y657500D01*
X908270D01*
X907000Y657500D01*
X905730Y657500D01*
X895000D01*
Y646500D01*
X896931D01*
Y633500D01*
X894000D01*
Y627547D01*
X867022Y600569D01*
X663098D01*
Y605098D01*
X662710Y607048D01*
X661605Y608702D01*
X655297Y615010D01*
Y635800D01*
X622298D01*
Y606800D01*
X625541D01*
X626027Y605627D01*
X624477Y604076D01*
X623703Y602918D01*
X623431Y601553D01*
Y598629D01*
X623395Y598605D01*
X622290Y596951D01*
X621902Y595000D01*
X622290Y593049D01*
X623395Y591395D01*
X625049Y590290D01*
X627000Y589902D01*
X628951Y590290D01*
X630605Y591395D01*
X631710Y593049D01*
X631853Y593766D01*
X633147D01*
X633290Y593049D01*
X634395Y591395D01*
X636049Y590290D01*
X638000Y589902D01*
X639951Y590290D01*
X641605Y591395D01*
X642710Y593049D01*
X643098Y595000D01*
X643089Y595043D01*
X645321Y597274D01*
X646094Y598432D01*
X646366Y599798D01*
Y606800D01*
X649088D01*
X652902Y602986D01*
Y597000D01*
Y590000D01*
X651000D01*
Y588098D01*
X584112D01*
X534605Y637605D01*
X532951Y638710D01*
X531000Y639098D01*
X506000D01*
X504049Y638710D01*
X502395Y637605D01*
X490790Y626000D01*
X487000D01*
Y612000D01*
X488902D01*
Y606050D01*
X487500D01*
Y599848D01*
X466250D01*
X464299Y599460D01*
X462645Y598355D01*
X454790Y590500D01*
X450000Y590500D01*
X448730Y590500D01*
X443047D01*
X435773Y597773D01*
X434616Y598547D01*
X433250Y598819D01*
X415100D01*
Y600300D01*
X395000D01*
Y590200D01*
X413692D01*
X414900Y590050D01*
X414900Y589013D01*
Y579950D01*
X421682D01*
Y564000D01*
X420200D01*
Y545308D01*
X420146Y544874D01*
X419170Y544100D01*
X418964Y544100D01*
X409950D01*
Y524000D01*
X412906D01*
Y512902D01*
X412896Y512850D01*
Y494650D01*
X413110Y493577D01*
X413717Y492667D01*
X414627Y492060D01*
X415700Y491846D01*
X420200D01*
X421273Y492060D01*
X422183Y492667D01*
X422790Y493577D01*
X423004Y494650D01*
Y512850D01*
X422790Y513923D01*
X422183Y514833D01*
X421273Y515440D01*
X420200Y515654D01*
X420044D01*
Y524000D01*
X420050D01*
Y534431D01*
X438000D01*
Y533500D01*
X448730D01*
X450000Y533500D01*
X450952Y532732D01*
Y508098D01*
X448404D01*
Y512850D01*
X448190Y513923D01*
X447583Y514833D01*
X446673Y515440D01*
X445600Y515654D01*
X441100D01*
X440027Y515440D01*
X439117Y514833D01*
X438510Y513923D01*
X438296Y512850D01*
Y508098D01*
X435704D01*
Y512850D01*
X435490Y513923D01*
X434883Y514833D01*
X433973Y515440D01*
X432900Y515654D01*
X428400D01*
X427327Y515440D01*
X426417Y514833D01*
X425810Y513923D01*
X425596Y512850D01*
Y494650D01*
X425810Y493577D01*
X426417Y492667D01*
X427327Y492060D01*
X428400Y491846D01*
X432900D01*
X433973Y492060D01*
X434883Y492667D01*
X435490Y493577D01*
X435704Y494650D01*
Y497902D01*
X438296D01*
Y494650D01*
X438510Y493577D01*
X439117Y492667D01*
X440027Y492060D01*
X441100Y491846D01*
X445600D01*
X446673Y492060D01*
X447583Y492667D01*
X448190Y493577D01*
X448404Y494650D01*
Y497902D01*
X450996D01*
Y494650D01*
X451210Y493577D01*
X451817Y492667D01*
X452727Y492060D01*
X453800Y491846D01*
X458300D01*
X459373Y492060D01*
X460283Y492667D01*
X460890Y493577D01*
X461104Y494650D01*
Y502778D01*
X461148Y503000D01*
Y533500D01*
X462000D01*
Y544500D01*
X459569D01*
Y548500D01*
X462000D01*
Y559500D01*
X461098D01*
Y568000D01*
X460710Y569951D01*
X459605Y571605D01*
X457951Y572710D01*
X456000Y573098D01*
X454049Y572710D01*
X452395Y571605D01*
X451290Y569951D01*
X450902Y568000D01*
Y560388D01*
X450000Y559500D01*
X448730Y559500D01*
X438000D01*
Y557569D01*
X430300D01*
Y564000D01*
X428819D01*
Y579950D01*
X435000D01*
Y586794D01*
X436173Y587280D01*
X438000Y585453D01*
Y579500D01*
X448730D01*
X450000Y579500D01*
X451270Y579500D01*
X462000D01*
Y583290D01*
X468362Y589652D01*
X487500D01*
Y583450D01*
X500500D01*
Y606050D01*
X499098D01*
Y612000D01*
X501000D01*
Y621790D01*
X508112Y628902D01*
X528888D01*
X578395Y579395D01*
X580049Y578290D01*
X582000Y577902D01*
X651000D01*
Y576000D01*
X665000D01*
Y590000D01*
X663098D01*
Y593431D01*
X868500D01*
X869866Y593703D01*
X871023Y594477D01*
X898978Y622431D01*
X900000D01*
X900345Y622500D01*
X906000Y622500D01*
X907270Y622500D01*
X918000D01*
Y624431D01*
X925000D01*
Y621000D01*
X940000D01*
Y635000D01*
X925000D01*
Y631569D01*
X918000D01*
Y633500D01*
X907270D01*
X906000Y633500D01*
X904967Y633500D01*
X904069Y634398D01*
Y636431D01*
X908371D01*
X908395Y636395D01*
X910049Y635290D01*
X912000Y634902D01*
X913951Y635290D01*
X915605Y636395D01*
X916710Y638049D01*
X917098Y640000D01*
X916710Y641951D01*
X915605Y643605D01*
X913951Y644710D01*
X912000Y645098D01*
X910049Y644710D01*
X908395Y643605D01*
X908371Y643569D01*
X904069D01*
Y645602D01*
X904967Y646500D01*
X907000Y646500D01*
X908270Y646500D01*
X919000D01*
Y648431D01*
X925000D01*
Y645000D01*
X940000D01*
Y659000D01*
D02*
G37*
G36*
X656797Y652517D02*
X654456Y652052D01*
X652472Y650726D01*
X651146Y648741D01*
X650680Y646400D01*
X651146Y644059D01*
X652472Y642074D01*
X654456Y640748D01*
X656797Y640283D01*
X659139Y640748D01*
X661123Y642074D01*
X662449Y644059D01*
X662915Y646400D01*
X662449Y648741D01*
X661123Y650726D01*
X659139Y652052D01*
X656797Y652517D01*
D02*
G37*
G36*
X612798D02*
X610456Y652052D01*
X608472Y650726D01*
X607146Y648741D01*
X606680Y646400D01*
X607146Y644059D01*
X608472Y642074D01*
X610456Y640748D01*
X612798Y640283D01*
X615139Y640748D01*
X617123Y642074D01*
X618449Y644059D01*
X618915Y646400D01*
X618449Y648741D01*
X617123Y650726D01*
X615139Y652052D01*
X612798Y652517D01*
D02*
G37*
G36*
X1450000Y676582D02*
X1445842Y676255D01*
X1441786Y675281D01*
X1437932Y673685D01*
X1434375Y671505D01*
X1431204Y668796D01*
X1428495Y665624D01*
X1426315Y662068D01*
X1424719Y658214D01*
X1423745Y654158D01*
X1423418Y650000D01*
X1423745Y645842D01*
X1424719Y641786D01*
X1426315Y637932D01*
X1428495Y634375D01*
X1431204Y631204D01*
X1434375Y628495D01*
X1437932Y626315D01*
X1441786Y624719D01*
X1445842Y623745D01*
X1450000Y623418D01*
X1454158Y623745D01*
X1458214Y624719D01*
X1462068Y626315D01*
X1465625Y628495D01*
X1468796Y631204D01*
X1471505Y634375D01*
X1473685Y637932D01*
X1475281Y641786D01*
X1476255Y645842D01*
X1476582Y650000D01*
X1476255Y654158D01*
X1475281Y658214D01*
X1473685Y662068D01*
X1471505Y665624D01*
X1468796Y668796D01*
X1465625Y671505D01*
X1462068Y673685D01*
X1458214Y675281D01*
X1454158Y676255D01*
X1450000Y676582D01*
D02*
G37*
G36*
X750000D02*
X745842Y676255D01*
X741786Y675281D01*
X737932Y673685D01*
X734376Y671505D01*
X731204Y668796D01*
X728495Y665624D01*
X726315Y662068D01*
X724719Y658214D01*
X723745Y654158D01*
X723418Y650000D01*
X723745Y645842D01*
X724719Y641786D01*
X726315Y637932D01*
X728495Y634375D01*
X731204Y631204D01*
X734376Y628495D01*
X737932Y626315D01*
X741786Y624719D01*
X745842Y623745D01*
X750000Y623418D01*
X754158Y623745D01*
X758214Y624719D01*
X762068Y626315D01*
X765624Y628495D01*
X768796Y631204D01*
X771505Y634375D01*
X773685Y637932D01*
X775281Y641786D01*
X776255Y645842D01*
X776582Y650000D01*
X776255Y654158D01*
X775281Y658214D01*
X773685Y662068D01*
X771505Y665624D01*
X768796Y668796D01*
X765624Y671505D01*
X762068Y673685D01*
X758214Y675281D01*
X754158Y676255D01*
X750000Y676582D01*
D02*
G37*
G36*
X50000D02*
X45842Y676255D01*
X41786Y675281D01*
X37932Y673685D01*
X34376Y671505D01*
X31204Y668796D01*
X28495Y665624D01*
X26315Y662068D01*
X24719Y658214D01*
X23745Y654158D01*
X23418Y650000D01*
X23745Y645842D01*
X24719Y641786D01*
X26315Y637932D01*
X28495Y634375D01*
X31204Y631204D01*
X34376Y628495D01*
X37932Y626315D01*
X41786Y624719D01*
X45842Y623745D01*
X50000Y623418D01*
X54158Y623745D01*
X58214Y624719D01*
X62068Y626315D01*
X65624Y628495D01*
X68796Y631204D01*
X71505Y634375D01*
X73685Y637932D01*
X75281Y641786D01*
X76255Y645842D01*
X76582Y650000D01*
X76255Y654158D01*
X75281Y658214D01*
X73685Y662068D01*
X71505Y665624D01*
X68796Y668796D01*
X65624Y671505D01*
X62068Y673685D01*
X58214Y675281D01*
X54158Y676255D01*
X50000Y676582D01*
D02*
G37*
G36*
X957000Y659000D02*
X942000D01*
Y645000D01*
X957000D01*
Y648431D01*
X961522D01*
X1009538Y600416D01*
X1009519Y600324D01*
X1008141Y599906D01*
X977523Y630523D01*
X976366Y631297D01*
X975000Y631569D01*
X957000D01*
Y635000D01*
X942000D01*
Y621000D01*
X957000D01*
Y624431D01*
X973522D01*
X1003681Y594272D01*
Y577545D01*
X997010D01*
Y559575D01*
X1017490D01*
Y567605D01*
X1017569Y568000D01*
Y601000D01*
X1017297Y602366D01*
X1016523Y603523D01*
X965523Y654523D01*
X964366Y655297D01*
X963000Y655568D01*
X957000D01*
Y659000D01*
D02*
G37*
G36*
X1026998Y612097D02*
X1025047Y611709D01*
X1023393Y610604D01*
X1022288Y608950D01*
X1021900Y606999D01*
X1022288Y605048D01*
X1023393Y603394D01*
X1023431Y603368D01*
Y600000D01*
X1021000D01*
Y590000D01*
X1023431D01*
Y587000D01*
X1023431Y587000D01*
Y577545D01*
X1023010D01*
Y559575D01*
X1036990D01*
Y577545D01*
X1030569D01*
Y587000D01*
X1030569Y587000D01*
Y590000D01*
X1033000D01*
Y600000D01*
X1030569D01*
Y603371D01*
X1030603Y603394D01*
X1031708Y605048D01*
X1032096Y606999D01*
X1031708Y608950D01*
X1030603Y610604D01*
X1028949Y611709D01*
X1026998Y612097D01*
D02*
G37*
G36*
X984990Y577545D02*
X971010D01*
Y559575D01*
X984990D01*
Y577545D01*
D02*
G37*
G36*
X772230Y564840D02*
X753230D01*
Y545840D01*
X772230D01*
Y564840D01*
D02*
G37*
G36*
X889730Y564922D02*
X887250Y564596D01*
X884939Y563639D01*
X882954Y562116D01*
X881431Y560131D01*
X880474Y557820D01*
X880148Y555340D01*
X880474Y552860D01*
X881431Y550549D01*
X882954Y548565D01*
X884939Y547042D01*
X887250Y546085D01*
X889730Y545759D01*
X892210Y546085D01*
X894521Y547042D01*
X896505Y548565D01*
X898028Y550549D01*
X898985Y552860D01*
X899312Y555340D01*
X898985Y557820D01*
X898028Y560131D01*
X896505Y562116D01*
X894521Y563639D01*
X892210Y564596D01*
X889730Y564922D01*
D02*
G37*
G36*
X864330D02*
X861850Y564596D01*
X859539Y563639D01*
X857554Y562116D01*
X856031Y560131D01*
X855074Y557820D01*
X854748Y555340D01*
X855074Y552860D01*
X856031Y550549D01*
X857554Y548565D01*
X859539Y547042D01*
X861850Y546085D01*
X864330Y545759D01*
X866810Y546085D01*
X869121Y547042D01*
X871105Y548565D01*
X872628Y550549D01*
X873585Y552860D01*
X873912Y555340D01*
X873585Y557820D01*
X872628Y560131D01*
X871105Y562116D01*
X869121Y563639D01*
X866810Y564596D01*
X864330Y564922D01*
D02*
G37*
G36*
X838930D02*
X836450Y564596D01*
X834139Y563639D01*
X832154Y562116D01*
X830631Y560131D01*
X829674Y557820D01*
X829348Y555340D01*
X829674Y552860D01*
X830631Y550549D01*
X832154Y548565D01*
X834139Y547042D01*
X836450Y546085D01*
X838930Y545759D01*
X841410Y546085D01*
X843721Y547042D01*
X845705Y548565D01*
X847228Y550549D01*
X848185Y552860D01*
X848512Y555340D01*
X848185Y557820D01*
X847228Y560131D01*
X845705Y562116D01*
X843721Y563639D01*
X841410Y564596D01*
X838930Y564922D01*
D02*
G37*
G36*
X813530D02*
X811050Y564596D01*
X808739Y563639D01*
X806754Y562116D01*
X805231Y560131D01*
X804274Y557820D01*
X803948Y555340D01*
X804274Y552860D01*
X805231Y550549D01*
X806754Y548565D01*
X808739Y547042D01*
X811050Y546085D01*
X813530Y545759D01*
X816010Y546085D01*
X818321Y547042D01*
X820305Y548565D01*
X821828Y550549D01*
X822785Y552860D01*
X823111Y555340D01*
X822785Y557820D01*
X821828Y560131D01*
X820305Y562116D01*
X818321Y563639D01*
X816010Y564596D01*
X813530Y564922D01*
D02*
G37*
G36*
X788130D02*
X785650Y564596D01*
X783339Y563639D01*
X781354Y562116D01*
X779831Y560131D01*
X778874Y557820D01*
X778548Y555340D01*
X778874Y552860D01*
X779831Y550549D01*
X781354Y548565D01*
X783339Y547042D01*
X785650Y546085D01*
X788130Y545759D01*
X790610Y546085D01*
X792921Y547042D01*
X794905Y548565D01*
X796428Y550549D01*
X797385Y552860D01*
X797711Y555340D01*
X797385Y557820D01*
X796428Y560131D01*
X794905Y562116D01*
X792921Y563639D01*
X790610Y564596D01*
X788130Y564922D01*
D02*
G37*
G36*
X661130Y564582D02*
X658650Y564255D01*
X656339Y563298D01*
X654354Y561776D01*
X652832Y559791D01*
X651874Y557480D01*
X651548Y555000D01*
X651874Y552520D01*
X652832Y550209D01*
X654354Y548225D01*
X656339Y546702D01*
X658650Y545745D01*
X661130Y545418D01*
X663610Y545745D01*
X665921Y546702D01*
X667905Y548225D01*
X669428Y550209D01*
X670386Y552520D01*
X670712Y555000D01*
X670386Y557480D01*
X669428Y559791D01*
X667905Y561776D01*
X665921Y563298D01*
X663610Y564255D01*
X661130Y564582D01*
D02*
G37*
G36*
X635730D02*
X633250Y564255D01*
X630939Y563298D01*
X628955Y561776D01*
X627432Y559791D01*
X626474Y557480D01*
X626148Y555000D01*
X626474Y552520D01*
X627432Y550209D01*
X628955Y548225D01*
X630939Y546702D01*
X633250Y545745D01*
X635730Y545418D01*
X638210Y545745D01*
X640521Y546702D01*
X642505Y548225D01*
X644028Y550209D01*
X644986Y552520D01*
X645312Y555000D01*
X644986Y557480D01*
X644028Y559791D01*
X642505Y561776D01*
X640521Y563298D01*
X638210Y564255D01*
X635730Y564582D01*
D02*
G37*
G36*
X1062990Y504425D02*
X1016510D01*
Y486455D01*
X1062990D01*
Y504425D01*
D02*
G37*
G36*
X523500Y606050D02*
X510500D01*
Y583450D01*
X511902D01*
Y544550D01*
X499050D01*
Y521950D01*
X511902D01*
Y513400D01*
X512290Y511449D01*
X513395Y509795D01*
X534450Y488740D01*
Y483098D01*
X495550D01*
Y484500D01*
X472950D01*
Y471500D01*
X495550D01*
Y472902D01*
X534450D01*
Y467260D01*
X490395Y423205D01*
X489290Y421551D01*
X488902Y419600D01*
Y387500D01*
X488000D01*
Y383710D01*
X472708Y368418D01*
X372658D01*
X371578Y369824D01*
X369673Y371286D01*
X367455Y372205D01*
X365074Y372519D01*
X362693Y372205D01*
X360475Y371286D01*
X358569Y369824D01*
X357108Y367919D01*
X356189Y365701D01*
X355875Y363320D01*
X356189Y360939D01*
X357108Y358721D01*
X358569Y356815D01*
X360475Y355354D01*
X362693Y354435D01*
X365074Y354121D01*
X367455Y354435D01*
X369673Y355354D01*
X371578Y356815D01*
X372658Y358222D01*
X474820D01*
X476771Y358610D01*
X478425Y359715D01*
X487729Y369019D01*
X488902Y368533D01*
Y214000D01*
X489290Y212049D01*
X490395Y210395D01*
X538402Y162388D01*
Y92000D01*
X536000D01*
Y87993D01*
X535902Y87500D01*
Y87000D01*
X536000Y86507D01*
Y78000D01*
X538402D01*
Y67000D01*
X536000D01*
Y60210D01*
X533688Y57898D01*
X247500D01*
Y62300D01*
X228500D01*
Y43300D01*
X234431D01*
Y31000D01*
X232000D01*
Y21000D01*
X244000D01*
Y31000D01*
X241569D01*
Y43300D01*
X247500D01*
Y47702D01*
X535800D01*
X537132Y47967D01*
X538402Y47114D01*
Y41000D01*
X536000D01*
Y27000D01*
X551000D01*
Y41000D01*
X548598D01*
Y53000D01*
X551000D01*
Y67000D01*
X548598D01*
Y78000D01*
X551000D01*
Y92000D01*
X548598D01*
Y152180D01*
X549580Y152986D01*
X550000Y152902D01*
X585000D01*
Y151000D01*
X599000D01*
Y152902D01*
X603500D01*
Y150000D01*
X606702D01*
Y129216D01*
X604824Y127775D01*
X603302Y125791D01*
X602345Y123480D01*
X602018Y121000D01*
X602345Y118520D01*
X603302Y116209D01*
X604824Y114225D01*
X606809Y112702D01*
X609120Y111745D01*
X611600Y111418D01*
X614080Y111745D01*
X616391Y112702D01*
X618375Y114225D01*
X619898Y116209D01*
X620405Y117431D01*
X636000D01*
X637366Y117703D01*
X638523Y118477D01*
X669523Y149477D01*
X669523Y149477D01*
X674478Y154431D01*
X690522D01*
X693000Y151953D01*
Y144000D01*
X704157D01*
X704683Y142730D01*
X696778Y134825D01*
X696005Y133667D01*
X695733Y132302D01*
Y128166D01*
X695383Y128048D01*
X694463Y127861D01*
X692593Y129297D01*
X690282Y130254D01*
X687802Y130580D01*
X685322Y130254D01*
X683011Y129297D01*
X681026Y127774D01*
X679503Y125789D01*
X678546Y123478D01*
X678220Y120998D01*
X678546Y118518D01*
X679503Y116207D01*
X681026Y114223D01*
X683011Y112700D01*
X685322Y111743D01*
X687802Y111416D01*
X690282Y111743D01*
X692593Y112700D01*
X694463Y114135D01*
X695383Y113949D01*
X695733Y113830D01*
Y110976D01*
X684522Y99765D01*
X656500D01*
Y102000D01*
X645500D01*
Y91270D01*
X645500Y90000D01*
X645500Y88730D01*
Y87444D01*
X643000D01*
Y88800D01*
X624308D01*
X623873Y88854D01*
X623100Y89829D01*
X623100Y90036D01*
Y99050D01*
X603000D01*
Y93270D01*
X603000Y92000D01*
X590000D01*
Y78000D01*
X603000D01*
Y81431D01*
X606000D01*
X607366Y81703D01*
X608523Y82477D01*
X614997Y88950D01*
X621692D01*
X622127Y88896D01*
X622900Y87921D01*
X622900Y87714D01*
Y78700D01*
X643000D01*
Y80306D01*
X645500D01*
Y78000D01*
X656500D01*
Y88730D01*
X656500Y90000D01*
X656500Y91270D01*
Y92628D01*
X686000D01*
X687366Y92900D01*
X688523Y93673D01*
X701825Y106975D01*
X702598Y108133D01*
X702870Y109498D01*
Y110574D01*
X703700Y111500D01*
X722431D01*
Y109478D01*
X678522Y65569D01*
X656500D01*
Y68000D01*
X645500D01*
Y57270D01*
X645500Y56000D01*
X645500Y54730D01*
Y53444D01*
X643000D01*
Y54800D01*
X624308D01*
X623873Y54854D01*
X623100Y55829D01*
X623100Y56036D01*
Y65050D01*
X603000D01*
X603000Y66320D01*
Y67000D01*
X590000D01*
Y53000D01*
X603000D01*
Y53680D01*
X603000Y54950D01*
X621692D01*
X622127Y54896D01*
X622900Y53920D01*
X622900Y53714D01*
Y44700D01*
X643000D01*
Y46306D01*
X645500D01*
Y44000D01*
X656500D01*
Y54730D01*
X656500Y56000D01*
X656500Y57533D01*
X657398Y58431D01*
X680000D01*
X681366Y58703D01*
X682523Y59477D01*
X728523Y105477D01*
X729297Y106634D01*
X729569Y108000D01*
Y115078D01*
X730839Y115510D01*
X731824Y114225D01*
X733809Y112702D01*
X736120Y111745D01*
X738600Y111418D01*
X741080Y111745D01*
X743391Y112702D01*
X745375Y114225D01*
X746161Y115249D01*
X747431Y114818D01*
Y112478D01*
X667522Y32569D01*
X656500D01*
Y35000D01*
X645500D01*
Y24270D01*
X645500Y23000D01*
X645500Y21730D01*
Y19569D01*
X643000D01*
Y20800D01*
X624308D01*
X623873Y20854D01*
X623100Y21829D01*
X623100Y22036D01*
Y31050D01*
X614997D01*
X610523Y35523D01*
X609366Y36297D01*
X608000Y36569D01*
X603000D01*
Y40000D01*
X590000D01*
Y26000D01*
X603000D01*
X603000Y24730D01*
Y20950D01*
X621692D01*
X622127Y20896D01*
X622900Y19921D01*
X622900Y19714D01*
Y10700D01*
X643000D01*
Y12431D01*
X645500D01*
Y11000D01*
X656500D01*
Y21730D01*
X656500Y23000D01*
X656500Y24533D01*
X657398Y25431D01*
X669000D01*
X670366Y25703D01*
X671523Y26477D01*
X753523Y108477D01*
X754297Y109634D01*
X754569Y111000D01*
Y115683D01*
X755176Y115965D01*
X755839Y116031D01*
X757225Y114225D01*
X759209Y112702D01*
X761520Y111745D01*
X764000Y111418D01*
X766480Y111745D01*
X768791Y112702D01*
X770775Y114225D01*
X772298Y116209D01*
X773255Y118520D01*
X773582Y121000D01*
X773255Y123480D01*
X772298Y125791D01*
X770775Y127775D01*
X768791Y129298D01*
X766480Y130255D01*
X764000Y130582D01*
X761520Y130255D01*
X759209Y129298D01*
X757225Y127775D01*
X755839Y125969D01*
X755176Y126035D01*
X754569Y126317D01*
Y131500D01*
X754297Y132866D01*
X753523Y134023D01*
X731069Y156478D01*
Y159500D01*
X738931D01*
Y155500D01*
X739203Y154134D01*
X739977Y152977D01*
X759477Y133477D01*
X760634Y132703D01*
X762000Y132431D01*
X848000D01*
X849366Y132703D01*
X850523Y133477D01*
X857978Y140931D01*
X859534D01*
X860232Y139661D01*
X860138Y139184D01*
X851577Y130623D01*
X850803Y129466D01*
X850531Y128100D01*
Y124201D01*
X849261Y123948D01*
X848498Y125791D01*
X846975Y127775D01*
X844991Y129298D01*
X842680Y130255D01*
X840200Y130582D01*
X837720Y130255D01*
X835409Y129298D01*
X833425Y127775D01*
X831902Y125791D01*
X830945Y123480D01*
X830618Y121000D01*
X830945Y118520D01*
X831902Y116209D01*
X833425Y114225D01*
X835409Y112702D01*
X837720Y111745D01*
X840200Y111418D01*
X842680Y111745D01*
X844991Y112702D01*
X846975Y114225D01*
X848498Y116209D01*
X849261Y118052D01*
X850531Y117799D01*
Y108578D01*
X837477Y95523D01*
X836703Y94366D01*
X836431Y93000D01*
Y64000D01*
X836703Y62634D01*
X837477Y61477D01*
X847477Y51477D01*
X848634Y50703D01*
X850000Y50431D01*
X877371D01*
X877395Y50395D01*
X879049Y49290D01*
X881000Y48902D01*
X882951Y49290D01*
X884605Y50395D01*
X885710Y52049D01*
X886098Y54000D01*
X885710Y55951D01*
X884605Y57605D01*
X884369Y57763D01*
Y69278D01*
X885391Y69702D01*
X887375Y71224D01*
X888898Y73209D01*
X889855Y75520D01*
X890182Y78000D01*
X889855Y80480D01*
X888898Y82791D01*
X887375Y84775D01*
X885391Y86298D01*
X883080Y87255D01*
X880600Y87582D01*
X878120Y87255D01*
X875809Y86298D01*
X873824Y84775D01*
X872302Y82791D01*
X871345Y80480D01*
X871018Y78000D01*
X871345Y75520D01*
X872302Y73209D01*
X873824Y71224D01*
X875809Y69702D01*
X877231Y69113D01*
Y57569D01*
X851478D01*
X843569Y65478D01*
Y91522D01*
X854346Y102299D01*
X854366Y102303D01*
X855523Y103077D01*
X856297Y104234D01*
X856301Y104254D01*
X856623Y104577D01*
X857397Y105734D01*
X857669Y107100D01*
Y113832D01*
X858018Y113951D01*
X858939Y114137D01*
X860809Y112702D01*
X863120Y111745D01*
X865600Y111418D01*
X868080Y111745D01*
X870391Y112702D01*
X872375Y114225D01*
X873898Y116209D01*
X874855Y118520D01*
X875182Y121000D01*
X874855Y123480D01*
X873898Y125791D01*
X872375Y127775D01*
X870391Y129298D01*
X868080Y130255D01*
X865600Y130582D01*
X863120Y130255D01*
X863083Y130240D01*
X862364Y131317D01*
X864123Y133076D01*
X865000Y132902D01*
X866951Y133290D01*
X868605Y134395D01*
X869710Y136049D01*
X870098Y138000D01*
X869768Y139661D01*
X870466Y140931D01*
X960022D01*
X966911Y134043D01*
X966902Y134000D01*
X967290Y132049D01*
X968395Y130395D01*
X970049Y129290D01*
X972000Y128902D01*
X973951Y129290D01*
X975605Y130395D01*
X976710Y132049D01*
X977098Y134000D01*
X976710Y135951D01*
X975605Y137605D01*
X973951Y138710D01*
X972000Y139098D01*
X971957Y139089D01*
X964023Y147023D01*
X962866Y147797D01*
X961500Y148069D01*
X866775D01*
X866289Y149242D01*
X946023Y228977D01*
X946797Y230134D01*
X947069Y231500D01*
Y295000D01*
X949000D01*
Y296431D01*
X955000D01*
Y294500D01*
X965730D01*
X967000Y294500D01*
X968270Y294500D01*
X979000D01*
Y296431D01*
X986902D01*
Y107000D01*
Y103112D01*
X984888Y101098D01*
X873200D01*
X871249Y100710D01*
X869595Y99605D01*
X857490Y87500D01*
X845700D01*
Y68500D01*
X864700D01*
Y80290D01*
X875312Y90902D01*
X987000D01*
X988951Y91290D01*
X989018Y91335D01*
X997360Y82993D01*
X997182Y82100D01*
X997648Y79759D01*
X998974Y77774D01*
X1000959Y76448D01*
X1001214Y76397D01*
Y75103D01*
X1000959Y75052D01*
X998974Y73726D01*
X998201Y72569D01*
X992629D01*
X992605Y72605D01*
X990951Y73710D01*
X989000Y74098D01*
X987049Y73710D01*
X985395Y72605D01*
X984290Y70951D01*
X983902Y69000D01*
X984290Y67049D01*
X985395Y65395D01*
X987049Y64290D01*
X989000Y63902D01*
X990951Y64290D01*
X992605Y65395D01*
X992629Y65431D01*
X998736D01*
X998974Y65074D01*
X1000959Y63748D01*
X1003300Y63282D01*
X1005641Y63748D01*
X1007626Y65074D01*
X1008952Y67059D01*
X1009003Y67314D01*
X1010297D01*
X1010348Y67059D01*
X1011674Y65074D01*
X1013659Y63748D01*
X1013914Y63697D01*
Y62403D01*
X1013659Y62352D01*
X1011674Y61026D01*
X1010348Y59041D01*
X1009883Y56700D01*
X1010348Y54359D01*
X1011674Y52374D01*
X1013659Y51048D01*
X1013914Y50997D01*
Y49703D01*
X1013659Y49652D01*
X1011674Y48326D01*
X1010348Y46341D01*
X1010297Y46086D01*
X1009003D01*
X1008952Y46341D01*
X1007626Y48326D01*
X1005641Y49652D01*
X1003300Y50118D01*
X1000959Y49652D01*
X998974Y48326D01*
X998468Y47569D01*
X941478D01*
X914749Y74298D01*
X915255Y75520D01*
X915582Y78000D01*
X915255Y80480D01*
X914298Y82791D01*
X912775Y84775D01*
X910791Y86298D01*
X908480Y87255D01*
X906000Y87582D01*
X903520Y87255D01*
X901209Y86298D01*
X899224Y84775D01*
X897702Y82791D01*
X896745Y80480D01*
X896418Y78000D01*
X896745Y75520D01*
X897702Y73209D01*
X899224Y71224D01*
X901209Y69702D01*
X903520Y68745D01*
X906000Y68418D01*
X908480Y68745D01*
X909702Y69251D01*
X937477Y41477D01*
X938634Y40703D01*
X940000Y40431D01*
X998468D01*
X998974Y39674D01*
X1000959Y38348D01*
X1003300Y37882D01*
X1005641Y38348D01*
X1007626Y39674D01*
X1008952Y41659D01*
X1009003Y41914D01*
X1010297D01*
X1010348Y41659D01*
X1011674Y39674D01*
X1013659Y38348D01*
X1013914Y38297D01*
Y37002D01*
X1013659Y36952D01*
X1011674Y35626D01*
X1010348Y33641D01*
X1009883Y31300D01*
X1010348Y28959D01*
X1011674Y26974D01*
X1013659Y25648D01*
X1015694Y25243D01*
X1016082Y24292D01*
X1016113Y23964D01*
X1015164Y23236D01*
X1014122Y21878D01*
X1013467Y20297D01*
X1013244Y18600D01*
X1013467Y16903D01*
X1014122Y15322D01*
X1015164Y13964D01*
X1016522Y12922D01*
X1018103Y12267D01*
X1019800Y12044D01*
X1021497Y12267D01*
X1023078Y12922D01*
X1024436Y13964D01*
X1025478Y15322D01*
X1026133Y16903D01*
X1026356Y18600D01*
X1026133Y20297D01*
X1025478Y21878D01*
X1024436Y23236D01*
X1023078Y24278D01*
X1021497Y24933D01*
X1019876Y25146D01*
X1019797Y25263D01*
X1019624Y26505D01*
X1020326Y26974D01*
X1021652Y28959D01*
X1022117Y31300D01*
X1021652Y33641D01*
X1020326Y35626D01*
X1018341Y36952D01*
X1018086Y37002D01*
Y38297D01*
X1018341Y38348D01*
X1020326Y39674D01*
X1021652Y41659D01*
X1022117Y44000D01*
X1021652Y46341D01*
X1020326Y48326D01*
X1018341Y49652D01*
X1018086Y49703D01*
Y50997D01*
X1018341Y51048D01*
X1020326Y52374D01*
X1021652Y54359D01*
X1022117Y56700D01*
X1021652Y59041D01*
X1020326Y61026D01*
X1018341Y62352D01*
X1018086Y62403D01*
Y63697D01*
X1018341Y63748D01*
X1020326Y65074D01*
X1021652Y67059D01*
X1022117Y69400D01*
X1021652Y71741D01*
X1020326Y73726D01*
X1018341Y75052D01*
X1018086Y75103D01*
Y76397D01*
X1018341Y76448D01*
X1020326Y77774D01*
X1020832Y78531D01*
X1022304D01*
X1022395Y78395D01*
X1024049Y77290D01*
X1026000Y76902D01*
X1027951Y77290D01*
X1029605Y78395D01*
X1030710Y80049D01*
X1031098Y82000D01*
X1030710Y83951D01*
X1029605Y85605D01*
X1027951Y86710D01*
X1026000Y87098D01*
X1024049Y86710D01*
X1022491Y85669D01*
X1020832D01*
X1020326Y86426D01*
X1018341Y87752D01*
X1016000Y88217D01*
X1013659Y87752D01*
X1011674Y86426D01*
X1010348Y84441D01*
X1010297Y84186D01*
X1009003D01*
X1008952Y84441D01*
X1007626Y86426D01*
X1005641Y87752D01*
X1003300Y88217D01*
X1002407Y88040D01*
X994328Y96119D01*
X995605Y97395D01*
X996710Y99049D01*
X997098Y101000D01*
Y103431D01*
X1231431D01*
Y57720D01*
X1227970D01*
Y38480D01*
X1229432D01*
Y35000D01*
X1227000D01*
Y25000D01*
X1239000D01*
Y35000D01*
X1236569D01*
Y38480D01*
X1241432D01*
Y21398D01*
X1240533Y20500D01*
X1239000Y20500D01*
X1237730Y20500D01*
X1227000D01*
Y18569D01*
X1220000D01*
X1220000Y18569D01*
X1215000D01*
Y22000D01*
X1200000D01*
Y8000D01*
X1215000D01*
Y11431D01*
X1220000D01*
X1220000Y11431D01*
X1227000D01*
Y9500D01*
X1237730D01*
X1239000Y9500D01*
X1240270Y9500D01*
X1251000D01*
Y20500D01*
X1248569D01*
Y38480D01*
X1256931D01*
Y20500D01*
X1255000D01*
Y9500D01*
X1265730D01*
X1267000Y9500D01*
X1268270Y9500D01*
X1279000D01*
Y11431D01*
X1286000D01*
Y8000D01*
X1301000D01*
Y22000D01*
X1286000D01*
Y18569D01*
X1279000D01*
Y20500D01*
X1268270D01*
X1267000Y20500D01*
X1265730Y20500D01*
X1264069D01*
Y38480D01*
X1331030D01*
Y57720D01*
X1238569D01*
Y105522D01*
X1262973Y129927D01*
X1263747Y131084D01*
X1264019Y132450D01*
Y216280D01*
X1267530D01*
Y235520D01*
X1261569D01*
Y241000D01*
X1264000D01*
Y242431D01*
X1267000D01*
Y240500D01*
X1279000D01*
Y240500D01*
X1280533Y240500D01*
X1281431Y239602D01*
Y235520D01*
X1278770D01*
Y216280D01*
X1331030D01*
Y235520D01*
X1288569D01*
Y240500D01*
X1291000D01*
Y251500D01*
X1284047D01*
X1283937Y251609D01*
X1283797Y252315D01*
X1283023Y253473D01*
X1277973Y258523D01*
X1276815Y259297D01*
X1275450Y259569D01*
X1118478D01*
X1078569Y299478D01*
Y313000D01*
X1080000D01*
Y325000D01*
X1070000D01*
Y322569D01*
X1063347D01*
Y334946D01*
X1060915D01*
Y380946D01*
X1063347D01*
Y404946D01*
X1051347D01*
Y380946D01*
X1053778D01*
Y334946D01*
X1051347D01*
Y310946D01*
X1063347D01*
Y315431D01*
X1070000D01*
Y313000D01*
X1071431D01*
Y298000D01*
X1071703Y296634D01*
X1072477Y295477D01*
X1114477Y253477D01*
X1115634Y252703D01*
X1117000Y252431D01*
X1266183D01*
X1267000Y251500D01*
Y249569D01*
X1264000D01*
Y251000D01*
X1252000D01*
Y241000D01*
X1254432D01*
Y235520D01*
X1177170D01*
Y216280D01*
X1256881D01*
Y133928D01*
X1233522Y110569D01*
X997098D01*
Y300000D01*
X997098Y300000D01*
Y404888D01*
X1004605Y412395D01*
X1005083Y413111D01*
X1126533D01*
X1126960Y412081D01*
X1128421Y410176D01*
X1130327Y408714D01*
X1132545Y407795D01*
X1134926Y407481D01*
X1137307Y407795D01*
X1139525Y408714D01*
X1141431Y410176D01*
X1142892Y412081D01*
X1143811Y414299D01*
X1144125Y416680D01*
X1143811Y419061D01*
X1142892Y421279D01*
X1141431Y423185D01*
X1139525Y424646D01*
X1137307Y425565D01*
X1134926Y425879D01*
X1132545Y425565D01*
X1130327Y424646D01*
X1128421Y423185D01*
X1126960Y421279D01*
X1126533Y420249D01*
X1011955D01*
X1011469Y421422D01*
X1030523Y440477D01*
X1031297Y441634D01*
X1031569Y443000D01*
Y457371D01*
X1031605Y457395D01*
X1032710Y459049D01*
X1033098Y461000D01*
X1032710Y462951D01*
X1031605Y464605D01*
X1029951Y465710D01*
X1028000Y466098D01*
X1026049Y465710D01*
X1024395Y464605D01*
X1023290Y462951D01*
X1022902Y461000D01*
X1023290Y459049D01*
X1024395Y457395D01*
X1024431Y457371D01*
Y444478D01*
X1001043Y421090D01*
X1001000Y421098D01*
X999049Y420710D01*
X997395Y419605D01*
X988395Y410605D01*
X987290Y408951D01*
X986902Y407000D01*
Y303569D01*
X979000D01*
Y305500D01*
X968270D01*
X967000Y305500D01*
X965730Y305500D01*
X955000D01*
Y303569D01*
X949000D01*
Y305000D01*
X945873D01*
X945523Y305523D01*
X934648Y316399D01*
Y335052D01*
X932217D01*
Y381052D01*
X934648D01*
Y405052D01*
X922648D01*
Y381052D01*
X925079D01*
Y335052D01*
X922648D01*
Y311052D01*
X929901D01*
X937000Y303953D01*
Y295000D01*
X939931D01*
Y232978D01*
X886320Y179367D01*
X884942Y179785D01*
X884710Y180951D01*
X883605Y182605D01*
X881951Y183710D01*
X880000Y184098D01*
X878049Y183710D01*
X876395Y182605D01*
X876135Y182215D01*
X874865D01*
X874605Y182605D01*
X872951Y183710D01*
X871176Y184063D01*
X865216Y190023D01*
X864058Y190797D01*
X862692Y191069D01*
X833000D01*
Y200000D01*
X830569D01*
Y202371D01*
X830605Y202395D01*
X831710Y204049D01*
X832098Y206000D01*
X831710Y207951D01*
X830605Y209605D01*
X828951Y210710D01*
X827000Y211098D01*
X825049Y210710D01*
X823395Y209605D01*
X822290Y207951D01*
X821902Y206000D01*
X822290Y204049D01*
X823395Y202395D01*
X823431Y202371D01*
Y200000D01*
X822047D01*
X822023Y200023D01*
X820866Y200797D01*
X819500Y201068D01*
X815500D01*
Y209000D01*
Y219000D01*
Y229000D01*
Y241773D01*
X816673Y242259D01*
X818456Y240477D01*
X819614Y239703D01*
X820979Y239431D01*
X852071D01*
X853437Y239703D01*
X854594Y240477D01*
X915523Y301406D01*
X916297Y302563D01*
X916569Y303929D01*
Y412451D01*
X942549Y438431D01*
X1000000D01*
X1001366Y438703D01*
X1002523Y439477D01*
X1013047Y450000D01*
X1017500D01*
Y460730D01*
X1017500Y462000D01*
X1017500Y463270D01*
Y474000D01*
X1013047D01*
X1004569Y482478D01*
Y486455D01*
X1010990D01*
Y504425D01*
X997819D01*
Y507489D01*
X1048523Y558194D01*
X1049297Y559352D01*
X1049341Y559575D01*
X1062990D01*
Y577545D01*
X1062569D01*
Y581371D01*
X1062605Y581395D01*
X1063710Y583049D01*
X1064098Y585000D01*
X1063710Y586951D01*
X1062605Y588605D01*
X1060951Y589710D01*
X1059000Y590098D01*
X1057049Y589710D01*
X1055395Y588605D01*
X1054290Y586951D01*
X1053902Y585000D01*
X1054290Y583049D01*
X1054989Y582004D01*
X1054934Y581909D01*
X1053347Y581699D01*
X1051089Y583957D01*
X1051098Y584000D01*
X1050710Y585951D01*
X1049605Y587605D01*
X1047951Y588710D01*
X1046000Y589098D01*
X1044049Y588710D01*
X1042395Y587605D01*
X1041290Y585951D01*
X1040902Y584000D01*
X1041290Y582049D01*
X1042395Y580395D01*
X1044049Y579290D01*
X1045017Y579098D01*
X1045172Y578815D01*
X1044418Y577545D01*
X1042510D01*
Y569395D01*
X1042431Y569000D01*
Y562196D01*
X991727Y511491D01*
X990953Y510333D01*
X990681Y508968D01*
Y504425D01*
X971010D01*
Y486455D01*
X971431D01*
Y474000D01*
X969500D01*
Y463270D01*
X969500Y462000D01*
X969500Y460467D01*
X968602Y459569D01*
X948000D01*
X946634Y459297D01*
X945477Y458523D01*
X905477Y418523D01*
X904703Y417366D01*
X904431Y416000D01*
Y307478D01*
X848522Y251569D01*
X833000D01*
Y261000D01*
X825845D01*
X825500Y261069D01*
X815500D01*
Y266000D01*
X814706D01*
X814220Y267173D01*
X815478Y268431D01*
X821000D01*
Y267000D01*
X833000D01*
Y277000D01*
X830569D01*
Y280371D01*
X830605Y280395D01*
X831710Y282049D01*
X832098Y284000D01*
X831710Y285951D01*
X830605Y287605D01*
X828951Y288710D01*
X827000Y289098D01*
X825049Y288710D01*
X823395Y287605D01*
X822290Y285951D01*
X821902Y284000D01*
X822290Y282049D01*
X823395Y280395D01*
X823431Y280371D01*
Y277000D01*
X821000D01*
Y275569D01*
X814000D01*
X812634Y275297D01*
X811477Y274523D01*
X805477Y268523D01*
X804703Y267366D01*
X804431Y266000D01*
X799500D01*
Y261069D01*
X793500D01*
X792327Y260835D01*
X792171Y260856D01*
X791863Y260977D01*
X790987Y261558D01*
X790710Y262951D01*
X789605Y264605D01*
X787951Y265710D01*
X786000Y266098D01*
X784049Y265710D01*
X782948Y264974D01*
X781943Y265727D01*
X781901Y265839D01*
X782710Y267049D01*
X783098Y269000D01*
X782710Y270951D01*
X781605Y272605D01*
X780669Y273230D01*
X781054Y274500D01*
X791000D01*
Y288431D01*
X792000D01*
X793366Y288703D01*
X794523Y289477D01*
X796957Y291910D01*
X797000Y291902D01*
X798951Y292290D01*
X800605Y293395D01*
X801710Y295049D01*
X802098Y297000D01*
X801710Y298951D01*
X800605Y300605D01*
X798951Y301710D01*
X797000Y302098D01*
X795049Y301710D01*
X793395Y300605D01*
X792290Y298951D01*
X791902Y297000D01*
X791911Y296957D01*
X790522Y295569D01*
X786275D01*
X785789Y296742D01*
X787957Y298911D01*
X788000Y298902D01*
X789951Y299290D01*
X791605Y300395D01*
X792710Y302049D01*
X793098Y304000D01*
X792710Y305951D01*
X791605Y307605D01*
X789951Y308710D01*
X788000Y309098D01*
X786049Y308710D01*
X784395Y307605D01*
X783290Y305951D01*
X782902Y304000D01*
X782911Y303957D01*
X777242Y298289D01*
X776069Y298775D01*
Y302037D01*
X776605Y302395D01*
X777710Y304049D01*
X778098Y306000D01*
X777710Y307951D01*
X776605Y309605D01*
X774951Y310710D01*
X773000Y311098D01*
X771049Y310710D01*
X769395Y309605D01*
X768290Y307951D01*
X768189Y307442D01*
X766973Y307073D01*
X756089Y317957D01*
X756098Y318000D01*
X755710Y319951D01*
X754605Y321605D01*
X752951Y322710D01*
X751000Y323098D01*
X749049Y322710D01*
X747395Y321605D01*
X747061Y321105D01*
X745791Y321490D01*
Y329784D01*
X748899Y332893D01*
X749673Y334050D01*
X749777Y334575D01*
X751560Y336357D01*
X763974Y323944D01*
X762979Y322950D01*
X771464Y314464D01*
X778536Y321535D01*
X770050Y330021D01*
X769020Y328991D01*
X756183Y341828D01*
X755025Y342602D01*
X754898Y342627D01*
X752121Y345404D01*
X748232Y341515D01*
X741515Y348232D01*
X744343Y351061D01*
X751768Y358485D01*
X759192Y351061D01*
X762728Y347525D01*
X763578Y348375D01*
X768078Y343875D01*
Y339354D01*
X768350Y337988D01*
X769123Y336830D01*
X773234Y332719D01*
X772222Y331707D01*
X780707Y323222D01*
X787778Y330293D01*
X779293Y338778D01*
X778281Y337766D01*
X775215Y340832D01*
Y345354D01*
X774943Y346719D01*
X774170Y347877D01*
X768625Y353422D01*
X770329Y355126D01*
X767196Y358260D01*
X774523Y365588D01*
X775297Y366745D01*
X775569Y368111D01*
Y377000D01*
X775297Y378366D01*
X774523Y379523D01*
X766523Y387523D01*
X765366Y388297D01*
X764000Y388569D01*
X742000D01*
X740634Y388297D01*
X739477Y387523D01*
X716742Y364789D01*
X715569Y365275D01*
Y376860D01*
X715555Y376930D01*
X715569Y377000D01*
X715499Y377352D01*
Y546195D01*
X716721Y546702D01*
X718705Y548225D01*
X720228Y550209D01*
X721186Y552520D01*
X721512Y555000D01*
X721186Y557480D01*
X720228Y559791D01*
X718705Y561776D01*
X716721Y563298D01*
X714410Y564255D01*
X711930Y564582D01*
X709450Y564255D01*
X707139Y563298D01*
X705154Y561776D01*
X703632Y559791D01*
X702674Y557480D01*
X702348Y555000D01*
X702674Y552520D01*
X703632Y550209D01*
X705154Y548225D01*
X707139Y546702D01*
X708361Y546195D01*
Y376930D01*
X708431Y376578D01*
Y331204D01*
X707258Y330718D01*
X702666Y335309D01*
X702523Y335523D01*
X690099Y347948D01*
Y546195D01*
X691321Y546702D01*
X693305Y548225D01*
X694828Y550209D01*
X695786Y552520D01*
X696112Y555000D01*
X695786Y557480D01*
X694828Y559791D01*
X693305Y561776D01*
X691321Y563298D01*
X689010Y564255D01*
X686530Y564582D01*
X684050Y564255D01*
X681739Y563298D01*
X679754Y561776D01*
X678232Y559791D01*
X677274Y557480D01*
X676948Y555000D01*
X677274Y552520D01*
X678232Y550209D01*
X679754Y548225D01*
X681739Y546702D01*
X682961Y546195D01*
Y346470D01*
X683233Y345104D01*
X684007Y343947D01*
X697298Y330655D01*
X697441Y330441D01*
X733931Y293951D01*
Y290500D01*
X709000D01*
Y288706D01*
X707827Y288220D01*
X706569Y289478D01*
Y295000D01*
X708000D01*
Y307000D01*
X698000D01*
Y295000D01*
X699431D01*
Y288000D01*
X699703Y286634D01*
X700477Y285477D01*
X705477Y280477D01*
X706634Y279703D01*
X708000Y279431D01*
X708931D01*
Y274620D01*
X707755Y274009D01*
X707661Y274023D01*
X706605Y275605D01*
X704951Y276710D01*
X703000Y277098D01*
X701049Y276710D01*
X699395Y275605D01*
X698290Y273951D01*
X697902Y272000D01*
X698290Y270049D01*
X698776Y269322D01*
X695522Y266069D01*
X692500D01*
X692155Y266000D01*
X684500D01*
Y259000D01*
Y249000D01*
Y239000D01*
Y229000D01*
Y219000D01*
Y209000D01*
X700500D01*
Y219000D01*
Y229000D01*
Y239000D01*
Y249000D01*
Y260953D01*
X705523Y265977D01*
X706297Y267134D01*
X706539Y268351D01*
X706605Y268395D01*
X707661Y269977D01*
X707755Y269991D01*
X708931Y269380D01*
Y174950D01*
Y162978D01*
X700500Y154547D01*
X694523Y160523D01*
X693366Y161297D01*
X692000Y161569D01*
X676569D01*
Y170000D01*
X679000D01*
Y171431D01*
X685000D01*
X686366Y171703D01*
X687523Y172477D01*
X694523Y179477D01*
X695297Y180634D01*
X695569Y182000D01*
Y184000D01*
X700500D01*
Y191000D01*
X684500D01*
Y184000D01*
X687157D01*
X687683Y182730D01*
X683522Y178569D01*
X679000D01*
Y180000D01*
X667000D01*
Y170000D01*
X669431D01*
Y159478D01*
X664477Y154523D01*
X664477Y154523D01*
X634522Y124569D01*
X620405D01*
X619898Y125791D01*
X618375Y127775D01*
X616898Y128909D01*
Y150000D01*
X620500D01*
Y164000D01*
X603500D01*
Y163098D01*
X599000D01*
Y165000D01*
X585000D01*
Y163098D01*
X552112D01*
X547105Y168105D01*
X499098Y216112D01*
Y375612D01*
X500000Y376500D01*
X501270Y376500D01*
X512000D01*
Y378431D01*
X517500D01*
Y375000D01*
X532500D01*
Y389000D01*
X517500D01*
Y385569D01*
X512000D01*
Y387500D01*
X501270D01*
X500000Y387500D01*
X499098Y388388D01*
Y417488D01*
X541660Y460050D01*
X557050D01*
Y471902D01*
X563000D01*
Y470000D01*
X577000D01*
Y484000D01*
X563000D01*
Y482098D01*
X557050D01*
Y495950D01*
X541660D01*
X522098Y515512D01*
Y521950D01*
X534950D01*
Y544550D01*
X522098D01*
Y583450D01*
X523500D01*
Y606050D01*
D02*
G37*
G36*
X1416926Y508684D02*
X1412711Y508269D01*
X1408658Y507039D01*
X1404924Y505043D01*
X1401650Y502356D01*
X1398963Y499082D01*
X1396967Y495348D01*
X1395737Y491295D01*
X1395322Y487080D01*
X1395737Y482865D01*
X1396967Y478812D01*
X1398963Y475078D01*
X1401650Y471804D01*
X1404924Y469117D01*
X1408658Y467121D01*
X1412711Y465891D01*
X1416926Y465476D01*
X1421141Y465891D01*
X1425193Y467121D01*
X1428929Y469117D01*
X1432202Y471804D01*
X1434889Y475078D01*
X1436886Y478812D01*
X1438115Y482865D01*
X1438530Y487080D01*
X1438115Y491295D01*
X1436886Y495348D01*
X1434889Y499082D01*
X1432202Y502356D01*
X1428929Y505043D01*
X1425193Y507039D01*
X1421141Y508269D01*
X1416926Y508684D01*
D02*
G37*
G36*
X1159926D02*
X1155711Y508269D01*
X1151658Y507039D01*
X1147924Y505043D01*
X1144650Y502356D01*
X1141963Y499082D01*
X1139967Y495348D01*
X1138737Y491295D01*
X1138322Y487080D01*
X1138737Y482865D01*
X1139967Y478812D01*
X1141963Y475078D01*
X1144650Y471804D01*
X1147924Y469117D01*
X1151658Y467121D01*
X1155711Y465891D01*
X1159926Y465476D01*
X1164141Y465891D01*
X1168194Y467121D01*
X1171928Y469117D01*
X1175202Y471804D01*
X1177889Y475078D01*
X1179885Y478812D01*
X1181115Y482865D01*
X1181530Y487080D01*
X1181115Y491295D01*
X1179885Y495348D01*
X1177889Y499082D01*
X1175202Y502356D01*
X1171928Y505043D01*
X1168194Y507039D01*
X1164141Y508269D01*
X1159926Y508684D01*
D02*
G37*
G36*
X340074Y504524D02*
X335859Y504109D01*
X331806Y502879D01*
X328072Y500883D01*
X324798Y498196D01*
X322111Y494923D01*
X320115Y491188D01*
X318885Y487135D01*
X318470Y482920D01*
X318885Y478705D01*
X320115Y474652D01*
X322111Y470918D01*
X324798Y467644D01*
X328072Y464957D01*
X331806Y462961D01*
X335859Y461731D01*
X340074Y461316D01*
X344289Y461731D01*
X348341Y462961D01*
X352076Y464957D01*
X355350Y467644D01*
X358037Y470918D01*
X360033Y474652D01*
X361263Y478705D01*
X361678Y482920D01*
X361263Y487135D01*
X360033Y491188D01*
X358037Y494923D01*
X355350Y498196D01*
X352076Y500883D01*
X348341Y502879D01*
X344289Y504109D01*
X340074Y504524D01*
D02*
G37*
G36*
X83074D02*
X78859Y504109D01*
X74806Y502879D01*
X71072Y500883D01*
X67798Y498196D01*
X65111Y494923D01*
X63115Y491188D01*
X61885Y487135D01*
X61470Y482920D01*
X61885Y478705D01*
X63115Y474652D01*
X65111Y470918D01*
X67798Y467644D01*
X71072Y464957D01*
X74806Y462961D01*
X78859Y461731D01*
X83074Y461316D01*
X87289Y461731D01*
X91341Y462961D01*
X95077Y464957D01*
X98350Y467644D01*
X101037Y470918D01*
X103034Y474652D01*
X104263Y478705D01*
X104678Y482920D01*
X104263Y487135D01*
X103034Y491188D01*
X101037Y494923D01*
X98350Y498196D01*
X95077Y500883D01*
X91341Y502879D01*
X87289Y504109D01*
X83074Y504524D01*
D02*
G37*
G36*
X458300Y466154D02*
X453800D01*
X452727Y465940D01*
X451817Y465333D01*
X451210Y464423D01*
X450996Y463350D01*
Y459098D01*
X448404D01*
Y463350D01*
X448190Y464423D01*
X447583Y465333D01*
X446673Y465940D01*
X445600Y466154D01*
X441100D01*
X440027Y465940D01*
X439117Y465333D01*
X438510Y464423D01*
X438296Y463350D01*
Y459098D01*
X435704D01*
Y463350D01*
X435490Y464423D01*
X434883Y465333D01*
X433973Y465940D01*
X432900Y466154D01*
X428400D01*
X427327Y465940D01*
X426417Y465333D01*
X425810Y464423D01*
X425596Y463350D01*
Y459098D01*
X423004D01*
Y463350D01*
X422790Y464423D01*
X422183Y465333D01*
X421273Y465940D01*
X420200Y466154D01*
X415700D01*
X414627Y465940D01*
X413717Y465333D01*
X413110Y464423D01*
X412896Y463350D01*
Y454472D01*
X412852Y454250D01*
Y454000D01*
X412896Y453778D01*
Y445150D01*
X413110Y444077D01*
X413717Y443167D01*
X414627Y442560D01*
X415700Y442346D01*
X420200D01*
X421273Y442560D01*
X422183Y443167D01*
X422790Y444077D01*
X423004Y445150D01*
Y448902D01*
X425596D01*
Y445150D01*
X425810Y444077D01*
X426417Y443167D01*
X427327Y442560D01*
X428400Y442346D01*
X432900D01*
X433973Y442560D01*
X434883Y443167D01*
X435490Y444077D01*
X435704Y445150D01*
Y448902D01*
X438296D01*
Y445150D01*
X438510Y444077D01*
X439117Y443167D01*
X440027Y442560D01*
X441100Y442346D01*
X445600D01*
X446673Y442560D01*
X447583Y443167D01*
X448190Y444077D01*
X448404Y445150D01*
Y448902D01*
X450996D01*
Y445150D01*
X451210Y444077D01*
X451817Y443167D01*
X452727Y442560D01*
X453800Y442346D01*
X458300D01*
X459373Y442560D01*
X460283Y443167D01*
X460890Y444077D01*
X461104Y445150D01*
Y449902D01*
X472950D01*
Y448500D01*
X495550D01*
Y461500D01*
X472950D01*
Y460098D01*
X461104D01*
Y463350D01*
X460890Y464423D01*
X460283Y465333D01*
X459373Y465940D01*
X458300Y466154D01*
D02*
G37*
G36*
X365074Y448719D02*
X362693Y448405D01*
X360475Y447486D01*
X358569Y446025D01*
X357108Y444119D01*
X356189Y441901D01*
X355875Y439520D01*
X356189Y437139D01*
X357108Y434921D01*
X358569Y433016D01*
X360475Y431554D01*
X362693Y430635D01*
X365074Y430321D01*
X367455Y430635D01*
X369673Y431554D01*
X371578Y433016D01*
X373040Y434921D01*
X373959Y437139D01*
X374273Y439520D01*
X373959Y441901D01*
X373040Y444119D01*
X371578Y446025D01*
X369673Y447486D01*
X367455Y448405D01*
X365074Y448719D01*
D02*
G37*
G36*
Y423319D02*
X362693Y423005D01*
X360475Y422086D01*
X358569Y420625D01*
X357108Y418719D01*
X356189Y416501D01*
X355875Y414120D01*
X356189Y411739D01*
X357108Y409521D01*
X358569Y407616D01*
X360475Y406154D01*
X362693Y405235D01*
X365074Y404921D01*
X367455Y405235D01*
X369673Y406154D01*
X371578Y407616D01*
X373040Y409521D01*
X373959Y411739D01*
X374273Y414120D01*
X373959Y416501D01*
X373040Y418719D01*
X371578Y420625D01*
X369673Y422086D01*
X367455Y423005D01*
X365074Y423319D01*
D02*
G37*
G36*
X1134926Y400479D02*
X1132545Y400165D01*
X1130327Y399246D01*
X1128421Y397785D01*
X1126960Y395879D01*
X1126041Y393661D01*
X1125727Y391280D01*
X1126041Y388899D01*
X1126960Y386681D01*
X1128421Y384776D01*
X1130327Y383314D01*
X1132545Y382395D01*
X1134926Y382081D01*
X1137307Y382395D01*
X1139525Y383314D01*
X1141431Y384776D01*
X1142892Y386681D01*
X1143811Y388899D01*
X1144125Y391280D01*
X1143811Y393661D01*
X1142892Y395879D01*
X1141431Y397785D01*
X1139525Y399246D01*
X1137307Y400165D01*
X1134926Y400479D01*
D02*
G37*
G36*
X365074Y397919D02*
X362693Y397605D01*
X360475Y396686D01*
X358569Y395224D01*
X357108Y393319D01*
X356189Y391101D01*
X355875Y388720D01*
X356189Y386339D01*
X357108Y384121D01*
X358569Y382215D01*
X360475Y380754D01*
X362693Y379835D01*
X365074Y379521D01*
X367455Y379835D01*
X369673Y380754D01*
X371578Y382215D01*
X373040Y384121D01*
X373959Y386339D01*
X374273Y388720D01*
X373959Y391101D01*
X373040Y393319D01*
X371578Y395224D01*
X369673Y396686D01*
X367455Y397605D01*
X365074Y397919D01*
D02*
G37*
G36*
X1134926Y375079D02*
X1132545Y374765D01*
X1130327Y373846D01*
X1128421Y372384D01*
X1126960Y370479D01*
X1126041Y368261D01*
X1125727Y365880D01*
X1126041Y363499D01*
X1126960Y361281D01*
X1128421Y359376D01*
X1130327Y357914D01*
X1132545Y356995D01*
X1134926Y356681D01*
X1137307Y356995D01*
X1139525Y357914D01*
X1141431Y359376D01*
X1142892Y361281D01*
X1143811Y363499D01*
X1144125Y365880D01*
X1143811Y368261D01*
X1142892Y370479D01*
X1141431Y372384D01*
X1139525Y373846D01*
X1137307Y374765D01*
X1134926Y375079D01*
D02*
G37*
G36*
Y349679D02*
X1132545Y349365D01*
X1130327Y348446D01*
X1128421Y346984D01*
X1126960Y345079D01*
X1126041Y342861D01*
X1125727Y340480D01*
X1126041Y338099D01*
X1126960Y335881D01*
X1128421Y333976D01*
X1130327Y332514D01*
X1132545Y331595D01*
X1134926Y331281D01*
X1137307Y331595D01*
X1139525Y332514D01*
X1141431Y333976D01*
X1142892Y335881D01*
X1143811Y338099D01*
X1144125Y340480D01*
X1143811Y342861D01*
X1142892Y345079D01*
X1141431Y346984D01*
X1139525Y348446D01*
X1137307Y349365D01*
X1134926Y349679D01*
D02*
G37*
G36*
X683000Y333098D02*
X681049Y332710D01*
X679395Y331605D01*
X678290Y329951D01*
X677902Y328000D01*
X677911Y327957D01*
X673477Y323523D01*
X672703Y322366D01*
X672431Y321000D01*
Y305629D01*
X672395Y305605D01*
X671290Y303951D01*
X670902Y302000D01*
X671290Y300049D01*
X672395Y298395D01*
X674049Y297290D01*
X676000Y296902D01*
X677951Y297290D01*
X679605Y298395D01*
X680710Y300049D01*
X681098Y302000D01*
X680710Y303951D01*
X679605Y305605D01*
X679569Y305629D01*
Y319522D01*
X682957Y322911D01*
X683000Y322902D01*
X684951Y323290D01*
X686605Y324395D01*
X687710Y326049D01*
X688098Y328000D01*
X687710Y329951D01*
X686605Y331605D01*
X684951Y332710D01*
X683000Y333098D01*
D02*
G37*
G36*
X1416926Y318684D02*
X1412711Y318269D01*
X1408658Y317040D01*
X1404924Y315043D01*
X1401650Y312356D01*
X1398963Y309083D01*
X1396967Y305347D01*
X1395737Y301295D01*
X1395322Y297080D01*
X1395737Y292865D01*
X1396967Y288813D01*
X1398963Y285077D01*
X1401650Y281804D01*
X1404924Y279117D01*
X1408658Y277120D01*
X1412711Y275891D01*
X1416926Y275476D01*
X1421141Y275891D01*
X1425193Y277120D01*
X1428929Y279117D01*
X1432202Y281804D01*
X1434889Y285077D01*
X1436886Y288813D01*
X1438115Y292865D01*
X1438530Y297080D01*
X1438115Y301295D01*
X1436886Y305347D01*
X1434889Y309083D01*
X1432202Y312356D01*
X1428929Y315043D01*
X1425193Y317040D01*
X1421141Y318269D01*
X1416926Y318684D01*
D02*
G37*
G36*
X1159926D02*
X1155711Y318269D01*
X1151658Y317040D01*
X1147924Y315043D01*
X1144650Y312356D01*
X1141963Y309083D01*
X1139967Y305347D01*
X1138737Y301295D01*
X1138322Y297080D01*
X1138737Y292865D01*
X1139967Y288813D01*
X1141963Y285077D01*
X1144650Y281804D01*
X1147924Y279117D01*
X1151658Y277120D01*
X1155711Y275891D01*
X1159926Y275476D01*
X1164141Y275891D01*
X1168194Y277120D01*
X1171928Y279117D01*
X1175202Y281804D01*
X1177889Y285077D01*
X1179885Y288813D01*
X1181115Y292865D01*
X1181530Y297080D01*
X1181115Y301295D01*
X1179885Y305347D01*
X1177889Y309083D01*
X1175202Y312356D01*
X1171928Y315043D01*
X1168194Y317040D01*
X1164141Y318269D01*
X1159926Y318684D01*
D02*
G37*
G36*
X340074Y314524D02*
X335859Y314109D01*
X331806Y312880D01*
X328072Y310883D01*
X324798Y308196D01*
X322111Y304923D01*
X320115Y301187D01*
X318885Y297135D01*
X318470Y292920D01*
X318885Y288705D01*
X320115Y284653D01*
X322111Y280917D01*
X324798Y277644D01*
X328072Y274957D01*
X331806Y272960D01*
X335859Y271731D01*
X340074Y271316D01*
X344289Y271731D01*
X348341Y272960D01*
X352076Y274957D01*
X355350Y277644D01*
X358037Y280917D01*
X360033Y284653D01*
X361263Y288705D01*
X361678Y292920D01*
X361263Y297135D01*
X360033Y301187D01*
X358037Y304923D01*
X355350Y308196D01*
X352076Y310883D01*
X348341Y312880D01*
X344289Y314109D01*
X340074Y314524D01*
D02*
G37*
G36*
X83074D02*
X78859Y314109D01*
X74806Y312880D01*
X71072Y310883D01*
X67798Y308196D01*
X65111Y304923D01*
X63115Y301187D01*
X61885Y297135D01*
X61470Y292920D01*
X61885Y288705D01*
X63115Y284653D01*
X65111Y280917D01*
X67798Y277644D01*
X71072Y274957D01*
X74806Y272960D01*
X78859Y271731D01*
X83074Y271316D01*
X87289Y271731D01*
X91341Y272960D01*
X95077Y274957D01*
X98350Y277644D01*
X101037Y280917D01*
X103034Y284653D01*
X104263Y288705D01*
X104678Y292920D01*
X104263Y297135D01*
X103034Y301187D01*
X101037Y304923D01*
X98350Y308196D01*
X95077Y310883D01*
X91341Y312880D01*
X87289Y314109D01*
X83074Y314524D01*
D02*
G37*
G36*
X1451250Y219000D02*
X1436750D01*
Y217863D01*
X1411000D01*
X1410204Y217704D01*
X1409000Y217875D01*
Y217875D01*
X1403952Y217377D01*
X1399098Y215905D01*
X1394625Y213514D01*
X1390704Y210296D01*
X1387486Y206375D01*
X1385095Y201902D01*
X1383623Y197048D01*
X1383125Y192000D01*
X1383125D01*
X1383137Y191300D01*
Y144000D01*
X1383202Y143675D01*
X1382760Y140313D01*
X1381336Y136878D01*
X1379073Y133927D01*
X1376122Y131664D01*
X1372687Y130240D01*
X1370247Y129919D01*
X1369000Y129863D01*
X1368909Y129863D01*
X1367749Y129863D01*
X1358970D01*
Y131380D01*
X1339730D01*
Y117220D01*
X1358970D01*
Y118137D01*
X1368750D01*
X1369000Y118125D01*
Y118125D01*
X1374048Y118623D01*
X1378902Y120095D01*
X1383375Y122486D01*
X1387296Y125704D01*
X1390514Y129625D01*
X1392905Y134098D01*
X1394377Y138952D01*
X1394875Y144000D01*
X1394875D01*
X1394863Y145270D01*
Y190745D01*
X1394863Y192000D01*
X1394918Y193234D01*
X1395240Y195687D01*
X1396664Y199122D01*
X1398927Y202073D01*
X1401878Y204336D01*
X1405313Y205760D01*
X1407756Y206081D01*
X1409000Y206137D01*
X1409000D01*
X1410204Y206296D01*
X1411000Y206137D01*
X1436750D01*
Y205000D01*
X1451250D01*
Y219000D01*
D02*
G37*
G36*
X1165930Y235520D02*
X1100970D01*
Y216280D01*
X1165930D01*
Y235520D01*
D02*
G37*
G36*
X238000Y214782D02*
X235520Y214456D01*
X233209Y213498D01*
X231225Y211975D01*
X229702Y209991D01*
X228745Y207680D01*
X228418Y205200D01*
X228745Y202720D01*
X229702Y200409D01*
X231225Y198424D01*
X233209Y196902D01*
X235520Y195944D01*
X238000Y195618D01*
X240480Y195944D01*
X242791Y196902D01*
X244776Y198424D01*
X246298Y200409D01*
X247255Y202720D01*
X247582Y205200D01*
X247255Y207680D01*
X246298Y209991D01*
X244776Y211975D01*
X242791Y213498D01*
X240480Y214456D01*
X238000Y214782D01*
D02*
G37*
G36*
X700500Y206000D02*
X684500D01*
Y194000D01*
X700500D01*
Y199000D01*
Y206000D01*
D02*
G37*
G36*
X238000Y189382D02*
X235520Y189056D01*
X233209Y188098D01*
X231225Y186575D01*
X229702Y184591D01*
X228745Y182280D01*
X228418Y179800D01*
X228745Y177320D01*
X229702Y175009D01*
X231225Y173025D01*
X233209Y171502D01*
X235520Y170544D01*
X238000Y170218D01*
X240480Y170544D01*
X242791Y171502D01*
X244776Y173025D01*
X246298Y175009D01*
X247255Y177320D01*
X247582Y179800D01*
X247255Y182280D01*
X246298Y184591D01*
X244776Y186575D01*
X242791Y188098D01*
X240480Y189056D01*
X238000Y189382D01*
D02*
G37*
G36*
X620500Y180000D02*
X603500D01*
Y166000D01*
X620500D01*
Y167931D01*
X626000D01*
Y165000D01*
X636000D01*
Y167431D01*
X637371D01*
X637395Y167395D01*
X639049Y166290D01*
X641000Y165902D01*
X642951Y166290D01*
X644605Y167395D01*
X645710Y169049D01*
X646098Y171000D01*
X645710Y172951D01*
X644605Y174605D01*
X642951Y175710D01*
X641000Y176098D01*
X639049Y175710D01*
X637395Y174605D01*
X637371Y174569D01*
X636000D01*
Y177000D01*
X626000D01*
Y175069D01*
X620500D01*
Y180000D01*
D02*
G37*
G36*
X238000Y163982D02*
X235520Y163655D01*
X233209Y162698D01*
X231225Y161175D01*
X229702Y159191D01*
X228745Y156880D01*
X228418Y154400D01*
X228745Y151920D01*
X229702Y149609D01*
X231225Y147625D01*
X233209Y146102D01*
X235520Y145145D01*
X238000Y144818D01*
X240480Y145145D01*
X242791Y146102D01*
X244776Y147625D01*
X246298Y149609D01*
X247255Y151920D01*
X247582Y154400D01*
X247255Y156880D01*
X246298Y159191D01*
X244776Y161175D01*
X242791Y162698D01*
X240480Y163655D01*
X238000Y163982D01*
D02*
G37*
G36*
X1358970Y156780D02*
X1339730D01*
Y142620D01*
X1358970D01*
Y156780D01*
D02*
G37*
G36*
X238000Y138582D02*
X235520Y138256D01*
X233209Y137298D01*
X231225Y135775D01*
X229702Y133791D01*
X228745Y131480D01*
X228418Y129000D01*
X228745Y126520D01*
X229702Y124209D01*
X231225Y122225D01*
X233209Y120702D01*
X235520Y119745D01*
X238000Y119418D01*
X240480Y119745D01*
X242791Y120702D01*
X244776Y122225D01*
X246298Y124209D01*
X247255Y126520D01*
X247582Y129000D01*
X247255Y131480D01*
X246298Y133791D01*
X244776Y135775D01*
X242791Y137298D01*
X240480Y138256D01*
X238000Y138582D01*
D02*
G37*
G36*
X322000Y211098D02*
X320049Y210710D01*
X318395Y209605D01*
X317290Y207951D01*
X316902Y206000D01*
X317290Y204049D01*
X318395Y202395D01*
X318431Y202371D01*
Y189078D01*
X241702Y112349D01*
X240480Y112856D01*
X238000Y113182D01*
X235520Y112856D01*
X233209Y111898D01*
X231225Y110375D01*
X229702Y108391D01*
X228745Y106080D01*
X228418Y103600D01*
X228745Y101120D01*
X229702Y98809D01*
X231225Y96825D01*
X233209Y95302D01*
X235520Y94345D01*
X238000Y94018D01*
X240480Y94345D01*
X242791Y95302D01*
X244776Y96825D01*
X246298Y98809D01*
X247255Y101120D01*
X247582Y103600D01*
X247255Y106080D01*
X246749Y107302D01*
X324523Y185077D01*
X325297Y186234D01*
X325569Y187600D01*
Y202371D01*
X325605Y202395D01*
X326710Y204049D01*
X327098Y206000D01*
X326710Y207951D01*
X325605Y209605D01*
X323951Y210710D01*
X322000Y211098D01*
D02*
G37*
G36*
X671900Y130500D02*
X652900D01*
Y111500D01*
X671900D01*
Y130500D01*
D02*
G37*
G36*
X891000Y130582D02*
X888520Y130255D01*
X886209Y129298D01*
X884224Y127775D01*
X882702Y125791D01*
X881745Y123480D01*
X881418Y121000D01*
X881745Y118520D01*
X882702Y116209D01*
X884224Y114225D01*
X886209Y112702D01*
X888520Y111745D01*
X891000Y111418D01*
X893480Y111745D01*
X895791Y112702D01*
X897775Y114225D01*
X899298Y116209D01*
X900256Y118520D01*
X900582Y121000D01*
X900256Y123480D01*
X899298Y125791D01*
X897775Y127775D01*
X895791Y129298D01*
X893480Y130255D01*
X891000Y130582D01*
D02*
G37*
G36*
X814800D02*
X812320Y130255D01*
X810009Y129298D01*
X808025Y127775D01*
X806502Y125791D01*
X805545Y123480D01*
X805218Y121000D01*
X805545Y118520D01*
X806502Y116209D01*
X808025Y114225D01*
X810009Y112702D01*
X812320Y111745D01*
X814800Y111418D01*
X817280Y111745D01*
X819591Y112702D01*
X821575Y114225D01*
X823098Y116209D01*
X824055Y118520D01*
X824382Y121000D01*
X824055Y123480D01*
X823098Y125791D01*
X821575Y127775D01*
X819591Y129298D01*
X817280Y130255D01*
X814800Y130582D01*
D02*
G37*
G36*
X789400D02*
X786920Y130255D01*
X784609Y129298D01*
X782625Y127775D01*
X781102Y125791D01*
X780145Y123480D01*
X779818Y121000D01*
X780145Y118520D01*
X781102Y116209D01*
X782625Y114225D01*
X784609Y112702D01*
X786920Y111745D01*
X789400Y111418D01*
X791880Y111745D01*
X794191Y112702D01*
X796175Y114225D01*
X797698Y116209D01*
X798655Y118520D01*
X798982Y121000D01*
X798655Y123480D01*
X797698Y125791D01*
X796175Y127775D01*
X794191Y129298D01*
X791880Y130255D01*
X789400Y130582D01*
D02*
G37*
G36*
X586000Y92000D02*
X573000D01*
Y88568D01*
X568000D01*
Y92000D01*
X553000D01*
Y78000D01*
X568000D01*
Y81431D01*
X573000D01*
Y78000D01*
X586000D01*
Y92000D01*
D02*
G37*
G36*
X1009650Y101356D02*
X1007953Y101133D01*
X1006372Y100478D01*
X1005014Y99436D01*
X1003972Y98078D01*
X1003317Y96497D01*
X1003094Y94800D01*
X1003317Y93103D01*
X1003972Y91522D01*
X1005014Y90164D01*
X1006372Y89122D01*
X1007953Y88467D01*
X1009650Y88244D01*
X1011347Y88467D01*
X1012928Y89122D01*
X1014286Y90164D01*
X1015328Y91522D01*
X1015983Y93103D01*
X1016206Y94800D01*
X1015983Y96497D01*
X1015328Y98078D01*
X1014286Y99436D01*
X1012928Y100478D01*
X1011347Y101133D01*
X1009650Y101356D01*
D02*
G37*
G36*
X931400Y87582D02*
X928920Y87255D01*
X926609Y86298D01*
X924624Y84775D01*
X923102Y82791D01*
X922144Y80480D01*
X921818Y78000D01*
X922144Y75520D01*
X923102Y73209D01*
X924624Y71224D01*
X926609Y69702D01*
X928920Y68745D01*
X931400Y68418D01*
X933880Y68745D01*
X936191Y69702D01*
X938175Y71224D01*
X939698Y73209D01*
X940655Y75520D01*
X940982Y78000D01*
X940655Y80480D01*
X939698Y82791D01*
X938175Y84775D01*
X936191Y86298D01*
X933880Y87255D01*
X931400Y87582D01*
D02*
G37*
G36*
X586000Y67000D02*
X573000D01*
Y63569D01*
X568000D01*
Y67000D01*
X553000D01*
Y53000D01*
X568000D01*
Y56431D01*
X573000D01*
Y53000D01*
X586000D01*
Y67000D01*
D02*
G37*
G36*
X1216730Y57720D02*
X1189870D01*
Y38480D01*
X1216730D01*
Y57720D01*
D02*
G37*
G36*
X1053000Y74982D02*
X1050520Y74655D01*
X1048209Y73698D01*
X1046225Y72175D01*
X1044702Y70191D01*
X1043745Y67880D01*
X1043418Y65400D01*
X1043745Y62920D01*
X1044702Y60609D01*
X1046225Y58625D01*
X1048209Y57102D01*
X1050520Y56144D01*
X1053000Y55818D01*
X1055480Y56144D01*
X1057127Y56827D01*
X1082211Y31742D01*
X1081725Y30569D01*
X1067478D01*
X1062500Y35547D01*
Y49500D01*
X1043500D01*
Y30500D01*
X1057453D01*
X1063477Y24477D01*
X1064634Y23703D01*
X1066000Y23431D01*
X1160000D01*
X1161366Y23703D01*
X1162523Y24477D01*
X1173523Y35477D01*
X1174297Y36634D01*
X1174569Y38000D01*
Y38480D01*
X1178630D01*
Y57720D01*
X1100970D01*
Y38480D01*
X1152774D01*
X1153260Y37307D01*
X1151522Y35569D01*
X1088478D01*
X1061925Y62122D01*
X1062255Y62920D01*
X1062582Y65400D01*
X1062255Y67880D01*
X1061298Y70191D01*
X1059775Y72175D01*
X1057791Y73698D01*
X1055480Y74655D01*
X1053000Y74982D01*
D02*
G37*
G36*
X568000Y41000D02*
X553000D01*
Y27000D01*
X568000D01*
Y29431D01*
X573000D01*
Y26000D01*
X586000D01*
Y40000D01*
X573000D01*
Y36569D01*
X568000D01*
Y41000D01*
D02*
G37*
G36*
X750000Y76582D02*
X745842Y76255D01*
X741786Y75281D01*
X737932Y73685D01*
X734376Y71505D01*
X731204Y68796D01*
X728495Y65624D01*
X726315Y62068D01*
X724719Y58214D01*
X723745Y54158D01*
X723418Y50000D01*
X723745Y45842D01*
X724719Y41786D01*
X726315Y37932D01*
X728495Y34376D01*
X731204Y31204D01*
X734376Y28495D01*
X737932Y26315D01*
X741786Y24719D01*
X745842Y23745D01*
X750000Y23418D01*
X754158Y23745D01*
X758214Y24719D01*
X762068Y26315D01*
X765624Y28495D01*
X768796Y31204D01*
X771505Y34376D01*
X773685Y37932D01*
X775281Y41786D01*
X776255Y45842D01*
X776582Y50000D01*
X776255Y54158D01*
X775281Y58214D01*
X773685Y62068D01*
X771505Y65624D01*
X768796Y68796D01*
X765624Y71505D01*
X762068Y73685D01*
X758214Y75281D01*
X754158Y76255D01*
X750000Y76582D01*
D02*
G37*
G36*
X1450000Y76582D02*
X1445842Y76255D01*
X1441786Y75281D01*
X1437932Y73685D01*
X1434375Y71505D01*
X1431204Y68796D01*
X1428495Y65624D01*
X1426315Y62068D01*
X1424719Y58214D01*
X1423745Y54158D01*
X1423418Y50000D01*
X1423745Y45842D01*
X1424719Y41786D01*
X1426315Y37932D01*
X1428495Y34376D01*
X1431204Y31204D01*
X1434375Y28495D01*
X1437932Y26315D01*
X1441786Y24719D01*
X1445842Y23745D01*
X1450000Y23418D01*
X1454158Y23745D01*
X1458214Y24719D01*
X1462068Y26315D01*
X1465625Y28495D01*
X1468796Y31204D01*
X1471505Y34376D01*
X1473685Y37932D01*
X1475281Y41786D01*
X1476255Y45842D01*
X1476582Y50000D01*
X1476255Y54158D01*
X1475281Y58214D01*
X1473685Y62068D01*
X1471505Y65624D01*
X1468796Y68796D01*
X1465625Y71505D01*
X1462068Y73685D01*
X1458214Y75281D01*
X1454158Y76255D01*
X1450000Y76582D01*
D02*
G37*
G36*
X50000D02*
X45842Y76255D01*
X41786Y75281D01*
X37932Y73685D01*
X34376Y71505D01*
X31204Y68796D01*
X28495Y65624D01*
X26315Y62068D01*
X24719Y58214D01*
X23745Y54158D01*
X23418Y50000D01*
X23745Y45842D01*
X24719Y41786D01*
X26315Y37932D01*
X28495Y34376D01*
X31204Y31204D01*
X34376Y28495D01*
X37932Y26315D01*
X41786Y24719D01*
X45842Y23745D01*
X50000Y23418D01*
X54158Y23745D01*
X58214Y24719D01*
X62068Y26315D01*
X65624Y28495D01*
X68796Y31204D01*
X71505Y34376D01*
X73685Y37932D01*
X75281Y41786D01*
X76255Y45842D01*
X76582Y50000D01*
X76255Y54158D01*
X75281Y58214D01*
X73685Y62068D01*
X71505Y65624D01*
X68796Y68796D01*
X65624Y71505D01*
X62068Y73685D01*
X58214Y75281D01*
X54158Y76255D01*
X50000Y76582D01*
D02*
G37*
G36*
X168000Y240098D02*
X166049Y239710D01*
X164395Y238605D01*
X163290Y236951D01*
X162902Y235000D01*
X162902Y235000D01*
Y47000D01*
X151000D01*
Y13000D01*
X185000D01*
Y47000D01*
X173098D01*
Y235000D01*
X172710Y236951D01*
X171605Y238605D01*
X171605D01*
X169951Y239710D01*
X168000Y240098D01*
D02*
G37*
G36*
X128000Y64098D02*
X126049Y63710D01*
X124395Y62605D01*
X123290Y60951D01*
X122902Y59000D01*
Y47000D01*
X111000D01*
Y13000D01*
X145000D01*
Y47000D01*
X133098D01*
Y59000D01*
X132710Y60951D01*
X131605Y62605D01*
X129951Y63710D01*
X128000Y64098D01*
D02*
G37*
G36*
X999500Y25156D02*
X997803Y24933D01*
X996222Y24278D01*
X994864Y23236D01*
X993822Y21878D01*
X993167Y20297D01*
X992944Y18600D01*
X993167Y16903D01*
X993822Y15322D01*
X994864Y13964D01*
X996222Y12922D01*
X997803Y12267D01*
X999500Y12044D01*
X1001197Y12267D01*
X1002778Y12922D01*
X1004136Y13964D01*
X1005178Y15322D01*
X1005833Y16903D01*
X1006056Y18600D01*
X1005833Y20297D01*
X1005178Y21878D01*
X1004136Y23236D01*
X1002778Y24278D01*
X1001197Y24933D01*
X999500Y25156D01*
D02*
G37*
%LPD*%
G36*
X1006500Y470453D02*
Y463270D01*
X1006500Y462000D01*
X1006500Y460730D01*
Y453547D01*
X998522Y445569D01*
X944275D01*
X943789Y446742D01*
X949478Y452431D01*
X969500D01*
Y450000D01*
X980500D01*
Y460730D01*
X980500Y462000D01*
X980500Y463270D01*
Y465623D01*
X981770Y466145D01*
X983049Y465290D01*
X985000Y464902D01*
X986951Y465290D01*
X987730Y465811D01*
X989000Y465132D01*
Y465000D01*
X999000D01*
Y476157D01*
X1000270Y476683D01*
X1006500Y470453D01*
D02*
G37*
G36*
X808000Y193931D02*
X818022D01*
X819477Y192477D01*
X819683Y192339D01*
X819298Y191069D01*
X808000D01*
X807655Y191000D01*
X799500D01*
Y184000D01*
X807655D01*
X808000Y183931D01*
X857095D01*
X857480Y182661D01*
X857395Y182605D01*
X856290Y180951D01*
X855902Y179000D01*
X855911Y178957D01*
X847522Y170569D01*
X791000D01*
Y175500D01*
X786069D01*
Y181500D01*
X785797Y182866D01*
X785023Y184023D01*
X781089Y187957D01*
X781098Y188000D01*
X780710Y189951D01*
X779605Y191605D01*
X778024Y192661D01*
X778009Y192755D01*
X778621Y193931D01*
X808000D01*
X808000Y193931D01*
D02*
G37*
G36*
X761480Y192661D02*
X761395Y192605D01*
X760290Y190951D01*
X759902Y189000D01*
X760290Y187049D01*
X761395Y185395D01*
X763049Y184290D01*
X765000Y183902D01*
X765043Y183911D01*
X772280Y176673D01*
X771794Y175500D01*
X769000D01*
Y167845D01*
X768931Y167500D01*
Y159500D01*
X769203Y158134D01*
X769977Y156977D01*
X771910Y155043D01*
X771902Y155000D01*
X772290Y153049D01*
X773395Y151395D01*
X775049Y150290D01*
X777000Y149902D01*
X778951Y150290D01*
X780605Y151395D01*
X781710Y153049D01*
X782098Y155000D01*
X781710Y156951D01*
X780855Y158230D01*
X781377Y159500D01*
X791000D01*
Y163431D01*
X849000D01*
X850366Y163703D01*
X851523Y164477D01*
X860957Y173911D01*
X861000Y173902D01*
X862951Y174290D01*
X864605Y175395D01*
X865236Y176340D01*
X866764D01*
X867395Y175395D01*
X868804Y174454D01*
X869208Y173062D01*
X840714Y144569D01*
X770478D01*
X766069Y148978D01*
Y168000D01*
X766000Y168345D01*
Y175500D01*
X761069D01*
Y182500D01*
X760797Y183866D01*
X760023Y185023D01*
X757089Y187957D01*
X757098Y188000D01*
X756710Y189951D01*
X755605Y191605D01*
X754024Y192661D01*
X754009Y192755D01*
X754621Y193931D01*
X761095D01*
X761480Y192661D01*
D02*
G37*
D11*
X700000Y175000D02*
X800000D01*
Y275000D01*
X700000D02*
X800000D01*
X700000Y175000D02*
Y275000D01*
D17*
X692500Y187500D02*
D03*
Y192500D02*
D03*
Y197500D02*
D03*
Y202500D02*
D03*
Y207500D02*
D03*
Y212500D02*
D03*
Y217500D02*
D03*
Y222500D02*
D03*
Y227500D02*
D03*
Y232500D02*
D03*
Y237500D02*
D03*
Y242500D02*
D03*
Y247500D02*
D03*
Y252500D02*
D03*
Y257500D02*
D03*
Y262500D02*
D03*
X807500D02*
D03*
Y257500D02*
D03*
Y252500D02*
D03*
Y247500D02*
D03*
Y242500D02*
D03*
Y237500D02*
D03*
Y232500D02*
D03*
Y227500D02*
D03*
Y222500D02*
D03*
Y217500D02*
D03*
Y212500D02*
D03*
Y207500D02*
D03*
Y202500D02*
D03*
Y197500D02*
D03*
Y192500D02*
D03*
Y187500D02*
D03*
D18*
X712500Y282500D02*
D03*
X717500D02*
D03*
X722500D02*
D03*
X727500D02*
D03*
X732500D02*
D03*
X737500D02*
D03*
X742500D02*
D03*
X747500D02*
D03*
X752500D02*
D03*
X757500D02*
D03*
X762500D02*
D03*
X767500D02*
D03*
X772500D02*
D03*
X777500D02*
D03*
X782500D02*
D03*
X787500D02*
D03*
Y167500D02*
D03*
X782500D02*
D03*
X777500D02*
D03*
X772500D02*
D03*
X767500D02*
D03*
X762500D02*
D03*
X757500D02*
D03*
X752500D02*
D03*
X747500D02*
D03*
X742500D02*
D03*
X737500D02*
D03*
X732500D02*
D03*
X727500D02*
D03*
X722500D02*
D03*
X717500D02*
D03*
X712500D02*
D03*
D27*
X425250Y553950D02*
D03*
X404750D02*
D03*
X415000Y534050D02*
D03*
D28*
X405050Y595250D02*
D03*
Y574750D02*
D03*
X424950Y585000D02*
D03*
X632950Y83750D02*
D03*
Y104250D02*
D03*
X613050Y94000D02*
D03*
X632950Y49750D02*
D03*
Y70250D02*
D03*
X613050Y60000D02*
D03*
X632950Y15750D02*
D03*
Y36250D02*
D03*
X613050Y26000D02*
D03*
D79*
X1019800Y18600D02*
D03*
X1009650Y94800D02*
D03*
X999500Y18600D02*
D03*
D82*
X1409000Y212000D02*
G03*
X1389000Y192000I0J-20000D01*
G01*
X1369000Y124000D02*
G03*
X1389000Y144000I0J20000D01*
G01*
X1411000Y212000D02*
X1444000D01*
X1389000Y144000D02*
Y191300D01*
X1349650Y124000D02*
X1368750D01*
X1349350Y124300D02*
X1349650Y124000D01*
D83*
X596500Y85000D02*
D03*
X579500D02*
D03*
Y60000D02*
D03*
X596500D02*
D03*
Y33000D02*
D03*
X579500D02*
D03*
D84*
X1233000Y15000D02*
D03*
X1245000D02*
D03*
X1273000Y15000D02*
D03*
X1261000D02*
D03*
X901000Y652000D02*
D03*
X913000D02*
D03*
X900000Y628000D02*
D03*
X912000D02*
D03*
X444000Y539000D02*
D03*
X456000D02*
D03*
X444000Y554000D02*
D03*
X456000D02*
D03*
X444000Y585000D02*
D03*
X456000D02*
D03*
X1273000Y246000D02*
D03*
X1285000D02*
D03*
X973000Y300000D02*
D03*
X961000D02*
D03*
X506000Y382000D02*
D03*
X494000D02*
D03*
D85*
X975000Y468000D02*
D03*
Y456000D02*
D03*
X1012000Y468000D02*
D03*
Y456000D02*
D03*
X651000Y96000D02*
D03*
Y84000D02*
D03*
Y62000D02*
D03*
Y50000D02*
D03*
Y29000D02*
D03*
Y17000D02*
D03*
D86*
X612000Y157000D02*
D03*
Y173000D02*
D03*
D87*
X658000Y583000D02*
D03*
X674000D02*
D03*
X494000Y619000D02*
D03*
X510000D02*
D03*
D88*
X1246000Y246000D02*
D03*
X1258000D02*
D03*
X1221000Y30000D02*
D03*
X1233000D02*
D03*
X1039000Y595000D02*
D03*
X1027000D02*
D03*
X238000Y26000D02*
D03*
X226000D02*
D03*
X827000Y256000D02*
D03*
X839000D02*
D03*
X931000Y300000D02*
D03*
X943000D02*
D03*
X661000Y175000D02*
D03*
X673000D02*
D03*
X839000Y272000D02*
D03*
X827000D02*
D03*
X839000Y195000D02*
D03*
X827000D02*
D03*
X687000Y149000D02*
D03*
X699000D02*
D03*
D89*
X994000Y459000D02*
D03*
Y471000D02*
D03*
X1075000Y331000D02*
D03*
Y319000D02*
D03*
X631000Y159000D02*
D03*
Y171000D02*
D03*
X703000Y313000D02*
D03*
Y301000D02*
D03*
D90*
X456050Y503750D02*
D03*
X443350D02*
D03*
X430650D02*
D03*
X417950D02*
D03*
Y454250D02*
D03*
X430650D02*
D03*
X443350D02*
D03*
X456050D02*
D03*
D91*
X1349350Y98900D02*
D03*
Y111600D02*
D03*
Y124300D02*
D03*
Y137000D02*
D03*
Y149700D02*
D03*
Y162400D02*
D03*
Y175100D02*
D03*
D92*
X1336650Y225900D02*
D03*
X1323950D02*
D03*
X1311250D02*
D03*
X1298550D02*
D03*
X1285850D02*
D03*
X1273150D02*
D03*
X1260450D02*
D03*
X1247750D02*
D03*
X1235050D02*
D03*
X1222350D02*
D03*
X1209650D02*
D03*
X1196950D02*
D03*
X1184250D02*
D03*
X1171550D02*
D03*
X1158850D02*
D03*
X1146150D02*
D03*
X1133450D02*
D03*
X1120750D02*
D03*
X1108050D02*
D03*
X1095350D02*
D03*
Y48100D02*
D03*
X1108050D02*
D03*
X1120750D02*
D03*
X1133450D02*
D03*
X1146150D02*
D03*
X1158850D02*
D03*
X1171550D02*
D03*
X1184250D02*
D03*
X1196950D02*
D03*
X1209650D02*
D03*
X1222350D02*
D03*
X1235050D02*
D03*
X1247750D02*
D03*
X1260450D02*
D03*
X1273150D02*
D03*
X1285850D02*
D03*
X1298550D02*
D03*
X1311250D02*
D03*
X1323950D02*
D03*
X1336650D02*
D03*
D93*
X1444000Y212000D02*
D03*
D94*
X1459000Y197250D02*
D03*
Y226750D02*
D03*
D95*
X543500Y85000D02*
D03*
X560500D02*
D03*
X543500Y60000D02*
D03*
X560500D02*
D03*
X543500Y34000D02*
D03*
X560500D02*
D03*
X932500Y652000D02*
D03*
X949500D02*
D03*
X932500Y628000D02*
D03*
X949500D02*
D03*
X1207500Y15000D02*
D03*
X1190500D02*
D03*
X1293500D02*
D03*
X1310500D02*
D03*
X525000Y382000D02*
D03*
X542000D02*
D03*
D96*
X1057347Y392946D02*
D03*
X1012347D02*
D03*
Y322946D02*
D03*
X1057347D02*
D03*
X928648Y323052D02*
D03*
X973648D02*
D03*
Y393052D02*
D03*
X928648D02*
D03*
D97*
X974750Y568560D02*
D03*
X981250D02*
D03*
X987750D02*
D03*
X994250D02*
D03*
X1000750D02*
D03*
X1007250D02*
D03*
X1013750D02*
D03*
X1026750D02*
D03*
X1020250D02*
D03*
X1033250D02*
D03*
X1039750D02*
D03*
X1046250D02*
D03*
X1052750D02*
D03*
X1059250D02*
D03*
X974750Y495440D02*
D03*
X981250D02*
D03*
X987750D02*
D03*
X994250D02*
D03*
X1000750D02*
D03*
X1007250D02*
D03*
X1013750D02*
D03*
X1020250D02*
D03*
X1026750D02*
D03*
X1033250D02*
D03*
X1039750D02*
D03*
X1046250D02*
D03*
X1052750D02*
D03*
X1059250D02*
D03*
D98*
X739305Y342841D02*
D03*
X735770Y346376D02*
D03*
X742841Y339305D02*
D03*
X746376Y335770D02*
D03*
X753624Y364230D02*
D03*
X757159Y360695D02*
D03*
X760695Y357160D02*
D03*
X764230Y353624D02*
D03*
D99*
X739305D02*
D03*
X742841Y357160D02*
D03*
X746376Y360695D02*
D03*
X753624Y339305D02*
D03*
X757159Y342841D02*
D03*
X760695Y346376D02*
D03*
D100*
X1003300Y82100D02*
D03*
Y69400D02*
D03*
Y56700D02*
D03*
Y44000D02*
D03*
Y31300D02*
D03*
X1016000D02*
D03*
Y44000D02*
D03*
Y56700D02*
D03*
Y69400D02*
D03*
Y82100D02*
D03*
D101*
X788485Y322515D02*
D03*
X780000Y331000D02*
D03*
X779243Y313757D02*
D03*
X770757Y322243D02*
D03*
D102*
X592000Y158000D02*
D03*
Y174000D02*
D03*
X570000Y477000D02*
D03*
Y461000D02*
D03*
D103*
X168000Y30000D02*
D03*
X128000D02*
D03*
D104*
X484250Y501000D02*
D03*
Y478000D02*
D03*
Y455000D02*
D03*
D105*
X545750Y478000D02*
D03*
D106*
X540000Y594750D02*
D03*
X517000D02*
D03*
X494000D02*
D03*
D107*
X517000Y533250D02*
D03*
D108*
X650798Y621300D02*
D03*
X642797D02*
D03*
X634798D02*
D03*
X626797D02*
D03*
X618797D02*
D03*
D109*
X679398D02*
D03*
X590197D02*
D03*
X679398Y676100D02*
D03*
X590197D02*
D03*
D110*
X717500Y259500D02*
Y282000D01*
Y259500D02*
X735000Y242000D01*
X778000D01*
X793500Y257500D01*
X807500D01*
X852071Y243000D02*
X913000Y303929D01*
X820979Y243000D02*
X852071D01*
X816479Y247500D02*
X820979Y243000D01*
X807500Y247500D02*
X816479D01*
X850000Y248000D02*
X908000Y306000D01*
X823050Y248000D02*
X850000D01*
X818550Y252500D02*
X823050Y248000D01*
X807500Y252500D02*
X818550D01*
X809000Y257500D02*
X825500D01*
X827000Y256000D01*
X1046000Y560718D02*
Y569000D01*
X1258000Y245000D02*
X1259000Y246000D01*
X1235000Y47000D02*
Y107000D01*
X805912Y197500D02*
X809000D01*
X735050D02*
X805912D01*
X712500Y280912D02*
Y283000D01*
Y174950D02*
Y280912D01*
X708000Y283000D02*
X712500D01*
Y174950D02*
X735050Y197500D01*
X712500Y161500D02*
Y174950D01*
X777500Y169088D02*
Y176500D01*
Y167500D02*
Y169088D01*
X765000Y189000D02*
X777500Y176500D01*
X1274000Y15000D02*
X1274000Y15000D01*
X1293500D01*
X1293500Y15000D01*
X1001680Y416680D02*
X1028000Y443000D01*
X1001000Y416000D02*
X1001680Y416680D01*
X1028000Y443000D02*
Y461000D01*
X1001680Y416680D02*
X1134926D01*
X1207500Y15000D02*
X1220000D01*
X1220000Y15000D01*
X1233000D01*
X1245000D02*
Y45350D01*
Y14000D02*
Y15000D01*
X1245000Y14000D02*
X1245000Y14000D01*
Y45350D02*
X1247750Y48100D01*
X985500Y470000D02*
X986500Y471000D01*
X985000Y470000D02*
X985500D01*
X986500Y471000D02*
X993000D01*
X948000Y456000D02*
X975000D01*
X908000Y416000D02*
X948000Y456000D01*
X897500Y626000D02*
X900000D01*
X658000Y597000D02*
X868500D01*
X631000Y171000D02*
X641000D01*
X631000Y171000D02*
X631000Y171000D01*
X613000Y170000D02*
X614500Y171500D01*
X630500D01*
X631000Y171000D01*
X611800Y121000D02*
X636000D01*
X611600D02*
X611800D01*
X942000Y300000D02*
X943000Y301000D01*
Y300000D02*
X943000D01*
X942000D02*
X943000D01*
X943500Y231500D02*
Y299500D01*
X943000Y300000D02*
X943500Y299500D01*
X943000Y300000D02*
X961000D01*
X928648Y323352D02*
X930000Y322000D01*
X943000Y301000D02*
Y303000D01*
X931000Y315000D02*
X943000Y303000D01*
X931000Y315000D02*
Y319000D01*
X992000Y300000D02*
X992000D01*
X973000D02*
X992000D01*
X928648Y317052D02*
Y323052D01*
X848000Y136000D02*
X943500Y231500D01*
X699965Y332965D02*
X737500Y295429D01*
X686530Y346470D02*
Y549470D01*
Y346470D02*
X700000Y333000D01*
X737500Y282500D02*
Y295429D01*
X749479Y261000D02*
X786000D01*
X737500Y272979D02*
X749479Y261000D01*
X737500Y272979D02*
Y282000D01*
X1171000Y38000D02*
Y49000D01*
X711930Y376930D02*
X712000Y376860D01*
Y328000D02*
Y376860D01*
Y328000D02*
X742500Y297500D01*
X717500Y360500D02*
X742000Y385000D01*
X717500Y332308D02*
Y360500D01*
Y332308D02*
X757500Y292308D01*
X711930Y376930D02*
Y555000D01*
Y376930D02*
X712000Y377000D01*
X742500Y282500D02*
Y297500D01*
X742500Y275050D02*
Y277000D01*
Y275050D02*
X748550Y269000D01*
X778000D01*
X1117000Y256000D02*
X1275450D01*
X1075000Y298000D02*
X1117000Y256000D01*
X1075000Y298000D02*
Y319000D01*
X1058000D02*
X1075000D01*
X929000Y316000D02*
X930000Y315000D01*
X991000Y290000D02*
X991000Y290000D01*
X928648Y323352D02*
Y393052D01*
X1057000Y392000D02*
X1057347Y391653D01*
Y322946D02*
Y391653D01*
X992000Y107000D02*
X1235000D01*
X987000Y96000D02*
X989400D01*
X1003300Y82100D01*
X913000Y413929D02*
X941071Y442000D01*
X913000Y303929D02*
Y413929D01*
X908000Y306000D02*
Y416000D01*
X857000Y144500D02*
X961500D01*
X972000Y134000D01*
X854100Y128100D02*
X864000Y138000D01*
X865000D01*
X854100Y107100D02*
Y128100D01*
X853000Y105600D02*
Y106000D01*
X854100Y107100D01*
X849000Y167000D02*
X861000Y179000D01*
X788000Y167000D02*
X849000D01*
X632950Y16000D02*
X651000D01*
X632950Y15750D02*
Y16000D01*
X772500Y159500D02*
X777000Y155000D01*
X772500Y159500D02*
Y167500D01*
X769000Y141000D02*
X842192D01*
X762500Y147500D02*
X769000Y141000D01*
X762500Y147500D02*
Y167500D01*
X742500Y155500D02*
X762000Y136000D01*
X751000Y111000D02*
Y131500D01*
X727500Y155000D02*
X751000Y131500D01*
X669000Y29000D02*
X751000Y111000D01*
X842192Y141000D02*
X880000Y178808D01*
X762000Y136000D02*
X848000D01*
X880000Y178808D02*
Y179000D01*
X862692Y187500D02*
X871000Y179192D01*
Y179000D02*
Y179192D01*
X742500Y155500D02*
Y167500D01*
X683000Y553000D02*
X686530Y549470D01*
X1046000Y584000D02*
X1053000Y577000D01*
Y572000D02*
Y577000D01*
X1059000Y570000D02*
Y585000D01*
X1027000Y595000D02*
Y606997D01*
X1026998Y606999D02*
X1027000Y606997D01*
X627000Y601553D02*
X633797Y608350D01*
X627000Y595000D02*
Y601553D01*
X638000Y595000D02*
X642797Y599798D01*
Y621300D01*
X633797Y608350D02*
Y620300D01*
X634798Y621300D01*
X994250Y508968D02*
X1046000Y560718D01*
X994250Y495440D02*
Y508968D01*
X941071Y442000D02*
X1000000D01*
X1011500Y453500D01*
X1260450Y132450D02*
Y225900D01*
X1235000Y107000D02*
X1260450Y132450D01*
X850000Y54000D02*
X881000D01*
X880800Y55200D02*
X881000Y55000D01*
X880800Y55200D02*
Y77800D01*
X880600Y78000D02*
X880800Y77800D01*
X840000Y93000D02*
X853000Y106000D01*
X840000Y64000D02*
Y93000D01*
Y64000D02*
X850000Y54000D01*
X676000Y321000D02*
X683000Y328000D01*
X676000Y302000D02*
Y321000D01*
X735000Y253000D02*
X770000D01*
X722500Y265500D02*
X735000Y253000D01*
X722500Y265500D02*
Y282500D01*
X752000Y188000D02*
X757500Y182500D01*
Y167500D02*
Y182500D01*
X776000Y188000D02*
X782500Y181500D01*
Y167500D02*
Y181500D01*
X762500Y167500D02*
Y168000D01*
X808000Y187500D02*
X862692D01*
X1285000Y225000D02*
X1285000Y225000D01*
X1053000Y66000D02*
X1087000Y32000D01*
X1052000Y66000D02*
X1053000D01*
X904000Y76000D02*
X908000D01*
X703000Y268500D02*
Y272000D01*
X697000Y262500D02*
X703000Y268500D01*
X692500Y262500D02*
X697000D01*
X721500Y227500D02*
X807500D01*
X719000Y230000D02*
X721500Y227500D01*
X728500Y232500D02*
X807500D01*
X719000Y242000D02*
X728500Y232500D01*
X722500Y222500D02*
X807500D01*
X719000Y219000D02*
X722500Y222500D01*
X729500Y217500D02*
X807500D01*
X719000Y207000D02*
X729500Y217500D01*
X730500Y207500D02*
X807500D01*
X719000Y196000D02*
X730500Y207500D01*
X808000Y197500D02*
X819500D01*
X827000Y272000D02*
Y284000D01*
Y195000D02*
Y206000D01*
X1011500Y453500D02*
X1012000D01*
X322000Y187600D02*
Y206000D01*
X238000Y103600D02*
X322000Y187600D01*
X900500Y628500D02*
Y651500D01*
X901000Y640000D02*
X912000D01*
X1027000Y587000D02*
Y595000D01*
X1027000Y595000D01*
X900500Y651500D02*
X901000Y652000D01*
X900000Y628000D02*
X900500Y628500D01*
X868500Y597000D02*
X897500Y626000D01*
X1285000Y225000D02*
Y246000D01*
X1275450Y256000D02*
X1280500Y250950D01*
Y250000D02*
Y250950D01*
Y250000D02*
X1284500Y246000D01*
X1285000D01*
X1066000Y27000D02*
X1160000D01*
X1053000Y40000D02*
X1066000Y27000D01*
X1160000D02*
X1171000Y38000D01*
X1158850Y48100D02*
X1159000Y47950D01*
Y38000D02*
Y47950D01*
X1153000Y32000D02*
X1159000Y38000D01*
X1087000Y32000D02*
X1153000D01*
X692000Y158000D02*
X699000Y151000D01*
X673000Y158000D02*
X692000D01*
X700500Y149500D02*
X712500Y161500D01*
X667000Y152000D02*
X673000Y158000D01*
X636000Y121000D02*
X667000Y152000D01*
X673000Y158000D02*
Y174000D01*
Y175000D02*
X685000D01*
X525000Y382000D02*
X525000Y382000D01*
X506000Y382000D02*
X525000D01*
X792000Y292000D02*
X797000Y297000D01*
X784550Y292000D02*
X792000D01*
X782500Y289950D02*
X784550Y292000D01*
X782500Y282500D02*
Y289950D01*
X772500Y286000D02*
Y305500D01*
X773000Y306000D01*
X767500Y284000D02*
Y301500D01*
X751000Y318000D02*
X767500Y301500D01*
X724000Y335000D02*
X724197D01*
X735573Y346376D01*
X735770D01*
X757500Y282500D02*
Y292308D01*
X777500Y293500D02*
X788000Y304000D01*
X777500Y282500D02*
Y293500D01*
X734149Y358426D02*
X738951Y353624D01*
X728000Y359000D02*
X728574Y358426D01*
X734149D01*
X738951Y353624D02*
X739305D01*
X742000Y385000D02*
X764000D01*
X737000Y363000D02*
X742841Y357160D01*
X737000Y363000D02*
Y370000D01*
X745227Y371227D02*
X748000Y374000D01*
X745227Y361844D02*
Y371227D01*
Y361844D02*
X746376Y360695D01*
X761945Y358055D02*
X772000Y368111D01*
Y377000D01*
X764000Y385000D02*
X772000Y377000D01*
X762500Y284000D02*
Y296500D01*
X742223Y316777D02*
X762500Y296500D01*
X742223Y316777D02*
Y331263D01*
X746376Y335416D01*
Y335770D01*
X764000Y353000D02*
X771646Y345354D01*
Y339354D02*
Y345354D01*
Y339354D02*
X780000Y331000D01*
X770000Y322000D02*
Y322965D01*
X753659Y339305D02*
X770000Y322965D01*
X753624Y339305D02*
X753659D01*
X727500Y167500D02*
Y168000D01*
Y155000D02*
Y167500D01*
X651000Y29000D02*
X669000D01*
X680000Y62000D02*
X726000Y108000D01*
X652000Y62000D02*
X680000D01*
X652000Y62000D02*
X652000Y62000D01*
X726000Y108000D02*
Y133750D01*
X722500Y137250D02*
X726000Y133750D01*
X722500Y137250D02*
Y167500D01*
X651197Y96197D02*
X686000D01*
X651000Y96000D02*
X651197Y96197D01*
X686000D02*
X699302Y109498D01*
Y132302D01*
X717500Y150500D01*
Y167500D01*
X692000Y182000D02*
Y187000D01*
X685000Y175000D02*
X692000Y182000D01*
X822000Y195000D02*
X827000D01*
X819500Y197500D02*
X822000Y195000D01*
X808000Y263000D02*
Y266000D01*
X814000Y272000D01*
X827000D01*
X703000Y288000D02*
X708000Y283000D01*
X703000Y288000D02*
Y301000D01*
X415000Y538000D02*
X443000D01*
X415000Y534000D02*
X416475Y532525D01*
Y505225D02*
Y532525D01*
Y505225D02*
X417950Y503750D01*
X455000Y554000D02*
X456000Y553000D01*
X238000Y26000D02*
Y51000D01*
X238000Y26000D02*
X238000Y26000D01*
X456000Y502000D02*
X457025Y503025D01*
X456000Y540000D02*
Y553000D01*
X443500Y585000D02*
X444000D01*
X433250Y595250D02*
X443500Y585000D01*
X405050Y595250D02*
X433250D01*
X443000Y538000D02*
X444000Y539000D01*
X425250Y553950D02*
Y585750D01*
X425300Y554000D02*
X444000D01*
X425250Y553950D02*
X425300Y554000D01*
X425000Y586000D02*
X425250Y585750D01*
X1027000Y569000D02*
Y587000D01*
X1027000Y587000D02*
X1027000Y587000D01*
X948000Y628000D02*
X949500D01*
X975000D01*
X1007250Y595750D01*
Y568560D02*
Y595750D01*
X1014000Y568000D02*
Y601000D01*
X963000Y652000D02*
X1014000Y601000D01*
X949500Y652000D02*
X963000D01*
X913000Y652000D02*
X932000D01*
X912000Y628000D02*
X931000D01*
X975000Y470500D02*
Y494000D01*
X975000Y470500D02*
X975000Y470500D01*
X1001000Y481000D02*
Y496000D01*
Y481000D02*
X1011500Y470500D01*
X1012000D01*
X994000Y471000D02*
Y494000D01*
Y471000D02*
X994000Y471000D01*
X1258000Y246000D02*
X1273000D01*
X1258000Y228350D02*
Y245000D01*
Y228350D02*
X1260450Y225900D01*
X1258000Y246000D02*
X1258000Y246000D01*
X1233000Y30000D02*
Y46000D01*
X1207000Y15000D02*
X1207500D01*
X1260000Y46000D02*
X1260500Y45500D01*
Y15000D02*
Y45500D01*
X1025900Y82100D02*
X1026000Y82000D01*
X1016000Y82100D02*
X1025900D01*
X989000Y69000D02*
X1002900D01*
X1003300Y69400D01*
X908000Y76000D02*
X940000Y44000D01*
X1003300D01*
X649000Y49875D02*
Y51000D01*
X633075Y49875D02*
X649000D01*
X632950Y49750D02*
X633075Y49875D01*
X650125Y83875D02*
X651000Y83000D01*
X633075Y83875D02*
X650125D01*
X632950Y83750D02*
X633075Y83875D01*
X608000Y33000D02*
X613000Y28000D01*
X594000Y33000D02*
X608000D01*
X595000Y59000D02*
X596000Y60000D01*
X613050D01*
X613050Y60000D01*
X606000Y85000D02*
X613000Y92000D01*
X594000Y85000D02*
X606000D01*
X580000D02*
X580000Y85000D01*
X560500Y85000D02*
X580000D01*
X560500Y85000D02*
X560500Y85000D01*
X561000Y60000D02*
X561000Y60000D01*
X582000D01*
X580000Y33000D02*
X580000Y33000D01*
X561500Y33000D02*
X580000D01*
X560500Y34000D02*
X561500Y33000D01*
D111*
X598000Y158000D02*
X612000D01*
X546000Y478000D02*
Y484400D01*
X365000Y364000D02*
X365680Y363320D01*
X611800Y121000D02*
Y157800D01*
X543000Y85000D02*
X543500Y84500D01*
X543000Y60000D02*
X543250Y59750D01*
X543500Y59500D01*
X592000Y158000D02*
X596000D01*
X550000D02*
X592000D01*
X658000Y597000D02*
Y605098D01*
Y583000D02*
Y597000D01*
X651298Y611800D02*
X658000Y605098D01*
X582000Y583000D02*
X658000D01*
X543500Y164500D02*
X550000Y158000D01*
X494000Y214000D02*
X543500Y164500D01*
Y85000D02*
Y164500D01*
X611800Y157800D02*
X612000Y158000D01*
X992000Y107000D02*
Y300000D01*
X992000D02*
Y407000D01*
Y299000D02*
Y300000D01*
Y407000D02*
X1001000Y416000D01*
X992000Y101000D02*
Y107000D01*
X987000Y96000D02*
X992000Y101000D01*
X873200Y96000D02*
X987000D01*
X855200Y78000D02*
X873200Y96000D01*
X531000Y634000D02*
X582000Y583000D01*
X456000Y585000D02*
X456500D01*
X543000Y85000D02*
X543500D01*
X543000D02*
X543000D01*
X541000Y87000D02*
Y87500D01*
Y87000D02*
X543000Y85000D01*
X543500Y60000D02*
Y84500D01*
X535800Y52800D02*
X543000Y60000D01*
X542000Y61000D02*
X543000Y60000D01*
X543500Y34000D02*
Y59500D01*
X238000Y52800D02*
X535800D01*
X365680Y363320D02*
X474820D01*
X493500Y382000D01*
X494000D01*
Y214000D02*
Y382000D01*
X549000Y477000D02*
X570000D01*
X548400Y474000D02*
X549000D01*
X494000Y419600D02*
X548400Y474000D01*
X494000Y382000D02*
Y419600D01*
X456000Y554000D02*
Y568000D01*
X168000Y235000D02*
X168000Y235000D01*
Y30000D02*
Y235000D01*
X128000Y30000D02*
Y59000D01*
X494000Y622000D02*
X506000Y634000D01*
X531000D01*
X456500Y585000D02*
X466250Y594750D01*
X494000D01*
Y619000D01*
X517000Y533250D02*
Y594000D01*
X545750Y478000D02*
X546750Y477000D01*
X517000Y513400D02*
X546000Y484400D01*
X517000Y513400D02*
Y533250D01*
X485000Y478000D02*
X545750D01*
X443350Y454000D02*
X456000D01*
X484250Y455000D02*
X485000D01*
X456050D02*
X484250D01*
X456050Y454250D02*
Y455000D01*
X430650Y454000D02*
X443000D01*
X443350D02*
Y454250D01*
X417950Y454000D02*
X430650D01*
Y454250D01*
X417950Y454000D02*
Y454250D01*
X431000Y503000D02*
X443350D01*
X456050D01*
X443350D02*
Y503750D01*
X456050D02*
Y539950D01*
Y503000D02*
Y503750D01*
X456000Y540000D02*
X456050Y539950D01*
X456000Y540000D02*
X456000Y540000D01*
D112*
X956800Y78000D02*
D03*
X931400D02*
D03*
X906000D02*
D03*
X880600D02*
D03*
X889730Y555340D02*
D03*
X864330D02*
D03*
X838930D02*
D03*
X813530D02*
D03*
X788130D02*
D03*
X711930Y555000D02*
D03*
X686530D02*
D03*
X661130D02*
D03*
X635730D02*
D03*
X611600Y121000D02*
D03*
X738600D02*
D03*
X764000D02*
D03*
X789400D02*
D03*
X814800D02*
D03*
X840200D02*
D03*
X865600D02*
D03*
X891000D02*
D03*
X687802Y120998D02*
D03*
X238000Y78200D02*
D03*
Y103600D02*
D03*
Y129000D02*
D03*
Y154400D02*
D03*
Y179800D02*
D03*
Y205200D02*
D03*
X1053000Y65400D02*
D03*
D113*
X855200Y78000D02*
D03*
X762730Y555340D02*
D03*
X610330Y555000D02*
D03*
X586200Y121000D02*
D03*
X713200D02*
D03*
X662400D02*
D03*
D114*
X1416926Y297080D02*
D03*
Y487080D02*
D03*
X1159926D02*
D03*
Y297080D02*
D03*
X83074Y482920D02*
D03*
Y292920D02*
D03*
X340074D02*
D03*
Y482920D02*
D03*
D115*
X1134926Y340480D02*
D03*
Y365880D02*
D03*
Y391280D02*
D03*
Y416680D02*
D03*
Y442080D02*
D03*
X365074Y439520D02*
D03*
Y414120D02*
D03*
Y388720D02*
D03*
Y363320D02*
D03*
Y337920D02*
D03*
D116*
X238000Y52800D02*
D03*
X1053000Y40000D02*
D03*
D117*
X750000Y650000D02*
D03*
Y50000D02*
D03*
X1450000Y650000D02*
D03*
Y50000D02*
D03*
X50000D02*
D03*
Y650000D02*
D03*
D118*
X656797Y646400D02*
D03*
X612798D02*
D03*
D119*
X765000Y189000D02*
D03*
X986000Y450000D02*
D03*
X844000Y207000D02*
D03*
X846000Y179000D02*
D03*
X791000Y189000D02*
D03*
X1475000Y600000D02*
D03*
X1450000Y550000D02*
D03*
Y250000D02*
D03*
X1475000Y200000D02*
D03*
X1450000Y150000D02*
D03*
X1475000Y100000D02*
D03*
X1400000Y650000D02*
D03*
X1425000Y600000D02*
D03*
X1400000Y550000D02*
D03*
Y450000D02*
D03*
X1425000Y400000D02*
D03*
X1400000Y350000D02*
D03*
Y250000D02*
D03*
X1425000Y200000D02*
D03*
X1400000Y150000D02*
D03*
X1425000Y100000D02*
D03*
X1400000Y50000D02*
D03*
X1350000Y650000D02*
D03*
X1375000Y600000D02*
D03*
X1350000Y550000D02*
D03*
X1375000Y500000D02*
D03*
X1350000Y450000D02*
D03*
X1375000Y400000D02*
D03*
X1350000Y350000D02*
D03*
X1375000Y300000D02*
D03*
X1350000Y250000D02*
D03*
X1375000Y200000D02*
D03*
Y100000D02*
D03*
X1350000Y50000D02*
D03*
X1300000Y650000D02*
D03*
X1325000Y600000D02*
D03*
X1300000Y550000D02*
D03*
X1325000Y500000D02*
D03*
X1300000Y450000D02*
D03*
X1325000Y400000D02*
D03*
X1300000Y350000D02*
D03*
X1325000Y300000D02*
D03*
X1300000Y250000D02*
D03*
X1325000Y200000D02*
D03*
X1300000Y150000D02*
D03*
X1325000Y100000D02*
D03*
X1250000Y650000D02*
D03*
X1275000Y600000D02*
D03*
X1250000Y550000D02*
D03*
X1275000Y500000D02*
D03*
X1250000Y450000D02*
D03*
X1275000Y400000D02*
D03*
X1250000Y350000D02*
D03*
X1275000Y300000D02*
D03*
Y200000D02*
D03*
X1250000Y150000D02*
D03*
X1275000Y100000D02*
D03*
X1200000Y650000D02*
D03*
X1225000Y600000D02*
D03*
X1200000Y550000D02*
D03*
X1225000Y500000D02*
D03*
X1200000Y450000D02*
D03*
X1225000Y400000D02*
D03*
X1200000Y350000D02*
D03*
X1225000Y300000D02*
D03*
Y200000D02*
D03*
X1200000Y150000D02*
D03*
X1225000Y100000D02*
D03*
X1150000Y650000D02*
D03*
X1175000Y600000D02*
D03*
X1150000Y550000D02*
D03*
Y450000D02*
D03*
X1175000Y400000D02*
D03*
X1150000Y350000D02*
D03*
X1175000Y200000D02*
D03*
X1150000Y150000D02*
D03*
X1175000Y100000D02*
D03*
X1100000Y650000D02*
D03*
X1125000Y600000D02*
D03*
X1100000Y550000D02*
D03*
X1125000Y500000D02*
D03*
X1100000Y450000D02*
D03*
X1125000Y400000D02*
D03*
X1100000Y350000D02*
D03*
X1125000Y300000D02*
D03*
X1100000Y250000D02*
D03*
X1125000Y200000D02*
D03*
X1100000Y150000D02*
D03*
X1125000Y100000D02*
D03*
X1050000Y650000D02*
D03*
X1075000Y600000D02*
D03*
X1050000Y550000D02*
D03*
X1075000Y500000D02*
D03*
X1050000Y450000D02*
D03*
X1075000Y400000D02*
D03*
X1050000Y350000D02*
D03*
Y250000D02*
D03*
X1075000Y200000D02*
D03*
X1050000Y150000D02*
D03*
X1075000Y100000D02*
D03*
X1000000Y650000D02*
D03*
Y550000D02*
D03*
X1025000Y400000D02*
D03*
Y300000D02*
D03*
Y200000D02*
D03*
X950000Y550000D02*
D03*
Y350000D02*
D03*
X975000Y200000D02*
D03*
X925000Y500000D02*
D03*
X900000Y450000D02*
D03*
Y350000D02*
D03*
X925000Y200000D02*
D03*
X850000Y650000D02*
D03*
X875000Y500000D02*
D03*
X850000Y450000D02*
D03*
X875000Y400000D02*
D03*
X850000Y350000D02*
D03*
X875000Y300000D02*
D03*
X800000Y650000D02*
D03*
Y550000D02*
D03*
X825000Y500000D02*
D03*
X800000Y450000D02*
D03*
X825000Y400000D02*
D03*
X800000Y350000D02*
D03*
X825000Y300000D02*
D03*
X800000Y150000D02*
D03*
X825000Y100000D02*
D03*
X800000Y50000D02*
D03*
X775000Y500000D02*
D03*
X750000Y450000D02*
D03*
X775000Y400000D02*
D03*
Y100000D02*
D03*
X700000Y650000D02*
D03*
X725000Y500000D02*
D03*
X700000Y450000D02*
D03*
X725000Y400000D02*
D03*
X700000Y350000D02*
D03*
Y50000D02*
D03*
X675000Y500000D02*
D03*
X650000Y450000D02*
D03*
X675000Y400000D02*
D03*
X650000Y250000D02*
D03*
Y150000D02*
D03*
X600000Y650000D02*
D03*
X625000Y500000D02*
D03*
X600000Y450000D02*
D03*
X625000Y400000D02*
D03*
X600000Y350000D02*
D03*
X625000Y300000D02*
D03*
X600000Y250000D02*
D03*
X550000Y650000D02*
D03*
Y550000D02*
D03*
X575000Y500000D02*
D03*
X550000Y450000D02*
D03*
X575000Y400000D02*
D03*
X550000Y350000D02*
D03*
X575000Y300000D02*
D03*
X550000Y250000D02*
D03*
X575000Y100000D02*
D03*
X500000Y650000D02*
D03*
Y550000D02*
D03*
Y450000D02*
D03*
X525000Y400000D02*
D03*
Y300000D02*
D03*
X500000Y150000D02*
D03*
X525000Y100000D02*
D03*
X450000Y650000D02*
D03*
X475000Y400000D02*
D03*
X450000Y350000D02*
D03*
X475000Y300000D02*
D03*
X450000Y250000D02*
D03*
Y150000D02*
D03*
X475000Y100000D02*
D03*
X400000Y650000D02*
D03*
Y450000D02*
D03*
X425000Y400000D02*
D03*
X400000Y350000D02*
D03*
X425000Y300000D02*
D03*
X400000Y250000D02*
D03*
Y150000D02*
D03*
X425000Y100000D02*
D03*
X350000Y650000D02*
D03*
X375000Y600000D02*
D03*
Y500000D02*
D03*
X350000Y450000D02*
D03*
X375000Y400000D02*
D03*
X350000Y350000D02*
D03*
X375000Y300000D02*
D03*
X350000Y250000D02*
D03*
Y150000D02*
D03*
X375000Y100000D02*
D03*
X300000Y650000D02*
D03*
X325000Y600000D02*
D03*
X300000Y550000D02*
D03*
Y450000D02*
D03*
X325000Y400000D02*
D03*
X300000Y350000D02*
D03*
Y250000D02*
D03*
Y150000D02*
D03*
X325000Y100000D02*
D03*
X250000Y650000D02*
D03*
X275000Y600000D02*
D03*
X250000Y550000D02*
D03*
X275000Y500000D02*
D03*
Y400000D02*
D03*
X250000Y350000D02*
D03*
X275000Y300000D02*
D03*
X250000Y250000D02*
D03*
X275000Y100000D02*
D03*
X200000Y650000D02*
D03*
X225000Y600000D02*
D03*
X200000Y550000D02*
D03*
X225000Y500000D02*
D03*
X200000Y450000D02*
D03*
X225000Y400000D02*
D03*
X200000Y350000D02*
D03*
X225000Y300000D02*
D03*
X200000Y250000D02*
D03*
X225000Y200000D02*
D03*
X200000Y150000D02*
D03*
X225000Y100000D02*
D03*
X200000Y50000D02*
D03*
X150000Y650000D02*
D03*
X175000Y600000D02*
D03*
X150000Y550000D02*
D03*
X175000Y500000D02*
D03*
X150000Y450000D02*
D03*
X175000Y400000D02*
D03*
X150000Y350000D02*
D03*
Y250000D02*
D03*
Y150000D02*
D03*
Y50000D02*
D03*
X100000Y650000D02*
D03*
X125000Y600000D02*
D03*
X100000Y550000D02*
D03*
X125000Y500000D02*
D03*
X100000Y450000D02*
D03*
X125000Y400000D02*
D03*
X100000Y350000D02*
D03*
X125000Y300000D02*
D03*
X100000Y250000D02*
D03*
X125000Y200000D02*
D03*
X100000Y150000D02*
D03*
X125000Y100000D02*
D03*
X100000Y50000D02*
D03*
X75000Y600000D02*
D03*
X50000Y550000D02*
D03*
Y450000D02*
D03*
X75000Y400000D02*
D03*
X50000Y350000D02*
D03*
Y250000D02*
D03*
X75000Y200000D02*
D03*
X50000Y150000D02*
D03*
X75000Y100000D02*
D03*
X985000Y470000D02*
D03*
X1028000Y461000D02*
D03*
X641000Y171000D02*
D03*
X786000Y261000D02*
D03*
X778000Y269000D02*
D03*
X865000Y138000D02*
D03*
X972000Y134000D02*
D03*
X861000Y179000D02*
D03*
X777000Y155000D02*
D03*
X880000Y179000D02*
D03*
X871000D02*
D03*
X1059000Y585000D02*
D03*
X1026998Y606999D02*
D03*
X1046000Y584000D02*
D03*
X627000Y595000D02*
D03*
X638000D02*
D03*
X683000Y328000D02*
D03*
X676000Y302000D02*
D03*
X770000Y253000D02*
D03*
X752000Y188000D02*
D03*
X776000D02*
D03*
X703000Y272000D02*
D03*
X719000Y230000D02*
D03*
Y242000D02*
D03*
Y219000D02*
D03*
Y207000D02*
D03*
Y196000D02*
D03*
X827000Y284000D02*
D03*
Y206000D02*
D03*
X322000D02*
D03*
X912000Y640000D02*
D03*
X797000Y297000D02*
D03*
X773000Y306000D02*
D03*
X751000Y318000D02*
D03*
X724000Y335000D02*
D03*
X788000Y304000D02*
D03*
X728000Y359000D02*
D03*
X737000Y370000D02*
D03*
X748000Y374000D02*
D03*
X456000Y568000D02*
D03*
X168000Y235000D02*
D03*
X128000Y59000D02*
D03*
X881000Y54000D02*
D03*
X1026000Y82000D02*
D03*
X989000Y69000D02*
D03*
M02*
