%TF.GenerationSoftware,Altium Limited,Altium NEXUS,2.1.9 (83)*%
G04 Layer_Color=16711935*
%FSLAX44Y44*%
%MOMM*%
%TF.FileFunction,Other,Mechanical_1*%
%TF.Part,Single*%
G01*
G75*
%TA.AperFunction,NonConductor*%
%ADD54C,0.2000*%
%ADD56C,0.1524*%
%ADD59C,0.2540*%
D54*
X-0Y700000D02*
X1500000Y700000D01*
X-0Y700000D02*
X0Y0D01*
X1500000Y-0D01*
X1500000Y257500D02*
X1500000Y-0D01*
X1454000Y257500D02*
X1500000Y257500D01*
X1454000Y522000D02*
X1454000Y257500D01*
X1454000Y522000D02*
X1500000Y522000D01*
X1500000Y700000D02*
X1500000Y522000D01*
D56*
X-66094Y311657D02*
Y321814D01*
X-63554D01*
X-53398Y311657D01*
X-50858D01*
X-63554Y326892D02*
X-66094Y329431D01*
Y334510D01*
X-63554Y337049D01*
X-53398D01*
X-50858Y334510D01*
Y329431D01*
X-53398Y326892D01*
X-63554D01*
X-50858Y342127D02*
X-53398D01*
Y344666D01*
X-50858D01*
Y342127D01*
X-63554Y354823D02*
X-66094Y357362D01*
Y362441D01*
X-63554Y364980D01*
X-53398D01*
X-50858Y362441D01*
Y357362D01*
X-53398Y354823D01*
X-63554D01*
Y370058D02*
X-66094Y372597D01*
Y377676D01*
X-63554Y380215D01*
X-53398D01*
X-50858Y377676D01*
Y372597D01*
X-53398Y370058D01*
X-63554D01*
D59*
X1004847Y357871D02*
X1064847D01*
X1034847Y328026D02*
X1034847Y387716D01*
X921148Y358127D02*
X981148D01*
X951148Y328282D02*
X951148Y387972D01*
X-65080Y15240D02*
X-60000Y0D01*
X-54920Y15240D01*
X-60000Y700000D02*
X-54920Y684760D01*
X-65080D02*
X-60000Y700000D01*
Y0D02*
Y307593D01*
Y384279D02*
Y700000D01*
X-62540Y0D02*
X-2540D01*
X-62540Y700000D02*
X10000D01*
%TF.MD5,5e3626f54f1c3048f35c8f6b715172c1*%
M02*
