%TF.GenerationSoftware,Altium Limited,Altium NEXUS,2.1.9 (83)*%
G04 Layer_Color=32896*
%FSLAX44Y44*%
%MOMM*%
%TF.FileFunction,Legend,Bot*%
%TF.Part,Single*%
G01*
G75*
%TA.AperFunction,NonConductor*%
%ADD54C,0.2000*%
%ADD95C,0.4000*%
D54*
X750030Y568040D02*
X902430D01*
X750030Y542640D02*
X902430D01*
X750030D02*
Y568040D01*
X902430Y542640D02*
Y568040D01*
X597630Y542640D02*
Y568040D01*
Y542640D02*
X724630D01*
X597630Y568040D02*
X724630D01*
Y542640D02*
Y568040D01*
X573500Y133700D02*
X624300D01*
X573500Y108300D02*
Y133700D01*
Y108300D02*
X624300D01*
Y133700D01*
X624298Y108302D02*
Y133702D01*
X903700Y108300D02*
Y133700D01*
X700500D02*
X903700D01*
X700500Y108300D02*
Y133700D01*
Y108300D02*
X903700D01*
X700502Y108298D02*
Y133698D01*
X649702Y108298D02*
X700502D01*
X649702D02*
Y133698D01*
X700502D01*
D95*
X173000Y78994D02*
Y59000D01*
X163003D01*
X159671Y62332D01*
Y65665D01*
X163003Y68997D01*
X173000D01*
X163003D01*
X159671Y72329D01*
Y75661D01*
X163003Y78994D01*
X173000D01*
X153006Y59000D02*
Y72329D01*
X146342Y78994D01*
X139677Y72329D01*
Y59000D01*
Y68997D01*
X153006D01*
X133013Y78994D02*
X119684D01*
X126348D01*
Y59000D01*
X104000Y29664D02*
X90671D01*
X97336Y36329D02*
Y23000D01*
X204000Y27997D02*
X190671D01*
%TF.MD5,994ef073f3485350edd7c4e1df209f60*%
M02*
