%TF.GenerationSoftware,Altium Limited,Altium NEXUS,2.1.9 (83)*%
G04 Layer_Color=65535*
%FSLAX44Y44*%
%MOMM*%
%TF.FileFunction,Legend,Top*%
%TF.Part,Single*%
G01*
G75*
%TA.AperFunction,NonConductor*%
%ADD53C,0.2500*%
%ADD54C,0.2000*%
%ADD55C,0.0000*%
%ADD56C,0.1524*%
%ADD57C,0.1600*%
%ADD58C,0.1270*%
%ADD59C,0.2540*%
G36*
X760692Y515051D02*
X762949D01*
Y514729D01*
X764883D01*
Y514407D01*
X766173D01*
Y514084D01*
X767785D01*
Y513762D01*
X768430D01*
Y513439D01*
Y513117D01*
X768752D01*
Y512794D01*
Y512472D01*
Y512150D01*
Y511827D01*
Y511505D01*
X769075D01*
Y511182D01*
Y510860D01*
Y510537D01*
Y510215D01*
X769397D01*
Y509893D01*
Y509570D01*
Y509248D01*
Y508925D01*
Y508603D01*
X769720D01*
Y508280D01*
Y507958D01*
Y507636D01*
Y507313D01*
X770042D01*
Y506991D01*
Y506668D01*
Y506346D01*
Y506023D01*
X770364D01*
Y505701D01*
Y505378D01*
Y505056D01*
Y504734D01*
Y504411D01*
X770687D01*
Y504089D01*
Y503766D01*
Y503444D01*
Y503121D01*
X771009D01*
Y502799D01*
Y502477D01*
Y502154D01*
Y501832D01*
Y501509D01*
X771332D01*
Y501187D01*
Y500864D01*
Y500542D01*
Y500220D01*
X771654D01*
Y499897D01*
Y499575D01*
Y499252D01*
Y498930D01*
X771977D01*
Y498607D01*
Y498285D01*
Y497963D01*
Y497640D01*
X772299D01*
Y497318D01*
Y496995D01*
Y496673D01*
Y496351D01*
Y496028D01*
X772622D01*
Y495706D01*
Y495383D01*
Y495061D01*
Y494738D01*
X772944D01*
Y494416D01*
Y494094D01*
Y493771D01*
Y493449D01*
X773266D01*
Y493126D01*
Y492804D01*
Y492481D01*
Y492159D01*
Y491837D01*
X773589D01*
Y491514D01*
Y491192D01*
Y490869D01*
Y490547D01*
X773911D01*
Y490224D01*
Y489902D01*
Y489580D01*
Y489257D01*
Y488935D01*
X774234D01*
Y488612D01*
Y488290D01*
Y487967D01*
Y487645D01*
X774556D01*
Y487323D01*
Y487000D01*
Y486678D01*
Y486355D01*
X774878D01*
Y486033D01*
Y485710D01*
Y485388D01*
Y485065D01*
X775201D01*
Y484743D01*
Y484421D01*
X774556D01*
Y484743D01*
X774234D01*
Y485065D01*
X773589D01*
Y485388D01*
X772944D01*
Y485710D01*
X772622D01*
Y486033D01*
X771977D01*
Y486355D01*
X771654D01*
Y486678D01*
X771009D01*
Y487000D01*
X770687D01*
Y487323D01*
X770042D01*
Y487645D01*
X769397D01*
Y487967D01*
X769075D01*
Y488290D01*
X768430D01*
Y488612D01*
X768108D01*
Y488935D01*
X767463D01*
Y489257D01*
X766818D01*
Y489580D01*
X766495D01*
Y489902D01*
X765850D01*
Y490224D01*
X765528D01*
Y490547D01*
X764883D01*
Y490869D01*
X764561D01*
Y491192D01*
X763916D01*
Y491514D01*
X763271D01*
Y491837D01*
X762949D01*
Y492159D01*
X762304D01*
Y492481D01*
X761981D01*
Y492804D01*
X761336D01*
Y493126D01*
X760692D01*
Y493449D01*
X760369D01*
Y493771D01*
X759724D01*
Y494094D01*
X759079D01*
Y494416D01*
X758757D01*
Y494738D01*
X758112D01*
Y495061D01*
X757790D01*
Y495383D01*
X757145D01*
Y495706D01*
X756822D01*
Y496028D01*
X756178D01*
Y496351D01*
X755533D01*
Y496673D01*
X755210D01*
Y496995D01*
X754565D01*
Y497318D01*
X754243D01*
Y497640D01*
X753598D01*
Y497963D01*
X752953D01*
Y498285D01*
X752631D01*
Y498607D01*
X751986D01*
Y498930D01*
X751664D01*
Y499252D01*
X751019D01*
Y499575D01*
X750696D01*
Y499897D01*
X750051D01*
Y500220D01*
X749407D01*
Y500542D01*
X749084D01*
Y500864D01*
X748439D01*
Y501187D01*
X748117D01*
Y501509D01*
X747472D01*
Y501832D01*
X746827D01*
Y502154D01*
X746505D01*
Y502477D01*
X745860D01*
Y502799D01*
X745537D01*
Y503121D01*
X744893D01*
Y503444D01*
X744248D01*
Y503766D01*
X743925D01*
Y504089D01*
X743280D01*
Y504411D01*
X742635D01*
Y504734D01*
X742313D01*
Y505056D01*
X741668D01*
Y505378D01*
X741346D01*
Y505701D01*
X740701D01*
Y506023D01*
X740378D01*
Y506346D01*
X739734D01*
Y506668D01*
X739089D01*
Y506991D01*
X738766D01*
Y507313D01*
X738121D01*
Y507636D01*
X737799D01*
Y507958D01*
X737154D01*
Y508280D01*
X736832D01*
Y508603D01*
X736187D01*
Y508925D01*
X735542D01*
Y509248D01*
X735220D01*
Y509570D01*
X734575D01*
Y509893D01*
X734252D01*
Y510215D01*
X733607D01*
Y510537D01*
X732963D01*
Y510860D01*
X732640D01*
Y511182D01*
X733285D01*
Y511505D01*
X734252D01*
Y511827D01*
X734897D01*
Y512150D01*
X735864D01*
Y512472D01*
X736832D01*
Y512794D01*
X737799D01*
Y513117D01*
X738766D01*
Y513439D01*
X740056D01*
Y513762D01*
X741346D01*
Y514084D01*
X742635D01*
Y514407D01*
X744248D01*
Y514729D01*
X746182D01*
Y515051D01*
X748439D01*
Y515374D01*
X760692D01*
Y515051D01*
D02*
G37*
G36*
X726191Y507313D02*
X726836D01*
Y506991D01*
X727159D01*
Y506668D01*
X727804D01*
Y506346D01*
X728449D01*
Y506023D01*
X728771D01*
Y505701D01*
X729416D01*
Y505378D01*
X730061D01*
Y505056D01*
X730383D01*
Y504734D01*
X731028D01*
Y504411D01*
X731350D01*
Y504089D01*
X731995D01*
Y503766D01*
X732640D01*
Y503444D01*
X732963D01*
Y503121D01*
X733607D01*
Y502799D01*
X733930D01*
Y502477D01*
X734575D01*
Y502154D01*
X734897D01*
Y501832D01*
X735542D01*
Y501509D01*
X736187D01*
Y501187D01*
X736509D01*
Y500864D01*
X737154D01*
Y500542D01*
X737477D01*
Y500220D01*
X738121D01*
Y499897D01*
X738766D01*
Y499575D01*
X739089D01*
Y499252D01*
X739734D01*
Y498930D01*
X740378D01*
Y498607D01*
X740701D01*
Y498285D01*
X741346D01*
Y497963D01*
X741668D01*
Y497640D01*
X742313D01*
Y497318D01*
X742958D01*
Y496995D01*
X743280D01*
Y496673D01*
X743925D01*
Y496351D01*
X744248D01*
Y496028D01*
X744893D01*
Y495706D01*
X745537D01*
Y495383D01*
X745860D01*
Y495061D01*
X746505D01*
Y494738D01*
X746827D01*
Y494416D01*
X747472D01*
Y494094D01*
X747794D01*
Y493771D01*
X748439D01*
Y493449D01*
X749084D01*
Y493126D01*
X749407D01*
Y492804D01*
X750051D01*
Y492481D01*
X750374D01*
Y492159D01*
X751019D01*
Y491837D01*
X751664D01*
Y491514D01*
X751986D01*
Y491192D01*
X750374D01*
Y490869D01*
X749084D01*
Y490547D01*
X747472D01*
Y490224D01*
X746182D01*
Y489902D01*
X744570D01*
Y489580D01*
X743603D01*
Y489257D01*
X741991D01*
Y488935D01*
X740378D01*
Y488612D01*
X739089D01*
Y488290D01*
X737477D01*
Y487967D01*
X736187D01*
Y487645D01*
X734575D01*
Y487323D01*
X733285D01*
Y487000D01*
X731673D01*
Y486678D01*
X730383D01*
Y486355D01*
X729093D01*
Y486033D01*
X727481D01*
Y485710D01*
X726191D01*
Y485388D01*
X724579D01*
Y485065D01*
X723290D01*
Y484743D01*
X721677D01*
Y484421D01*
X720388D01*
Y484098D01*
X718776D01*
Y483776D01*
X717486D01*
Y483453D01*
X715874D01*
Y483131D01*
X714584D01*
Y482808D01*
X713294D01*
Y482486D01*
X711682D01*
Y482164D01*
X710393D01*
Y481841D01*
X708780D01*
Y481519D01*
X707491D01*
Y481196D01*
X705878D01*
Y480874D01*
X704589D01*
Y480551D01*
X703299D01*
Y480229D01*
X702654D01*
Y480551D01*
X702977D01*
Y480874D01*
Y481196D01*
X703299D01*
Y481519D01*
Y481841D01*
Y482164D01*
X703622D01*
Y482486D01*
Y482808D01*
X703944D01*
Y483131D01*
Y483453D01*
X704266D01*
Y483776D01*
Y484098D01*
X704589D01*
Y484421D01*
Y484743D01*
X704911D01*
Y485065D01*
Y485388D01*
X705234D01*
Y485710D01*
Y486033D01*
X705556D01*
Y486355D01*
Y486678D01*
X705878D01*
Y487000D01*
Y487323D01*
X706201D01*
Y487645D01*
Y487967D01*
X706523D01*
Y488290D01*
X706846D01*
Y488612D01*
Y488935D01*
X707168D01*
Y489257D01*
X707491D01*
Y489580D01*
Y489902D01*
X707813D01*
Y490224D01*
Y490547D01*
X708135D01*
Y490869D01*
X708458D01*
Y491192D01*
Y491514D01*
X708780D01*
Y491837D01*
X709103D01*
Y492159D01*
X709425D01*
Y492481D01*
Y492804D01*
X709748D01*
Y493126D01*
X710070D01*
Y493449D01*
X710393D01*
Y493771D01*
Y494094D01*
X710715D01*
Y494416D01*
X711037D01*
Y494738D01*
X711360D01*
Y495061D01*
Y495383D01*
X711682D01*
Y495706D01*
X712005D01*
Y496028D01*
X712327D01*
Y496351D01*
X712650D01*
Y496673D01*
X712972D01*
Y496995D01*
X713294D01*
Y497318D01*
X713617D01*
Y497640D01*
Y497963D01*
X713939D01*
Y498285D01*
X714262D01*
Y498607D01*
X714584D01*
Y498930D01*
X714906D01*
Y499252D01*
X715229D01*
Y499575D01*
X715551D01*
Y499897D01*
X715874D01*
Y500220D01*
X716196D01*
Y500542D01*
X716519D01*
Y500864D01*
X717163D01*
Y501187D01*
X717486D01*
Y501509D01*
X717808D01*
Y501832D01*
X718131D01*
Y502154D01*
X718453D01*
Y502477D01*
X718776D01*
Y502799D01*
X719098D01*
Y503121D01*
X719743D01*
Y503444D01*
X720065D01*
Y503766D01*
X720388D01*
Y504089D01*
X721033D01*
Y504411D01*
X721355D01*
Y504734D01*
X721677D01*
Y505056D01*
X722322D01*
Y505378D01*
X722645D01*
Y505701D01*
X722967D01*
Y506023D01*
X723612D01*
Y506346D01*
X724257D01*
Y506668D01*
X724579D01*
Y506991D01*
X725224D01*
Y507313D01*
X725547D01*
Y507636D01*
X726191D01*
Y507313D01*
D02*
G37*
G36*
X775846Y511182D02*
X776491D01*
Y510860D01*
X777135D01*
Y510537D01*
X777780D01*
Y510215D01*
X778425D01*
Y509893D01*
X779070D01*
Y509570D01*
X779715D01*
Y509248D01*
X780360D01*
Y508925D01*
X781005D01*
Y508603D01*
X781649D01*
Y508280D01*
X782294D01*
Y507958D01*
X782617D01*
Y507636D01*
X783262D01*
Y507313D01*
X783906D01*
Y506991D01*
X784229D01*
Y506668D01*
X784874D01*
Y506346D01*
X785196D01*
Y506023D01*
X785841D01*
Y505701D01*
X786163D01*
Y505378D01*
X786808D01*
Y505056D01*
X787131D01*
Y504734D01*
X787776D01*
Y504411D01*
X788098D01*
Y504089D01*
X788420D01*
Y503766D01*
X789065D01*
Y503444D01*
X789388D01*
Y503121D01*
X789710D01*
Y502799D01*
X790033D01*
Y502477D01*
X790678D01*
Y502154D01*
X791000D01*
Y501832D01*
X791322D01*
Y501509D01*
X791645D01*
Y501187D01*
X791967D01*
Y500864D01*
X792290D01*
Y500542D01*
X792612D01*
Y500220D01*
X792935D01*
Y499897D01*
X793257D01*
Y499575D01*
X793579D01*
Y499252D01*
X793902D01*
Y498930D01*
X794224D01*
Y498607D01*
X794547D01*
Y498285D01*
X794869D01*
Y497963D01*
X795192D01*
Y497640D01*
X795514D01*
Y497318D01*
X795836D01*
Y496995D01*
X796159D01*
Y496673D01*
X796481D01*
Y496351D01*
X796804D01*
Y496028D01*
X797126D01*
Y495706D01*
Y495383D01*
X797449D01*
Y495061D01*
X797771D01*
Y494738D01*
X798093D01*
Y494416D01*
X798416D01*
Y494094D01*
Y493771D01*
X798738D01*
Y493449D01*
X799061D01*
Y493126D01*
X799383D01*
Y492804D01*
Y492481D01*
X799706D01*
Y492159D01*
X800028D01*
Y491837D01*
Y491514D01*
X800350D01*
Y491192D01*
X800673D01*
Y490869D01*
X800995D01*
Y490547D01*
Y490224D01*
X801318D01*
Y489902D01*
Y489580D01*
X801640D01*
Y489257D01*
X801963D01*
Y488935D01*
Y488612D01*
X802285D01*
Y488290D01*
X802607D01*
Y487967D01*
Y487645D01*
X802285D01*
Y487323D01*
X801963D01*
Y487000D01*
Y486678D01*
X801640D01*
Y486355D01*
X801318D01*
Y486033D01*
Y485710D01*
X800995D01*
Y485388D01*
Y485065D01*
X800673D01*
Y484743D01*
X800350D01*
Y484421D01*
Y484098D01*
X800028D01*
Y483776D01*
X799706D01*
Y483453D01*
Y483131D01*
X799383D01*
Y482808D01*
Y482486D01*
X799061D01*
Y482164D01*
X798738D01*
Y481841D01*
Y481519D01*
X798416D01*
Y481196D01*
X798093D01*
Y480874D01*
Y480551D01*
X797771D01*
Y480229D01*
Y479907D01*
X797449D01*
Y479584D01*
X797126D01*
Y479262D01*
Y478939D01*
X796804D01*
Y478617D01*
X796481D01*
Y478294D01*
Y477972D01*
X796159D01*
Y477650D01*
Y477327D01*
X795836D01*
Y477005D01*
X795514D01*
Y476682D01*
Y476360D01*
X795192D01*
Y476037D01*
X794869D01*
Y475715D01*
Y475392D01*
X794547D01*
Y475070D01*
X794224D01*
Y474748D01*
Y474425D01*
X793902D01*
Y474103D01*
Y473780D01*
X793579D01*
Y473458D01*
X793257D01*
Y473136D01*
Y472813D01*
X792935D01*
Y472491D01*
X792612D01*
Y472168D01*
Y471846D01*
X792290D01*
Y471523D01*
Y471201D01*
X791967D01*
Y470878D01*
X791645D01*
Y470556D01*
Y470234D01*
X791322D01*
Y469911D01*
Y469589D01*
X791000D01*
Y469266D01*
X790678D01*
Y468944D01*
Y468621D01*
X790355D01*
Y468299D01*
X790033D01*
Y467977D01*
Y467654D01*
X789710D01*
Y467332D01*
Y467009D01*
X789388D01*
Y466687D01*
X789065D01*
Y466365D01*
Y466042D01*
X788743D01*
Y465720D01*
X788420D01*
Y465397D01*
Y465075D01*
X788098D01*
Y464752D01*
X787776D01*
Y464430D01*
Y464108D01*
X787453D01*
Y463785D01*
Y463463D01*
X787131D01*
Y463140D01*
X786808D01*
Y462818D01*
Y462495D01*
X786486D01*
Y462818D01*
Y463140D01*
Y463463D01*
Y463785D01*
X786163D01*
Y464108D01*
Y464430D01*
Y464752D01*
Y465075D01*
X785841D01*
Y465397D01*
Y465720D01*
Y466042D01*
Y466365D01*
Y466687D01*
X785519D01*
Y467009D01*
Y467332D01*
Y467654D01*
Y467977D01*
X785196D01*
Y468299D01*
Y468621D01*
Y468944D01*
Y469266D01*
Y469589D01*
X784874D01*
Y469911D01*
Y470234D01*
Y470556D01*
Y470878D01*
X784551D01*
Y471201D01*
Y471523D01*
Y471846D01*
Y472168D01*
X784229D01*
Y472491D01*
Y472813D01*
Y473136D01*
Y473458D01*
X783906D01*
Y473780D01*
Y474103D01*
Y474425D01*
Y474748D01*
Y475070D01*
X783584D01*
Y475392D01*
Y475715D01*
Y476037D01*
Y476360D01*
Y476682D01*
X783262D01*
Y477005D01*
Y477327D01*
Y477650D01*
Y477972D01*
X782939D01*
Y478294D01*
Y478617D01*
Y478939D01*
Y479262D01*
X782617D01*
Y479584D01*
Y479907D01*
Y480229D01*
Y480551D01*
X782294D01*
Y480874D01*
Y481196D01*
Y481519D01*
Y481841D01*
Y482164D01*
X781972D01*
Y482486D01*
Y482808D01*
Y483131D01*
Y483453D01*
X781649D01*
Y483776D01*
Y484098D01*
Y484421D01*
Y484743D01*
Y485065D01*
X781327D01*
Y485388D01*
Y485710D01*
Y486033D01*
Y486355D01*
X781005D01*
Y486678D01*
Y487000D01*
Y487323D01*
Y487645D01*
X780682D01*
Y487967D01*
Y488290D01*
Y488612D01*
Y488935D01*
Y489257D01*
X780360D01*
Y489580D01*
Y489902D01*
Y490224D01*
Y490547D01*
X780037D01*
Y490869D01*
Y491192D01*
Y491514D01*
Y491837D01*
Y492159D01*
X779715D01*
Y492481D01*
Y492804D01*
Y493126D01*
Y493449D01*
X779392D01*
Y493771D01*
Y494094D01*
Y494416D01*
Y494738D01*
X779070D01*
Y495061D01*
Y495383D01*
Y495706D01*
Y496028D01*
X778748D01*
Y496351D01*
Y496673D01*
Y496995D01*
Y497318D01*
Y497640D01*
X778425D01*
Y497963D01*
Y498285D01*
Y498607D01*
Y498930D01*
X778103D01*
Y499252D01*
Y499575D01*
Y499897D01*
Y500220D01*
Y500542D01*
X777780D01*
Y500864D01*
Y501187D01*
Y501509D01*
Y501832D01*
X777458D01*
Y502154D01*
Y502477D01*
Y502799D01*
Y503121D01*
X777135D01*
Y503444D01*
Y503766D01*
Y504089D01*
Y504411D01*
Y504734D01*
X776813D01*
Y505056D01*
Y505378D01*
Y505701D01*
Y506023D01*
X776491D01*
Y506346D01*
Y506668D01*
Y506991D01*
Y507313D01*
Y507636D01*
X776168D01*
Y507958D01*
Y508280D01*
Y508603D01*
Y508925D01*
X775846D01*
Y509248D01*
Y509570D01*
Y509893D01*
Y510215D01*
X775523D01*
Y510537D01*
Y510860D01*
Y511182D01*
Y511505D01*
X775846D01*
Y511182D01*
D02*
G37*
G36*
X806154Y480874D02*
Y480551D01*
Y480229D01*
X806477D01*
Y479907D01*
Y479584D01*
Y479262D01*
X806799D01*
Y478939D01*
Y478617D01*
X807122D01*
Y478294D01*
Y477972D01*
Y477650D01*
X807444D01*
Y477327D01*
Y477005D01*
Y476682D01*
Y476360D01*
X807766D01*
Y476037D01*
Y475715D01*
Y475392D01*
X808089D01*
Y475070D01*
Y474748D01*
Y474425D01*
Y474103D01*
X808411D01*
Y473780D01*
Y473458D01*
Y473136D01*
X808734D01*
Y472813D01*
Y472491D01*
Y472168D01*
Y471846D01*
Y471523D01*
X809056D01*
Y471201D01*
Y470878D01*
Y470556D01*
Y470234D01*
X809379D01*
Y469911D01*
Y469589D01*
Y469266D01*
Y468944D01*
Y468621D01*
Y468299D01*
Y467977D01*
X809701D01*
Y467654D01*
Y467332D01*
Y467009D01*
Y466687D01*
Y466365D01*
Y466042D01*
Y465720D01*
X810023D01*
Y465397D01*
Y465075D01*
Y464752D01*
Y464430D01*
Y464108D01*
Y463785D01*
Y463463D01*
Y463140D01*
Y462818D01*
Y462495D01*
Y462173D01*
Y461851D01*
Y461528D01*
Y461206D01*
Y460883D01*
Y460561D01*
Y460238D01*
Y459916D01*
Y459594D01*
Y459271D01*
Y458949D01*
Y458626D01*
Y458304D01*
Y457981D01*
Y457659D01*
Y457337D01*
Y457014D01*
Y456692D01*
Y456369D01*
Y456047D01*
Y455724D01*
Y455402D01*
Y455079D01*
Y454757D01*
Y454435D01*
Y454112D01*
Y453790D01*
X809701D01*
Y453467D01*
Y453145D01*
Y452822D01*
Y452500D01*
Y452178D01*
Y451855D01*
Y451533D01*
X809379D01*
Y451210D01*
Y450888D01*
Y450565D01*
Y450243D01*
Y449921D01*
Y449598D01*
X809056D01*
Y449276D01*
Y448953D01*
Y448631D01*
Y448308D01*
Y447986D01*
X808734D01*
Y447664D01*
Y447341D01*
Y447019D01*
Y446696D01*
X808411D01*
Y446374D01*
Y446051D01*
Y445729D01*
X806799D01*
Y445407D01*
X805187D01*
Y445084D01*
X803897D01*
Y444762D01*
X802285D01*
Y444439D01*
X800995D01*
Y444117D01*
X799706D01*
Y443794D01*
X798416D01*
Y443472D01*
X796804D01*
Y443150D01*
X795514D01*
Y442827D01*
X794224D01*
Y442505D01*
X792612D01*
Y442182D01*
X791322D01*
Y441860D01*
X789710D01*
Y441537D01*
X788420D01*
Y441215D01*
X787131D01*
Y440892D01*
X785841D01*
Y440570D01*
X784229D01*
Y440248D01*
X782939D01*
Y439925D01*
X781327D01*
Y439603D01*
X780037D01*
Y439280D01*
X779392D01*
Y439603D01*
X779715D01*
Y439925D01*
X780037D01*
Y440248D01*
Y440570D01*
X780360D01*
Y440892D01*
X780682D01*
Y441215D01*
Y441537D01*
X781005D01*
Y441860D01*
X781327D01*
Y442182D01*
Y442505D01*
X781649D01*
Y442827D01*
Y443150D01*
X781972D01*
Y443472D01*
X782294D01*
Y443794D01*
Y444117D01*
X782617D01*
Y444439D01*
X782939D01*
Y444762D01*
Y445084D01*
X783262D01*
Y445407D01*
X783584D01*
Y445729D01*
Y446051D01*
X783906D01*
Y446374D01*
Y446696D01*
X784229D01*
Y447019D01*
X784551D01*
Y447341D01*
Y447664D01*
X784874D01*
Y447986D01*
X785196D01*
Y448308D01*
Y448631D01*
X785519D01*
Y448953D01*
Y449276D01*
X785841D01*
Y449598D01*
X786163D01*
Y449921D01*
Y450243D01*
X786486D01*
Y450565D01*
X786808D01*
Y450888D01*
Y451210D01*
X787131D01*
Y451533D01*
Y451855D01*
X787453D01*
Y452178D01*
X787776D01*
Y452500D01*
Y452822D01*
X788098D01*
Y453145D01*
X788420D01*
Y453467D01*
Y453790D01*
X788743D01*
Y454112D01*
Y454435D01*
X789065D01*
Y454757D01*
X789388D01*
Y455079D01*
Y455402D01*
X789710D01*
Y455724D01*
X790033D01*
Y456047D01*
Y456369D01*
X790355D01*
Y456692D01*
Y457014D01*
X790678D01*
Y457337D01*
X791000D01*
Y457659D01*
Y457981D01*
X791322D01*
Y458304D01*
X791645D01*
Y458626D01*
Y458949D01*
X791967D01*
Y459271D01*
Y459594D01*
X792290D01*
Y459916D01*
X792612D01*
Y460238D01*
Y460561D01*
X792935D01*
Y460883D01*
X793257D01*
Y461206D01*
Y461528D01*
X793579D01*
Y461851D01*
X793902D01*
Y462173D01*
Y462495D01*
X794224D01*
Y462818D01*
Y463140D01*
X794547D01*
Y463463D01*
X794869D01*
Y463785D01*
Y464108D01*
X795192D01*
Y464430D01*
X795514D01*
Y464752D01*
Y465075D01*
X795836D01*
Y465397D01*
Y465720D01*
X796159D01*
Y466042D01*
X796481D01*
Y466365D01*
Y466687D01*
X796804D01*
Y467009D01*
X797126D01*
Y467332D01*
Y467654D01*
X797449D01*
Y467977D01*
Y468299D01*
X797771D01*
Y468621D01*
X798093D01*
Y468944D01*
Y469266D01*
X798416D01*
Y469589D01*
X798738D01*
Y469911D01*
Y470234D01*
X799061D01*
Y470556D01*
Y470878D01*
X799383D01*
Y471201D01*
X799706D01*
Y471523D01*
Y471846D01*
X800028D01*
Y472168D01*
X800350D01*
Y472491D01*
Y472813D01*
X800673D01*
Y473136D01*
Y473458D01*
X800995D01*
Y473780D01*
X801318D01*
Y474103D01*
Y474425D01*
X801640D01*
Y474748D01*
X801963D01*
Y475070D01*
Y475392D01*
X802285D01*
Y475715D01*
X802607D01*
Y476037D01*
Y476360D01*
X802930D01*
Y476682D01*
Y477005D01*
X803252D01*
Y477327D01*
X803575D01*
Y477650D01*
Y477972D01*
X803897D01*
Y478294D01*
X804220D01*
Y478617D01*
Y478939D01*
X804542D01*
Y479262D01*
Y479584D01*
X804865D01*
Y479907D01*
X805187D01*
Y480229D01*
Y480551D01*
X805509D01*
Y480874D01*
Y481196D01*
X806154D01*
Y480874D01*
D02*
G37*
G36*
X730383Y479907D02*
Y479584D01*
X730061D01*
Y479262D01*
X729738D01*
Y478939D01*
Y478617D01*
X729416D01*
Y478294D01*
X729093D01*
Y477972D01*
Y477650D01*
X728771D01*
Y477327D01*
Y477005D01*
X728449D01*
Y476682D01*
X728126D01*
Y476360D01*
Y476037D01*
X727804D01*
Y475715D01*
X727481D01*
Y475392D01*
Y475070D01*
X727159D01*
Y474748D01*
X726836D01*
Y474425D01*
Y474103D01*
X726514D01*
Y473780D01*
Y473458D01*
X726191D01*
Y473136D01*
X725869D01*
Y472813D01*
Y472491D01*
X725547D01*
Y472168D01*
X725224D01*
Y471846D01*
Y471523D01*
X724902D01*
Y471201D01*
Y470878D01*
X724579D01*
Y470556D01*
X724257D01*
Y470234D01*
Y469911D01*
X723934D01*
Y469589D01*
X723612D01*
Y469266D01*
Y468944D01*
X723290D01*
Y468621D01*
Y468299D01*
X722967D01*
Y467977D01*
X722645D01*
Y467654D01*
Y467332D01*
X722322D01*
Y467009D01*
X722000D01*
Y466687D01*
Y466365D01*
X721677D01*
Y466042D01*
Y465720D01*
X721355D01*
Y465397D01*
X721033D01*
Y465075D01*
Y464752D01*
X720710D01*
Y464430D01*
X720388D01*
Y464108D01*
Y463785D01*
X720065D01*
Y463463D01*
X719743D01*
Y463140D01*
Y462818D01*
X719420D01*
Y462495D01*
Y462173D01*
X719098D01*
Y461851D01*
X718776D01*
Y461528D01*
Y461206D01*
X718453D01*
Y460883D01*
X718131D01*
Y460561D01*
Y460238D01*
X717808D01*
Y459916D01*
X717486D01*
Y459594D01*
Y459271D01*
X717163D01*
Y458949D01*
Y458626D01*
X716841D01*
Y458304D01*
X716519D01*
Y457981D01*
Y457659D01*
X716196D01*
Y457337D01*
X715874D01*
Y457014D01*
Y456692D01*
X715551D01*
Y456369D01*
X715229D01*
Y456047D01*
Y455724D01*
X714906D01*
Y455402D01*
Y455079D01*
X714584D01*
Y454757D01*
X714262D01*
Y454435D01*
Y454112D01*
X713939D01*
Y453790D01*
X713617D01*
Y453467D01*
Y453145D01*
X713294D01*
Y452822D01*
X712972D01*
Y452500D01*
Y452178D01*
X712650D01*
Y451855D01*
Y451533D01*
X712327D01*
Y451210D01*
X712005D01*
Y450888D01*
Y450565D01*
X711682D01*
Y450243D01*
Y449921D01*
X711360D01*
Y449598D01*
X711037D01*
Y449276D01*
Y448953D01*
X710715D01*
Y448631D01*
X710393D01*
Y448308D01*
Y447986D01*
X710070D01*
Y447664D01*
X709748D01*
Y447341D01*
Y447019D01*
X709425D01*
Y446696D01*
Y446374D01*
X709103D01*
Y446051D01*
X708780D01*
Y445729D01*
Y445407D01*
X708458D01*
Y445084D01*
X708135D01*
Y444762D01*
Y444439D01*
X707813D01*
Y444117D01*
Y443794D01*
X707491D01*
Y443472D01*
X707168D01*
Y443150D01*
Y442827D01*
X706846D01*
Y442505D01*
X706523D01*
Y442182D01*
Y441860D01*
X706201D01*
Y441537D01*
X705878D01*
Y441215D01*
Y440892D01*
X705556D01*
Y440570D01*
Y440248D01*
X705234D01*
Y439925D01*
X704911D01*
Y439603D01*
Y439280D01*
X704589D01*
Y438958D01*
X704266D01*
Y438635D01*
Y438313D01*
X703944D01*
Y437991D01*
X703622D01*
Y437668D01*
X703299D01*
Y437991D01*
Y438313D01*
X702977D01*
Y438635D01*
Y438958D01*
Y439280D01*
X702654D01*
Y439603D01*
Y439925D01*
X702332D01*
Y440248D01*
Y440570D01*
Y440892D01*
X702009D01*
Y441215D01*
Y441537D01*
Y441860D01*
X701687D01*
Y442182D01*
Y442505D01*
Y442827D01*
X701364D01*
Y443150D01*
Y443472D01*
Y443794D01*
X701042D01*
Y444117D01*
Y444439D01*
Y444762D01*
Y445084D01*
X700720D01*
Y445407D01*
Y445729D01*
Y446051D01*
X700397D01*
Y446374D01*
Y446696D01*
Y447019D01*
Y447341D01*
Y447664D01*
X700075D01*
Y447986D01*
Y448308D01*
Y448631D01*
Y448953D01*
X699752D01*
Y449276D01*
Y449598D01*
Y449921D01*
Y450243D01*
Y450565D01*
Y450888D01*
X699430D01*
Y451210D01*
Y451533D01*
Y451855D01*
Y452178D01*
Y452500D01*
Y452822D01*
Y453145D01*
Y453467D01*
X699107D01*
Y453790D01*
Y454112D01*
Y454435D01*
Y454757D01*
Y455079D01*
Y455402D01*
Y455724D01*
Y456047D01*
Y456369D01*
Y456692D01*
X698785D01*
Y457014D01*
Y457337D01*
Y457659D01*
Y457981D01*
Y458304D01*
Y458626D01*
Y458949D01*
Y459271D01*
Y459594D01*
Y459916D01*
Y460238D01*
Y460561D01*
Y460883D01*
Y461206D01*
Y461528D01*
Y461851D01*
Y462173D01*
Y462495D01*
Y462818D01*
Y463140D01*
X699107D01*
Y463463D01*
Y463785D01*
Y464108D01*
Y464430D01*
Y464752D01*
Y465075D01*
Y465397D01*
Y465720D01*
Y466042D01*
Y466365D01*
X699430D01*
Y466687D01*
Y467009D01*
Y467332D01*
Y467654D01*
Y467977D01*
Y468299D01*
Y468621D01*
Y468944D01*
X699752D01*
Y469266D01*
Y469589D01*
Y469911D01*
Y470234D01*
Y470556D01*
Y470878D01*
X700075D01*
Y471201D01*
Y471523D01*
Y471846D01*
Y472168D01*
X700397D01*
Y472491D01*
Y472813D01*
Y473136D01*
Y473458D01*
X702009D01*
Y473780D01*
X703299D01*
Y474103D01*
X704911D01*
Y474425D01*
X706201D01*
Y474748D01*
X707813D01*
Y475070D01*
X709103D01*
Y475392D01*
X710393D01*
Y475715D01*
X712005D01*
Y476037D01*
X713294D01*
Y476360D01*
X714906D01*
Y476682D01*
X715874D01*
Y477005D01*
X717486D01*
Y477327D01*
X718776D01*
Y477650D01*
X720388D01*
Y477972D01*
X721677D01*
Y478294D01*
X722967D01*
Y478617D01*
X724579D01*
Y478939D01*
X725869D01*
Y479262D01*
X727481D01*
Y479584D01*
X728771D01*
Y479907D01*
X730061D01*
Y480229D01*
X730383D01*
Y479907D01*
D02*
G37*
G36*
X806154Y438635D02*
X805832D01*
Y438313D01*
Y437991D01*
X805509D01*
Y437668D01*
Y437346D01*
X805187D01*
Y437023D01*
Y436701D01*
Y436379D01*
X804865D01*
Y436056D01*
Y435734D01*
X804542D01*
Y435411D01*
Y435089D01*
X804220D01*
Y434766D01*
Y434444D01*
X803897D01*
Y434122D01*
Y433799D01*
X803575D01*
Y433477D01*
Y433154D01*
X803252D01*
Y432832D01*
X802930D01*
Y432509D01*
Y432187D01*
X802607D01*
Y431865D01*
Y431542D01*
X802285D01*
Y431220D01*
Y430897D01*
X801963D01*
Y430575D01*
X801640D01*
Y430252D01*
Y429930D01*
X801318D01*
Y429608D01*
X800995D01*
Y429285D01*
Y428963D01*
X800673D01*
Y428640D01*
X800350D01*
Y428318D01*
Y427995D01*
X800028D01*
Y427673D01*
X799706D01*
Y427351D01*
Y427028D01*
X799383D01*
Y426706D01*
X799061D01*
Y426383D01*
X798738D01*
Y426061D01*
Y425738D01*
X798416D01*
Y425416D01*
X798093D01*
Y425093D01*
X797771D01*
Y424771D01*
X797449D01*
Y424449D01*
Y424126D01*
X797126D01*
Y423804D01*
X796804D01*
Y423481D01*
X796481D01*
Y423159D01*
X796159D01*
Y422836D01*
X795836D01*
Y422514D01*
X795514D01*
Y422192D01*
Y421869D01*
X794869D01*
Y421547D01*
Y421224D01*
X794547D01*
Y420902D01*
X794224D01*
Y420579D01*
X793902D01*
Y420257D01*
X793579D01*
Y419935D01*
X793257D01*
Y419612D01*
X792935D01*
Y419290D01*
X792612D01*
Y418967D01*
X791967D01*
Y418645D01*
X791645D01*
Y418322D01*
X791322D01*
Y418000D01*
X791000D01*
Y417678D01*
X790678D01*
Y417355D01*
X790355D01*
Y417033D01*
X790033D01*
Y416710D01*
X789388D01*
Y416388D01*
X789065D01*
Y416065D01*
X788743D01*
Y415743D01*
X788098D01*
Y415421D01*
X787776D01*
Y415098D01*
X787453D01*
Y414776D01*
X786808D01*
Y414453D01*
X786486D01*
Y414131D01*
X786163D01*
Y413808D01*
X785519D01*
Y413486D01*
X785196D01*
Y413163D01*
X784551D01*
Y412841D01*
X783906D01*
Y412519D01*
X783584D01*
Y412196D01*
X782617D01*
Y412519D01*
X781972D01*
Y412841D01*
X781649D01*
Y413163D01*
X781005D01*
Y413486D01*
X780360D01*
Y413808D01*
X780037D01*
Y414131D01*
X779392D01*
Y414453D01*
X779070D01*
Y414776D01*
X778425D01*
Y415098D01*
X777780D01*
Y415421D01*
X777458D01*
Y415743D01*
X776813D01*
Y416065D01*
X776491D01*
Y416388D01*
X775846D01*
Y416710D01*
X775201D01*
Y417033D01*
X774878D01*
Y417355D01*
X774234D01*
Y417678D01*
X773911D01*
Y418000D01*
X773266D01*
Y418322D01*
X772944D01*
Y418645D01*
X772299D01*
Y418967D01*
X771654D01*
Y419290D01*
X771332D01*
Y419612D01*
X770687D01*
Y419935D01*
X770042D01*
Y420257D01*
X769720D01*
Y420579D01*
X769075D01*
Y420902D01*
X768752D01*
Y421224D01*
X768108D01*
Y421547D01*
X767463D01*
Y421869D01*
X767140D01*
Y422192D01*
X766495D01*
Y422514D01*
X766173D01*
Y422836D01*
X765528D01*
Y423159D01*
X764883D01*
Y423481D01*
X764561D01*
Y423804D01*
X763916D01*
Y424126D01*
X763593D01*
Y424449D01*
X762949D01*
Y424771D01*
X762304D01*
Y425093D01*
X761981D01*
Y425416D01*
X761336D01*
Y425738D01*
X761014D01*
Y426061D01*
X760369D01*
Y426383D01*
X760047D01*
Y426706D01*
X759402D01*
Y427028D01*
X758757D01*
Y427351D01*
X758435D01*
Y427673D01*
X757790D01*
Y427995D01*
X758757D01*
Y428318D01*
X760369D01*
Y428640D01*
X761981D01*
Y428963D01*
X763271D01*
Y429285D01*
X764561D01*
Y429608D01*
X765850D01*
Y429930D01*
X767463D01*
Y430252D01*
X768752D01*
Y430575D01*
X770364D01*
Y430897D01*
X771654D01*
Y431220D01*
X772944D01*
Y431542D01*
X774556D01*
Y431865D01*
X775846D01*
Y432187D01*
X777458D01*
Y432509D01*
X778748D01*
Y432832D01*
X780037D01*
Y433154D01*
X781327D01*
Y433477D01*
X782939D01*
Y433799D01*
X784229D01*
Y434122D01*
X785841D01*
Y434444D01*
X787131D01*
Y434766D01*
X788420D01*
Y435089D01*
X790033D01*
Y435411D01*
X791322D01*
Y435734D01*
X792935D01*
Y436056D01*
X794224D01*
Y436379D01*
X795514D01*
Y436701D01*
X796804D01*
Y437023D01*
X798416D01*
Y437346D01*
X800028D01*
Y437668D01*
X801318D01*
Y437991D01*
X802607D01*
Y438313D01*
X803897D01*
Y438635D01*
X805509D01*
Y438958D01*
X806154D01*
Y438635D01*
D02*
G37*
G36*
X723290Y456369D02*
Y456047D01*
Y455724D01*
Y455402D01*
X723612D01*
Y455079D01*
Y454757D01*
Y454435D01*
Y454112D01*
X723934D01*
Y453790D01*
Y453467D01*
Y453145D01*
Y452822D01*
Y452500D01*
X724257D01*
Y452178D01*
Y451855D01*
Y451533D01*
Y451210D01*
X724579D01*
Y450888D01*
Y450565D01*
Y450243D01*
Y449921D01*
Y449598D01*
X724902D01*
Y449276D01*
Y448953D01*
Y448631D01*
Y448308D01*
X725224D01*
Y447986D01*
Y447664D01*
Y447341D01*
Y447019D01*
X725547D01*
Y446696D01*
Y446374D01*
Y446051D01*
Y445729D01*
X725869D01*
Y445407D01*
Y445084D01*
Y444762D01*
Y444439D01*
Y444117D01*
X726191D01*
Y443794D01*
Y443472D01*
Y443150D01*
Y442827D01*
Y442505D01*
X726514D01*
Y442182D01*
Y441860D01*
Y441537D01*
Y441215D01*
X726836D01*
Y440892D01*
Y440570D01*
Y440248D01*
Y439925D01*
X727159D01*
Y439603D01*
Y439280D01*
Y438958D01*
Y438635D01*
X727481D01*
Y438313D01*
Y437991D01*
Y437668D01*
Y437346D01*
Y437023D01*
X727804D01*
Y436701D01*
Y436379D01*
Y436056D01*
Y435734D01*
X728126D01*
Y435411D01*
Y435089D01*
Y434766D01*
Y434444D01*
Y434122D01*
X728449D01*
Y433799D01*
Y433477D01*
Y433154D01*
Y432832D01*
X728771D01*
Y432509D01*
Y432187D01*
Y431865D01*
Y431542D01*
X729093D01*
Y431220D01*
Y430897D01*
Y430575D01*
Y430252D01*
Y429930D01*
X729416D01*
Y429608D01*
Y429285D01*
Y428963D01*
Y428640D01*
X729738D01*
Y428318D01*
Y427995D01*
Y427673D01*
Y427351D01*
Y427028D01*
X730061D01*
Y426706D01*
Y426383D01*
Y426061D01*
Y425738D01*
X730383D01*
Y425416D01*
Y425093D01*
Y424771D01*
Y424449D01*
X730705D01*
Y424126D01*
Y423804D01*
Y423481D01*
Y423159D01*
X731028D01*
Y422836D01*
Y422514D01*
Y422192D01*
Y421869D01*
Y421547D01*
X731350D01*
Y421224D01*
Y420902D01*
Y420579D01*
Y420257D01*
X731673D01*
Y419935D01*
Y419612D01*
Y419290D01*
Y418967D01*
Y418645D01*
X731995D01*
Y418322D01*
Y418000D01*
Y417678D01*
Y417355D01*
X732318D01*
Y417033D01*
Y416710D01*
Y416388D01*
Y416065D01*
X732640D01*
Y415743D01*
Y415421D01*
Y415098D01*
Y414776D01*
Y414453D01*
X732963D01*
Y414131D01*
Y413808D01*
Y413486D01*
Y413163D01*
X733285D01*
Y412841D01*
Y412519D01*
Y412196D01*
Y411874D01*
Y411551D01*
X733607D01*
Y411229D01*
Y410906D01*
Y410584D01*
Y410262D01*
X733930D01*
Y409939D01*
Y409617D01*
Y409294D01*
Y408972D01*
X734252D01*
Y408650D01*
Y408327D01*
Y408005D01*
X733930D01*
Y408327D01*
X732963D01*
Y408650D01*
X732318D01*
Y408972D01*
X731673D01*
Y409294D01*
X731028D01*
Y409617D01*
X730383D01*
Y409939D01*
X729416D01*
Y410262D01*
X729093D01*
Y410584D01*
X728449D01*
Y410906D01*
X727804D01*
Y411229D01*
X727159D01*
Y411551D01*
X726514D01*
Y411874D01*
X726191D01*
Y412196D01*
X725547D01*
Y412519D01*
X724902D01*
Y412841D01*
X724579D01*
Y413163D01*
X723934D01*
Y413486D01*
X723612D01*
Y413808D01*
X722967D01*
Y414131D01*
X722645D01*
Y414453D01*
X722000D01*
Y414776D01*
X721677D01*
Y415098D01*
X721355D01*
Y415421D01*
X720710D01*
Y415743D01*
X720388D01*
Y416065D01*
X720065D01*
Y416388D01*
X719420D01*
Y416710D01*
X719098D01*
Y417033D01*
X718776D01*
Y417355D01*
X718453D01*
Y417678D01*
X718131D01*
Y418000D01*
X717486D01*
Y418322D01*
X717163D01*
Y418645D01*
X716841D01*
Y418967D01*
X716519D01*
Y419290D01*
X716196D01*
Y419612D01*
X715874D01*
Y419935D01*
X715551D01*
Y420257D01*
X715229D01*
Y420579D01*
X714906D01*
Y420902D01*
X714584D01*
Y421224D01*
X714262D01*
Y421547D01*
X713939D01*
Y421869D01*
X713617D01*
Y422192D01*
X713294D01*
Y422514D01*
X712972D01*
Y422836D01*
X712650D01*
Y423159D01*
Y423481D01*
X712327D01*
Y423804D01*
X712005D01*
Y424126D01*
X711682D01*
Y424449D01*
X711360D01*
Y424771D01*
X711037D01*
Y425093D01*
Y425416D01*
X710715D01*
Y425738D01*
X710393D01*
Y426061D01*
X710070D01*
Y426383D01*
X709748D01*
Y426706D01*
Y427028D01*
X709425D01*
Y427351D01*
X709103D01*
Y427673D01*
Y427995D01*
X708780D01*
Y428318D01*
X708458D01*
Y428640D01*
Y428963D01*
X708135D01*
Y429285D01*
X707813D01*
Y429608D01*
Y429930D01*
X707491D01*
Y430252D01*
X707168D01*
Y430575D01*
Y430897D01*
Y431220D01*
Y431542D01*
X707491D01*
Y431865D01*
Y432187D01*
X707813D01*
Y432509D01*
X708135D01*
Y432832D01*
Y433154D01*
X708458D01*
Y433477D01*
X708780D01*
Y433799D01*
Y434122D01*
X709103D01*
Y434444D01*
Y434766D01*
X709425D01*
Y435089D01*
X709748D01*
Y435411D01*
Y435734D01*
X710070D01*
Y436056D01*
X710393D01*
Y436379D01*
Y436701D01*
X710715D01*
Y437023D01*
X711037D01*
Y437346D01*
Y437668D01*
X711360D01*
Y437991D01*
Y438313D01*
X711682D01*
Y438635D01*
X712005D01*
Y438958D01*
Y439280D01*
X712327D01*
Y439603D01*
X712650D01*
Y439925D01*
Y440248D01*
X712972D01*
Y440570D01*
Y440892D01*
X713294D01*
Y441215D01*
X713617D01*
Y441537D01*
Y441860D01*
X713939D01*
Y442182D01*
X714262D01*
Y442505D01*
Y442827D01*
X714584D01*
Y443150D01*
Y443472D01*
X714906D01*
Y443794D01*
X715229D01*
Y444117D01*
Y444439D01*
X715551D01*
Y444762D01*
Y445084D01*
X715874D01*
Y445407D01*
X716196D01*
Y445729D01*
Y446051D01*
X716519D01*
Y446374D01*
X716841D01*
Y446696D01*
Y447019D01*
X717163D01*
Y447341D01*
X717486D01*
Y447664D01*
Y447986D01*
X717808D01*
Y448308D01*
Y448631D01*
X718131D01*
Y448953D01*
X718453D01*
Y449276D01*
Y449598D01*
X718776D01*
Y449921D01*
X719098D01*
Y450243D01*
Y450565D01*
X719420D01*
Y450888D01*
Y451210D01*
X719743D01*
Y451533D01*
X720065D01*
Y451855D01*
Y452178D01*
X720388D01*
Y452500D01*
X720710D01*
Y452822D01*
Y453145D01*
X721033D01*
Y453467D01*
Y453790D01*
X721355D01*
Y454112D01*
X721677D01*
Y454435D01*
Y454757D01*
X722000D01*
Y455079D01*
X722322D01*
Y455402D01*
Y455724D01*
X722645D01*
Y456047D01*
Y456369D01*
X722967D01*
Y456692D01*
X723290D01*
Y456369D01*
D02*
G37*
G36*
X734897Y434766D02*
X735220D01*
Y434444D01*
X735864D01*
Y434122D01*
X736187D01*
Y433799D01*
X736832D01*
Y433477D01*
X737154D01*
Y433154D01*
X737799D01*
Y432832D01*
X738444D01*
Y432509D01*
X738766D01*
Y432187D01*
X739411D01*
Y431865D01*
X739734D01*
Y431542D01*
X740378D01*
Y431220D01*
X741023D01*
Y430897D01*
X741346D01*
Y430575D01*
X741991D01*
Y430252D01*
X742313D01*
Y429930D01*
X742958D01*
Y429608D01*
X743280D01*
Y429285D01*
X743925D01*
Y428963D01*
X744570D01*
Y428640D01*
X744893D01*
Y428318D01*
X745537D01*
Y427995D01*
X745860D01*
Y427673D01*
X746505D01*
Y427351D01*
X747150D01*
Y427028D01*
X747472D01*
Y426706D01*
X748117D01*
Y426383D01*
X748439D01*
Y426061D01*
X749084D01*
Y425738D01*
X749729D01*
Y425416D01*
X750051D01*
Y425093D01*
X750696D01*
Y424771D01*
X751019D01*
Y424449D01*
X751664D01*
Y424126D01*
X752308D01*
Y423804D01*
X752631D01*
Y423481D01*
X753276D01*
Y423159D01*
X753598D01*
Y422836D01*
X754243D01*
Y422514D01*
X754888D01*
Y422192D01*
X755210D01*
Y421869D01*
X755855D01*
Y421547D01*
X756178D01*
Y421224D01*
X756822D01*
Y420902D01*
X757145D01*
Y420579D01*
X757790D01*
Y420257D01*
X758435D01*
Y419935D01*
X758757D01*
Y419612D01*
X759402D01*
Y419290D01*
X759724D01*
Y418967D01*
X760369D01*
Y418645D01*
X761014D01*
Y418322D01*
X761336D01*
Y418000D01*
X761981D01*
Y417678D01*
X762304D01*
Y417355D01*
X762949D01*
Y417033D01*
X763593D01*
Y416710D01*
X763916D01*
Y416388D01*
X764561D01*
Y416065D01*
X765206D01*
Y415743D01*
X765528D01*
Y415421D01*
X766173D01*
Y415098D01*
X766495D01*
Y414776D01*
X767140D01*
Y414453D01*
X767463D01*
Y414131D01*
X768108D01*
Y413808D01*
X768752D01*
Y413486D01*
X769075D01*
Y413163D01*
X769720D01*
Y412841D01*
X770042D01*
Y412519D01*
X770687D01*
Y412196D01*
X771009D01*
Y411874D01*
X771654D01*
Y411551D01*
X772299D01*
Y411229D01*
X772622D01*
Y410906D01*
X773266D01*
Y410584D01*
X773589D01*
Y410262D01*
X774234D01*
Y409939D01*
X774878D01*
Y409617D01*
X775201D01*
Y409294D01*
X775846D01*
Y408972D01*
X776491D01*
Y408650D01*
X775846D01*
Y408327D01*
X775201D01*
Y408005D01*
X774234D01*
Y407682D01*
X773589D01*
Y407360D01*
X772622D01*
Y407037D01*
X771332D01*
Y406715D01*
X770364D01*
Y406393D01*
X769397D01*
Y406070D01*
X768108D01*
Y405748D01*
X766818D01*
Y405425D01*
X765528D01*
Y405103D01*
X763593D01*
Y404780D01*
X761014D01*
Y404458D01*
X757790D01*
Y404136D01*
X751019D01*
Y404458D01*
X747794D01*
Y404780D01*
X745537D01*
Y405103D01*
X743603D01*
Y405425D01*
X742313D01*
Y405748D01*
X741346D01*
Y406070D01*
X741023D01*
Y406393D01*
Y406715D01*
Y407037D01*
Y407360D01*
Y407682D01*
X740701D01*
Y408005D01*
Y408327D01*
Y408650D01*
Y408972D01*
X740378D01*
Y409294D01*
Y409617D01*
Y409939D01*
Y410262D01*
Y410584D01*
X740056D01*
Y410906D01*
Y411229D01*
Y411551D01*
Y411874D01*
X739734D01*
Y412196D01*
Y412519D01*
Y412841D01*
Y413163D01*
X739411D01*
Y413486D01*
Y413808D01*
Y414131D01*
Y414453D01*
Y414776D01*
X739089D01*
Y415098D01*
Y415421D01*
Y415743D01*
Y416065D01*
X738766D01*
Y416388D01*
Y416710D01*
Y417033D01*
Y417355D01*
X738444D01*
Y417678D01*
Y418000D01*
Y418322D01*
Y418645D01*
X738121D01*
Y418967D01*
Y419290D01*
Y419612D01*
Y419935D01*
Y420257D01*
X737799D01*
Y420579D01*
Y420902D01*
Y421224D01*
Y421547D01*
X737477D01*
Y421869D01*
Y422192D01*
Y422514D01*
Y422836D01*
Y423159D01*
X737154D01*
Y423481D01*
Y423804D01*
Y424126D01*
Y424449D01*
X736832D01*
Y424771D01*
Y425093D01*
Y425416D01*
Y425738D01*
X736509D01*
Y426061D01*
Y426383D01*
Y426706D01*
Y427028D01*
Y427351D01*
X736187D01*
Y427673D01*
Y427995D01*
Y428318D01*
Y428640D01*
X735864D01*
Y428963D01*
Y429285D01*
Y429608D01*
Y429930D01*
Y430252D01*
X735542D01*
Y430575D01*
Y430897D01*
Y431220D01*
X735220D01*
Y431542D01*
Y431865D01*
Y432187D01*
Y432509D01*
Y432832D01*
X734897D01*
Y433154D01*
Y433477D01*
Y433799D01*
Y434122D01*
X734575D01*
Y434444D01*
Y434766D01*
Y435089D01*
X734897D01*
Y434766D01*
D02*
G37*
D53*
X714000Y156500D02*
G03*
X714000Y156500I-1250J0D01*
G01*
D54*
X457050Y519000D02*
G03*
X457050Y519000I-1000J0D01*
G01*
X729080Y340808D02*
G03*
X729080Y340808I-1000J0D01*
G01*
X471480Y501000D02*
G03*
X471480Y501000I-1000J0D01*
G01*
X541000Y608520D02*
G03*
X541000Y608520I-1000J0D01*
G01*
X700000Y175000D02*
X707250D01*
X792750D02*
X800000D01*
Y267750D02*
Y275000D01*
Y175000D02*
Y182250D01*
X700000Y275000D02*
X707250D01*
X792750D02*
X800000D01*
X700000Y267750D02*
Y275000D01*
Y175000D02*
Y182250D01*
X586730Y81190D02*
X589270D01*
X586730Y88810D02*
X589270D01*
X586730Y63810D02*
X589270D01*
X586730Y56190D02*
X589270D01*
X586730Y29190D02*
X589270D01*
X586730Y36810D02*
X589270D01*
X842500Y65300D02*
X969500D01*
X842500Y52600D02*
Y65300D01*
Y52600D02*
X969500D01*
Y65300D01*
X250700Y40100D02*
X263400D01*
Y217900D01*
X250700D02*
X263400D01*
Y48567D02*
X297267D01*
X301500Y52800D01*
X297267Y57033D02*
X301500Y52800D01*
X263400Y57033D02*
X297267D01*
X263400Y73967D02*
X297267D01*
X301500Y78200D01*
X297267Y82433D02*
X301500Y78200D01*
X263400Y82433D02*
X297267D01*
X263400Y99367D02*
X297267D01*
X301500Y103600D01*
X297267Y107833D02*
X301500Y103600D01*
X263400Y107833D02*
X297267D01*
X263400Y124767D02*
X297267D01*
X301500Y129000D01*
X297267Y133233D02*
X301500Y129000D01*
X263400Y133233D02*
X297267D01*
X263400Y150167D02*
X297267D01*
X301500Y154400D01*
X297267Y158633D02*
X301500Y154400D01*
X263400Y158633D02*
X297267D01*
X263400Y175567D02*
X297267D01*
X301500Y179800D01*
X297267Y184033D02*
X301500Y179800D01*
X263400Y184033D02*
X297267D01*
X263400Y200967D02*
X297267D01*
X301500Y205200D01*
X297267Y209433D02*
X301500Y205200D01*
X263400Y209433D02*
X297267D01*
X250700Y44333D02*
X254933Y40100D01*
X250700D02*
Y217900D01*
X1040300Y78100D02*
X1065700D01*
Y27300D02*
Y78100D01*
X1040300Y27300D02*
X1065700D01*
X1040300D02*
Y78100D01*
D55*
X1086890Y43400D02*
G03*
X1086890Y43400I-2540J0D01*
G01*
D56*
X976868Y511680D02*
G03*
X976868Y511680I-3048J0D01*
G01*
X421377Y536230D02*
X430770D01*
X411127Y551770D02*
X418873D01*
X399230Y536230D02*
Y543671D01*
Y536230D02*
X408623D01*
X430770D02*
Y543671D01*
X422770Y591377D02*
Y600770D01*
X407230Y581127D02*
Y588873D01*
X415330Y569230D02*
X422770D01*
Y578623D01*
X415330Y600770D02*
X422770D01*
X615230Y78230D02*
Y87623D01*
X630770Y90127D02*
Y97873D01*
X615230Y109770D02*
X622671D01*
X615230Y100377D02*
Y109770D01*
Y78230D02*
X622671D01*
X615230Y44230D02*
Y53623D01*
X630770Y56127D02*
Y63873D01*
X615230Y75770D02*
X622671D01*
X615230Y66377D02*
Y75770D01*
Y44230D02*
X622671D01*
X965000Y561250D02*
X1069000D01*
Y502750D02*
Y561250D01*
X965000Y502750D02*
X1069000D01*
X965000D02*
Y561250D01*
X615230Y10230D02*
Y19623D01*
X630770Y22127D02*
Y29873D01*
X615230Y41770D02*
X622671D01*
X615230Y32377D02*
Y41770D01*
Y10230D02*
X622671D01*
D57*
X660598Y607300D02*
G03*
X660598Y607300I-800J0D01*
G01*
D58*
X462190Y459000D02*
Y499000D01*
X411810Y459000D02*
Y499000D01*
X1082500Y48000D02*
Y226000D01*
X1089100Y62200D02*
Y211800D01*
Y62200D02*
X1335300D01*
Y211800D01*
X1089100D02*
X1335300D01*
X730555Y348232D02*
X734514Y352192D01*
X747808Y365486D02*
X751768Y369445D01*
X765486Y347808D02*
X769445Y351768D01*
X748232Y330555D02*
X752192Y334514D01*
X496500Y507335D02*
Y511500D01*
X533500D01*
Y495785D02*
Y511500D01*
X496500Y444500D02*
Y448665D01*
Y444500D02*
X533500D01*
Y460215D01*
X546335Y582500D02*
X550500D01*
Y545500D02*
Y582500D01*
X534785Y545500D02*
X550500D01*
X483500Y582500D02*
X487665D01*
X483500Y545500D02*
Y582500D01*
Y545500D02*
X499215D01*
X673398Y636300D02*
Y661100D01*
X596198Y636300D02*
Y661100D01*
X655798Y613800D02*
X666898D01*
X602697D02*
X613797D01*
X673398Y691100D02*
Y705800D01*
X596198D02*
X673398D01*
X596198Y691100D02*
Y705800D01*
D59*
X1109926Y522080D02*
X1449926D01*
X1109926Y258080D02*
Y522080D01*
Y258080D02*
X1449926D01*
Y522080D01*
X50074Y257920D02*
X390074D01*
Y521920D01*
X50074D02*
X390074D01*
X50074Y257920D02*
Y521920D01*
X569780Y92620D02*
Y93890D01*
X563430D02*
X569780D01*
Y76110D02*
Y92620D01*
X563430Y76110D02*
X569780D01*
Y67620D02*
Y68890D01*
X563430D02*
X569780D01*
Y51110D02*
Y67620D01*
X563430Y51110D02*
X569780D01*
Y41620D02*
Y42890D01*
X563430D02*
X569780D01*
Y25110D02*
Y41620D01*
X563430Y25110D02*
X569780D01*
X1020517Y387716D02*
X1049727D01*
X1020517Y328026D02*
X1049727D01*
X1004847Y327946D02*
Y387946D01*
X1064847Y327946D02*
Y387946D01*
X958780Y659620D02*
Y660890D01*
X952430D02*
X958780D01*
Y643110D02*
Y659620D01*
X952430Y643110D02*
X958780D01*
Y635620D02*
Y636890D01*
X952430D02*
X958780D01*
Y619110D02*
Y635620D01*
X952430Y619110D02*
X958780D01*
X1181220Y6110D02*
Y7380D01*
Y6110D02*
X1187570D01*
X1181220Y7380D02*
Y23890D01*
X1187570D01*
X1319780Y22620D02*
Y23890D01*
X1313430D02*
X1319780D01*
Y6110D02*
Y22620D01*
X1313430Y6110D02*
X1319780D01*
X936268Y328282D02*
X965478D01*
X936268Y387972D02*
X965478D01*
X981148Y328052D02*
Y388052D01*
X921148Y328052D02*
Y388052D01*
X551280Y389620D02*
Y390890D01*
X544930D02*
X551280D01*
Y373110D02*
Y389620D01*
X544930Y373110D02*
X551280D01*
X710227Y380365D02*
X728182Y376774D01*
X717409Y387547D02*
X721000Y369592D01*
Y391138D02*
X731773Y380365D01*
X1040540Y84540D02*
Y99775D01*
X1048158D01*
X1050697Y97236D01*
Y92157D01*
X1048158Y89618D01*
X1040540D01*
X1045618D02*
X1050697Y84540D01*
X1055775Y99775D02*
X1065932Y84540D01*
Y99775D02*
X1055775Y84540D01*
X340540Y216975D02*
Y203646D01*
X347205Y196981D01*
X353869Y203646D01*
Y216975D01*
X373863Y213643D02*
X370530Y216975D01*
X363866D01*
X360534Y213643D01*
Y200314D01*
X363866Y196981D01*
X370530D01*
X373863Y200314D01*
X393856Y213643D02*
X390524Y216975D01*
X383859D01*
X380527Y213643D01*
Y200314D01*
X383859Y196981D01*
X390524D01*
X393856Y200314D01*
X353869Y183554D02*
X350537Y186887D01*
X343872D01*
X340540Y183554D01*
Y170225D01*
X343872Y166893D01*
X350537D01*
X353869Y170225D01*
Y176890D01*
X347205D01*
X360534Y166893D02*
Y186887D01*
X373863Y166893D01*
Y186887D01*
X380527D02*
Y166893D01*
X390524D01*
X393856Y170225D01*
Y183554D01*
X390524Y186887D01*
X380527D01*
X340540Y136805D02*
Y156798D01*
X347205Y150134D01*
X353869Y156798D01*
Y136805D01*
X370530Y156798D02*
X363866D01*
X360534Y153466D01*
Y140137D01*
X363866Y136805D01*
X370530D01*
X373863Y140137D01*
Y153466D01*
X370530Y156798D01*
X393856Y153466D02*
X390524Y156798D01*
X383859D01*
X380527Y153466D01*
Y150134D01*
X383859Y146802D01*
X390524D01*
X393856Y143469D01*
Y140137D01*
X390524Y136805D01*
X383859D01*
X380527Y140137D01*
X400521Y156798D02*
X407185D01*
X403853D01*
Y136805D01*
X400521D01*
X407185D01*
X353869Y123378D02*
X350537Y126710D01*
X343872D01*
X340540Y123378D01*
Y110049D01*
X343872Y106717D01*
X350537D01*
X353869Y110049D01*
X373863Y123378D02*
X370530Y126710D01*
X363866D01*
X360534Y123378D01*
Y120046D01*
X363866Y116713D01*
X370530D01*
X373863Y113381D01*
Y110049D01*
X370530Y106717D01*
X363866D01*
X360534Y110049D01*
X340540Y96622D02*
Y76628D01*
X350537D01*
X353869Y79960D01*
Y93290D01*
X350537Y96622D01*
X340540D01*
X373863Y93290D02*
X370530Y96622D01*
X363866D01*
X360534Y93290D01*
Y79960D01*
X363866Y76628D01*
X370530D01*
X373863Y79960D01*
X340540Y46540D02*
Y66533D01*
X350537D01*
X353869Y63201D01*
Y56537D01*
X350537Y53204D01*
X340540D01*
X347205D02*
X353869Y46540D01*
X373863Y63201D02*
X370530Y66533D01*
X363866D01*
X360534Y63201D01*
Y59869D01*
X363866Y56537D01*
X370530D01*
X373863Y53204D01*
Y49872D01*
X370530Y46540D01*
X363866D01*
X360534Y49872D01*
X380527Y66533D02*
X393856D01*
X387192D01*
Y46540D01*
X136697Y638992D02*
X134157Y641531D01*
X129079D01*
X126540Y638992D01*
Y628835D01*
X129079Y626296D01*
X134157D01*
X136697Y628835D01*
X144314Y626296D02*
X149393D01*
X151932Y628835D01*
Y633914D01*
X149393Y636453D01*
X144314D01*
X141775Y633914D01*
Y628835D01*
X144314Y626296D01*
X157010D02*
Y636453D01*
X164628D01*
X167167Y633914D01*
Y626296D01*
X174784Y638992D02*
Y636453D01*
X172245D01*
X177324D01*
X174784D01*
Y628835D01*
X177324Y626296D01*
X184941Y636453D02*
Y626296D01*
Y631375D01*
X187480Y633914D01*
X190019Y636453D01*
X192559D01*
X202715Y626296D02*
X207794D01*
X210333Y628835D01*
Y633914D01*
X207794Y636453D01*
X202715D01*
X200176Y633914D01*
Y628835D01*
X202715Y626296D01*
X215411D02*
X220490D01*
X217950D01*
Y641531D01*
X215411D01*
X228107Y626296D02*
X233186D01*
X230646D01*
Y641531D01*
X228107D01*
X248421Y626296D02*
X243342D01*
X240803Y628835D01*
Y633914D01*
X243342Y636453D01*
X248421D01*
X250960Y633914D01*
Y631375D01*
X240803D01*
X256038Y636453D02*
Y626296D01*
Y631375D01*
X258577Y633914D01*
X261116Y636453D01*
X263656D01*
X126540Y601918D02*
Y617153D01*
X131618Y612075D01*
X136697Y617153D01*
Y601918D01*
X144314Y612075D02*
X149393D01*
X151932Y609536D01*
Y601918D01*
X144314D01*
X141775Y604457D01*
X144314Y606996D01*
X151932D01*
X157010Y612075D02*
Y601918D01*
Y606996D01*
X159549Y609536D01*
X162089Y612075D01*
X164628D01*
X182402D02*
X174784D01*
X172245Y609536D01*
Y604457D01*
X174784Y601918D01*
X182402D01*
X190019D02*
X195098D01*
X197637Y604457D01*
Y609536D01*
X195098Y612075D01*
X190019D01*
X187480Y609536D01*
Y604457D01*
X190019Y601918D01*
X228107Y614614D02*
X225568Y617153D01*
X220490D01*
X217950Y614614D01*
Y612075D01*
X220490Y609536D01*
X225568D01*
X228107Y606996D01*
Y604457D01*
X225568Y601918D01*
X220490D01*
X217950Y604457D01*
X235725Y614614D02*
Y612075D01*
X233186D01*
X238264D01*
X235725D01*
Y604457D01*
X238264Y601918D01*
X248421Y612075D02*
X253499D01*
X256038Y609536D01*
Y601918D01*
X248421D01*
X245881Y604457D01*
X248421Y606996D01*
X256038D01*
X261117Y612075D02*
Y604457D01*
X263656Y601918D01*
X271273D01*
Y612075D01*
X276352Y617153D02*
Y601918D01*
X283969D01*
X286508Y604457D01*
Y606996D01*
Y609536D01*
X283969Y612075D01*
X276352D01*
X299204Y601918D02*
X294126D01*
X291587Y604457D01*
Y609536D01*
X294126Y612075D01*
X299204D01*
X301743Y609536D01*
Y606996D01*
X291587D01*
X306822Y612075D02*
Y601918D01*
Y606996D01*
X309361Y609536D01*
X311900Y612075D01*
X314439D01*
X136697Y577540D02*
X126540D01*
X136697Y587697D01*
Y590236D01*
X134157Y592775D01*
X129079D01*
X126540Y590236D01*
X141775D02*
X144314Y592775D01*
X149393D01*
X151932Y590236D01*
Y580079D01*
X149393Y577540D01*
X144314D01*
X141775Y580079D01*
Y590236D01*
X157010Y577540D02*
X167167Y587697D01*
X182402Y577540D02*
X172245D01*
X182402Y587697D01*
Y590236D01*
X179863Y592775D01*
X174784D01*
X172245Y590236D01*
X187480Y577540D02*
X192559D01*
X190019D01*
Y592775D01*
X187480Y590236D01*
X774365Y389773D02*
X772569Y387977D01*
Y380796D01*
X779751Y380796D01*
X781547Y382591D01*
X772569Y380796D02*
X767183Y375409D01*
X785138Y379000D02*
X774365Y368227D01*
X1040540Y22775D02*
X1050697D01*
X1045618D01*
Y7540D01*
X1055775Y22775D02*
X1065932Y7540D01*
Y22775D02*
X1055775Y7540D01*
X912540Y429775D02*
Y414540D01*
X920157Y429775D02*
Y414540D01*
X943010Y429775D02*
Y417079D01*
X945549Y414540D01*
X950628D01*
X953167Y417079D01*
Y429775D01*
X968402Y427236D02*
X965863Y429775D01*
X960784D01*
X958245Y427236D01*
Y417079D01*
X960784Y414540D01*
X965863D01*
X968402Y417079D01*
X988715Y429775D02*
Y414540D01*
X996333Y429775D02*
Y414540D01*
X1003950Y429775D02*
Y414540D01*
X1014107D01*
X1026803Y429775D02*
X1021725D01*
X1019185Y427236D01*
Y417079D01*
X1021725Y414540D01*
X1026803D01*
X1029342Y417079D01*
Y427236D01*
X1026803Y429775D01*
X1034421Y414540D02*
Y429775D01*
X1042038D01*
X1044577Y427236D01*
Y422158D01*
X1042038Y419618D01*
X1034421D01*
X1039499D02*
X1044577Y414540D01*
X1049656D02*
Y424697D01*
X1054734Y429775D01*
X1059812Y424697D01*
Y414540D01*
Y422158D01*
X1049656D01*
X1064891Y429775D02*
Y414540D01*
X1072508Y429775D02*
Y414540D01*
X115697Y69236D02*
X113158Y71775D01*
X108079D01*
X105540Y69236D01*
Y66697D01*
X108079Y64158D01*
X113158D01*
X115697Y61618D01*
Y59079D01*
X113158Y56540D01*
X108079D01*
X105540Y59079D01*
X120775Y71775D02*
Y56540D01*
X125853Y61618D01*
X130932Y56540D01*
Y71775D01*
X136010D02*
X141088D01*
X138549D01*
Y56540D01*
X136010D01*
X141088D01*
X148706Y71775D02*
X158863D01*
X153784D01*
Y56540D01*
X174098Y69236D02*
X171559Y71775D01*
X166480D01*
X163941Y69236D01*
Y59079D01*
X166480Y56540D01*
X171559D01*
X174098Y59079D01*
X179176Y71775D02*
Y56540D01*
Y64158D01*
X189333D01*
Y71775D01*
Y56540D01*
X512540Y78296D02*
Y88453D01*
X517618Y93531D01*
X522697Y88453D01*
Y78296D01*
Y85914D01*
X512540D01*
Y69153D02*
Y53918D01*
X520158D01*
X522697Y56457D01*
Y58996D01*
X520158Y61536D01*
X512540D01*
X520158D01*
X522697Y64075D01*
Y66614D01*
X520158Y69153D01*
X512540D01*
X522697Y42236D02*
X520158Y44775D01*
X515079D01*
X512540Y42236D01*
Y32079D01*
X515079Y29540D01*
X520158D01*
X522697Y32079D01*
X564540Y387236D02*
X567079Y389775D01*
X572158D01*
X574697Y387236D01*
Y384697D01*
X572158Y382158D01*
X569618D01*
X572158D01*
X574697Y379618D01*
Y377079D01*
X572158Y374540D01*
X567079D01*
X564540Y377079D01*
X579775Y374540D02*
Y377079D01*
X582314D01*
Y374540D01*
X579775D01*
X592471Y387236D02*
X595010Y389775D01*
X600089D01*
X602628Y387236D01*
Y384697D01*
X600089Y382158D01*
X597549D01*
X600089D01*
X602628Y379618D01*
Y377079D01*
X600089Y374540D01*
X595010D01*
X592471Y377079D01*
X607706Y389775D02*
Y379618D01*
X612784Y374540D01*
X617863Y379618D01*
Y389775D01*
X968540Y644918D02*
Y660153D01*
X976158D01*
X978697Y657614D01*
Y652536D01*
X976158Y649996D01*
X968540D01*
X973618D02*
X978697Y644918D01*
X983775Y660153D02*
X993932Y644918D01*
Y660153D02*
X983775Y644918D01*
X968540Y635775D02*
X978697D01*
X973618D01*
Y620540D01*
X983775Y635775D02*
X993932Y620540D01*
Y635775D02*
X983775Y620540D01*
X897540Y285775D02*
Y270540D01*
X905157Y285775D02*
Y270540D01*
X912775D02*
Y285775D01*
X920393D01*
X922932Y283236D01*
Y278158D01*
X920393Y275618D01*
X912775D01*
X917853D02*
X922932Y270540D01*
X938167Y285775D02*
X928010D01*
Y270540D01*
X938167D01*
X928010Y278158D02*
X933089D01*
X953402Y283236D02*
X950863Y285775D01*
X945784D01*
X943245Y283236D01*
Y280697D01*
X945784Y278158D01*
X950863D01*
X953402Y275618D01*
Y273079D01*
X950863Y270540D01*
X945784D01*
X943245Y273079D01*
X968637Y285775D02*
X958480D01*
Y270540D01*
X968637D01*
X958480Y278158D02*
X963559D01*
X973715Y285775D02*
X983872D01*
X978794D01*
Y270540D01*
X988950Y285775D02*
Y270540D01*
X996568Y285775D02*
Y270540D01*
X1004185D02*
Y285775D01*
X1011803D01*
X1014342Y283236D01*
Y278158D01*
X1011803Y275618D01*
X1004185D01*
X1009264D02*
X1014342Y270540D01*
X1029577Y285775D02*
X1019421D01*
Y270540D01*
X1029577D01*
X1019421Y278158D02*
X1024499D01*
X1044812Y283236D02*
X1042273Y285775D01*
X1037195D01*
X1034656Y283236D01*
Y280697D01*
X1037195Y278158D01*
X1042273D01*
X1044812Y275618D01*
Y273079D01*
X1042273Y270540D01*
X1037195D01*
X1034656Y273079D01*
X1060047Y285775D02*
X1049891D01*
Y270540D01*
X1060047D01*
X1049891Y278158D02*
X1054969D01*
X1065126Y285775D02*
X1075283D01*
X1070204D01*
Y270540D01*
X1080361Y285775D02*
Y270540D01*
X1087978Y285775D02*
Y270540D01*
X850713Y6540D02*
X860869D01*
X865948Y11618D01*
X860869Y16697D01*
X850713D01*
X853252Y31932D02*
X850713Y29393D01*
Y24314D01*
X853252Y21775D01*
X863409D01*
X865948Y24314D01*
Y29393D01*
X863409Y31932D01*
X853252Y47167D02*
X850713Y44628D01*
Y39549D01*
X853252Y37010D01*
X863409D01*
X865948Y39549D01*
Y44628D01*
X863409Y47167D01*
X875091Y6540D02*
X890326D01*
Y14158D01*
X887787Y16697D01*
X877630D01*
X875091Y14158D01*
Y6540D01*
Y21775D02*
Y26853D01*
Y24314D01*
X890326D01*
Y21775D01*
Y26853D01*
X875091Y42088D02*
Y37010D01*
X877630Y34471D01*
X887787D01*
X890326Y37010D01*
Y42088D01*
X887787Y44628D01*
X877630D01*
X875091Y42088D01*
X902008Y16697D02*
X899469Y14158D01*
Y9079D01*
X902008Y6540D01*
X912165D01*
X914704Y9079D01*
Y14158D01*
X912165Y16697D01*
X899469Y21775D02*
X914704D01*
Y31932D01*
X899469Y37010D02*
X914704D01*
X909625D01*
X899469Y47167D01*
X907086Y39549D01*
X914704Y47167D01*
X939082Y6540D02*
X923847D01*
Y14158D01*
X926386Y16697D01*
X931464D01*
X934004Y14158D01*
Y6540D01*
Y11618D02*
X939082Y16697D01*
X926386Y31932D02*
X923847Y29393D01*
Y24314D01*
X926386Y21775D01*
X928925D01*
X931464Y24314D01*
Y29393D01*
X934004Y31932D01*
X936543D01*
X939082Y29393D01*
Y24314D01*
X936543Y21775D01*
X923847Y37010D02*
Y47167D01*
Y42088D01*
X939082D01*
X950764Y16697D02*
X948225Y14158D01*
Y9079D01*
X950764Y6540D01*
X960921D01*
X963460Y9079D01*
Y14158D01*
X960921Y16697D01*
X955843D01*
Y11618D01*
X963460Y21775D02*
X948225D01*
X963460Y31932D01*
X948225D01*
Y37010D02*
X963460D01*
Y44628D01*
X960921Y47167D01*
X950764D01*
X948225Y44628D01*
Y37010D01*
%TF.MD5,e3196999351c48c2e5c8d514afd0477f*%
M02*
