%TF.GenerationSoftware,Altium Limited,Altium NEXUS,2.1.9 (83)*%
G04 Layer_Physical_Order=2*
G04 Layer_Color=16711680*
%FSLAX44Y44*%
%MOMM*%
%TF.FileFunction,Copper,L2,Bot,Signal*%
%TF.Part,Single*%
G01*
G75*
%TA.AperFunction,SMDPad,CuDef*%
%ADD35R,3.0000X3.0000*%
%TA.AperFunction,Conductor*%
%ADD42C,0.3000*%
%ADD43C,0.6000*%
%TA.AperFunction,ComponentPad*%
%ADD44C,1.6000*%
%ADD45R,1.6000X1.6000*%
%ADD46C,4.0000*%
%ADD47C,1.5240*%
%ADD48R,1.6000X1.6000*%
%ADD49C,1.0000*%
%TA.AperFunction,WasherPad*%
%ADD50C,5.0000*%
%TA.AperFunction,ComponentPad*%
%ADD51C,0.9000*%
%TA.AperFunction,ViaPad*%
%ADD52C,0.6000*%
G36*
X1496941Y696941D02*
X1496941Y525059D01*
X1454000Y525059D01*
X1452829Y524826D01*
X1451837Y524163D01*
X1451174Y523171D01*
X1450941Y522000D01*
X1450941Y257500D01*
X1451174Y256329D01*
X1451837Y255337D01*
X1452829Y254674D01*
X1454000Y254441D01*
X1496941Y254441D01*
X1496942Y3059D01*
X3059Y3059D01*
X3059Y696941D01*
X1496941Y696941D01*
D02*
G37*
%LPC*%
G36*
X656797Y652517D02*
X654456Y652052D01*
X652472Y650726D01*
X651146Y648741D01*
X650680Y646400D01*
X651146Y644059D01*
X652472Y642074D01*
X654456Y640748D01*
X656797Y640283D01*
X659139Y640748D01*
X661123Y642074D01*
X662449Y644059D01*
X662915Y646400D01*
X662449Y648741D01*
X661123Y650726D01*
X659139Y652052D01*
X656797Y652517D01*
D02*
G37*
G36*
X612798D02*
X610456Y652052D01*
X608472Y650726D01*
X607146Y648741D01*
X606680Y646400D01*
X607146Y644059D01*
X608472Y642074D01*
X610456Y640748D01*
X612798Y640283D01*
X615139Y640748D01*
X617123Y642074D01*
X618449Y644059D01*
X618915Y646400D01*
X618449Y648741D01*
X617123Y650726D01*
X615139Y652052D01*
X612798Y652517D01*
D02*
G37*
G36*
X1450000Y676582D02*
X1445842Y676255D01*
X1441786Y675281D01*
X1437932Y673685D01*
X1434375Y671505D01*
X1431204Y668796D01*
X1428495Y665624D01*
X1426315Y662068D01*
X1424719Y658214D01*
X1423745Y654158D01*
X1423418Y650000D01*
X1423745Y645842D01*
X1424719Y641786D01*
X1426315Y637932D01*
X1428495Y634375D01*
X1431204Y631204D01*
X1434375Y628495D01*
X1437932Y626315D01*
X1441786Y624719D01*
X1445842Y623745D01*
X1450000Y623418D01*
X1454158Y623745D01*
X1458214Y624719D01*
X1462068Y626315D01*
X1465625Y628495D01*
X1468796Y631204D01*
X1471505Y634375D01*
X1473685Y637932D01*
X1475281Y641786D01*
X1476255Y645842D01*
X1476582Y650000D01*
X1476255Y654158D01*
X1475281Y658214D01*
X1473685Y662068D01*
X1471505Y665624D01*
X1468796Y668796D01*
X1465625Y671505D01*
X1462068Y673685D01*
X1458214Y675281D01*
X1454158Y676255D01*
X1450000Y676582D01*
D02*
G37*
G36*
X750000D02*
X745842Y676255D01*
X741786Y675281D01*
X737932Y673685D01*
X734376Y671505D01*
X731204Y668796D01*
X728495Y665624D01*
X726315Y662068D01*
X724719Y658214D01*
X723745Y654158D01*
X723418Y650000D01*
X723745Y645842D01*
X724719Y641786D01*
X726315Y637932D01*
X728495Y634375D01*
X731204Y631204D01*
X734376Y628495D01*
X737932Y626315D01*
X741786Y624719D01*
X745842Y623745D01*
X750000Y623418D01*
X754158Y623745D01*
X758214Y624719D01*
X762068Y626315D01*
X765624Y628495D01*
X768796Y631204D01*
X771505Y634375D01*
X773685Y637932D01*
X775281Y641786D01*
X776255Y645842D01*
X776582Y650000D01*
X776255Y654158D01*
X775281Y658214D01*
X773685Y662068D01*
X771505Y665624D01*
X768796Y668796D01*
X765624Y671505D01*
X762068Y673685D01*
X758214Y675281D01*
X754158Y676255D01*
X750000Y676582D01*
D02*
G37*
G36*
X50000D02*
X45842Y676255D01*
X41786Y675281D01*
X37932Y673685D01*
X34376Y671505D01*
X31204Y668796D01*
X28495Y665624D01*
X26315Y662068D01*
X24719Y658214D01*
X23745Y654158D01*
X23418Y650000D01*
X23745Y645842D01*
X24719Y641786D01*
X26315Y637932D01*
X28495Y634375D01*
X31204Y631204D01*
X34376Y628495D01*
X37932Y626315D01*
X41786Y624719D01*
X45842Y623745D01*
X50000Y623418D01*
X54158Y623745D01*
X58214Y624719D01*
X62068Y626315D01*
X65624Y628495D01*
X68796Y631204D01*
X71505Y634375D01*
X73685Y637932D01*
X75281Y641786D01*
X76255Y645842D01*
X76582Y650000D01*
X76255Y654158D01*
X75281Y658214D01*
X73685Y662068D01*
X71505Y665624D01*
X68796Y668796D01*
X65624Y671505D01*
X62068Y673685D01*
X58214Y675281D01*
X54158Y676255D01*
X50000Y676582D01*
D02*
G37*
G36*
X912000Y645098D02*
X910049Y644710D01*
X908395Y643605D01*
X907290Y641951D01*
X906902Y640000D01*
X907290Y638049D01*
X908395Y636395D01*
X910049Y635290D01*
X912000Y634902D01*
X913951Y635290D01*
X915605Y636395D01*
X915629Y636431D01*
X992519D01*
X1021908Y607042D01*
X1021900Y606999D01*
X1022288Y605048D01*
X1022528Y604689D01*
X1021929Y603569D01*
X689478D01*
X688523Y604523D01*
X687366Y605297D01*
X686000Y605569D01*
X634000D01*
X632634Y605297D01*
X631477Y604523D01*
X627043Y600089D01*
X627000Y600098D01*
X625049Y599710D01*
X623395Y598605D01*
X622290Y596951D01*
X621902Y595000D01*
X622290Y593049D01*
X623395Y591395D01*
X625049Y590290D01*
X627000Y589902D01*
X628951Y590290D01*
X630605Y591395D01*
X631710Y593049D01*
X631853Y593766D01*
X633147D01*
X633290Y593049D01*
X634395Y591395D01*
X636049Y590290D01*
X638000Y589902D01*
X639951Y590290D01*
X641605Y591395D01*
X641629Y591431D01*
X1032522D01*
X1041138Y582816D01*
X1041290Y582049D01*
X1042395Y580395D01*
X1044049Y579290D01*
X1046000Y578902D01*
X1047951Y579290D01*
X1049605Y580395D01*
X1050710Y582049D01*
X1051098Y584000D01*
X1050710Y585951D01*
X1050298Y586568D01*
X1051000Y587803D01*
X1051159Y587794D01*
X1053911Y585043D01*
X1053902Y585000D01*
X1054290Y583049D01*
X1055395Y581395D01*
X1057049Y580290D01*
X1059000Y579902D01*
X1060951Y580290D01*
X1062605Y581395D01*
X1063710Y583049D01*
X1064098Y585000D01*
X1063710Y586951D01*
X1062605Y588605D01*
X1060951Y589710D01*
X1059000Y590098D01*
X1058957Y590089D01*
X1046523Y602523D01*
X1045366Y603297D01*
X1044000Y603569D01*
X1032066D01*
X1031468Y604689D01*
X1031708Y605048D01*
X1032096Y606999D01*
X1031708Y608950D01*
X1030603Y610604D01*
X1028949Y611709D01*
X1026998Y612097D01*
X1026955Y612088D01*
X996520Y642523D01*
X995362Y643297D01*
X993997Y643569D01*
X915629D01*
X915605Y643605D01*
X913951Y644710D01*
X912000Y645098D01*
D02*
G37*
G36*
X772230Y564840D02*
X753230D01*
Y545840D01*
X772230D01*
Y564840D01*
D02*
G37*
G36*
X889730Y564922D02*
X887250Y564596D01*
X884939Y563639D01*
X882954Y562116D01*
X881431Y560131D01*
X880474Y557820D01*
X880148Y555340D01*
X880474Y552860D01*
X881431Y550549D01*
X882954Y548565D01*
X884939Y547042D01*
X887250Y546085D01*
X889730Y545759D01*
X892210Y546085D01*
X894521Y547042D01*
X896505Y548565D01*
X898028Y550549D01*
X898985Y552860D01*
X899312Y555340D01*
X898985Y557820D01*
X898028Y560131D01*
X896505Y562116D01*
X894521Y563639D01*
X892210Y564596D01*
X889730Y564922D01*
D02*
G37*
G36*
X864330D02*
X861850Y564596D01*
X859539Y563639D01*
X857554Y562116D01*
X856031Y560131D01*
X855074Y557820D01*
X854748Y555340D01*
X855074Y552860D01*
X856031Y550549D01*
X857554Y548565D01*
X859539Y547042D01*
X861850Y546085D01*
X864330Y545759D01*
X866810Y546085D01*
X869121Y547042D01*
X871105Y548565D01*
X872628Y550549D01*
X873585Y552860D01*
X873912Y555340D01*
X873585Y557820D01*
X872628Y560131D01*
X871105Y562116D01*
X869121Y563639D01*
X866810Y564596D01*
X864330Y564922D01*
D02*
G37*
G36*
X838930D02*
X836450Y564596D01*
X834139Y563639D01*
X832154Y562116D01*
X830631Y560131D01*
X829674Y557820D01*
X829348Y555340D01*
X829674Y552860D01*
X830631Y550549D01*
X832154Y548565D01*
X834139Y547042D01*
X836450Y546085D01*
X838930Y545759D01*
X841410Y546085D01*
X843721Y547042D01*
X845705Y548565D01*
X847228Y550549D01*
X848185Y552860D01*
X848512Y555340D01*
X848185Y557820D01*
X847228Y560131D01*
X845705Y562116D01*
X843721Y563639D01*
X841410Y564596D01*
X838930Y564922D01*
D02*
G37*
G36*
X813530D02*
X811050Y564596D01*
X808739Y563639D01*
X806754Y562116D01*
X805231Y560131D01*
X804274Y557820D01*
X803948Y555340D01*
X804274Y552860D01*
X805231Y550549D01*
X806754Y548565D01*
X808739Y547042D01*
X811050Y546085D01*
X813530Y545759D01*
X816010Y546085D01*
X818321Y547042D01*
X820305Y548565D01*
X821828Y550549D01*
X822785Y552860D01*
X823111Y555340D01*
X822785Y557820D01*
X821828Y560131D01*
X820305Y562116D01*
X818321Y563639D01*
X816010Y564596D01*
X813530Y564922D01*
D02*
G37*
G36*
X788130D02*
X785650Y564596D01*
X783339Y563639D01*
X781354Y562116D01*
X779831Y560131D01*
X778874Y557820D01*
X778548Y555340D01*
X778874Y552860D01*
X779831Y550549D01*
X781354Y548565D01*
X783339Y547042D01*
X785650Y546085D01*
X788130Y545759D01*
X790610Y546085D01*
X792921Y547042D01*
X794905Y548565D01*
X796428Y550549D01*
X797385Y552860D01*
X797711Y555340D01*
X797385Y557820D01*
X796428Y560131D01*
X794905Y562116D01*
X792921Y563639D01*
X790610Y564596D01*
X788130Y564922D01*
D02*
G37*
G36*
X711930Y564582D02*
X709450Y564255D01*
X707139Y563298D01*
X705154Y561776D01*
X703632Y559791D01*
X702674Y557480D01*
X702348Y555000D01*
X702674Y552520D01*
X703632Y550209D01*
X705154Y548225D01*
X707139Y546702D01*
X709450Y545745D01*
X711930Y545418D01*
X714410Y545745D01*
X716721Y546702D01*
X718705Y548225D01*
X720228Y550209D01*
X721186Y552520D01*
X721512Y555000D01*
X721186Y557480D01*
X720228Y559791D01*
X718705Y561776D01*
X716721Y563298D01*
X714410Y564255D01*
X711930Y564582D01*
D02*
G37*
G36*
X686530D02*
X684050Y564255D01*
X681739Y563298D01*
X679754Y561776D01*
X678232Y559791D01*
X677274Y557480D01*
X676948Y555000D01*
X677274Y552520D01*
X678232Y550209D01*
X679754Y548225D01*
X681739Y546702D01*
X684050Y545745D01*
X686530Y545418D01*
X689010Y545745D01*
X691321Y546702D01*
X693305Y548225D01*
X694828Y550209D01*
X695786Y552520D01*
X696112Y555000D01*
X695786Y557480D01*
X694828Y559791D01*
X693305Y561776D01*
X691321Y563298D01*
X689010Y564255D01*
X686530Y564582D01*
D02*
G37*
G36*
X661130D02*
X658650Y564255D01*
X656339Y563298D01*
X654354Y561776D01*
X652832Y559791D01*
X651874Y557480D01*
X651548Y555000D01*
X651874Y552520D01*
X652832Y550209D01*
X654354Y548225D01*
X656339Y546702D01*
X658650Y545745D01*
X661130Y545418D01*
X663610Y545745D01*
X665921Y546702D01*
X667905Y548225D01*
X669428Y550209D01*
X670386Y552520D01*
X670712Y555000D01*
X670386Y557480D01*
X669428Y559791D01*
X667905Y561776D01*
X665921Y563298D01*
X663610Y564255D01*
X661130Y564582D01*
D02*
G37*
G36*
X635730D02*
X633250Y564255D01*
X630939Y563298D01*
X628955Y561776D01*
X627432Y559791D01*
X626474Y557480D01*
X626148Y555000D01*
X626474Y552520D01*
X627432Y550209D01*
X628955Y548225D01*
X630939Y546702D01*
X633250Y545745D01*
X635730Y545418D01*
X638210Y545745D01*
X640521Y546702D01*
X642505Y548225D01*
X644028Y550209D01*
X644986Y552520D01*
X645312Y555000D01*
X644986Y557480D01*
X644028Y559791D01*
X642505Y561776D01*
X640521Y563298D01*
X638210Y564255D01*
X635730Y564582D01*
D02*
G37*
G36*
X1416926Y508684D02*
X1412711Y508269D01*
X1408658Y507039D01*
X1404924Y505043D01*
X1401650Y502356D01*
X1398963Y499082D01*
X1396967Y495348D01*
X1395737Y491295D01*
X1395322Y487080D01*
X1395737Y482865D01*
X1396967Y478812D01*
X1398963Y475078D01*
X1401650Y471804D01*
X1404924Y469117D01*
X1408658Y467121D01*
X1412711Y465891D01*
X1416926Y465476D01*
X1421141Y465891D01*
X1425193Y467121D01*
X1428929Y469117D01*
X1432202Y471804D01*
X1434889Y475078D01*
X1436886Y478812D01*
X1438115Y482865D01*
X1438530Y487080D01*
X1438115Y491295D01*
X1436886Y495348D01*
X1434889Y499082D01*
X1432202Y502356D01*
X1428929Y505043D01*
X1425193Y507039D01*
X1421141Y508269D01*
X1416926Y508684D01*
D02*
G37*
G36*
X1159926D02*
X1155711Y508269D01*
X1151658Y507039D01*
X1147924Y505043D01*
X1144650Y502356D01*
X1141963Y499082D01*
X1139967Y495348D01*
X1138737Y491295D01*
X1138322Y487080D01*
X1138737Y482865D01*
X1139967Y478812D01*
X1141963Y475078D01*
X1144650Y471804D01*
X1147924Y469117D01*
X1151658Y467121D01*
X1155711Y465891D01*
X1159926Y465476D01*
X1164141Y465891D01*
X1168194Y467121D01*
X1171928Y469117D01*
X1175202Y471804D01*
X1177889Y475078D01*
X1179885Y478812D01*
X1181115Y482865D01*
X1181530Y487080D01*
X1181115Y491295D01*
X1179885Y495348D01*
X1177889Y499082D01*
X1175202Y502356D01*
X1171928Y505043D01*
X1168194Y507039D01*
X1164141Y508269D01*
X1159926Y508684D01*
D02*
G37*
G36*
X340074Y504524D02*
X335859Y504109D01*
X331806Y502879D01*
X328072Y500883D01*
X324798Y498196D01*
X322111Y494923D01*
X320115Y491188D01*
X318885Y487135D01*
X318470Y482920D01*
X318885Y478705D01*
X320115Y474652D01*
X322111Y470918D01*
X324798Y467644D01*
X328072Y464957D01*
X331806Y462961D01*
X335859Y461731D01*
X340074Y461316D01*
X344289Y461731D01*
X348341Y462961D01*
X352076Y464957D01*
X355350Y467644D01*
X358037Y470918D01*
X360033Y474652D01*
X361263Y478705D01*
X361678Y482920D01*
X361263Y487135D01*
X360033Y491188D01*
X358037Y494923D01*
X355350Y498196D01*
X352076Y500883D01*
X348341Y502879D01*
X344289Y504109D01*
X340074Y504524D01*
D02*
G37*
G36*
X83074D02*
X78859Y504109D01*
X74806Y502879D01*
X71072Y500883D01*
X67798Y498196D01*
X65111Y494923D01*
X63115Y491188D01*
X61885Y487135D01*
X61470Y482920D01*
X61885Y478705D01*
X63115Y474652D01*
X65111Y470918D01*
X67798Y467644D01*
X71072Y464957D01*
X74806Y462961D01*
X78859Y461731D01*
X83074Y461316D01*
X87289Y461731D01*
X91341Y462961D01*
X95077Y464957D01*
X98350Y467644D01*
X101037Y470918D01*
X103034Y474652D01*
X104263Y478705D01*
X104678Y482920D01*
X104263Y487135D01*
X103034Y491188D01*
X101037Y494923D01*
X98350Y498196D01*
X95077Y500883D01*
X91341Y502879D01*
X87289Y504109D01*
X83074Y504524D01*
D02*
G37*
G36*
X985000Y475098D02*
X983049Y474710D01*
X981395Y473605D01*
X980290Y471951D01*
X979902Y470000D01*
X980290Y468049D01*
X981395Y466395D01*
X983049Y465290D01*
X985000Y464902D01*
X985043Y464911D01*
X991477Y458477D01*
X992634Y457703D01*
X994000Y457431D01*
X1024371D01*
X1024395Y457395D01*
X1026049Y456290D01*
X1028000Y455902D01*
X1029951Y456290D01*
X1031605Y457395D01*
X1032710Y459049D01*
X1033098Y461000D01*
X1032710Y462951D01*
X1031605Y464605D01*
X1029951Y465710D01*
X1028000Y466098D01*
X1026049Y465710D01*
X1024395Y464605D01*
X1024371Y464569D01*
X995478D01*
X990089Y469957D01*
X990098Y470000D01*
X989710Y471951D01*
X988605Y473605D01*
X986951Y474710D01*
X985000Y475098D01*
D02*
G37*
G36*
X365074Y448719D02*
X362693Y448405D01*
X360475Y447486D01*
X358569Y446025D01*
X357108Y444119D01*
X356189Y441901D01*
X355875Y439520D01*
X356189Y437139D01*
X357108Y434921D01*
X358569Y433016D01*
X360475Y431554D01*
X362693Y430635D01*
X365074Y430321D01*
X367455Y430635D01*
X369673Y431554D01*
X371578Y433016D01*
X373040Y434921D01*
X373467Y435951D01*
X570002D01*
X587205Y418748D01*
X586580Y417578D01*
X586022Y417689D01*
X373467D01*
X373040Y418719D01*
X371578Y420625D01*
X369673Y422086D01*
X367455Y423005D01*
X365074Y423319D01*
X362693Y423005D01*
X360475Y422086D01*
X358569Y420625D01*
X357108Y418719D01*
X356189Y416501D01*
X355875Y414120D01*
X356189Y411739D01*
X357108Y409521D01*
X358569Y407616D01*
X360475Y406154D01*
X362693Y405235D01*
X365074Y404921D01*
X367455Y405235D01*
X369673Y406154D01*
X371578Y407616D01*
X373040Y409521D01*
X373467Y410551D01*
X584544D01*
X601633Y393462D01*
X601147Y392289D01*
X373467D01*
X373040Y393319D01*
X371578Y395224D01*
X369673Y396686D01*
X367455Y397605D01*
X365074Y397919D01*
X362693Y397605D01*
X360475Y396686D01*
X358569Y395224D01*
X357108Y393319D01*
X356189Y391101D01*
X355875Y388720D01*
X356189Y386339D01*
X357108Y384121D01*
X358569Y382215D01*
X360475Y380754D01*
X362693Y379835D01*
X365074Y379521D01*
X367455Y379835D01*
X369673Y380754D01*
X371578Y382215D01*
X373040Y384121D01*
X373467Y385151D01*
X602873D01*
X681282Y306742D01*
X680816Y305616D01*
X679623Y305578D01*
X679605Y305605D01*
X677951Y306710D01*
X676000Y307098D01*
X674049Y306710D01*
X672395Y305605D01*
X671290Y303951D01*
X670902Y302000D01*
X671290Y300049D01*
X672395Y298395D01*
X674049Y297290D01*
X676000Y296902D01*
X677951Y297290D01*
X679605Y298395D01*
X679629Y298431D01*
X682522D01*
X702633Y278320D01*
X702215Y276942D01*
X701049Y276710D01*
X699395Y275605D01*
X698290Y273951D01*
X697902Y272000D01*
X698290Y270049D01*
X699395Y268395D01*
X701049Y267290D01*
X703000Y266902D01*
X703043Y266910D01*
X723256Y246697D01*
X722447Y245710D01*
X720951Y246710D01*
X719000Y247098D01*
X717049Y246710D01*
X715395Y245605D01*
X715371Y245569D01*
X274800D01*
X273434Y245297D01*
X272277Y244523D01*
X241702Y213949D01*
X240480Y214456D01*
X238000Y214782D01*
X235520Y214456D01*
X233209Y213498D01*
X231225Y211975D01*
X229702Y209991D01*
X228745Y207680D01*
X228418Y205200D01*
X228745Y202720D01*
X229702Y200409D01*
X231225Y198424D01*
X233209Y196902D01*
X235520Y195944D01*
X238000Y195618D01*
X240480Y195944D01*
X242791Y196902D01*
X244776Y198424D01*
X246298Y200409D01*
X247255Y202720D01*
X247582Y205200D01*
X247255Y207680D01*
X246749Y208902D01*
X276278Y238431D01*
X715371D01*
X715395Y238395D01*
X717049Y237290D01*
X719000Y236902D01*
X720951Y237290D01*
X722605Y238395D01*
X723710Y240049D01*
X724098Y242000D01*
X723710Y243951D01*
X722710Y245447D01*
X723697Y246256D01*
X726431Y243522D01*
Y189000D01*
X726703Y187634D01*
X727477Y186477D01*
X736477Y177477D01*
X737634Y176703D01*
X739000Y176431D01*
X793522D01*
X814977Y154977D01*
X815276Y154776D01*
X815477Y154477D01*
X824431Y145522D01*
Y125891D01*
X823161Y125638D01*
X823098Y125791D01*
X821575Y127775D01*
X819591Y129298D01*
X817280Y130255D01*
X814800Y130582D01*
X812320Y130255D01*
X810009Y129298D01*
X808025Y127775D01*
X806502Y125791D01*
X805545Y123480D01*
X805218Y121000D01*
X805545Y118520D01*
X806502Y116209D01*
X808025Y114225D01*
X810009Y112702D01*
X812320Y111745D01*
X814800Y111418D01*
X817280Y111745D01*
X819591Y112702D01*
X821575Y114225D01*
X823098Y116209D01*
X823161Y116362D01*
X824431Y116109D01*
Y113000D01*
X824703Y111634D01*
X825477Y110477D01*
X835477Y100477D01*
X836634Y99703D01*
X838000Y99431D01*
X879522D01*
X897251Y81702D01*
X896745Y80480D01*
X896418Y78000D01*
X896745Y75520D01*
X897702Y73209D01*
X899224Y71224D01*
X901209Y69702D01*
X903520Y68745D01*
X906000Y68418D01*
X908480Y68745D01*
X910791Y69702D01*
X912775Y71224D01*
X914298Y73209D01*
X915255Y75520D01*
X915582Y78000D01*
X915255Y80480D01*
X914298Y82791D01*
X912775Y84775D01*
X910791Y86298D01*
X908480Y87255D01*
X906000Y87582D01*
X903520Y87255D01*
X902298Y86749D01*
X883523Y105523D01*
X882366Y106297D01*
X881000Y106569D01*
X839478D01*
X833418Y112629D01*
X834257Y113586D01*
X835409Y112702D01*
X837720Y111745D01*
X840200Y111418D01*
X842680Y111745D01*
X844991Y112702D01*
X846975Y114225D01*
X848498Y116209D01*
X849455Y118520D01*
X849782Y121000D01*
X849455Y123480D01*
X848498Y125791D01*
X846975Y127775D01*
X844991Y129298D01*
X842680Y130255D01*
X840200Y130582D01*
X837720Y130255D01*
X835409Y129298D01*
X833425Y127775D01*
X832839Y127012D01*
X831569Y127443D01*
Y147000D01*
X831297Y148366D01*
X830523Y149523D01*
X820523Y159523D01*
X820224Y159724D01*
X820023Y160023D01*
X797523Y182523D01*
X796366Y183297D01*
X795000Y183569D01*
X780480D01*
X779901Y184839D01*
X780710Y186049D01*
X781098Y188000D01*
X780710Y189951D01*
X779605Y191605D01*
X777951Y192710D01*
X776000Y193098D01*
X775957Y193090D01*
X751569Y217478D01*
Y252142D01*
X751297Y253508D01*
X750523Y254666D01*
X718094Y287094D01*
X717837Y287266D01*
X717665Y287523D01*
X683485Y321704D01*
X683903Y323082D01*
X684951Y323290D01*
X686605Y324395D01*
X687710Y326049D01*
X688098Y328000D01*
X687710Y329951D01*
X686605Y331605D01*
X684951Y332710D01*
X683000Y333098D01*
X682957Y333089D01*
X574003Y442043D01*
X572846Y442817D01*
X571480Y443089D01*
X373467D01*
X373040Y444119D01*
X371578Y446025D01*
X369673Y447486D01*
X367455Y448405D01*
X365074Y448719D01*
D02*
G37*
G36*
X1134926Y425879D02*
X1132545Y425565D01*
X1130327Y424646D01*
X1128421Y423185D01*
X1126960Y421279D01*
X1126041Y419061D01*
X1125727Y416680D01*
X1126041Y414299D01*
X1126960Y412081D01*
X1128421Y410176D01*
X1130327Y408714D01*
X1132545Y407795D01*
X1134926Y407481D01*
X1137307Y407795D01*
X1139525Y408714D01*
X1141431Y410176D01*
X1142892Y412081D01*
X1143811Y414299D01*
X1144125Y416680D01*
X1143811Y419061D01*
X1142892Y421279D01*
X1141431Y423185D01*
X1139525Y424646D01*
X1137307Y425565D01*
X1134926Y425879D01*
D02*
G37*
G36*
Y400479D02*
X1132545Y400165D01*
X1130327Y399246D01*
X1128421Y397785D01*
X1126960Y395879D01*
X1126533Y394849D01*
X1029280D01*
X1027914Y394577D01*
X1026757Y393803D01*
X858477Y225523D01*
X857703Y224366D01*
X857431Y223000D01*
Y182629D01*
X857395Y182605D01*
X856290Y180951D01*
X855902Y179000D01*
X856290Y177049D01*
X857395Y175395D01*
X859049Y174290D01*
X861000Y173902D01*
X862951Y174290D01*
X864605Y175395D01*
X865236Y176340D01*
X866764D01*
X867395Y175395D01*
X869049Y174290D01*
X871000Y173902D01*
X872951Y174290D01*
X874605Y175395D01*
X874865Y175785D01*
X876135D01*
X876395Y175395D01*
X878049Y174290D01*
X880000Y173902D01*
X881951Y174290D01*
X883605Y175395D01*
X884710Y177049D01*
X885098Y179000D01*
X884710Y180951D01*
X883605Y182605D01*
X883569Y182629D01*
Y226380D01*
X994100Y336911D01*
X1126533D01*
X1126960Y335881D01*
X1128421Y333976D01*
X1130327Y332514D01*
X1132545Y331595D01*
X1134926Y331281D01*
X1137307Y331595D01*
X1139525Y332514D01*
X1141431Y333976D01*
X1142892Y335881D01*
X1143811Y338099D01*
X1144125Y340480D01*
X1143811Y342861D01*
X1142892Y345079D01*
X1141431Y346984D01*
X1139525Y348446D01*
X1137307Y349365D01*
X1134926Y349679D01*
X1132545Y349365D01*
X1130327Y348446D01*
X1128421Y346984D01*
X1126960Y345079D01*
X1126533Y344049D01*
X995826D01*
X995340Y345222D01*
X1012429Y362311D01*
X1126533D01*
X1126960Y361281D01*
X1128421Y359376D01*
X1130327Y357914D01*
X1132545Y356995D01*
X1134926Y356681D01*
X1137307Y356995D01*
X1139525Y357914D01*
X1141431Y359376D01*
X1142892Y361281D01*
X1143811Y363499D01*
X1144125Y365880D01*
X1143811Y368261D01*
X1142892Y370479D01*
X1141431Y372384D01*
X1139525Y373846D01*
X1137307Y374765D01*
X1134926Y375079D01*
X1132545Y374765D01*
X1130327Y373846D01*
X1128421Y372384D01*
X1126960Y370479D01*
X1126533Y369449D01*
X1014155D01*
X1013669Y370622D01*
X1030758Y387711D01*
X1126533D01*
X1126960Y386681D01*
X1128421Y384776D01*
X1130327Y383314D01*
X1132545Y382395D01*
X1134926Y382081D01*
X1137307Y382395D01*
X1139525Y383314D01*
X1141431Y384776D01*
X1142892Y386681D01*
X1143811Y388899D01*
X1144125Y391280D01*
X1143811Y393661D01*
X1142892Y395879D01*
X1141431Y397785D01*
X1139525Y399246D01*
X1137307Y400165D01*
X1134926Y400479D01*
D02*
G37*
G36*
X742393Y382569D02*
X732000D01*
X730634Y382297D01*
X729477Y381523D01*
X718477Y370523D01*
X717703Y369366D01*
X717431Y368000D01*
Y348000D01*
X717703Y346634D01*
X718477Y345477D01*
X722927Y341026D01*
X722558Y339811D01*
X722049Y339710D01*
X720395Y338605D01*
X719290Y336951D01*
X718902Y335000D01*
X719290Y333049D01*
X720395Y331395D01*
X720431Y331371D01*
Y320000D01*
X720703Y318634D01*
X721477Y317477D01*
X748477Y290477D01*
X749634Y289703D01*
X751000Y289431D01*
X777000D01*
X778366Y289703D01*
X779523Y290477D01*
X787957Y298911D01*
X788000Y298902D01*
X789951Y299290D01*
X791280Y300178D01*
X792429Y299988D01*
X792754Y299828D01*
X792796Y299708D01*
X792290Y298951D01*
X791902Y297000D01*
X792290Y295049D01*
X793395Y293395D01*
X795049Y292290D01*
X797000Y291902D01*
X798951Y292290D01*
X800605Y293395D01*
X801710Y295049D01*
X802098Y297000D01*
X801710Y298951D01*
X800605Y300605D01*
X800569Y300629D01*
Y310000D01*
X800297Y311366D01*
X799523Y312523D01*
X742089Y369957D01*
X742098Y370000D01*
X741710Y371951D01*
X740605Y373605D01*
X740933Y374913D01*
X741352Y374995D01*
X743040Y373307D01*
X743290Y372049D01*
X744395Y370395D01*
X746049Y369290D01*
X748000Y368902D01*
X749951Y369290D01*
X751605Y370395D01*
X752710Y372049D01*
X753098Y374000D01*
X752710Y375951D01*
X751605Y377605D01*
X749951Y378710D01*
X748000Y379098D01*
X747451Y378989D01*
X744917Y381523D01*
X743759Y382297D01*
X742393Y382569D01*
D02*
G37*
G36*
X365074Y372519D02*
X362693Y372205D01*
X360475Y371286D01*
X358569Y369824D01*
X357108Y367919D01*
X356189Y365701D01*
X355875Y363320D01*
X356189Y360939D01*
X357108Y358721D01*
X358569Y356815D01*
X360475Y355354D01*
X362693Y354435D01*
X365074Y354121D01*
X367455Y354435D01*
X369673Y355354D01*
X371578Y356815D01*
X373040Y358721D01*
X373959Y360939D01*
X374273Y363320D01*
X373959Y365701D01*
X373040Y367919D01*
X371578Y369824D01*
X369673Y371286D01*
X367455Y372205D01*
X365074Y372519D01*
D02*
G37*
G36*
X1416926Y318684D02*
X1412711Y318269D01*
X1408658Y317040D01*
X1404924Y315043D01*
X1401650Y312356D01*
X1398963Y309083D01*
X1396967Y305347D01*
X1395737Y301295D01*
X1395322Y297080D01*
X1395737Y292865D01*
X1396967Y288813D01*
X1398963Y285077D01*
X1401650Y281804D01*
X1404924Y279117D01*
X1408658Y277120D01*
X1412711Y275891D01*
X1416926Y275476D01*
X1421141Y275891D01*
X1425193Y277120D01*
X1428929Y279117D01*
X1432202Y281804D01*
X1434889Y285077D01*
X1436886Y288813D01*
X1438115Y292865D01*
X1438530Y297080D01*
X1438115Y301295D01*
X1436886Y305347D01*
X1434889Y309083D01*
X1432202Y312356D01*
X1428929Y315043D01*
X1425193Y317040D01*
X1421141Y318269D01*
X1416926Y318684D01*
D02*
G37*
G36*
X1159926D02*
X1155711Y318269D01*
X1151658Y317040D01*
X1147924Y315043D01*
X1144650Y312356D01*
X1141963Y309083D01*
X1139967Y305347D01*
X1138737Y301295D01*
X1138322Y297080D01*
X1138737Y292865D01*
X1139967Y288813D01*
X1141963Y285077D01*
X1144650Y281804D01*
X1147924Y279117D01*
X1151658Y277120D01*
X1155711Y275891D01*
X1159926Y275476D01*
X1164141Y275891D01*
X1168194Y277120D01*
X1171928Y279117D01*
X1175202Y281804D01*
X1177889Y285077D01*
X1179885Y288813D01*
X1181115Y292865D01*
X1181530Y297080D01*
X1181115Y301295D01*
X1179885Y305347D01*
X1177889Y309083D01*
X1175202Y312356D01*
X1171928Y315043D01*
X1168194Y317040D01*
X1164141Y318269D01*
X1159926Y318684D01*
D02*
G37*
G36*
X340074Y314524D02*
X335859Y314109D01*
X331806Y312880D01*
X328072Y310883D01*
X324798Y308196D01*
X322111Y304923D01*
X320115Y301187D01*
X318885Y297135D01*
X318470Y292920D01*
X318885Y288705D01*
X320115Y284653D01*
X322111Y280917D01*
X324798Y277644D01*
X328072Y274957D01*
X331806Y272960D01*
X335859Y271731D01*
X340074Y271316D01*
X344289Y271731D01*
X348341Y272960D01*
X352076Y274957D01*
X355350Y277644D01*
X358037Y280917D01*
X360033Y284653D01*
X361263Y288705D01*
X361678Y292920D01*
X361263Y297135D01*
X360033Y301187D01*
X358037Y304923D01*
X355350Y308196D01*
X352076Y310883D01*
X348341Y312880D01*
X344289Y314109D01*
X340074Y314524D01*
D02*
G37*
G36*
X83074D02*
X78859Y314109D01*
X74806Y312880D01*
X71072Y310883D01*
X67798Y308196D01*
X65111Y304923D01*
X63115Y301187D01*
X61885Y297135D01*
X61470Y292920D01*
X61885Y288705D01*
X63115Y284653D01*
X65111Y280917D01*
X67798Y277644D01*
X71072Y274957D01*
X74806Y272960D01*
X78859Y271731D01*
X83074Y271316D01*
X87289Y271731D01*
X91341Y272960D01*
X95077Y274957D01*
X98350Y277644D01*
X101037Y280917D01*
X103034Y284653D01*
X104263Y288705D01*
X104678Y292920D01*
X104263Y297135D01*
X103034Y301187D01*
X101037Y304923D01*
X98350Y308196D01*
X95077Y310883D01*
X91341Y312880D01*
X87289Y314109D01*
X83074Y314524D01*
D02*
G37*
G36*
X778000Y274098D02*
X776049Y273710D01*
X774395Y272605D01*
X773290Y270951D01*
X772902Y269000D01*
X773290Y267049D01*
X774395Y265395D01*
X774431Y265371D01*
Y257480D01*
X773161Y256901D01*
X771951Y257710D01*
X770000Y258098D01*
X768049Y257710D01*
X766395Y256605D01*
X765290Y254951D01*
X764902Y253000D01*
X765290Y251049D01*
X766395Y249395D01*
X766431Y249371D01*
Y223929D01*
X766703Y222563D01*
X767477Y221406D01*
X853406Y135477D01*
X854563Y134703D01*
X855929Y134431D01*
X861371D01*
X861395Y134395D01*
X863049Y133290D01*
X865000Y132902D01*
X866951Y133290D01*
X868605Y134395D01*
X869710Y136049D01*
X870098Y138000D01*
X869710Y139951D01*
X869469Y140311D01*
X870068Y141431D01*
X973522D01*
X975794Y139159D01*
X975803Y139000D01*
X974568Y138298D01*
X973951Y138710D01*
X972000Y139098D01*
X970049Y138710D01*
X968395Y137605D01*
X967290Y135951D01*
X966902Y134000D01*
X967290Y132049D01*
X968395Y130395D01*
X968431Y130371D01*
Y100000D01*
X968703Y98634D01*
X969477Y97477D01*
X984953Y82000D01*
X966522Y63569D01*
X948478D01*
X939325Y72722D01*
X939698Y73209D01*
X940655Y75520D01*
X940982Y78000D01*
X940655Y80480D01*
X939698Y82791D01*
X938175Y84775D01*
X936191Y86298D01*
X933880Y87255D01*
X931400Y87582D01*
X928920Y87255D01*
X926609Y86298D01*
X924624Y84775D01*
X923102Y82791D01*
X922144Y80480D01*
X921818Y78000D01*
X922144Y75520D01*
X923102Y73209D01*
X924624Y71224D01*
X926609Y69702D01*
X928920Y68745D01*
X931400Y68418D01*
X933287Y68667D01*
X943211Y58742D01*
X942725Y57569D01*
X884629D01*
X884605Y57605D01*
X882951Y58710D01*
X881000Y59098D01*
X879049Y58710D01*
X877395Y57605D01*
X876290Y55951D01*
X875902Y54000D01*
X876290Y52049D01*
X877395Y50395D01*
X879049Y49290D01*
X881000Y48902D01*
X882951Y49290D01*
X884605Y50395D01*
X884629Y50431D01*
X974000D01*
X975366Y50703D01*
X976523Y51477D01*
X988957Y63910D01*
X989000Y63902D01*
X990951Y64290D01*
X992605Y65395D01*
X993710Y67049D01*
X994098Y69000D01*
X993710Y70951D01*
X992605Y72605D01*
X990951Y73710D01*
X989000Y74098D01*
X988926Y74083D01*
X988300Y75254D01*
X991478Y78431D01*
X1022371D01*
X1022395Y78395D01*
X1024049Y77290D01*
X1026000Y76902D01*
X1027951Y77290D01*
X1029161Y78099D01*
X1030431Y77520D01*
Y59000D01*
X1030703Y57634D01*
X1031477Y56477D01*
X1043500Y44453D01*
Y30500D01*
X1062500D01*
Y49500D01*
X1048547D01*
X1037569Y60478D01*
Y74125D01*
X1038742Y74611D01*
X1044251Y69102D01*
X1043745Y67880D01*
X1043418Y65400D01*
X1043745Y62920D01*
X1044702Y60609D01*
X1046225Y58625D01*
X1048209Y57102D01*
X1050520Y56144D01*
X1053000Y55818D01*
X1055480Y56144D01*
X1057791Y57102D01*
X1059775Y58625D01*
X1061298Y60609D01*
X1062255Y62920D01*
X1062582Y65400D01*
X1062255Y67880D01*
X1061298Y70191D01*
X1059775Y72175D01*
X1057791Y73698D01*
X1055480Y74655D01*
X1053000Y74982D01*
X1050520Y74655D01*
X1049298Y74149D01*
X1042569Y80878D01*
Y88071D01*
X1042297Y89437D01*
X1041523Y90594D01*
X979594Y152523D01*
X978437Y153297D01*
X977071Y153569D01*
X883000D01*
X883000Y153569D01*
X863478D01*
X789569Y227478D01*
Y257371D01*
X789605Y257395D01*
X790710Y259049D01*
X791098Y261000D01*
X790710Y262951D01*
X789605Y264605D01*
X787951Y265710D01*
X786000Y266098D01*
X784049Y265710D01*
X782839Y264901D01*
X782727Y264942D01*
X781974Y265948D01*
X782710Y267049D01*
X783098Y269000D01*
X782710Y270951D01*
X781605Y272605D01*
X779951Y273710D01*
X778000Y274098D01*
D02*
G37*
G36*
X456000Y573098D02*
X370000D01*
X368049Y572710D01*
X366395Y571605D01*
X164395Y369605D01*
X163290Y367951D01*
X162902Y366000D01*
Y235000D01*
X163290Y233049D01*
X164395Y231395D01*
X166049Y230290D01*
X168000Y229902D01*
X169951Y230290D01*
X171605Y231395D01*
X172710Y233049D01*
X173098Y235000D01*
Y363888D01*
X372112Y562902D01*
X456000D01*
X457951Y563290D01*
X459605Y564395D01*
X460710Y566049D01*
X461098Y568000D01*
X460710Y569951D01*
X459605Y571605D01*
X457951Y572710D01*
X456000Y573098D01*
D02*
G37*
G36*
X719000Y235098D02*
X717049Y234710D01*
X715395Y233605D01*
X715371Y233569D01*
X288200D01*
X286834Y233297D01*
X285677Y232523D01*
X241702Y188549D01*
X240480Y189056D01*
X238000Y189382D01*
X235520Y189056D01*
X233209Y188098D01*
X231225Y186575D01*
X229702Y184591D01*
X228745Y182280D01*
X228418Y179800D01*
X228745Y177320D01*
X229702Y175009D01*
X231225Y173025D01*
X233209Y171502D01*
X235520Y170544D01*
X238000Y170218D01*
X240480Y170544D01*
X242791Y171502D01*
X244776Y173025D01*
X246298Y175009D01*
X247255Y177320D01*
X247582Y179800D01*
X247255Y182280D01*
X246749Y183502D01*
X289678Y226431D01*
X715371D01*
X715395Y226395D01*
X717049Y225290D01*
X717766Y225147D01*
Y223853D01*
X717049Y223710D01*
X715395Y222605D01*
X715371Y222569D01*
X302600D01*
X301234Y222297D01*
X300077Y221523D01*
X241702Y163149D01*
X240480Y163655D01*
X238000Y163982D01*
X235520Y163655D01*
X233209Y162698D01*
X231225Y161175D01*
X229702Y159191D01*
X228745Y156880D01*
X228418Y154400D01*
X228745Y151920D01*
X229702Y149609D01*
X231225Y147625D01*
X233209Y146102D01*
X235520Y145145D01*
X238000Y144818D01*
X240480Y145145D01*
X242791Y146102D01*
X244776Y147625D01*
X246298Y149609D01*
X247255Y151920D01*
X247582Y154400D01*
X247255Y156880D01*
X246749Y158102D01*
X304078Y215431D01*
X715371D01*
X715395Y215395D01*
X717049Y214290D01*
X719000Y213902D01*
X720951Y214290D01*
X722605Y215395D01*
X723710Y217049D01*
X724098Y219000D01*
X723710Y220951D01*
X722605Y222605D01*
X720951Y223710D01*
X720234Y223853D01*
Y225147D01*
X720951Y225290D01*
X722605Y226395D01*
X723710Y228049D01*
X724098Y230000D01*
X723710Y231951D01*
X722605Y233605D01*
X720951Y234710D01*
X719000Y235098D01*
D02*
G37*
G36*
Y212098D02*
X717049Y211710D01*
X715395Y210605D01*
X715037Y210069D01*
X324911D01*
X323951Y210710D01*
X322000Y211098D01*
X320049Y210710D01*
X318395Y209605D01*
X317290Y207951D01*
X316902Y206000D01*
X317290Y204049D01*
X318395Y202395D01*
X320049Y201290D01*
X322000Y200902D01*
X323951Y201290D01*
X325605Y202395D01*
X325963Y202931D01*
X716089D01*
X717049Y202290D01*
X717766Y202147D01*
Y200853D01*
X717049Y200710D01*
X715395Y199605D01*
X715371Y199569D01*
X305000D01*
X303634Y199297D01*
X302477Y198523D01*
X241702Y137749D01*
X240480Y138256D01*
X238000Y138582D01*
X235520Y138256D01*
X233209Y137298D01*
X231225Y135775D01*
X229702Y133791D01*
X228745Y131480D01*
X228418Y129000D01*
X228745Y126520D01*
X229702Y124209D01*
X231225Y122225D01*
X233209Y120702D01*
X235520Y119745D01*
X238000Y119418D01*
X240480Y119745D01*
X242791Y120702D01*
X244776Y122225D01*
X246298Y124209D01*
X247255Y126520D01*
X247582Y129000D01*
X247255Y131480D01*
X246749Y132702D01*
X306478Y192431D01*
X715371D01*
X715395Y192395D01*
X717049Y191290D01*
X719000Y190902D01*
X720951Y191290D01*
X722605Y192395D01*
X723710Y194049D01*
X724098Y196000D01*
X723710Y197951D01*
X722605Y199605D01*
X720951Y200710D01*
X720234Y200853D01*
Y202147D01*
X720951Y202290D01*
X722605Y203395D01*
X723710Y205049D01*
X724098Y207000D01*
X723710Y208951D01*
X722605Y210605D01*
X720951Y211710D01*
X719000Y212098D01*
D02*
G37*
G36*
X827000Y289098D02*
X825049Y288710D01*
X823395Y287605D01*
X822290Y285951D01*
X821902Y284000D01*
X822290Y282049D01*
X823395Y280395D01*
X823431Y280371D01*
Y209629D01*
X823395Y209605D01*
X822290Y207951D01*
X821902Y206000D01*
X822290Y204049D01*
X823395Y202395D01*
X825049Y201290D01*
X827000Y200902D01*
X828951Y201290D01*
X830605Y202395D01*
X831710Y204049D01*
X832098Y206000D01*
X831710Y207951D01*
X830605Y209605D01*
X830569Y209629D01*
Y280371D01*
X830605Y280395D01*
X831710Y282049D01*
X832098Y284000D01*
X831710Y285951D01*
X830605Y287605D01*
X828951Y288710D01*
X827000Y289098D01*
D02*
G37*
G36*
X641000Y176098D02*
X639049Y175710D01*
X637395Y174605D01*
X636290Y172951D01*
X635902Y171000D01*
X636290Y169049D01*
X637395Y167395D01*
X639049Y166290D01*
X641000Y165902D01*
X641043Y165910D01*
X654477Y152477D01*
X655634Y151703D01*
X657000Y151431D01*
X773371D01*
X773395Y151395D01*
X775049Y150290D01*
X777000Y149902D01*
X778951Y150290D01*
X780605Y151395D01*
X781710Y153049D01*
X782098Y155000D01*
X781710Y156951D01*
X780605Y158605D01*
X778951Y159710D01*
X777000Y160098D01*
X775049Y159710D01*
X773395Y158605D01*
X773371Y158569D01*
X658478D01*
X646089Y170957D01*
X646098Y171000D01*
X645710Y172951D01*
X644605Y174605D01*
X642951Y175710D01*
X641000Y176098D01*
D02*
G37*
G36*
X722700Y130500D02*
X703700D01*
Y111500D01*
X722700D01*
Y130500D01*
D02*
G37*
G36*
X671900D02*
X652900D01*
Y111500D01*
X671900D01*
Y130500D01*
D02*
G37*
G36*
X891000Y130582D02*
X888520Y130255D01*
X886209Y129298D01*
X884224Y127775D01*
X882702Y125791D01*
X881745Y123480D01*
X881418Y121000D01*
X881745Y118520D01*
X882702Y116209D01*
X884224Y114225D01*
X886209Y112702D01*
X888520Y111745D01*
X891000Y111418D01*
X893480Y111745D01*
X895791Y112702D01*
X897775Y114225D01*
X899298Y116209D01*
X900256Y118520D01*
X900582Y121000D01*
X900256Y123480D01*
X899298Y125791D01*
X897775Y127775D01*
X895791Y129298D01*
X893480Y130255D01*
X891000Y130582D01*
D02*
G37*
G36*
X865600D02*
X863120Y130255D01*
X860809Y129298D01*
X858824Y127775D01*
X857302Y125791D01*
X856345Y123480D01*
X856018Y121000D01*
X856345Y118520D01*
X857302Y116209D01*
X858824Y114225D01*
X860809Y112702D01*
X863120Y111745D01*
X865600Y111418D01*
X868080Y111745D01*
X870391Y112702D01*
X872375Y114225D01*
X873898Y116209D01*
X874855Y118520D01*
X875182Y121000D01*
X874855Y123480D01*
X873898Y125791D01*
X872375Y127775D01*
X870391Y129298D01*
X868080Y130255D01*
X865600Y130582D01*
D02*
G37*
G36*
X789400D02*
X786920Y130255D01*
X784609Y129298D01*
X782625Y127775D01*
X781102Y125791D01*
X780145Y123480D01*
X779818Y121000D01*
X780145Y118520D01*
X781102Y116209D01*
X782625Y114225D01*
X784609Y112702D01*
X786920Y111745D01*
X789400Y111418D01*
X791880Y111745D01*
X794191Y112702D01*
X796175Y114225D01*
X797698Y116209D01*
X798655Y118520D01*
X798982Y121000D01*
X798655Y123480D01*
X797698Y125791D01*
X796175Y127775D01*
X794191Y129298D01*
X791880Y130255D01*
X789400Y130582D01*
D02*
G37*
G36*
X764000D02*
X761520Y130255D01*
X759209Y129298D01*
X757225Y127775D01*
X755702Y125791D01*
X754744Y123480D01*
X754418Y121000D01*
X754744Y118520D01*
X755702Y116209D01*
X757225Y114225D01*
X759209Y112702D01*
X761520Y111745D01*
X764000Y111418D01*
X766480Y111745D01*
X768791Y112702D01*
X770775Y114225D01*
X772298Y116209D01*
X773255Y118520D01*
X773582Y121000D01*
X773255Y123480D01*
X772298Y125791D01*
X770775Y127775D01*
X768791Y129298D01*
X766480Y130255D01*
X764000Y130582D01*
D02*
G37*
G36*
X738600D02*
X736120Y130255D01*
X733809Y129298D01*
X731824Y127775D01*
X730302Y125791D01*
X729344Y123480D01*
X729018Y121000D01*
X729344Y118520D01*
X730302Y116209D01*
X731824Y114225D01*
X733809Y112702D01*
X736120Y111745D01*
X738600Y111418D01*
X741080Y111745D01*
X743391Y112702D01*
X745375Y114225D01*
X746898Y116209D01*
X747856Y118520D01*
X748182Y121000D01*
X747856Y123480D01*
X746898Y125791D01*
X745375Y127775D01*
X743391Y129298D01*
X741080Y130255D01*
X738600Y130582D01*
D02*
G37*
G36*
X687802Y130580D02*
X685322Y130254D01*
X683011Y129297D01*
X681026Y127774D01*
X679503Y125789D01*
X678546Y123478D01*
X678220Y120998D01*
X678546Y118518D01*
X679503Y116207D01*
X681026Y114223D01*
X683011Y112700D01*
X685322Y111743D01*
X687802Y111416D01*
X690282Y111743D01*
X692593Y112700D01*
X694577Y114223D01*
X696100Y116207D01*
X697057Y118518D01*
X697384Y120998D01*
X697057Y123478D01*
X696100Y125789D01*
X694577Y127774D01*
X692593Y129297D01*
X690282Y130254D01*
X687802Y130580D01*
D02*
G37*
G36*
X238000Y113182D02*
X235520Y112856D01*
X233209Y111898D01*
X231225Y110375D01*
X229702Y108391D01*
X228745Y106080D01*
X228418Y103600D01*
X228745Y101120D01*
X229702Y98809D01*
X231225Y96825D01*
X233209Y95302D01*
X235520Y94345D01*
X238000Y94018D01*
X240480Y94345D01*
X242791Y95302D01*
X244776Y96825D01*
X246298Y98809D01*
X247255Y101120D01*
X247582Y103600D01*
X247255Y106080D01*
X246298Y108391D01*
X244776Y110375D01*
X242791Y111898D01*
X240480Y112856D01*
X238000Y113182D01*
D02*
G37*
G36*
X611600Y130582D02*
X609120Y130255D01*
X606809Y129298D01*
X604824Y127775D01*
X603302Y125791D01*
X602345Y123480D01*
X602018Y121000D01*
X602345Y118520D01*
X603302Y116209D01*
X604824Y114225D01*
X606809Y112702D01*
X609120Y111745D01*
X611600Y111418D01*
X613696Y111694D01*
X648995Y76395D01*
X650649Y75290D01*
X652600Y74902D01*
X737185D01*
X737861Y73703D01*
X737846Y73632D01*
X734376Y71505D01*
X731204Y68796D01*
X728495Y65624D01*
X726315Y62068D01*
X724719Y58214D01*
X723745Y54158D01*
X723418Y50000D01*
X723745Y45842D01*
X724719Y41786D01*
X726315Y37932D01*
X728495Y34376D01*
X731204Y31204D01*
X734376Y28495D01*
X737932Y26315D01*
X741786Y24719D01*
X745842Y23745D01*
X750000Y23418D01*
X754158Y23745D01*
X758214Y24719D01*
X762068Y26315D01*
X765624Y28495D01*
X768796Y31204D01*
X771505Y34376D01*
X773685Y37932D01*
X775281Y41786D01*
X776255Y45842D01*
X776582Y50000D01*
X776255Y54158D01*
X775281Y58214D01*
X773685Y62068D01*
X771505Y65624D01*
X768796Y68796D01*
X765624Y71505D01*
X762154Y73632D01*
X762139Y73703D01*
X762815Y74902D01*
X845700D01*
Y68500D01*
X864700D01*
Y87500D01*
X845700D01*
Y85098D01*
X654712D01*
X620906Y118904D01*
X621182Y121000D01*
X620855Y123480D01*
X619898Y125791D01*
X618375Y127775D01*
X616391Y129298D01*
X614080Y130255D01*
X611600Y130582D01*
D02*
G37*
G36*
X880600Y87582D02*
X878120Y87255D01*
X875809Y86298D01*
X873824Y84775D01*
X872302Y82791D01*
X871345Y80480D01*
X871018Y78000D01*
X871345Y75520D01*
X872302Y73209D01*
X873824Y71224D01*
X875809Y69702D01*
X878120Y68745D01*
X880600Y68418D01*
X883080Y68745D01*
X885391Y69702D01*
X887375Y71224D01*
X888898Y73209D01*
X889855Y75520D01*
X890182Y78000D01*
X889855Y80480D01*
X888898Y82791D01*
X887375Y84775D01*
X885391Y86298D01*
X883080Y87255D01*
X880600Y87582D01*
D02*
G37*
G36*
X247500Y62300D02*
X228500D01*
Y43300D01*
X247500D01*
Y62300D01*
D02*
G37*
G36*
X1450000Y76582D02*
X1445842Y76255D01*
X1441786Y75281D01*
X1437932Y73685D01*
X1434375Y71505D01*
X1431204Y68796D01*
X1428495Y65624D01*
X1426315Y62068D01*
X1424719Y58214D01*
X1423745Y54158D01*
X1423418Y50000D01*
X1423745Y45842D01*
X1424719Y41786D01*
X1426315Y37932D01*
X1428495Y34376D01*
X1431204Y31204D01*
X1434375Y28495D01*
X1437932Y26315D01*
X1441786Y24719D01*
X1445842Y23745D01*
X1450000Y23418D01*
X1454158Y23745D01*
X1458214Y24719D01*
X1462068Y26315D01*
X1465625Y28495D01*
X1468796Y31204D01*
X1471505Y34376D01*
X1473685Y37932D01*
X1475281Y41786D01*
X1476255Y45842D01*
X1476582Y50000D01*
X1476255Y54158D01*
X1475281Y58214D01*
X1473685Y62068D01*
X1471505Y65624D01*
X1468796Y68796D01*
X1465625Y71505D01*
X1462068Y73685D01*
X1458214Y75281D01*
X1454158Y76255D01*
X1450000Y76582D01*
D02*
G37*
G36*
X50000D02*
X45842Y76255D01*
X41786Y75281D01*
X37932Y73685D01*
X34376Y71505D01*
X31204Y68796D01*
X28495Y65624D01*
X26315Y62068D01*
X24719Y58214D01*
X23745Y54158D01*
X23418Y50000D01*
X23745Y45842D01*
X24719Y41786D01*
X26315Y37932D01*
X28495Y34376D01*
X31204Y31204D01*
X34376Y28495D01*
X37932Y26315D01*
X41786Y24719D01*
X45842Y23745D01*
X50000Y23418D01*
X54158Y23745D01*
X58214Y24719D01*
X62068Y26315D01*
X65624Y28495D01*
X68796Y31204D01*
X71505Y34376D01*
X73685Y37932D01*
X75281Y41786D01*
X76255Y45842D01*
X76582Y50000D01*
X76255Y54158D01*
X75281Y58214D01*
X73685Y62068D01*
X71505Y65624D01*
X68796Y68796D01*
X65624Y71505D01*
X62068Y73685D01*
X58214Y75281D01*
X54158Y76255D01*
X50000Y76582D01*
D02*
G37*
G36*
X128000Y64098D02*
X126049Y63710D01*
X124395Y62605D01*
X123290Y60951D01*
X122902Y59000D01*
Y47000D01*
X111000D01*
Y13000D01*
X145000D01*
Y47000D01*
X133098D01*
Y59000D01*
X132710Y60951D01*
X131605Y62605D01*
X129951Y63710D01*
X128000Y64098D01*
D02*
G37*
G36*
X1019800Y25156D02*
X1018103Y24933D01*
X1016522Y24278D01*
X1015164Y23236D01*
X1014122Y21878D01*
X1013467Y20297D01*
X1013244Y18600D01*
X1013467Y16903D01*
X1014122Y15322D01*
X1015164Y13964D01*
X1016522Y12922D01*
X1018103Y12267D01*
X1019800Y12044D01*
X1021497Y12267D01*
X1023078Y12922D01*
X1024436Y13964D01*
X1025478Y15322D01*
X1026133Y16903D01*
X1026356Y18600D01*
X1026133Y20297D01*
X1025478Y21878D01*
X1024436Y23236D01*
X1023078Y24278D01*
X1021497Y24933D01*
X1019800Y25156D01*
D02*
G37*
G36*
X999500D02*
X997803Y24933D01*
X996222Y24278D01*
X994864Y23236D01*
X993822Y21878D01*
X993167Y20297D01*
X992944Y18600D01*
X993167Y16903D01*
X993822Y15322D01*
X994864Y13964D01*
X996222Y12922D01*
X997803Y12267D01*
X999500Y12044D01*
X1001197Y12267D01*
X1002778Y12922D01*
X1004136Y13964D01*
X1005178Y15322D01*
X1005833Y16903D01*
X1006056Y18600D01*
X1005833Y20297D01*
X1005178Y21878D01*
X1004136Y23236D01*
X1002778Y24278D01*
X1001197Y24933D01*
X999500Y25156D01*
D02*
G37*
%LPD*%
D35*
X168000Y30000D02*
D03*
X128000D02*
D03*
D42*
X743000Y211000D02*
X765000Y189000D01*
X743000Y211000D02*
Y250071D01*
X985000Y470000D02*
X994000Y461000D01*
X1028000D01*
X657000Y155000D02*
X777000D01*
X641000Y171000D02*
X657000Y155000D01*
X786000Y226000D02*
Y261000D01*
X1051000Y40000D02*
Y42000D01*
X778000Y223000D02*
Y269000D01*
X855929Y138000D02*
X865000D01*
X856000Y145000D02*
X975000D01*
X862000Y150000D02*
X883000D01*
X786000Y226000D02*
X862000Y150000D01*
X770000Y223929D02*
X855929Y138000D01*
X883000Y150000D02*
X977071D01*
X778000Y223000D02*
X856000Y145000D01*
X972000Y100000D02*
Y134000D01*
Y100000D02*
X990000Y82000D01*
X1026000D01*
X861000Y223000D02*
X1029280Y391280D01*
X861000Y179000D02*
Y223000D01*
X880000Y179000D02*
Y227858D01*
X871000Y179000D02*
Y225929D01*
X770000Y223929D02*
Y253000D01*
X1044000Y600000D02*
X1059000Y585000D01*
X688000Y600000D02*
X1044000D01*
X686000Y602000D02*
X688000Y600000D01*
X993997Y640000D02*
X1026998Y606999D01*
X912000Y640000D02*
X993997D01*
X638000Y595000D02*
X1034000D01*
X1045000Y584000D01*
X634000Y602000D02*
X686000D01*
X627000Y595000D02*
X634000Y602000D01*
X1045000Y584000D02*
X1046000D01*
X365000Y439000D02*
X365520Y439520D01*
X571480D01*
X683000Y328000D01*
X676000Y302000D02*
X684000D01*
X586022Y414120D02*
X715142Y285000D01*
X365074Y414120D02*
X586022D01*
X721000Y348000D02*
X751000Y318000D01*
X721000Y348000D02*
Y368000D01*
X365074Y388720D02*
X604351D01*
X364280D02*
X365074D01*
X604351D02*
X743000Y250071D01*
X364000Y389000D02*
X364280Y388720D01*
X715571Y284571D02*
X748000Y252142D01*
Y216000D02*
Y252142D01*
Y216000D02*
X776000Y188000D01*
X684000Y302000D02*
X738000Y248000D01*
Y202000D02*
Y248000D01*
Y202000D02*
X752000Y188000D01*
X795000Y180000D02*
X817500Y157500D01*
X703000Y272000D02*
X730000Y245000D01*
X739000Y180000D02*
X795000D01*
X730000Y189000D02*
X739000Y180000D01*
X730000Y189000D02*
Y245000D01*
X880000Y227858D02*
X992622Y340480D01*
X1134926D01*
X871000Y225929D02*
X1010951Y365880D01*
X1134926D01*
X1029280Y391280D02*
X1134926D01*
X1039000Y79400D02*
X1053000Y65400D01*
X1039000Y79400D02*
Y88071D01*
X1034000Y59000D02*
Y86000D01*
Y59000D02*
X1051000Y42000D01*
X975000Y145000D02*
X1034000Y86000D01*
X977071Y150000D02*
X1039000Y88071D01*
X828000Y113000D02*
Y147000D01*
X818000Y157000D02*
X828000Y147000D01*
X881000Y103000D02*
X906000Y78000D01*
X828000Y113000D02*
X838000Y103000D01*
X881000D01*
X906000Y77000D02*
Y78000D01*
X718500Y206500D02*
X719000Y207000D01*
X322500Y206500D02*
X718500D01*
X322000Y206000D02*
X322500Y206500D01*
X238000Y179800D02*
X288200Y230000D01*
X719000D01*
X238800Y206000D02*
X274800Y242000D01*
X719000D01*
X238000Y154400D02*
X302600Y219000D01*
X719000D01*
X305000Y196000D02*
X719000D01*
X238000Y129000D02*
X305000Y196000D01*
X827000Y206000D02*
Y284000D01*
X238000Y154000D02*
Y154400D01*
X237000Y206000D02*
X238800D01*
X737000Y370000D02*
X797000Y310000D01*
Y297000D02*
Y310000D01*
X773000Y306000D02*
Y314000D01*
X728000Y359000D02*
X773000Y314000D01*
X724000Y334757D02*
X724243Y335000D01*
X724000Y320000D02*
Y334757D01*
Y320000D02*
X751000Y293000D01*
X724000Y335000D02*
X724243D01*
X751000Y293000D02*
X777000D01*
X788000Y304000D01*
X721000Y368000D02*
X732000Y379000D01*
X742393D01*
X747393Y374000D01*
X748000D01*
X932000Y75000D02*
X947000Y60000D01*
X932000Y75000D02*
Y76000D01*
X947000Y60000D02*
X968000D01*
X990000Y82000D01*
X881000Y54000D02*
X974000D01*
X989000Y69000D01*
D43*
X854000Y80000D02*
X855000Y79000D01*
X652600Y80000D02*
X854000D01*
X611600Y121000D02*
X652600Y80000D01*
X370000Y568000D02*
X456000D01*
X168000Y366000D02*
X370000Y568000D01*
X168000Y235000D02*
Y366000D01*
X128000Y30000D02*
Y59000D01*
Y29000D02*
Y30000D01*
D44*
X956800Y78000D02*
D03*
X931400D02*
D03*
X906000D02*
D03*
X880600D02*
D03*
X889730Y555340D02*
D03*
X864330D02*
D03*
X838930D02*
D03*
X813530D02*
D03*
X788130D02*
D03*
X711930Y555000D02*
D03*
X686530D02*
D03*
X661130D02*
D03*
X635730D02*
D03*
X611600Y121000D02*
D03*
X738600D02*
D03*
X764000D02*
D03*
X789400D02*
D03*
X814800D02*
D03*
X840200D02*
D03*
X865600D02*
D03*
X891000D02*
D03*
X687802Y120998D02*
D03*
X238000Y78200D02*
D03*
Y103600D02*
D03*
Y129000D02*
D03*
Y154400D02*
D03*
Y179800D02*
D03*
Y205200D02*
D03*
X1053000Y65400D02*
D03*
D45*
X855200Y78000D02*
D03*
X762730Y555340D02*
D03*
X610330Y555000D02*
D03*
X586200Y121000D02*
D03*
X713200D02*
D03*
X662400D02*
D03*
D46*
X1416926Y297080D02*
D03*
Y487080D02*
D03*
X1159926D02*
D03*
Y297080D02*
D03*
X83074Y482920D02*
D03*
Y292920D02*
D03*
X340074D02*
D03*
Y482920D02*
D03*
D47*
X1134926Y340480D02*
D03*
Y365880D02*
D03*
Y391280D02*
D03*
Y416680D02*
D03*
Y442080D02*
D03*
X365074Y439520D02*
D03*
Y414120D02*
D03*
Y388720D02*
D03*
Y363320D02*
D03*
Y337920D02*
D03*
D48*
X238000Y52800D02*
D03*
X1053000Y40000D02*
D03*
D49*
X1019800Y18600D02*
D03*
X1009650Y94800D02*
D03*
X999500Y18600D02*
D03*
D50*
X750000Y650000D02*
D03*
Y50000D02*
D03*
X1450000Y650000D02*
D03*
Y50000D02*
D03*
X50000D02*
D03*
Y650000D02*
D03*
D51*
X656797Y646400D02*
D03*
X612798D02*
D03*
D52*
X765000Y189000D02*
D03*
X986000Y450000D02*
D03*
X844000Y207000D02*
D03*
X846000Y179000D02*
D03*
X791000Y189000D02*
D03*
X1475000Y600000D02*
D03*
X1450000Y550000D02*
D03*
Y250000D02*
D03*
X1475000Y200000D02*
D03*
X1450000Y150000D02*
D03*
X1475000Y100000D02*
D03*
X1400000Y650000D02*
D03*
X1425000Y600000D02*
D03*
X1400000Y550000D02*
D03*
Y450000D02*
D03*
X1425000Y400000D02*
D03*
X1400000Y350000D02*
D03*
Y250000D02*
D03*
X1425000Y200000D02*
D03*
X1400000Y150000D02*
D03*
X1425000Y100000D02*
D03*
X1400000Y50000D02*
D03*
X1350000Y650000D02*
D03*
X1375000Y600000D02*
D03*
X1350000Y550000D02*
D03*
X1375000Y500000D02*
D03*
X1350000Y450000D02*
D03*
X1375000Y400000D02*
D03*
X1350000Y350000D02*
D03*
X1375000Y300000D02*
D03*
X1350000Y250000D02*
D03*
X1375000Y200000D02*
D03*
Y100000D02*
D03*
X1350000Y50000D02*
D03*
X1300000Y650000D02*
D03*
X1325000Y600000D02*
D03*
X1300000Y550000D02*
D03*
X1325000Y500000D02*
D03*
X1300000Y450000D02*
D03*
X1325000Y400000D02*
D03*
X1300000Y350000D02*
D03*
X1325000Y300000D02*
D03*
X1300000Y250000D02*
D03*
X1325000Y200000D02*
D03*
X1300000Y150000D02*
D03*
X1325000Y100000D02*
D03*
X1250000Y650000D02*
D03*
X1275000Y600000D02*
D03*
X1250000Y550000D02*
D03*
X1275000Y500000D02*
D03*
X1250000Y450000D02*
D03*
X1275000Y400000D02*
D03*
X1250000Y350000D02*
D03*
X1275000Y300000D02*
D03*
Y200000D02*
D03*
X1250000Y150000D02*
D03*
X1275000Y100000D02*
D03*
X1200000Y650000D02*
D03*
X1225000Y600000D02*
D03*
X1200000Y550000D02*
D03*
X1225000Y500000D02*
D03*
X1200000Y450000D02*
D03*
X1225000Y400000D02*
D03*
X1200000Y350000D02*
D03*
X1225000Y300000D02*
D03*
Y200000D02*
D03*
X1200000Y150000D02*
D03*
X1225000Y100000D02*
D03*
X1150000Y650000D02*
D03*
X1175000Y600000D02*
D03*
X1150000Y550000D02*
D03*
Y450000D02*
D03*
X1175000Y400000D02*
D03*
X1150000Y350000D02*
D03*
X1175000Y200000D02*
D03*
X1150000Y150000D02*
D03*
X1175000Y100000D02*
D03*
X1100000Y650000D02*
D03*
X1125000Y600000D02*
D03*
X1100000Y550000D02*
D03*
X1125000Y500000D02*
D03*
X1100000Y450000D02*
D03*
X1125000Y400000D02*
D03*
X1100000Y350000D02*
D03*
X1125000Y300000D02*
D03*
X1100000Y250000D02*
D03*
X1125000Y200000D02*
D03*
X1100000Y150000D02*
D03*
X1125000Y100000D02*
D03*
X1050000Y650000D02*
D03*
X1075000Y600000D02*
D03*
X1050000Y550000D02*
D03*
X1075000Y500000D02*
D03*
X1050000Y450000D02*
D03*
X1075000Y400000D02*
D03*
X1050000Y350000D02*
D03*
Y250000D02*
D03*
X1075000Y200000D02*
D03*
X1050000Y150000D02*
D03*
X1075000Y100000D02*
D03*
X1000000Y650000D02*
D03*
Y550000D02*
D03*
X1025000Y400000D02*
D03*
Y300000D02*
D03*
Y200000D02*
D03*
X950000Y550000D02*
D03*
Y350000D02*
D03*
X975000Y200000D02*
D03*
X925000Y500000D02*
D03*
X900000Y450000D02*
D03*
Y350000D02*
D03*
X925000Y200000D02*
D03*
X850000Y650000D02*
D03*
X875000Y500000D02*
D03*
X850000Y450000D02*
D03*
X875000Y400000D02*
D03*
X850000Y350000D02*
D03*
X875000Y300000D02*
D03*
X800000Y650000D02*
D03*
Y550000D02*
D03*
X825000Y500000D02*
D03*
X800000Y450000D02*
D03*
X825000Y400000D02*
D03*
X800000Y350000D02*
D03*
X825000Y300000D02*
D03*
X800000Y150000D02*
D03*
X825000Y100000D02*
D03*
X800000Y50000D02*
D03*
X775000Y500000D02*
D03*
X750000Y450000D02*
D03*
X775000Y400000D02*
D03*
Y100000D02*
D03*
X700000Y650000D02*
D03*
X725000Y500000D02*
D03*
X700000Y450000D02*
D03*
X725000Y400000D02*
D03*
X700000Y350000D02*
D03*
Y50000D02*
D03*
X675000Y500000D02*
D03*
X650000Y450000D02*
D03*
X675000Y400000D02*
D03*
X650000Y250000D02*
D03*
Y150000D02*
D03*
X600000Y650000D02*
D03*
X625000Y500000D02*
D03*
X600000Y450000D02*
D03*
X625000Y400000D02*
D03*
X600000Y350000D02*
D03*
X625000Y300000D02*
D03*
X600000Y250000D02*
D03*
X550000Y650000D02*
D03*
Y550000D02*
D03*
X575000Y500000D02*
D03*
X550000Y450000D02*
D03*
X575000Y400000D02*
D03*
X550000Y350000D02*
D03*
X575000Y300000D02*
D03*
X550000Y250000D02*
D03*
X575000Y100000D02*
D03*
X500000Y650000D02*
D03*
Y550000D02*
D03*
Y450000D02*
D03*
X525000Y400000D02*
D03*
Y300000D02*
D03*
X500000Y150000D02*
D03*
X525000Y100000D02*
D03*
X450000Y650000D02*
D03*
X475000Y400000D02*
D03*
X450000Y350000D02*
D03*
X475000Y300000D02*
D03*
X450000Y250000D02*
D03*
Y150000D02*
D03*
X475000Y100000D02*
D03*
X400000Y650000D02*
D03*
Y450000D02*
D03*
X425000Y400000D02*
D03*
X400000Y350000D02*
D03*
X425000Y300000D02*
D03*
X400000Y250000D02*
D03*
Y150000D02*
D03*
X425000Y100000D02*
D03*
X350000Y650000D02*
D03*
X375000Y600000D02*
D03*
Y500000D02*
D03*
X350000Y450000D02*
D03*
X375000Y400000D02*
D03*
X350000Y350000D02*
D03*
X375000Y300000D02*
D03*
X350000Y250000D02*
D03*
Y150000D02*
D03*
X375000Y100000D02*
D03*
X300000Y650000D02*
D03*
X325000Y600000D02*
D03*
X300000Y550000D02*
D03*
Y450000D02*
D03*
X325000Y400000D02*
D03*
X300000Y350000D02*
D03*
Y250000D02*
D03*
Y150000D02*
D03*
X325000Y100000D02*
D03*
X250000Y650000D02*
D03*
X275000Y600000D02*
D03*
X250000Y550000D02*
D03*
X275000Y500000D02*
D03*
Y400000D02*
D03*
X250000Y350000D02*
D03*
X275000Y300000D02*
D03*
X250000Y250000D02*
D03*
X275000Y100000D02*
D03*
X200000Y650000D02*
D03*
X225000Y600000D02*
D03*
X200000Y550000D02*
D03*
X225000Y500000D02*
D03*
X200000Y450000D02*
D03*
X225000Y400000D02*
D03*
X200000Y350000D02*
D03*
X225000Y300000D02*
D03*
X200000Y250000D02*
D03*
X225000Y200000D02*
D03*
X200000Y150000D02*
D03*
X225000Y100000D02*
D03*
X200000Y50000D02*
D03*
X150000Y650000D02*
D03*
X175000Y600000D02*
D03*
X150000Y550000D02*
D03*
X175000Y500000D02*
D03*
X150000Y450000D02*
D03*
X175000Y400000D02*
D03*
X150000Y350000D02*
D03*
Y250000D02*
D03*
Y150000D02*
D03*
Y50000D02*
D03*
X100000Y650000D02*
D03*
X125000Y600000D02*
D03*
X100000Y550000D02*
D03*
X125000Y500000D02*
D03*
X100000Y450000D02*
D03*
X125000Y400000D02*
D03*
X100000Y350000D02*
D03*
X125000Y300000D02*
D03*
X100000Y250000D02*
D03*
X125000Y200000D02*
D03*
X100000Y150000D02*
D03*
X125000Y100000D02*
D03*
X100000Y50000D02*
D03*
X75000Y600000D02*
D03*
X50000Y550000D02*
D03*
Y450000D02*
D03*
X75000Y400000D02*
D03*
X50000Y350000D02*
D03*
Y250000D02*
D03*
X75000Y200000D02*
D03*
X50000Y150000D02*
D03*
X75000Y100000D02*
D03*
X985000Y470000D02*
D03*
X1028000Y461000D02*
D03*
X641000Y171000D02*
D03*
X786000Y261000D02*
D03*
X778000Y269000D02*
D03*
X865000Y138000D02*
D03*
X972000Y134000D02*
D03*
X861000Y179000D02*
D03*
X777000Y155000D02*
D03*
X880000Y179000D02*
D03*
X871000D02*
D03*
X1059000Y585000D02*
D03*
X1026998Y606999D02*
D03*
X1046000Y584000D02*
D03*
X627000Y595000D02*
D03*
X638000D02*
D03*
X683000Y328000D02*
D03*
X676000Y302000D02*
D03*
X770000Y253000D02*
D03*
X752000Y188000D02*
D03*
X776000D02*
D03*
X703000Y272000D02*
D03*
X719000Y230000D02*
D03*
Y242000D02*
D03*
Y219000D02*
D03*
Y207000D02*
D03*
Y196000D02*
D03*
X827000Y284000D02*
D03*
Y206000D02*
D03*
X322000D02*
D03*
X912000Y640000D02*
D03*
X797000Y297000D02*
D03*
X773000Y306000D02*
D03*
X751000Y318000D02*
D03*
X724000Y335000D02*
D03*
X788000Y304000D02*
D03*
X728000Y359000D02*
D03*
X737000Y370000D02*
D03*
X748000Y374000D02*
D03*
X456000Y568000D02*
D03*
X168000Y235000D02*
D03*
X128000Y59000D02*
D03*
X881000Y54000D02*
D03*
X1026000Y82000D02*
D03*
X989000Y69000D02*
D03*
%TF.MD5,3eaa0f29ed7432d50424d7bdafe564a2*%
M02*
