%TF.GenerationSoftware,Altium Limited,Altium NEXUS,2.1.9 (83)*%
G04 Layer_Color=255*
%FSLAX44Y44*%
%MOMM*%
%TF.FileFunction,Pads,Bot*%
%TF.Part,Single*%
G01*
G75*
%TA.AperFunction,SMDPad,CuDef*%
%ADD35R,3.0000X3.0000*%
%TA.AperFunction,ComponentPad*%
%ADD44C,1.6000*%
%ADD45R,1.6000X1.6000*%
%ADD46C,4.0000*%
%ADD47C,1.5240*%
%ADD48R,1.6000X1.6000*%
%ADD49C,1.0000*%
%TA.AperFunction,WasherPad*%
%ADD50C,5.0000*%
%TA.AperFunction,ComponentPad*%
%ADD51C,0.9000*%
D35*
X168000Y30000D02*
D03*
X128000D02*
D03*
D44*
X956800Y78000D02*
D03*
X931400D02*
D03*
X906000D02*
D03*
X880600D02*
D03*
X889730Y555340D02*
D03*
X864330D02*
D03*
X838930D02*
D03*
X813530D02*
D03*
X788130D02*
D03*
X711930Y555000D02*
D03*
X686530D02*
D03*
X661130D02*
D03*
X635730D02*
D03*
X611600Y121000D02*
D03*
X738600D02*
D03*
X764000D02*
D03*
X789400D02*
D03*
X814800D02*
D03*
X840200D02*
D03*
X865600D02*
D03*
X891000D02*
D03*
X687802Y120998D02*
D03*
X238000Y78200D02*
D03*
Y103600D02*
D03*
Y129000D02*
D03*
Y154400D02*
D03*
Y179800D02*
D03*
Y205200D02*
D03*
X1053000Y65400D02*
D03*
D45*
X855200Y78000D02*
D03*
X762730Y555340D02*
D03*
X610330Y555000D02*
D03*
X586200Y121000D02*
D03*
X713200D02*
D03*
X662400D02*
D03*
D46*
X1416926Y297080D02*
D03*
Y487080D02*
D03*
X1159926D02*
D03*
Y297080D02*
D03*
X83074Y482920D02*
D03*
Y292920D02*
D03*
X340074D02*
D03*
Y482920D02*
D03*
D47*
X1134926Y340480D02*
D03*
Y365880D02*
D03*
Y391280D02*
D03*
Y416680D02*
D03*
Y442080D02*
D03*
X365074Y439520D02*
D03*
Y414120D02*
D03*
Y388720D02*
D03*
Y363320D02*
D03*
Y337920D02*
D03*
D48*
X238000Y52800D02*
D03*
X1053000Y40000D02*
D03*
D49*
X1019800Y18600D02*
D03*
X1009650Y94800D02*
D03*
X999500Y18600D02*
D03*
D50*
X750000Y650000D02*
D03*
Y50000D02*
D03*
X1450000Y650000D02*
D03*
Y50000D02*
D03*
X50000D02*
D03*
Y650000D02*
D03*
D51*
X656797Y646400D02*
D03*
X612798D02*
D03*
%TF.MD5,945e8c201cd1481e78e49fac04f4204f*%
M02*
