%TF.GenerationSoftware,Altium Limited,Altium NEXUS,2.1.9 (83)*%
G04 Layer_Color=255*
%FSLAX44Y44*%
%MOMM*%
%TF.FileFunction,Pads,Top*%
%TF.Part,Single*%
G01*
G75*
%TA.AperFunction,SMDPad,CuDef*%
%ADD11R,1.2000X0.3000*%
%ADD12R,0.3000X1.2000*%
%ADD13R,0.9000X1.0000*%
%ADD14R,0.8000X0.7000*%
%ADD15R,0.7000X0.8000*%
%ADD16R,1.3000X1.0000*%
%ADD17R,1.0000X1.0000*%
%ADD18R,0.8000X0.6000*%
%ADD19R,0.6000X0.8000*%
G04:AMPARAMS|DCode=20|XSize=1.97mm|YSize=0.6mm|CornerRadius=0.075mm|HoleSize=0mm|Usage=FLASHONLY|Rotation=270.000|XOffset=0mm|YOffset=0mm|HoleType=Round|Shape=RoundedRectangle|*
%AMROUNDEDRECTD20*
21,1,1.9700,0.4500,0,0,270.0*
21,1,1.8200,0.6000,0,0,270.0*
1,1,0.1500,-0.2250,-0.9100*
1,1,0.1500,-0.2250,0.9100*
1,1,0.1500,0.2250,0.9100*
1,1,0.1500,0.2250,-0.9100*
%
%ADD20ROUNDEDRECTD20*%
%ADD21R,0.6100X1.6100*%
%ADD22R,1.6100X0.6100*%
%ADD23R,1.5240X1.0160*%
%ADD24R,1.0160X1.5240*%
%ADD25R,1.0500X1.0000*%
%ADD26R,2.2000X1.0500*%
%ADD27R,1.1000X1.0000*%
%ADD28R,0.8000X2.0000*%
%ADD29R,0.3480X1.3970*%
G04:AMPARAMS|DCode=30|XSize=0.675mm|YSize=0.25mm|CornerRadius=0mm|HoleSize=0mm|Usage=FLASHONLY|Rotation=45.000|XOffset=0mm|YOffset=0mm|HoleType=Round|Shape=Rectangle|*
%AMROTATEDRECTD30*
4,1,4,-0.1503,-0.3270,-0.3270,-0.1503,0.1503,0.3270,0.3270,0.1503,-0.1503,-0.3270,0.0*
%
%ADD30ROTATEDRECTD30*%

G04:AMPARAMS|DCode=31|XSize=0.675mm|YSize=0.25mm|CornerRadius=0mm|HoleSize=0mm|Usage=FLASHONLY|Rotation=135.000|XOffset=0mm|YOffset=0mm|HoleType=Round|Shape=Rectangle|*
%AMROTATEDRECTD31*
4,1,4,0.3270,-0.1503,0.1503,-0.3270,-0.3270,0.1503,-0.1503,0.3270,0.3270,-0.1503,0.0*
%
%ADD31ROTATEDRECTD31*%

%TA.AperFunction,BGAPad,CuDef*%
%ADD32C,0.8000*%
%TA.AperFunction,SMDPad,CuDef*%
G04:AMPARAMS|DCode=33|XSize=0.6mm|YSize=0.8mm|CornerRadius=0mm|HoleSize=0mm|Usage=FLASHONLY|Rotation=225.000|XOffset=0mm|YOffset=0mm|HoleType=Round|Shape=Rectangle|*
%AMROTATEDRECTD33*
4,1,4,-0.0707,0.4950,0.4950,-0.0707,0.0707,-0.4950,-0.4950,0.0707,-0.0707,0.4950,0.0*
%
%ADD33ROTATEDRECTD33*%

%ADD34R,1.0000X1.0000*%
%ADD35R,3.0000X3.0000*%
%ADD36R,1.8600X0.9000*%
%ADD37R,1.8600X3.1900*%
%ADD38R,0.9000X1.8600*%
%ADD39R,3.1900X1.8600*%
%ADD40R,0.5000X2.5000*%
%ADD41R,2.0000X2.5000*%
%TA.AperFunction,ComponentPad*%
%ADD44C,1.6000*%
%ADD45R,1.6000X1.6000*%
%ADD46C,4.0000*%
%ADD47C,1.5240*%
%ADD48R,1.6000X1.6000*%
%ADD49C,1.0000*%
%TA.AperFunction,WasherPad*%
%ADD50C,5.0000*%
%TA.AperFunction,ComponentPad*%
%ADD51C,0.9000*%
D11*
X692500Y187500D02*
D03*
Y192500D02*
D03*
Y197500D02*
D03*
Y202500D02*
D03*
Y207500D02*
D03*
Y212500D02*
D03*
Y217500D02*
D03*
Y222500D02*
D03*
Y227500D02*
D03*
Y232500D02*
D03*
Y237500D02*
D03*
Y242500D02*
D03*
Y247500D02*
D03*
Y252500D02*
D03*
Y257500D02*
D03*
Y262500D02*
D03*
X807500D02*
D03*
Y257500D02*
D03*
Y252500D02*
D03*
Y247500D02*
D03*
Y242500D02*
D03*
Y237500D02*
D03*
Y232500D02*
D03*
Y227500D02*
D03*
Y222500D02*
D03*
Y217500D02*
D03*
Y212500D02*
D03*
Y207500D02*
D03*
Y202500D02*
D03*
Y197500D02*
D03*
Y192500D02*
D03*
Y187500D02*
D03*
D12*
X712500Y282500D02*
D03*
X717500D02*
D03*
X722500D02*
D03*
X727500D02*
D03*
X732500D02*
D03*
X737500D02*
D03*
X742500D02*
D03*
X747500D02*
D03*
X752500D02*
D03*
X757500D02*
D03*
X762500D02*
D03*
X767500D02*
D03*
X772500D02*
D03*
X777500D02*
D03*
X782500D02*
D03*
X787500D02*
D03*
Y167500D02*
D03*
X782500D02*
D03*
X777500D02*
D03*
X772500D02*
D03*
X767500D02*
D03*
X762500D02*
D03*
X757500D02*
D03*
X752500D02*
D03*
X747500D02*
D03*
X742500D02*
D03*
X737500D02*
D03*
X732500D02*
D03*
X727500D02*
D03*
X722500D02*
D03*
X717500D02*
D03*
X712500D02*
D03*
D13*
X596500Y85000D02*
D03*
X579500D02*
D03*
Y60000D02*
D03*
X596500D02*
D03*
Y33000D02*
D03*
X579500D02*
D03*
D14*
X1233000Y15000D02*
D03*
X1245000D02*
D03*
X1273000Y15000D02*
D03*
X1261000D02*
D03*
X901000Y652000D02*
D03*
X913000D02*
D03*
X900000Y628000D02*
D03*
X912000D02*
D03*
X444000Y539000D02*
D03*
X456000D02*
D03*
X444000Y554000D02*
D03*
X456000D02*
D03*
X444000Y585000D02*
D03*
X456000D02*
D03*
X1273000Y246000D02*
D03*
X1285000D02*
D03*
X973000Y300000D02*
D03*
X961000D02*
D03*
X506000Y382000D02*
D03*
X494000D02*
D03*
D15*
X975000Y468000D02*
D03*
Y456000D02*
D03*
X1012000Y468000D02*
D03*
Y456000D02*
D03*
X651000Y96000D02*
D03*
Y84000D02*
D03*
Y62000D02*
D03*
Y50000D02*
D03*
Y29000D02*
D03*
Y17000D02*
D03*
D16*
X612000Y157000D02*
D03*
Y173000D02*
D03*
D17*
X658000Y583000D02*
D03*
X674000D02*
D03*
X494000Y619000D02*
D03*
X510000D02*
D03*
D18*
X1246000Y246000D02*
D03*
X1258000D02*
D03*
X1221000Y30000D02*
D03*
X1233000D02*
D03*
X1039000Y595000D02*
D03*
X1027000D02*
D03*
X238000Y26000D02*
D03*
X226000D02*
D03*
X827000Y256000D02*
D03*
X839000D02*
D03*
X931000Y300000D02*
D03*
X943000D02*
D03*
X661000Y175000D02*
D03*
X673000D02*
D03*
X839000Y272000D02*
D03*
X827000D02*
D03*
X839000Y195000D02*
D03*
X827000D02*
D03*
X687000Y149000D02*
D03*
X699000D02*
D03*
D19*
X994000Y459000D02*
D03*
Y471000D02*
D03*
X1075000Y331000D02*
D03*
Y319000D02*
D03*
X631000Y159000D02*
D03*
Y171000D02*
D03*
X703000Y313000D02*
D03*
Y301000D02*
D03*
D20*
X456050Y503750D02*
D03*
X443350D02*
D03*
X430650D02*
D03*
X417950D02*
D03*
Y454250D02*
D03*
X430650D02*
D03*
X443350D02*
D03*
X456050D02*
D03*
D21*
X425250Y553950D02*
D03*
X404750D02*
D03*
X415000Y534050D02*
D03*
D22*
X405050Y595250D02*
D03*
Y574750D02*
D03*
X424950Y585000D02*
D03*
X632950Y83750D02*
D03*
Y104250D02*
D03*
X613050Y94000D02*
D03*
X632950Y49750D02*
D03*
Y70250D02*
D03*
X613050Y60000D02*
D03*
X632950Y15750D02*
D03*
Y36250D02*
D03*
X613050Y26000D02*
D03*
D23*
X1349350Y98900D02*
D03*
Y111600D02*
D03*
Y124300D02*
D03*
Y137000D02*
D03*
Y149700D02*
D03*
Y162400D02*
D03*
Y175100D02*
D03*
D24*
X1336650Y225900D02*
D03*
X1323950D02*
D03*
X1311250D02*
D03*
X1298550D02*
D03*
X1285850D02*
D03*
X1273150D02*
D03*
X1260450D02*
D03*
X1247750D02*
D03*
X1235050D02*
D03*
X1222350D02*
D03*
X1209650D02*
D03*
X1196950D02*
D03*
X1184250D02*
D03*
X1171550D02*
D03*
X1158850D02*
D03*
X1146150D02*
D03*
X1133450D02*
D03*
X1120750D02*
D03*
X1108050D02*
D03*
X1095350D02*
D03*
Y48100D02*
D03*
X1108050D02*
D03*
X1120750D02*
D03*
X1133450D02*
D03*
X1146150D02*
D03*
X1158850D02*
D03*
X1171550D02*
D03*
X1184250D02*
D03*
X1196950D02*
D03*
X1209650D02*
D03*
X1222350D02*
D03*
X1235050D02*
D03*
X1247750D02*
D03*
X1260450D02*
D03*
X1273150D02*
D03*
X1285850D02*
D03*
X1298550D02*
D03*
X1311250D02*
D03*
X1323950D02*
D03*
X1336650D02*
D03*
D25*
X1444000Y212000D02*
D03*
D26*
X1459000Y197250D02*
D03*
Y226750D02*
D03*
D27*
X543500Y85000D02*
D03*
X560500D02*
D03*
X543500Y60000D02*
D03*
X560500D02*
D03*
X543500Y34000D02*
D03*
X560500D02*
D03*
X932500Y652000D02*
D03*
X949500D02*
D03*
X932500Y628000D02*
D03*
X949500D02*
D03*
X1207500Y15000D02*
D03*
X1190500D02*
D03*
X1293500D02*
D03*
X1310500D02*
D03*
X525000Y382000D02*
D03*
X542000D02*
D03*
D28*
X1057347Y392946D02*
D03*
X1012347D02*
D03*
Y322946D02*
D03*
X1057347D02*
D03*
X928648Y323052D02*
D03*
X973648D02*
D03*
Y393052D02*
D03*
X928648D02*
D03*
D29*
X974750Y568560D02*
D03*
X981250D02*
D03*
X987750D02*
D03*
X994250D02*
D03*
X1000750D02*
D03*
X1007250D02*
D03*
X1013750D02*
D03*
X1026750D02*
D03*
X1020250D02*
D03*
X1033250D02*
D03*
X1039750D02*
D03*
X1046250D02*
D03*
X1052750D02*
D03*
X1059250D02*
D03*
X974750Y495440D02*
D03*
X981250D02*
D03*
X987750D02*
D03*
X994250D02*
D03*
X1000750D02*
D03*
X1007250D02*
D03*
X1013750D02*
D03*
X1020250D02*
D03*
X1026750D02*
D03*
X1033250D02*
D03*
X1039750D02*
D03*
X1046250D02*
D03*
X1052750D02*
D03*
X1059250D02*
D03*
D30*
X739305Y342841D02*
D03*
X735770Y346376D02*
D03*
X742841Y339305D02*
D03*
X746376Y335770D02*
D03*
X753624Y364230D02*
D03*
X757159Y360695D02*
D03*
X760695Y357160D02*
D03*
X764230Y353624D02*
D03*
D31*
X739305D02*
D03*
X742841Y357160D02*
D03*
X746376Y360695D02*
D03*
X753624Y339305D02*
D03*
X757159Y342841D02*
D03*
X760695Y346376D02*
D03*
D32*
X1003300Y82100D02*
D03*
Y69400D02*
D03*
Y56700D02*
D03*
Y44000D02*
D03*
Y31300D02*
D03*
X1016000D02*
D03*
Y44000D02*
D03*
Y56700D02*
D03*
Y69400D02*
D03*
Y82100D02*
D03*
D33*
X788485Y322515D02*
D03*
X780000Y331000D02*
D03*
X779243Y313757D02*
D03*
X770757Y322243D02*
D03*
D34*
X592000Y158000D02*
D03*
Y174000D02*
D03*
X570000Y477000D02*
D03*
Y461000D02*
D03*
D35*
X168000Y30000D02*
D03*
X128000D02*
D03*
D36*
X484250Y501000D02*
D03*
Y478000D02*
D03*
Y455000D02*
D03*
D37*
X545750Y478000D02*
D03*
D38*
X540000Y594750D02*
D03*
X517000D02*
D03*
X494000D02*
D03*
D39*
X517000Y533250D02*
D03*
D40*
X650798Y621300D02*
D03*
X642797D02*
D03*
X634798D02*
D03*
X626797D02*
D03*
X618797D02*
D03*
D41*
X679398D02*
D03*
X590197D02*
D03*
X679398Y676100D02*
D03*
X590197D02*
D03*
D44*
X956800Y78000D02*
D03*
X931400D02*
D03*
X906000D02*
D03*
X880600D02*
D03*
X889730Y555340D02*
D03*
X864330D02*
D03*
X838930D02*
D03*
X813530D02*
D03*
X788130D02*
D03*
X711930Y555000D02*
D03*
X686530D02*
D03*
X661130D02*
D03*
X635730D02*
D03*
X611600Y121000D02*
D03*
X738600D02*
D03*
X764000D02*
D03*
X789400D02*
D03*
X814800D02*
D03*
X840200D02*
D03*
X865600D02*
D03*
X891000D02*
D03*
X687802Y120998D02*
D03*
X238000Y78200D02*
D03*
Y103600D02*
D03*
Y129000D02*
D03*
Y154400D02*
D03*
Y179800D02*
D03*
Y205200D02*
D03*
X1053000Y65400D02*
D03*
D45*
X855200Y78000D02*
D03*
X762730Y555340D02*
D03*
X610330Y555000D02*
D03*
X586200Y121000D02*
D03*
X713200D02*
D03*
X662400D02*
D03*
D46*
X1416926Y297080D02*
D03*
Y487080D02*
D03*
X1159926D02*
D03*
Y297080D02*
D03*
X83074Y482920D02*
D03*
Y292920D02*
D03*
X340074D02*
D03*
Y482920D02*
D03*
D47*
X1134926Y340480D02*
D03*
Y365880D02*
D03*
Y391280D02*
D03*
Y416680D02*
D03*
Y442080D02*
D03*
X365074Y439520D02*
D03*
Y414120D02*
D03*
Y388720D02*
D03*
Y363320D02*
D03*
Y337920D02*
D03*
D48*
X238000Y52800D02*
D03*
X1053000Y40000D02*
D03*
D49*
X1019800Y18600D02*
D03*
X1009650Y94800D02*
D03*
X999500Y18600D02*
D03*
D50*
X750000Y650000D02*
D03*
Y50000D02*
D03*
X1450000Y650000D02*
D03*
Y50000D02*
D03*
X50000D02*
D03*
Y650000D02*
D03*
D51*
X656797Y646400D02*
D03*
X612798D02*
D03*
%TF.MD5,93fcfe5f0caaef081db3082c7d9e52f4*%
M02*
