%TF.GenerationSoftware,Altium Limited,Altium NEXUS,2.1.5 (53)*%
G04 Layer_Color=0*
%FSLAX44Y44*%
%MOMM*%
%TF.FileFunction,Other,Mechanical_16*%
%TF.Part,Single*%
G01*
G75*
%TA.AperFunction,NonConductor*%
%ADD76C,0.1524*%
%ADD145C,0.0500*%
D76*
X1316609Y812360D02*
G03*
X1316609Y812360I-762J0D01*
G01*
X1332992Y746252D02*
Y753623D01*
X1319586D02*
X1332992D01*
X1319586D02*
Y816097D01*
X1332992D01*
Y823468D01*
X1410208Y746252D02*
Y753623D01*
X1423614D01*
Y816097D01*
X1410208D02*
X1423614D01*
X1410208D02*
Y823468D01*
X1332992D02*
X1340363D01*
Y836874D01*
X1402837D01*
Y823468D02*
Y836874D01*
Y823468D02*
X1410208D01*
X1332992Y746252D02*
X1340363D01*
Y732846D02*
Y746252D01*
Y732846D02*
X1402837D01*
Y746252D01*
X1410208D01*
X1338016Y805744D02*
X1350716Y818444D01*
X1338016Y751276D02*
Y818444D01*
Y751276D02*
X1405184D01*
Y818444D01*
X1338016D02*
X1405184D01*
D145*
X64810Y679490D02*
Y862290D01*
X501610D01*
X64810Y679490D02*
X501610D01*
Y738690D01*
X520660D01*
Y803390D01*
X501610D02*
X520660D01*
X501610D02*
Y862290D01*
X936314Y821052D02*
Y899052D01*
X786314D02*
X936314D01*
X786314Y821052D02*
Y899052D01*
Y821052D02*
X936314D01*
X856510Y818620D02*
X1030710D01*
Y644420D02*
Y818620D01*
X856510Y644420D02*
X1030710D01*
X856510D02*
Y818620D01*
X767892Y834434D02*
X783892D01*
Y803434D02*
Y834434D01*
X758892Y803434D02*
X783892D01*
X758892D02*
Y808434D01*
X747792D02*
X758892D01*
X747792Y803434D02*
Y808434D01*
X705792Y803434D02*
X747792D01*
X705792D02*
Y808434D01*
X694692D02*
X705792D01*
X694692Y803434D02*
Y808434D01*
X669692Y803434D02*
X694692D01*
X669692D02*
Y834434D01*
X685692D01*
Y856934D01*
X669692D02*
X685692D01*
X669692D02*
Y889434D01*
X685692D01*
Y905434D01*
X767892D01*
Y888234D02*
Y905434D01*
Y888234D02*
X783892D01*
Y856934D02*
Y888234D01*
X767892Y856934D02*
X783892D01*
X767892Y834434D02*
Y856934D01*
X1511170Y155860D02*
Y305860D01*
X1589170D01*
Y155860D02*
Y305860D01*
X1511170Y155860D02*
X1589170D01*
X87760Y156140D02*
Y306140D01*
X9760Y156140D02*
X87760D01*
X9760D02*
Y306140D01*
X87760D01*
X82680Y1276560D02*
Y1426560D01*
X4680Y1276560D02*
X82680D01*
X4680D02*
Y1426560D01*
X82680D01*
X1510500Y1392840D02*
Y1542840D01*
X1588500D01*
Y1392840D02*
Y1542840D01*
X1510500Y1392840D02*
X1588500D01*
X1509900Y1054030D02*
Y1204030D01*
X1587900D01*
Y1054030D02*
Y1204030D01*
X1509900Y1054030D02*
X1587900D01*
X82680Y1617630D02*
Y1767630D01*
X4680Y1617630D02*
X82680D01*
X4680D02*
Y1767630D01*
X82680D01*
Y1058120D02*
Y1208120D01*
X4680Y1058120D02*
X82680D01*
X4680D02*
Y1208120D01*
X82680D01*
X154650Y1756510D02*
X277150D01*
X154650Y1638110D02*
X277150D01*
Y1756510D01*
X154650Y1638110D02*
Y1756510D01*
X549470Y686390D02*
X555470D01*
Y664790D02*
Y686390D01*
Y664790D02*
X615470D01*
Y686390D01*
X621470D01*
Y728390D01*
X603970D02*
X621470D01*
X603970D02*
Y749990D01*
X566970D02*
X603970D01*
X566970Y728390D02*
Y749990D01*
X549470Y728390D02*
X566970D01*
X549470Y686390D02*
Y728390D01*
X1256900Y836720D02*
X1272900D01*
Y805720D02*
Y836720D01*
X1247900Y805720D02*
X1272900D01*
X1247900D02*
Y810720D01*
X1236800D02*
X1247900D01*
X1236800Y805720D02*
Y810720D01*
X1194800Y805720D02*
X1236800D01*
X1194800D02*
Y810720D01*
X1183700D02*
X1194800D01*
X1183700Y805720D02*
Y810720D01*
X1158700Y805720D02*
X1183700D01*
X1158700D02*
Y836720D01*
X1174700D01*
Y859220D01*
X1158700D02*
X1174700D01*
X1158700D02*
Y891720D01*
X1174700D01*
Y907720D01*
X1256900D01*
Y890520D02*
Y907720D01*
Y890520D02*
X1272900D01*
Y859220D02*
Y890520D01*
X1256900Y859220D02*
X1272900D01*
X1256900Y836720D02*
Y859220D01*
%TF.MD5,bd9fdd972e684ce6e96df910e3936b71*%
M02*
