%TF.GenerationSoftware,Altium Limited,Altium NEXUS,2.1.5 (53)*%
G04 Layer_Color=16711935*
%FSLAX44Y44*%
%MOMM*%
%TF.FileFunction,Soldermask,Bot*%
%TF.Part,Single*%
G01*
G75*
%TA.AperFunction,WasherPad*%
%ADD125C,4.2032*%
%TA.AperFunction,ComponentPad*%
%ADD126C,1.7272*%
%ADD127R,2.0032X2.0032*%
%ADD128C,2.0032*%
%ADD129R,1.8532X1.8532*%
%ADD130C,1.8532*%
%ADD131R,1.8032X1.8032*%
%ADD132R,1.8532X1.8532*%
%ADD133R,1.8032X1.8032*%
%ADD134R,1.9032X1.9032*%
%ADD135C,1.9032*%
%ADD136R,1.9032X1.9032*%
%ADD137C,1.1032*%
%ADD138C,1.8032*%
%ADD139R,1.9812X1.9812*%
%ADD140C,1.9812*%
%ADD141R,4.2032X4.2032*%
D125*
X1380000Y1400000D02*
D03*
X130000Y1420000D02*
D03*
X1000000Y230000D02*
D03*
X600000D02*
D03*
X130000D02*
D03*
X1470000D02*
D03*
D126*
X669290Y581406D02*
D03*
Y121666D02*
D03*
X130810Y581406D02*
D03*
Y120396D02*
D03*
X117602Y1863090D02*
D03*
X143002D02*
D03*
X168402D02*
D03*
X193802D02*
D03*
X117602Y1939290D02*
D03*
X143002D02*
D03*
X168402D02*
D03*
X193802D02*
D03*
X1469240Y581140D02*
D03*
Y120130D02*
D03*
X930760Y579870D02*
D03*
Y120130D02*
D03*
D127*
X105410Y694690D02*
D03*
D128*
X130810D02*
D03*
X156210D02*
D03*
X181610D02*
D03*
X207010D02*
D03*
X232410D02*
D03*
X257810D02*
D03*
X283210D02*
D03*
X308610D02*
D03*
X334010D02*
D03*
X359410D02*
D03*
X384810D02*
D03*
X410210D02*
D03*
X435610D02*
D03*
X461010D02*
D03*
Y847090D02*
D03*
X435610D02*
D03*
X410210D02*
D03*
X384810D02*
D03*
X359410D02*
D03*
X334010D02*
D03*
X308610D02*
D03*
X283210D02*
D03*
X257810D02*
D03*
X232410D02*
D03*
X207010D02*
D03*
X181610D02*
D03*
X156210D02*
D03*
X130810D02*
D03*
X105410D02*
D03*
D129*
X913814Y860552D02*
D03*
X1334700Y1931670D02*
D03*
X1334300Y1850390D02*
D03*
X1334700Y1767840D02*
D03*
D130*
X878814Y860552D02*
D03*
X843814D02*
D03*
X808814D02*
D03*
X1060450Y574040D02*
D03*
X1085850Y599440D02*
D03*
Y574040D02*
D03*
X1111250Y599440D02*
D03*
Y574040D02*
D03*
X1136650Y599440D02*
D03*
Y574040D02*
D03*
X1162050Y599440D02*
D03*
Y574040D02*
D03*
X1187450Y599440D02*
D03*
Y574040D02*
D03*
X1212850Y599440D02*
D03*
Y574040D02*
D03*
X1238250Y599440D02*
D03*
Y574040D02*
D03*
X1263650Y599440D02*
D03*
Y574040D02*
D03*
X1289050Y599440D02*
D03*
Y574040D02*
D03*
X1550670Y283360D02*
D03*
Y248360D02*
D03*
Y213360D02*
D03*
X48260Y178640D02*
D03*
Y213640D02*
D03*
Y248640D02*
D03*
X43180Y1299060D02*
D03*
Y1334060D02*
D03*
Y1369060D02*
D03*
X1550000Y1520340D02*
D03*
Y1485340D02*
D03*
Y1450340D02*
D03*
X1549400Y1181530D02*
D03*
Y1146530D02*
D03*
Y1111530D02*
D03*
X43180Y1640130D02*
D03*
Y1675130D02*
D03*
Y1710130D02*
D03*
Y1080620D02*
D03*
Y1115620D02*
D03*
Y1150620D02*
D03*
X1434700Y1931670D02*
D03*
X1409700D02*
D03*
X1384700D02*
D03*
X1359700D02*
D03*
X1359300Y1850390D02*
D03*
X1384300D02*
D03*
X1409300D02*
D03*
X1434300D02*
D03*
X1459300D02*
D03*
X1359700Y1767840D02*
D03*
X1384700D02*
D03*
X1409700D02*
D03*
X1434700D02*
D03*
X1459700D02*
D03*
X1484700D02*
D03*
D131*
X1129030Y751332D02*
D03*
X1393190Y1069340D02*
D03*
X1357630D02*
D03*
X1322070Y1070610D02*
D03*
X1385570Y1493520D02*
D03*
X1351280D02*
D03*
X1316990D02*
D03*
X1573530Y1860550D02*
D03*
Y1786890D02*
D03*
Y1823720D02*
D03*
Y1897380D02*
D03*
Y1934210D02*
D03*
Y1971040D02*
D03*
X209550Y1408430D02*
D03*
X242570D02*
D03*
X275590D02*
D03*
X208280Y1141730D02*
D03*
X242570D02*
D03*
X858774Y493776D02*
D03*
X275590Y1141730D02*
D03*
X1550670Y359664D02*
D03*
X207010Y880110D02*
D03*
D132*
X1060450Y599440D02*
D03*
X1550670Y178360D02*
D03*
X48260Y283640D02*
D03*
X43180Y1404060D02*
D03*
X1550000Y1415340D02*
D03*
X1549400Y1076530D02*
D03*
X43180Y1745130D02*
D03*
Y1185620D02*
D03*
D133*
X1318260Y1205230D02*
D03*
Y1169670D02*
D03*
X1322070Y1370330D02*
D03*
X29210Y695960D02*
D03*
X1216660Y673100D02*
D03*
X1532890Y721360D02*
D03*
X1566418Y746760D02*
D03*
D134*
X1127200Y847090D02*
D03*
X1529640Y624840D02*
D03*
X814578Y599694D02*
D03*
X33020Y623824D02*
D03*
X735382Y599694D02*
D03*
D135*
X1092200Y847090D02*
D03*
X1543050Y1355090D02*
D03*
X1541780Y996390D02*
D03*
X1564640Y624840D02*
D03*
X849578Y599694D02*
D03*
X68020Y623824D02*
D03*
X770382Y599694D02*
D03*
X1541780Y1277620D02*
D03*
X35814Y1541018D02*
D03*
X1541272Y1615440D02*
D03*
X43434Y999236D02*
D03*
D136*
X1543050Y1320090D02*
D03*
X1541780Y961390D02*
D03*
Y1242620D02*
D03*
X35814Y1506018D02*
D03*
X1541272Y1580440D02*
D03*
X43434Y964236D02*
D03*
D137*
X704792Y843534D02*
D03*
X748792D02*
D03*
X1193800Y845820D02*
D03*
X1237800D02*
D03*
D138*
X384810Y880110D02*
D03*
X359410D02*
D03*
X334010D02*
D03*
X308610D02*
D03*
X283210D02*
D03*
X257810D02*
D03*
X232410D02*
D03*
X29210Y848360D02*
D03*
Y822960D02*
D03*
Y797560D02*
D03*
Y772160D02*
D03*
Y721360D02*
D03*
Y746760D02*
D03*
X1216660Y698500D02*
D03*
Y723900D02*
D03*
Y749300D02*
D03*
Y774700D02*
D03*
X1532890Y746760D02*
D03*
Y772160D02*
D03*
Y797560D02*
D03*
Y822960D02*
D03*
X1566418D02*
D03*
Y797560D02*
D03*
Y772160D02*
D03*
D139*
X36830Y1786890D02*
D03*
X1576070Y1723390D02*
D03*
D140*
X62230Y1786890D02*
D03*
X87630D02*
D03*
X113030D02*
D03*
X138430D02*
D03*
X163830D02*
D03*
X189230D02*
D03*
X214630D02*
D03*
X240030D02*
D03*
X265430D02*
D03*
X1550670Y1723390D02*
D03*
X1525270D02*
D03*
X1499870D02*
D03*
X1474470D02*
D03*
X1449070D02*
D03*
X1423670D02*
D03*
X1398270D02*
D03*
X1372870D02*
D03*
X1347470D02*
D03*
D141*
X834390Y59690D02*
D03*
X760730D02*
D03*
%TF.MD5,63f375444d6d42758381ab6002bc6f2f*%
M02*
