%TF.GenerationSoftware,Altium Limited,Altium NEXUS,2.1.5 (53)*%
G04 Layer_Color=32896*
%FSLAX44Y44*%
%MOMM*%
%TF.FileFunction,Legend,Bot*%
%TF.Part,Single*%
G01*
G75*
%TA.AperFunction,NonConductor*%
%ADD74C,0.2000*%
%ADD75C,0.2500*%
%ADD142C,0.1500*%
%ADD143R,4.1000X1.9000*%
D74*
X1339850Y540740D02*
Y632740D01*
X1009650Y540740D02*
Y632740D01*
X1339850D01*
X1009650Y540740D02*
X1339850D01*
D75*
X1061700Y639240D02*
G03*
X1061700Y639240I-1250J0D01*
G01*
D142*
X1048450Y581540D02*
X1038453D01*
X1048450Y571543D01*
Y569044D01*
X1045951Y566545D01*
X1040952D01*
X1038453Y569044D01*
X1043452Y606940D02*
X1048450D01*
X1045951D01*
Y591945D01*
X1043452Y594444D01*
X1311047Y581540D02*
X1301050D01*
X1311047Y571543D01*
Y569044D01*
X1308548Y566545D01*
X1303549D01*
X1301050Y569044D01*
X1316045D02*
X1318544Y566545D01*
X1323543D01*
X1326042Y569044D01*
Y579041D01*
X1323543Y581540D01*
X1318544D01*
X1316045Y579041D01*
Y569044D01*
X1301050Y606940D02*
X1306048D01*
X1303549D01*
Y591945D01*
X1301050Y594444D01*
X1313546Y604441D02*
X1316045Y606940D01*
X1321044D01*
X1323543Y604441D01*
Y594444D01*
X1321044Y591945D01*
X1316045D01*
X1313546Y594444D01*
Y596943D01*
X1316045Y599442D01*
X1323543D01*
D143*
X1174747Y623240D02*
D03*
%TF.MD5,abfb7b70f62f63d84dcf6dc3af0d73c5*%
M02*
