G04*
G04 #@! TF.GenerationSoftware,Altium Limited,Altium NEXUS,2.1.5 (53)*
G04*
G04 Layer_Color=128*
%FSLAX44Y44*%
%MOMM*%
G71*
G01*
G75*
%ADD15C,0.2540*%
%ADD19C,0.0762*%
%ADD21C,0.0254*%
D15*
X700050Y91536D02*
Y611536D01*
X100050Y91536D02*
Y611536D01*
X700050D01*
X100050Y91536D02*
X700050D01*
X1372Y1812090D02*
Y1990090D01*
Y1812090D02*
X309372D01*
Y1990090D01*
X1372D02*
X309372D01*
X900000Y610000D02*
X1500000D01*
X900000Y90000D02*
X1500000D01*
Y610000D01*
X900000Y90000D02*
Y610000D01*
D19*
X1341232Y822796D02*
Y818261D01*
X1339342Y821662D02*
X1343121Y819395D01*
Y821662D02*
X1339342Y819395D01*
D21*
X1397703Y820928D02*
X1400497D01*
Y830834D01*
X1397703D02*
X1400497D01*
X1397703Y820928D02*
Y830834D01*
X1392703Y820928D02*
X1395497D01*
Y830834D01*
X1392703D02*
X1395497D01*
X1392703Y820928D02*
Y830834D01*
X1387703Y820928D02*
X1390497D01*
Y830834D01*
X1387703D02*
X1390497D01*
X1387703Y820928D02*
Y830834D01*
X1382703Y820928D02*
X1385497D01*
Y830834D01*
X1382703D02*
X1385497D01*
X1382703Y820928D02*
Y830834D01*
X1377703Y820928D02*
X1380497D01*
Y830834D01*
X1377703D02*
X1380497D01*
X1377703Y820928D02*
Y830834D01*
X1372703Y820928D02*
X1375497D01*
Y830834D01*
X1372703D02*
X1375497D01*
X1372703Y820928D02*
Y830834D01*
X1367703Y820928D02*
X1370497D01*
Y830834D01*
X1367703D02*
X1370497D01*
X1367703Y820928D02*
Y830834D01*
X1362703Y820928D02*
X1365497D01*
Y830834D01*
X1362703D02*
X1365497D01*
X1362703Y820928D02*
Y830834D01*
X1357703Y820928D02*
X1360497D01*
Y830834D01*
X1357703D02*
X1360497D01*
X1357703Y820928D02*
Y830834D01*
X1352703Y820928D02*
X1355497D01*
Y830834D01*
X1352703D02*
X1355497D01*
X1352703Y820928D02*
Y830834D01*
X1347703Y820928D02*
X1350497D01*
Y830834D01*
X1347703D02*
X1350497D01*
X1347703Y820928D02*
Y830834D01*
X1342703Y820928D02*
X1345497D01*
Y830834D01*
X1342703D02*
X1345497D01*
X1342703Y820928D02*
Y830834D01*
X1335532Y810963D02*
Y813757D01*
X1325626D02*
X1335532D01*
X1325626Y810963D02*
Y813757D01*
Y810963D02*
X1335532D01*
Y805963D02*
Y808757D01*
X1325626D02*
X1335532D01*
X1325626Y805963D02*
Y808757D01*
Y805963D02*
X1335532D01*
Y800963D02*
Y803757D01*
X1325626D02*
X1335532D01*
X1325626Y800963D02*
Y803757D01*
Y800963D02*
X1335532D01*
Y795963D02*
Y798757D01*
X1325626D02*
X1335532D01*
X1325626Y795963D02*
Y798757D01*
Y795963D02*
X1335532D01*
Y790963D02*
Y793757D01*
X1325626D02*
X1335532D01*
X1325626Y790963D02*
Y793757D01*
Y790963D02*
X1335532D01*
Y785963D02*
Y788757D01*
X1325626D02*
X1335532D01*
X1325626Y785963D02*
Y788757D01*
Y785963D02*
X1335532D01*
Y780963D02*
Y783757D01*
X1325626D02*
X1335532D01*
X1325626Y780963D02*
Y783757D01*
Y780963D02*
X1335532D01*
Y775963D02*
Y778757D01*
X1325626D02*
X1335532D01*
X1325626Y775963D02*
Y778757D01*
Y775963D02*
X1335532D01*
Y770963D02*
Y773757D01*
X1325626D02*
X1335532D01*
X1325626Y770963D02*
Y773757D01*
Y770963D02*
X1335532D01*
Y765963D02*
Y768757D01*
X1325626D02*
X1335532D01*
X1325626Y765963D02*
Y768757D01*
Y765963D02*
X1335532D01*
Y760963D02*
Y763757D01*
X1325626D02*
X1335532D01*
X1325626Y760963D02*
Y763757D01*
Y760963D02*
X1335532D01*
Y755963D02*
Y758757D01*
X1325626D02*
X1335532D01*
X1325626Y755963D02*
Y758757D01*
Y755963D02*
X1335532D01*
X1342703Y748792D02*
X1345497D01*
X1342703Y738886D02*
Y748792D01*
Y738886D02*
X1345497D01*
Y748792D01*
X1347703D02*
X1350497D01*
X1347703Y738886D02*
Y748792D01*
Y738886D02*
X1350497D01*
Y748792D01*
X1352703D02*
X1355497D01*
X1352703Y738886D02*
Y748792D01*
Y738886D02*
X1355497D01*
Y748792D01*
X1357703D02*
X1360497D01*
X1357703Y738886D02*
Y748792D01*
Y738886D02*
X1360497D01*
Y748792D01*
X1362703D02*
X1365497D01*
X1362703Y738886D02*
Y748792D01*
Y738886D02*
X1365497D01*
Y748792D01*
X1367703D02*
X1370497D01*
X1367703Y738886D02*
Y748792D01*
Y738886D02*
X1370497D01*
Y748792D01*
X1372703D02*
X1375497D01*
X1372703Y738886D02*
Y748792D01*
Y738886D02*
X1375497D01*
Y748792D01*
X1377703D02*
X1380497D01*
X1377703Y738886D02*
Y748792D01*
Y738886D02*
X1380497D01*
Y748792D01*
X1382703D02*
X1385497D01*
X1382703Y738886D02*
Y748792D01*
Y738886D02*
X1385497D01*
Y748792D01*
X1387703D02*
X1390497D01*
X1387703Y738886D02*
Y748792D01*
Y738886D02*
X1390497D01*
Y748792D01*
X1392703D02*
X1395497D01*
X1392703Y738886D02*
Y748792D01*
Y738886D02*
X1395497D01*
Y748792D01*
X1397703D02*
X1400497D01*
X1397703Y738886D02*
Y748792D01*
Y738886D02*
X1400497D01*
Y748792D01*
X1407668Y755963D02*
Y758757D01*
Y755963D02*
X1417574D01*
Y758757D01*
X1407668D02*
X1417574D01*
X1407668Y760963D02*
Y763757D01*
Y760963D02*
X1417574D01*
Y763757D01*
X1407668D02*
X1417574D01*
X1407668Y765963D02*
Y768757D01*
Y765963D02*
X1417574D01*
Y768757D01*
X1407668D02*
X1417574D01*
X1407668Y770963D02*
Y773757D01*
Y770963D02*
X1417574D01*
Y773757D01*
X1407668D02*
X1417574D01*
X1407668Y775963D02*
Y778757D01*
Y775963D02*
X1417574D01*
Y778757D01*
X1407668D02*
X1417574D01*
X1407668Y780963D02*
Y783757D01*
Y780963D02*
X1417574D01*
Y783757D01*
X1407668D02*
X1417574D01*
X1407668Y785963D02*
Y788757D01*
Y785963D02*
X1417574D01*
Y788757D01*
X1407668D02*
X1417574D01*
X1407668Y790963D02*
Y793757D01*
Y790963D02*
X1417574D01*
Y793757D01*
X1407668D02*
X1417574D01*
X1407668Y795963D02*
Y798757D01*
Y795963D02*
X1417574D01*
Y798757D01*
X1407668D02*
X1417574D01*
X1407668Y800963D02*
Y803757D01*
Y800963D02*
X1417574D01*
Y803757D01*
X1407668D02*
X1417574D01*
X1407668Y805963D02*
Y808757D01*
Y805963D02*
X1417574D01*
Y808757D01*
X1407668D02*
X1417574D01*
X1407668Y810963D02*
Y813757D01*
Y810963D02*
X1417574D01*
Y813757D01*
X1407668D02*
X1417574D01*
X1335532Y808228D02*
X1348232Y820928D01*
X1335532Y748792D02*
X1407668D01*
Y820928D01*
X1335532D02*
X1407668D01*
X1335532Y748792D02*
Y820928D01*
M02*
