G04*
G04 #@! TF.GenerationSoftware,Altium Limited,Altium NEXUS,2.1.5 (53)*
G04*
G04 Layer_Color=32896*
%FSLAX44Y44*%
%MOMM*%
G71*
G01*
G75*
%ADD10C,0.2000*%
%ADD11C,0.2500*%
%ADD15C,0.2540*%
%ADD19C,0.0762*%
%ADD21C,0.0254*%
%ADD141C,0.1500*%
%ADD142R,4.1000X1.9000*%
D10*
X1339850Y540740D02*
Y632740D01*
X1009650Y540740D02*
Y632740D01*
X1339850D01*
X1009650Y540740D02*
X1339850D01*
D11*
X1061700Y639240D02*
G03*
X1061700Y639240I-1250J0D01*
G01*
D15*
X700050Y91536D02*
Y611536D01*
X100050Y91536D02*
Y611536D01*
X700050D01*
X100050Y91536D02*
X700050D01*
X1372Y1812090D02*
Y1990090D01*
Y1812090D02*
X309372D01*
Y1990090D01*
X1372D02*
X309372D01*
X900000Y610000D02*
X1500000D01*
X900000Y90000D02*
X1500000D01*
Y610000D01*
X900000Y90000D02*
Y610000D01*
D19*
X1341232Y822796D02*
Y818261D01*
X1339342Y821662D02*
X1343121Y819395D01*
Y821662D02*
X1339342Y819395D01*
D21*
X1397703Y820928D02*
X1400497D01*
Y830834D01*
X1397703D02*
X1400497D01*
X1397703Y820928D02*
Y830834D01*
X1392703Y820928D02*
X1395497D01*
Y830834D01*
X1392703D02*
X1395497D01*
X1392703Y820928D02*
Y830834D01*
X1387703Y820928D02*
X1390497D01*
Y830834D01*
X1387703D02*
X1390497D01*
X1387703Y820928D02*
Y830834D01*
X1382703Y820928D02*
X1385497D01*
Y830834D01*
X1382703D02*
X1385497D01*
X1382703Y820928D02*
Y830834D01*
X1377703Y820928D02*
X1380497D01*
Y830834D01*
X1377703D02*
X1380497D01*
X1377703Y820928D02*
Y830834D01*
X1372703Y820928D02*
X1375497D01*
Y830834D01*
X1372703D02*
X1375497D01*
X1372703Y820928D02*
Y830834D01*
X1367703Y820928D02*
X1370497D01*
Y830834D01*
X1367703D02*
X1370497D01*
X1367703Y820928D02*
Y830834D01*
X1362703Y820928D02*
X1365497D01*
Y830834D01*
X1362703D02*
X1365497D01*
X1362703Y820928D02*
Y830834D01*
X1357703Y820928D02*
X1360497D01*
Y830834D01*
X1357703D02*
X1360497D01*
X1357703Y820928D02*
Y830834D01*
X1352703Y820928D02*
X1355497D01*
Y830834D01*
X1352703D02*
X1355497D01*
X1352703Y820928D02*
Y830834D01*
X1347703Y820928D02*
X1350497D01*
Y830834D01*
X1347703D02*
X1350497D01*
X1347703Y820928D02*
Y830834D01*
X1342703Y820928D02*
X1345497D01*
Y830834D01*
X1342703D02*
X1345497D01*
X1342703Y820928D02*
Y830834D01*
X1335532Y810963D02*
Y813757D01*
X1325626D02*
X1335532D01*
X1325626Y810963D02*
Y813757D01*
Y810963D02*
X1335532D01*
Y805963D02*
Y808757D01*
X1325626D02*
X1335532D01*
X1325626Y805963D02*
Y808757D01*
Y805963D02*
X1335532D01*
Y800963D02*
Y803757D01*
X1325626D02*
X1335532D01*
X1325626Y800963D02*
Y803757D01*
Y800963D02*
X1335532D01*
Y795963D02*
Y798757D01*
X1325626D02*
X1335532D01*
X1325626Y795963D02*
Y798757D01*
Y795963D02*
X1335532D01*
Y790963D02*
Y793757D01*
X1325626D02*
X1335532D01*
X1325626Y790963D02*
Y793757D01*
Y790963D02*
X1335532D01*
Y785963D02*
Y788757D01*
X1325626D02*
X1335532D01*
X1325626Y785963D02*
Y788757D01*
Y785963D02*
X1335532D01*
Y780963D02*
Y783757D01*
X1325626D02*
X1335532D01*
X1325626Y780963D02*
Y783757D01*
Y780963D02*
X1335532D01*
Y775963D02*
Y778757D01*
X1325626D02*
X1335532D01*
X1325626Y775963D02*
Y778757D01*
Y775963D02*
X1335532D01*
Y770963D02*
Y773757D01*
X1325626D02*
X1335532D01*
X1325626Y770963D02*
Y773757D01*
Y770963D02*
X1335532D01*
Y765963D02*
Y768757D01*
X1325626D02*
X1335532D01*
X1325626Y765963D02*
Y768757D01*
Y765963D02*
X1335532D01*
Y760963D02*
Y763757D01*
X1325626D02*
X1335532D01*
X1325626Y760963D02*
Y763757D01*
Y760963D02*
X1335532D01*
Y755963D02*
Y758757D01*
X1325626D02*
X1335532D01*
X1325626Y755963D02*
Y758757D01*
Y755963D02*
X1335532D01*
X1342703Y748792D02*
X1345497D01*
X1342703Y738886D02*
Y748792D01*
Y738886D02*
X1345497D01*
Y748792D01*
X1347703D02*
X1350497D01*
X1347703Y738886D02*
Y748792D01*
Y738886D02*
X1350497D01*
Y748792D01*
X1352703D02*
X1355497D01*
X1352703Y738886D02*
Y748792D01*
Y738886D02*
X1355497D01*
Y748792D01*
X1357703D02*
X1360497D01*
X1357703Y738886D02*
Y748792D01*
Y738886D02*
X1360497D01*
Y748792D01*
X1362703D02*
X1365497D01*
X1362703Y738886D02*
Y748792D01*
Y738886D02*
X1365497D01*
Y748792D01*
X1367703D02*
X1370497D01*
X1367703Y738886D02*
Y748792D01*
Y738886D02*
X1370497D01*
Y748792D01*
X1372703D02*
X1375497D01*
X1372703Y738886D02*
Y748792D01*
Y738886D02*
X1375497D01*
Y748792D01*
X1377703D02*
X1380497D01*
X1377703Y738886D02*
Y748792D01*
Y738886D02*
X1380497D01*
Y748792D01*
X1382703D02*
X1385497D01*
X1382703Y738886D02*
Y748792D01*
Y738886D02*
X1385497D01*
Y748792D01*
X1387703D02*
X1390497D01*
X1387703Y738886D02*
Y748792D01*
Y738886D02*
X1390497D01*
Y748792D01*
X1392703D02*
X1395497D01*
X1392703Y738886D02*
Y748792D01*
Y738886D02*
X1395497D01*
Y748792D01*
X1397703D02*
X1400497D01*
X1397703Y738886D02*
Y748792D01*
Y738886D02*
X1400497D01*
Y748792D01*
X1407668Y755963D02*
Y758757D01*
Y755963D02*
X1417574D01*
Y758757D01*
X1407668D02*
X1417574D01*
X1407668Y760963D02*
Y763757D01*
Y760963D02*
X1417574D01*
Y763757D01*
X1407668D02*
X1417574D01*
X1407668Y765963D02*
Y768757D01*
Y765963D02*
X1417574D01*
Y768757D01*
X1407668D02*
X1417574D01*
X1407668Y770963D02*
Y773757D01*
Y770963D02*
X1417574D01*
Y773757D01*
X1407668D02*
X1417574D01*
X1407668Y775963D02*
Y778757D01*
Y775963D02*
X1417574D01*
Y778757D01*
X1407668D02*
X1417574D01*
X1407668Y780963D02*
Y783757D01*
Y780963D02*
X1417574D01*
Y783757D01*
X1407668D02*
X1417574D01*
X1407668Y785963D02*
Y788757D01*
Y785963D02*
X1417574D01*
Y788757D01*
X1407668D02*
X1417574D01*
X1407668Y790963D02*
Y793757D01*
Y790963D02*
X1417574D01*
Y793757D01*
X1407668D02*
X1417574D01*
X1407668Y795963D02*
Y798757D01*
Y795963D02*
X1417574D01*
Y798757D01*
X1407668D02*
X1417574D01*
X1407668Y800963D02*
Y803757D01*
Y800963D02*
X1417574D01*
Y803757D01*
X1407668D02*
X1417574D01*
X1407668Y805963D02*
Y808757D01*
Y805963D02*
X1417574D01*
Y808757D01*
X1407668D02*
X1417574D01*
X1407668Y810963D02*
Y813757D01*
Y810963D02*
X1417574D01*
Y813757D01*
X1407668D02*
X1417574D01*
X1335532Y808228D02*
X1348232Y820928D01*
X1335532Y748792D02*
X1407668D01*
Y820928D01*
X1335532D02*
X1407668D01*
X1335532Y748792D02*
Y820928D01*
D141*
X1048450Y581540D02*
X1038453D01*
X1048450Y571543D01*
Y569044D01*
X1045951Y566545D01*
X1040952D01*
X1038453Y569044D01*
X1043452Y606940D02*
X1048450D01*
X1045951D01*
Y591945D01*
X1043452Y594444D01*
X1311047Y581540D02*
X1301050D01*
X1311047Y571543D01*
Y569044D01*
X1308548Y566545D01*
X1303549D01*
X1301050Y569044D01*
X1316045D02*
X1318544Y566545D01*
X1323543D01*
X1326042Y569044D01*
Y579041D01*
X1323543Y581540D01*
X1318544D01*
X1316045Y579041D01*
Y569044D01*
X1301050Y606940D02*
X1306048D01*
X1303549D01*
Y591945D01*
X1301050Y594444D01*
X1313546Y604441D02*
X1316045Y606940D01*
X1321044D01*
X1323543Y604441D01*
Y594444D01*
X1321044Y591945D01*
X1316045D01*
X1313546Y594444D01*
Y596943D01*
X1316045Y599442D01*
X1323543D01*
D142*
X1174747Y623240D02*
D03*
M02*
