G04*
G04 #@! TF.GenerationSoftware,Altium Limited,Altium NEXUS,2.1.8 (74)*
G04*
G04 Layer_Color=8388736*
%FSLAX25Y25*%
%MOIN*%
G70*
G01*
G75*
%ADD53R,0.02402X0.06339*%
%ADD62R,0.05524X0.06312*%
%ADD63R,0.02170X0.06300*%
%ADD64R,0.04343X0.04737*%
%ADD65R,0.06312X0.05524*%
%ADD66R,0.04737X0.11627*%
%ADD67R,0.04737X0.04737*%
%ADD68R,0.06942X0.01902*%
%ADD69R,0.01902X0.06942*%
G04:AMPARAMS|DCode=70|XSize=63.12mil|YSize=53.28mil|CornerRadius=0mil|HoleSize=0mil|Usage=FLASHONLY|Rotation=180.000|XOffset=0mil|YOffset=0mil|HoleType=Round|Shape=Octagon|*
%AMOCTAGOND70*
4,1,8,-0.03156,0.01332,-0.03156,-0.01332,-0.01824,-0.02664,0.01824,-0.02664,0.03156,-0.01332,0.03156,0.01332,0.01824,0.02664,-0.01824,0.02664,-0.03156,0.01332,0.0*
%
%ADD70OCTAGOND70*%

%ADD71R,0.06312X0.05328*%
%ADD72R,0.04737X0.04737*%
%ADD73R,0.04343X0.03950*%
%ADD74R,0.04737X0.06312*%
%ADD75R,0.04737X0.04343*%
%ADD76R,0.08674X0.10642*%
%ADD77R,0.02769X0.10642*%
%ADD78R,0.05131X0.06312*%
%ADD79R,0.03950X0.04343*%
%ADD80R,0.04737X0.05131*%
%ADD81R,0.13200X0.13200*%
%ADD82R,0.05000X0.02000*%
%ADD83R,0.02000X0.05000*%
%ADD84R,0.07887X0.05918*%
G04:AMPARAMS|DCode=85|XSize=157.61mil|YSize=59.18mil|CornerRadius=0mil|HoleSize=0mil|Usage=FLASHONLY|Rotation=270.000|XOffset=0mil|YOffset=0mil|HoleType=Round|Shape=Octagon|*
%AMOCTAGOND85*
4,1,8,-0.01480,-0.07880,0.01480,-0.07880,0.02959,-0.06401,0.02959,0.06401,0.01480,0.07880,-0.01480,0.07880,-0.02959,0.06401,-0.02959,-0.06401,-0.01480,-0.07880,0.0*
%
%ADD85OCTAGOND85*%

%ADD86R,0.05918X0.15761*%
%ADD87R,0.03162X0.08910*%
%ADD88R,0.01103X0.01784*%
%ADD89R,0.09599X0.07591*%
%ADD90R,0.02395X0.02808*%
%ADD91R,0.02395X0.04698*%
%ADD92R,0.08674X0.12217*%
%ADD93R,0.08280X0.08280*%
%ADD94R,0.04343X0.08123*%
%ADD95R,0.13359X0.08123*%
%ADD96R,0.06312X0.05131*%
%ADD97R,0.13005X0.21194*%
%ADD98R,0.06607X0.02572*%
%ADD99R,0.05918X0.07887*%
%ADD100R,0.06556X0.01743*%
%ADD101R,0.01743X0.06556*%
%ADD102C,0.16548*%
%ADD103C,0.06800*%
%ADD104R,0.07887X0.07887*%
%ADD105C,0.07887*%
%ADD106R,0.07296X0.07296*%
%ADD107C,0.07296*%
%ADD108R,0.07099X0.07099*%
%ADD109R,0.07296X0.07296*%
%ADD110R,0.07099X0.07099*%
%ADD111R,0.07493X0.07493*%
%ADD112C,0.07493*%
%ADD113R,0.07493X0.07493*%
%ADD114C,0.04343*%
%ADD115C,0.07099*%
%ADD116R,0.07800X0.07800*%
%ADD117C,0.07800*%
%ADD118R,0.16548X0.16548*%
D53*
X338035Y164417D02*
D03*
X329965D02*
D03*
X334000Y156583D02*
D03*
D62*
X610457Y666000D02*
D03*
X617543D02*
D03*
X316543Y276500D02*
D03*
X309457D02*
D03*
X218957Y299500D02*
D03*
X226043D02*
D03*
X597587Y666000D02*
D03*
X590500D02*
D03*
X577543Y666000D02*
D03*
X570457D02*
D03*
X557543D02*
D03*
X550457D02*
D03*
X537543D02*
D03*
X530457D02*
D03*
X44587Y409500D02*
D03*
X37500D02*
D03*
X35500Y623000D02*
D03*
X42587D02*
D03*
X102957Y384500D02*
D03*
X110043D02*
D03*
X101957Y597500D02*
D03*
X109043D02*
D03*
X85457Y368000D02*
D03*
X92543D02*
D03*
X82457Y581500D02*
D03*
X89543D02*
D03*
X110000Y393500D02*
D03*
X102913D02*
D03*
X109043Y606000D02*
D03*
X101957D02*
D03*
X68457Y368000D02*
D03*
X75543D02*
D03*
X65457Y581500D02*
D03*
X72543D02*
D03*
X589843Y367800D02*
D03*
X582757D02*
D03*
X583457Y606500D02*
D03*
X590543D02*
D03*
X526543Y388000D02*
D03*
X519457D02*
D03*
X525243Y631600D02*
D03*
X518157D02*
D03*
X543043Y404500D02*
D03*
X535957D02*
D03*
X543043Y647500D02*
D03*
X535957D02*
D03*
X519157Y379500D02*
D03*
X526243D02*
D03*
X517957Y623000D02*
D03*
X525043D02*
D03*
X560043Y404500D02*
D03*
X552957D02*
D03*
X560000Y647500D02*
D03*
X552913D02*
D03*
D63*
X220866Y339894D02*
D03*
X223425D02*
D03*
X225984D02*
D03*
X228543D02*
D03*
X231102D02*
D03*
X233661D02*
D03*
X236221D02*
D03*
X238779D02*
D03*
X241339D02*
D03*
X243898D02*
D03*
X246457D02*
D03*
X249016D02*
D03*
X251575D02*
D03*
X254134D02*
D03*
X220866Y311106D02*
D03*
X223425D02*
D03*
X225984D02*
D03*
X228543D02*
D03*
X231102D02*
D03*
X236221D02*
D03*
X233661D02*
D03*
X238779D02*
D03*
X241339D02*
D03*
X243898D02*
D03*
X246457D02*
D03*
X249016D02*
D03*
X251575D02*
D03*
X254134D02*
D03*
D64*
X524946Y510000D02*
D03*
X518254D02*
D03*
X524772Y517500D02*
D03*
X518079D02*
D03*
X252654Y348000D02*
D03*
X259347D02*
D03*
X348640Y225954D02*
D03*
X355333D02*
D03*
X587347Y571000D02*
D03*
X580653D02*
D03*
X587347Y584500D02*
D03*
X580653D02*
D03*
X580653Y564500D02*
D03*
X587347D02*
D03*
X580653Y578000D02*
D03*
X587347D02*
D03*
X589347Y438000D02*
D03*
X582654D02*
D03*
X589347Y451500D02*
D03*
X582654D02*
D03*
X582807Y431500D02*
D03*
X589500D02*
D03*
X582654Y445000D02*
D03*
X589347D02*
D03*
X38154Y673500D02*
D03*
X44846D02*
D03*
X38154Y659500D02*
D03*
X44846D02*
D03*
X44846Y667000D02*
D03*
X38153D02*
D03*
X44846Y653000D02*
D03*
X38153D02*
D03*
X38154Y452500D02*
D03*
X44846D02*
D03*
X38154Y439000D02*
D03*
X44846D02*
D03*
X44846Y446000D02*
D03*
X38153D02*
D03*
X45000Y432500D02*
D03*
X38307D02*
D03*
X525846Y496000D02*
D03*
X519153D02*
D03*
X519153Y489500D02*
D03*
X525846D02*
D03*
X583653Y294000D02*
D03*
X590346D02*
D03*
X505154Y275000D02*
D03*
X511846D02*
D03*
X490154D02*
D03*
X496846D02*
D03*
X583807Y304000D02*
D03*
X590500D02*
D03*
X576500Y294000D02*
D03*
X569807D02*
D03*
X490154Y285000D02*
D03*
X496846D02*
D03*
X590346Y314000D02*
D03*
X583653D02*
D03*
X576346D02*
D03*
X569654D02*
D03*
X511846Y290500D02*
D03*
X505154D02*
D03*
X505154Y284000D02*
D03*
X511846D02*
D03*
X512847Y338000D02*
D03*
X506153D02*
D03*
D65*
X288500Y262957D02*
D03*
Y270043D02*
D03*
X334000Y142043D02*
D03*
Y134957D02*
D03*
X287000Y136957D02*
D03*
Y144043D02*
D03*
X301000Y188257D02*
D03*
Y195343D02*
D03*
X338000Y173657D02*
D03*
Y180743D02*
D03*
X519500Y648457D02*
D03*
Y655543D02*
D03*
Y672957D02*
D03*
Y680043D02*
D03*
D66*
X277874Y291827D02*
D03*
Y270173D02*
D03*
X262126D02*
D03*
Y291827D02*
D03*
D67*
X288350Y292000D02*
D03*
X294650D02*
D03*
X331150Y272500D02*
D03*
X324850D02*
D03*
X315250Y296400D02*
D03*
X308950D02*
D03*
X315650Y268500D02*
D03*
X309350D02*
D03*
X408050Y318300D02*
D03*
X414350D02*
D03*
X411500Y265500D02*
D03*
X417799D02*
D03*
X340650Y318300D02*
D03*
X334350D02*
D03*
X331250Y294200D02*
D03*
X324950D02*
D03*
X525650Y503000D02*
D03*
X519350D02*
D03*
X519350Y524000D02*
D03*
X525650D02*
D03*
X62350Y418000D02*
D03*
X68650D02*
D03*
X59850Y631000D02*
D03*
X66150D02*
D03*
X52350Y409500D02*
D03*
X58650D02*
D03*
X56650Y623000D02*
D03*
X50350D02*
D03*
X103350Y377000D02*
D03*
X109650D02*
D03*
X102350Y590000D02*
D03*
X108650D02*
D03*
X568799Y355500D02*
D03*
X562500D02*
D03*
X566150Y599000D02*
D03*
X559850D02*
D03*
X574650Y363500D02*
D03*
X568350D02*
D03*
X575650Y606500D02*
D03*
X569350D02*
D03*
X526150Y395500D02*
D03*
X519850D02*
D03*
X524650Y639500D02*
D03*
X518350D02*
D03*
X512650Y317000D02*
D03*
X506350D02*
D03*
X512500Y324000D02*
D03*
X506201D02*
D03*
X556450Y332300D02*
D03*
X550150D02*
D03*
X511500Y297000D02*
D03*
X505201D02*
D03*
X512650Y331000D02*
D03*
X506350D02*
D03*
D68*
X341264Y311622D02*
D03*
Y309653D02*
D03*
Y307685D02*
D03*
Y305716D02*
D03*
Y303748D02*
D03*
Y301780D02*
D03*
Y299811D02*
D03*
Y297843D02*
D03*
Y295874D02*
D03*
Y293905D02*
D03*
Y291937D02*
D03*
Y289968D02*
D03*
Y288000D02*
D03*
Y286032D02*
D03*
Y284063D02*
D03*
Y282095D02*
D03*
Y280126D02*
D03*
Y278157D02*
D03*
Y276189D02*
D03*
Y274220D02*
D03*
Y272252D02*
D03*
Y270284D02*
D03*
Y268315D02*
D03*
Y266347D02*
D03*
Y264378D02*
D03*
X401736D02*
D03*
Y266347D02*
D03*
Y268315D02*
D03*
Y270284D02*
D03*
Y272252D02*
D03*
Y274220D02*
D03*
Y276189D02*
D03*
Y278157D02*
D03*
Y280126D02*
D03*
Y282095D02*
D03*
Y284063D02*
D03*
Y286032D02*
D03*
Y288000D02*
D03*
Y289968D02*
D03*
Y291937D02*
D03*
Y293905D02*
D03*
Y295874D02*
D03*
Y297843D02*
D03*
Y299811D02*
D03*
Y301780D02*
D03*
Y303748D02*
D03*
Y305716D02*
D03*
Y307685D02*
D03*
Y309653D02*
D03*
Y311622D02*
D03*
D69*
X347878Y257764D02*
D03*
X349847D02*
D03*
X351815D02*
D03*
X353783D02*
D03*
X355752D02*
D03*
X357720D02*
D03*
X359689D02*
D03*
X361658D02*
D03*
X363626D02*
D03*
X365595D02*
D03*
X367563D02*
D03*
X369531D02*
D03*
X371500D02*
D03*
X373468D02*
D03*
X375437D02*
D03*
X377406D02*
D03*
X379374D02*
D03*
X381343D02*
D03*
X383311D02*
D03*
X385279D02*
D03*
X387248D02*
D03*
X389216D02*
D03*
X391185D02*
D03*
X393154D02*
D03*
X395122D02*
D03*
Y318236D02*
D03*
X393154D02*
D03*
X391185D02*
D03*
X389216D02*
D03*
X387248D02*
D03*
X385279D02*
D03*
X383311D02*
D03*
X381343D02*
D03*
X379374D02*
D03*
X377406D02*
D03*
X375437D02*
D03*
X373468D02*
D03*
X371500D02*
D03*
X369531D02*
D03*
X367563D02*
D03*
X365595D02*
D03*
X363626D02*
D03*
X361658D02*
D03*
X359689D02*
D03*
X357720D02*
D03*
X355752D02*
D03*
X353783D02*
D03*
X351815D02*
D03*
X349847D02*
D03*
X347878D02*
D03*
D70*
X309169Y283850D02*
D03*
X504169Y303850D02*
D03*
D71*
X317831Y290150D02*
D03*
X309169D02*
D03*
X317831Y283850D02*
D03*
X512831Y310150D02*
D03*
X504169D02*
D03*
X512831Y303850D02*
D03*
D72*
X302000Y283650D02*
D03*
Y277350D02*
D03*
X348600Y245850D02*
D03*
Y239550D02*
D03*
X542600Y530350D02*
D03*
Y536650D02*
D03*
X536700Y530650D02*
D03*
Y536950D02*
D03*
X59000Y370350D02*
D03*
Y376650D02*
D03*
X57000Y584500D02*
D03*
Y590799D02*
D03*
X568000Y402650D02*
D03*
Y396350D02*
D03*
Y643650D02*
D03*
Y637350D02*
D03*
X497000Y301650D02*
D03*
Y295350D02*
D03*
X529000Y333350D02*
D03*
Y339650D02*
D03*
X551000Y284650D02*
D03*
Y278350D02*
D03*
D73*
X323500Y265756D02*
D03*
Y260244D02*
D03*
X233500Y298244D02*
D03*
Y303756D02*
D03*
D74*
X316437Y260500D02*
D03*
X308563D02*
D03*
D75*
X430500Y262653D02*
D03*
Y269346D02*
D03*
X437500Y262653D02*
D03*
Y269346D02*
D03*
X424900Y305254D02*
D03*
Y311947D02*
D03*
X444500Y262653D02*
D03*
Y269346D02*
D03*
X451500Y262653D02*
D03*
Y269346D02*
D03*
X465500Y269346D02*
D03*
Y262653D02*
D03*
X458500Y269346D02*
D03*
Y262653D02*
D03*
X395100Y334946D02*
D03*
Y328254D02*
D03*
X211700Y320647D02*
D03*
Y313953D02*
D03*
X203100Y320547D02*
D03*
Y313854D02*
D03*
X112800Y700153D02*
D03*
Y706847D02*
D03*
X489500Y295153D02*
D03*
Y301847D02*
D03*
X543000Y278153D02*
D03*
Y284846D02*
D03*
X534900Y342247D02*
D03*
Y335554D02*
D03*
X570800Y279153D02*
D03*
Y285846D02*
D03*
X578300Y279053D02*
D03*
Y285747D02*
D03*
D76*
X268580Y343793D02*
D03*
X303698D02*
D03*
X268580Y322218D02*
D03*
X303698D02*
D03*
X461102Y344693D02*
D03*
X496220D02*
D03*
X461102Y323118D02*
D03*
X496220D02*
D03*
D77*
X279839Y322218D02*
D03*
X282989D02*
D03*
X286139D02*
D03*
X289288D02*
D03*
X292438D02*
D03*
X472362Y323118D02*
D03*
X475512D02*
D03*
X478661D02*
D03*
X481811D02*
D03*
X484961D02*
D03*
D78*
X299453Y308500D02*
D03*
X293547D02*
D03*
D79*
X240744Y348000D02*
D03*
X246256D02*
D03*
D80*
X211600Y333900D02*
D03*
Y327207D02*
D03*
X203200Y333900D02*
D03*
Y327207D02*
D03*
X287000Y122653D02*
D03*
Y129347D02*
D03*
X301000Y172953D02*
D03*
Y179647D02*
D03*
X212000Y289653D02*
D03*
Y296346D02*
D03*
X110000Y409846D02*
D03*
Y403154D02*
D03*
X109000Y622500D02*
D03*
Y615807D02*
D03*
X518900Y364854D02*
D03*
Y371547D02*
D03*
X518000Y606653D02*
D03*
Y613346D02*
D03*
X570700Y272247D02*
D03*
Y265553D02*
D03*
X578400D02*
D03*
Y272247D02*
D03*
D81*
X546000Y514000D02*
D03*
D82*
X555300Y519900D02*
D03*
Y517900D02*
D03*
Y516000D02*
D03*
Y514000D02*
D03*
Y512000D02*
D03*
Y510100D02*
D03*
Y508100D02*
D03*
X536700D02*
D03*
Y510100D02*
D03*
Y512000D02*
D03*
Y514000D02*
D03*
Y516000D02*
D03*
Y517900D02*
D03*
Y519900D02*
D03*
D83*
X551900Y504700D02*
D03*
X549900D02*
D03*
X548000D02*
D03*
X546000D02*
D03*
X544000D02*
D03*
X542100D02*
D03*
X540100D02*
D03*
Y523300D02*
D03*
X542100D02*
D03*
X544000D02*
D03*
X546000D02*
D03*
X548000D02*
D03*
X549900D02*
D03*
X551900D02*
D03*
D84*
X580000Y496709D02*
D03*
Y485291D02*
D03*
X580000Y476500D02*
D03*
Y465083D02*
D03*
X565000Y527791D02*
D03*
Y539209D02*
D03*
Y548291D02*
D03*
Y559709D02*
D03*
D85*
X555500Y489000D02*
D03*
D86*
Y462228D02*
D03*
D87*
X65000Y686500D02*
D03*
X70000D02*
D03*
X75000D02*
D03*
X80000D02*
D03*
X85000D02*
D03*
X90000D02*
D03*
X95000D02*
D03*
X100000D02*
D03*
X105000D02*
D03*
Y649965D02*
D03*
X100000D02*
D03*
X95000D02*
D03*
X90000D02*
D03*
X85000D02*
D03*
X80000D02*
D03*
X75000D02*
D03*
X70000D02*
D03*
X65000D02*
D03*
D88*
X311449Y160126D02*
D03*
X320551D02*
D03*
D89*
X315992Y157224D02*
D03*
D90*
X312094Y161622D02*
D03*
X314693D02*
D03*
X317291D02*
D03*
X319890D02*
D03*
D91*
Y149378D02*
D03*
X317291D02*
D03*
X314693D02*
D03*
X312094D02*
D03*
D92*
X324500Y108500D02*
D03*
X305209D02*
D03*
X324500Y58264D02*
D03*
X305209D02*
D03*
D93*
X314854Y117516D02*
D03*
Y49248D02*
D03*
D94*
X221445Y266394D02*
D03*
X230500D02*
D03*
X239555D02*
D03*
D95*
X230500Y290606D02*
D03*
D96*
X212500Y275047D02*
D03*
Y280953D02*
D03*
X248000Y280953D02*
D03*
Y275047D02*
D03*
D97*
X80500Y393500D02*
D03*
X77500Y606500D02*
D03*
X547933Y378925D02*
D03*
X548000Y622500D02*
D03*
D98*
X92067Y410134D02*
D03*
Y407575D02*
D03*
Y405016D02*
D03*
Y402457D02*
D03*
Y399898D02*
D03*
Y397339D02*
D03*
Y394779D02*
D03*
Y392220D02*
D03*
Y389661D02*
D03*
Y387102D02*
D03*
Y384543D02*
D03*
Y381984D02*
D03*
Y379425D02*
D03*
Y376866D02*
D03*
X68933D02*
D03*
Y379425D02*
D03*
Y381984D02*
D03*
Y384543D02*
D03*
Y387102D02*
D03*
Y389661D02*
D03*
Y392220D02*
D03*
Y394779D02*
D03*
Y397339D02*
D03*
Y399898D02*
D03*
Y402457D02*
D03*
Y405016D02*
D03*
Y407575D02*
D03*
Y410134D02*
D03*
X89067Y623134D02*
D03*
Y620575D02*
D03*
Y618016D02*
D03*
Y615457D02*
D03*
Y612898D02*
D03*
Y610339D02*
D03*
Y607780D02*
D03*
Y605221D02*
D03*
Y602661D02*
D03*
Y600102D02*
D03*
Y597543D02*
D03*
Y594984D02*
D03*
Y592425D02*
D03*
Y589866D02*
D03*
X65933D02*
D03*
Y592425D02*
D03*
Y594984D02*
D03*
Y597543D02*
D03*
Y600102D02*
D03*
Y602661D02*
D03*
Y605221D02*
D03*
Y607780D02*
D03*
Y610339D02*
D03*
Y612898D02*
D03*
Y615457D02*
D03*
Y618016D02*
D03*
Y620575D02*
D03*
Y623134D02*
D03*
X536366Y362291D02*
D03*
Y364850D02*
D03*
Y367409D02*
D03*
Y369969D02*
D03*
Y372528D02*
D03*
Y375087D02*
D03*
Y377646D02*
D03*
Y380205D02*
D03*
Y382764D02*
D03*
Y385323D02*
D03*
Y387882D02*
D03*
Y390441D02*
D03*
Y393000D02*
D03*
Y395559D02*
D03*
X559500D02*
D03*
Y393000D02*
D03*
Y390441D02*
D03*
Y387882D02*
D03*
Y385323D02*
D03*
Y382764D02*
D03*
Y380205D02*
D03*
Y377646D02*
D03*
Y375087D02*
D03*
Y372528D02*
D03*
Y369969D02*
D03*
Y367409D02*
D03*
Y364850D02*
D03*
Y362291D02*
D03*
X536433Y605866D02*
D03*
Y608425D02*
D03*
Y610984D02*
D03*
Y613543D02*
D03*
Y616102D02*
D03*
Y618661D02*
D03*
Y621220D02*
D03*
Y623779D02*
D03*
Y626339D02*
D03*
Y628898D02*
D03*
Y631457D02*
D03*
Y634016D02*
D03*
Y636575D02*
D03*
Y639134D02*
D03*
X559567D02*
D03*
Y636575D02*
D03*
Y634016D02*
D03*
Y631457D02*
D03*
Y628898D02*
D03*
Y626339D02*
D03*
Y623779D02*
D03*
Y621220D02*
D03*
Y618661D02*
D03*
Y616102D02*
D03*
Y613543D02*
D03*
Y610984D02*
D03*
Y608425D02*
D03*
Y605866D02*
D03*
D99*
X42791Y419500D02*
D03*
X54209D02*
D03*
X39791Y632500D02*
D03*
X51209D02*
D03*
X582791Y358300D02*
D03*
X594209D02*
D03*
X587709Y597500D02*
D03*
X576291D02*
D03*
D100*
X523400Y319827D02*
D03*
Y317858D02*
D03*
Y315890D02*
D03*
Y313921D02*
D03*
Y311953D02*
D03*
Y309984D02*
D03*
Y308016D02*
D03*
Y306047D02*
D03*
Y304079D02*
D03*
Y302110D02*
D03*
Y300142D02*
D03*
Y298173D02*
D03*
X556600D02*
D03*
Y300142D02*
D03*
Y302110D02*
D03*
Y304079D02*
D03*
Y306047D02*
D03*
Y308016D02*
D03*
Y309984D02*
D03*
Y311953D02*
D03*
Y313921D02*
D03*
Y315890D02*
D03*
Y317858D02*
D03*
Y319827D02*
D03*
D101*
X529173Y292400D02*
D03*
X531142D02*
D03*
X533110D02*
D03*
X535079D02*
D03*
X537047D02*
D03*
X539016D02*
D03*
X540984D02*
D03*
X542953D02*
D03*
X544921D02*
D03*
X546890D02*
D03*
X548858D02*
D03*
X550827D02*
D03*
Y325600D02*
D03*
X548858D02*
D03*
X546890D02*
D03*
X544921D02*
D03*
X542953D02*
D03*
X540984D02*
D03*
X539016D02*
D03*
X537047D02*
D03*
X535079D02*
D03*
X533110D02*
D03*
X531142D02*
D03*
X529173D02*
D03*
D102*
X543307Y551181D02*
D03*
X51181Y559055D02*
D03*
X393701Y90551D02*
D03*
X236221D02*
D03*
X51181D02*
D03*
X578740D02*
D03*
D103*
X263500Y228900D02*
D03*
Y47900D02*
D03*
X51500Y228900D02*
D03*
Y47400D02*
D03*
X46300Y733500D02*
D03*
X56300D02*
D03*
X66300D02*
D03*
X76300D02*
D03*
X46300Y763500D02*
D03*
X56300D02*
D03*
X66300D02*
D03*
X76300D02*
D03*
X578441Y228795D02*
D03*
Y47295D02*
D03*
X366441Y228295D02*
D03*
Y47295D02*
D03*
D104*
X41500Y273500D02*
D03*
D105*
X51500D02*
D03*
X61500D02*
D03*
X71500D02*
D03*
X81500D02*
D03*
X91500D02*
D03*
X101500D02*
D03*
X111500D02*
D03*
X121500D02*
D03*
X131500D02*
D03*
X141500D02*
D03*
X151500D02*
D03*
X161500D02*
D03*
X171500D02*
D03*
X181500D02*
D03*
Y333500D02*
D03*
X171500D02*
D03*
X161500D02*
D03*
X151500D02*
D03*
X141500D02*
D03*
X131500D02*
D03*
X121500D02*
D03*
X111500D02*
D03*
X101500D02*
D03*
X91500D02*
D03*
X81500D02*
D03*
X71500D02*
D03*
X61500D02*
D03*
X51500D02*
D03*
X41500D02*
D03*
D106*
X359769Y338800D02*
D03*
X525472Y760500D02*
D03*
X525315Y728500D02*
D03*
X525472Y696000D02*
D03*
D107*
X345990Y338800D02*
D03*
X332210D02*
D03*
X318431D02*
D03*
X417500Y226000D02*
D03*
X427500Y236000D02*
D03*
Y226000D02*
D03*
X437500Y236000D02*
D03*
Y226000D02*
D03*
X447500Y236000D02*
D03*
Y226000D02*
D03*
X457500Y236000D02*
D03*
Y226000D02*
D03*
X467500Y236000D02*
D03*
Y226000D02*
D03*
X477500Y236000D02*
D03*
Y226000D02*
D03*
X487500Y236000D02*
D03*
Y226000D02*
D03*
X497500Y236000D02*
D03*
Y226000D02*
D03*
X507500Y236000D02*
D03*
Y226000D02*
D03*
X610500Y111559D02*
D03*
Y97780D02*
D03*
Y84000D02*
D03*
X19000Y70331D02*
D03*
Y84110D02*
D03*
Y97890D02*
D03*
X17000Y511441D02*
D03*
Y525220D02*
D03*
Y539000D02*
D03*
X610236Y598559D02*
D03*
Y584780D02*
D03*
Y571000D02*
D03*
X610000Y465169D02*
D03*
Y451390D02*
D03*
Y437610D02*
D03*
X17000Y645720D02*
D03*
Y659500D02*
D03*
Y673279D02*
D03*
Y425441D02*
D03*
Y439221D02*
D03*
Y453000D02*
D03*
X564843Y760500D02*
D03*
X555000D02*
D03*
X545157D02*
D03*
X535315D02*
D03*
X535157Y728500D02*
D03*
X545000D02*
D03*
X554843D02*
D03*
X564685D02*
D03*
X574528D02*
D03*
X535315Y696000D02*
D03*
X545157D02*
D03*
X555000D02*
D03*
X564843D02*
D03*
X574685D02*
D03*
X584528D02*
D03*
D108*
X444500Y295800D02*
D03*
X548500Y421000D02*
D03*
X534500D02*
D03*
X520500Y421500D02*
D03*
X545500Y588000D02*
D03*
X532000D02*
D03*
X518500D02*
D03*
X619500Y732500D02*
D03*
Y703500D02*
D03*
Y718000D02*
D03*
Y747000D02*
D03*
Y761500D02*
D03*
Y776000D02*
D03*
X82500Y554500D02*
D03*
X95500D02*
D03*
X108500D02*
D03*
X82000Y449500D02*
D03*
X95500D02*
D03*
X338100Y194400D02*
D03*
X108500Y449500D02*
D03*
X610500Y141600D02*
D03*
X81500Y346500D02*
D03*
D109*
X417500Y236000D02*
D03*
X610500Y70221D02*
D03*
X19000Y111669D02*
D03*
X17000Y552779D02*
D03*
X610236Y557221D02*
D03*
X610000Y423831D02*
D03*
X17000Y687059D02*
D03*
Y466780D02*
D03*
D110*
X519000Y474500D02*
D03*
Y460500D02*
D03*
X520500Y539500D02*
D03*
X11500Y274000D02*
D03*
X479000Y265000D02*
D03*
X603500Y284000D02*
D03*
X616700Y294000D02*
D03*
D111*
X443780Y333500D02*
D03*
X602220Y246000D02*
D03*
X320700Y236100D02*
D03*
X13000Y245600D02*
D03*
X289521Y236100D02*
D03*
D112*
X430000Y333500D02*
D03*
X607500Y533500D02*
D03*
X607000Y392280D02*
D03*
X616000Y246000D02*
D03*
X334479Y236100D02*
D03*
X26779Y245600D02*
D03*
X303300Y236100D02*
D03*
X607000Y503000D02*
D03*
X14100Y606700D02*
D03*
X606800Y636000D02*
D03*
X17100Y393400D02*
D03*
D113*
X607500Y519721D02*
D03*
X607000Y378500D02*
D03*
Y489221D02*
D03*
X14100Y592920D02*
D03*
X606800Y622221D02*
D03*
X17100Y379621D02*
D03*
D114*
X277477Y332100D02*
D03*
X294800D02*
D03*
X470000Y333000D02*
D03*
X487323D02*
D03*
D115*
X151500Y346500D02*
D03*
X141500D02*
D03*
X131500D02*
D03*
X121500D02*
D03*
X111500D02*
D03*
X101500D02*
D03*
X91500D02*
D03*
X11500Y334000D02*
D03*
Y324000D02*
D03*
Y314000D02*
D03*
Y304000D02*
D03*
Y284000D02*
D03*
Y294000D02*
D03*
X479000Y275000D02*
D03*
Y285000D02*
D03*
Y295000D02*
D03*
Y305000D02*
D03*
X603500Y294000D02*
D03*
Y304000D02*
D03*
Y314000D02*
D03*
Y324000D02*
D03*
X616700D02*
D03*
Y314000D02*
D03*
Y304000D02*
D03*
D116*
X14500Y703500D02*
D03*
X620500Y678500D02*
D03*
D117*
X24500Y703500D02*
D03*
X34500D02*
D03*
X44500D02*
D03*
X54500D02*
D03*
X64500D02*
D03*
X74500D02*
D03*
X84500D02*
D03*
X94500D02*
D03*
X104500D02*
D03*
X610500Y678500D02*
D03*
X600500D02*
D03*
X590500D02*
D03*
X580500D02*
D03*
X570500D02*
D03*
X560500D02*
D03*
X550500D02*
D03*
X540500D02*
D03*
X530500D02*
D03*
D118*
X328500Y23500D02*
D03*
X299500D02*
D03*
M02*
