G04*
G04 #@! TF.GenerationSoftware,Altium Limited,Altium NEXUS,2.1.7 (73)*
G04*
G04 Layer_Color=32896*
%FSLAX44Y44*%
%MOMM*%
G71*
G01*
G75*
%ADD14C,0.2540*%
D14*
X593090Y284480D02*
X577855D01*
Y292097D01*
X580394Y294637D01*
X585472D01*
X588012Y292097D01*
Y284480D01*
Y289558D02*
X593090Y294637D01*
Y299715D02*
Y304793D01*
Y302254D01*
X577855D01*
X580394Y299715D01*
X643890Y527050D02*
X628655D01*
Y534668D01*
X631194Y537207D01*
X636273D01*
X638812Y534668D01*
Y527050D01*
Y532128D02*
X643890Y537207D01*
X631194Y542285D02*
X628655Y544824D01*
Y549903D01*
X631194Y552442D01*
X633733D01*
X636273Y549903D01*
Y547363D01*
Y549903D01*
X638812Y552442D01*
X641351D01*
X643890Y549903D01*
Y544824D01*
X641351Y542285D01*
X548640Y284480D02*
X533405D01*
Y292097D01*
X535944Y294637D01*
X541022D01*
X543562Y292097D01*
Y284480D01*
Y289558D02*
X548640Y294637D01*
X533405Y299715D02*
Y309872D01*
X535944D01*
X546101Y299715D01*
X548640D01*
X504190Y283210D02*
X488955D01*
Y290828D01*
X491494Y293367D01*
X496572D01*
X499112Y290828D01*
Y283210D01*
Y288288D02*
X504190Y293367D01*
X488955Y308602D02*
X491494Y303523D01*
X496572Y298445D01*
X501651D01*
X504190Y300984D01*
Y306063D01*
X501651Y308602D01*
X499112D01*
X496572Y306063D01*
Y298445D01*
X449580Y313690D02*
X464815D01*
Y306073D01*
X462276Y303533D01*
X457197D01*
X454658Y306073D01*
Y313690D01*
Y308612D02*
X449580Y303533D01*
X464815Y288298D02*
Y298455D01*
X457197D01*
X459737Y293377D01*
Y290837D01*
X457197Y288298D01*
X452119D01*
X449580Y290837D01*
Y295916D01*
X452119Y298455D01*
X411480Y312420D02*
X426715D01*
Y304802D01*
X424176Y302263D01*
X419098D01*
X416558Y304802D01*
Y312420D01*
Y307342D02*
X411480Y302263D01*
Y289567D02*
X426715D01*
X419098Y297185D01*
Y287028D01*
M02*
