%TF.GenerationSoftware,Altium Limited,Altium NEXUS,2.1.7 (73)*%
G04 Layer_Physical_Order=1*
G04 Layer_Color=255*
%FSLAX44Y44*%
%MOMM*%
%TF.FileFunction,Copper,L1,Top,Signal*%
%TF.Part,Single*%
G01*
G75*
%TA.AperFunction,Conductor*%
%ADD10C,1.1000*%
%ADD11C,0.2540*%
%TA.AperFunction,SMDPad,CuDef*%
%ADD12R,1.6100X0.6100*%
%ADD13R,1.1000X1.3800*%
%ADD14R,1.0000X0.9000*%
%ADD15R,1.0000X1.1000*%
%ADD16R,2.0000X2.5000*%
%ADD17R,0.5000X2.5000*%
%ADD18R,0.8000X0.9000*%
%ADD19R,1.3970X0.3480*%
%ADD20R,0.9000X0.8000*%
%ADD21R,1.0160X1.5240*%
%ADD22R,1.5240X1.0160*%
%ADD23R,0.7000X0.9000*%
%TA.AperFunction,ViaPad*%
%ADD24C,0.6500*%
%TA.AperFunction,WasherPad*%
%ADD25C,1.5240*%
%TA.AperFunction,ComponentPad*%
%ADD26C,0.9000*%
%ADD27R,1.6000X1.6000*%
%ADD28C,1.6000*%
%ADD29C,2.4000*%
%ADD30C,2.2500*%
%ADD31R,1.7000X1.7000*%
%ADD32C,1.7000*%
%ADD33R,1.6000X1.6000*%
G36*
X867126Y914116D02*
Y270794D01*
X256824Y270794D01*
Y914116D01*
X867126Y914116D01*
D02*
G37*
%LPC*%
G36*
X433400Y911318D02*
Y898090D01*
X446628D01*
X446296Y900616D01*
X444831Y904153D01*
X442500Y907190D01*
X439463Y909521D01*
X435926Y910986D01*
X433400Y911318D01*
D02*
G37*
G36*
X430860D02*
X428334Y910986D01*
X424797Y909521D01*
X421760Y907190D01*
X419429Y904153D01*
X417964Y900616D01*
X417632Y898090D01*
X430860D01*
Y911318D01*
D02*
G37*
G36*
X382600D02*
Y898090D01*
X395828D01*
X395496Y900616D01*
X394031Y904153D01*
X391700Y907190D01*
X388663Y909521D01*
X385126Y910986D01*
X382600Y911318D01*
D02*
G37*
G36*
X380060D02*
X377534Y910986D01*
X373997Y909521D01*
X370960Y907190D01*
X368629Y904153D01*
X367164Y900616D01*
X366832Y898090D01*
X380060D01*
Y911318D01*
D02*
G37*
G36*
X633720Y911268D02*
Y898040D01*
X646948D01*
X646616Y900566D01*
X645151Y904103D01*
X642820Y907140D01*
X639783Y909471D01*
X636246Y910936D01*
X633720Y911268D01*
D02*
G37*
G36*
X582920D02*
Y898040D01*
X596148D01*
X595816Y900566D01*
X594351Y904103D01*
X592020Y907140D01*
X588983Y909471D01*
X585446Y910936D01*
X582920Y911268D01*
D02*
G37*
G36*
X631180Y911268D02*
X628654Y910936D01*
X625117Y909471D01*
X622080Y907140D01*
X619749Y904103D01*
X618284Y900566D01*
X617952Y898040D01*
X631180D01*
Y911268D01*
D02*
G37*
G36*
X580380D02*
X577854Y910936D01*
X574317Y909471D01*
X571280Y907140D01*
X568949Y904103D01*
X567484Y900566D01*
X567152Y898040D01*
X580380D01*
Y911268D01*
D02*
G37*
G36*
X548640Y896551D02*
Y892170D01*
X553021D01*
X552824Y893159D01*
X551544Y895074D01*
X549629Y896354D01*
X548640Y896551D01*
D02*
G37*
G36*
X546100D02*
X545111Y896354D01*
X543196Y895074D01*
X541916Y893159D01*
X541719Y892170D01*
X546100D01*
Y896551D01*
D02*
G37*
G36*
X509270D02*
Y892170D01*
X513651D01*
X513454Y893159D01*
X512174Y895074D01*
X510259Y896354D01*
X509270Y896551D01*
D02*
G37*
G36*
X506730D02*
X505741Y896354D01*
X503826Y895074D01*
X502546Y893159D01*
X502349Y892170D01*
X506730D01*
Y896551D01*
D02*
G37*
G36*
X468630D02*
Y892170D01*
X473011D01*
X472814Y893159D01*
X471534Y895074D01*
X469619Y896354D01*
X468630Y896551D01*
D02*
G37*
G36*
X466090D02*
X465101Y896354D01*
X463186Y895074D01*
X461906Y893159D01*
X461709Y892170D01*
X466090D01*
Y896551D01*
D02*
G37*
G36*
X553021Y889630D02*
X548640D01*
Y885249D01*
X549629Y885446D01*
X551544Y886726D01*
X552824Y888641D01*
X553021Y889630D01*
D02*
G37*
G36*
X546100D02*
X541719D01*
X541916Y888641D01*
X543196Y886726D01*
X545111Y885446D01*
X546100Y885249D01*
Y889630D01*
D02*
G37*
G36*
X513651D02*
X509270D01*
Y885249D01*
X510259Y885446D01*
X512174Y886726D01*
X513454Y888641D01*
X513651Y889630D01*
D02*
G37*
G36*
X506730D02*
X502349D01*
X502546Y888641D01*
X503826Y886726D01*
X505741Y885446D01*
X506730Y885249D01*
Y889630D01*
D02*
G37*
G36*
X473011D02*
X468630D01*
Y885249D01*
X469619Y885446D01*
X471534Y886726D01*
X472814Y888641D01*
X473011Y889630D01*
D02*
G37*
G36*
X466090D02*
X461709D01*
X461906Y888641D01*
X463186Y886726D01*
X465101Y885446D01*
X466090Y885249D01*
Y889630D01*
D02*
G37*
G36*
X380060Y895550D02*
X366832D01*
X367164Y893024D01*
X368629Y889487D01*
X370960Y886450D01*
X373997Y884119D01*
X377534Y882654D01*
X380060Y882322D01*
Y895550D01*
D02*
G37*
G36*
X446628Y895550D02*
X433400D01*
Y882322D01*
X435926Y882654D01*
X439463Y884119D01*
X442500Y886450D01*
X444831Y889487D01*
X446296Y893024D01*
X446628Y895550D01*
D02*
G37*
G36*
X430860D02*
X417632D01*
X417964Y893024D01*
X419429Y889487D01*
X421760Y886450D01*
X424797Y884119D01*
X428334Y882654D01*
X430860Y882322D01*
Y895550D01*
D02*
G37*
G36*
X395828Y895550D02*
X382600D01*
Y882322D01*
X385126Y882654D01*
X388663Y884119D01*
X391700Y886450D01*
X394031Y889487D01*
X395496Y893024D01*
X395828Y895550D01*
D02*
G37*
G36*
X646948Y895500D02*
X633720D01*
Y882272D01*
X636246Y882604D01*
X639783Y884069D01*
X642820Y886400D01*
X645151Y889437D01*
X646616Y892974D01*
X646948Y895500D01*
D02*
G37*
G36*
X596148D02*
X582920D01*
Y882272D01*
X585446Y882604D01*
X588983Y884069D01*
X592020Y886400D01*
X594351Y889437D01*
X595816Y892974D01*
X596148Y895500D01*
D02*
G37*
G36*
X631180D02*
X617952D01*
X618284Y892974D01*
X619749Y889437D01*
X622080Y886400D01*
X625117Y884069D01*
X628654Y882604D01*
X631180Y882272D01*
Y895500D01*
D02*
G37*
G36*
X580380D02*
X567152D01*
X567484Y892974D01*
X568949Y889437D01*
X571280Y886400D01*
X574317Y884069D01*
X577854Y882604D01*
X580380Y882272D01*
Y895500D01*
D02*
G37*
G36*
X839470Y903814D02*
X836085Y903480D01*
X832829Y902493D01*
X829829Y900889D01*
X827199Y898731D01*
X825041Y896101D01*
X823437Y893101D01*
X822450Y889846D01*
X822116Y886460D01*
X822450Y883074D01*
X823437Y879819D01*
X825041Y876819D01*
X827199Y874189D01*
X829829Y872031D01*
X832829Y870427D01*
X836085Y869440D01*
X839470Y869106D01*
X842856Y869440D01*
X846111Y870427D01*
X849111Y872031D01*
X851741Y874189D01*
X853899Y876819D01*
X855503Y879819D01*
X856490Y883074D01*
X856824Y886460D01*
X856490Y889846D01*
X855503Y893101D01*
X853899Y896101D01*
X851741Y898731D01*
X849111Y900889D01*
X846111Y902493D01*
X842856Y903480D01*
X839470Y903814D01*
D02*
G37*
G36*
X284480D02*
X281094Y903480D01*
X277839Y902493D01*
X274839Y900889D01*
X272209Y898731D01*
X270051Y896101D01*
X268447Y893101D01*
X267460Y889846D01*
X267126Y886460D01*
X267460Y883074D01*
X268447Y879819D01*
X270051Y876819D01*
X272209Y874189D01*
X274839Y872031D01*
X277839Y870427D01*
X281094Y869440D01*
X284480Y869106D01*
X287866Y869440D01*
X291121Y870427D01*
X294121Y872031D01*
X296751Y874189D01*
X298909Y876819D01*
X300513Y879819D01*
X301500Y883074D01*
X301834Y886460D01*
X301500Y889846D01*
X300513Y893101D01*
X298909Y896101D01*
X296751Y898731D01*
X294121Y900889D01*
X291121Y902493D01*
X287866Y903480D01*
X284480Y903814D01*
D02*
G37*
G36*
X548640Y856551D02*
Y852170D01*
X553021D01*
X552824Y853159D01*
X551544Y855074D01*
X549629Y856354D01*
X548640Y856551D01*
D02*
G37*
G36*
X546100D02*
X545111Y856354D01*
X543196Y855074D01*
X541916Y853159D01*
X541719Y852170D01*
X546100D01*
Y856551D01*
D02*
G37*
G36*
X509270D02*
Y852170D01*
X513651D01*
X513454Y853159D01*
X512174Y855074D01*
X510259Y856354D01*
X509270Y856551D01*
D02*
G37*
G36*
X506730D02*
X505741Y856354D01*
X503826Y855074D01*
X502546Y853159D01*
X502349Y852170D01*
X506730D01*
Y856551D01*
D02*
G37*
G36*
X468630D02*
Y852170D01*
X473011D01*
X472814Y853159D01*
X471534Y855074D01*
X469619Y856354D01*
X468630Y856551D01*
D02*
G37*
G36*
X466090D02*
X465101Y856354D01*
X463186Y855074D01*
X461906Y853159D01*
X461709Y852170D01*
X466090D01*
Y856551D01*
D02*
G37*
G36*
X433400Y860518D02*
Y847290D01*
X446628D01*
X446296Y849816D01*
X444831Y853353D01*
X442500Y856390D01*
X439463Y858721D01*
X435926Y860186D01*
X433400Y860518D01*
D02*
G37*
G36*
X430860D02*
X428334Y860186D01*
X424797Y858721D01*
X421760Y856390D01*
X419429Y853353D01*
X417964Y849816D01*
X417632Y847290D01*
X430860D01*
Y860518D01*
D02*
G37*
G36*
X382600D02*
Y847290D01*
X395828D01*
X395496Y849816D01*
X394031Y853353D01*
X391700Y856390D01*
X388663Y858721D01*
X385126Y860186D01*
X382600Y860518D01*
D02*
G37*
G36*
X380060D02*
X377534Y860186D01*
X373997Y858721D01*
X370960Y856390D01*
X368629Y853353D01*
X367164Y849816D01*
X366832Y847290D01*
X380060D01*
Y860518D01*
D02*
G37*
G36*
X633720Y860468D02*
Y847240D01*
X646948D01*
X646616Y849766D01*
X645151Y853303D01*
X642820Y856340D01*
X639783Y858671D01*
X636246Y860136D01*
X633720Y860468D01*
D02*
G37*
G36*
X582920D02*
Y847240D01*
X596148D01*
X595816Y849766D01*
X594351Y853303D01*
X592020Y856340D01*
X588983Y858671D01*
X585446Y860136D01*
X582920Y860468D01*
D02*
G37*
G36*
X631180D02*
X628654Y860136D01*
X625117Y858671D01*
X622080Y856340D01*
X619749Y853303D01*
X618284Y849766D01*
X617952Y847240D01*
X631180D01*
Y860468D01*
D02*
G37*
G36*
X580380D02*
X577854Y860136D01*
X574317Y858671D01*
X571280Y856340D01*
X568949Y853303D01*
X567484Y849766D01*
X567152Y847240D01*
X580380D01*
Y860468D01*
D02*
G37*
G36*
X553021Y849630D02*
X548640D01*
Y845249D01*
X549629Y845446D01*
X551544Y846726D01*
X552824Y848641D01*
X553021Y849630D01*
D02*
G37*
G36*
X546100D02*
X541719D01*
X541916Y848641D01*
X543196Y846726D01*
X545111Y845446D01*
X546100Y845249D01*
Y849630D01*
D02*
G37*
G36*
X513651D02*
X509270D01*
Y845249D01*
X510259Y845446D01*
X512174Y846726D01*
X513454Y848641D01*
X513651Y849630D01*
D02*
G37*
G36*
X506730D02*
X502349D01*
X502546Y848641D01*
X503826Y846726D01*
X505741Y845446D01*
X506730Y845249D01*
Y849630D01*
D02*
G37*
G36*
X473011D02*
X468630D01*
Y845249D01*
X469619Y845446D01*
X471534Y846726D01*
X472814Y848641D01*
X473011Y849630D01*
D02*
G37*
G36*
X466090D02*
X461709D01*
X461906Y848641D01*
X463186Y846726D01*
X465101Y845446D01*
X466090Y845249D01*
Y849630D01*
D02*
G37*
G36*
X380060Y844750D02*
X366832D01*
X367164Y842224D01*
X368629Y838687D01*
X370960Y835650D01*
X373997Y833319D01*
X377534Y831854D01*
X380060Y831522D01*
Y844750D01*
D02*
G37*
G36*
X446628Y844750D02*
X433400D01*
Y831522D01*
X435926Y831854D01*
X439463Y833319D01*
X442500Y835650D01*
X444831Y838687D01*
X446296Y842224D01*
X446628Y844750D01*
D02*
G37*
G36*
X430860D02*
X417632D01*
X417964Y842224D01*
X419429Y838687D01*
X421760Y835650D01*
X424797Y833319D01*
X428334Y831854D01*
X430860Y831522D01*
Y844750D01*
D02*
G37*
G36*
X395828Y844750D02*
X382600D01*
Y831522D01*
X385126Y831854D01*
X388663Y833319D01*
X391700Y835650D01*
X394031Y838687D01*
X395496Y842224D01*
X395828Y844750D01*
D02*
G37*
G36*
X646948Y844700D02*
X633720D01*
Y831472D01*
X636246Y831804D01*
X639783Y833269D01*
X642820Y835600D01*
X645151Y838637D01*
X646616Y842174D01*
X646948Y844700D01*
D02*
G37*
G36*
X596148D02*
X582920D01*
Y831472D01*
X585446Y831804D01*
X588983Y833269D01*
X592020Y835600D01*
X594351Y838637D01*
X595816Y842174D01*
X596148Y844700D01*
D02*
G37*
G36*
X631180D02*
X617952D01*
X618284Y842174D01*
X619749Y838637D01*
X622080Y835600D01*
X625117Y833269D01*
X628654Y831804D01*
X631180Y831472D01*
Y844700D01*
D02*
G37*
G36*
X580380D02*
X567152D01*
X567484Y842174D01*
X568949Y838637D01*
X571280Y835600D01*
X574317Y833269D01*
X577854Y831804D01*
X580380Y831472D01*
Y844700D01*
D02*
G37*
G36*
X607050Y883998D02*
X603782Y883568D01*
X600736Y882306D01*
X598121Y880299D01*
X596114Y877684D01*
X594852Y874638D01*
X594422Y871370D01*
X594852Y868102D01*
X596114Y865056D01*
X598121Y862441D01*
X600222Y860829D01*
Y841370D01*
X600244Y841201D01*
X599816Y837950D01*
X598495Y834762D01*
X596395Y832025D01*
X593658Y829925D01*
X590471Y828604D01*
X587219Y828176D01*
X587050Y828198D01*
X539750D01*
X539430Y828223D01*
Y828223D01*
X535229Y827892D01*
X531132Y826908D01*
X527239Y825296D01*
X523646Y823094D01*
X520442Y820358D01*
X517706Y817154D01*
X515504Y813561D01*
X513891Y809668D01*
X512908Y805571D01*
X512577Y801370D01*
X512602D01*
Y792480D01*
X508000D01*
Y782320D01*
Y772160D01*
X514350D01*
Y773430D01*
X524510D01*
Y772160D01*
X530860D01*
Y782320D01*
Y792480D01*
X526258D01*
Y801370D01*
X526236Y801539D01*
X526664Y804791D01*
X527985Y807978D01*
X530085Y810715D01*
X532822Y812815D01*
X536009Y814136D01*
X538208Y814425D01*
X539430Y814542D01*
X539547Y814542D01*
X540675Y814542D01*
X587050D01*
Y814517D01*
X591251Y814848D01*
X595348Y815832D01*
X599241Y817444D01*
X602834Y819646D01*
X606038Y822382D01*
X608774Y825586D01*
X610976Y829179D01*
X612589Y833072D01*
X613572Y837169D01*
X613903Y841370D01*
X613878D01*
Y860829D01*
X615979Y862441D01*
X617986Y865056D01*
X619248Y868102D01*
X619678Y871370D01*
X619248Y874638D01*
X617986Y877684D01*
X615979Y880299D01*
X613364Y882306D01*
X610318Y883568D01*
X607050Y883998D01*
D02*
G37*
G36*
X434340Y805751D02*
Y801370D01*
X438721D01*
X438524Y802359D01*
X437244Y804274D01*
X435329Y805554D01*
X434340Y805751D01*
D02*
G37*
G36*
X431800D02*
X430811Y805554D01*
X428896Y804274D01*
X427616Y802359D01*
X427419Y801370D01*
X431800D01*
Y805751D01*
D02*
G37*
G36*
X394970D02*
Y801370D01*
X399351D01*
X399154Y802359D01*
X397874Y804274D01*
X395959Y805554D01*
X394970Y805751D01*
D02*
G37*
G36*
X392430D02*
X391441Y805554D01*
X389526Y804274D01*
X388246Y802359D01*
X388049Y801370D01*
X392430D01*
Y805751D01*
D02*
G37*
G36*
X622930Y804481D02*
Y800100D01*
X627311D01*
X627114Y801089D01*
X625834Y803004D01*
X623919Y804284D01*
X622930Y804481D01*
D02*
G37*
G36*
X620390D02*
X619401Y804284D01*
X617486Y803004D01*
X616206Y801089D01*
X616009Y800100D01*
X620390D01*
Y804481D01*
D02*
G37*
G36*
X582930D02*
Y800100D01*
X587311D01*
X587114Y801089D01*
X585834Y803004D01*
X583919Y804284D01*
X582930Y804481D01*
D02*
G37*
G36*
X580390D02*
X579401Y804284D01*
X577486Y803004D01*
X576206Y801089D01*
X576009Y800100D01*
X580390D01*
Y804481D01*
D02*
G37*
G36*
X438721Y798830D02*
X434340D01*
Y794449D01*
X435329Y794646D01*
X437244Y795926D01*
X438524Y797841D01*
X438721Y798830D01*
D02*
G37*
G36*
X431800D02*
X427419D01*
X427616Y797841D01*
X428896Y795926D01*
X430811Y794646D01*
X431800Y794449D01*
Y798830D01*
D02*
G37*
G36*
X399351D02*
X394970D01*
Y794449D01*
X395959Y794646D01*
X397874Y795926D01*
X399154Y797841D01*
X399351Y798830D01*
D02*
G37*
G36*
X392430D02*
X388049D01*
X388246Y797841D01*
X389526Y795926D01*
X391441Y794646D01*
X392430Y794449D01*
Y798830D01*
D02*
G37*
G36*
X627311Y797560D02*
X622930D01*
Y793179D01*
X623919Y793376D01*
X625834Y794656D01*
X627114Y796571D01*
X627311Y797560D01*
D02*
G37*
G36*
X620390D02*
X616009D01*
X616206Y796571D01*
X617486Y794656D01*
X619401Y793376D01*
X620390Y793179D01*
Y797560D01*
D02*
G37*
G36*
X587311D02*
X582930D01*
Y793179D01*
X583919Y793376D01*
X585834Y794656D01*
X587114Y796571D01*
X587311Y797560D01*
D02*
G37*
G36*
X580390D02*
X576009D01*
X576206Y796571D01*
X577486Y794656D01*
X579401Y793376D01*
X580390Y793179D01*
Y797560D01*
D02*
G37*
G36*
X552450Y792480D02*
X546100D01*
Y783590D01*
X552450D01*
Y792480D01*
D02*
G37*
G36*
X467360D02*
X461010D01*
Y783590D01*
X467360D01*
Y792480D01*
D02*
G37*
G36*
X552450Y781050D02*
X546100D01*
Y772160D01*
X552450D01*
Y781050D01*
D02*
G37*
G36*
X543560Y792480D02*
X533400D01*
Y782320D01*
Y772160D01*
X543560D01*
Y782320D01*
Y792480D01*
D02*
G37*
G36*
X406730Y884048D02*
X403462Y883618D01*
X400416Y882356D01*
X397801Y880349D01*
X395794Y877734D01*
X394532Y874688D01*
X394102Y871420D01*
X394532Y868152D01*
X395794Y865106D01*
X397801Y862491D01*
X399902Y860879D01*
Y841420D01*
X399877D01*
X400208Y837219D01*
X401191Y833122D01*
X402804Y829229D01*
X405006Y825636D01*
X407742Y822432D01*
X410946Y819696D01*
X414539Y817494D01*
X418432Y815882D01*
X422529Y814898D01*
X426730Y814567D01*
Y814567D01*
X427967Y814671D01*
X428950Y814542D01*
X474748D01*
X477451Y814186D01*
X480638Y812866D01*
X483375Y810765D01*
X485476Y808028D01*
X486796Y804841D01*
X487224Y801589D01*
X487202Y801420D01*
Y792480D01*
X482600D01*
Y782320D01*
Y772160D01*
X488950D01*
Y773430D01*
X499110D01*
Y772160D01*
X505460D01*
Y782320D01*
Y792480D01*
X500858D01*
Y801420D01*
X500883D01*
X500552Y805621D01*
X499568Y809718D01*
X497956Y813611D01*
X495754Y817204D01*
X493018Y820408D01*
X489814Y823144D01*
X486221Y825346D01*
X482328Y826958D01*
X478231Y827942D01*
X478037Y827957D01*
X478017Y827966D01*
X476250Y828198D01*
X474975D01*
X474030Y828273D01*
Y828248D01*
X473650Y828198D01*
X428950D01*
X428030Y828077D01*
X426730Y828248D01*
Y828249D01*
X426686Y828210D01*
X423309Y828654D01*
X420122Y829975D01*
X417385Y832075D01*
X415285Y834812D01*
X413964Y837999D01*
X413536Y841251D01*
X413558Y841420D01*
Y860879D01*
X415659Y862491D01*
X417666Y865106D01*
X418928Y868152D01*
X419358Y871420D01*
X418928Y874688D01*
X417666Y877734D01*
X415659Y880349D01*
X413044Y882356D01*
X409998Y883618D01*
X406730Y884048D01*
D02*
G37*
G36*
X480060Y792480D02*
X469900D01*
Y782320D01*
Y772160D01*
X480060D01*
Y782320D01*
Y792480D01*
D02*
G37*
G36*
X467360Y781050D02*
X461010D01*
Y772160D01*
X467360D01*
Y781050D01*
D02*
G37*
G36*
X427990Y777240D02*
X419100D01*
Y770890D01*
X427990D01*
Y777240D01*
D02*
G37*
G36*
X605790D02*
X596900D01*
Y770890D01*
X605790D01*
Y777240D01*
D02*
G37*
G36*
X594360D02*
X585470D01*
Y770890D01*
X594360D01*
Y777240D01*
D02*
G37*
G36*
X416560D02*
X407670D01*
Y770890D01*
X416560D01*
Y777240D01*
D02*
G37*
G36*
X395660Y712690D02*
X389890D01*
Y707420D01*
X395660D01*
Y712690D01*
D02*
G37*
G36*
X387350D02*
X381580D01*
Y707420D01*
X387350D01*
Y712690D01*
D02*
G37*
G36*
X395660Y704880D02*
X389890D01*
Y699610D01*
X395660D01*
Y704880D01*
D02*
G37*
G36*
X387350D02*
X381580D01*
Y699610D01*
X387350D01*
Y704880D01*
D02*
G37*
G36*
X427990Y704850D02*
X417830D01*
X407670D01*
Y698500D01*
X408940D01*
Y694740D01*
X394390D01*
Y697420D01*
X382850D01*
Y686880D01*
X394390D01*
Y689560D01*
X408940D01*
Y683310D01*
X350323D01*
X348528Y685105D01*
X349391Y687190D01*
X349710Y689610D01*
X349391Y692030D01*
X348457Y694285D01*
X346971Y696221D01*
X345035Y697707D01*
X342780Y698641D01*
X340360Y698960D01*
X337940Y698641D01*
X335685Y697707D01*
X333749Y696221D01*
X332263Y694285D01*
X331329Y692030D01*
X331010Y689610D01*
X331329Y687190D01*
X332263Y684935D01*
X333749Y682999D01*
X335685Y681513D01*
X337940Y680579D01*
X340360Y680260D01*
X342780Y680579D01*
X344865Y681442D01*
X347419Y678889D01*
X348259Y678327D01*
X349250Y678130D01*
X408940D01*
Y670610D01*
X347812D01*
X347224Y670493D01*
X346971Y670821D01*
X345035Y672307D01*
X342780Y673241D01*
X340360Y673560D01*
X337940Y673241D01*
X335685Y672307D01*
X333749Y670821D01*
X332263Y668885D01*
X331329Y666630D01*
X331010Y664210D01*
X331329Y661790D01*
X332263Y659535D01*
X333749Y657599D01*
X335685Y656113D01*
X337940Y655179D01*
X340360Y654860D01*
X342780Y655179D01*
X345035Y656113D01*
X346971Y657599D01*
X348457Y659535D01*
X349391Y661790D01*
X349710Y664210D01*
X349675Y664475D01*
X350512Y665430D01*
X408940D01*
Y657910D01*
X356870D01*
X355879Y657713D01*
X355039Y657151D01*
X344865Y646978D01*
X342780Y647841D01*
X340360Y648160D01*
X337940Y647841D01*
X335685Y646907D01*
X333749Y645421D01*
X332263Y643485D01*
X331329Y641230D01*
X331010Y638810D01*
X331329Y636390D01*
X332263Y634135D01*
X333749Y632199D01*
X335685Y630713D01*
X337940Y629779D01*
X340360Y629460D01*
X342780Y629779D01*
X345035Y630713D01*
X346971Y632199D01*
X348457Y634135D01*
X349391Y636390D01*
X349710Y638810D01*
X349391Y641230D01*
X348528Y643315D01*
X357943Y652730D01*
X408940D01*
Y645210D01*
X369570D01*
X368579Y645013D01*
X367739Y644451D01*
X344865Y621578D01*
X342780Y622441D01*
X340360Y622760D01*
X337940Y622441D01*
X335685Y621507D01*
X333749Y620021D01*
X332263Y618085D01*
X331329Y615830D01*
X331010Y613410D01*
X331329Y610990D01*
X332263Y608735D01*
X333749Y606799D01*
X335685Y605313D01*
X337940Y604379D01*
X340360Y604060D01*
X342780Y604379D01*
X345035Y605313D01*
X346971Y606799D01*
X348457Y608735D01*
X349391Y610990D01*
X349710Y613410D01*
X349391Y615830D01*
X348528Y617915D01*
X370643Y640030D01*
X408940D01*
Y632510D01*
X382270D01*
X381279Y632313D01*
X380439Y631751D01*
X344865Y596178D01*
X342780Y597041D01*
X340360Y597360D01*
X337940Y597041D01*
X335685Y596107D01*
X333749Y594621D01*
X332263Y592685D01*
X331329Y590430D01*
X331010Y588010D01*
X331329Y585590D01*
X332263Y583335D01*
X333749Y581399D01*
X335685Y579913D01*
X337940Y578979D01*
X340360Y578660D01*
X342780Y578979D01*
X345035Y579913D01*
X346971Y581399D01*
X348457Y583335D01*
X349391Y585590D01*
X349710Y588010D01*
X349391Y590430D01*
X348528Y592515D01*
X383343Y627330D01*
X408940D01*
Y619810D01*
X394970D01*
X393979Y619613D01*
X393139Y619051D01*
X344865Y570778D01*
X342780Y571641D01*
X340360Y571960D01*
X337940Y571641D01*
X335685Y570707D01*
X333749Y569221D01*
X332263Y567285D01*
X331329Y565030D01*
X331010Y562610D01*
X331329Y560190D01*
X332263Y557935D01*
X333749Y555999D01*
X335685Y554513D01*
X337940Y553579D01*
X340360Y553260D01*
X342780Y553579D01*
X345035Y554513D01*
X346971Y555999D01*
X348457Y557935D01*
X349391Y560190D01*
X349710Y562610D01*
X349391Y565030D01*
X348528Y567115D01*
X396043Y614630D01*
X408940D01*
Y612140D01*
X407670D01*
Y605790D01*
X417830D01*
X427990D01*
Y612140D01*
X426720D01*
Y623570D01*
Y636270D01*
Y648970D01*
Y661670D01*
Y674370D01*
Y687070D01*
Y690830D01*
X431997D01*
X436830Y685997D01*
Y672996D01*
X436161Y672549D01*
X435162Y671054D01*
X434811Y669290D01*
X435162Y667526D01*
X436161Y666031D01*
X437656Y665032D01*
X439420Y664681D01*
X441184Y665032D01*
X442679Y666031D01*
X443678Y667526D01*
X444029Y669290D01*
X443678Y671054D01*
X442679Y672549D01*
X442010Y672996D01*
Y687070D01*
X441813Y688061D01*
X441251Y688901D01*
X434901Y695251D01*
X434061Y695813D01*
X433070Y696010D01*
X426720D01*
Y698500D01*
X427990D01*
Y704850D01*
D02*
G37*
G36*
X605790Y768350D02*
X585470D01*
Y762000D01*
X586740D01*
Y750570D01*
Y737870D01*
Y725170D01*
Y712470D01*
Y699770D01*
Y696010D01*
X567690D01*
X566699Y695813D01*
X565859Y695251D01*
X504519Y633911D01*
X503957Y633071D01*
X503760Y632080D01*
Y413443D01*
X418619Y328302D01*
X417830Y328459D01*
X416066Y328108D01*
X414571Y327109D01*
X413572Y325614D01*
X413221Y323850D01*
X413572Y322086D01*
X414571Y320591D01*
X416066Y319592D01*
X417830Y319241D01*
X419594Y319592D01*
X421089Y320591D01*
X422088Y322086D01*
X422439Y323850D01*
X422282Y324639D01*
X508181Y410539D01*
X508743Y411379D01*
X508940Y412370D01*
Y416796D01*
X510210Y417227D01*
X510643Y416663D01*
X512845Y414973D01*
X515409Y413911D01*
X516890Y413716D01*
Y424180D01*
Y434644D01*
X515409Y434449D01*
X512845Y433387D01*
X510643Y431697D01*
X510210Y431133D01*
X508940Y431564D01*
Y631007D01*
X568763Y690830D01*
X586740D01*
Y684580D01*
X566420D01*
X565429Y684383D01*
X564589Y683821D01*
X528139Y647371D01*
X527577Y646531D01*
X527380Y645540D01*
Y431564D01*
X526110Y431133D01*
X525677Y431697D01*
X523475Y433387D01*
X520911Y434449D01*
X519430Y434644D01*
Y424180D01*
Y413716D01*
X520911Y413911D01*
X523475Y414973D01*
X525677Y416663D01*
X526110Y417227D01*
X527380Y416796D01*
Y398963D01*
X456719Y328302D01*
X455930Y328459D01*
X454166Y328108D01*
X452671Y327109D01*
X451672Y325614D01*
X451321Y323850D01*
X451672Y322086D01*
X452671Y320591D01*
X454166Y319592D01*
X455930Y319241D01*
X457694Y319592D01*
X459189Y320591D01*
X460188Y322086D01*
X460539Y323850D01*
X460382Y324639D01*
X531801Y396059D01*
X532363Y396899D01*
X532560Y397890D01*
Y644467D01*
X567493Y679400D01*
X586740D01*
Y671880D01*
X576476D01*
X576029Y672549D01*
X574534Y673548D01*
X572770Y673899D01*
X571006Y673548D01*
X569511Y672549D01*
X568512Y671054D01*
X568161Y669290D01*
X568512Y667526D01*
X569511Y666031D01*
X570180Y665584D01*
Y531740D01*
X570377Y530749D01*
X570939Y529909D01*
X632650Y468198D01*
Y463983D01*
X628457Y459790D01*
X628240D01*
X627190Y460320D01*
X627190Y461060D01*
Y471860D01*
X617650D01*
Y468680D01*
X612036D01*
X611589Y469349D01*
X610094Y470348D01*
X608330Y470699D01*
X606566Y470348D01*
X605071Y469349D01*
X604072Y467854D01*
X603721Y466090D01*
X604072Y464326D01*
X605071Y462831D01*
X606566Y461832D01*
X608330Y461481D01*
X610094Y461832D01*
X611589Y462831D01*
X612036Y463500D01*
X616752D01*
X617650Y462602D01*
X617650Y460320D01*
X616600Y459790D01*
X576580D01*
X575589Y459593D01*
X574749Y459031D01*
X548065Y432348D01*
X545980Y433211D01*
X543560Y433530D01*
X541140Y433211D01*
X538885Y432277D01*
X536949Y430791D01*
X535463Y428855D01*
X534529Y426600D01*
X534210Y424180D01*
X534529Y421760D01*
X535463Y419505D01*
X536949Y417569D01*
X538885Y416083D01*
X541140Y415149D01*
X543560Y414830D01*
X545980Y415149D01*
X548235Y416083D01*
X550171Y417569D01*
X551657Y419505D01*
X552591Y421760D01*
X552910Y424180D01*
X552591Y426600D01*
X551728Y428685D01*
X577653Y454610D01*
X612258D01*
X613250Y453940D01*
X613250Y453340D01*
Y445770D01*
X621290D01*
X629330D01*
Y453340D01*
X629330Y453940D01*
X630322Y454610D01*
X631387D01*
X632233Y453764D01*
X631780Y452670D01*
X631780D01*
Y436330D01*
X638120D01*
Y427320D01*
X638170Y427070D01*
Y421220D01*
X656810D01*
Y422950D01*
X719250D01*
Y421060D01*
X719250Y420950D01*
Y419790D01*
X719250Y419680D01*
Y416610D01*
X693550D01*
X692559Y416413D01*
X691719Y415851D01*
X684088Y408220D01*
X677872D01*
X668971Y417121D01*
X668131Y417683D01*
X667140Y417880D01*
X636910D01*
Y419610D01*
X618270D01*
Y410970D01*
X626320D01*
Y395520D01*
X622140D01*
Y379180D01*
X622778D01*
X623264Y378007D01*
X575507Y330250D01*
X501650D01*
X500659Y330053D01*
X499819Y329491D01*
X484579Y314251D01*
X484017Y313411D01*
X483820Y312420D01*
Y299610D01*
X484017Y298619D01*
X484579Y297779D01*
X491570Y290788D01*
Y282910D01*
X504110D01*
Y294450D01*
X495233D01*
X489000Y300683D01*
Y311347D01*
X502723Y325070D01*
X531838D01*
X532324Y323897D01*
X529029Y320601D01*
X528467Y319761D01*
X528270Y318770D01*
Y300880D01*
X528467Y299889D01*
X529029Y299049D01*
X536020Y292057D01*
Y285035D01*
X534835Y283976D01*
X534670Y284009D01*
X532906Y283658D01*
X531411Y282659D01*
X530476Y282567D01*
X525700Y287342D01*
Y296720D01*
X513160D01*
Y283180D01*
X522537D01*
X528149Y277569D01*
X528989Y277007D01*
X529980Y276810D01*
X530964D01*
X531411Y276141D01*
X532906Y275142D01*
X534670Y274791D01*
X536434Y275142D01*
X537929Y276141D01*
X538928Y277636D01*
X539279Y279400D01*
X538928Y281164D01*
X537929Y282659D01*
X537553Y282910D01*
X537938Y284180D01*
X548560D01*
Y295720D01*
X539683D01*
X533450Y301953D01*
Y317697D01*
X540823Y325070D01*
X573990D01*
Y299610D01*
X574187Y298619D01*
X574749Y297779D01*
X580470Y292057D01*
Y285035D01*
X579285Y283976D01*
X579120Y284009D01*
X577356Y283658D01*
X575861Y282659D01*
X574926Y282567D01*
X570150Y287342D01*
Y296720D01*
X557610D01*
Y283180D01*
X566987D01*
X572599Y277569D01*
X573439Y277007D01*
X574430Y276810D01*
X575414D01*
X575861Y276141D01*
X577356Y275142D01*
X579120Y274791D01*
X580884Y275142D01*
X582379Y276141D01*
X583378Y277636D01*
X583729Y279400D01*
X583378Y281164D01*
X582379Y282659D01*
X582003Y282910D01*
X582388Y284180D01*
X593010D01*
Y295720D01*
X584132D01*
X579170Y300683D01*
Y326587D01*
X630481Y377899D01*
X631043Y378739D01*
X631130Y379180D01*
X635680D01*
Y395520D01*
X631500D01*
Y410970D01*
X635640D01*
X635771Y410970D01*
X636900Y410630D01*
X636900Y409724D01*
X636900Y409720D01*
X636900Y409647D01*
Y406310D01*
X646220D01*
Y410630D01*
X638170D01*
X638039Y410630D01*
X637522Y410786D01*
X637290Y412182D01*
X637808Y412700D01*
X666067D01*
X674210Y404557D01*
Y391880D01*
X678230D01*
Y374150D01*
X677050D01*
Y346610D01*
X684590D01*
Y346610D01*
X685050D01*
Y346610D01*
X692590D01*
Y346610D01*
X693050D01*
Y346610D01*
X699780D01*
X700590Y346610D01*
Y346610D01*
X701050D01*
Y346610D01*
X707780D01*
Y345340D01*
X711550D01*
Y360380D01*
Y375420D01*
X707780D01*
Y374150D01*
X703524D01*
X703038Y375323D01*
X706637Y378923D01*
X706804D01*
X708166Y378012D01*
X709930Y377661D01*
X711694Y378012D01*
X713189Y379011D01*
X714188Y380506D01*
X714539Y382270D01*
X714188Y384034D01*
X713221Y385480D01*
X713278Y385766D01*
X713647Y386750D01*
X745962D01*
X746041Y386631D01*
X747536Y385632D01*
X749300Y385281D01*
X751064Y385632D01*
X752559Y386631D01*
X753558Y388126D01*
X753909Y389890D01*
X753558Y391654D01*
X752559Y393149D01*
X751064Y394148D01*
X749300Y394499D01*
X747536Y394148D01*
X746041Y393149D01*
X745227Y391930D01*
X706280D01*
Y398780D01*
X698240D01*
Y400050D01*
X696970D01*
Y409490D01*
X694658D01*
X694140Y410676D01*
X694748Y411430D01*
X719250D01*
Y408250D01*
X726127D01*
X730499Y403879D01*
X731339Y403317D01*
X732330Y403120D01*
X749704D01*
X750695Y403317D01*
X751535Y403879D01*
X762657Y415000D01*
X763830Y414514D01*
Y410210D01*
X774370D01*
X784910D01*
Y419480D01*
X781670D01*
X781144Y420750D01*
X789231Y428837D01*
X789793Y429677D01*
X789990Y430668D01*
Y469900D01*
X789793Y470891D01*
X789231Y471731D01*
X785801Y475161D01*
X784961Y475723D01*
X783970Y475920D01*
X779581D01*
X779323Y476460D01*
X779237Y477190D01*
X780981Y478529D01*
X782467Y480465D01*
X783401Y482720D01*
X783720Y485140D01*
X783401Y487560D01*
X782467Y489815D01*
X780981Y491751D01*
X779045Y493237D01*
X776790Y494171D01*
X774370Y494490D01*
X771950Y494171D01*
X769695Y493237D01*
X767759Y491751D01*
X766273Y489815D01*
X765339Y487560D01*
X765020Y485140D01*
X765339Y482720D01*
X766273Y480465D01*
X767759Y478529D01*
X769503Y477190D01*
X769417Y476460D01*
X769159Y475920D01*
X764943D01*
X751131Y489731D01*
X750291Y490293D01*
X749300Y490490D01*
X741775D01*
Y493130D01*
X732250D01*
X722725D01*
Y490120D01*
X723995D01*
Y485680D01*
X723995Y484890D01*
X723995Y483620D01*
Y479180D01*
X722725D01*
Y476170D01*
X732250D01*
X741775D01*
Y479180D01*
X740505D01*
Y483620D01*
X740505Y484410D01*
X741398Y485310D01*
X748227D01*
X762039Y471499D01*
X762879Y470937D01*
X763870Y470740D01*
X782897D01*
X784810Y468827D01*
Y461189D01*
X783540Y461105D01*
X783401Y462160D01*
X782467Y464415D01*
X780981Y466351D01*
X779045Y467837D01*
X776790Y468771D01*
X774370Y469090D01*
X771950Y468771D01*
X769695Y467837D01*
X767759Y466351D01*
X766273Y464415D01*
X765339Y462160D01*
X765020Y459740D01*
X765339Y457320D01*
X766273Y455065D01*
X767759Y453129D01*
X769695Y451643D01*
X771950Y450709D01*
X774370Y450390D01*
X776790Y450709D01*
X779045Y451643D01*
X780981Y453129D01*
X782467Y455065D01*
X783401Y457320D01*
X783540Y458375D01*
X784810Y458292D01*
Y435788D01*
X783540Y435705D01*
X783401Y436760D01*
X782467Y439015D01*
X780981Y440951D01*
X779045Y442437D01*
X776790Y443371D01*
X774370Y443690D01*
X771950Y443371D01*
X769695Y442437D01*
X767759Y440951D01*
X766273Y439015D01*
X765339Y436760D01*
X765020Y434340D01*
X765339Y431920D01*
X766273Y429665D01*
X767759Y427729D01*
X769695Y426243D01*
X771489Y425500D01*
X771236Y424230D01*
X766030D01*
X765747Y424427D01*
X765285Y424976D01*
X765079Y425414D01*
X765339Y426720D01*
X764988Y428484D01*
X763989Y429979D01*
X763320Y430426D01*
Y444625D01*
X763123Y445616D01*
X762561Y446456D01*
X745286Y463731D01*
X744446Y464293D01*
X743455Y464490D01*
X741398D01*
X740505Y465390D01*
X740505Y466180D01*
Y470620D01*
X741775D01*
Y473630D01*
X732250D01*
X722725D01*
Y471220D01*
X703630D01*
Y494030D01*
X703433Y495021D01*
X702871Y495861D01*
X676501Y522231D01*
X675661Y522793D01*
X674670Y522990D01*
X668278D01*
X667385Y523890D01*
X667385Y524680D01*
Y529120D01*
X667385Y529910D01*
X667385Y531180D01*
Y535620D01*
X667385Y536410D01*
X667385Y537680D01*
Y542910D01*
X650875D01*
Y542490D01*
X645420D01*
X644429Y542293D01*
X643589Y541731D01*
X640147Y538290D01*
X631270D01*
Y526750D01*
X641336D01*
X641822Y525577D01*
X636995Y520750D01*
X615846D01*
X615399Y521419D01*
X613904Y522418D01*
X612140Y522769D01*
X610376Y522418D01*
X608881Y521419D01*
X607882Y519924D01*
X607531Y518160D01*
X607882Y516396D01*
X608881Y514901D01*
X610376Y513902D01*
X612140Y513551D01*
X613904Y513902D01*
X615399Y514901D01*
X615846Y515570D01*
X638068D01*
X639059Y515767D01*
X639899Y516329D01*
X647881Y524310D01*
X649982D01*
X650875Y523410D01*
X650875Y522620D01*
Y518180D01*
X650875Y517390D01*
X650875Y516120D01*
Y511680D01*
X650875Y510890D01*
X650875D01*
Y510410D01*
X650875D01*
Y505180D01*
X649605D01*
Y502170D01*
X659130D01*
X668655D01*
Y505180D01*
X667385D01*
Y507936D01*
X668558Y508422D01*
X686952Y490028D01*
X686877Y488750D01*
X686351Y488399D01*
X685352Y486904D01*
X685001Y485140D01*
X685352Y483376D01*
X686351Y481881D01*
X687846Y480882D01*
X689610Y480531D01*
X691374Y480882D01*
X692869Y481881D01*
X693868Y483376D01*
X694219Y485140D01*
X693868Y486904D01*
X692869Y488399D01*
X692200Y488846D01*
Y491033D01*
X692003Y492024D01*
X691441Y492864D01*
X669044Y515261D01*
X668204Y515823D01*
X667948Y515874D01*
X667782Y516746D01*
X668708Y517810D01*
X673597D01*
X698450Y492957D01*
Y469703D01*
X675837Y447090D01*
X645320D01*
Y452670D01*
X640649D01*
X640641Y452681D01*
X634658Y458665D01*
X636312Y460320D01*
X642190D01*
Y471860D01*
X636312D01*
X588646Y519527D01*
X589132Y520700D01*
X594360D01*
Y527050D01*
X585470D01*
Y524362D01*
X584297Y523876D01*
X575360Y532813D01*
Y665584D01*
X576029Y666031D01*
X576476Y666700D01*
X586740D01*
Y662940D01*
X585470D01*
Y656590D01*
X605790D01*
Y662940D01*
X604520D01*
Y666080D01*
X624150D01*
Y663400D01*
X635690D01*
Y673940D01*
X624150D01*
Y671260D01*
X604520D01*
Y678130D01*
X755517D01*
X766202Y667445D01*
X765339Y665360D01*
X765020Y662940D01*
X765339Y660520D01*
X766273Y658265D01*
X767759Y656329D01*
X769695Y654843D01*
X771950Y653909D01*
X774370Y653590D01*
X776790Y653909D01*
X779045Y654843D01*
X780981Y656329D01*
X782467Y658265D01*
X783401Y660520D01*
X783720Y662940D01*
X783401Y665360D01*
X782467Y667615D01*
X780981Y669551D01*
X779045Y671037D01*
X776790Y671971D01*
X774370Y672290D01*
X771950Y671971D01*
X769865Y671108D01*
X758421Y682551D01*
X757581Y683113D01*
X756590Y683310D01*
X604520D01*
Y690830D01*
X764297D01*
X765216Y689826D01*
X765020Y688340D01*
X765339Y685920D01*
X766273Y683665D01*
X767759Y681729D01*
X769695Y680243D01*
X771950Y679309D01*
X774370Y678990D01*
X776790Y679309D01*
X779045Y680243D01*
X780981Y681729D01*
X782467Y683665D01*
X783401Y685920D01*
X783720Y688340D01*
X783401Y690760D01*
X782467Y693015D01*
X780981Y694951D01*
X779045Y696437D01*
X776790Y697371D01*
X774370Y697690D01*
X771950Y697371D01*
X769695Y696437D01*
X767770Y694960D01*
X767479Y695251D01*
X766639Y695813D01*
X765648Y696010D01*
X604520D01*
Y699770D01*
Y712470D01*
Y725170D01*
Y737870D01*
Y750570D01*
Y762000D01*
X605790D01*
Y768350D01*
D02*
G37*
G36*
X636960Y661210D02*
X631190D01*
Y655940D01*
X636960D01*
Y661210D01*
D02*
G37*
G36*
X628650D02*
X622880D01*
Y655940D01*
X628650D01*
Y661210D01*
D02*
G37*
G36*
X636960Y653400D02*
X631190D01*
Y648130D01*
X636960D01*
Y653400D01*
D02*
G37*
G36*
X628650D02*
X622880D01*
Y648130D01*
X628650D01*
Y653400D01*
D02*
G37*
G36*
X605790Y654050D02*
X585470D01*
Y647700D01*
X586740D01*
Y636270D01*
Y624840D01*
X585470D01*
Y618490D01*
X605790D01*
Y624840D01*
X604520D01*
Y627330D01*
X755517D01*
X766202Y616645D01*
X765339Y614560D01*
X765020Y612140D01*
X765339Y609720D01*
X766273Y607465D01*
X767759Y605529D01*
X769695Y604043D01*
X771950Y603109D01*
X774370Y602790D01*
X776790Y603109D01*
X779045Y604043D01*
X780981Y605529D01*
X782467Y607465D01*
X783401Y609720D01*
X783720Y612140D01*
X783401Y614560D01*
X782467Y616815D01*
X780981Y618751D01*
X779045Y620237D01*
X776790Y621171D01*
X774370Y621490D01*
X771950Y621171D01*
X769865Y620308D01*
X758421Y631751D01*
X757581Y632313D01*
X756590Y632510D01*
X604520D01*
Y640030D01*
X764067D01*
X765181Y638760D01*
X765020Y637540D01*
X765339Y635120D01*
X766273Y632865D01*
X767759Y630929D01*
X769695Y629443D01*
X771950Y628509D01*
X774370Y628190D01*
X776790Y628509D01*
X779045Y629443D01*
X780981Y630929D01*
X782467Y632865D01*
X783401Y635120D01*
X783720Y637540D01*
X783401Y639960D01*
X782467Y642215D01*
X780981Y644151D01*
X779045Y645637D01*
X776790Y646571D01*
X774370Y646890D01*
X771950Y646571D01*
X769695Y645637D01*
X768504Y644723D01*
X768071Y645013D01*
X767080Y645210D01*
X604520D01*
Y647700D01*
X605790D01*
Y654050D01*
D02*
G37*
G36*
Y615950D02*
X585470D01*
Y609600D01*
X586740D01*
Y598170D01*
Y585470D01*
Y572770D01*
Y560070D01*
Y547370D01*
Y535940D01*
X585470D01*
Y529590D01*
X605790D01*
Y535940D01*
X604520D01*
Y539700D01*
X617324D01*
X617771Y539031D01*
X619266Y538032D01*
X621030Y537681D01*
X622794Y538032D01*
X624289Y539031D01*
X625288Y540526D01*
X625639Y542290D01*
X625288Y544054D01*
X624289Y545549D01*
X622794Y546548D01*
X621030Y546899D01*
X619266Y546548D01*
X617771Y545549D01*
X617324Y544880D01*
X604520D01*
Y551130D01*
X608434D01*
X608881Y550461D01*
X610376Y549462D01*
X612140Y549111D01*
X613904Y549462D01*
X615399Y550461D01*
X616398Y551956D01*
X616749Y553720D01*
X616398Y555484D01*
X615399Y556979D01*
X613904Y557978D01*
X612140Y558329D01*
X610376Y557978D01*
X608881Y556979D01*
X608434Y556310D01*
X604520D01*
Y563830D01*
X765100D01*
Y552070D01*
X783640D01*
Y570610D01*
X765100D01*
Y569010D01*
X604520D01*
Y576530D01*
X765288D01*
X766279Y576727D01*
X767119Y577289D01*
X769004Y579173D01*
X769695Y578643D01*
X771950Y577709D01*
X774370Y577390D01*
X776790Y577709D01*
X779045Y578643D01*
X780981Y580129D01*
X782467Y582065D01*
X783401Y584320D01*
X783720Y586740D01*
X783401Y589160D01*
X782467Y591415D01*
X780981Y593351D01*
X779045Y594837D01*
X776790Y595771D01*
X774370Y596090D01*
X771950Y595771D01*
X769695Y594837D01*
X767759Y593351D01*
X766273Y591415D01*
X765339Y589160D01*
X765020Y586740D01*
X765339Y584320D01*
X765774Y583269D01*
X764215Y581710D01*
X604520D01*
Y589230D01*
X608434D01*
X608881Y588561D01*
X610376Y587562D01*
X612140Y587211D01*
X613904Y587562D01*
X615399Y588561D01*
X616398Y590056D01*
X616749Y591820D01*
X616398Y593584D01*
X615399Y595079D01*
X613904Y596078D01*
X612140Y596429D01*
X610376Y596078D01*
X608881Y595079D01*
X608434Y594410D01*
X604520D01*
Y601930D01*
X608434D01*
X608881Y601261D01*
X610376Y600262D01*
X612140Y599911D01*
X613904Y600262D01*
X615399Y601261D01*
X616398Y602756D01*
X616749Y604520D01*
X616398Y606284D01*
X615399Y607779D01*
X613904Y608778D01*
X612140Y609129D01*
X610376Y608778D01*
X608881Y607779D01*
X608434Y607110D01*
X604520D01*
Y609600D01*
X605790D01*
Y615950D01*
D02*
G37*
G36*
X661670Y559599D02*
X659906Y559248D01*
X658411Y558249D01*
X657412Y556754D01*
X657131Y555340D01*
X640770D01*
X640520Y555290D01*
X631270D01*
Y543750D01*
X643810D01*
Y550160D01*
X659430D01*
X660421Y550357D01*
X660735Y550567D01*
X661670Y550381D01*
X663434Y550732D01*
X664929Y551731D01*
X665928Y553226D01*
X666279Y554990D01*
X665928Y556754D01*
X664929Y558249D01*
X663434Y559248D01*
X661670Y559599D01*
D02*
G37*
G36*
X427990Y603250D02*
X417830D01*
X407670D01*
Y596900D01*
X408940D01*
Y585470D01*
Y581710D01*
X382270D01*
X381279Y581513D01*
X380439Y580951D01*
X344865Y545378D01*
X342780Y546241D01*
X340360Y546560D01*
X337940Y546241D01*
X335685Y545307D01*
X333749Y543821D01*
X332263Y541885D01*
X331329Y539630D01*
X331010Y537210D01*
X331329Y534790D01*
X332263Y532535D01*
X333749Y530599D01*
X335685Y529113D01*
X337940Y528179D01*
X340360Y527860D01*
X342780Y528179D01*
X345035Y529113D01*
X346971Y530599D01*
X348457Y532535D01*
X349391Y534790D01*
X349710Y537210D01*
X349391Y539630D01*
X348528Y541715D01*
X383343Y576530D01*
X408940D01*
Y569010D01*
X394970D01*
X393979Y568813D01*
X393139Y568251D01*
X345967Y521080D01*
X331090D01*
Y502540D01*
X349630D01*
Y517417D01*
X396043Y563830D01*
X408940D01*
Y552500D01*
X403860D01*
X402869Y552303D01*
X402029Y551741D01*
X344865Y494578D01*
X342780Y495441D01*
X340360Y495760D01*
X337940Y495441D01*
X335685Y494507D01*
X333749Y493021D01*
X332263Y491085D01*
X331329Y488830D01*
X331010Y486410D01*
X331329Y483990D01*
X332263Y481735D01*
X333749Y479799D01*
X335685Y478313D01*
X337940Y477379D01*
X340360Y477060D01*
X342780Y477379D01*
X345035Y478313D01*
X346971Y479799D01*
X348457Y481735D01*
X349391Y483990D01*
X349710Y486410D01*
X349391Y488830D01*
X348528Y490915D01*
X404933Y547320D01*
X408940D01*
Y543610D01*
X406400D01*
X405409Y543413D01*
X404569Y542851D01*
X355039Y493321D01*
X354477Y492481D01*
X354280Y491490D01*
Y478593D01*
X345967Y470280D01*
X331090D01*
Y451740D01*
X349630D01*
Y466618D01*
X358701Y475689D01*
X359263Y476529D01*
X359460Y477520D01*
Y490417D01*
X407473Y538430D01*
X408940D01*
Y535940D01*
X407670D01*
Y529590D01*
X417830D01*
X427990D01*
Y535940D01*
X426720D01*
Y547370D01*
Y560070D01*
Y572770D01*
Y585470D01*
Y596900D01*
X427990D01*
Y603250D01*
D02*
G37*
G36*
X740505Y542910D02*
X723995D01*
Y537680D01*
X723995Y536890D01*
X723995Y535620D01*
Y531180D01*
X722725D01*
Y528170D01*
X732250D01*
X741775D01*
Y531180D01*
X740505D01*
Y535620D01*
X740505Y536410D01*
X740505Y537680D01*
Y542910D01*
D02*
G37*
G36*
X741775Y525630D02*
X732250D01*
X722725D01*
Y522620D01*
Y521670D01*
X732250D01*
X741775D01*
Y522620D01*
Y525630D01*
D02*
G37*
G36*
X605790Y527050D02*
X596900D01*
Y520700D01*
X605790D01*
Y527050D01*
D02*
G37*
G36*
X427990D02*
X419100D01*
Y520700D01*
X427990D01*
Y527050D01*
D02*
G37*
G36*
X416560D02*
X407670D01*
Y520700D01*
X416560D01*
Y527050D01*
D02*
G37*
G36*
X748030Y524039D02*
X746266Y523688D01*
X744771Y522689D01*
X743772Y521194D01*
X743421Y519430D01*
X743772Y517666D01*
X744682Y516304D01*
Y515882D01*
X741678Y512878D01*
X740505Y513364D01*
Y516120D01*
X741775D01*
Y519130D01*
X732250D01*
X722725D01*
Y516120D01*
X723995D01*
Y510890D01*
X723995D01*
Y510410D01*
X723995D01*
Y505180D01*
X723995Y504390D01*
X723995Y503120D01*
Y498680D01*
X722725D01*
Y495670D01*
X732250D01*
X741775D01*
Y498050D01*
X744064D01*
X744511Y497381D01*
X746006Y496382D01*
X747770Y496031D01*
X749534Y496382D01*
X751029Y497381D01*
X752028Y498876D01*
X752379Y500640D01*
X752028Y502404D01*
X751029Y503899D01*
X749534Y504898D01*
X747770Y505249D01*
X746006Y504898D01*
X744511Y503899D01*
X744064Y503230D01*
X741352D01*
X740748Y504491D01*
X741191Y505451D01*
X741324Y505477D01*
X742164Y506039D01*
X749103Y512978D01*
X749665Y513818D01*
X749862Y514809D01*
Y515218D01*
X751289Y516171D01*
X752288Y517666D01*
X752639Y519430D01*
X752288Y521194D01*
X751289Y522689D01*
X749794Y523688D01*
X748030Y524039D01*
D02*
G37*
G36*
X774370Y519890D02*
X771950Y519571D01*
X769695Y518637D01*
X767759Y517151D01*
X766273Y515215D01*
X765339Y512960D01*
X765020Y510540D01*
X765339Y508120D01*
X766273Y505865D01*
X767759Y503929D01*
X769695Y502443D01*
X771950Y501509D01*
X774370Y501190D01*
X776790Y501509D01*
X779045Y502443D01*
X780981Y503929D01*
X782467Y505865D01*
X783401Y508120D01*
X783720Y510540D01*
X783401Y512960D01*
X782467Y515215D01*
X780981Y517151D01*
X779045Y518637D01*
X776790Y519571D01*
X774370Y519890D01*
D02*
G37*
G36*
X668655Y499630D02*
X659130D01*
X649605D01*
Y496620D01*
X650875D01*
Y492180D01*
X650875Y491390D01*
X650875Y490120D01*
Y485680D01*
X650875Y484890D01*
X650875Y483620D01*
Y479180D01*
X650875Y478390D01*
X650875Y477120D01*
Y472680D01*
X650875Y471890D01*
X650875Y470620D01*
Y466180D01*
X650875Y465390D01*
X650875Y464120D01*
Y459680D01*
X650875Y458890D01*
X650875Y457620D01*
Y452390D01*
X667385D01*
Y457620D01*
X667385Y458410D01*
X667385Y459680D01*
Y464120D01*
X667385Y464910D01*
X667385Y466180D01*
Y470620D01*
X667385Y471410D01*
X668181Y472350D01*
X674501D01*
X674921Y471721D01*
X676416Y470722D01*
X678180Y470371D01*
X679944Y470722D01*
X681439Y471721D01*
X682438Y473216D01*
X682789Y474980D01*
X682438Y476744D01*
X681439Y478239D01*
X679944Y479238D01*
X678180Y479589D01*
X676416Y479238D01*
X674921Y478239D01*
X674447Y477530D01*
X668299D01*
X667385Y478390D01*
X667385Y479180D01*
Y483620D01*
X667385Y484410D01*
X667385Y485680D01*
Y490120D01*
X667385Y490910D01*
X667385Y492180D01*
Y496620D01*
X668655D01*
Y499630D01*
D02*
G37*
G36*
X629330Y443230D02*
X622560D01*
Y435060D01*
X629330D01*
Y443230D01*
D02*
G37*
G36*
X620020D02*
X613250D01*
Y435060D01*
X620020D01*
Y443230D01*
D02*
G37*
G36*
X578230Y433450D02*
X559690D01*
Y414910D01*
X578230D01*
Y433450D01*
D02*
G37*
G36*
X492760Y433530D02*
X490340Y433211D01*
X488085Y432277D01*
X486149Y430791D01*
X484663Y428855D01*
X483729Y426600D01*
X483410Y424180D01*
X483729Y421760D01*
X484663Y419505D01*
X486149Y417569D01*
X488085Y416083D01*
X490340Y415149D01*
X492760Y414830D01*
X495180Y415149D01*
X497435Y416083D01*
X499371Y417569D01*
X500857Y419505D01*
X501791Y421760D01*
X502110Y424180D01*
X501791Y426600D01*
X500857Y428855D01*
X499371Y430791D01*
X497435Y432277D01*
X495180Y433211D01*
X492760Y433530D01*
D02*
G37*
G36*
X427990Y768350D02*
X417830D01*
X407670D01*
Y762000D01*
X408940D01*
Y750570D01*
Y737870D01*
Y725170D01*
Y713740D01*
X407670D01*
Y707390D01*
X417830D01*
X427990D01*
Y708726D01*
X429163Y709212D01*
X446990Y691385D01*
Y548536D01*
X446321Y548089D01*
X445322Y546594D01*
X444971Y544830D01*
X445322Y543066D01*
X446321Y541571D01*
X447816Y540572D01*
X449580Y540221D01*
X451344Y540572D01*
X452839Y541571D01*
X453838Y543066D01*
X454189Y544830D01*
X453838Y546594D01*
X452839Y548089D01*
X452170Y548536D01*
Y692458D01*
X451973Y693449D01*
X451411Y694289D01*
X428859Y716841D01*
X428019Y717403D01*
X427028Y717600D01*
X426720D01*
Y722696D01*
X427893Y723182D01*
X455880Y695195D01*
Y537106D01*
X455211Y536659D01*
X454212Y535164D01*
X453861Y533400D01*
X454212Y531636D01*
X455211Y530141D01*
X456706Y529142D01*
X458470Y528791D01*
X460234Y529142D01*
X461729Y530141D01*
X462728Y531636D01*
X463079Y533400D01*
X462728Y535164D01*
X461729Y536659D01*
X461060Y537106D01*
Y696268D01*
X460863Y697259D01*
X460301Y698099D01*
X428859Y729541D01*
X428019Y730103D01*
X427028Y730300D01*
X426720D01*
Y735396D01*
X427893Y735882D01*
X464770Y699005D01*
Y433141D01*
X462685Y432277D01*
X460749Y430791D01*
X459263Y428855D01*
X458329Y426600D01*
X458010Y424180D01*
X458329Y421760D01*
X459263Y419505D01*
X460749Y417569D01*
X462685Y416083D01*
X464940Y415149D01*
X467360Y414830D01*
X469780Y415149D01*
X472035Y416083D01*
X473971Y417569D01*
X475457Y419505D01*
X476391Y421760D01*
X476710Y424180D01*
X476391Y426600D01*
X475457Y428855D01*
X473971Y430791D01*
X472035Y432277D01*
X469950Y433141D01*
Y700078D01*
X469753Y701069D01*
X469191Y701909D01*
X428859Y742241D01*
X428019Y742803D01*
X427028Y743000D01*
X426720D01*
Y750570D01*
Y762000D01*
X427990D01*
Y768350D01*
D02*
G37*
G36*
X441960Y433530D02*
X439540Y433211D01*
X437285Y432277D01*
X435349Y430791D01*
X433863Y428855D01*
X432929Y426600D01*
X432610Y424180D01*
X432929Y421760D01*
X433863Y419505D01*
X435349Y417569D01*
X437285Y416083D01*
X439540Y415149D01*
X441960Y414830D01*
X444380Y415149D01*
X446635Y416083D01*
X448571Y417569D01*
X450057Y419505D01*
X450991Y421760D01*
X451310Y424180D01*
X450991Y426600D01*
X450057Y428855D01*
X448571Y430791D01*
X446635Y432277D01*
X444380Y433211D01*
X441960Y433530D01*
D02*
G37*
G36*
X648760Y410630D02*
Y406310D01*
X658080D01*
Y410630D01*
X648760D01*
D02*
G37*
G36*
X706280Y409490D02*
X699510D01*
Y401320D01*
X706280D01*
Y409490D01*
D02*
G37*
G36*
X349630Y419480D02*
X331090D01*
Y400940D01*
X349630D01*
Y419480D01*
D02*
G37*
G36*
X658080Y403770D02*
X648760D01*
Y399450D01*
X658080D01*
Y403770D01*
D02*
G37*
G36*
X646220D02*
X636900D01*
Y399450D01*
X646220D01*
Y403770D01*
D02*
G37*
G36*
X784910Y407670D02*
X775640D01*
Y398400D01*
X784910D01*
Y407670D01*
D02*
G37*
G36*
X773100D02*
X763830D01*
Y398400D01*
X773100D01*
Y407670D01*
D02*
G37*
G36*
X654210Y396790D02*
X647440D01*
Y388620D01*
X654210D01*
Y396790D01*
D02*
G37*
G36*
X644900D02*
X638130D01*
Y388620D01*
X644900D01*
Y396790D01*
D02*
G37*
G36*
X341630Y395274D02*
Y386080D01*
X350824D01*
X350629Y387561D01*
X349567Y390126D01*
X347877Y392327D01*
X345676Y394017D01*
X343111Y395079D01*
X341630Y395274D01*
D02*
G37*
G36*
X339090D02*
X337608Y395079D01*
X335045Y394017D01*
X332843Y392327D01*
X331153Y390126D01*
X330091Y387561D01*
X329896Y386080D01*
X339090D01*
Y395274D01*
D02*
G37*
G36*
X654210Y386080D02*
X647440D01*
Y377910D01*
X654210D01*
Y386080D01*
D02*
G37*
G36*
X644900D02*
X638130D01*
Y377910D01*
X644900D01*
Y386080D01*
D02*
G37*
G36*
X350824Y383540D02*
X341630D01*
Y374346D01*
X343111Y374541D01*
X345676Y375603D01*
X347877Y377293D01*
X349567Y379495D01*
X350629Y382058D01*
X350824Y383540D01*
D02*
G37*
G36*
X339090D02*
X329896D01*
X330091Y382058D01*
X331153Y379495D01*
X332843Y377293D01*
X335045Y375603D01*
X337608Y374541D01*
X339090Y374346D01*
Y383540D01*
D02*
G37*
G36*
X717860Y375420D02*
X714090D01*
Y361650D01*
X717860D01*
Y375420D01*
D02*
G37*
G36*
X753960D02*
X742690D01*
Y361650D01*
X753960D01*
Y375420D01*
D02*
G37*
G36*
X740150D02*
X728880D01*
Y361650D01*
X740150D01*
Y375420D01*
D02*
G37*
G36*
X664760D02*
X653490D01*
Y361650D01*
X664760D01*
Y375420D01*
D02*
G37*
G36*
X650950D02*
X639680D01*
Y361650D01*
X650950D01*
Y375420D01*
D02*
G37*
G36*
X753960Y359110D02*
X742690D01*
Y345340D01*
X753960D01*
Y359110D01*
D02*
G37*
G36*
X740150D02*
X728880D01*
Y345340D01*
X740150D01*
Y359110D01*
D02*
G37*
G36*
X717860D02*
X714090D01*
Y345340D01*
X717860D01*
Y359110D01*
D02*
G37*
G36*
X664760D02*
X653490D01*
Y345340D01*
X664760D01*
Y359110D01*
D02*
G37*
G36*
X650950D02*
X639680D01*
Y345340D01*
X650950D01*
Y359110D01*
D02*
G37*
G36*
X718820Y341163D02*
X716569Y340715D01*
X714660Y339440D01*
X713385Y337531D01*
X712937Y335280D01*
X713385Y333029D01*
X714660Y331120D01*
X716569Y329845D01*
X718820Y329397D01*
X721071Y329845D01*
X722980Y331120D01*
X724255Y333029D01*
X724703Y335280D01*
X724255Y337531D01*
X722980Y339440D01*
X721071Y340715D01*
X718820Y341163D01*
D02*
G37*
G36*
X674820D02*
X672569Y340715D01*
X670660Y339440D01*
X669385Y337531D01*
X668937Y335280D01*
X669385Y333029D01*
X670660Y331120D01*
X672569Y329845D01*
X674820Y329397D01*
X677071Y329845D01*
X678980Y331120D01*
X680255Y333029D01*
X680703Y335280D01*
X680255Y337531D01*
X678980Y339440D01*
X677071Y340715D01*
X674820Y341163D01*
D02*
G37*
G36*
X369010Y332278D02*
Y322580D01*
X378708D01*
X378496Y324192D01*
X377383Y326878D01*
X375614Y329184D01*
X373308Y330953D01*
X370622Y332066D01*
X369010Y332278D01*
D02*
G37*
G36*
X366470D02*
X364858Y332066D01*
X362172Y330953D01*
X359866Y329184D01*
X358097Y326878D01*
X356984Y324192D01*
X356772Y322580D01*
X366470D01*
Y332278D01*
D02*
G37*
G36*
X342510Y331080D02*
X322970D01*
Y311540D01*
X342510D01*
Y331080D01*
D02*
G37*
G36*
X443150Y314990D02*
X430610D01*
Y310810D01*
X424100D01*
Y312720D01*
X411560D01*
Y301180D01*
X424100D01*
Y305630D01*
X430610D01*
Y301450D01*
X443150D01*
Y314990D01*
D02*
G37*
G36*
X481250Y314110D02*
X468710D01*
Y310810D01*
X462200D01*
Y313990D01*
X449660D01*
Y302450D01*
X462200D01*
Y305630D01*
X468710D01*
Y300570D01*
X481250D01*
Y314110D01*
D02*
G37*
G36*
X378708Y320040D02*
X369010D01*
Y310342D01*
X370622Y310554D01*
X373308Y311667D01*
X375614Y313436D01*
X377383Y315742D01*
X378496Y318428D01*
X378708Y320040D01*
D02*
G37*
G36*
X366470D02*
X356772D01*
X356984Y318428D01*
X358097Y315742D01*
X359866Y313436D01*
X362172Y311667D01*
X364858Y310554D01*
X366470Y310342D01*
Y320040D01*
D02*
G37*
G36*
X614600Y313720D02*
X602060D01*
Y309540D01*
X593010D01*
Y312720D01*
X580470D01*
Y301180D01*
X593010D01*
Y304360D01*
X602060D01*
Y300180D01*
X614600D01*
Y313720D01*
D02*
G37*
G36*
X570150D02*
X557610D01*
Y309540D01*
X548560D01*
Y312720D01*
X536020D01*
Y301180D01*
X548560D01*
Y304360D01*
X557610D01*
Y300180D01*
X570150D01*
Y313720D01*
D02*
G37*
G36*
X525700D02*
X513160D01*
Y308270D01*
X504110D01*
Y311450D01*
X491570D01*
Y299910D01*
X504110D01*
Y303090D01*
X513160D01*
Y300180D01*
X525700D01*
Y313720D01*
D02*
G37*
G36*
X753960Y320620D02*
X742690D01*
Y306850D01*
X753960D01*
Y320620D01*
D02*
G37*
G36*
X740150D02*
X728880D01*
Y306850D01*
X740150D01*
Y320620D01*
D02*
G37*
G36*
X664760D02*
X653490D01*
Y306850D01*
X664760D01*
Y320620D01*
D02*
G37*
G36*
X650950D02*
X639680D01*
Y306850D01*
X650950D01*
Y320620D01*
D02*
G37*
G36*
X444420Y299260D02*
X438150D01*
Y292490D01*
X444420D01*
Y299260D01*
D02*
G37*
G36*
X435610D02*
X429340D01*
Y292490D01*
X435610D01*
Y299260D01*
D02*
G37*
G36*
X482520Y298380D02*
X476250D01*
Y291610D01*
X482520D01*
Y298380D01*
D02*
G37*
G36*
X473710D02*
X467440D01*
Y291610D01*
X473710D01*
Y298380D01*
D02*
G37*
G36*
X615870Y297990D02*
X609600D01*
Y291220D01*
X615870D01*
Y297990D01*
D02*
G37*
G36*
X607060D02*
X600790D01*
Y291220D01*
X607060D01*
Y297990D01*
D02*
G37*
G36*
X753960Y304310D02*
X742690D01*
Y290540D01*
X753960D01*
Y304310D01*
D02*
G37*
G36*
X740150D02*
X728880D01*
Y290540D01*
X740150D01*
Y304310D01*
D02*
G37*
G36*
X664760D02*
X653490D01*
Y290540D01*
X664760D01*
Y304310D01*
D02*
G37*
G36*
X650950D02*
X639680D01*
Y290540D01*
X650950D01*
Y304310D01*
D02*
G37*
G36*
X444420Y289950D02*
X438150D01*
Y283180D01*
X444420D01*
Y289950D01*
D02*
G37*
G36*
X435610D02*
X429340D01*
Y283180D01*
X435610D01*
Y289950D01*
D02*
G37*
G36*
X482520Y289070D02*
X476250D01*
Y282300D01*
X482520D01*
Y289070D01*
D02*
G37*
G36*
X473710D02*
X467440D01*
Y282300D01*
X473710D01*
Y289070D01*
D02*
G37*
G36*
X615870Y288680D02*
X609600D01*
Y281910D01*
X615870D01*
Y288680D01*
D02*
G37*
G36*
X607060D02*
X600790D01*
Y281910D01*
X607060D01*
Y288680D01*
D02*
G37*
G36*
X839470Y315804D02*
X836085Y315470D01*
X832829Y314483D01*
X829829Y312879D01*
X827199Y310721D01*
X825041Y308091D01*
X823437Y305091D01*
X822450Y301835D01*
X822116Y298450D01*
X822450Y295065D01*
X823437Y291809D01*
X825041Y288809D01*
X827199Y286179D01*
X829829Y284021D01*
X832829Y282417D01*
X836085Y281430D01*
X839470Y281096D01*
X842856Y281430D01*
X846111Y282417D01*
X849111Y284021D01*
X851741Y286179D01*
X853899Y288809D01*
X855503Y291809D01*
X856490Y295065D01*
X856824Y298450D01*
X856490Y301835D01*
X855503Y305091D01*
X853899Y308091D01*
X851741Y310721D01*
X849111Y312879D01*
X846111Y314483D01*
X842856Y315470D01*
X839470Y315804D01*
D02*
G37*
G36*
X284480D02*
X281094Y315470D01*
X277839Y314483D01*
X274839Y312879D01*
X272209Y310721D01*
X270051Y308091D01*
X268447Y305091D01*
X267460Y301835D01*
X267126Y298450D01*
X267460Y295065D01*
X268447Y291809D01*
X270051Y288809D01*
X272209Y286179D01*
X274839Y284021D01*
X277839Y282417D01*
X281094Y281430D01*
X284480Y281096D01*
X287866Y281430D01*
X291121Y282417D01*
X294121Y284021D01*
X296751Y286179D01*
X298909Y288809D01*
X300513Y291809D01*
X301500Y295065D01*
X301834Y298450D01*
X301500Y301835D01*
X300513Y305091D01*
X298909Y308091D01*
X296751Y310721D01*
X294121Y312879D01*
X291121Y314483D01*
X287866Y315470D01*
X284480Y315804D01*
D02*
G37*
G36*
X462200Y296990D02*
X449660D01*
Y285450D01*
X453340D01*
Y281836D01*
X452671Y281389D01*
X451672Y279894D01*
X451321Y278130D01*
X451672Y276366D01*
X452671Y274871D01*
X454166Y273872D01*
X455930Y273521D01*
X457694Y273872D01*
X459189Y274871D01*
X460188Y276366D01*
X460539Y278130D01*
X460188Y279894D01*
X459189Y281389D01*
X458520Y281836D01*
Y285450D01*
X462200D01*
Y296990D01*
D02*
G37*
G36*
X424100Y295720D02*
X411560D01*
Y284180D01*
X415240D01*
Y281836D01*
X414571Y281389D01*
X413572Y279894D01*
X413221Y278130D01*
X413572Y276366D01*
X414571Y274871D01*
X416066Y273872D01*
X417830Y273521D01*
X419594Y273872D01*
X421089Y274871D01*
X422088Y276366D01*
X422439Y278130D01*
X422088Y279894D01*
X421089Y281389D01*
X420420Y281836D01*
Y284180D01*
X424100D01*
Y295720D01*
D02*
G37*
%LPD*%
G36*
X723995Y464910D02*
X723995Y464120D01*
Y458890D01*
X723995D01*
Y458410D01*
X723995D01*
Y452390D01*
X736842D01*
X746710Y442522D01*
Y431384D01*
X746330Y431116D01*
X745060Y431773D01*
Y433760D01*
X739790D01*
Y426720D01*
X738520D01*
Y425450D01*
X731980D01*
Y419680D01*
Y415290D01*
X738520D01*
X745060D01*
Y422818D01*
X746330Y423268D01*
X747536Y422462D01*
X749300Y422111D01*
X751064Y422462D01*
X752559Y423461D01*
X753558Y424956D01*
X753909Y426720D01*
X753558Y428484D01*
X752559Y429979D01*
X751890Y430426D01*
Y443595D01*
X751693Y444586D01*
X751131Y445426D01*
X740505Y456053D01*
Y458410D01*
X741197Y459107D01*
X742583Y459109D01*
X758140Y443553D01*
Y430426D01*
X757471Y429979D01*
X756472Y428484D01*
X756121Y426720D01*
X756472Y424956D01*
X757471Y423461D01*
X758966Y422462D01*
X760661Y422125D01*
X760848Y421841D01*
X761252Y420920D01*
X748632Y408300D01*
X745060D01*
Y412750D01*
X738520D01*
X731980D01*
Y411382D01*
X730807Y410896D01*
X729790Y411912D01*
Y419680D01*
X729790Y419790D01*
Y420950D01*
X729790Y421060D01*
Y432490D01*
X719250D01*
Y428130D01*
X656810D01*
Y429860D01*
X643300D01*
Y436330D01*
X645320D01*
Y441910D01*
X676910D01*
X677901Y442107D01*
X678741Y442669D01*
X702113Y466040D01*
X723658D01*
X723995Y464910D01*
D02*
G37*
%LPC*%
G36*
X699770Y452691D02*
Y448310D01*
X704151D01*
X703954Y449299D01*
X702674Y451214D01*
X700759Y452494D01*
X699770Y452691D01*
D02*
G37*
G36*
X697230D02*
X696241Y452494D01*
X694326Y451214D01*
X693046Y449299D01*
X692849Y448310D01*
X697230D01*
Y452691D01*
D02*
G37*
G36*
X704151Y445770D02*
X699770D01*
Y441389D01*
X700759Y441586D01*
X702674Y442866D01*
X703954Y444781D01*
X704151Y445770D01*
D02*
G37*
G36*
X697230D02*
X692849D01*
X693046Y444781D01*
X694326Y442866D01*
X696241Y441586D01*
X697230Y441389D01*
Y445770D01*
D02*
G37*
G36*
X737250Y433760D02*
X731980D01*
Y427990D01*
X737250D01*
Y433760D01*
D02*
G37*
%LPD*%
D10*
X406730Y841420D02*
G03*
X426730Y821420I20000J0D01*
G01*
X494030Y801420D02*
G03*
X474030Y821420I-20000J0D01*
G01*
X587050Y821370D02*
G03*
X607050Y841370I0J20000D01*
G01*
X539430Y821370D02*
G03*
X519430Y801370I0J-20000D01*
G01*
X406730Y841420D02*
Y871420D01*
X428950Y821370D02*
X476250D01*
X494030Y782320D02*
Y801420D01*
X607050Y841370D02*
Y871370D01*
X539750Y821370D02*
X587050D01*
X519430Y782320D02*
Y801370D01*
D11*
X539750Y821690D02*
G03*
X539430Y821370I0J-320D01*
G01*
X738520Y414020D02*
Y426720D01*
X529980Y279400D02*
X534670D01*
X519430Y289950D02*
X529980Y279400D01*
X574430D02*
X579120D01*
X563880Y289950D02*
X574430Y279400D01*
X576580Y327660D02*
X628650Y379730D01*
X576580Y299610D02*
Y327660D01*
X539750D02*
X576580D01*
X501650D02*
X539750D01*
X530860Y318770D02*
X539750Y327660D01*
X628650Y379730D02*
Y387090D01*
X628910Y387350D01*
X486410Y312420D02*
X501650Y327660D01*
X486410Y299610D02*
Y312420D01*
Y299610D02*
X497340Y288680D01*
X497840D01*
X530860Y300880D02*
Y318770D01*
Y300880D02*
X541790Y289950D01*
X542290D01*
X576580Y299610D02*
X586240Y289950D01*
X586740D01*
X627590Y415290D02*
X667140D01*
X628910Y387350D02*
Y413970D01*
X627590Y415290D02*
X628910Y413970D01*
X723340Y425540D02*
X724520Y426720D01*
X647490Y425540D02*
X723340D01*
X638550Y444500D02*
X640710Y442340D01*
Y427320D02*
Y442340D01*
Y427320D02*
X642490Y425540D01*
X647490D01*
X667140Y415290D02*
X680980Y401450D01*
X732250Y487900D02*
X749300D01*
X763870Y473330D01*
X783970D02*
X787400Y469900D01*
X763870Y473330D02*
X783970D01*
X787400Y430668D02*
Y469900D01*
X778372Y421640D02*
X787400Y430668D01*
X765634Y421640D02*
X778372D01*
X749704Y405710D02*
X765634Y421640D01*
X732330Y405710D02*
X749704D01*
X743455Y461900D02*
X760730Y444625D01*
Y426720D02*
Y444625D01*
X700490Y389340D02*
X748750D01*
X749300Y389890D01*
Y426720D02*
Y443595D01*
X737495Y455400D02*
X749300Y443595D01*
X732250Y455400D02*
X737495D01*
X724520Y413520D02*
X732330Y405710D01*
X724520Y413520D02*
Y414020D01*
X732250Y461900D02*
X743455D01*
X659430Y552750D02*
X661670Y554990D01*
X640770Y552750D02*
X659430D01*
X637540Y549520D02*
X640770Y552750D01*
X637540Y549520D02*
X638040D01*
X689610Y485140D02*
Y491033D01*
X667213Y513430D02*
X689610Y491033D01*
X659600Y513430D02*
X667213D01*
X659130Y513900D02*
X659600Y513430D01*
X612140Y518160D02*
X638068D01*
X646808Y526900D01*
X659130D01*
X638040Y532520D02*
X645420Y539900D01*
X637540Y532520D02*
X638040D01*
X645420Y539900D02*
X659130D01*
X678140Y474940D02*
X678180Y474980D01*
X659170Y474940D02*
X678140D01*
X659130Y474900D02*
X659170Y474940D01*
X572770Y531740D02*
Y669290D01*
X629530Y457200D02*
X637920Y465590D01*
X572770Y531740D02*
X637420Y467090D01*
Y466090D02*
Y467090D01*
X621150Y466090D02*
X622420Y464820D01*
X621150Y466090D02*
X622420D01*
X608330D02*
X621150D01*
X608330Y466090D02*
X608330Y466090D01*
X659130Y520400D02*
X674670D01*
X701040Y494030D01*
Y468630D02*
Y494030D01*
Y468630D02*
X732020D01*
X732250Y468400D01*
X676910Y444500D02*
X701040Y468630D01*
X638550Y444500D02*
X676910D01*
X747272Y518672D02*
X748030Y519430D01*
X747272Y514809D02*
Y518672D01*
X740333Y507870D02*
X747272Y514809D01*
X732720Y507870D02*
X740333D01*
X732250Y507400D02*
X732720Y507870D01*
X732510Y500640D02*
X747770D01*
X732250Y500900D02*
X732510Y500640D01*
X709172Y381512D02*
X709930Y382270D01*
X705564Y381512D02*
X709172D01*
X698050Y373998D02*
X705564Y381512D01*
X698050Y361610D02*
Y373998D01*
X696820Y360380D02*
X698050Y361610D01*
X708660Y383540D02*
X709930Y382270D01*
X688820Y377670D02*
X700490Y389340D01*
X688820Y360380D02*
Y377670D01*
X680980Y400050D02*
Y401450D01*
X693550Y414020D01*
X724520D01*
X680820Y399890D02*
X680980Y400050D01*
X680820Y360380D02*
Y399890D01*
X455930Y278130D02*
Y291220D01*
X417830Y278130D02*
Y289950D01*
X638810Y449580D02*
Y450850D01*
X632460Y457200D02*
X638810Y450850D01*
X629530Y457200D02*
X632460D01*
X576580D02*
X629530D01*
X543560Y424180D02*
X576580Y457200D01*
X455930Y323850D02*
X529970Y397890D01*
X417830Y323850D02*
X506350Y412370D01*
Y632080D01*
X467360Y424180D02*
X468630Y422910D01*
X586740Y306950D02*
X608330D01*
X542290D02*
X563880D01*
X518160Y305680D02*
X519430Y306950D01*
X497840Y305680D02*
X518160D01*
X474100Y308220D02*
X474980Y307340D01*
X455930Y308220D02*
X474100D01*
X417830Y306950D02*
X419100Y308220D01*
X436880D01*
X596900Y542290D02*
X621030D01*
X595630Y541020D02*
X596900Y542290D01*
X769290Y566420D02*
X774370Y561340D01*
X595630Y566420D02*
X769290D01*
X595630Y579120D02*
X765288D01*
X772908Y586740D01*
X774370D01*
X595630Y629920D02*
X756590D01*
X774370Y612140D01*
X767080Y642620D02*
X772160Y637540D01*
X774370D01*
X595630Y642620D02*
X767080D01*
X765648Y693420D02*
X770728Y688340D01*
X774370D01*
X595630Y693420D02*
X765648D01*
X756590Y680720D02*
X774370Y662940D01*
X595630Y680720D02*
X756590D01*
X567690Y693420D02*
X595630D01*
X506350Y632080D02*
X567690Y693420D01*
X566420Y681990D02*
X594360D01*
X595630Y680720D01*
X529970Y645540D02*
X566420Y681990D01*
X529970Y397890D02*
Y645540D01*
X594360Y669290D02*
X595630Y668020D01*
X572770Y669290D02*
X594360D01*
X439420D02*
Y687070D01*
X433070Y693420D02*
X439420Y687070D01*
X417830Y693420D02*
X433070D01*
X449580Y544830D02*
Y692458D01*
X427028Y715010D02*
X449580Y692458D01*
X421640Y715010D02*
X427028D01*
X417830Y718820D02*
X421640Y715010D01*
X458470Y533400D02*
Y696268D01*
X427028Y727710D02*
X458470Y696268D01*
X421640Y727710D02*
X427028D01*
X417830Y731520D02*
X421640Y727710D01*
X467360Y424180D02*
Y700078D01*
X427028Y740410D02*
X467360Y700078D01*
X421640Y740410D02*
X427028D01*
X417830Y744220D02*
X421640Y740410D01*
X340360Y461010D02*
X356870Y477520D01*
Y491490D01*
X406400Y541020D01*
X417830D01*
X340360Y486410D02*
X403860Y549910D01*
X414020D01*
X417830Y553720D01*
X340360Y511810D02*
X394970Y566420D01*
X417830D01*
X340360Y537210D02*
X382270Y579120D01*
X417830D01*
X340360Y562610D02*
X394970Y617220D01*
X417830D01*
X340360Y588010D02*
X382270Y629920D01*
X417830D01*
X340360Y613410D02*
X369570Y642620D01*
X417830D01*
X340360Y638810D02*
X356870Y655320D01*
X417830D01*
X344002Y664210D02*
X347812Y668020D01*
X340360Y664210D02*
X344002D01*
X347812Y668020D02*
X417830D01*
X340360Y689610D02*
X349250Y680720D01*
X417830D01*
X388620Y692150D02*
X416560D01*
X417830Y693420D01*
X595630Y668020D02*
X596280Y668670D01*
X629920D01*
X595630Y604520D02*
X612140D01*
X595630Y591820D02*
X612140D01*
X595630Y553720D02*
X612140D01*
D12*
X627590Y415290D02*
D03*
X647490Y425540D02*
D03*
Y405040D02*
D03*
D13*
X628910Y387350D02*
D03*
X646170D02*
D03*
X638550Y444500D02*
D03*
X621290D02*
D03*
X680980Y400050D02*
D03*
X698240D02*
D03*
D14*
X586740Y289950D02*
D03*
Y306950D02*
D03*
X637540Y532520D02*
D03*
Y549520D02*
D03*
X542290Y289950D02*
D03*
Y306950D02*
D03*
X497840Y288680D02*
D03*
Y305680D02*
D03*
X455930Y308220D02*
D03*
Y291220D02*
D03*
X417830Y306950D02*
D03*
Y289950D02*
D03*
D15*
X608330D02*
D03*
Y306950D02*
D03*
X563880Y289950D02*
D03*
Y306950D02*
D03*
X519430Y289950D02*
D03*
Y306950D02*
D03*
X474980Y290340D02*
D03*
Y307340D02*
D03*
X436880Y291220D02*
D03*
Y308220D02*
D03*
D16*
X741420Y305580D02*
D03*
X652220D02*
D03*
X741420Y360380D02*
D03*
X652220D02*
D03*
D17*
X712820D02*
D03*
X704820D02*
D03*
X696820D02*
D03*
X688820D02*
D03*
X680820D02*
D03*
D18*
X738520Y414020D02*
D03*
X724520D02*
D03*
X738520Y426720D02*
D03*
X724520D02*
D03*
D19*
X659130Y455400D02*
D03*
Y461900D02*
D03*
Y468400D02*
D03*
Y474900D02*
D03*
Y481400D02*
D03*
Y487900D02*
D03*
Y494400D02*
D03*
Y500900D02*
D03*
Y507400D02*
D03*
Y513900D02*
D03*
Y520400D02*
D03*
Y526900D02*
D03*
Y533400D02*
D03*
Y539900D02*
D03*
X732250Y455400D02*
D03*
Y461900D02*
D03*
Y468400D02*
D03*
Y474900D02*
D03*
Y481400D02*
D03*
Y494400D02*
D03*
Y487900D02*
D03*
Y500900D02*
D03*
Y507400D02*
D03*
Y513900D02*
D03*
Y520400D02*
D03*
Y526900D02*
D03*
Y533400D02*
D03*
Y539900D02*
D03*
D20*
X388620Y706150D02*
D03*
Y692150D02*
D03*
X629920Y654670D02*
D03*
Y668670D02*
D03*
D21*
X544830Y782320D02*
D03*
X532130D02*
D03*
X519430D02*
D03*
X506730D02*
D03*
X494030D02*
D03*
X481330D02*
D03*
X468630D02*
D03*
D22*
X417830Y769620D02*
D03*
Y756920D02*
D03*
Y744220D02*
D03*
Y731520D02*
D03*
Y718820D02*
D03*
Y706120D02*
D03*
Y693420D02*
D03*
Y680720D02*
D03*
Y668020D02*
D03*
Y655320D02*
D03*
Y642620D02*
D03*
Y629920D02*
D03*
Y617220D02*
D03*
Y604520D02*
D03*
Y591820D02*
D03*
Y579120D02*
D03*
Y566420D02*
D03*
Y553720D02*
D03*
Y541020D02*
D03*
Y528320D02*
D03*
X595630D02*
D03*
Y541020D02*
D03*
Y553720D02*
D03*
Y566420D02*
D03*
Y579120D02*
D03*
Y591820D02*
D03*
Y604520D02*
D03*
Y617220D02*
D03*
Y629920D02*
D03*
Y642620D02*
D03*
Y655320D02*
D03*
Y668020D02*
D03*
Y680720D02*
D03*
Y693420D02*
D03*
Y706120D02*
D03*
Y718820D02*
D03*
Y731520D02*
D03*
Y744220D02*
D03*
Y756920D02*
D03*
Y769620D02*
D03*
D23*
X622420Y466090D02*
D03*
X637420D02*
D03*
D24*
X698500Y447040D02*
D03*
X393700Y800100D02*
D03*
X621660Y798830D02*
D03*
X581660D02*
D03*
X433070Y800100D02*
D03*
X547370Y850900D02*
D03*
X508000D02*
D03*
X467360D02*
D03*
X547370Y890900D02*
D03*
X508000D02*
D03*
X467360D02*
D03*
X534670Y279400D02*
D03*
X579120D02*
D03*
X760730Y426720D02*
D03*
X749300Y389890D02*
D03*
Y426720D02*
D03*
X661670Y554990D02*
D03*
X689610Y485140D02*
D03*
X612140Y518160D02*
D03*
X678180Y474980D02*
D03*
X608330Y466090D02*
D03*
X748030Y519430D02*
D03*
X747770Y500640D02*
D03*
X709930Y382270D02*
D03*
X455930Y278130D02*
D03*
Y323850D02*
D03*
X417830Y278130D02*
D03*
Y323850D02*
D03*
X621030Y542290D02*
D03*
X572770Y669290D02*
D03*
X439420D02*
D03*
X449580Y544830D02*
D03*
X458470Y533400D02*
D03*
X612140Y604520D02*
D03*
Y591820D02*
D03*
Y553720D02*
D03*
D25*
X284480Y886460D02*
D03*
X839470D02*
D03*
Y298450D02*
D03*
X284480D02*
D03*
D26*
X718820Y335280D02*
D03*
X674820D02*
D03*
D27*
X340360Y461010D02*
D03*
X774370Y561340D02*
D03*
X340360Y410210D02*
D03*
Y511810D02*
D03*
X774370Y408940D02*
D03*
D28*
X340360Y486410D02*
D03*
X774370Y586740D02*
D03*
Y612140D02*
D03*
Y637540D02*
D03*
Y662940D02*
D03*
Y688340D02*
D03*
X340360Y384810D02*
D03*
Y689610D02*
D03*
Y664210D02*
D03*
Y638810D02*
D03*
Y613410D02*
D03*
Y588010D02*
D03*
Y562610D02*
D03*
Y537210D02*
D03*
X774370Y434340D02*
D03*
Y459740D02*
D03*
Y485140D02*
D03*
Y510540D02*
D03*
X543560Y424180D02*
D03*
X518160D02*
D03*
X492760D02*
D03*
X467360D02*
D03*
X441960D02*
D03*
D29*
X581650Y845970D02*
D03*
Y896770D02*
D03*
X632450D02*
D03*
Y845970D02*
D03*
X381330Y846020D02*
D03*
Y896820D02*
D03*
X432130D02*
D03*
Y846020D02*
D03*
D30*
X607050Y871370D02*
D03*
X406730Y871420D02*
D03*
D31*
X332740Y321310D02*
D03*
D32*
X367740D02*
D03*
D33*
X568960Y424180D02*
D03*
%TF.MD5,6b84cc52788f07185218f3c79418fd6a*%
M02*
