%TF.GenerationSoftware,Altium Limited,Altium NEXUS,2.1.7 (73)*%
G04 Layer_Physical_Order=2*
G04 Layer_Color=16711680*
%FSLAX44Y44*%
%MOMM*%
%TF.FileFunction,Copper,L2,Bot,Signal*%
%TF.Part,Single*%
G01*
G75*
%TA.AperFunction,Conductor*%
%ADD11C,0.2540*%
%TA.AperFunction,ViaPad*%
%ADD24C,0.6500*%
%TA.AperFunction,WasherPad*%
%ADD25C,1.5240*%
%TA.AperFunction,ComponentPad*%
%ADD26C,0.9000*%
%ADD27R,1.6000X1.6000*%
%ADD28C,1.6000*%
%ADD29C,2.4000*%
%ADD30C,2.2500*%
%ADD31R,1.7000X1.7000*%
%ADD32C,1.7000*%
%ADD33R,1.6000X1.6000*%
G36*
X792430Y518357D02*
Y499320D01*
X791160Y498794D01*
X790283Y499671D01*
X789443Y500233D01*
X788452Y500430D01*
X777504D01*
X777251Y501700D01*
X779045Y502443D01*
X780981Y503929D01*
X782467Y505865D01*
X783401Y508120D01*
X783720Y510540D01*
X783401Y512960D01*
X782467Y515215D01*
X780981Y517151D01*
X779045Y518637D01*
X776790Y519571D01*
X776587Y519598D01*
X776670Y520868D01*
X789919D01*
X792430Y518357D01*
D02*
G37*
G36*
X747112Y275540D02*
X746643Y274930D01*
X583554D01*
X582874Y276200D01*
X582945Y276329D01*
X583421Y276810D01*
X746491D01*
X747112Y275540D01*
D02*
G37*
G36*
X867126Y914116D02*
Y270794D01*
X751930D01*
X751444Y271968D01*
X796851Y317375D01*
X797413Y318215D01*
X797610Y319206D01*
Y519430D01*
X797413Y520421D01*
X796851Y521261D01*
X792823Y525289D01*
X791983Y525850D01*
X790992Y526048D01*
X752058D01*
X751067Y525850D01*
X750227Y525289D01*
X748819Y523882D01*
X748030Y524039D01*
X746266Y523688D01*
X744771Y522689D01*
X743772Y521194D01*
X743421Y519430D01*
X743772Y517666D01*
X744771Y516171D01*
X746266Y515172D01*
X748030Y514821D01*
X749794Y515172D01*
X751289Y516171D01*
X752288Y517666D01*
X752639Y519430D01*
X752558Y519835D01*
X753459Y520868D01*
X772070D01*
X772153Y519598D01*
X771950Y519571D01*
X769695Y518637D01*
X767759Y517151D01*
X766273Y515215D01*
X765409Y513130D01*
X675443D01*
X664260Y524313D01*
Y551284D01*
X664929Y551731D01*
X665928Y553226D01*
X666279Y554990D01*
X665928Y556754D01*
X664929Y558249D01*
X663434Y559248D01*
X661670Y559599D01*
X660881Y559442D01*
X616592Y603731D01*
X616749Y604520D01*
X616398Y606284D01*
X615399Y607779D01*
X613904Y608778D01*
X612140Y609129D01*
X610376Y608778D01*
X608881Y607779D01*
X607882Y606284D01*
X607531Y604520D01*
X607882Y602756D01*
X608881Y601261D01*
X610376Y600262D01*
X612140Y599911D01*
X612929Y600068D01*
X657218Y555779D01*
X657061Y554990D01*
X657412Y553226D01*
X658411Y551731D01*
X659080Y551284D01*
Y523240D01*
X659277Y522249D01*
X659839Y521409D01*
X672539Y508709D01*
X673379Y508147D01*
X674370Y507950D01*
X765409D01*
X766273Y505865D01*
X767759Y503929D01*
X769695Y502443D01*
X771489Y501700D01*
X771236Y500430D01*
X752551D01*
X752379Y500640D01*
X752028Y502404D01*
X751029Y503899D01*
X749534Y504898D01*
X747770Y505249D01*
X746006Y504898D01*
X744511Y503899D01*
X743512Y502404D01*
X743161Y500640D01*
X743512Y498876D01*
X744511Y497381D01*
X746006Y496382D01*
X747770Y496031D01*
X748559Y496188D01*
X748739Y496009D01*
X749579Y495447D01*
X750570Y495250D01*
X771236D01*
X771489Y493980D01*
X769695Y493237D01*
X767759Y491751D01*
X766273Y489815D01*
X765409Y487730D01*
X693316D01*
X692869Y488399D01*
X691374Y489398D01*
X689610Y489749D01*
X687846Y489398D01*
X686351Y488399D01*
X685904Y487730D01*
X675443D01*
X651560Y511613D01*
Y554990D01*
X651363Y555981D01*
X650801Y556821D01*
X616592Y591031D01*
X616749Y591820D01*
X616398Y593584D01*
X615399Y595079D01*
X613904Y596078D01*
X612140Y596429D01*
X610376Y596078D01*
X608881Y595079D01*
X607882Y593584D01*
X607531Y591820D01*
X607882Y590056D01*
X608881Y588561D01*
X610376Y587562D01*
X612140Y587211D01*
X612929Y587368D01*
X646380Y553917D01*
Y511404D01*
X645110Y510878D01*
X623620Y532369D01*
Y538584D01*
X624289Y539031D01*
X625288Y540526D01*
X625639Y542290D01*
X625288Y544054D01*
X624289Y545549D01*
X622794Y546548D01*
X621030Y546899D01*
X619266Y546548D01*
X617771Y545549D01*
X616772Y544054D01*
X616421Y542290D01*
X616772Y540526D01*
X617771Y539031D01*
X618440Y538584D01*
Y531296D01*
X618637Y530305D01*
X619199Y529465D01*
X673590Y475073D01*
X673571Y474980D01*
X673922Y473216D01*
X674921Y471721D01*
X676416Y470722D01*
X678180Y470371D01*
X678273Y470390D01*
X690755Y457909D01*
X691595Y457347D01*
X692586Y457150D01*
X765409D01*
X766273Y455065D01*
X767759Y453129D01*
X769695Y451643D01*
X771950Y450709D01*
X774370Y450390D01*
X776790Y450709D01*
X779045Y451643D01*
X780981Y453129D01*
X782467Y455065D01*
X783401Y457320D01*
X783720Y459740D01*
X783401Y462160D01*
X782467Y464415D01*
X780981Y466351D01*
X779045Y467837D01*
X776790Y468771D01*
X774370Y469090D01*
X771950Y468771D01*
X769695Y467837D01*
X767759Y466351D01*
X766273Y464415D01*
X765409Y462330D01*
X693659D01*
X682493Y473495D01*
X682789Y474980D01*
X682438Y476744D01*
X681439Y478239D01*
X679944Y479238D01*
X678180Y479589D01*
X676695Y479293D01*
X674708Y481280D01*
X675234Y482550D01*
X685904D01*
X686351Y481881D01*
X687846Y480882D01*
X689610Y480531D01*
X691374Y480882D01*
X692869Y481881D01*
X693316Y482550D01*
X765409D01*
X766273Y480465D01*
X767759Y478529D01*
X769695Y477043D01*
X771950Y476109D01*
X774370Y475790D01*
X776790Y476109D01*
X779045Y477043D01*
X780981Y478529D01*
X782467Y480465D01*
X783401Y482720D01*
X783720Y485140D01*
X783401Y487560D01*
X782467Y489815D01*
X780981Y491751D01*
X779045Y493237D01*
X777251Y493980D01*
X777504Y495250D01*
X787350D01*
Y322383D01*
X746957Y281990D01*
X582826D01*
X582379Y282659D01*
X580884Y283658D01*
X579120Y284009D01*
X577356Y283658D01*
X575861Y282659D01*
X574862Y281164D01*
X574511Y279400D01*
X574862Y277636D01*
X575822Y276200D01*
X575754Y275867D01*
X575388Y274930D01*
X542803D01*
X539122Y278611D01*
X539279Y279400D01*
X538928Y281164D01*
X537929Y282659D01*
X536434Y283658D01*
X534670Y284009D01*
X532906Y283658D01*
X531411Y282659D01*
X530412Y281164D01*
X530061Y279400D01*
X530412Y277636D01*
X531411Y276141D01*
X532906Y275142D01*
X534670Y274791D01*
X535459Y274948D01*
X538440Y271968D01*
X537954Y270794D01*
X256824D01*
Y914116D01*
X867126Y914116D01*
D02*
G37*
%LPC*%
G36*
X433400Y911318D02*
Y898090D01*
X446628D01*
X446296Y900616D01*
X444831Y904153D01*
X442500Y907190D01*
X439463Y909521D01*
X435926Y910986D01*
X433400Y911318D01*
D02*
G37*
G36*
X430860D02*
X428334Y910986D01*
X424797Y909521D01*
X421760Y907190D01*
X419429Y904153D01*
X417964Y900616D01*
X417632Y898090D01*
X430860D01*
Y911318D01*
D02*
G37*
G36*
X382600D02*
Y898090D01*
X395828D01*
X395496Y900616D01*
X394031Y904153D01*
X391700Y907190D01*
X388663Y909521D01*
X385126Y910986D01*
X382600Y911318D01*
D02*
G37*
G36*
X380060D02*
X377534Y910986D01*
X373997Y909521D01*
X370960Y907190D01*
X368629Y904153D01*
X367164Y900616D01*
X366832Y898090D01*
X380060D01*
Y911318D01*
D02*
G37*
G36*
X633720Y911268D02*
Y898040D01*
X646948D01*
X646616Y900566D01*
X645151Y904103D01*
X642820Y907140D01*
X639783Y909471D01*
X636246Y910936D01*
X633720Y911268D01*
D02*
G37*
G36*
X582920D02*
Y898040D01*
X596148D01*
X595816Y900566D01*
X594351Y904103D01*
X592020Y907140D01*
X588983Y909471D01*
X585446Y910936D01*
X582920Y911268D01*
D02*
G37*
G36*
X631180Y911268D02*
X628654Y910936D01*
X625117Y909471D01*
X622080Y907140D01*
X619749Y904103D01*
X618284Y900566D01*
X617952Y898040D01*
X631180D01*
Y911268D01*
D02*
G37*
G36*
X580380D02*
X577854Y910936D01*
X574317Y909471D01*
X571280Y907140D01*
X568949Y904103D01*
X567484Y900566D01*
X567152Y898040D01*
X580380D01*
Y911268D01*
D02*
G37*
G36*
X548640Y896551D02*
Y892170D01*
X553021D01*
X552824Y893159D01*
X551544Y895074D01*
X549629Y896354D01*
X548640Y896551D01*
D02*
G37*
G36*
X546100D02*
X545111Y896354D01*
X543196Y895074D01*
X541916Y893159D01*
X541719Y892170D01*
X546100D01*
Y896551D01*
D02*
G37*
G36*
X509270D02*
Y892170D01*
X513651D01*
X513454Y893159D01*
X512174Y895074D01*
X510259Y896354D01*
X509270Y896551D01*
D02*
G37*
G36*
X506730D02*
X505741Y896354D01*
X503826Y895074D01*
X502546Y893159D01*
X502349Y892170D01*
X506730D01*
Y896551D01*
D02*
G37*
G36*
X468630D02*
Y892170D01*
X473011D01*
X472814Y893159D01*
X471534Y895074D01*
X469619Y896354D01*
X468630Y896551D01*
D02*
G37*
G36*
X466090D02*
X465101Y896354D01*
X463186Y895074D01*
X461906Y893159D01*
X461709Y892170D01*
X466090D01*
Y896551D01*
D02*
G37*
G36*
X553021Y889630D02*
X548640D01*
Y885249D01*
X549629Y885446D01*
X551544Y886726D01*
X552824Y888641D01*
X553021Y889630D01*
D02*
G37*
G36*
X546100D02*
X541719D01*
X541916Y888641D01*
X543196Y886726D01*
X545111Y885446D01*
X546100Y885249D01*
Y889630D01*
D02*
G37*
G36*
X513651D02*
X509270D01*
Y885249D01*
X510259Y885446D01*
X512174Y886726D01*
X513454Y888641D01*
X513651Y889630D01*
D02*
G37*
G36*
X506730D02*
X502349D01*
X502546Y888641D01*
X503826Y886726D01*
X505741Y885446D01*
X506730Y885249D01*
Y889630D01*
D02*
G37*
G36*
X473011D02*
X468630D01*
Y885249D01*
X469619Y885446D01*
X471534Y886726D01*
X472814Y888641D01*
X473011Y889630D01*
D02*
G37*
G36*
X466090D02*
X461709D01*
X461906Y888641D01*
X463186Y886726D01*
X465101Y885446D01*
X466090Y885249D01*
Y889630D01*
D02*
G37*
G36*
X380060Y895550D02*
X366832D01*
X367164Y893024D01*
X368629Y889487D01*
X370960Y886450D01*
X373997Y884119D01*
X377534Y882654D01*
X380060Y882322D01*
Y895550D01*
D02*
G37*
G36*
X446628Y895550D02*
X433400D01*
Y882322D01*
X435926Y882654D01*
X439463Y884119D01*
X442500Y886450D01*
X444831Y889487D01*
X446296Y893024D01*
X446628Y895550D01*
D02*
G37*
G36*
X430860D02*
X417632D01*
X417964Y893024D01*
X419429Y889487D01*
X421760Y886450D01*
X424797Y884119D01*
X428334Y882654D01*
X430860Y882322D01*
Y895550D01*
D02*
G37*
G36*
X395828Y895550D02*
X382600D01*
Y882322D01*
X385126Y882654D01*
X388663Y884119D01*
X391700Y886450D01*
X394031Y889487D01*
X395496Y893024D01*
X395828Y895550D01*
D02*
G37*
G36*
X646948Y895500D02*
X633720D01*
Y882272D01*
X636246Y882604D01*
X639783Y884069D01*
X642820Y886400D01*
X645151Y889437D01*
X646616Y892974D01*
X646948Y895500D01*
D02*
G37*
G36*
X596148D02*
X582920D01*
Y882272D01*
X585446Y882604D01*
X588983Y884069D01*
X592020Y886400D01*
X594351Y889437D01*
X595816Y892974D01*
X596148Y895500D01*
D02*
G37*
G36*
X631180D02*
X617952D01*
X618284Y892974D01*
X619749Y889437D01*
X622080Y886400D01*
X625117Y884069D01*
X628654Y882604D01*
X631180Y882272D01*
Y895500D01*
D02*
G37*
G36*
X580380D02*
X567152D01*
X567484Y892974D01*
X568949Y889437D01*
X571280Y886400D01*
X574317Y884069D01*
X577854Y882604D01*
X580380Y882272D01*
Y895500D01*
D02*
G37*
G36*
X839470Y903814D02*
X836085Y903480D01*
X832829Y902493D01*
X829829Y900889D01*
X827199Y898731D01*
X825041Y896101D01*
X823437Y893101D01*
X822450Y889846D01*
X822116Y886460D01*
X822450Y883074D01*
X823437Y879819D01*
X825041Y876819D01*
X827199Y874189D01*
X829829Y872031D01*
X832829Y870427D01*
X836085Y869440D01*
X839470Y869106D01*
X842856Y869440D01*
X846111Y870427D01*
X849111Y872031D01*
X851741Y874189D01*
X853899Y876819D01*
X855503Y879819D01*
X856490Y883074D01*
X856824Y886460D01*
X856490Y889846D01*
X855503Y893101D01*
X853899Y896101D01*
X851741Y898731D01*
X849111Y900889D01*
X846111Y902493D01*
X842856Y903480D01*
X839470Y903814D01*
D02*
G37*
G36*
X284480D02*
X281094Y903480D01*
X277839Y902493D01*
X274839Y900889D01*
X272209Y898731D01*
X270051Y896101D01*
X268447Y893101D01*
X267460Y889846D01*
X267126Y886460D01*
X267460Y883074D01*
X268447Y879819D01*
X270051Y876819D01*
X272209Y874189D01*
X274839Y872031D01*
X277839Y870427D01*
X281094Y869440D01*
X284480Y869106D01*
X287866Y869440D01*
X291121Y870427D01*
X294121Y872031D01*
X296751Y874189D01*
X298909Y876819D01*
X300513Y879819D01*
X301500Y883074D01*
X301834Y886460D01*
X301500Y889846D01*
X300513Y893101D01*
X298909Y896101D01*
X296751Y898731D01*
X294121Y900889D01*
X291121Y902493D01*
X287866Y903480D01*
X284480Y903814D01*
D02*
G37*
G36*
X406730Y884048D02*
X403462Y883618D01*
X400416Y882356D01*
X397801Y880349D01*
X395794Y877734D01*
X394532Y874688D01*
X394102Y871420D01*
X394532Y868152D01*
X395794Y865106D01*
X397801Y862491D01*
X400416Y860484D01*
X403462Y859222D01*
X406730Y858792D01*
X409998Y859222D01*
X413044Y860484D01*
X415659Y862491D01*
X417666Y865106D01*
X418928Y868152D01*
X419358Y871420D01*
X418928Y874688D01*
X417666Y877734D01*
X415659Y880349D01*
X413044Y882356D01*
X409998Y883618D01*
X406730Y884048D01*
D02*
G37*
G36*
X607050Y883998D02*
X603782Y883568D01*
X600736Y882306D01*
X598121Y880299D01*
X596114Y877684D01*
X594852Y874638D01*
X594422Y871370D01*
X594852Y868102D01*
X596114Y865056D01*
X598121Y862441D01*
X600736Y860434D01*
X603782Y859172D01*
X607050Y858742D01*
X610318Y859172D01*
X613364Y860434D01*
X615979Y862441D01*
X617986Y865056D01*
X619248Y868102D01*
X619678Y871370D01*
X619248Y874638D01*
X617986Y877684D01*
X615979Y880299D01*
X613364Y882306D01*
X610318Y883568D01*
X607050Y883998D01*
D02*
G37*
G36*
X548640Y856551D02*
Y852170D01*
X553021D01*
X552824Y853159D01*
X551544Y855074D01*
X549629Y856354D01*
X548640Y856551D01*
D02*
G37*
G36*
X546100D02*
X545111Y856354D01*
X543196Y855074D01*
X541916Y853159D01*
X541719Y852170D01*
X546100D01*
Y856551D01*
D02*
G37*
G36*
X509270D02*
Y852170D01*
X513651D01*
X513454Y853159D01*
X512174Y855074D01*
X510259Y856354D01*
X509270Y856551D01*
D02*
G37*
G36*
X506730D02*
X505741Y856354D01*
X503826Y855074D01*
X502546Y853159D01*
X502349Y852170D01*
X506730D01*
Y856551D01*
D02*
G37*
G36*
X468630D02*
Y852170D01*
X473011D01*
X472814Y853159D01*
X471534Y855074D01*
X469619Y856354D01*
X468630Y856551D01*
D02*
G37*
G36*
X466090D02*
X465101Y856354D01*
X463186Y855074D01*
X461906Y853159D01*
X461709Y852170D01*
X466090D01*
Y856551D01*
D02*
G37*
G36*
X433400Y860518D02*
Y847290D01*
X446628D01*
X446296Y849816D01*
X444831Y853353D01*
X442500Y856390D01*
X439463Y858721D01*
X435926Y860186D01*
X433400Y860518D01*
D02*
G37*
G36*
X430860D02*
X428334Y860186D01*
X424797Y858721D01*
X421760Y856390D01*
X419429Y853353D01*
X417964Y849816D01*
X417632Y847290D01*
X430860D01*
Y860518D01*
D02*
G37*
G36*
X382600D02*
Y847290D01*
X395828D01*
X395496Y849816D01*
X394031Y853353D01*
X391700Y856390D01*
X388663Y858721D01*
X385126Y860186D01*
X382600Y860518D01*
D02*
G37*
G36*
X380060D02*
X377534Y860186D01*
X373997Y858721D01*
X370960Y856390D01*
X368629Y853353D01*
X367164Y849816D01*
X366832Y847290D01*
X380060D01*
Y860518D01*
D02*
G37*
G36*
X633720Y860468D02*
Y847240D01*
X646948D01*
X646616Y849766D01*
X645151Y853303D01*
X642820Y856340D01*
X639783Y858671D01*
X636246Y860136D01*
X633720Y860468D01*
D02*
G37*
G36*
X582920D02*
Y847240D01*
X596148D01*
X595816Y849766D01*
X594351Y853303D01*
X592020Y856340D01*
X588983Y858671D01*
X585446Y860136D01*
X582920Y860468D01*
D02*
G37*
G36*
X631180D02*
X628654Y860136D01*
X625117Y858671D01*
X622080Y856340D01*
X619749Y853303D01*
X618284Y849766D01*
X617952Y847240D01*
X631180D01*
Y860468D01*
D02*
G37*
G36*
X580380D02*
X577854Y860136D01*
X574317Y858671D01*
X571280Y856340D01*
X568949Y853303D01*
X567484Y849766D01*
X567152Y847240D01*
X580380D01*
Y860468D01*
D02*
G37*
G36*
X553021Y849630D02*
X548640D01*
Y845249D01*
X549629Y845446D01*
X551544Y846726D01*
X552824Y848641D01*
X553021Y849630D01*
D02*
G37*
G36*
X546100D02*
X541719D01*
X541916Y848641D01*
X543196Y846726D01*
X545111Y845446D01*
X546100Y845249D01*
Y849630D01*
D02*
G37*
G36*
X513651D02*
X509270D01*
Y845249D01*
X510259Y845446D01*
X512174Y846726D01*
X513454Y848641D01*
X513651Y849630D01*
D02*
G37*
G36*
X506730D02*
X502349D01*
X502546Y848641D01*
X503826Y846726D01*
X505741Y845446D01*
X506730Y845249D01*
Y849630D01*
D02*
G37*
G36*
X473011D02*
X468630D01*
Y845249D01*
X469619Y845446D01*
X471534Y846726D01*
X472814Y848641D01*
X473011Y849630D01*
D02*
G37*
G36*
X466090D02*
X461709D01*
X461906Y848641D01*
X463186Y846726D01*
X465101Y845446D01*
X466090Y845249D01*
Y849630D01*
D02*
G37*
G36*
X380060Y844750D02*
X366832D01*
X367164Y842224D01*
X368629Y838687D01*
X370960Y835650D01*
X373997Y833319D01*
X377534Y831854D01*
X380060Y831522D01*
Y844750D01*
D02*
G37*
G36*
X446628Y844750D02*
X433400D01*
Y831522D01*
X435926Y831854D01*
X439463Y833319D01*
X442500Y835650D01*
X444831Y838687D01*
X446296Y842224D01*
X446628Y844750D01*
D02*
G37*
G36*
X430860D02*
X417632D01*
X417964Y842224D01*
X419429Y838687D01*
X421760Y835650D01*
X424797Y833319D01*
X428334Y831854D01*
X430860Y831522D01*
Y844750D01*
D02*
G37*
G36*
X395828Y844750D02*
X382600D01*
Y831522D01*
X385126Y831854D01*
X388663Y833319D01*
X391700Y835650D01*
X394031Y838687D01*
X395496Y842224D01*
X395828Y844750D01*
D02*
G37*
G36*
X646948Y844700D02*
X633720D01*
Y831472D01*
X636246Y831804D01*
X639783Y833269D01*
X642820Y835600D01*
X645151Y838637D01*
X646616Y842174D01*
X646948Y844700D01*
D02*
G37*
G36*
X596148D02*
X582920D01*
Y831472D01*
X585446Y831804D01*
X588983Y833269D01*
X592020Y835600D01*
X594351Y838637D01*
X595816Y842174D01*
X596148Y844700D01*
D02*
G37*
G36*
X631180D02*
X617952D01*
X618284Y842174D01*
X619749Y838637D01*
X622080Y835600D01*
X625117Y833269D01*
X628654Y831804D01*
X631180Y831472D01*
Y844700D01*
D02*
G37*
G36*
X580380D02*
X567152D01*
X567484Y842174D01*
X568949Y838637D01*
X571280Y835600D01*
X574317Y833269D01*
X577854Y831804D01*
X580380Y831472D01*
Y844700D01*
D02*
G37*
G36*
X434340Y805751D02*
Y801370D01*
X438721D01*
X438524Y802359D01*
X437244Y804274D01*
X435329Y805554D01*
X434340Y805751D01*
D02*
G37*
G36*
X431800D02*
X430811Y805554D01*
X428896Y804274D01*
X427616Y802359D01*
X427419Y801370D01*
X431800D01*
Y805751D01*
D02*
G37*
G36*
X394970D02*
Y801370D01*
X399351D01*
X399154Y802359D01*
X397874Y804274D01*
X395959Y805554D01*
X394970Y805751D01*
D02*
G37*
G36*
X392430D02*
X391441Y805554D01*
X389526Y804274D01*
X388246Y802359D01*
X388049Y801370D01*
X392430D01*
Y805751D01*
D02*
G37*
G36*
X622930Y804481D02*
Y800100D01*
X627311D01*
X627114Y801089D01*
X625834Y803004D01*
X623919Y804284D01*
X622930Y804481D01*
D02*
G37*
G36*
X620390D02*
X619401Y804284D01*
X617486Y803004D01*
X616206Y801089D01*
X616009Y800100D01*
X620390D01*
Y804481D01*
D02*
G37*
G36*
X582930D02*
Y800100D01*
X587311D01*
X587114Y801089D01*
X585834Y803004D01*
X583919Y804284D01*
X582930Y804481D01*
D02*
G37*
G36*
X580390D02*
X579401Y804284D01*
X577486Y803004D01*
X576206Y801089D01*
X576009Y800100D01*
X580390D01*
Y804481D01*
D02*
G37*
G36*
X438721Y798830D02*
X434340D01*
Y794449D01*
X435329Y794646D01*
X437244Y795926D01*
X438524Y797841D01*
X438721Y798830D01*
D02*
G37*
G36*
X431800D02*
X427419D01*
X427616Y797841D01*
X428896Y795926D01*
X430811Y794646D01*
X431800Y794449D01*
Y798830D01*
D02*
G37*
G36*
X399351D02*
X394970D01*
Y794449D01*
X395959Y794646D01*
X397874Y795926D01*
X399154Y797841D01*
X399351Y798830D01*
D02*
G37*
G36*
X392430D02*
X388049D01*
X388246Y797841D01*
X389526Y795926D01*
X391441Y794646D01*
X392430Y794449D01*
Y798830D01*
D02*
G37*
G36*
X627311Y797560D02*
X622930D01*
Y793179D01*
X623919Y793376D01*
X625834Y794656D01*
X627114Y796571D01*
X627311Y797560D01*
D02*
G37*
G36*
X620390D02*
X616009D01*
X616206Y796571D01*
X617486Y794656D01*
X619401Y793376D01*
X620390Y793179D01*
Y797560D01*
D02*
G37*
G36*
X587311D02*
X582930D01*
Y793179D01*
X583919Y793376D01*
X585834Y794656D01*
X587114Y796571D01*
X587311Y797560D01*
D02*
G37*
G36*
X580390D02*
X576009D01*
X576206Y796571D01*
X577486Y794656D01*
X579401Y793376D01*
X580390Y793179D01*
Y797560D01*
D02*
G37*
G36*
X340360Y698960D02*
X337940Y698641D01*
X335685Y697707D01*
X333749Y696221D01*
X332263Y694285D01*
X331329Y692030D01*
X331010Y689610D01*
X331329Y687190D01*
X332263Y684935D01*
X333749Y682999D01*
X335685Y681513D01*
X337940Y680579D01*
X340360Y680260D01*
X342780Y680579D01*
X345035Y681513D01*
X346971Y682999D01*
X348457Y684935D01*
X349391Y687190D01*
X349710Y689610D01*
X349391Y692030D01*
X348457Y694285D01*
X346971Y696221D01*
X345035Y697707D01*
X342780Y698641D01*
X340360Y698960D01*
D02*
G37*
G36*
X774370Y697690D02*
X771950Y697371D01*
X769695Y696437D01*
X767759Y694951D01*
X766273Y693015D01*
X765339Y690760D01*
X765020Y688340D01*
X765339Y685920D01*
X766273Y683665D01*
X767759Y681729D01*
X769695Y680243D01*
X771950Y679309D01*
X774370Y678990D01*
X776790Y679309D01*
X779045Y680243D01*
X780981Y681729D01*
X782467Y683665D01*
X783401Y685920D01*
X783720Y688340D01*
X783401Y690760D01*
X782467Y693015D01*
X780981Y694951D01*
X779045Y696437D01*
X776790Y697371D01*
X774370Y697690D01*
D02*
G37*
G36*
X572770Y673899D02*
X571006Y673548D01*
X569511Y672549D01*
X569064Y671880D01*
X443126D01*
X442679Y672549D01*
X441184Y673548D01*
X439420Y673899D01*
X437656Y673548D01*
X436161Y672549D01*
X435162Y671054D01*
X434811Y669290D01*
X435162Y667526D01*
X436161Y666031D01*
X437656Y665032D01*
X439420Y664681D01*
X441184Y665032D01*
X442679Y666031D01*
X443126Y666700D01*
X569064D01*
X569511Y666031D01*
X571006Y665032D01*
X572770Y664681D01*
X574534Y665032D01*
X576029Y666031D01*
X577028Y667526D01*
X577379Y669290D01*
X577028Y671054D01*
X576029Y672549D01*
X574534Y673548D01*
X572770Y673899D01*
D02*
G37*
G36*
X340360Y673560D02*
X337940Y673241D01*
X335685Y672307D01*
X333749Y670821D01*
X332263Y668885D01*
X331329Y666630D01*
X331010Y664210D01*
X331329Y661790D01*
X332263Y659535D01*
X333749Y657599D01*
X335685Y656113D01*
X337940Y655179D01*
X340360Y654860D01*
X342780Y655179D01*
X345035Y656113D01*
X346971Y657599D01*
X348457Y659535D01*
X349391Y661790D01*
X349710Y664210D01*
X349391Y666630D01*
X348457Y668885D01*
X346971Y670821D01*
X345035Y672307D01*
X342780Y673241D01*
X340360Y673560D01*
D02*
G37*
G36*
X774370Y672290D02*
X771950Y671971D01*
X769695Y671037D01*
X767759Y669551D01*
X766273Y667615D01*
X765339Y665360D01*
X765020Y662940D01*
X765339Y660520D01*
X766273Y658265D01*
X767759Y656329D01*
X769695Y654843D01*
X771950Y653909D01*
X774370Y653590D01*
X776790Y653909D01*
X779045Y654843D01*
X780981Y656329D01*
X782467Y658265D01*
X783401Y660520D01*
X783720Y662940D01*
X783401Y665360D01*
X782467Y667615D01*
X780981Y669551D01*
X779045Y671037D01*
X776790Y671971D01*
X774370Y672290D01*
D02*
G37*
G36*
X340360Y648160D02*
X337940Y647841D01*
X335685Y646907D01*
X333749Y645421D01*
X332263Y643485D01*
X331329Y641230D01*
X331010Y638810D01*
X331329Y636390D01*
X332263Y634135D01*
X333749Y632199D01*
X335685Y630713D01*
X337940Y629779D01*
X340360Y629460D01*
X342780Y629779D01*
X345035Y630713D01*
X346971Y632199D01*
X348457Y634135D01*
X349391Y636390D01*
X349710Y638810D01*
X349391Y641230D01*
X348457Y643485D01*
X346971Y645421D01*
X345035Y646907D01*
X342780Y647841D01*
X340360Y648160D01*
D02*
G37*
G36*
X774370Y646890D02*
X771950Y646571D01*
X769695Y645637D01*
X767759Y644151D01*
X766273Y642215D01*
X765339Y639960D01*
X765020Y637540D01*
X765339Y635120D01*
X766273Y632865D01*
X767759Y630929D01*
X769695Y629443D01*
X771950Y628509D01*
X774370Y628190D01*
X776790Y628509D01*
X779045Y629443D01*
X780981Y630929D01*
X782467Y632865D01*
X783401Y635120D01*
X783720Y637540D01*
X783401Y639960D01*
X782467Y642215D01*
X780981Y644151D01*
X779045Y645637D01*
X776790Y646571D01*
X774370Y646890D01*
D02*
G37*
G36*
X340360Y622760D02*
X337940Y622441D01*
X335685Y621507D01*
X333749Y620021D01*
X332263Y618085D01*
X331329Y615830D01*
X331010Y613410D01*
X331329Y610990D01*
X332263Y608735D01*
X333749Y606799D01*
X335685Y605313D01*
X337940Y604379D01*
X340360Y604060D01*
X342780Y604379D01*
X345035Y605313D01*
X346971Y606799D01*
X348457Y608735D01*
X349391Y610990D01*
X349710Y613410D01*
X349391Y615830D01*
X348457Y618085D01*
X346971Y620021D01*
X345035Y621507D01*
X342780Y622441D01*
X340360Y622760D01*
D02*
G37*
G36*
X774370Y621490D02*
X771950Y621171D01*
X769695Y620237D01*
X767759Y618751D01*
X766273Y616815D01*
X765339Y614560D01*
X765020Y612140D01*
X765339Y609720D01*
X766273Y607465D01*
X767759Y605529D01*
X769695Y604043D01*
X771950Y603109D01*
X774370Y602790D01*
X776790Y603109D01*
X779045Y604043D01*
X780981Y605529D01*
X782467Y607465D01*
X783401Y609720D01*
X783720Y612140D01*
X783401Y614560D01*
X782467Y616815D01*
X780981Y618751D01*
X779045Y620237D01*
X776790Y621171D01*
X774370Y621490D01*
D02*
G37*
G36*
X340360Y597360D02*
X337940Y597041D01*
X335685Y596107D01*
X333749Y594621D01*
X332263Y592685D01*
X331329Y590430D01*
X331010Y588010D01*
X331329Y585590D01*
X332263Y583335D01*
X333749Y581399D01*
X335685Y579913D01*
X337940Y578979D01*
X340360Y578660D01*
X342780Y578979D01*
X345035Y579913D01*
X346971Y581399D01*
X348457Y583335D01*
X349391Y585590D01*
X349710Y588010D01*
X349391Y590430D01*
X348457Y592685D01*
X346971Y594621D01*
X345035Y596107D01*
X342780Y597041D01*
X340360Y597360D01*
D02*
G37*
G36*
X774370Y596090D02*
X771950Y595771D01*
X769695Y594837D01*
X767759Y593351D01*
X766273Y591415D01*
X765339Y589160D01*
X765020Y586740D01*
X765339Y584320D01*
X766273Y582065D01*
X767759Y580129D01*
X769695Y578643D01*
X771950Y577709D01*
X774370Y577390D01*
X776790Y577709D01*
X779045Y578643D01*
X780981Y580129D01*
X782467Y582065D01*
X783401Y584320D01*
X783720Y586740D01*
X783401Y589160D01*
X782467Y591415D01*
X780981Y593351D01*
X779045Y594837D01*
X776790Y595771D01*
X774370Y596090D01*
D02*
G37*
G36*
X340360Y571960D02*
X337940Y571641D01*
X335685Y570707D01*
X333749Y569221D01*
X332263Y567285D01*
X331329Y565030D01*
X331010Y562610D01*
X331329Y560190D01*
X332263Y557935D01*
X333749Y555999D01*
X335685Y554513D01*
X337940Y553579D01*
X340360Y553260D01*
X342780Y553579D01*
X345035Y554513D01*
X346971Y555999D01*
X348457Y557935D01*
X349391Y560190D01*
X349710Y562610D01*
X349391Y565030D01*
X348457Y567285D01*
X346971Y569221D01*
X345035Y570707D01*
X342780Y571641D01*
X340360Y571960D01*
D02*
G37*
G36*
X783640Y570610D02*
X765100D01*
Y552070D01*
X783640D01*
Y570610D01*
D02*
G37*
G36*
X340360Y546560D02*
X337940Y546241D01*
X335685Y545307D01*
X333749Y543821D01*
X332263Y541885D01*
X331329Y539630D01*
X331010Y537210D01*
X331329Y534790D01*
X332263Y532535D01*
X333749Y530599D01*
X335685Y529113D01*
X337940Y528179D01*
X340360Y527860D01*
X342780Y528179D01*
X345035Y529113D01*
X346971Y530599D01*
X348457Y532535D01*
X349391Y534790D01*
X349710Y537210D01*
X349391Y539630D01*
X348457Y541885D01*
X346971Y543821D01*
X345035Y545307D01*
X342780Y546241D01*
X340360Y546560D01*
D02*
G37*
G36*
X349630Y521080D02*
X331090D01*
Y502540D01*
X349630D01*
Y521080D01*
D02*
G37*
G36*
X340360Y495760D02*
X337940Y495441D01*
X335685Y494507D01*
X333749Y493021D01*
X332263Y491085D01*
X331329Y488830D01*
X331010Y486410D01*
X331329Y483990D01*
X332263Y481735D01*
X333749Y479799D01*
X335685Y478313D01*
X337940Y477379D01*
X340360Y477060D01*
X342780Y477379D01*
X345035Y478313D01*
X346971Y479799D01*
X348457Y481735D01*
X349391Y483990D01*
X349710Y486410D01*
X349391Y488830D01*
X348457Y491085D01*
X346971Y493021D01*
X345035Y494507D01*
X342780Y495441D01*
X340360Y495760D01*
D02*
G37*
G36*
X449580Y549439D02*
X447816Y549088D01*
X446321Y548089D01*
X445322Y546594D01*
X444971Y544830D01*
X445322Y543066D01*
X446321Y541571D01*
X447816Y540572D01*
X449580Y540221D01*
X451344Y540572D01*
X452839Y541571D01*
X453286Y542240D01*
X509467D01*
X566370Y485337D01*
Y464820D01*
Y433450D01*
X559690D01*
Y414910D01*
X578230D01*
Y433450D01*
X571550D01*
Y463500D01*
X604624D01*
X605071Y462831D01*
X606566Y461832D01*
X608330Y461481D01*
X610094Y461832D01*
X611589Y462831D01*
X612588Y464326D01*
X612939Y466090D01*
X612588Y467854D01*
X611589Y469349D01*
X610094Y470348D01*
X608330Y470699D01*
X606566Y470348D01*
X605071Y469349D01*
X604624Y468680D01*
X571550D01*
Y486410D01*
X571353Y487401D01*
X570791Y488241D01*
X512371Y546661D01*
X511531Y547223D01*
X510540Y547420D01*
X453286D01*
X452839Y548089D01*
X451344Y549088D01*
X449580Y549439D01*
D02*
G37*
G36*
X349630Y470280D02*
X331090D01*
Y451740D01*
X349630D01*
Y470280D01*
D02*
G37*
G36*
X699770Y452691D02*
Y448310D01*
X704151D01*
X703954Y449299D01*
X702674Y451214D01*
X700759Y452494D01*
X699770Y452691D01*
D02*
G37*
G36*
X697230D02*
X696241Y452494D01*
X694326Y451214D01*
X693046Y449299D01*
X692849Y448310D01*
X697230D01*
Y452691D01*
D02*
G37*
G36*
X704151Y445770D02*
X699770D01*
Y441389D01*
X700759Y441586D01*
X702674Y442866D01*
X703954Y444781D01*
X704151Y445770D01*
D02*
G37*
G36*
X697230D02*
X692849D01*
X693046Y444781D01*
X694326Y442866D01*
X696241Y441586D01*
X697230Y441389D01*
Y445770D01*
D02*
G37*
G36*
X519430Y434644D02*
Y425450D01*
X528624D01*
X528429Y426931D01*
X527367Y429496D01*
X525677Y431697D01*
X523475Y433387D01*
X520911Y434449D01*
X519430Y434644D01*
D02*
G37*
G36*
X516890D02*
X515409Y434449D01*
X512845Y433387D01*
X510643Y431697D01*
X508953Y429496D01*
X507891Y426931D01*
X507696Y425450D01*
X516890D01*
Y434644D01*
D02*
G37*
G36*
X612140Y558329D02*
X610376Y557978D01*
X608881Y556979D01*
X607882Y555484D01*
X607531Y553720D01*
X607882Y551956D01*
X608881Y550461D01*
X609550Y550014D01*
Y521866D01*
X608881Y521419D01*
X607882Y519924D01*
X607531Y518160D01*
X607882Y516396D01*
X608881Y514901D01*
X609550Y514454D01*
Y496570D01*
X609747Y495579D01*
X610309Y494739D01*
X672539Y432509D01*
X673379Y431947D01*
X674370Y431750D01*
X746406D01*
X746792Y430480D01*
X746041Y429979D01*
X745042Y428484D01*
X744691Y426720D01*
X745042Y424956D01*
X746041Y423461D01*
X746710Y423014D01*
Y403663D01*
X727907Y384860D01*
X713636D01*
X713189Y385529D01*
X711694Y386528D01*
X709930Y386879D01*
X708166Y386528D01*
X706671Y385529D01*
X705672Y384034D01*
X705321Y382270D01*
X705672Y380506D01*
X706671Y379011D01*
X708166Y378012D01*
X709930Y377661D01*
X711694Y378012D01*
X713189Y379011D01*
X713636Y379680D01*
X728980D01*
X729971Y379877D01*
X730811Y380439D01*
X751131Y400759D01*
X751693Y401599D01*
X751890Y402590D01*
Y423014D01*
X752559Y423461D01*
X753558Y424956D01*
X753909Y426720D01*
X753558Y428484D01*
X752559Y429979D01*
X751808Y430480D01*
X752194Y431750D01*
X757837D01*
X758222Y430480D01*
X757471Y429979D01*
X756472Y428484D01*
X756121Y426720D01*
X756472Y424956D01*
X757471Y423461D01*
X758140Y423014D01*
Y402393D01*
X750089Y394342D01*
X749300Y394499D01*
X747536Y394148D01*
X746041Y393149D01*
X745042Y391654D01*
X744691Y389890D01*
X745042Y388126D01*
X746041Y386631D01*
X747536Y385632D01*
X749300Y385281D01*
X751064Y385632D01*
X752559Y386631D01*
X753558Y388126D01*
X753909Y389890D01*
X753752Y390679D01*
X762560Y399487D01*
X762565Y399487D01*
X763830Y399102D01*
Y398400D01*
X773100D01*
Y408940D01*
Y419480D01*
X764590D01*
X763830Y419480D01*
X763320Y420539D01*
Y423014D01*
X763989Y423461D01*
X764988Y424956D01*
X765339Y426720D01*
X764988Y428484D01*
X763989Y429979D01*
X763238Y430480D01*
X763624Y431750D01*
X765409D01*
X766273Y429665D01*
X767759Y427729D01*
X769695Y426243D01*
X771950Y425309D01*
X774370Y424990D01*
X776790Y425309D01*
X779045Y426243D01*
X780981Y427729D01*
X782467Y429665D01*
X783401Y431920D01*
X783720Y434340D01*
X783401Y436760D01*
X782467Y439015D01*
X780981Y440951D01*
X779045Y442437D01*
X776790Y443371D01*
X774370Y443690D01*
X771950Y443371D01*
X769695Y442437D01*
X767759Y440951D01*
X766273Y439015D01*
X765409Y436930D01*
X675443D01*
X614730Y497643D01*
Y514454D01*
X615399Y514901D01*
X616398Y516396D01*
X616749Y518160D01*
X616398Y519924D01*
X615399Y521419D01*
X614730Y521866D01*
Y550014D01*
X615399Y550461D01*
X616398Y551956D01*
X616749Y553720D01*
X616398Y555484D01*
X615399Y556979D01*
X613904Y557978D01*
X612140Y558329D01*
D02*
G37*
G36*
X458470Y538009D02*
X456706Y537658D01*
X455211Y536659D01*
X454212Y535164D01*
X453861Y533400D01*
X454212Y531636D01*
X455211Y530141D01*
X456706Y529142D01*
X458470Y528791D01*
X459259Y528948D01*
X490170Y498037D01*
Y433141D01*
X488085Y432277D01*
X486149Y430791D01*
X484663Y428855D01*
X483729Y426600D01*
X483410Y424180D01*
X483729Y421760D01*
X484663Y419505D01*
X486149Y417569D01*
X488085Y416083D01*
X490340Y415149D01*
X492760Y414830D01*
X495180Y415149D01*
X497435Y416083D01*
X499371Y417569D01*
X500857Y419505D01*
X501791Y421760D01*
X502110Y424180D01*
X501791Y426600D01*
X500857Y428855D01*
X499371Y430791D01*
X497435Y432277D01*
X495350Y433141D01*
Y499110D01*
X495153Y500101D01*
X494591Y500941D01*
X462922Y532611D01*
X463079Y533400D01*
X462728Y535164D01*
X461729Y536659D01*
X460234Y537658D01*
X458470Y538009D01*
D02*
G37*
G36*
X467360Y433530D02*
X464940Y433211D01*
X462685Y432277D01*
X460749Y430791D01*
X459263Y428855D01*
X458329Y426600D01*
X458010Y424180D01*
X458329Y421760D01*
X459263Y419505D01*
X460749Y417569D01*
X462685Y416083D01*
X464940Y415149D01*
X467360Y414830D01*
X469780Y415149D01*
X472035Y416083D01*
X473971Y417569D01*
X475457Y419505D01*
X476391Y421760D01*
X476710Y424180D01*
X476391Y426600D01*
X475457Y428855D01*
X473971Y430791D01*
X472035Y432277D01*
X469780Y433211D01*
X467360Y433530D01*
D02*
G37*
G36*
X441960D02*
X439540Y433211D01*
X437285Y432277D01*
X435349Y430791D01*
X433863Y428855D01*
X432929Y426600D01*
X432610Y424180D01*
X432929Y421760D01*
X433863Y419505D01*
X435349Y417569D01*
X437285Y416083D01*
X439540Y415149D01*
X441960Y414830D01*
X444380Y415149D01*
X446635Y416083D01*
X448571Y417569D01*
X450057Y419505D01*
X450991Y421760D01*
X451310Y424180D01*
X450991Y426600D01*
X450057Y428855D01*
X448571Y430791D01*
X446635Y432277D01*
X444380Y433211D01*
X441960Y433530D01*
D02*
G37*
G36*
X543560D02*
X541140Y433211D01*
X538885Y432277D01*
X536949Y430791D01*
X535463Y428855D01*
X534529Y426600D01*
X534210Y424180D01*
X534529Y421760D01*
X535392Y419675D01*
X528517Y412800D01*
X521547D01*
X521294Y414070D01*
X523475Y414973D01*
X525677Y416663D01*
X527367Y418865D01*
X528429Y421428D01*
X528624Y422910D01*
X518160D01*
X507696D01*
X507891Y421428D01*
X508953Y418865D01*
X510643Y416663D01*
X512845Y414973D01*
X515026Y414070D01*
X514773Y412800D01*
X349630D01*
Y419480D01*
X331090D01*
Y404603D01*
X326719Y400231D01*
X326157Y399391D01*
X325960Y398400D01*
Y331080D01*
X322970D01*
Y311540D01*
X342510D01*
Y331080D01*
X331140D01*
Y377426D01*
X332410Y377857D01*
X332843Y377293D01*
X335045Y375603D01*
X337608Y374541D01*
X339090Y374346D01*
Y384810D01*
Y395274D01*
X337608Y395079D01*
X335045Y394017D01*
X332843Y392327D01*
X332410Y391763D01*
X331140Y392194D01*
Y397327D01*
X334753Y400940D01*
X349630D01*
Y407620D01*
X529590D01*
X530581Y407817D01*
X531421Y408379D01*
X539055Y416012D01*
X541140Y415149D01*
X543560Y414830D01*
X545980Y415149D01*
X548235Y416083D01*
X550171Y417569D01*
X551657Y419505D01*
X552591Y421760D01*
X552910Y424180D01*
X552591Y426600D01*
X551657Y428855D01*
X550171Y430791D01*
X548235Y432277D01*
X545980Y433211D01*
X543560Y433530D01*
D02*
G37*
G36*
X775640Y419480D02*
Y410210D01*
X784910D01*
Y419480D01*
X775640D01*
D02*
G37*
G36*
X784910Y407670D02*
X775640D01*
Y398400D01*
X784910D01*
Y407670D01*
D02*
G37*
G36*
X341630Y395274D02*
Y386080D01*
X350824D01*
X350629Y387561D01*
X349567Y390126D01*
X347877Y392327D01*
X345676Y394017D01*
X343111Y395079D01*
X341630Y395274D01*
D02*
G37*
G36*
X350824Y383540D02*
X341630D01*
Y374346D01*
X343111Y374541D01*
X345676Y375603D01*
X347877Y377293D01*
X349567Y379495D01*
X350629Y382058D01*
X350824Y383540D01*
D02*
G37*
G36*
X718820Y341163D02*
X716569Y340715D01*
X714660Y339440D01*
X713385Y337531D01*
X712937Y335280D01*
X713385Y333029D01*
X714660Y331120D01*
X716569Y329845D01*
X718820Y329397D01*
X721071Y329845D01*
X722980Y331120D01*
X724255Y333029D01*
X724703Y335280D01*
X724255Y337531D01*
X722980Y339440D01*
X721071Y340715D01*
X718820Y341163D01*
D02*
G37*
G36*
X674820D02*
X672569Y340715D01*
X670660Y339440D01*
X669385Y337531D01*
X668937Y335280D01*
X669385Y333029D01*
X670660Y331120D01*
X672569Y329845D01*
X674820Y329397D01*
X677071Y329845D01*
X678980Y331120D01*
X680255Y333029D01*
X680703Y335280D01*
X680255Y337531D01*
X678980Y339440D01*
X677071Y340715D01*
X674820Y341163D01*
D02*
G37*
G36*
X369010Y332278D02*
Y322580D01*
X378708D01*
X378496Y324192D01*
X377383Y326878D01*
X375614Y329184D01*
X373308Y330953D01*
X370622Y332066D01*
X369010Y332278D01*
D02*
G37*
G36*
X366470D02*
X364858Y332066D01*
X362172Y330953D01*
X359866Y329184D01*
X358097Y326878D01*
X356984Y324192D01*
X356772Y322580D01*
X366470D01*
Y332278D01*
D02*
G37*
G36*
X378708Y320040D02*
X369010D01*
Y310342D01*
X370622Y310554D01*
X373308Y311667D01*
X375614Y313436D01*
X377383Y315742D01*
X378496Y318428D01*
X378708Y320040D01*
D02*
G37*
G36*
X366470D02*
X356772D01*
X356984Y318428D01*
X358097Y315742D01*
X359866Y313436D01*
X362172Y311667D01*
X364858Y310554D01*
X366470Y310342D01*
Y320040D01*
D02*
G37*
G36*
X839470Y315804D02*
X836085Y315470D01*
X832829Y314483D01*
X829829Y312879D01*
X827199Y310721D01*
X825041Y308091D01*
X823437Y305091D01*
X822450Y301835D01*
X822116Y298450D01*
X822450Y295065D01*
X823437Y291809D01*
X825041Y288809D01*
X827199Y286179D01*
X829829Y284021D01*
X832829Y282417D01*
X836085Y281430D01*
X839470Y281096D01*
X842856Y281430D01*
X846111Y282417D01*
X849111Y284021D01*
X851741Y286179D01*
X853899Y288809D01*
X855503Y291809D01*
X856490Y295065D01*
X856824Y298450D01*
X856490Y301835D01*
X855503Y305091D01*
X853899Y308091D01*
X851741Y310721D01*
X849111Y312879D01*
X846111Y314483D01*
X842856Y315470D01*
X839470Y315804D01*
D02*
G37*
G36*
X284480D02*
X281094Y315470D01*
X277839Y314483D01*
X274839Y312879D01*
X272209Y310721D01*
X270051Y308091D01*
X268447Y305091D01*
X267460Y301835D01*
X267126Y298450D01*
X267460Y295065D01*
X268447Y291809D01*
X270051Y288809D01*
X272209Y286179D01*
X274839Y284021D01*
X277839Y282417D01*
X281094Y281430D01*
X284480Y281096D01*
X287866Y281430D01*
X291121Y282417D01*
X294121Y284021D01*
X296751Y286179D01*
X298909Y288809D01*
X300513Y291809D01*
X301500Y295065D01*
X301834Y298450D01*
X301500Y301835D01*
X300513Y305091D01*
X298909Y308091D01*
X296751Y310721D01*
X294121Y312879D01*
X291121Y314483D01*
X287866Y315470D01*
X284480Y315804D01*
D02*
G37*
G36*
X455930Y328459D02*
X454166Y328108D01*
X452671Y327109D01*
X451672Y325614D01*
X451321Y323850D01*
X451672Y322086D01*
X452671Y320591D01*
X453340Y320144D01*
Y281836D01*
X452671Y281389D01*
X451672Y279894D01*
X451321Y278130D01*
X451672Y276366D01*
X452671Y274871D01*
X454166Y273872D01*
X455930Y273521D01*
X457694Y273872D01*
X459189Y274871D01*
X460188Y276366D01*
X460539Y278130D01*
X460188Y279894D01*
X459189Y281389D01*
X458520Y281836D01*
Y320144D01*
X459189Y320591D01*
X460188Y322086D01*
X460539Y323850D01*
X460188Y325614D01*
X459189Y327109D01*
X457694Y328108D01*
X455930Y328459D01*
D02*
G37*
G36*
X417830D02*
X416066Y328108D01*
X414571Y327109D01*
X413572Y325614D01*
X413221Y323850D01*
X413572Y322086D01*
X414571Y320591D01*
X415240Y320144D01*
Y281836D01*
X414571Y281389D01*
X413572Y279894D01*
X413221Y278130D01*
X413572Y276366D01*
X414571Y274871D01*
X416066Y273872D01*
X417830Y273521D01*
X419594Y273872D01*
X421089Y274871D01*
X422088Y276366D01*
X422439Y278130D01*
X422088Y279894D01*
X421089Y281389D01*
X420420Y281836D01*
Y320144D01*
X421089Y320591D01*
X422088Y322086D01*
X422439Y323850D01*
X422088Y325614D01*
X421089Y327109D01*
X419594Y328108D01*
X417830Y328459D01*
D02*
G37*
%LPD*%
D11*
X541730Y272340D02*
X748154D01*
X534670Y279400D02*
X541730Y272340D01*
X748154D02*
X795020Y319206D01*
X579120Y279400D02*
X748030D01*
X789940Y321310D01*
X760730Y401320D02*
Y426720D01*
X749300Y389890D02*
X760730Y401320D01*
X674370Y434340D02*
X774370D01*
X612140Y496570D02*
X674370Y434340D01*
X728980Y382270D02*
X749300Y402590D01*
X709930Y382270D02*
X728980D01*
X749300Y402590D02*
Y426720D01*
X612140Y604520D02*
X661670Y554990D01*
Y523240D02*
Y554990D01*
Y523240D02*
X674370Y510540D01*
X774370D01*
X689610Y485140D02*
X774370D01*
X674370D02*
X689610D01*
X612140Y518160D02*
Y553720D01*
Y496570D02*
Y518160D01*
X621030Y531296D02*
X692586Y459740D01*
X568960Y464820D02*
Y486410D01*
Y424180D02*
Y464820D01*
X570230Y466090D01*
X608330D01*
X748030Y519430D02*
X752058Y523458D01*
X790992D01*
X795020Y519430D01*
Y319206D02*
Y519430D01*
X750570Y497840D02*
X788452D01*
X789940Y321310D02*
Y496352D01*
X747770Y500640D02*
X750570Y497840D01*
X788452D02*
X789940Y496352D01*
X328550Y398400D02*
X340360Y410210D01*
X328550Y325500D02*
Y398400D01*
Y325500D02*
X332740Y321310D01*
X529590Y410210D02*
X543560Y424180D01*
X340360Y410210D02*
X529590D01*
X455930Y278130D02*
Y323850D01*
X417830Y278130D02*
Y323850D01*
X510540Y544830D02*
X568960Y486410D01*
X621030Y531296D02*
Y542290D01*
X692586Y459740D02*
X774370D01*
X439420Y669290D02*
X572770D01*
X449580Y544830D02*
X510540D01*
X492760Y424180D02*
Y499110D01*
X458470Y533400D02*
X492760Y499110D01*
X612140Y591820D02*
X648970Y554990D01*
Y510540D02*
Y554990D01*
Y510540D02*
X674370Y485140D01*
D24*
X698500Y447040D02*
D03*
X393700Y800100D02*
D03*
X621660Y798830D02*
D03*
X581660D02*
D03*
X433070Y800100D02*
D03*
X547370Y850900D02*
D03*
X508000D02*
D03*
X467360D02*
D03*
X547370Y890900D02*
D03*
X508000D02*
D03*
X467360D02*
D03*
X534670Y279400D02*
D03*
X579120D02*
D03*
X760730Y426720D02*
D03*
X749300Y389890D02*
D03*
Y426720D02*
D03*
X661670Y554990D02*
D03*
X689610Y485140D02*
D03*
X612140Y518160D02*
D03*
X678180Y474980D02*
D03*
X608330Y466090D02*
D03*
X748030Y519430D02*
D03*
X747770Y500640D02*
D03*
X709930Y382270D02*
D03*
X455930Y278130D02*
D03*
Y323850D02*
D03*
X417830Y278130D02*
D03*
Y323850D02*
D03*
X621030Y542290D02*
D03*
X572770Y669290D02*
D03*
X439420D02*
D03*
X449580Y544830D02*
D03*
X458470Y533400D02*
D03*
X612140Y604520D02*
D03*
Y591820D02*
D03*
Y553720D02*
D03*
D25*
X284480Y886460D02*
D03*
X839470D02*
D03*
Y298450D02*
D03*
X284480D02*
D03*
D26*
X718820Y335280D02*
D03*
X674820D02*
D03*
D27*
X340360Y461010D02*
D03*
X774370Y561340D02*
D03*
X340360Y410210D02*
D03*
Y511810D02*
D03*
X774370Y408940D02*
D03*
D28*
X340360Y486410D02*
D03*
X774370Y586740D02*
D03*
Y612140D02*
D03*
Y637540D02*
D03*
Y662940D02*
D03*
Y688340D02*
D03*
X340360Y384810D02*
D03*
Y689610D02*
D03*
Y664210D02*
D03*
Y638810D02*
D03*
Y613410D02*
D03*
Y588010D02*
D03*
Y562610D02*
D03*
Y537210D02*
D03*
X774370Y434340D02*
D03*
Y459740D02*
D03*
Y485140D02*
D03*
Y510540D02*
D03*
X543560Y424180D02*
D03*
X518160D02*
D03*
X492760D02*
D03*
X467360D02*
D03*
X441960D02*
D03*
D29*
X581650Y845970D02*
D03*
Y896770D02*
D03*
X632450D02*
D03*
Y845970D02*
D03*
X381330Y846020D02*
D03*
Y896820D02*
D03*
X432130D02*
D03*
Y846020D02*
D03*
D30*
X607050Y871370D02*
D03*
X406730Y871420D02*
D03*
D31*
X332740Y321310D02*
D03*
D32*
X367740D02*
D03*
D33*
X568960Y424180D02*
D03*
%TF.MD5,f6556cddea0fc402dcd146eb09916260*%
M02*
