G04*
G04 #@! TF.GenerationSoftware,Altium Limited,Altium NEXUS,2.1.7 (73)*
G04*
G04 Layer_Color=16711935*
%FSLAX44Y44*%
%MOMM*%
G71*
G01*
G75*
%ADD41C,0.8532*%
%ADD42C,1.7272*%
%ADD43C,1.1032*%
%ADD44R,1.8032X1.8032*%
%ADD45C,1.8032*%
%ADD46C,2.6032*%
%ADD47C,2.4532*%
%ADD48R,1.9032X1.9032*%
%ADD49C,1.9032*%
%ADD50R,1.8032X1.8032*%
D41*
X698500Y447040D02*
D03*
X393700Y800100D02*
D03*
X621660Y798830D02*
D03*
X581660D02*
D03*
X433070Y800100D02*
D03*
X547370Y850900D02*
D03*
X508000D02*
D03*
X467360D02*
D03*
X547370Y890900D02*
D03*
X508000D02*
D03*
X467360D02*
D03*
X534670Y279400D02*
D03*
X579120D02*
D03*
X760730Y426720D02*
D03*
X749300Y389890D02*
D03*
Y426720D02*
D03*
X661670Y554990D02*
D03*
X689610Y485140D02*
D03*
X612140Y518160D02*
D03*
X678180Y474980D02*
D03*
X608330Y466090D02*
D03*
X748030Y519430D02*
D03*
X747770Y500640D02*
D03*
X709930Y382270D02*
D03*
X455930Y278130D02*
D03*
Y323850D02*
D03*
X417830Y278130D02*
D03*
Y323850D02*
D03*
X621030Y542290D02*
D03*
X572770Y669290D02*
D03*
X439420D02*
D03*
X449580Y544830D02*
D03*
X458470Y533400D02*
D03*
X612140Y604520D02*
D03*
Y591820D02*
D03*
Y553720D02*
D03*
D42*
X284480Y886460D02*
D03*
X839470D02*
D03*
Y298450D02*
D03*
X284480D02*
D03*
D43*
X718820Y335280D02*
D03*
X674820D02*
D03*
D44*
X340360Y461010D02*
D03*
X774370Y561340D02*
D03*
X340360Y410210D02*
D03*
Y511810D02*
D03*
X774370Y408940D02*
D03*
D45*
X340360Y486410D02*
D03*
X774370Y586740D02*
D03*
Y612140D02*
D03*
Y637540D02*
D03*
Y662940D02*
D03*
Y688340D02*
D03*
X340360Y384810D02*
D03*
Y689610D02*
D03*
Y664210D02*
D03*
Y638810D02*
D03*
Y613410D02*
D03*
Y588010D02*
D03*
Y562610D02*
D03*
Y537210D02*
D03*
X774370Y434340D02*
D03*
Y459740D02*
D03*
Y485140D02*
D03*
Y510540D02*
D03*
X543560Y424180D02*
D03*
X518160D02*
D03*
X492760D02*
D03*
X467360D02*
D03*
X441960D02*
D03*
D46*
X581650Y845970D02*
D03*
Y896770D02*
D03*
X632450D02*
D03*
Y845970D02*
D03*
X381330Y846020D02*
D03*
Y896820D02*
D03*
X432130D02*
D03*
Y846020D02*
D03*
D47*
X607050Y871370D02*
D03*
X406730Y871420D02*
D03*
D48*
X332740Y321310D02*
D03*
D49*
X367740D02*
D03*
D50*
X568960Y424180D02*
D03*
M02*
