G04*
G04 #@! TF.GenerationSoftware,Altium Limited,Altium NEXUS,2.1.7 (73)*
G04*
G04 Layer_Color=32768*
%FSLAX44Y44*%
%MOMM*%
G71*
G01*
G75*
%ADD10C,0.1524*%
%ADD64C,0.1000*%
G36*
X649120Y433670D02*
X660620D01*
Y396910D01*
X649120D01*
Y395710D01*
X625960D01*
Y407160D01*
X614460D01*
Y423420D01*
X625960D01*
Y434870D01*
X649120D01*
Y433670D01*
D02*
G37*
D10*
X660620Y396910D02*
Y433670D01*
X649120Y396910D02*
X660620D01*
X649120Y433670D02*
X660620D01*
X649120Y395710D02*
Y396910D01*
Y433670D02*
Y434870D01*
X625960D02*
X649120D01*
X625960Y423420D02*
Y434870D01*
X614460Y423420D02*
X625960D01*
X614460Y407160D02*
Y423420D01*
Y407160D02*
X625960D01*
Y395710D02*
Y407160D01*
Y395710D02*
X649120D01*
D64*
X579240Y282950D02*
X594240D01*
X579240Y313950D02*
X594240D01*
X579240Y282950D02*
Y313950D01*
X594240Y282950D02*
Y313950D01*
X586740Y293700D02*
Y303200D01*
X581990Y298450D02*
X591490D01*
X630040Y525520D02*
X645040D01*
X630040Y556520D02*
X645040D01*
X630040Y525520D02*
Y556520D01*
X645040Y525520D02*
Y556520D01*
X637540Y536270D02*
Y545770D01*
X632790Y541020D02*
X642290D01*
X743520Y408520D02*
Y419520D01*
X719520Y408520D02*
Y419520D01*
Y408520D02*
X743520D01*
X719520Y419520D02*
X743520D01*
X726770Y414020D02*
X736270D01*
X731520Y409270D02*
Y418770D01*
X743520Y421220D02*
Y432220D01*
X719520Y421220D02*
Y432220D01*
Y421220D02*
X743520D01*
X719520Y432220D02*
X743520D01*
X726770Y426720D02*
X736270D01*
X731520Y421970D02*
Y431470D01*
X534790Y282950D02*
X549790D01*
X534790Y313950D02*
X549790D01*
X534790Y282950D02*
Y313950D01*
X549790Y282950D02*
Y313950D01*
X542290Y293700D02*
Y303200D01*
X537540Y298450D02*
X547040D01*
X490340Y281680D02*
X505340D01*
X490340Y312680D02*
X505340D01*
X490340Y281680D02*
Y312680D01*
X505340Y281680D02*
Y312680D01*
X497840Y292430D02*
Y301930D01*
X493090Y297180D02*
X502590D01*
X383120Y711150D02*
X394120D01*
X383120Y687150D02*
X394120D01*
Y711150D01*
X383120Y687150D02*
Y711150D01*
X388620Y694400D02*
Y703900D01*
X383870Y699150D02*
X393370D01*
X624420Y649670D02*
X635420D01*
X624420Y673670D02*
X635420D01*
X624420Y649670D02*
Y673670D01*
X635420Y649670D02*
Y673670D01*
X629920Y656920D02*
Y666420D01*
X625170Y661670D02*
X634670D01*
X448430Y315220D02*
X463430D01*
X448430Y284220D02*
X463430D01*
Y315220D01*
X448430Y284220D02*
Y315220D01*
X455930Y294970D02*
Y304470D01*
X451180Y299720D02*
X460680D01*
X629920Y461340D02*
Y470840D01*
X625170Y466090D02*
X634670D01*
X617920Y471590D02*
X641920D01*
X617920Y460590D02*
X641920D01*
X617920D02*
Y471590D01*
X641920Y460590D02*
Y471590D01*
X410330Y313950D02*
X425330D01*
X410330Y282950D02*
X425330D01*
Y313950D01*
X410330Y282950D02*
Y313950D01*
X417830Y293700D02*
Y303200D01*
X413080Y298450D02*
X422580D01*
M02*
