G04*
G04 #@! TF.GenerationSoftware,Altium Limited,Altium NEXUS,2.1.7 (73)*
G04*
G04 Layer_Color=2752767*
%FSLAX44Y44*%
%MOMM*%
G71*
G01*
G75*
%ADD67C,0.0508*%
%ADD68C,0.0677*%
D67*
X696468Y445008D02*
Y449072D01*
X700532D01*
Y445008D01*
X696468D01*
X391668Y798068D02*
Y802132D01*
X395732D01*
Y798068D01*
X391668D01*
X619628Y796798D02*
Y800862D01*
X623692D01*
Y796798D01*
X619628D01*
X579628D02*
Y800862D01*
X583692D01*
Y796798D01*
X579628D01*
X431038Y798068D02*
Y802132D01*
X435102D01*
Y798068D01*
X431038D01*
X545338Y848868D02*
Y852932D01*
X549402D01*
Y848868D01*
X545338D01*
X505968D02*
Y852932D01*
X510032D01*
Y848868D01*
X505968D01*
X465328D02*
Y852932D01*
X469392D01*
Y848868D01*
X465328D01*
X545338Y888868D02*
Y892932D01*
X549402D01*
Y888868D01*
X545338D01*
X505968D02*
Y892932D01*
X510032D01*
Y888868D01*
X505968D01*
X465328D02*
Y892932D01*
X469392D01*
Y888868D01*
X465328D01*
X718820Y333248D02*
X716788Y337312D01*
X720852D01*
X718820Y333248D01*
X674820D02*
X672788Y337312D01*
X676852D01*
X674820Y333248D01*
X340360Y458978D02*
X341376Y459994D01*
X342392D01*
X341376Y461010D01*
X342392Y462026D01*
X341376D01*
X340360Y463042D01*
X339344Y462026D01*
X338328D01*
X339344Y461010D01*
X338328Y459994D01*
X339344D01*
X340360Y458978D01*
Y484378D02*
X341376Y485394D01*
X342392D01*
X341376Y486410D01*
X342392Y487426D01*
X341376D01*
X340360Y488442D01*
X339344Y487426D01*
X338328D01*
X339344Y486410D01*
X338328Y485394D01*
X339344D01*
X340360Y484378D01*
X774370Y559308D02*
X775386Y560324D01*
X776402D01*
X775386Y561340D01*
X776402Y562356D01*
X775386D01*
X774370Y563372D01*
X773354Y562356D01*
X772338D01*
X773354Y561340D01*
X772338Y560324D01*
X773354D01*
X774370Y559308D01*
Y584708D02*
X775386Y585724D01*
X776402D01*
X775386Y586740D01*
X776402Y587756D01*
X775386D01*
X774370Y588772D01*
X773354Y587756D01*
X772338D01*
X773354Y586740D01*
X772338Y585724D01*
X773354D01*
X774370Y584708D01*
Y610108D02*
X775386Y611124D01*
X776402D01*
X775386Y612140D01*
X776402Y613156D01*
X775386D01*
X774370Y614172D01*
X773354Y613156D01*
X772338D01*
X773354Y612140D01*
X772338Y611124D01*
X773354D01*
X774370Y610108D01*
Y635508D02*
X775386Y636524D01*
X776402D01*
X775386Y637540D01*
X776402Y638556D01*
X775386D01*
X774370Y639572D01*
X773354Y638556D01*
X772338D01*
X773354Y637540D01*
X772338Y636524D01*
X773354D01*
X774370Y635508D01*
Y660908D02*
X775386Y661924D01*
X776402D01*
X775386Y662940D01*
X776402Y663956D01*
X775386D01*
X774370Y664972D01*
X773354Y663956D01*
X772338D01*
X773354Y662940D01*
X772338Y661924D01*
X773354D01*
X774370Y660908D01*
Y686308D02*
X775386Y687324D01*
X776402D01*
X775386Y688340D01*
X776402Y689356D01*
X775386D01*
X774370Y690372D01*
X773354Y689356D01*
X772338D01*
X773354Y688340D01*
X772338Y687324D01*
X773354D01*
X774370Y686308D01*
X340360Y408178D02*
X341376Y409194D01*
X342392D01*
X341376Y410210D01*
X342392Y411226D01*
X341376D01*
X340360Y412242D01*
X339344Y411226D01*
X338328D01*
X339344Y410210D01*
X338328Y409194D01*
X339344D01*
X340360Y408178D01*
Y382778D02*
X341376Y383794D01*
X342392D01*
X341376Y384810D01*
X342392Y385826D01*
X341376D01*
X340360Y386842D01*
X339344Y385826D01*
X338328D01*
X339344Y384810D01*
X338328Y383794D01*
X339344D01*
X340360Y382778D01*
Y687578D02*
X341376Y688594D01*
X342392D01*
X341376Y689610D01*
X342392Y690626D01*
X341376D01*
X340360Y691642D01*
X339344Y690626D01*
X338328D01*
X339344Y689610D01*
X338328Y688594D01*
X339344D01*
X340360Y687578D01*
Y662178D02*
X341376Y663194D01*
X342392D01*
X341376Y664210D01*
X342392Y665226D01*
X341376D01*
X340360Y666242D01*
X339344Y665226D01*
X338328D01*
X339344Y664210D01*
X338328Y663194D01*
X339344D01*
X340360Y662178D01*
Y636778D02*
X341376Y637794D01*
X342392D01*
X341376Y638810D01*
X342392Y639826D01*
X341376D01*
X340360Y640842D01*
X339344Y639826D01*
X338328D01*
X339344Y638810D01*
X338328Y637794D01*
X339344D01*
X340360Y636778D01*
Y611378D02*
X341376Y612394D01*
X342392D01*
X341376Y613410D01*
X342392Y614426D01*
X341376D01*
X340360Y615442D01*
X339344Y614426D01*
X338328D01*
X339344Y613410D01*
X338328Y612394D01*
X339344D01*
X340360Y611378D01*
Y585978D02*
X341376Y586994D01*
X342392D01*
X341376Y588010D01*
X342392Y589026D01*
X341376D01*
X340360Y590042D01*
X339344Y589026D01*
X338328D01*
X339344Y588010D01*
X338328Y586994D01*
X339344D01*
X340360Y585978D01*
Y560578D02*
X341376Y561594D01*
X342392D01*
X341376Y562610D01*
X342392Y563626D01*
X341376D01*
X340360Y564642D01*
X339344Y563626D01*
X338328D01*
X339344Y562610D01*
X338328Y561594D01*
X339344D01*
X340360Y560578D01*
Y535178D02*
X341376Y536194D01*
X342392D01*
X341376Y537210D01*
X342392Y538226D01*
X341376D01*
X340360Y539242D01*
X339344Y538226D01*
X338328D01*
X339344Y537210D01*
X338328Y536194D01*
X339344D01*
X340360Y535178D01*
Y509778D02*
X341376Y510794D01*
X342392D01*
X341376Y511810D01*
X342392Y512826D01*
X341376D01*
X340360Y513842D01*
X339344Y512826D01*
X338328D01*
X339344Y511810D01*
X338328Y510794D01*
X339344D01*
X340360Y509778D01*
X579618Y843938D02*
X580634Y845970D01*
X579618Y848002D01*
X581650Y846986D01*
X583682Y848002D01*
X582666Y845970D01*
X583682Y843938D01*
X581650Y844954D01*
X579618Y843938D01*
Y894738D02*
X580634Y896770D01*
X579618Y898802D01*
X581650Y897786D01*
X583682Y898802D01*
X582666Y896770D01*
X583682Y894738D01*
X581650Y895754D01*
X579618Y894738D01*
X630418D02*
X631434Y896770D01*
X630418Y898802D01*
X632450Y897786D01*
X634482Y898802D01*
X633466Y896770D01*
X634482Y894738D01*
X632450Y895754D01*
X630418Y894738D01*
X606034Y870354D02*
Y869338D01*
X608066D01*
Y870354D01*
X609082D01*
Y872386D01*
X608066D01*
Y873402D01*
X606034D01*
Y872386D01*
X605018D01*
Y870354D01*
X606034D01*
X630418Y843938D02*
X631434Y845970D01*
X630418Y848002D01*
X632450Y846986D01*
X634482Y848002D01*
X633466Y845970D01*
X634482Y843938D01*
X632450Y844954D01*
X630418Y843938D01*
X379298Y843988D02*
X380314Y846020D01*
X379298Y848052D01*
X381330Y847036D01*
X383362Y848052D01*
X382346Y846020D01*
X383362Y843988D01*
X381330Y845004D01*
X379298Y843988D01*
Y894788D02*
X380314Y896820D01*
X379298Y898852D01*
X381330Y897836D01*
X383362Y898852D01*
X382346Y896820D01*
X383362Y894788D01*
X381330Y895804D01*
X379298Y894788D01*
X430098D02*
X431114Y896820D01*
X430098Y898852D01*
X432130Y897836D01*
X434162Y898852D01*
X433146Y896820D01*
X434162Y894788D01*
X432130Y895804D01*
X430098Y894788D01*
X405714Y870404D02*
Y869388D01*
X407746D01*
Y870404D01*
X408762D01*
Y872436D01*
X407746D01*
Y873452D01*
X405714D01*
Y872436D01*
X404698D01*
Y870404D01*
X405714D01*
X430098Y843988D02*
X431114Y846020D01*
X430098Y848052D01*
X432130Y847036D01*
X434162Y848052D01*
X433146Y846020D01*
X434162Y843988D01*
X432130Y845004D01*
X430098Y843988D01*
X330708Y319278D02*
X331724D01*
X332740Y320294D01*
X333756Y319278D01*
X334772D01*
Y320294D01*
X333756Y321310D01*
X334772Y322326D01*
Y323342D01*
X333756D01*
X332740Y322326D01*
X331724Y323342D01*
X330708D01*
Y322326D01*
X331724Y321310D01*
X330708Y320294D01*
Y319278D01*
X365708D02*
X366724D01*
X367740Y320294D01*
X368756Y319278D01*
X369772D01*
Y320294D01*
X368756Y321310D01*
X369772Y322326D01*
Y323342D01*
X368756D01*
X367740Y322326D01*
X366724Y323342D01*
X365708D01*
Y322326D01*
X366724Y321310D01*
X365708Y320294D01*
Y319278D01*
X774370Y406908D02*
X775386Y407924D01*
X776402D01*
X775386Y408940D01*
X776402Y409956D01*
X775386D01*
X774370Y410972D01*
X773354Y409956D01*
X772338D01*
X773354Y408940D01*
X772338Y407924D01*
X773354D01*
X774370Y406908D01*
Y432308D02*
X775386Y433324D01*
X776402D01*
X775386Y434340D01*
X776402Y435356D01*
X775386D01*
X774370Y436372D01*
X773354Y435356D01*
X772338D01*
X773354Y434340D01*
X772338Y433324D01*
X773354D01*
X774370Y432308D01*
Y457708D02*
X775386Y458724D01*
X776402D01*
X775386Y459740D01*
X776402Y460756D01*
X775386D01*
X774370Y461772D01*
X773354Y460756D01*
X772338D01*
X773354Y459740D01*
X772338Y458724D01*
X773354D01*
X774370Y457708D01*
Y483108D02*
X775386Y484124D01*
X776402D01*
X775386Y485140D01*
X776402Y486156D01*
X775386D01*
X774370Y487172D01*
X773354Y486156D01*
X772338D01*
X773354Y485140D01*
X772338Y484124D01*
X773354D01*
X774370Y483108D01*
Y508508D02*
X775386Y509524D01*
X776402D01*
X775386Y510540D01*
X776402Y511556D01*
X775386D01*
X774370Y512572D01*
X773354Y511556D01*
X772338D01*
X773354Y510540D01*
X772338Y509524D01*
X773354D01*
X774370Y508508D01*
X568960Y422148D02*
X569976Y423164D01*
X570992D01*
X569976Y424180D01*
X570992Y425196D01*
X569976D01*
X568960Y426212D01*
X567944Y425196D01*
X566928D01*
X567944Y424180D01*
X566928Y423164D01*
X567944D01*
X568960Y422148D01*
X543560D02*
X544576Y423164D01*
X545592D01*
X544576Y424180D01*
X545592Y425196D01*
X544576D01*
X543560Y426212D01*
X542544Y425196D01*
X541528D01*
X542544Y424180D01*
X541528Y423164D01*
X542544D01*
X543560Y422148D01*
X518160D02*
X519176Y423164D01*
X520192D01*
X519176Y424180D01*
X520192Y425196D01*
X519176D01*
X518160Y426212D01*
X517144Y425196D01*
X516128D01*
X517144Y424180D01*
X516128Y423164D01*
X517144D01*
X518160Y422148D01*
X492760D02*
X493776Y423164D01*
X494792D01*
X493776Y424180D01*
X494792Y425196D01*
X493776D01*
X492760Y426212D01*
X491744Y425196D01*
X490728D01*
X491744Y424180D01*
X490728Y423164D01*
X491744D01*
X492760Y422148D01*
X467360D02*
X468376Y423164D01*
X469392D01*
X468376Y424180D01*
X469392Y425196D01*
X468376D01*
X467360Y426212D01*
X466344Y425196D01*
X465328D01*
X466344Y424180D01*
X465328Y423164D01*
X466344D01*
X467360Y422148D01*
X441960D02*
X442976Y423164D01*
X443992D01*
X442976Y424180D01*
X443992Y425196D01*
X442976D01*
X441960Y426212D01*
X440944Y425196D01*
X439928D01*
X440944Y424180D01*
X439928Y423164D01*
X440944D01*
X441960Y422148D01*
X532638Y277368D02*
Y281432D01*
X536702D01*
Y277368D01*
X532638D01*
X577088D02*
Y281432D01*
X581152D01*
Y277368D01*
X577088D01*
X758698Y424688D02*
Y428752D01*
X762762D01*
Y424688D01*
X758698D01*
X747268Y387858D02*
Y391922D01*
X751332D01*
Y387858D01*
X747268D01*
Y424688D02*
Y428752D01*
X751332D01*
Y424688D01*
X747268D01*
X659638Y552958D02*
Y557022D01*
X663702D01*
Y552958D01*
X659638D01*
X687578Y483108D02*
Y487172D01*
X691642D01*
Y483108D01*
X687578D01*
X610108Y516128D02*
Y520192D01*
X614172D01*
Y516128D01*
X610108D01*
X676148Y472948D02*
Y477012D01*
X680212D01*
Y472948D01*
X676148D01*
X606298Y464058D02*
Y468122D01*
X610362D01*
Y464058D01*
X606298D01*
X745998Y517398D02*
Y521462D01*
X750062D01*
Y517398D01*
X745998D01*
X745738Y498608D02*
Y502672D01*
X749802D01*
Y498608D01*
X745738D01*
X707898Y380238D02*
Y384302D01*
X711962D01*
Y380238D01*
X707898D01*
X453898Y276098D02*
Y280162D01*
X457962D01*
Y276098D01*
X453898D01*
Y321818D02*
Y325882D01*
X457962D01*
Y321818D01*
X453898D01*
X415798Y276098D02*
Y280162D01*
X419862D01*
Y276098D01*
X415798D01*
Y321818D02*
Y325882D01*
X419862D01*
Y321818D01*
X415798D01*
X618998Y540258D02*
Y544322D01*
X623062D01*
Y540258D01*
X618998D01*
X570738Y667258D02*
Y671322D01*
X574802D01*
Y667258D01*
X570738D01*
X437388D02*
Y671322D01*
X441452D01*
Y667258D01*
X437388D01*
X447548Y542798D02*
Y546862D01*
X451612D01*
Y542798D01*
X447548D01*
X456438Y531368D02*
Y535432D01*
X460502D01*
Y531368D01*
X456438D01*
X610108Y602488D02*
Y606552D01*
X614172D01*
Y602488D01*
X610108D01*
Y589788D02*
Y593852D01*
X614172D01*
Y589788D01*
X610108D01*
Y551688D02*
Y555752D01*
X614172D01*
Y551688D01*
X610108D01*
D68*
X286512Y886460D02*
G03*
X286512Y886460I-2032J0D01*
G01*
X841502D02*
G03*
X841502Y886460I-2032J0D01*
G01*
Y298450D02*
G03*
X841502Y298450I-2032J0D01*
G01*
X286512D02*
G03*
X286512Y298450I-2032J0D01*
G01*
M02*
