G04*
G04 #@! TF.GenerationSoftware,Altium Limited,Altium NEXUS,2.1.9 (83)*
G04*
G04 Layer_Color=8421504*
%FSLAX44Y44*%
%MOMM*%
G71*
G01*
G75*
%ADD11C,0.2000*%
%ADD17R,1.2000X0.3000*%
%ADD18R,0.3000X1.2000*%
%ADD19R,0.8000X0.9000*%
%ADD20R,0.7000X0.6000*%
%ADD21R,0.6000X0.7000*%
%ADD22R,1.2000X0.9000*%
%ADD23R,0.9000X0.9000*%
%ADD24R,0.7000X0.5000*%
%ADD25R,0.5000X0.7000*%
G04:AMPARAMS|DCode=26|XSize=1.87mm|YSize=0.5mm|CornerRadius=0.025mm|HoleSize=0mm|Usage=FLASHONLY|Rotation=270.000|XOffset=0mm|YOffset=0mm|HoleType=Round|Shape=RoundedRectangle|*
%AMROUNDEDRECTD26*
21,1,1.8700,0.4500,0,0,270.0*
21,1,1.8200,0.5000,0,0,270.0*
1,1,0.0500,-0.2250,-0.9100*
1,1,0.0500,-0.2250,0.9100*
1,1,0.0500,0.2250,0.9100*
1,1,0.0500,0.2250,-0.9100*
%
%ADD26ROUNDEDRECTD26*%
%ADD27R,0.6100X1.6100*%
%ADD28R,1.6100X0.6100*%
%ADD29R,1.4240X0.9160*%
%ADD30R,0.9160X1.4240*%
%ADD31R,0.9500X0.9000*%
%ADD32R,2.1000X0.9500*%
%ADD33R,1.0000X0.9000*%
%ADD34R,0.7000X1.9000*%
%ADD35R,0.2480X1.2970*%
G04:AMPARAMS|DCode=36|XSize=0.575mm|YSize=0.15mm|CornerRadius=0mm|HoleSize=0mm|Usage=FLASHONLY|Rotation=45.000|XOffset=0mm|YOffset=0mm|HoleType=Round|Shape=Rectangle|*
%AMROTATEDRECTD36*
4,1,4,-0.1503,-0.2563,-0.2563,-0.1503,0.1503,0.2563,0.2563,0.1503,-0.1503,-0.2563,0.0*
%
%ADD36ROTATEDRECTD36*%

G04:AMPARAMS|DCode=37|XSize=0.575mm|YSize=0.15mm|CornerRadius=0mm|HoleSize=0mm|Usage=FLASHONLY|Rotation=135.000|XOffset=0mm|YOffset=0mm|HoleType=Round|Shape=Rectangle|*
%AMROTATEDRECTD37*
4,1,4,0.2563,-0.1503,0.1503,-0.2563,-0.2563,0.1503,-0.1503,0.2563,0.2563,-0.1503,0.0*
%
%ADD37ROTATEDRECTD37*%

G04:AMPARAMS|DCode=38|XSize=0.5mm|YSize=0.7mm|CornerRadius=0mm|HoleSize=0mm|Usage=FLASHONLY|Rotation=225.000|XOffset=0mm|YOffset=0mm|HoleType=Round|Shape=Rectangle|*
%AMROTATEDRECTD38*
4,1,4,-0.0707,0.4243,0.4243,-0.0707,0.0707,-0.4243,-0.4243,0.0707,-0.0707,0.4243,0.0*
%
%ADD38ROTATEDRECTD38*%

%ADD39R,0.9000X0.9000*%
%ADD40R,2.9000X2.9000*%
%ADD41R,1.7600X0.8000*%
%ADD42R,1.7600X3.0900*%
%ADD43R,0.8000X1.7600*%
%ADD44R,3.0900X1.7600*%
%ADD45R,0.4000X2.4000*%
%ADD46R,1.9000X2.4000*%
D11*
X700000Y175000D02*
X800000D01*
Y275000D01*
X700000D02*
X800000D01*
X700000Y175000D02*
Y275000D01*
D17*
X692500Y187500D02*
D03*
Y192500D02*
D03*
Y197500D02*
D03*
Y202500D02*
D03*
Y207500D02*
D03*
Y212500D02*
D03*
Y217500D02*
D03*
Y222500D02*
D03*
Y227500D02*
D03*
Y232500D02*
D03*
Y237500D02*
D03*
Y242500D02*
D03*
Y247500D02*
D03*
Y252500D02*
D03*
Y257500D02*
D03*
Y262500D02*
D03*
X807500D02*
D03*
Y257500D02*
D03*
Y252500D02*
D03*
Y247500D02*
D03*
Y242500D02*
D03*
Y237500D02*
D03*
Y232500D02*
D03*
Y227500D02*
D03*
Y222500D02*
D03*
Y217500D02*
D03*
Y212500D02*
D03*
Y207500D02*
D03*
Y202500D02*
D03*
Y197500D02*
D03*
Y192500D02*
D03*
Y187500D02*
D03*
D18*
X712500Y282500D02*
D03*
X717500D02*
D03*
X722500D02*
D03*
X727500D02*
D03*
X732500D02*
D03*
X737500D02*
D03*
X742500D02*
D03*
X747500D02*
D03*
X752500D02*
D03*
X757500D02*
D03*
X762500D02*
D03*
X767500D02*
D03*
X772500D02*
D03*
X777500D02*
D03*
X782500D02*
D03*
X787500D02*
D03*
Y167500D02*
D03*
X782500D02*
D03*
X777500D02*
D03*
X772500D02*
D03*
X767500D02*
D03*
X762500D02*
D03*
X757500D02*
D03*
X752500D02*
D03*
X747500D02*
D03*
X742500D02*
D03*
X737500D02*
D03*
X732500D02*
D03*
X727500D02*
D03*
X722500D02*
D03*
X717500D02*
D03*
X712500D02*
D03*
D19*
X596500Y85000D02*
D03*
X579500D02*
D03*
Y60000D02*
D03*
X596500D02*
D03*
Y33000D02*
D03*
X579500D02*
D03*
D20*
X1233000Y15000D02*
D03*
X1245000D02*
D03*
X1273000Y15000D02*
D03*
X1261000D02*
D03*
X901000Y652000D02*
D03*
X913000D02*
D03*
X900000Y628000D02*
D03*
X912000D02*
D03*
X444000Y539000D02*
D03*
X456000D02*
D03*
X444000Y554000D02*
D03*
X456000D02*
D03*
X444000Y585000D02*
D03*
X456000D02*
D03*
X1273000Y246000D02*
D03*
X1285000D02*
D03*
X973000Y300000D02*
D03*
X961000D02*
D03*
X506000Y382000D02*
D03*
X494000D02*
D03*
D21*
X975000Y468000D02*
D03*
Y456000D02*
D03*
X1012000Y468000D02*
D03*
Y456000D02*
D03*
X651000Y96000D02*
D03*
Y84000D02*
D03*
Y62000D02*
D03*
Y50000D02*
D03*
Y29000D02*
D03*
Y17000D02*
D03*
D22*
X612000Y157000D02*
D03*
Y173000D02*
D03*
D23*
X658000Y583000D02*
D03*
X674000D02*
D03*
X494000Y619000D02*
D03*
X510000D02*
D03*
D24*
X1246000Y246000D02*
D03*
X1258000D02*
D03*
X1221000Y30000D02*
D03*
X1233000D02*
D03*
X1039000Y595000D02*
D03*
X1027000D02*
D03*
X238000Y26000D02*
D03*
X226000D02*
D03*
X827000Y256000D02*
D03*
X839000D02*
D03*
X931000Y300000D02*
D03*
X943000D02*
D03*
X661000Y175000D02*
D03*
X673000D02*
D03*
X839000Y272000D02*
D03*
X827000D02*
D03*
X839000Y195000D02*
D03*
X827000D02*
D03*
X687000Y149000D02*
D03*
X699000D02*
D03*
D25*
X994000Y459000D02*
D03*
Y471000D02*
D03*
X1075000Y331000D02*
D03*
Y319000D02*
D03*
X631000Y159000D02*
D03*
Y171000D02*
D03*
X703000Y313000D02*
D03*
Y301000D02*
D03*
D26*
X456050Y503750D02*
D03*
X443350D02*
D03*
X430650D02*
D03*
X417950D02*
D03*
Y454250D02*
D03*
X430650D02*
D03*
X443350D02*
D03*
X456050D02*
D03*
D27*
X425250Y553950D02*
D03*
X404750D02*
D03*
X415000Y534050D02*
D03*
D28*
X405050Y595250D02*
D03*
Y574750D02*
D03*
X424950Y585000D02*
D03*
X632950Y83750D02*
D03*
Y104250D02*
D03*
X613050Y94000D02*
D03*
X632950Y49750D02*
D03*
Y70250D02*
D03*
X613050Y60000D02*
D03*
X632950Y15750D02*
D03*
Y36250D02*
D03*
X613050Y26000D02*
D03*
D29*
X1349350Y98900D02*
D03*
Y111600D02*
D03*
Y124300D02*
D03*
Y137000D02*
D03*
Y149700D02*
D03*
Y162400D02*
D03*
Y175100D02*
D03*
D30*
X1336650Y225900D02*
D03*
X1323950D02*
D03*
X1311250D02*
D03*
X1298550D02*
D03*
X1285850D02*
D03*
X1273150D02*
D03*
X1260450D02*
D03*
X1247750D02*
D03*
X1235050D02*
D03*
X1222350D02*
D03*
X1209650D02*
D03*
X1196950D02*
D03*
X1184250D02*
D03*
X1171550D02*
D03*
X1158850D02*
D03*
X1146150D02*
D03*
X1133450D02*
D03*
X1120750D02*
D03*
X1108050D02*
D03*
X1095350D02*
D03*
Y48100D02*
D03*
X1108050D02*
D03*
X1120750D02*
D03*
X1133450D02*
D03*
X1146150D02*
D03*
X1158850D02*
D03*
X1171550D02*
D03*
X1184250D02*
D03*
X1196950D02*
D03*
X1209650D02*
D03*
X1222350D02*
D03*
X1235050D02*
D03*
X1247750D02*
D03*
X1260450D02*
D03*
X1273150D02*
D03*
X1285850D02*
D03*
X1298550D02*
D03*
X1311250D02*
D03*
X1323950D02*
D03*
X1336650D02*
D03*
D31*
X1444000Y212000D02*
D03*
D32*
X1459000Y197250D02*
D03*
Y226750D02*
D03*
D33*
X543500Y85000D02*
D03*
X560500D02*
D03*
X543500Y60000D02*
D03*
X560500D02*
D03*
X543500Y34000D02*
D03*
X560500D02*
D03*
X932500Y652000D02*
D03*
X949500D02*
D03*
X932500Y628000D02*
D03*
X949500D02*
D03*
X1207500Y15000D02*
D03*
X1190500D02*
D03*
X1293500D02*
D03*
X1310500D02*
D03*
X525000Y382000D02*
D03*
X542000D02*
D03*
D34*
X1057347Y392946D02*
D03*
X1012347D02*
D03*
Y322946D02*
D03*
X1057347D02*
D03*
X928648Y323052D02*
D03*
X973648D02*
D03*
Y393052D02*
D03*
X928648D02*
D03*
D35*
X974750Y568560D02*
D03*
X981250D02*
D03*
X987750D02*
D03*
X994250D02*
D03*
X1000750D02*
D03*
X1007250D02*
D03*
X1013750D02*
D03*
X1026750D02*
D03*
X1020250D02*
D03*
X1033250D02*
D03*
X1039750D02*
D03*
X1046250D02*
D03*
X1052750D02*
D03*
X1059250D02*
D03*
X974750Y495440D02*
D03*
X981250D02*
D03*
X987750D02*
D03*
X994250D02*
D03*
X1000750D02*
D03*
X1007250D02*
D03*
X1013750D02*
D03*
X1020250D02*
D03*
X1026750D02*
D03*
X1033250D02*
D03*
X1039750D02*
D03*
X1046250D02*
D03*
X1052750D02*
D03*
X1059250D02*
D03*
D36*
X739305Y342841D02*
D03*
X735770Y346376D02*
D03*
X742841Y339305D02*
D03*
X746376Y335770D02*
D03*
X753624Y364230D02*
D03*
X757159Y360695D02*
D03*
X760695Y357160D02*
D03*
X764230Y353624D02*
D03*
D37*
X739305D02*
D03*
X742841Y357160D02*
D03*
X746376Y360695D02*
D03*
X753624Y339305D02*
D03*
X757159Y342841D02*
D03*
X760695Y346376D02*
D03*
D38*
X788485Y322515D02*
D03*
X780000Y331000D02*
D03*
X779243Y313757D02*
D03*
X770757Y322243D02*
D03*
D39*
X592000Y158000D02*
D03*
Y174000D02*
D03*
X570000Y477000D02*
D03*
Y461000D02*
D03*
D40*
X168000Y30000D02*
D03*
X128000D02*
D03*
D41*
X484250Y501000D02*
D03*
Y478000D02*
D03*
Y455000D02*
D03*
D42*
X545750Y478000D02*
D03*
D43*
X540000Y594750D02*
D03*
X517000D02*
D03*
X494000D02*
D03*
D44*
X517000Y533250D02*
D03*
D45*
X650798Y621300D02*
D03*
X642797D02*
D03*
X634798D02*
D03*
X626797D02*
D03*
X618797D02*
D03*
D46*
X679398D02*
D03*
X590197D02*
D03*
X679398Y676100D02*
D03*
X590197D02*
D03*
M02*
