G04*
G04 #@! TF.GenerationSoftware,Altium Limited,Altium NEXUS,2.1.8 (74)*
G04*
G04 Layer_Color=16711935*
%FSLAX25Y25*%
%MOIN*%
G70*
G01*
G75*
%ADD12C,0.00600*%
%ADD16C,0.01000*%
%ADD148C,0.00100*%
%ADD149C,0.00300*%
D12*
X-26021Y122700D02*
Y126698D01*
X-25021D01*
X-21023Y122700D01*
X-20023D01*
X-25021Y128698D02*
X-26021Y129697D01*
Y131697D01*
X-25021Y132696D01*
X-21023D01*
X-20023Y131697D01*
Y129697D01*
X-21023Y128698D01*
X-25021D01*
X-20023Y134696D02*
X-21023D01*
Y135695D01*
X-20023D01*
Y134696D01*
X-25021Y139694D02*
X-26021Y140694D01*
Y142693D01*
X-25021Y143693D01*
X-21023D01*
X-20023Y142693D01*
Y140694D01*
X-21023Y139694D01*
X-25021D01*
Y145692D02*
X-26021Y146692D01*
Y148691D01*
X-25021Y149691D01*
X-21023D01*
X-20023Y148691D01*
Y146692D01*
X-21023Y145692D01*
X-25021D01*
X280680Y-19347D02*
X282679D01*
X281680D01*
Y-13349D01*
X280680Y-14349D01*
X289677Y-13349D02*
X285678D01*
Y-16348D01*
X287678Y-15348D01*
X288677D01*
X289677Y-16348D01*
Y-18347D01*
X288677Y-19347D01*
X286678D01*
X285678Y-18347D01*
X291676Y-14349D02*
X292676Y-13349D01*
X294675D01*
X295675Y-14349D01*
Y-18347D01*
X294675Y-19347D01*
X292676D01*
X291676Y-18347D01*
Y-14349D01*
X297674Y-19347D02*
Y-18347D01*
X298674D01*
Y-19347D01*
X297674D01*
X302673Y-14349D02*
X303672Y-13349D01*
X305672D01*
X306671Y-14349D01*
Y-18347D01*
X305672Y-19347D01*
X303672D01*
X302673Y-18347D01*
Y-14349D01*
D16*
X-25622Y6000D02*
X-23622Y0D01*
X-21622Y6000D01*
X-23622Y275590D02*
X-21622Y269590D01*
X-25622D02*
X-23622Y275590D01*
Y0D02*
Y121100D01*
Y151291D02*
Y275590D01*
X-24622Y0D02*
X-1000D01*
X-24622Y275590D02*
X3937D01*
X584551Y-17748D02*
X590551Y-15748D01*
X584551Y-13748D02*
X590551Y-15748D01*
X0D02*
X6000Y-13748D01*
X0Y-15748D02*
X6000Y-17748D01*
X308271Y-15748D02*
X590551D01*
X0D02*
X279080D01*
X590551Y-16748D02*
Y11811D01*
X0Y-16748D02*
Y-1000D01*
D148*
X418079Y77366D02*
X419179D01*
Y81266D01*
X418079D02*
X419179D01*
X418079Y77366D02*
Y81266D01*
X416110Y77366D02*
X417210D01*
Y81266D01*
X416110D02*
X417210D01*
X416110Y77366D02*
Y81266D01*
X414142Y77366D02*
X415242D01*
Y81266D01*
X414142D02*
X415242D01*
X414142Y77366D02*
Y81266D01*
X412173Y77366D02*
X413273D01*
Y81266D01*
X412173D02*
X413273D01*
X412173Y77366D02*
Y81266D01*
X410205Y77366D02*
X411305D01*
Y81266D01*
X410205D02*
X411305D01*
X410205Y77366D02*
Y81266D01*
X408236Y77366D02*
X409336D01*
Y81266D01*
X408236D02*
X409336D01*
X408236Y77366D02*
Y81266D01*
X406268Y77366D02*
X407368D01*
Y81266D01*
X406268D02*
X407368D01*
X406268Y77366D02*
Y81266D01*
X404299Y77366D02*
X405399D01*
Y81266D01*
X404299D02*
X405399D01*
X404299Y77366D02*
Y81266D01*
X402331Y77366D02*
X403431D01*
Y81266D01*
X402331D02*
X403431D01*
X402331Y77366D02*
Y81266D01*
X400362Y77366D02*
X401462D01*
Y81266D01*
X400362D02*
X401462D01*
X400362Y77366D02*
Y81266D01*
X398394Y77366D02*
X399494D01*
Y81266D01*
X398394D02*
X399494D01*
X398394Y77366D02*
Y81266D01*
X396425Y77366D02*
X397525D01*
Y81266D01*
X396425D02*
X397525D01*
X396425Y77366D02*
Y81266D01*
X393602Y73442D02*
Y74542D01*
X389702D02*
X393602D01*
X389702Y73442D02*
Y74542D01*
Y73442D02*
X393602D01*
Y71474D02*
Y72574D01*
X389702D02*
X393602D01*
X389702Y71474D02*
Y72574D01*
Y71474D02*
X393602D01*
Y69505D02*
Y70605D01*
X389702D02*
X393602D01*
X389702Y69505D02*
Y70605D01*
Y69505D02*
X393602D01*
Y67537D02*
Y68637D01*
X389702D02*
X393602D01*
X389702Y67537D02*
Y68637D01*
Y67537D02*
X393602D01*
Y65568D02*
Y66668D01*
X389702D02*
X393602D01*
X389702Y65568D02*
Y66668D01*
Y65568D02*
X393602D01*
Y63600D02*
Y64700D01*
X389702D02*
X393602D01*
X389702Y63600D02*
Y64700D01*
Y63600D02*
X393602D01*
Y61631D02*
Y62731D01*
X389702D02*
X393602D01*
X389702Y61631D02*
Y62731D01*
Y61631D02*
X393602D01*
Y59663D02*
Y60763D01*
X389702D02*
X393602D01*
X389702Y59663D02*
Y60763D01*
Y59663D02*
X393602D01*
Y57694D02*
Y58794D01*
X389702D02*
X393602D01*
X389702Y57694D02*
Y58794D01*
Y57694D02*
X393602D01*
Y55726D02*
Y56826D01*
X389702D02*
X393602D01*
X389702Y55726D02*
Y56826D01*
Y55726D02*
X393602D01*
Y53757D02*
Y54857D01*
X389702D02*
X393602D01*
X389702Y53757D02*
Y54857D01*
Y53757D02*
X393602D01*
Y51789D02*
Y52889D01*
X389702D02*
X393602D01*
X389702Y51789D02*
Y52889D01*
Y51789D02*
X393602D01*
X396425Y48966D02*
X397525D01*
X396425Y45066D02*
Y48966D01*
Y45066D02*
X397525D01*
Y48966D01*
X398394D02*
X399494D01*
X398394Y45066D02*
Y48966D01*
Y45066D02*
X399494D01*
Y48966D01*
X400362D02*
X401462D01*
X400362Y45066D02*
Y48966D01*
Y45066D02*
X401462D01*
Y48966D01*
X402331D02*
X403431D01*
X402331Y45066D02*
Y48966D01*
Y45066D02*
X403431D01*
Y48966D01*
X404299D02*
X405399D01*
X404299Y45066D02*
Y48966D01*
Y45066D02*
X405399D01*
Y48966D01*
X406268D02*
X407368D01*
X406268Y45066D02*
Y48966D01*
Y45066D02*
X407368D01*
Y48966D01*
X408236D02*
X409336D01*
X408236Y45066D02*
Y48966D01*
Y45066D02*
X409336D01*
Y48966D01*
X410205D02*
X411305D01*
X410205Y45066D02*
Y48966D01*
Y45066D02*
X411305D01*
Y48966D01*
X412173D02*
X413273D01*
X412173Y45066D02*
Y48966D01*
Y45066D02*
X413273D01*
Y48966D01*
X414142D02*
X415242D01*
X414142Y45066D02*
Y48966D01*
Y45066D02*
X415242D01*
Y48966D01*
X416110D02*
X417210D01*
X416110Y45066D02*
Y48966D01*
Y45066D02*
X417210D01*
Y48966D01*
X418079D02*
X419179D01*
X418079Y45066D02*
Y48966D01*
Y45066D02*
X419179D01*
Y48966D01*
X422002Y51789D02*
Y52889D01*
Y51789D02*
X425902D01*
Y52889D01*
X422002D02*
X425902D01*
X422002Y53757D02*
Y54857D01*
Y53757D02*
X425902D01*
Y54857D01*
X422002D02*
X425902D01*
X422002Y55726D02*
Y56826D01*
Y55726D02*
X425902D01*
Y56826D01*
X422002D02*
X425902D01*
X422002Y57694D02*
Y58794D01*
Y57694D02*
X425902D01*
Y58794D01*
X422002D02*
X425902D01*
X422002Y59663D02*
Y60763D01*
Y59663D02*
X425902D01*
Y60763D01*
X422002D02*
X425902D01*
X422002Y61631D02*
Y62731D01*
Y61631D02*
X425902D01*
Y62731D01*
X422002D02*
X425902D01*
X422002Y63600D02*
Y64700D01*
Y63600D02*
X425902D01*
Y64700D01*
X422002D02*
X425902D01*
X422002Y65568D02*
Y66668D01*
Y65568D02*
X425902D01*
Y66668D01*
X422002D02*
X425902D01*
X422002Y67537D02*
Y68637D01*
Y67537D02*
X425902D01*
Y68637D01*
X422002D02*
X425902D01*
X422002Y69505D02*
Y70605D01*
Y69505D02*
X425902D01*
Y70605D01*
X422002D02*
X425902D01*
X422002Y71474D02*
Y72574D01*
Y71474D02*
X425902D01*
Y72574D01*
X422002D02*
X425902D01*
X422002Y73442D02*
Y74542D01*
Y73442D02*
X425902D01*
Y74542D01*
X422002D02*
X425902D01*
X393602Y72366D02*
X398602Y77366D01*
X393602Y48966D02*
X422002D01*
Y77366D01*
X393602D02*
X422002D01*
X393602Y48966D02*
Y77366D01*
D149*
X395846Y78101D02*
Y76316D01*
X395102Y77655D02*
X396590Y76762D01*
Y77655D02*
X395102Y76762D01*
M02*
