G04*
G04 #@! TF.GenerationSoftware,Altium Limited,Altium NEXUS,2.1.8 (74)*
G04*
G04 Layer_Color=8421504*
%FSLAX25Y25*%
%MOIN*%
G70*
G01*
G75*
%ADD21R,0.04724X0.05512*%
%ADD22R,0.01370X0.05500*%
%ADD23R,0.03543X0.03937*%
%ADD24R,0.05512X0.04724*%
%ADD25R,0.03937X0.10827*%
%ADD26R,0.03937X0.03937*%
%ADD27R,0.06142X0.01102*%
%ADD28R,0.01102X0.06142*%
G04:AMPARAMS|DCode=29|XSize=55.12mil|YSize=45.28mil|CornerRadius=0mil|HoleSize=0mil|Usage=FLASHONLY|Rotation=180.000|XOffset=0mil|YOffset=0mil|HoleType=Round|Shape=Octagon|*
%AMOCTAGOND29*
4,1,8,-0.02756,0.01132,-0.02756,-0.01132,-0.01624,-0.02264,0.01624,-0.02264,0.02756,-0.01132,0.02756,0.01132,0.01624,0.02264,-0.01624,0.02264,-0.02756,0.01132,0.0*
%
%ADD29OCTAGOND29*%

%ADD30R,0.05512X0.04528*%
%ADD31R,0.03937X0.03937*%
%ADD32R,0.03543X0.03150*%
%ADD33R,0.03937X0.05512*%
%ADD34R,0.03937X0.03543*%
%ADD35R,0.07874X0.09843*%
%ADD36R,0.01968X0.09843*%
%ADD37R,0.04331X0.05512*%
%ADD38R,0.03150X0.03543*%
%ADD39R,0.03937X0.04331*%
%ADD40R,0.12400X0.12400*%
%ADD41R,0.04200X0.01200*%
%ADD42R,0.01200X0.04200*%
%ADD43R,0.07087X0.05118*%
G04:AMPARAMS|DCode=44|XSize=149.61mil|YSize=51.18mil|CornerRadius=0mil|HoleSize=0mil|Usage=FLASHONLY|Rotation=270.000|XOffset=0mil|YOffset=0mil|HoleType=Round|Shape=Octagon|*
%AMOCTAGOND44*
4,1,8,-0.01280,-0.07480,0.01280,-0.07480,0.02559,-0.06201,0.02559,0.06201,0.01280,0.07480,-0.01280,0.07480,-0.02559,0.06201,-0.02559,-0.06201,-0.01280,-0.07480,0.0*
%
%ADD44OCTAGOND44*%

%ADD45R,0.05118X0.14961*%
%ADD46R,0.02362X0.08110*%
%ADD47R,0.00303X0.00984*%
%ADD48R,0.08799X0.06791*%
%ADD49R,0.01595X0.02008*%
%ADD50R,0.01595X0.03898*%
%ADD51R,0.07874X0.11417*%
%ADD52R,0.07480X0.07480*%
%ADD53R,0.02402X0.06339*%
%ADD54R,0.03543X0.07323*%
%ADD55R,0.12559X0.07323*%
%ADD56R,0.05512X0.04331*%
%ADD57R,0.12205X0.20394*%
%ADD58R,0.05807X0.01772*%
%ADD59R,0.05118X0.07087*%
%ADD60R,0.05756X0.00943*%
%ADD61R,0.00943X0.05756*%
D21*
X610457Y666000D02*
D03*
X617543D02*
D03*
X316543Y276500D02*
D03*
X309457D02*
D03*
X218957Y299500D02*
D03*
X226043D02*
D03*
X597587Y666000D02*
D03*
X590500D02*
D03*
X577543Y666000D02*
D03*
X570457D02*
D03*
X557543D02*
D03*
X550457D02*
D03*
X537543D02*
D03*
X530457D02*
D03*
X44587Y409500D02*
D03*
X37500D02*
D03*
X35500Y623000D02*
D03*
X42587D02*
D03*
X102957Y384500D02*
D03*
X110043D02*
D03*
X101957Y597500D02*
D03*
X109043D02*
D03*
X85457Y368000D02*
D03*
X92543D02*
D03*
X82457Y581500D02*
D03*
X89543D02*
D03*
X110000Y393500D02*
D03*
X102913D02*
D03*
X109043Y606000D02*
D03*
X101957D02*
D03*
X68457Y368000D02*
D03*
X75543D02*
D03*
X65457Y581500D02*
D03*
X72543D02*
D03*
X589843Y367800D02*
D03*
X582757D02*
D03*
X583457Y606500D02*
D03*
X590543D02*
D03*
X526543Y388000D02*
D03*
X519457D02*
D03*
X525243Y631600D02*
D03*
X518157D02*
D03*
X543043Y404500D02*
D03*
X535957D02*
D03*
X543043Y647500D02*
D03*
X535957D02*
D03*
X519157Y379500D02*
D03*
X526243D02*
D03*
X517957Y623000D02*
D03*
X525043D02*
D03*
X560043Y404500D02*
D03*
X552957D02*
D03*
X560000Y647500D02*
D03*
X552913D02*
D03*
D22*
X220866Y339894D02*
D03*
X223425D02*
D03*
X225984D02*
D03*
X228543D02*
D03*
X231102D02*
D03*
X233661D02*
D03*
X236221D02*
D03*
X238779D02*
D03*
X241339D02*
D03*
X243898D02*
D03*
X246457D02*
D03*
X249016D02*
D03*
X251575D02*
D03*
X254134D02*
D03*
X220866Y311106D02*
D03*
X223425D02*
D03*
X225984D02*
D03*
X228543D02*
D03*
X231102D02*
D03*
X236221D02*
D03*
X233661D02*
D03*
X238779D02*
D03*
X241339D02*
D03*
X243898D02*
D03*
X246457D02*
D03*
X249016D02*
D03*
X251575D02*
D03*
X254134D02*
D03*
D23*
X524946Y510000D02*
D03*
X518254D02*
D03*
X524772Y517500D02*
D03*
X518079D02*
D03*
X252654Y348000D02*
D03*
X259347D02*
D03*
X348640Y225954D02*
D03*
X355333D02*
D03*
X587347Y571000D02*
D03*
X580653D02*
D03*
X587347Y584500D02*
D03*
X580653D02*
D03*
X580653Y564500D02*
D03*
X587347D02*
D03*
X580653Y578000D02*
D03*
X587347D02*
D03*
X589347Y438000D02*
D03*
X582654D02*
D03*
X589347Y451500D02*
D03*
X582654D02*
D03*
X582807Y431500D02*
D03*
X589500D02*
D03*
X582654Y445000D02*
D03*
X589347D02*
D03*
X38154Y673500D02*
D03*
X44846D02*
D03*
X38154Y659500D02*
D03*
X44846D02*
D03*
X44846Y667000D02*
D03*
X38153D02*
D03*
X44846Y653000D02*
D03*
X38153D02*
D03*
X38154Y452500D02*
D03*
X44846D02*
D03*
X38154Y439000D02*
D03*
X44846D02*
D03*
X44846Y446000D02*
D03*
X38153D02*
D03*
X45000Y432500D02*
D03*
X38307D02*
D03*
X525846Y496000D02*
D03*
X519153D02*
D03*
X519153Y489500D02*
D03*
X525846D02*
D03*
X583653Y294000D02*
D03*
X590346D02*
D03*
X505154Y275000D02*
D03*
X511846D02*
D03*
X490154D02*
D03*
X496846D02*
D03*
X583807Y304000D02*
D03*
X590500D02*
D03*
X576500Y294000D02*
D03*
X569807D02*
D03*
X490154Y285000D02*
D03*
X496846D02*
D03*
X590346Y314000D02*
D03*
X583653D02*
D03*
X576346D02*
D03*
X569654D02*
D03*
X511846Y290500D02*
D03*
X505154D02*
D03*
X505154Y284000D02*
D03*
X511846D02*
D03*
X512847Y338000D02*
D03*
X506153D02*
D03*
D24*
X288500Y262957D02*
D03*
Y270043D02*
D03*
X334000Y142043D02*
D03*
Y134957D02*
D03*
X287000Y136957D02*
D03*
Y144043D02*
D03*
X301000Y188257D02*
D03*
Y195343D02*
D03*
X338000Y173657D02*
D03*
Y180743D02*
D03*
X519500Y648457D02*
D03*
Y655543D02*
D03*
Y672957D02*
D03*
Y680043D02*
D03*
D25*
X277874Y291827D02*
D03*
Y270173D02*
D03*
X262126D02*
D03*
Y291827D02*
D03*
D26*
X288350Y292000D02*
D03*
X294650D02*
D03*
X331150Y272500D02*
D03*
X324850D02*
D03*
X315250Y296400D02*
D03*
X308950D02*
D03*
X315650Y268500D02*
D03*
X309350D02*
D03*
X408050Y318300D02*
D03*
X414350D02*
D03*
X411500Y265500D02*
D03*
X417799D02*
D03*
X340650Y318300D02*
D03*
X334350D02*
D03*
X331250Y294200D02*
D03*
X324950D02*
D03*
X525650Y503000D02*
D03*
X519350D02*
D03*
X519350Y524000D02*
D03*
X525650D02*
D03*
X62350Y418000D02*
D03*
X68650D02*
D03*
X59850Y631000D02*
D03*
X66150D02*
D03*
X52350Y409500D02*
D03*
X58650D02*
D03*
X56650Y623000D02*
D03*
X50350D02*
D03*
X103350Y377000D02*
D03*
X109650D02*
D03*
X102350Y590000D02*
D03*
X108650D02*
D03*
X568799Y355500D02*
D03*
X562500D02*
D03*
X566150Y599000D02*
D03*
X559850D02*
D03*
X574650Y363500D02*
D03*
X568350D02*
D03*
X575650Y606500D02*
D03*
X569350D02*
D03*
X526150Y395500D02*
D03*
X519850D02*
D03*
X524650Y639500D02*
D03*
X518350D02*
D03*
X512650Y317000D02*
D03*
X506350D02*
D03*
X512500Y324000D02*
D03*
X506201D02*
D03*
X556450Y332300D02*
D03*
X550150D02*
D03*
X511500Y297000D02*
D03*
X505201D02*
D03*
X512650Y331000D02*
D03*
X506350D02*
D03*
D27*
X341264Y311622D02*
D03*
Y309653D02*
D03*
Y307685D02*
D03*
Y305716D02*
D03*
Y303748D02*
D03*
Y301780D02*
D03*
Y299811D02*
D03*
Y297843D02*
D03*
Y295874D02*
D03*
Y293905D02*
D03*
Y291937D02*
D03*
Y289968D02*
D03*
Y288000D02*
D03*
Y286032D02*
D03*
Y284063D02*
D03*
Y282095D02*
D03*
Y280126D02*
D03*
Y278157D02*
D03*
Y276189D02*
D03*
Y274220D02*
D03*
Y272252D02*
D03*
Y270284D02*
D03*
Y268315D02*
D03*
Y266347D02*
D03*
Y264378D02*
D03*
X401736D02*
D03*
Y266347D02*
D03*
Y268315D02*
D03*
Y270284D02*
D03*
Y272252D02*
D03*
Y274220D02*
D03*
Y276189D02*
D03*
Y278157D02*
D03*
Y280126D02*
D03*
Y282095D02*
D03*
Y284063D02*
D03*
Y286032D02*
D03*
Y288000D02*
D03*
Y289968D02*
D03*
Y291937D02*
D03*
Y293905D02*
D03*
Y295874D02*
D03*
Y297843D02*
D03*
Y299811D02*
D03*
Y301780D02*
D03*
Y303748D02*
D03*
Y305716D02*
D03*
Y307685D02*
D03*
Y309653D02*
D03*
Y311622D02*
D03*
D28*
X347878Y257764D02*
D03*
X349847D02*
D03*
X351815D02*
D03*
X353783D02*
D03*
X355752D02*
D03*
X357720D02*
D03*
X359689D02*
D03*
X361658D02*
D03*
X363626D02*
D03*
X365595D02*
D03*
X367563D02*
D03*
X369531D02*
D03*
X371500D02*
D03*
X373468D02*
D03*
X375437D02*
D03*
X377406D02*
D03*
X379374D02*
D03*
X381343D02*
D03*
X383311D02*
D03*
X385279D02*
D03*
X387248D02*
D03*
X389216D02*
D03*
X391185D02*
D03*
X393154D02*
D03*
X395122D02*
D03*
Y318236D02*
D03*
X393154D02*
D03*
X391185D02*
D03*
X389216D02*
D03*
X387248D02*
D03*
X385279D02*
D03*
X383311D02*
D03*
X381343D02*
D03*
X379374D02*
D03*
X377406D02*
D03*
X375437D02*
D03*
X373468D02*
D03*
X371500D02*
D03*
X369531D02*
D03*
X367563D02*
D03*
X365595D02*
D03*
X363626D02*
D03*
X361658D02*
D03*
X359689D02*
D03*
X357720D02*
D03*
X355752D02*
D03*
X353783D02*
D03*
X351815D02*
D03*
X349847D02*
D03*
X347878D02*
D03*
D29*
X309169Y283850D02*
D03*
X504169Y303850D02*
D03*
D30*
X317831Y290150D02*
D03*
X309169D02*
D03*
X317831Y283850D02*
D03*
X512831Y310150D02*
D03*
X504169D02*
D03*
X512831Y303850D02*
D03*
D31*
X302000Y283650D02*
D03*
Y277350D02*
D03*
X348600Y245850D02*
D03*
Y239550D02*
D03*
X542600Y530350D02*
D03*
Y536650D02*
D03*
X536700Y530650D02*
D03*
Y536950D02*
D03*
X59000Y370350D02*
D03*
Y376650D02*
D03*
X57000Y584500D02*
D03*
Y590799D02*
D03*
X568000Y402650D02*
D03*
Y396350D02*
D03*
Y643650D02*
D03*
Y637350D02*
D03*
X497000Y301650D02*
D03*
Y295350D02*
D03*
X529000Y333350D02*
D03*
Y339650D02*
D03*
X551000Y284650D02*
D03*
Y278350D02*
D03*
D32*
X323500Y265756D02*
D03*
Y260244D02*
D03*
X233500Y298244D02*
D03*
Y303756D02*
D03*
D33*
X316437Y260500D02*
D03*
X308563D02*
D03*
D34*
X430500Y262653D02*
D03*
Y269346D02*
D03*
X437500Y262653D02*
D03*
Y269346D02*
D03*
X424900Y305254D02*
D03*
Y311947D02*
D03*
X444500Y262653D02*
D03*
Y269346D02*
D03*
X451500Y262653D02*
D03*
Y269346D02*
D03*
X465500Y269346D02*
D03*
Y262653D02*
D03*
X458500Y269346D02*
D03*
Y262653D02*
D03*
X395100Y334946D02*
D03*
Y328254D02*
D03*
X211700Y320647D02*
D03*
Y313953D02*
D03*
X203100Y320547D02*
D03*
Y313854D02*
D03*
X112800Y700153D02*
D03*
Y706847D02*
D03*
X489500Y295153D02*
D03*
Y301847D02*
D03*
X543000Y278153D02*
D03*
Y284846D02*
D03*
X534900Y342247D02*
D03*
Y335554D02*
D03*
X570800Y279153D02*
D03*
Y285846D02*
D03*
X578300Y279053D02*
D03*
Y285747D02*
D03*
D35*
X268580Y343793D02*
D03*
X303698D02*
D03*
X268580Y322218D02*
D03*
X303698D02*
D03*
X461102Y344693D02*
D03*
X496220D02*
D03*
X461102Y323118D02*
D03*
X496220D02*
D03*
D36*
X279839Y322218D02*
D03*
X282989D02*
D03*
X286139D02*
D03*
X289288D02*
D03*
X292438D02*
D03*
X472362Y323118D02*
D03*
X475512D02*
D03*
X478661D02*
D03*
X481811D02*
D03*
X484961D02*
D03*
D37*
X299453Y308500D02*
D03*
X293547D02*
D03*
D38*
X240744Y348000D02*
D03*
X246256D02*
D03*
D39*
X211600Y333900D02*
D03*
Y327207D02*
D03*
X203200Y333900D02*
D03*
Y327207D02*
D03*
X287000Y122653D02*
D03*
Y129347D02*
D03*
X301000Y172953D02*
D03*
Y179647D02*
D03*
X212000Y289653D02*
D03*
Y296346D02*
D03*
X110000Y409846D02*
D03*
Y403154D02*
D03*
X109000Y622500D02*
D03*
Y615807D02*
D03*
X518900Y364854D02*
D03*
Y371547D02*
D03*
X518000Y606653D02*
D03*
Y613346D02*
D03*
X570700Y272247D02*
D03*
Y265553D02*
D03*
X578400D02*
D03*
Y272247D02*
D03*
D40*
X546000Y514000D02*
D03*
D41*
X555300Y519900D02*
D03*
Y517900D02*
D03*
Y516000D02*
D03*
Y514000D02*
D03*
Y512000D02*
D03*
Y510100D02*
D03*
Y508100D02*
D03*
X536700D02*
D03*
Y510100D02*
D03*
Y512000D02*
D03*
Y514000D02*
D03*
Y516000D02*
D03*
Y517900D02*
D03*
Y519900D02*
D03*
D42*
X551900Y504700D02*
D03*
X549900D02*
D03*
X548000D02*
D03*
X546000D02*
D03*
X544000D02*
D03*
X542100D02*
D03*
X540100D02*
D03*
Y523300D02*
D03*
X542100D02*
D03*
X544000D02*
D03*
X546000D02*
D03*
X548000D02*
D03*
X549900D02*
D03*
X551900D02*
D03*
D43*
X580000Y496709D02*
D03*
Y485291D02*
D03*
X580000Y476500D02*
D03*
Y465083D02*
D03*
X565000Y527791D02*
D03*
Y539209D02*
D03*
Y548291D02*
D03*
Y559709D02*
D03*
D44*
X555500Y489000D02*
D03*
D45*
Y462228D02*
D03*
D46*
X65000Y686500D02*
D03*
X70000D02*
D03*
X75000D02*
D03*
X80000D02*
D03*
X85000D02*
D03*
X90000D02*
D03*
X95000D02*
D03*
X100000D02*
D03*
X105000D02*
D03*
Y649965D02*
D03*
X100000D02*
D03*
X95000D02*
D03*
X90000D02*
D03*
X85000D02*
D03*
X80000D02*
D03*
X75000D02*
D03*
X70000D02*
D03*
X65000D02*
D03*
D47*
X311449Y160126D02*
D03*
X320551D02*
D03*
D48*
X315992Y157224D02*
D03*
D49*
X312094Y161622D02*
D03*
X314693D02*
D03*
X317291D02*
D03*
X319890D02*
D03*
D50*
Y149378D02*
D03*
X317291D02*
D03*
X314693D02*
D03*
X312094D02*
D03*
D51*
X324500Y108500D02*
D03*
X305209D02*
D03*
X324500Y58264D02*
D03*
X305209D02*
D03*
D52*
X314854Y117516D02*
D03*
Y49248D02*
D03*
D53*
X338035Y164417D02*
D03*
X329965D02*
D03*
X334000Y156583D02*
D03*
D54*
X221445Y266394D02*
D03*
X230500D02*
D03*
X239555D02*
D03*
D55*
X230500Y290606D02*
D03*
D56*
X212500Y275047D02*
D03*
Y280953D02*
D03*
X248000Y280953D02*
D03*
Y275047D02*
D03*
D57*
X80500Y393500D02*
D03*
X77500Y606500D02*
D03*
X547933Y378925D02*
D03*
X548000Y622500D02*
D03*
D58*
X92067Y410134D02*
D03*
Y407575D02*
D03*
Y405016D02*
D03*
Y402457D02*
D03*
Y399898D02*
D03*
Y397339D02*
D03*
Y394779D02*
D03*
Y392220D02*
D03*
Y389661D02*
D03*
Y387102D02*
D03*
Y384543D02*
D03*
Y381984D02*
D03*
Y379425D02*
D03*
Y376866D02*
D03*
X68933D02*
D03*
Y379425D02*
D03*
Y381984D02*
D03*
Y384543D02*
D03*
Y387102D02*
D03*
Y389661D02*
D03*
Y392220D02*
D03*
Y394779D02*
D03*
Y397339D02*
D03*
Y399898D02*
D03*
Y402457D02*
D03*
Y405016D02*
D03*
Y407575D02*
D03*
Y410134D02*
D03*
X89067Y623134D02*
D03*
Y620575D02*
D03*
Y618016D02*
D03*
Y615457D02*
D03*
Y612898D02*
D03*
Y610339D02*
D03*
Y607780D02*
D03*
Y605221D02*
D03*
Y602661D02*
D03*
Y600102D02*
D03*
Y597543D02*
D03*
Y594984D02*
D03*
Y592425D02*
D03*
Y589866D02*
D03*
X65933D02*
D03*
Y592425D02*
D03*
Y594984D02*
D03*
Y597543D02*
D03*
Y600102D02*
D03*
Y602661D02*
D03*
Y605221D02*
D03*
Y607780D02*
D03*
Y610339D02*
D03*
Y612898D02*
D03*
Y615457D02*
D03*
Y618016D02*
D03*
Y620575D02*
D03*
Y623134D02*
D03*
X536366Y362291D02*
D03*
Y364850D02*
D03*
Y367409D02*
D03*
Y369969D02*
D03*
Y372528D02*
D03*
Y375087D02*
D03*
Y377646D02*
D03*
Y380205D02*
D03*
Y382764D02*
D03*
Y385323D02*
D03*
Y387882D02*
D03*
Y390441D02*
D03*
Y393000D02*
D03*
Y395559D02*
D03*
X559500D02*
D03*
Y393000D02*
D03*
Y390441D02*
D03*
Y387882D02*
D03*
Y385323D02*
D03*
Y382764D02*
D03*
Y380205D02*
D03*
Y377646D02*
D03*
Y375087D02*
D03*
Y372528D02*
D03*
Y369969D02*
D03*
Y367409D02*
D03*
Y364850D02*
D03*
Y362291D02*
D03*
X536433Y605866D02*
D03*
Y608425D02*
D03*
Y610984D02*
D03*
Y613543D02*
D03*
Y616102D02*
D03*
Y618661D02*
D03*
Y621220D02*
D03*
Y623779D02*
D03*
Y626339D02*
D03*
Y628898D02*
D03*
Y631457D02*
D03*
Y634016D02*
D03*
Y636575D02*
D03*
Y639134D02*
D03*
X559567D02*
D03*
Y636575D02*
D03*
Y634016D02*
D03*
Y631457D02*
D03*
Y628898D02*
D03*
Y626339D02*
D03*
Y623779D02*
D03*
Y621220D02*
D03*
Y618661D02*
D03*
Y616102D02*
D03*
Y613543D02*
D03*
Y610984D02*
D03*
Y608425D02*
D03*
Y605866D02*
D03*
D59*
X42791Y419500D02*
D03*
X54209D02*
D03*
X39791Y632500D02*
D03*
X51209D02*
D03*
X582791Y358300D02*
D03*
X594209D02*
D03*
X587709Y597500D02*
D03*
X576291D02*
D03*
D60*
X523400Y319827D02*
D03*
Y317858D02*
D03*
Y315890D02*
D03*
Y313921D02*
D03*
Y311953D02*
D03*
Y309984D02*
D03*
Y308016D02*
D03*
Y306047D02*
D03*
Y304079D02*
D03*
Y302110D02*
D03*
Y300142D02*
D03*
Y298173D02*
D03*
X556600D02*
D03*
Y300142D02*
D03*
Y302110D02*
D03*
Y304079D02*
D03*
Y306047D02*
D03*
Y308016D02*
D03*
Y309984D02*
D03*
Y311953D02*
D03*
Y313921D02*
D03*
Y315890D02*
D03*
Y317858D02*
D03*
Y319827D02*
D03*
D61*
X529173Y292400D02*
D03*
X531142D02*
D03*
X533110D02*
D03*
X535079D02*
D03*
X537047D02*
D03*
X539016D02*
D03*
X540984D02*
D03*
X542953D02*
D03*
X544921D02*
D03*
X546890D02*
D03*
X548858D02*
D03*
X550827D02*
D03*
Y325600D02*
D03*
X548858D02*
D03*
X546890D02*
D03*
X544921D02*
D03*
X542953D02*
D03*
X540984D02*
D03*
X539016D02*
D03*
X537047D02*
D03*
X535079D02*
D03*
X533110D02*
D03*
X531142D02*
D03*
X529173D02*
D03*
M02*
