M48
;Layer_Color=9474304
;FILE_FORMAT=4:4
METRIC,LZ
;TYPE=PLATED
T1F00S00C0.3000
T2F00S00C0.7620
T3F00S00C0.9000
T4F00S00C1.0000
T5F00S00C1.1000
T6F00S00C1.2000
T7F00S00C2.5000
;TYPE=NON_PLATED
T8F00S00C0.9000
T9F00S00C3.3000
%
T01
X0005Y0005
X001
X0015
X002
X0025
X003
X0035
X00375Y001
X00325
X00275
X00225
X00175
X00125
X00075
X001Y0015
X0015
X002
X0025
X003
X0035
X00375Y002
X00325
X00275
X00225
X00175
X00125
X00075
X001Y0025
X00125Y003
X00175
X00225
X00275
X00325
X00375
X0035Y0035
X003
X0025
X002
X0015
X001
X00075Y003
X002Y0025
X0025
X003
X0035
X0005Y0015
X004
X0045
X005
X0055
X006
X0065
X00675Y002
X00625
X00575
X00525
X00475
X00425
X0045Y0025
X005
X0055
X00575Y003
X00625
X00675
X0072898Y00294386
X0065Y0025
Y0035
X006
X0055
X005
X0045
X004
X00425Y003
X00475
X00525
X004Y0025
X00425Y001
X00475
X00525
X00575
X00625
X00675
X007Y0005
X0065
X006
X0055
X005
X0045
X004
X0095
X01
X0105
X011
X0115
X01175Y001
X01125
X01075
X01025
X00975
X00925
X0095Y0015
X01
X0105
X011
X0115
X01175Y002
X01125
X01075
X01025
X00975
X00925
X0095Y0025
X00975Y003
X01025
X01075
X01125
X01175
X0115Y0035
X011
X0105
X01
X0095
X00925Y003
X0105Y0025
X011
X0115
X012
X0125
X013
X0135
X014
X0145
X015
X01475Y003
X015Y0035
X0145
X014
X0135
X013
X0125
X012
X01225Y003
X01275
X01325
X01375
Y002
X01425
X01475
X015Y0015
X0155
X01575Y002
Y003
Y001
X01525
X01475
X01425
X01375
X01325
X01275
X01225
X0125Y0015
X013
X0135
X014
X0145
Y0005
X015
X0155
X014
X0135
X013
X0125
X012
Y0015
X01225Y002
X01275
X01325
Y004
X01375
X01425
X01475
X01525
X01575
X0155Y0045
X015
X01525Y005
X01575
X0155Y0055
X01575Y006
X01525
X0155Y0065
X01542034Y00701802
X01425Y007
X01419606Y00674878
X01427226Y0072898
X01426718Y00743966
X01448816Y00755904
X01453388Y00764286
X01446022Y00774446
X01399286Y00771652
X01389113Y00761733
X01382014Y00755142
X01366266Y00711708
X01319276Y0070993
X0131953Y00695452
X01282954Y0068834
X01253236Y00674878
X01252474Y00737362
X0126238Y00775716
X012446Y00787146
X01226058Y0079248
X012Y0075
X011938Y00709676
X01199388Y00693674
X012Y0055
X0125
X013
X0135
X01375Y006
X01414706Y00602922
X01424485Y00603303
X01434621Y00602795
X01446352Y00602564
X01450594Y0063881
X01459992
X0147066Y00638556
X01480058Y00636778
X0145Y0055
X01475Y005
X01425
X01375
X01325
X01275
X01225
Y004
X01275
X01325Y006
X01341644Y00782049
X01189736Y00775716
X0118999Y00765556
X01168654
X01170686Y00775208
X01117092Y00768604
X0110109Y0078359
X0105029Y00784098
X01051814Y00743712
X0105156Y00732536
X01057656Y00726948
X01057402Y00715772
X0105664Y00704596
X01050544Y00710184
X0105029Y0072136
X0105791Y00738124
X01065022Y00747014
X01060958Y00690626
X01050544Y0068961
X01039114Y00688594
X01033752Y00671548
X01034796Y0065532
X010414Y00661416
X01029062Y00648316
X01025Y006
X00981964Y00604266
X00971296
X00956545Y00602761
X00947674Y00602996
X00929132Y00603504
X00921004Y0060325
X0091313
X00905256
X00897636Y00603774
X0088138Y00597662
X00875792Y00605282
X00872744Y0061976
X00883412Y00638048
X00874522Y00649224
X00866394Y00660146
X00884936Y0067183
X00922782Y00668528
X00944626Y00668782
X00962914Y00669544
X00978662Y00667512
X00978373Y00639871
X00969523Y00639371
X009144Y00641096
X00910082Y00635
X00905764Y00628904
X00898906Y00625348
X00912876Y00565658
X00846582Y0056642
X00849122Y00508254
X00875Y005
X00882396Y00499618
X0088646Y00517398
X00876173Y00517652
X00882396Y00475742
X00925Y005
X00975
X01025
X01075
X01125
X01175
X0115Y0055
X011
X0112014Y00697484
X0113792Y00692404
X01163574Y00716026
X01178814Y00709676
X01185418Y00698246
X01003554Y0070485
Y00691388
X00975Y007
X00974344Y00723392
X00974852Y00745998
X00978408Y00770128
X00980503Y00787464
X00990854Y007874
X00998728Y00791718
X01004062Y00779018
X0095758Y00776478
X00937363Y00765606
X00919226Y00783336
X00913384Y00790194
X009Y0075
X00879856Y00729742
X00842264Y0072644
X00837136Y007209
X0082931Y007112
X00835406Y0070485
X00844598Y00704898
X00840232Y00647446
X00827532Y00646938
X00824484Y00615696
X00813208Y00754534
X00818642Y00762508
X00818896Y00771144
Y00779018
Y00787146
X00948944Y0072517
X00949198Y00700024
X00925Y007
Y004
X00975
X01025
X01075
X01125
X01175
X00875
X0076581Y00410972
X00752602Y00497332
X00686816Y00508254
X00675Y005
X00681482Y00475742
X00625Y005
X00608838Y00517906
X0058547Y0051689
X00594868Y00541274
X0060452Y00542036
X00622554Y00557022
X00608838Y00571246
X00589534Y00589534
X00637032Y0058166
X0065Y0065
X00651764Y00667766
X007Y0065
X00705104Y00627888
Y0061849
X00743458Y00640334
X0074422Y00685546
X00769874Y0067183
X00787654Y0061468
X00732282Y00729996
X00656844Y00777494
X00658257Y00787649
X00567817Y00777113
X0056007Y0077724
X0048641Y007874
X0047498Y00749046
X0049403Y0073406
X00500126Y00728726
X00469392Y00677418
X00469138Y00668528
X00490982Y00586994
X00525Y006
X00492252Y00540004
X0050292Y00527812
X00525Y005
X00475
X00425
X0045Y0055
X004
X00560578Y00542036
X00575Y004
X00625
X00675
X00525
X00475
X00425
X00585724Y0069342
X0039497Y00780542
X0028321Y0078486
X00181864Y00784606
X0014478Y0077597
X0013589
X00127
X0011811
X0010922
X00075Y007
Y006
X001Y0055
X0015
X002
X0025
X003
X00325Y005
X00375
Y006
X00275
X00225
X00175
Y005
X00225
X00275
Y004
X00325
X00375
X00225
X00175
X00125
X00075
X0005Y0045
X00075Y005
X00064262Y00518414
X0005Y0055
X00012446Y0054737
X00125Y005
X00137668Y00823214
X00182372Y00892048
X00191516Y00921258
X0021717
X00225298Y00902462
X00262636Y00935482
X00269748Y00944372
X00249602Y00976685
X00247904Y00986028
X00247523Y0099441
X00247396Y01003808
X00213868Y01011428
X00196342
X0019558Y00984758
X0021336Y0098552
X00217424Y01033526
X0021456Y01044224
X0025527Y01060704
X00262636Y0106045
X00270256
X00177546Y01072896
X0015113Y01115314
X00142748
X00132842Y01114806
X00134874Y0112522
X00134366Y01133856
X00066513Y01127909
X00062738Y01096772
X00073914Y0109855
X00072935Y01082765
X00097536Y01084072
X00127508Y01013206
X00140716Y01016
X00146558Y0102616
X00144526Y00980694
X00154178Y00974598
X00127508Y00987806
X00158496Y00924306
X0006096Y009271
Y0091821
X00060883Y00938961
X00051816Y00934212
X00040132Y00938022
X00035002Y00884886
X0007814Y0118562
X00243078Y01171448
X00277114Y01190244
X0048514Y00836676
X005Y0085
X006
X0061976Y008509
X0060325Y00820674
X0057404Y00801878
X00675Y008
X00775
X0081915Y00796036
Y00804164
X00819404Y00813816
X00875Y008
X00893572Y00827532
X00908086Y00824738
X0090551Y00833628
X0092837Y00833882
X0093268Y00826262
X00942594Y0082423
X00944118Y00794004
X00936498Y00856234
Y00865124
X00895604Y00863854
Y00871982
Y0088011
X00888492Y0088519
X00879094Y00889508
X00985088Y00823046
X01009904Y00807974
X01017016Y00833628
X01025398Y00827278
X0105Y0085
X01069086Y00807212
X0109982Y00804926
X0115Y0085
X0125
X01281938Y00885698
X01293622Y00888746
X01311148Y00906272
X01318006Y00914146
X01329595Y00950373
X0133858Y00950468
X01348994Y00965708
X0134874Y00975106
X01350045Y0098522
X01342136Y0101727
X01331468Y01020064
X0132207Y0101727
X01331468Y01034796
X01350264Y0103886
X0135Y0105
X0138049Y01039622
X0138938Y01039368
X01397762Y01039114
X01395222Y01006602
X01386586
X01378204
X01396746Y00994156
X01440434Y00972312
X0145161Y00978408
X01464183Y00979932
X01461008Y01009396
X01452118Y01039114
X01441196Y01048258
X01431798Y01056386
X01437386Y0108585
X01399032Y01111758
X01375Y011
X01325
X0135Y0115
X01397762Y0115697
X01516555Y01129724
X01514348Y01095756
X01553972Y01040638
X01539494Y00902716
X01524508Y00867664
X0152019Y00846074
X01491488Y0087249
X01485392Y00868172
X01478788Y0086487
X01475486Y00857758
X01466088
X0146177Y00851662
X01451102Y00853948
X01442466Y00840232
X014345Y00844558
X01425702Y00851154
X01419606Y0083312
X01421638Y00823214
X01406144Y00832358
X01387094Y00843788
X0137964Y00841529
X0135763Y0084074
X01353566Y00812546
X01345438Y00812382
Y0080391
X0136144Y00801878
X01361694Y00794224
X01380744Y00798068
X01380998Y0080645
X01398524Y00804672
X01445768Y00806958
X01455237Y00911985
X01464183Y0093972
X01451864Y00950722
X01434846Y00952754
X01405382Y0092837
X0139827Y00919734
X0139319Y00913892
X01386078Y0090805
X01372108Y00912114
X01332992Y00818134
X01314704Y0079629
X0149541Y0088016
X0145Y0125
X01456436Y01261364
X01456182Y01288034
X01419606Y01286955
X0141097Y01265428
X01397508Y0126619
X0139319Y01298702
X01393444Y0131445
X01376934Y01314704
X01377442Y01297432
X0134493Y0130048
X01344878Y01307846
X01344024Y01315974
X01347724Y01323086
X0135Y0135
X01348232Y0136398
X01325Y014
X0135Y0145
X01369568Y01435354
X01411844Y01448612
X01403858Y01473962
X01422654Y01478026
X01417066Y01485646
X01414018Y01494536
X01444752Y01495806
X01475Y015
X01525
X01513078Y01468374
Y01434084
X01433068Y01461008
X01428829Y01467175
X01435881Y01557509
X01437132Y01572768
X01446022Y015649
X01403096Y0156718
X01346864Y015714
X01345465Y015844
X01331468Y01567688
X01341628Y01555496
X0134874Y0154305
X01350442Y01511376
X0134239Y01511046
X0131318Y0152273
X01501394Y01556766
X0155Y0155
X01419606Y01330198
X01347724Y01285748
X01350518Y01271016
X0135001Y01262126
X01354328Y01246632
X0138993Y01215532
X01375Y012
X00225
X00209542Y01231892
X00206756Y01239266
X00200914Y01243838
X00233934Y01243584
X0023368Y01275842
X00207264Y01346708
X00225Y014
X002Y0145
X00160528Y01457198
X0015037Y01456944
X00131826Y01496568
X00137414Y01521968
X00120142Y01528572
X0012065Y01555276
X0012827Y01561338
X00137932Y01557832
X0009017Y0156718
X0005Y0145
Y0135
Y0125
X0006731Y012573
X0015Y0125
X00133096Y0119507
X00117094Y01314958
X0013208Y01379474
X00195326Y01497076
X00193802Y01507744
X00245927Y01517705
X00240284Y01530604
X00239014Y01540654
X0024511Y01486662
X00245364Y01474978
Y01462786
X0023368Y0159004
X00226314Y01594866
Y01602994
X0022606Y01611122
Y01618996
Y01627124
X00235712Y01625854
X00215646Y01670304
X002032Y0167005
X001905
X001778Y01670304
X001651Y0167005
X0015Y0165
X00093726Y01638554
X0008001Y0165862
Y0169418
X00075Y017
X00125
X00175
X0015Y0175
X001
X00125Y018
X00109728Y01820418
X00092456Y01832864
X001Y0185
X0005
X00075Y019
X00125
X00167634Y01900254
X00225Y019
X00275
X0025Y0195
X002
X0015
X001
X0005
X002Y0185
X00225Y018
X00275
X00175
X00086106Y0160655
X01345946Y01613662
X01346962Y0159639
X0135Y0165
X01376934Y01623568
X01386332
X01395222Y01623314
X01404112Y0159893
X01446276Y01599438
X01437132Y0158877
X01475Y016
X0145796Y01618742
X0145Y0165
X015
X01541018Y01651
X01548638
X01556512
X01564386
X0157226
X01580388
X01575Y018
X01517396Y01805178
X01478788Y01805686
X01422654Y01803146
X0137414Y01804924
X01325Y018
X0135Y0175
X0131953Y016891
X01325Y019
X01375
X01425
X01475
X015Y0195
X0145
X014
X0135
X015Y0185
X0155
T02
X0003683Y0178689
X0006223
X0008763
X0011303
X0013843
X0016383
X0018923
X0021463
X0024003
X0026543
X00193802Y0186309
X00168402
X00143002
X00117602
Y0193929
X00143002
X00168402
X00193802
X0134747Y0172339
X0137287
X0139827
X0142367
X0144907
X0147447
X0149987
X0152527
X0155067
X0157607
T03
X0041021Y0069469
X0043561
X0046101
X0038481
X0035941
X0033401
X0030861
X0028321
X0025781
X0023241
X0020701
X0018161
X0015621
X0013081
X0010541
Y0084709
X0013081
X0015621
X0018161
X0020701
X0023241
X0025781
X0028321
X0030861
X0033401
X0035941
X0038481
X0041021
X0043561
X0046101
T04
X0121285Y0057404
Y0059944
X0123825
Y0057404
X0126365
Y0059944
X0128905
Y0057404
X0118745
X0116205
X0113665
X0111125
X0108585
X0106045
Y0059944
X0108585
X0111125
X0113665
X0116205
X0118745
T05
X0004826Y0017864
Y0021364
Y0024864
Y0028364
X0155067Y0028336
Y0024836
Y0021336
Y0017836
Y00359664
X0153289Y0072136
Y0074676
Y0077216
X01566418
Y0074676
X0121666Y007493
Y007239
Y006985
Y006731
Y007747
X0112903Y00751332
X00858774Y00493776
X0002921Y0069596
Y0072136
Y0074676
Y0077216
Y0079756
Y0082296
Y0084836
X0020701Y0088011
X0023241
X0025781
X0028321
X0030861
X0033401
X0035941
X0038481
X0027559Y0114173
X0024257
X0020828
X0004318Y0115062
Y0111562
Y0108062
Y0118562
X00808814Y00860552
X00843814
X00878814
X00913814
X0132207Y0107061
X0135763Y0106934
X0139319
X015494Y0107653
Y0111153
Y0114653
Y0118153
X0131826Y0116967
X0153289Y0082296
Y0079756
X01566418
Y0082296
X0155Y0141534
Y0145034
Y0148534
Y0152034
X0138557Y0149352
X0135128
X0131699
X0132207Y0137033
X0131826Y0120523
X0027559Y0140843
X0024257
X0020955
X0004318Y0140406
Y0136906
Y0133406
Y0129906
Y0164013
Y0167513
Y0171013
Y0174513
X013347Y0176784
X013597
X013847
X014097
X014347
X014597
X014847
X0157353Y0178689
Y0182372
Y0186055
Y0189738
Y0193421
Y0197104
X014347Y0193167
X014097
X013847
X013597
X013347
X013343Y0185039
X013593
X013843
X014093
X014343
X014593
T06
X0152964Y0062484
X0156464
X00849578Y00599694
X00814578
X00770382
X00735382
X0006802Y00623824
X0003302
X00043434Y00964236
Y00999236
X010922Y0084709
X011272
X0154178Y0096139
Y0099639
Y0124262
Y0127762
X0154305Y0132009
Y0135509
X01541272Y0158044
X00035814Y01541018
Y01506018
X01541272Y0161544
T07
X0076073Y0005969
X0083439
T08
X00704792Y00843534
X00748792
X011938Y0084582
X012378
T09
X0013081Y00120396
X0013Y0023
X006
X0066929Y00121666
X0093076Y0012013
X01Y0023
X0147
X0146924Y0012013
Y0058114
X0093076Y0057987
X0066929Y00581406
X0013081
X0138Y014
X0013Y0142
M30
