M48
;Layer_Color=9474304
;FILE_FORMAT=2:5
INCH,TZ
;TYPE=PLATED
T1F00S00C0.01181
T2F00S00C0.01575
T3F00S00C0.03000
T4F00S00C0.03937
T5F00S00C0.04331
;TYPE=NON_PLATED
T6F00S00C0.03543
T7F00S00C0.12598
T8F00S00C0.12992
T9F00S00C0.15748
%
T01
X39370Y19685
X78740
X98425
X118110
X137795
X157480
X177165
X196850
X216535
X236221
X255906
X275591
X314961
X334646
X354331
X374016
X393701
X413386
X433071
X452756
X492126
X500394Y14934
X511811Y19685
X531496
X551181
X561024Y39370
X580709
X570866Y59055
X551181
X531496
X511811
X509055Y48031
X521654Y39370
X541339
Y78740
X561024
X580709
X570866Y98425
X551181
X580709Y118110
Y157480
X521654Y78740
X501968
X504331Y48031
X462598Y39370
X442913
X431296Y56276
X412818Y57072
X409055Y66142
X404307Y72694
X383858Y78740
X393701Y98425
X374016
X354331
X364173Y118110
X383858
X374016Y137795
X354331
X364173Y157480
X383858
X403543
X423228
X442913
X462598
Y118110
X442913
X423228
X433071Y137795
X413386
Y177165
X433071
X393701
X374016
X374803Y43701
X400863Y40174
X406768Y40173
X447477Y66352
X455585Y62580
Y72580
X462598Y78740
X471976Y67698
X452756Y98425
X433071
X334646
X344488Y118110
X334646Y137795
X324410Y133858
X313779Y120866
X277047Y124827
X275591Y137795
X272245Y151401
X268687Y148242
X265236Y144857
X261971Y141460
X255906Y137795
X256698Y117164
X265748Y118110
X258701Y99606
X262097Y95758
Y90345
X265748Y78740
X285433
X305118
X324803
X344488
X334646Y59055
X295276
X275591
X255906
X236221
X216535
X196850
X206693Y78740
X226378
X246063
X231285Y94468
X224016Y111911
X203357Y121874
X196850Y137795
X216535
X206299Y151401
Y156000
X206299Y160630
X216535Y177165
X262638Y177559
X267205
X272337
X268687Y163212
X275984Y161244
X295657Y159275
X324803Y157480
X344488
X285827Y102123
X196850Y98425
X206693Y39370
X226378
X246063
X235079Y144828
X238228Y148094
X193223Y164617
X182719Y164503
X177165Y177165
Y137795
X157480
X147638Y118110
X137795Y98425
X147638Y78740
X167323
X187008
X177165Y98425
Y59055
X157480
X137795
X118110
X98425
X108268Y78740
X127953
Y39370
X147638
X167323
X187008
X88583
X68898
X59055Y59055
X39370
X49213Y78740
X68898
X88583
X39370Y98425
X19685
X29528Y78740
X19685Y59055
X29528Y39370
X19685Y216535
X29528Y236221
X49213
X68898
X67323Y223622
X77559
X87795
X88583Y236221
X108268
X122236Y230709
X118898Y223622
X127953Y236221
X147638
X167323
X187008
X177165Y255906
X157480
X137795
X118110
X98425
X39370
Y216535
X157480
X177165
X187008Y196850
X167323
X206693
X226378
X246063
X265748
X285433
X295276Y216535
X314961
X334646
X344488Y236221
X324803
X334646Y255906
X275591
X256173Y230709
X226378Y236221
X206693
X216535Y255906
X354331
X374016
X383858Y236221
X364173
X374016Y216535
X393701
X403543Y196850
X442913
Y236221
X462598
X484251Y235826
X492136Y233948
X498031Y230314
X492126Y255906
X500000Y261024
X472441Y255906
X452756
X448351Y261024
X423228Y236221
X354331Y216535
X364173Y196850
X531496Y216535
X551181
X570866
X580709Y236221
X561024
X541339
X551181Y255906
X531496
X511811
X580709Y196850
T02
X430884Y25679
X380315Y91902
X335827Y88110
T03
X450866Y141102
Y151102
Y161102
Y171102
Y181102
X139685Y166000
Y156000
Y146000
Y136000
Y126000
T04
X52244Y242874
Y252874
X62244
Y242874
X72244
Y252874
X82244
Y242874
X92244
Y252874
X102244
Y242874
X112244
Y252874
X122244
Y242874
X132244
Y252874
X142244
Y242874
T05
X251659Y37302
X261659
X271659
X281659
X291659
X301659
X321659Y37436
X331659
X341659
X351659
X361659
X381739Y126985
X391739
X401739
X411739
X421739
X435474Y84775
X445474
X455475
X465475
X482605Y82580
Y72580
Y62580
Y52580
Y42580
X341159Y208302
X331158Y208303
X321159Y208302
X311159
X301159
X291159
X281159
X271159
X261159
X251159
X361159
X371159
T06
X500394Y21220
X517717
X258582Y254488
X241259
T07
X173659Y11802
X405159
X173659Y230802
X405159
T08
X19685Y19685
X295276Y19685
X570866Y19685
X19685Y255906
X295276
X570866
T09
X557087Y110236
X456693
X133858Y110252
X33465
Y196866
X133858
X456693Y196850
X557087
M30
