M48
;Layer_Color=9474304
;FILE_FORMAT=2:5
INCH,TZ
;TYPE=PLATED
T1F00S00C0.01181
T2F00S00C0.03000
T3F00S00C0.03543
T4F00S00C0.03937
T5F00S00C0.04331
T6F00S00C0.04724
T7F00S00C0.09843
;TYPE=NON_PLATED
T8F00S00C0.03543
T9F00S00C0.12992
%
T01
X19685Y19685
X39370
X59055
X78740
X98425
X118110
X137795
X147638Y39370
X127953
X108268
X88583
X68898
X49213
X29528
X39370Y59055
X59055
X78740
X98425
X118110
X137795
X147638Y78740
X127953
X108268
X88583
X68898
X49213
X29528
X39370Y98425
X49213Y118110
X68898
X88583
X108268
X127953
X147638
X137795Y137795
X118110
X98425
X78740
X59055
X39370
X29528Y118110
X78740Y98425
X98425
X118110
X137795
X19685Y59055
X157480
X177165
X196850
X216535
X236221
X255906
X265748Y78740
X246063
X226378
X206693
X187008
X167323
X177165Y98425
X196850
X216535
X226378Y118110
X246063
X265748
X287000Y115900
X255906Y98425
Y137795
X236221
X216535
X196850
X177165
X157480
X167323Y118110
X187008
X206693
X157480Y98425
X167323Y39370
X187008
X206693
X226378
X246063
X265748
X275591Y19685
X255906
X236221
X216535
X196850
X177165
X157480
X374016
X393701
X413386
X433071
X452756
X462598Y39370
X442913
X423228
X403543
X383858
X364173
X374016Y59055
X393701
X413386
X433071
X452756
X462598Y78740
X442913
X423228
X403543
X383858
X364173
X374016Y98425
X383858Y118110
X403543
X423228
X442913
X462598
X452756Y137795
X433071
X413386
X393701
X374016
X364173Y118110
X413386Y98425
X433071
X452756
X472441
X492126
X511811
X531496
X551181
X570866
X590551
X580709Y118110
X590551Y137795
X570866
X551181
X531496
X511811
X492126
X472441
X482283Y118110
X501968
X521654
X541339
Y78740
X561024
X580709
X590551Y59055
X610236
X620079Y78740
Y118110
Y39370
X600394
X580709
X561024
X541339
X521654
X501968
X482283
X492126Y59055
X511811
X531496
X551181
X570866
Y19685
X590551
X610236
X551181
X531496
X511811
X492126
X472441
Y59055
X482283Y78740
X501968
X521654
Y157480
X541339
X561024
X580709
X600394
X620079
X610236Y177165
X590551
X600394Y196850
X620079
X610236Y216535
X620079Y236221
X600394
X610236Y255906
X607100Y276300
X561024Y275591
X558900Y265700
X561900Y287000
X561700Y292900
X570400Y297600
X572200Y300900
X569300Y304900
X550900Y303800
X546895Y299895
X544100Y297300
X537900Y280200
X519400Y279500
X519500Y273800
X505100Y271000
X493400Y265700
X493100Y290300
X497000Y305400
X490000Y309900
X482700Y312000
X472441Y295276
X470000Y279400
X472200Y273100
X472441Y216535
X492126
X511811
X531496
X541339Y236221
X556971Y237371
X560821Y237521
X564811Y237321
X569430Y237230
X571100Y251500
X574800
X579000Y251400
X582700Y250700
X570866Y216535
X580709Y196850
X561024
X541339
X521654
X501968
X482283
Y157480
X501968
X521654Y236221
X528206Y307893
X468400Y305400
X468500Y301400
X460100
X460900Y305200
X439800Y302600
X433500Y308500
X413500Y308700
X414100Y292800
X414000Y288400
X416400Y286200
X416300Y281800
X416000Y277400
X413600Y279600
X413500Y284000
X416500Y290600
X419300Y294100
X417700Y271900
X413600Y271500
X409100Y271100
X406989Y264389
X407400Y258000
X410000Y260400
X405142Y255242
X403543Y236221
X386600Y237900
X382400
X376593Y237307
X373100Y237400
X365800Y237600
X362600Y237500
X359500
X356400
X353400Y237706
X347000Y235300
X344800Y238300
X343600Y244000
X347800Y251200
X344300Y255600
X341100Y259900
X348400Y264500
X363300Y263200
X371900Y263300
X379100Y263600
X385300Y262800
X385186Y251918
X381702Y251721
X360000Y252400
X358300Y250000
X356600Y247600
X353900Y246200
X359400Y222700
X333300Y223000
X334300Y200100
X344488Y196850
X347400Y196700
X349000Y203700
X344950Y203800
X347400Y187300
X364173Y196850
X383858
X403543
X423228
X442913
X462598
X452756Y216535
X433071
X441000Y274600
X448000Y272600
X458100Y281900
X464100Y279400
X466700Y274900
X395100Y277500
Y272200
X383858Y275591
X383600Y284800
X383800Y293700
X385200Y303200
X386025Y310025
X390100Y310000
X393200Y311700
X395300Y306700
X377000Y305700
X369041Y301420
X361900Y308400
X359600Y311100
X354331Y295276
X346400Y287300
X331600Y286000
X329581Y283819
X326500Y280000
X328900Y277500
X332519Y277519
X330800Y254900
X325800Y254700
X324600Y242400
X320161Y297061
X322300Y300200
X322400Y303600
Y306700
Y309900
X373600Y285500
X373700Y275600
X364173Y275591
Y157480
X383858
X403543
X423228
X442913
X462598
X344488
X301500Y161800
X296300Y195800
X270400Y200100
X265748Y196850
X268300Y187300
X246063Y196850
X239700Y203900
X230500Y203500
X234200Y213100
X238000Y213400
X245100Y219300
X239700Y224900
X232100Y232100
X250800Y229000
X255906Y255906
X256600Y262900
X275591Y255906
X277600Y247200
Y243500
X292700Y252100
X293000Y269900
X303100Y264500
X310100Y242000
X288300Y287400
X258600Y306100
X259156Y310098
X223550Y305950
X220500Y306000
X191500Y310000
X187000Y294900
X194500Y289000
X196900Y286900
X184800Y266700
X184700Y263200
X193300Y231100
X206693Y236221
X193800Y212600
X198000Y207800
X206693Y196850
X187008
X167323
X177165Y216535
X157480
X220700Y213400
X226378Y157480
X246063
X265748
X206693
X187008
X167323
X230600Y273000
X155500Y307300
X111500Y309000
X71600Y308900
X57000Y305500
X53500
X50000
X46500
X43000
X29528Y275591
Y236221
X39370Y216535
X59055
X78740
X98425
X118110
X127953Y196850
X147638
Y236221
X108268
X88583
X68898
Y196850
X88583
X108268
Y157480
X127953
X147638
X88583
X68898
X49213
X29528
X19685Y177165
X29528Y196850
X25300Y204100
X19685Y216535
X4900Y215500
X49213Y196850
X54200Y324100
X71800Y351200
X75400Y362700
X85500
X88700Y355300
X103400Y368300
X106200Y371800
X98269Y384522
X97600Y388200
X97450Y391500
X97400Y395200
X84200Y398200
X77300
X77000Y387700
X84000Y388000
X85600Y406900
X84473Y411112
X100500Y417600
X103400Y417500
X106400
X69900Y422400
X59500Y439100
X56200
X52300Y438900
X53100Y443000
X52900Y446400
X26186Y444059
X24700Y431800
X29100Y432500
X28715Y426285
X38400Y426800
X50200Y398900
X55400Y400000
X57700Y404000
X56900Y386100
X60700Y383700
X50200Y388900
X62400Y363900
X24000Y365000
Y361500
X23970Y369670
X20400Y367800
X15800Y369300
X13780Y348380
X30764Y466780
X95700Y461200
X109100Y468600
X191000Y329400
X196850Y334646
X236221
X244000Y335000
X237500Y323100
X226000Y315700
X265748Y314961
X305118
X322500Y313400
Y316600
X322600Y320400
X344488Y314961
X351800Y325800
X357514Y324700
X356500Y328200
X365500Y328300
X367197Y325300
X371100Y324500
X371700Y312600
X368700Y337100
Y340600
X352600Y340100
Y343300
Y346500
X349800Y348500
X346100Y350200
X387830Y324034
X397600Y318100
X400400Y328200
X403700Y325700
X413386Y334646
X420900Y317800
X433000Y316900
X452756Y334646
X492126
X504700Y348700
X509300Y349900
X516200Y356800
X518900Y359900
X523463Y374163
X527000Y374200
X531100Y380200
X531000Y383900
X531514Y387882
X528400Y400500
X524200Y401600
X520500Y400500
X524200Y407400
X531600Y409000
X531496Y413386
X543500Y409300
X547000Y409200
X550300Y409100
X549300Y396300
X545900
X542600
X549900Y391400
X567100Y382800
X571500Y385200
X576450Y385800
X575200Y397400
X571700Y409100
X567400Y412700
X563700Y415900
X565900Y427500
X550800Y437700
X541339Y433071
X521654
X531496Y452756
X550300Y455500
X597069Y444773
X596200Y431400
X611800Y409700
X606100Y355400
X600200Y341600
X598500Y333100
X587200Y343500
X584800Y341800
X582200Y340500
X580900Y337700
X577200
X575500Y335300
X571300Y336200
X567900Y330800
X564764Y332503
X561300Y335100
X558900Y328000
X559700Y324100
X553600Y327700
X546100Y332200
X543165Y331311
X534500Y331000
X532900Y319900
X529700Y319835
Y316500
X536000Y315700
X536100Y312687
X543600Y314200
X543700Y317500
X550600Y316800
X569200Y317700
X572928Y359049
X576450Y369969
X571600Y374300
X564900Y375100
X553300Y365500
X550500Y362100
X548500Y359800
X545700Y357500
X540200Y359100
X524800Y322100
X517600Y313500
X588744Y346520
X570866Y492126
X573400Y496600
X573300Y507100
X558900Y506675
X555500Y498200
X550200Y498500
X548500Y511300
X548600Y517500
X542100Y517600
X542300Y510800
X529500Y512000
X529479Y514900
X529143Y518100
X530600Y520900
X531496Y531496
X530800Y537000
X521654Y551181
X531496Y570866
X539200Y565100
X555844Y570320
X552700Y580300
X560100Y581900
X557900Y584900
X556700Y588400
X568800Y588900
X580709Y590551
X600394
X595700Y578100
Y564600
X564200Y575200
X562531Y577628
X565307Y613193
X565800Y619200
X569300Y616102
X552400Y617000
X530261Y618661
X529711Y623779
X524200Y617200
X528200Y612400
X531000Y607500
X531670Y595030
X528500Y594900
X517000Y599500
X591100Y612900
X610236Y610236
X558900Y523700
X530600Y506200
X531700Y500400
X531500Y496900
X533200Y490800
X547216Y478556
X541339Y472441
X88583
X82497Y484997
X81400Y487900
X79100Y489700
X92100Y489600
X92000Y502300
X81600Y530200
X88583Y551181
X78740Y570866
X63200Y573700
X59201Y573600
X51900Y589200
X54100Y599200
X47300Y601800
X47500Y612313
X50500Y614700
X54304Y613320
X35500Y617000
X19685Y570866
Y531496
Y492126
X26500Y495000
X59055Y492126
X52400Y470500
X46100Y517700
X52000Y543100
X76900Y589400
X76300Y593600
X96822Y597522
X94600Y602600
X94100Y606557
X96500Y585300
X96600Y580700
Y575900
X92000Y626000
X89100Y627900
Y631100
X89000Y634300
Y637400
Y640600
X92800Y640100
X84900Y657600
X80000Y657500
X75000
X70000Y657600
X65000Y657500
X59055Y649606
X36900Y645100
X31500Y653000
Y667000
X29528Y669291
X49213
X68898
X59055Y688976
X39370
X49213Y708661
X43200Y716700
X36400Y721600
X39370Y728346
X19685
X29528Y748032
X49213
X65998Y748132
X88583Y748032
X108268
X98425Y767717
X78740
X59055
X39370
X19685
X78740Y728346
X88583Y708661
X108268
X68898
X33900Y632500
X529900Y635300
X530300Y628500
X531496Y649606
X542100Y639200
X545800
X549300Y639100
X552800Y629500
X569400Y629700
X565800Y625500
X580709Y629921
X574000Y637300
X570866Y649606
X590551
X606700Y650000
X609700
X612800
X615900
X619000
X622200
X620079Y708661
X597400Y710700
X582200Y710900
X560100Y709900
X541000Y710600
X521654Y708661
X531496Y688976
X519500Y665000
X521654Y748032
X541339
X561024
X580709
X590551Y767717
X570866
X551181
X531496
X590551Y728346
X610236
T02
X14500Y703500
X24500
X34500
X44500
X54500
X64500
X74500
X84500
X94500
X104500
X76300Y733500
X66300
X56300
X46300
Y763500
X56300
X66300
X76300
X530500Y678500
X540500
X550500
X560500
X570500
X580500
X590500
X600500
X610500
X620500
T03
X161500Y273500
X171500
X181500
X151500
X141500
X131500
X121500
X111500
X101500
X91500
X81500
X71500
X61500
X51500
X41500
Y333500
X51500
X61500
X71500
X81500
X91500
X101500
X111500
X121500
X131500
X141500
X151500
X161500
X171500
X181500
T04
X477500Y226000
Y236000
X487500
Y226000
X497500
Y236000
X507500
Y226000
X467500
X457500
X447500
X437500
X427500
X417500
Y236000
X427500
X437500
X447500
X457500
X467500
T05
X19000Y70331
Y84110
Y97890
Y111669
X610500Y111559
Y97780
Y84000
Y70221
Y141600
X603500Y284000
Y294000
Y304000
X616700
Y294000
X479000Y295000
Y285000
Y275000
Y265000
Y305000
X444500Y295800
X338100Y194400
X11500Y274000
Y284000
Y294000
Y304000
Y314000
Y324000
Y334000
X81500Y346500
X91500
X101500
X111500
X121500
X131500
X141500
X151500
X108500Y449500
X95500
X82000
X17000Y453000
Y439221
Y425441
Y466780
X318431Y338800
X332210
X345990
X359769
X520500Y421500
X534500Y421000
X548500
X610000Y423831
Y437610
Y451390
Y465169
X519000Y460500
X603500Y324000
Y314000
X616700
Y324000
X610236Y557221
Y571000
Y584780
Y598559
X545500Y588000
X532000
X518500
X520500Y539500
X519000Y474500
X108500Y554500
X95500
X82500
X17000Y552779
Y539000
Y525220
Y511441
Y645720
Y659500
Y673279
Y687059
X525472Y696000
X535315
X545157
X555000
X564843
X574685
X584528
X619500Y703500
Y718000
Y732500
Y747000
Y761500
Y776000
X564843Y760500
X555000
X545157
X535315
X525472
X525315Y728500
X535157
X545000
X554843
X564685
X574528
T06
X602220Y246000
X616000
X334479Y236100
X320700
X303300
X289521
X26779Y245600
X13000
X17100Y379621
Y393400
X430000Y333500
X443780
X607000Y378500
Y392280
Y489221
Y503000
X607500Y519721
Y533500
X606800Y622221
X14100Y606700
Y592920
X606800Y636000
T07
X299500Y23500
X328500
T08
X277477Y332100
X294800
X470000Y333000
X487323
T09
X51500Y47400
X51181Y90551
X236221
X263500Y47900
X366441Y47295
X393701Y90551
X578740
X578441Y47295
Y228795
X366441Y228295
X263500Y228900
X51500
X543307Y551181
X51181Y559055
M30
