%TF.GenerationSoftware,Altium Limited,Altium NEXUS,2.1.6 (59)*%
G04 Layer_Color=255*
%FSLAX45Y45*%
%MOMM*%
%TF.FileFunction,Pads,Top*%
%TF.Part,Single*%
G01*
G75*
%TA.AperFunction,SMDPad,CuDef*%
%ADD12R,1.00000X1.05000*%
%ADD13R,1.05000X2.20000*%
%ADD14R,1.61000X0.61000*%
%ADD15R,1.10000X1.38000*%
%ADD16R,1.00000X0.90000*%
%ADD17R,1.00000X1.10000*%
%ADD18R,2.00000X2.50000*%
%ADD19R,0.50000X2.50000*%
%ADD20R,0.80000X0.90000*%
%ADD21R,1.39700X0.34800*%
%ADD22R,0.90000X0.80000*%
%ADD23R,1.01600X1.52400*%
%ADD24R,1.52400X1.01600*%
%ADD25R,0.70000X0.90000*%
%TA.AperFunction,ViaPad*%
%ADD26C,0.65000*%
%TA.AperFunction,WasherPad*%
%ADD27C,1.52400*%
%TA.AperFunction,ComponentPad*%
%ADD28C,0.90000*%
%ADD29R,1.60000X1.60000*%
%ADD30C,1.60000*%
%ADD31R,1.70000X1.70000*%
%ADD32C,1.70000*%
%ADD33R,1.60000X1.60000*%
D12*
X6070500Y8676500D02*
D03*
X4067300D02*
D03*
D13*
X6218000Y8826500D02*
D03*
X5923000D02*
D03*
X4216400D02*
D03*
X3921400D02*
D03*
D14*
X6275900Y4152900D02*
D03*
X6474900Y4255400D02*
D03*
Y4050400D02*
D03*
D15*
X6289100Y3873500D02*
D03*
X6461700D02*
D03*
X6385500Y4445000D02*
D03*
X6212900D02*
D03*
X6809800Y4000500D02*
D03*
X6982400D02*
D03*
D16*
X5867400Y2899500D02*
D03*
Y3069500D02*
D03*
X6375400Y5325200D02*
D03*
Y5495200D02*
D03*
X5422900Y2899500D02*
D03*
Y3069500D02*
D03*
X4978400Y2886800D02*
D03*
Y3056800D02*
D03*
X4559300Y3082200D02*
D03*
Y2912200D02*
D03*
X4178300Y3069500D02*
D03*
Y2899500D02*
D03*
D17*
X6083300D02*
D03*
Y3069500D02*
D03*
X5638800Y2899500D02*
D03*
Y3069500D02*
D03*
X5194300Y2899500D02*
D03*
Y3069500D02*
D03*
X4749800Y2903400D02*
D03*
Y3073400D02*
D03*
X4368800Y2912200D02*
D03*
Y3082200D02*
D03*
D18*
X7414200Y3055800D02*
D03*
X6522200D02*
D03*
X7414200Y3603800D02*
D03*
X6522200D02*
D03*
D19*
X7128200D02*
D03*
X7048200D02*
D03*
X6968200D02*
D03*
X6888200D02*
D03*
X6808200D02*
D03*
D20*
X7385200Y4140200D02*
D03*
X7245200D02*
D03*
X7385200Y4267200D02*
D03*
X7245200D02*
D03*
D21*
X6591300Y4554000D02*
D03*
Y4619000D02*
D03*
Y4684000D02*
D03*
Y4749000D02*
D03*
Y4814000D02*
D03*
Y4879000D02*
D03*
Y4944000D02*
D03*
Y5009000D02*
D03*
Y5074000D02*
D03*
Y5139000D02*
D03*
Y5204000D02*
D03*
Y5269000D02*
D03*
Y5334000D02*
D03*
Y5399000D02*
D03*
X7322500Y4554000D02*
D03*
Y4619000D02*
D03*
Y4684000D02*
D03*
Y4749000D02*
D03*
Y4814000D02*
D03*
Y4944000D02*
D03*
Y4879000D02*
D03*
Y5009000D02*
D03*
Y5074000D02*
D03*
Y5139000D02*
D03*
Y5204000D02*
D03*
Y5269000D02*
D03*
Y5334000D02*
D03*
Y5399000D02*
D03*
D22*
X3886200Y7061500D02*
D03*
Y6921500D02*
D03*
X6299200Y6546700D02*
D03*
Y6686700D02*
D03*
D23*
X5448300Y7823200D02*
D03*
X5321300D02*
D03*
X5194300D02*
D03*
X5067300D02*
D03*
X4940300D02*
D03*
X4813300D02*
D03*
X4686300D02*
D03*
D24*
X4178300Y7696200D02*
D03*
Y7569200D02*
D03*
Y7442200D02*
D03*
Y7315200D02*
D03*
Y7188200D02*
D03*
Y7061200D02*
D03*
Y6934200D02*
D03*
Y6807200D02*
D03*
Y6680200D02*
D03*
Y6553200D02*
D03*
Y6426200D02*
D03*
Y6299200D02*
D03*
Y6172200D02*
D03*
Y6045200D02*
D03*
Y5918200D02*
D03*
Y5791200D02*
D03*
Y5664200D02*
D03*
Y5537200D02*
D03*
Y5410200D02*
D03*
Y5283200D02*
D03*
X5956300D02*
D03*
Y5410200D02*
D03*
Y5537200D02*
D03*
Y5664200D02*
D03*
Y5791200D02*
D03*
Y5918200D02*
D03*
Y6045200D02*
D03*
Y6172200D02*
D03*
Y6299200D02*
D03*
Y6426200D02*
D03*
Y6553200D02*
D03*
Y6680200D02*
D03*
Y6807200D02*
D03*
Y6934200D02*
D03*
Y7061200D02*
D03*
Y7188200D02*
D03*
Y7315200D02*
D03*
Y7442200D02*
D03*
Y7569200D02*
D03*
Y7696200D02*
D03*
D25*
X6224200Y4660900D02*
D03*
X6374200D02*
D03*
D26*
X6985000Y4470400D02*
D03*
X3937000Y8001000D02*
D03*
X6216600Y7988300D02*
D03*
X5816600D02*
D03*
X4330700Y8001000D02*
D03*
X5473700Y8509000D02*
D03*
X5080000D02*
D03*
X4673600D02*
D03*
X5473700Y8909000D02*
D03*
X5080000D02*
D03*
X4673600D02*
D03*
D27*
X2844800Y8864600D02*
D03*
X8394700D02*
D03*
Y2984500D02*
D03*
X2844800D02*
D03*
D28*
X7188200Y3352800D02*
D03*
X6748200D02*
D03*
D29*
X3403600Y4610100D02*
D03*
X7743700Y5613400D02*
D03*
X3403600Y4102100D02*
D03*
Y5118100D02*
D03*
X7743700Y4089400D02*
D03*
D30*
X3403600Y4864100D02*
D03*
X7743700Y5867400D02*
D03*
Y6121400D02*
D03*
Y6375400D02*
D03*
Y6629400D02*
D03*
Y6883400D02*
D03*
X3403600Y3848100D02*
D03*
Y6896100D02*
D03*
Y6642100D02*
D03*
Y6388100D02*
D03*
Y6134100D02*
D03*
Y5880100D02*
D03*
Y5626100D02*
D03*
Y5372100D02*
D03*
X7743700Y4343400D02*
D03*
Y4597400D02*
D03*
Y4851400D02*
D03*
Y5105400D02*
D03*
X5435600Y4241800D02*
D03*
X5181600D02*
D03*
X4927600D02*
D03*
X4673600D02*
D03*
X4419600D02*
D03*
D31*
X3327400Y3213100D02*
D03*
D32*
X3677400D02*
D03*
D33*
X5689600Y4241800D02*
D03*
%TF.MD5,1db7f3ae8b27e3739729f5f892c9ebff*%
M02*
