%TF.GenerationSoftware,Altium Limited,Altium NEXUS,2.1.6 (59)*%
G04 Layer_Color=8388736*
%FSLAX45Y45*%
%MOMM*%
%TF.FileFunction,Soldermask,Top*%
%TF.Part,Single*%
G01*
G75*
%TA.AperFunction,SMDPad,CuDef*%
%ADD14R,1.61000X0.61000*%
%TA.AperFunction,ViaPad*%
%ADD34C,0.85320*%
%TA.AperFunction,WasherPad*%
%ADD35C,1.72720*%
%TA.AperFunction,ComponentPad*%
%ADD36C,1.10320*%
%ADD37R,1.80320X1.80320*%
%ADD38C,1.80320*%
%ADD39R,1.90320X1.90320*%
%ADD40C,1.90320*%
%ADD41R,1.80320X1.80320*%
%TA.AperFunction,SMDPad,CuDef*%
%ADD49R,1.20320X1.25320*%
%ADD50R,1.25320X2.40320*%
%ADD51R,1.30320X1.58320*%
%ADD52R,1.20320X1.10320*%
%ADD53R,1.20320X1.30320*%
%ADD54R,2.20320X2.70320*%
%ADD55R,0.70320X2.70320*%
%ADD56R,1.00320X1.10320*%
%ADD57R,1.60020X0.55120*%
%ADD58R,1.10320X1.00320*%
%ADD59R,1.21920X1.72720*%
%ADD60R,1.72720X1.21920*%
%ADD61R,0.90320X1.10320*%
D14*
X6275900Y4152900D02*
D03*
X6474900Y4255400D02*
D03*
Y4050400D02*
D03*
D34*
X6985000Y4470400D02*
D03*
X3937000Y8001000D02*
D03*
X6216600Y7988300D02*
D03*
X5816600D02*
D03*
X4330700Y8001000D02*
D03*
X5473700Y8509000D02*
D03*
X5080000D02*
D03*
X4673600D02*
D03*
X5473700Y8909000D02*
D03*
X5080000D02*
D03*
X4673600D02*
D03*
X3649700Y8109000D02*
D03*
Y8509000D02*
D03*
Y8909000D02*
D03*
X6489700Y8134400D02*
D03*
Y8534400D02*
D03*
Y8909000D02*
D03*
X5346700Y2794000D02*
D03*
X5791200D02*
D03*
X7607300Y4267200D02*
D03*
X7493000Y3898900D02*
D03*
Y4267200D02*
D03*
X6616700Y5549900D02*
D03*
X6896100Y4851400D02*
D03*
X6121400Y5181600D02*
D03*
X6781800Y4749800D02*
D03*
X6083300Y4660900D02*
D03*
X7480300Y5194300D02*
D03*
X7477700Y5006400D02*
D03*
X7099300Y3822700D02*
D03*
X4559300Y2781300D02*
D03*
Y3238500D02*
D03*
X4178300Y2781300D02*
D03*
Y3238500D02*
D03*
X6210300Y5422900D02*
D03*
X5727700Y6692900D02*
D03*
X4394200D02*
D03*
X4495800Y5448300D02*
D03*
X4584700Y5334000D02*
D03*
X6121400Y6045200D02*
D03*
Y5918200D02*
D03*
Y5537200D02*
D03*
D35*
X2844800Y8864600D02*
D03*
X8394700D02*
D03*
Y2984500D02*
D03*
X2844800D02*
D03*
D36*
X7188200Y3352800D02*
D03*
X6748200D02*
D03*
D37*
X3403600Y4610100D02*
D03*
X7743700Y5613400D02*
D03*
X3403600Y4102100D02*
D03*
Y5118100D02*
D03*
X7743700Y4089400D02*
D03*
D38*
X3403600Y4864100D02*
D03*
X7743700Y5867400D02*
D03*
Y6121400D02*
D03*
Y6375400D02*
D03*
Y6629400D02*
D03*
Y6883400D02*
D03*
X3403600Y3848100D02*
D03*
Y6896100D02*
D03*
Y6642100D02*
D03*
Y6388100D02*
D03*
Y6134100D02*
D03*
Y5880100D02*
D03*
Y5626100D02*
D03*
Y5372100D02*
D03*
X7743700Y4343400D02*
D03*
Y4597400D02*
D03*
Y4851400D02*
D03*
Y5105400D02*
D03*
X5435600Y4241800D02*
D03*
X5181600D02*
D03*
X4927600D02*
D03*
X4673600D02*
D03*
X4419600D02*
D03*
D39*
X3327400Y3213100D02*
D03*
D40*
X3677400D02*
D03*
D41*
X5689600Y4241800D02*
D03*
D49*
X6070500Y8676500D02*
D03*
X4067300D02*
D03*
D50*
X6218000Y8826500D02*
D03*
X5923000D02*
D03*
X4216400D02*
D03*
X3921400D02*
D03*
D51*
X6289100Y3873500D02*
D03*
X6461700D02*
D03*
X6385500Y4445000D02*
D03*
X6212900D02*
D03*
X6809800Y4000500D02*
D03*
X6982400D02*
D03*
D52*
X5867400Y2899500D02*
D03*
Y3069500D02*
D03*
X6375400Y5325200D02*
D03*
Y5495200D02*
D03*
X5422900Y2899500D02*
D03*
Y3069500D02*
D03*
X4978400Y2886800D02*
D03*
Y3056800D02*
D03*
X4559300Y3082200D02*
D03*
Y2912200D02*
D03*
X4178300Y3069500D02*
D03*
Y2899500D02*
D03*
D53*
X6083300D02*
D03*
Y3069500D02*
D03*
X5638800Y2899500D02*
D03*
Y3069500D02*
D03*
X5194300Y2899500D02*
D03*
Y3069500D02*
D03*
X4749800Y2903400D02*
D03*
Y3073400D02*
D03*
X4368800Y2912200D02*
D03*
Y3082200D02*
D03*
D54*
X7414200Y3055800D02*
D03*
X6522200D02*
D03*
X7414200Y3603800D02*
D03*
X6522200D02*
D03*
D55*
X7128200D02*
D03*
X7048200D02*
D03*
X6968200D02*
D03*
X6888200D02*
D03*
X6808200D02*
D03*
D56*
X7385200Y4140200D02*
D03*
X7245200D02*
D03*
X7385200Y4267200D02*
D03*
X7245200D02*
D03*
D57*
X6591300Y4554000D02*
D03*
Y4619000D02*
D03*
Y4684000D02*
D03*
Y4749000D02*
D03*
Y4814000D02*
D03*
Y4879000D02*
D03*
Y4944000D02*
D03*
Y5009000D02*
D03*
Y5074000D02*
D03*
Y5139000D02*
D03*
Y5204000D02*
D03*
Y5269000D02*
D03*
Y5334000D02*
D03*
Y5399000D02*
D03*
X7322500Y4554000D02*
D03*
Y4619000D02*
D03*
Y4684000D02*
D03*
Y4749000D02*
D03*
Y4814000D02*
D03*
Y4944000D02*
D03*
Y4879000D02*
D03*
Y5009000D02*
D03*
Y5074000D02*
D03*
Y5139000D02*
D03*
Y5204000D02*
D03*
Y5269000D02*
D03*
Y5334000D02*
D03*
Y5399000D02*
D03*
D58*
X3886200Y7061500D02*
D03*
Y6921500D02*
D03*
X6299200Y6546700D02*
D03*
Y6686700D02*
D03*
D59*
X5448300Y7823200D02*
D03*
X5321300D02*
D03*
X5194300D02*
D03*
X5067300D02*
D03*
X4940300D02*
D03*
X4813300D02*
D03*
X4686300D02*
D03*
D60*
X4178300Y7696200D02*
D03*
Y7569200D02*
D03*
Y7442200D02*
D03*
Y7315200D02*
D03*
Y7188200D02*
D03*
Y7061200D02*
D03*
Y6934200D02*
D03*
Y6807200D02*
D03*
Y6680200D02*
D03*
Y6553200D02*
D03*
Y6426200D02*
D03*
Y6299200D02*
D03*
Y6172200D02*
D03*
Y6045200D02*
D03*
Y5918200D02*
D03*
Y5791200D02*
D03*
Y5664200D02*
D03*
Y5537200D02*
D03*
Y5410200D02*
D03*
Y5283200D02*
D03*
X5956300D02*
D03*
Y5410200D02*
D03*
Y5537200D02*
D03*
Y5664200D02*
D03*
Y5791200D02*
D03*
Y5918200D02*
D03*
Y6045200D02*
D03*
Y6172200D02*
D03*
Y6299200D02*
D03*
Y6426200D02*
D03*
Y6553200D02*
D03*
Y6680200D02*
D03*
Y6807200D02*
D03*
Y6934200D02*
D03*
Y7061200D02*
D03*
Y7188200D02*
D03*
Y7315200D02*
D03*
Y7442200D02*
D03*
Y7569200D02*
D03*
Y7696200D02*
D03*
D61*
X6224200Y4660900D02*
D03*
X6374200D02*
D03*
%TF.MD5,edb3d019202fd4217b81ebfc108e47d3*%
M02*
