%TF.GenerationSoftware,Altium Limited,Altium NEXUS,2.1.6 (59)*%
G04 Layer_Color=128*
%FSLAX45Y45*%
%MOMM*%
%TF.FileFunction,Drillmap*%
%TF.Part,Single*%
G01*
G75*
%TA.AperFunction,NonConductor*%
%ADD47C,0.12700*%
D47*
X6967500Y4470400D02*
X7002500D01*
X6985000Y4452900D02*
Y4487900D01*
X3919500Y8001000D02*
X3954500D01*
X3937000Y7983500D02*
Y8018500D01*
X6199100Y7988300D02*
X6234100D01*
X6216600Y7970800D02*
Y8005800D01*
X5799100Y7988300D02*
X5834100D01*
X5816600Y7970800D02*
Y8005800D01*
X4313200Y8001000D02*
X4348200D01*
X4330700Y7983500D02*
Y8018500D01*
X5456200Y8509000D02*
X5491200D01*
X5473700Y8491500D02*
Y8526500D01*
X5062500Y8509000D02*
X5097500D01*
X5080000Y8491500D02*
Y8526500D01*
X4656100Y8509000D02*
X4691100D01*
X4673600Y8491500D02*
Y8526500D01*
X5456200Y8909000D02*
X5491200D01*
X5473700Y8891500D02*
Y8926500D01*
X5062500Y8909000D02*
X5097500D01*
X5080000Y8891500D02*
Y8926500D01*
X4656100Y8909000D02*
X4691100D01*
X4673600Y8891500D02*
Y8926500D01*
X2684800Y8864600D02*
X3004800D01*
X2844800Y8704600D02*
Y9024600D01*
X8234700Y8864600D02*
X8554700D01*
X8394700Y8704600D02*
Y9024600D01*
X8234700Y2984500D02*
X8554700D01*
X8394700Y2824500D02*
Y3144500D01*
X2684800Y2984500D02*
X3004800D01*
X2844800Y2824500D02*
Y3144500D01*
X7143200Y3352800D02*
X7233200D01*
X7188200Y3307800D02*
Y3397800D01*
X6703200Y3352800D02*
X6793200D01*
X6748200Y3307800D02*
Y3397800D01*
X3348600Y4610100D02*
X3458600D01*
X3403600Y4555100D02*
Y4665100D01*
X3348600Y4864100D02*
X3458600D01*
X3403600Y4809100D02*
Y4919100D01*
X7688700Y5613400D02*
X7798700D01*
X7743700Y5558400D02*
Y5668400D01*
X7688700Y5867400D02*
X7798700D01*
X7743700Y5812400D02*
Y5922400D01*
X7688700Y6121400D02*
X7798700D01*
X7743700Y6066400D02*
Y6176400D01*
X7688700Y6375400D02*
X7798700D01*
X7743700Y6320400D02*
Y6430400D01*
X7688700Y6629400D02*
X7798700D01*
X7743700Y6574400D02*
Y6684400D01*
X7688700Y6883400D02*
X7798700D01*
X7743700Y6828400D02*
Y6938400D01*
X3348600Y4102100D02*
X3458600D01*
X3403600Y4047100D02*
Y4157100D01*
X3348600Y3848100D02*
X3458600D01*
X3403600Y3793100D02*
Y3903100D01*
X3348600Y6896100D02*
X3458600D01*
X3403600Y6841100D02*
Y6951100D01*
X3348600Y6642100D02*
X3458600D01*
X3403600Y6587100D02*
Y6697100D01*
X3348600Y6388100D02*
X3458600D01*
X3403600Y6333100D02*
Y6443100D01*
X3348600Y6134100D02*
X3458600D01*
X3403600Y6079100D02*
Y6189100D01*
X3348600Y5880100D02*
X3458600D01*
X3403600Y5825100D02*
Y5935100D01*
X3348600Y5626100D02*
X3458600D01*
X3403600Y5571100D02*
Y5681100D01*
X3348600Y5372100D02*
X3458600D01*
X3403600Y5317100D02*
Y5427100D01*
X3348600Y5118100D02*
X3458600D01*
X3403600Y5063100D02*
Y5173100D01*
X3267400Y3213100D02*
X3387400D01*
X3327400Y3153100D02*
Y3273100D01*
X3617400Y3213100D02*
X3737400D01*
X3677400Y3153100D02*
Y3273100D01*
X7688700Y4089400D02*
X7798700D01*
X7743700Y4034400D02*
Y4144400D01*
X7688700Y4343400D02*
X7798700D01*
X7743700Y4288400D02*
Y4398400D01*
X7688700Y4597400D02*
X7798700D01*
X7743700Y4542400D02*
Y4652400D01*
X7688700Y4851400D02*
X7798700D01*
X7743700Y4796400D02*
Y4906400D01*
X7688700Y5105400D02*
X7798700D01*
X7743700Y5050400D02*
Y5160400D01*
X5634600Y4241800D02*
X5744600D01*
X5689600Y4186800D02*
Y4296800D01*
X5380600Y4241800D02*
X5490600D01*
X5435600Y4186800D02*
Y4296800D01*
X5126600Y4241800D02*
X5236600D01*
X5181600Y4186800D02*
Y4296800D01*
X4872600Y4241800D02*
X4982600D01*
X4927600Y4186800D02*
Y4296800D01*
X4618600Y4241800D02*
X4728600D01*
X4673600Y4186800D02*
Y4296800D01*
X4364600Y4241800D02*
X4474600D01*
X4419600Y4186800D02*
Y4296800D01*
X3632200Y8109000D02*
X3667200D01*
X3649700Y8091500D02*
Y8126500D01*
X3632200Y8509000D02*
X3667200D01*
X3649700Y8491500D02*
Y8526500D01*
X3632200Y8909000D02*
X3667200D01*
X3649700Y8891500D02*
Y8926500D01*
X6472200Y8134400D02*
X6507200D01*
X6489700Y8116900D02*
Y8151900D01*
X6472200Y8534400D02*
X6507200D01*
X6489700Y8516900D02*
Y8551900D01*
X6472200Y8909000D02*
X6507200D01*
X6489700Y8891500D02*
Y8926500D01*
X5329200Y2794000D02*
X5364200D01*
X5346700Y2776500D02*
Y2811500D01*
X5773700Y2794000D02*
X5808700D01*
X5791200Y2776500D02*
Y2811500D01*
X7589800Y4267200D02*
X7624800D01*
X7607300Y4249700D02*
Y4284700D01*
X7475500Y3898900D02*
X7510500D01*
X7493000Y3881400D02*
Y3916400D01*
X7475500Y4267200D02*
X7510500D01*
X7493000Y4249700D02*
Y4284700D01*
X6599200Y5549900D02*
X6634200D01*
X6616700Y5532400D02*
Y5567400D01*
X6878600Y4851400D02*
X6913600D01*
X6896100Y4833900D02*
Y4868900D01*
X6103900Y5181600D02*
X6138900D01*
X6121400Y5164100D02*
Y5199100D01*
X6764300Y4749800D02*
X6799300D01*
X6781800Y4732300D02*
Y4767300D01*
X6065800Y4660900D02*
X6100800D01*
X6083300Y4643400D02*
Y4678400D01*
X7462800Y5194300D02*
X7497800D01*
X7480300Y5176800D02*
Y5211800D01*
X7460200Y5006400D02*
X7495200D01*
X7477700Y4988900D02*
Y5023900D01*
X7081800Y3822700D02*
X7116800D01*
X7099300Y3805200D02*
Y3840200D01*
X4541800Y2781300D02*
X4576800D01*
X4559300Y2763800D02*
Y2798800D01*
X4541800Y3238500D02*
X4576800D01*
X4559300Y3221000D02*
Y3256000D01*
X4160800Y2781300D02*
X4195800D01*
X4178300Y2763800D02*
Y2798800D01*
X4160800Y3238500D02*
X4195800D01*
X4178300Y3221000D02*
Y3256000D01*
X6192800Y5422900D02*
X6227800D01*
X6210300Y5405400D02*
Y5440400D01*
X5710200Y6692900D02*
X5745200D01*
X5727700Y6675400D02*
Y6710400D01*
X4376700Y6692900D02*
X4411700D01*
X4394200Y6675400D02*
Y6710400D01*
X4478300Y5448300D02*
X4513300D01*
X4495800Y5430800D02*
Y5465800D01*
X4567200Y5334000D02*
X4602200D01*
X4584700Y5316500D02*
Y5351500D01*
X6103900Y6045200D02*
X6138900D01*
X6121400Y6027700D02*
Y6062700D01*
X6103900Y5918200D02*
X6138900D01*
X6121400Y5900700D02*
Y5935700D01*
X6103900Y5537200D02*
X6138900D01*
X6121400Y5519700D02*
Y5554700D01*
%TF.MD5,4e0633230959edfb094d922d2ae69e47*%
M02*
