%TF.GenerationSoftware,Altium Limited,Altium NEXUS,2.1.6 (59)*%
G04 Layer_Color=2752767*
%FSLAX45Y45*%
%MOMM*%
%TF.FileFunction,Drawing*%
%TF.Part,Single*%
G01*
G75*
%TA.AperFunction,NonConductor*%
%ADD47C,0.12700*%
%ADD84C,0.16933*%
D47*
X6934200Y4419600D02*
Y4521200D01*
X7035800D01*
Y4419600D01*
X6934200D01*
X3886200Y7950200D02*
Y8051800D01*
X3987800D01*
Y7950200D01*
X3886200D01*
X6165800Y7937500D02*
Y8039100D01*
X6267400D01*
Y7937500D01*
X6165800D01*
X5765800D02*
Y8039100D01*
X5867400D01*
Y7937500D01*
X5765800D01*
X4279900Y7950200D02*
Y8051800D01*
X4381500D01*
Y7950200D01*
X4279900D01*
X5422900Y8458200D02*
Y8559800D01*
X5524500D01*
Y8458200D01*
X5422900D01*
X5029200D02*
Y8559800D01*
X5130800D01*
Y8458200D01*
X5029200D01*
X4622800D02*
Y8559800D01*
X4724400D01*
Y8458200D01*
X4622800D01*
X5422900Y8858200D02*
Y8959800D01*
X5524500D01*
Y8858200D01*
X5422900D01*
X5029200D02*
Y8959800D01*
X5130800D01*
Y8858200D01*
X5029200D01*
X4622800D02*
Y8959800D01*
X4724400D01*
Y8858200D01*
X4622800D01*
X7188200Y3302000D02*
X7137400Y3403600D01*
X7239000D01*
X7188200Y3302000D01*
X6748200D02*
X6697400Y3403600D01*
X6799000D01*
X6748200Y3302000D01*
X3403600Y4559300D02*
X3429000Y4584700D01*
X3454400D01*
X3429000Y4610100D01*
X3454400Y4635500D01*
X3429000D01*
X3403600Y4660900D01*
X3378200Y4635500D01*
X3352800D01*
X3378200Y4610100D01*
X3352800Y4584700D01*
X3378200D01*
X3403600Y4559300D01*
Y4813300D02*
X3429000Y4838700D01*
X3454400D01*
X3429000Y4864100D01*
X3454400Y4889500D01*
X3429000D01*
X3403600Y4914900D01*
X3378200Y4889500D01*
X3352800D01*
X3378200Y4864100D01*
X3352800Y4838700D01*
X3378200D01*
X3403600Y4813300D01*
X7743700Y5562600D02*
X7769100Y5588000D01*
X7794500D01*
X7769100Y5613400D01*
X7794500Y5638800D01*
X7769100D01*
X7743700Y5664200D01*
X7718300Y5638800D01*
X7692900D01*
X7718300Y5613400D01*
X7692900Y5588000D01*
X7718300D01*
X7743700Y5562600D01*
Y5816600D02*
X7769100Y5842000D01*
X7794500D01*
X7769100Y5867400D01*
X7794500Y5892800D01*
X7769100D01*
X7743700Y5918200D01*
X7718300Y5892800D01*
X7692900D01*
X7718300Y5867400D01*
X7692900Y5842000D01*
X7718300D01*
X7743700Y5816600D01*
Y6070600D02*
X7769100Y6096000D01*
X7794500D01*
X7769100Y6121400D01*
X7794500Y6146800D01*
X7769100D01*
X7743700Y6172200D01*
X7718300Y6146800D01*
X7692900D01*
X7718300Y6121400D01*
X7692900Y6096000D01*
X7718300D01*
X7743700Y6070600D01*
Y6324600D02*
X7769100Y6350000D01*
X7794500D01*
X7769100Y6375400D01*
X7794500Y6400800D01*
X7769100D01*
X7743700Y6426200D01*
X7718300Y6400800D01*
X7692900D01*
X7718300Y6375400D01*
X7692900Y6350000D01*
X7718300D01*
X7743700Y6324600D01*
Y6578600D02*
X7769100Y6604000D01*
X7794500D01*
X7769100Y6629400D01*
X7794500Y6654800D01*
X7769100D01*
X7743700Y6680200D01*
X7718300Y6654800D01*
X7692900D01*
X7718300Y6629400D01*
X7692900Y6604000D01*
X7718300D01*
X7743700Y6578600D01*
Y6832600D02*
X7769100Y6858000D01*
X7794500D01*
X7769100Y6883400D01*
X7794500Y6908800D01*
X7769100D01*
X7743700Y6934200D01*
X7718300Y6908800D01*
X7692900D01*
X7718300Y6883400D01*
X7692900Y6858000D01*
X7718300D01*
X7743700Y6832600D01*
X3403600Y4051300D02*
X3429000Y4076700D01*
X3454400D01*
X3429000Y4102100D01*
X3454400Y4127500D01*
X3429000D01*
X3403600Y4152900D01*
X3378200Y4127500D01*
X3352800D01*
X3378200Y4102100D01*
X3352800Y4076700D01*
X3378200D01*
X3403600Y4051300D01*
Y3797300D02*
X3429000Y3822700D01*
X3454400D01*
X3429000Y3848100D01*
X3454400Y3873500D01*
X3429000D01*
X3403600Y3898900D01*
X3378200Y3873500D01*
X3352800D01*
X3378200Y3848100D01*
X3352800Y3822700D01*
X3378200D01*
X3403600Y3797300D01*
Y6845300D02*
X3429000Y6870700D01*
X3454400D01*
X3429000Y6896100D01*
X3454400Y6921500D01*
X3429000D01*
X3403600Y6946900D01*
X3378200Y6921500D01*
X3352800D01*
X3378200Y6896100D01*
X3352800Y6870700D01*
X3378200D01*
X3403600Y6845300D01*
Y6591300D02*
X3429000Y6616700D01*
X3454400D01*
X3429000Y6642100D01*
X3454400Y6667500D01*
X3429000D01*
X3403600Y6692900D01*
X3378200Y6667500D01*
X3352800D01*
X3378200Y6642100D01*
X3352800Y6616700D01*
X3378200D01*
X3403600Y6591300D01*
Y6337300D02*
X3429000Y6362700D01*
X3454400D01*
X3429000Y6388100D01*
X3454400Y6413500D01*
X3429000D01*
X3403600Y6438900D01*
X3378200Y6413500D01*
X3352800D01*
X3378200Y6388100D01*
X3352800Y6362700D01*
X3378200D01*
X3403600Y6337300D01*
Y6083300D02*
X3429000Y6108700D01*
X3454400D01*
X3429000Y6134100D01*
X3454400Y6159500D01*
X3429000D01*
X3403600Y6184900D01*
X3378200Y6159500D01*
X3352800D01*
X3378200Y6134100D01*
X3352800Y6108700D01*
X3378200D01*
X3403600Y6083300D01*
Y5829300D02*
X3429000Y5854700D01*
X3454400D01*
X3429000Y5880100D01*
X3454400Y5905500D01*
X3429000D01*
X3403600Y5930900D01*
X3378200Y5905500D01*
X3352800D01*
X3378200Y5880100D01*
X3352800Y5854700D01*
X3378200D01*
X3403600Y5829300D01*
Y5575300D02*
X3429000Y5600700D01*
X3454400D01*
X3429000Y5626100D01*
X3454400Y5651500D01*
X3429000D01*
X3403600Y5676900D01*
X3378200Y5651500D01*
X3352800D01*
X3378200Y5626100D01*
X3352800Y5600700D01*
X3378200D01*
X3403600Y5575300D01*
Y5321300D02*
X3429000Y5346700D01*
X3454400D01*
X3429000Y5372100D01*
X3454400Y5397500D01*
X3429000D01*
X3403600Y5422900D01*
X3378200Y5397500D01*
X3352800D01*
X3378200Y5372100D01*
X3352800Y5346700D01*
X3378200D01*
X3403600Y5321300D01*
Y5067300D02*
X3429000Y5092700D01*
X3454400D01*
X3429000Y5118100D01*
X3454400Y5143500D01*
X3429000D01*
X3403600Y5168900D01*
X3378200Y5143500D01*
X3352800D01*
X3378200Y5118100D01*
X3352800Y5092700D01*
X3378200D01*
X3403600Y5067300D01*
X3276600Y3162300D02*
X3302000Y3213100D01*
X3276600Y3263900D01*
X3327400Y3238500D01*
X3378200Y3263900D01*
X3352800Y3213100D01*
X3378200Y3162300D01*
X3327400Y3187700D01*
X3276600Y3162300D01*
X3626600D02*
X3652000Y3213100D01*
X3626600Y3263900D01*
X3677400Y3238500D01*
X3728200Y3263900D01*
X3702800Y3213100D01*
X3728200Y3162300D01*
X3677400Y3187700D01*
X3626600Y3162300D01*
X7743700Y4038600D02*
X7769100Y4064000D01*
X7794500D01*
X7769100Y4089400D01*
X7794500Y4114800D01*
X7769100D01*
X7743700Y4140200D01*
X7718300Y4114800D01*
X7692900D01*
X7718300Y4089400D01*
X7692900Y4064000D01*
X7718300D01*
X7743700Y4038600D01*
Y4292600D02*
X7769100Y4318000D01*
X7794500D01*
X7769100Y4343400D01*
X7794500Y4368800D01*
X7769100D01*
X7743700Y4394200D01*
X7718300Y4368800D01*
X7692900D01*
X7718300Y4343400D01*
X7692900Y4318000D01*
X7718300D01*
X7743700Y4292600D01*
Y4546600D02*
X7769100Y4572000D01*
X7794500D01*
X7769100Y4597400D01*
X7794500Y4622800D01*
X7769100D01*
X7743700Y4648200D01*
X7718300Y4622800D01*
X7692900D01*
X7718300Y4597400D01*
X7692900Y4572000D01*
X7718300D01*
X7743700Y4546600D01*
Y4800600D02*
X7769100Y4826000D01*
X7794500D01*
X7769100Y4851400D01*
X7794500Y4876800D01*
X7769100D01*
X7743700Y4902200D01*
X7718300Y4876800D01*
X7692900D01*
X7718300Y4851400D01*
X7692900Y4826000D01*
X7718300D01*
X7743700Y4800600D01*
Y5054600D02*
X7769100Y5080000D01*
X7794500D01*
X7769100Y5105400D01*
X7794500Y5130800D01*
X7769100D01*
X7743700Y5156200D01*
X7718300Y5130800D01*
X7692900D01*
X7718300Y5105400D01*
X7692900Y5080000D01*
X7718300D01*
X7743700Y5054600D01*
X5689600Y4191000D02*
X5715000Y4216400D01*
X5740400D01*
X5715000Y4241800D01*
X5740400Y4267200D01*
X5715000D01*
X5689600Y4292600D01*
X5664200Y4267200D01*
X5638800D01*
X5664200Y4241800D01*
X5638800Y4216400D01*
X5664200D01*
X5689600Y4191000D01*
X5435600D02*
X5461000Y4216400D01*
X5486400D01*
X5461000Y4241800D01*
X5486400Y4267200D01*
X5461000D01*
X5435600Y4292600D01*
X5410200Y4267200D01*
X5384800D01*
X5410200Y4241800D01*
X5384800Y4216400D01*
X5410200D01*
X5435600Y4191000D01*
X5181600D02*
X5207000Y4216400D01*
X5232400D01*
X5207000Y4241800D01*
X5232400Y4267200D01*
X5207000D01*
X5181600Y4292600D01*
X5156200Y4267200D01*
X5130800D01*
X5156200Y4241800D01*
X5130800Y4216400D01*
X5156200D01*
X5181600Y4191000D01*
X4927600D02*
X4953000Y4216400D01*
X4978400D01*
X4953000Y4241800D01*
X4978400Y4267200D01*
X4953000D01*
X4927600Y4292600D01*
X4902200Y4267200D01*
X4876800D01*
X4902200Y4241800D01*
X4876800Y4216400D01*
X4902200D01*
X4927600Y4191000D01*
X4673600D02*
X4699000Y4216400D01*
X4724400D01*
X4699000Y4241800D01*
X4724400Y4267200D01*
X4699000D01*
X4673600Y4292600D01*
X4648200Y4267200D01*
X4622800D01*
X4648200Y4241800D01*
X4622800Y4216400D01*
X4648200D01*
X4673600Y4191000D01*
X4419600D02*
X4445000Y4216400D01*
X4470400D01*
X4445000Y4241800D01*
X4470400Y4267200D01*
X4445000D01*
X4419600Y4292600D01*
X4394200Y4267200D01*
X4368800D01*
X4394200Y4241800D01*
X4368800Y4216400D01*
X4394200D01*
X4419600Y4191000D01*
X3598900Y8058200D02*
Y8159800D01*
X3700500D01*
Y8058200D01*
X3598900D01*
Y8458200D02*
Y8559800D01*
X3700500D01*
Y8458200D01*
X3598900D01*
Y8858200D02*
Y8959800D01*
X3700500D01*
Y8858200D01*
X3598900D01*
X6438900Y8083600D02*
Y8185200D01*
X6540500D01*
Y8083600D01*
X6438900D01*
Y8483600D02*
Y8585200D01*
X6540500D01*
Y8483600D01*
X6438900D01*
Y8858200D02*
Y8959800D01*
X6540500D01*
Y8858200D01*
X6438900D01*
X5295900Y2743200D02*
Y2844800D01*
X5397500D01*
Y2743200D01*
X5295900D01*
X5740400D02*
Y2844800D01*
X5842000D01*
Y2743200D01*
X5740400D01*
X7556500Y4216400D02*
Y4318000D01*
X7658100D01*
Y4216400D01*
X7556500D01*
X7442200Y3848100D02*
Y3949700D01*
X7543800D01*
Y3848100D01*
X7442200D01*
Y4216400D02*
Y4318000D01*
X7543800D01*
Y4216400D01*
X7442200D01*
X6565900Y5499100D02*
Y5600700D01*
X6667500D01*
Y5499100D01*
X6565900D01*
X6845300Y4800600D02*
Y4902200D01*
X6946900D01*
Y4800600D01*
X6845300D01*
X6070600Y5130800D02*
Y5232400D01*
X6172200D01*
Y5130800D01*
X6070600D01*
X6731000Y4699000D02*
Y4800600D01*
X6832600D01*
Y4699000D01*
X6731000D01*
X6032500Y4610100D02*
Y4711700D01*
X6134100D01*
Y4610100D01*
X6032500D01*
X7429500Y5143500D02*
Y5245100D01*
X7531100D01*
Y5143500D01*
X7429500D01*
X7426900Y4955600D02*
Y5057200D01*
X7528500D01*
Y4955600D01*
X7426900D01*
X7048500Y3771900D02*
Y3873500D01*
X7150100D01*
Y3771900D01*
X7048500D01*
X4508500Y2730500D02*
Y2832100D01*
X4610100D01*
Y2730500D01*
X4508500D01*
Y3187700D02*
Y3289300D01*
X4610100D01*
Y3187700D01*
X4508500D01*
X4127500Y2730500D02*
Y2832100D01*
X4229100D01*
Y2730500D01*
X4127500D01*
Y3187700D02*
Y3289300D01*
X4229100D01*
Y3187700D01*
X4127500D01*
X6159500Y5372100D02*
Y5473700D01*
X6261100D01*
Y5372100D01*
X6159500D01*
X5676900Y6642100D02*
Y6743700D01*
X5778500D01*
Y6642100D01*
X5676900D01*
X4343400D02*
Y6743700D01*
X4445000D01*
Y6642100D01*
X4343400D01*
X4445000Y5397500D02*
Y5499100D01*
X4546600D01*
Y5397500D01*
X4445000D01*
X4533900Y5283200D02*
Y5384800D01*
X4635500D01*
Y5283200D01*
X4533900D01*
X6070600Y5994400D02*
Y6096000D01*
X6172200D01*
Y5994400D01*
X6070600D01*
Y5867400D02*
Y5969000D01*
X6172200D01*
Y5867400D01*
X6070600D01*
Y5486400D02*
Y5588000D01*
X6172200D01*
Y5486400D01*
X6070600D01*
D84*
X2895600Y8864600D02*
G03*
X2895600Y8864600I-50800J0D01*
G01*
X8445500D02*
G03*
X8445500Y8864600I-50800J0D01*
G01*
Y2984500D02*
G03*
X8445500Y2984500I-50800J0D01*
G01*
X2895600D02*
G03*
X2895600Y2984500I-50800J0D01*
G01*
%TF.MD5,07da82fc14f272ac6cf6ad517dd76e9b*%
M02*
