%TF.GenerationSoftware,Altium Limited,Altium NEXUS,2.1.6 (59)*%
G04 Layer_Color=255*
%FSLAX45Y45*%
%MOMM*%
%TF.FileFunction,Pads,Bot*%
%TF.Part,Single*%
G01*
G75*
%TA.AperFunction,ViaPad*%
%ADD26C,0.65000*%
%TA.AperFunction,WasherPad*%
%ADD27C,1.52400*%
%TA.AperFunction,ComponentPad*%
%ADD28C,0.90000*%
%ADD29R,1.60000X1.60000*%
%ADD30C,1.60000*%
%ADD31R,1.70000X1.70000*%
%ADD32C,1.70000*%
%ADD33R,1.60000X1.60000*%
D26*
X6985000Y4470400D02*
D03*
X3937000Y8001000D02*
D03*
X6216600Y7988300D02*
D03*
X5816600D02*
D03*
X4330700Y8001000D02*
D03*
X5473700Y8509000D02*
D03*
X5080000D02*
D03*
X4673600D02*
D03*
X5473700Y8909000D02*
D03*
X5080000D02*
D03*
X4673600D02*
D03*
D27*
X2844800Y8864600D02*
D03*
X8394700D02*
D03*
Y2984500D02*
D03*
X2844800D02*
D03*
D28*
X7188200Y3352800D02*
D03*
X6748200D02*
D03*
D29*
X3403600Y4610100D02*
D03*
X7743700Y5613400D02*
D03*
X3403600Y4102100D02*
D03*
Y5118100D02*
D03*
X7743700Y4089400D02*
D03*
D30*
X3403600Y4864100D02*
D03*
X7743700Y5867400D02*
D03*
Y6121400D02*
D03*
Y6375400D02*
D03*
Y6629400D02*
D03*
Y6883400D02*
D03*
X3403600Y3848100D02*
D03*
Y6896100D02*
D03*
Y6642100D02*
D03*
Y6388100D02*
D03*
Y6134100D02*
D03*
Y5880100D02*
D03*
Y5626100D02*
D03*
Y5372100D02*
D03*
X7743700Y4343400D02*
D03*
Y4597400D02*
D03*
Y4851400D02*
D03*
Y5105400D02*
D03*
X5435600Y4241800D02*
D03*
X5181600D02*
D03*
X4927600D02*
D03*
X4673600D02*
D03*
X4419600D02*
D03*
D31*
X3327400Y3213100D02*
D03*
D32*
X3677400D02*
D03*
D33*
X5689600Y4241800D02*
D03*
%TF.MD5,8bb2941d47b04a7b752aae5f4131e47a*%
M02*
