G04*
G04 #@! TF.GenerationSoftware,Altium Limited,Altium NEXUS,2.1.8 (74)*
G04*
G04 Layer_Color=8421504*
%FSLAX25Y25*%
%MOIN*%
G70*
G01*
G75*
%ADD20R,0.03543X0.02362*%
%ADD21R,0.04134X0.05118*%
G04:AMPARAMS|DCode=22|XSize=51.18mil|YSize=41.34mil|CornerRadius=0mil|HoleSize=0mil|Usage=FLASHONLY|Rotation=270.000|XOffset=0mil|YOffset=0mil|HoleType=Round|Shape=Octagon|*
%AMOCTAGOND22*
4,1,8,-0.01034,-0.02559,0.01034,-0.02559,0.02067,-0.01526,0.02067,0.01526,0.01034,0.02559,-0.01034,0.02559,-0.02067,0.01526,-0.02067,-0.01526,-0.01034,-0.02559,0.0*
%
%ADD22OCTAGOND22*%

%ADD23R,0.06339X0.02402*%
%ADD24R,0.03543X0.03150*%
%ADD25R,0.03543X0.03347*%
%ADD26R,0.27953X0.09843*%
%ADD27R,0.11417X0.11417*%
%ADD28R,0.00787X0.03543*%
%ADD29R,0.07480X0.04724*%
%ADD30R,0.05362X0.00549*%
%ADD31R,0.00549X0.05362*%
%ADD32R,0.11024X0.07480*%
%ADD33R,0.07087X0.07087*%
%ADD34R,0.03543X0.05118*%
%ADD35R,0.03543X0.03543*%
%ADD36R,0.03150X0.02756*%
%ADD37R,0.03937X0.04409*%
%ADD38R,0.10433X0.03543*%
%ADD39R,0.01181X0.03347*%
%ADD40R,0.05315X0.03740*%
%ADD41R,0.05394X0.04055*%
%ADD42R,0.00976X0.05106*%
%ADD43R,0.06929X0.03150*%
%ADD44R,0.06929X0.12165*%
%ADD45R,0.05748X0.00709*%
%ADD46R,0.00709X0.05748*%
%ADD47R,0.07480X0.09449*%
%ADD48R,0.01575X0.09449*%
%ADD49R,0.03543X0.03937*%
%ADD50R,0.03543X0.03543*%
%ADD51R,0.05118X0.03543*%
%ADD52R,0.03347X0.03543*%
%ADD53R,0.02756X0.03150*%
%ADD54R,0.03150X0.03543*%
%ADD55R,0.05118X0.04134*%
G04:AMPARAMS|DCode=56|XSize=51.18mil|YSize=41.34mil|CornerRadius=0mil|HoleSize=0mil|Usage=FLASHONLY|Rotation=0.000|XOffset=0mil|YOffset=0mil|HoleType=Round|Shape=Octagon|*
%AMOCTAGOND56*
4,1,8,0.02559,-0.01034,0.02559,0.01034,0.01526,0.02067,-0.01526,0.02067,-0.02559,0.01034,-0.02559,-0.01034,-0.01526,-0.02067,0.01526,-0.02067,0.02559,-0.01034,0.0*
%
%ADD56OCTAGOND56*%

D20*
X427756Y252067D02*
D03*
Y255807D02*
D03*
Y259547D02*
D03*
X417520D02*
D03*
Y252067D02*
D03*
D21*
X316083Y145890D02*
D03*
X309784Y137228D02*
D03*
Y145890D02*
D03*
D22*
X316083Y137228D02*
D03*
D23*
X289784Y240650D02*
D03*
Y232579D02*
D03*
X297618Y236614D02*
D03*
D24*
X142244Y216831D02*
D03*
Y223524D02*
D03*
X476396Y29805D02*
D03*
Y23112D02*
D03*
X468203Y23112D02*
D03*
Y29805D02*
D03*
X381496Y37598D02*
D03*
Y44291D02*
D03*
X388095Y44188D02*
D03*
Y37495D02*
D03*
X410755Y36630D02*
D03*
Y29937D02*
D03*
X401135Y94347D02*
D03*
Y101040D02*
D03*
X412715Y94347D02*
D03*
Y101040D02*
D03*
X391587Y109032D02*
D03*
Y115725D02*
D03*
X401135Y109111D02*
D03*
Y115804D02*
D03*
X412503Y109095D02*
D03*
Y115787D02*
D03*
X315354Y251003D02*
D03*
Y244310D02*
D03*
X200990Y250915D02*
D03*
Y244222D02*
D03*
X209364Y250915D02*
D03*
Y244222D02*
D03*
X182884Y169295D02*
D03*
Y175988D02*
D03*
X193223Y169295D02*
D03*
Y175988D02*
D03*
X299646Y127747D02*
D03*
Y121055D02*
D03*
X302598Y139197D02*
D03*
Y145890D02*
D03*
X81890Y62008D02*
D03*
Y55315D02*
D03*
X112244Y216831D02*
D03*
Y223524D02*
D03*
X102244Y216831D02*
D03*
Y223524D02*
D03*
X82677Y216831D02*
D03*
Y223524D02*
D03*
X224016Y106527D02*
D03*
Y99834D02*
D03*
X72441Y216831D02*
D03*
Y223524D02*
D03*
X132244Y223524D02*
D03*
Y216831D02*
D03*
X62598Y216831D02*
D03*
Y223524D02*
D03*
D25*
X485039Y226378D02*
D03*
Y220079D02*
D03*
X478543Y226378D02*
D03*
Y220079D02*
D03*
X465354Y226378D02*
D03*
Y220079D02*
D03*
X472047Y226378D02*
D03*
Y220079D02*
D03*
X525000Y226342D02*
D03*
Y220042D02*
D03*
X509252Y226342D02*
D03*
Y220042D02*
D03*
D26*
X314655Y193504D02*
D03*
Y175394D02*
D03*
D27*
X110512Y11417D02*
D03*
X94764D02*
D03*
X66142D02*
D03*
X50394D02*
D03*
D28*
X470472Y240631D02*
D03*
X472441D02*
D03*
X474409D02*
D03*
X476378D02*
D03*
X478346D02*
D03*
X480315D02*
D03*
X482283D02*
D03*
X484252D02*
D03*
X486221D02*
D03*
X488189D02*
D03*
X490158D02*
D03*
X492126D02*
D03*
X494095D02*
D03*
X496063D02*
D03*
X498032D02*
D03*
X500000D02*
D03*
X501968D02*
D03*
X503937D02*
D03*
X505905D02*
D03*
X507874D02*
D03*
X509842D02*
D03*
X511811D02*
D03*
X513779D02*
D03*
X515748D02*
D03*
X517717D02*
D03*
X519685D02*
D03*
X521654D02*
D03*
X523622D02*
D03*
X525591D02*
D03*
X527559D02*
D03*
D29*
X536614Y251261D02*
D03*
X461417D02*
D03*
D30*
X391202Y73992D02*
D03*
Y72024D02*
D03*
Y70055D02*
D03*
Y68087D02*
D03*
Y66118D02*
D03*
Y64150D02*
D03*
Y62181D02*
D03*
Y60213D02*
D03*
Y58244D02*
D03*
Y56276D02*
D03*
Y54307D02*
D03*
Y52339D02*
D03*
X424402D02*
D03*
Y54307D02*
D03*
Y56276D02*
D03*
Y58244D02*
D03*
Y60213D02*
D03*
Y62181D02*
D03*
Y64150D02*
D03*
Y66118D02*
D03*
Y68087D02*
D03*
Y70055D02*
D03*
Y72024D02*
D03*
Y73992D02*
D03*
D31*
X396975Y46566D02*
D03*
X398944D02*
D03*
X400912D02*
D03*
X402881D02*
D03*
X404849D02*
D03*
X406818D02*
D03*
X408786D02*
D03*
X410755D02*
D03*
X412723D02*
D03*
X414692D02*
D03*
X416660D02*
D03*
X418629D02*
D03*
Y79766D02*
D03*
X416660D02*
D03*
X414692D02*
D03*
X412723D02*
D03*
X410755D02*
D03*
X408786D02*
D03*
X406818D02*
D03*
X404849D02*
D03*
X402881D02*
D03*
X400912D02*
D03*
X398944D02*
D03*
X396975D02*
D03*
D32*
X49764Y44882D02*
D03*
Y25591D02*
D03*
X100000Y44882D02*
D03*
Y25591D02*
D03*
D33*
X40748Y35236D02*
D03*
X109016D02*
D03*
D34*
X346094Y193504D02*
D03*
X338221D02*
D03*
D35*
X303937Y166559D02*
D03*
X310236D02*
D03*
X358933Y84782D02*
D03*
X352634D02*
D03*
X494095Y41732D02*
D03*
X500394D02*
D03*
X367820Y53874D02*
D03*
X374119D02*
D03*
X280394Y182897D02*
D03*
X274095D02*
D03*
X272441Y99630D02*
D03*
X278740D02*
D03*
X235433Y180512D02*
D03*
X229134D02*
D03*
X310354Y153982D02*
D03*
X316654D02*
D03*
X310236Y159937D02*
D03*
X303937D02*
D03*
D36*
X203357Y228740D02*
D03*
Y234252D02*
D03*
D37*
X423701Y243996D02*
D03*
X410827D02*
D03*
D38*
X321299Y111094D02*
D03*
X299646D02*
D03*
Y95346D02*
D03*
X321299D02*
D03*
D39*
X493504Y218960D02*
D03*
Y227424D02*
D03*
X501378Y227424D02*
D03*
Y218960D02*
D03*
D40*
X517126Y226834D02*
D03*
Y219550D02*
D03*
D41*
X406890Y259311D02*
D03*
Y252303D02*
D03*
D42*
X182884Y212002D02*
D03*
X185443D02*
D03*
X188002D02*
D03*
X190561D02*
D03*
X193120D02*
D03*
X195679D02*
D03*
X198238D02*
D03*
X203357D02*
D03*
X200797D02*
D03*
X205915D02*
D03*
X208475D02*
D03*
X211034D02*
D03*
X213593D02*
D03*
X216152D02*
D03*
X182884Y183215D02*
D03*
X185443D02*
D03*
X188002D02*
D03*
X190561D02*
D03*
X193120D02*
D03*
X195679D02*
D03*
X198238D02*
D03*
X200797D02*
D03*
X203357D02*
D03*
X205915D02*
D03*
X208475D02*
D03*
X211034D02*
D03*
X213593D02*
D03*
X216152D02*
D03*
D43*
X47382Y73976D02*
D03*
Y64921D02*
D03*
Y55866D02*
D03*
D44*
X71595Y64921D02*
D03*
D45*
X285000Y115968D02*
D03*
Y117937D02*
D03*
Y119905D02*
D03*
Y121874D02*
D03*
Y123842D02*
D03*
Y125811D02*
D03*
Y127779D02*
D03*
Y129748D02*
D03*
Y131716D02*
D03*
Y133685D02*
D03*
Y135653D02*
D03*
Y137622D02*
D03*
Y139590D02*
D03*
Y141559D02*
D03*
Y143527D02*
D03*
Y145496D02*
D03*
Y147464D02*
D03*
Y149433D02*
D03*
Y151401D02*
D03*
Y153370D02*
D03*
Y155338D02*
D03*
Y157307D02*
D03*
Y159275D02*
D03*
Y161244D02*
D03*
Y163212D02*
D03*
X224528D02*
D03*
Y161244D02*
D03*
Y159275D02*
D03*
Y157307D02*
D03*
Y155338D02*
D03*
Y153370D02*
D03*
Y151401D02*
D03*
Y149433D02*
D03*
Y147464D02*
D03*
Y145496D02*
D03*
Y143527D02*
D03*
Y141559D02*
D03*
Y139590D02*
D03*
Y137622D02*
D03*
Y135653D02*
D03*
Y133685D02*
D03*
Y131716D02*
D03*
Y129748D02*
D03*
Y127779D02*
D03*
Y125811D02*
D03*
Y123842D02*
D03*
Y121874D02*
D03*
Y119905D02*
D03*
Y117937D02*
D03*
Y115968D02*
D03*
D46*
X278386Y169827D02*
D03*
X276417D02*
D03*
X274449D02*
D03*
X272480D02*
D03*
X270512D02*
D03*
X268543D02*
D03*
X266575D02*
D03*
X264606D02*
D03*
X262638D02*
D03*
X260669D02*
D03*
X258701D02*
D03*
X256732D02*
D03*
X254764D02*
D03*
X252795D02*
D03*
X250827D02*
D03*
X248858D02*
D03*
X246890D02*
D03*
X244921D02*
D03*
X242953D02*
D03*
X240984D02*
D03*
X239016D02*
D03*
X237047D02*
D03*
X235079D02*
D03*
X233110D02*
D03*
X231142D02*
D03*
Y109354D02*
D03*
X233110D02*
D03*
X235079D02*
D03*
X237047D02*
D03*
X239016D02*
D03*
X240984D02*
D03*
X242953D02*
D03*
X244921D02*
D03*
X246890D02*
D03*
X248858D02*
D03*
X250827D02*
D03*
X252795D02*
D03*
X254764D02*
D03*
X256732D02*
D03*
X258701D02*
D03*
X260669D02*
D03*
X262638D02*
D03*
X264606D02*
D03*
X266575D02*
D03*
X268543D02*
D03*
X270512D02*
D03*
X272480D02*
D03*
X274449D02*
D03*
X276417D02*
D03*
X278386D02*
D03*
D47*
X232361Y266181D02*
D03*
X267479D02*
D03*
X232361Y244606D02*
D03*
X267479D02*
D03*
X526614Y9528D02*
D03*
X491496D02*
D03*
X526614Y31102D02*
D03*
X491496D02*
D03*
D48*
X243621Y244606D02*
D03*
X246771D02*
D03*
X249920D02*
D03*
X253070D02*
D03*
X256220D02*
D03*
X515354Y31102D02*
D03*
X512205D02*
D03*
X509055D02*
D03*
X505905D02*
D03*
X502756D02*
D03*
D49*
X94764Y55315D02*
D03*
Y62008D02*
D03*
X476396Y14057D02*
D03*
Y7364D02*
D03*
X468203Y14057D02*
D03*
Y7364D02*
D03*
X315354Y259906D02*
D03*
Y266599D02*
D03*
X200990Y259970D02*
D03*
Y266663D02*
D03*
X209364Y259970D02*
D03*
Y266663D02*
D03*
D50*
X369292Y76702D02*
D03*
Y70402D02*
D03*
X324262Y139236D02*
D03*
Y145535D02*
D03*
X321195Y126949D02*
D03*
Y120650D02*
D03*
X309679Y120682D02*
D03*
Y126981D02*
D03*
X203357Y110063D02*
D03*
Y116362D02*
D03*
D51*
X315354Y228523D02*
D03*
Y236397D02*
D03*
X279134Y240565D02*
D03*
Y232691D02*
D03*
X218771Y245032D02*
D03*
Y237158D02*
D03*
D52*
X435236Y253346D02*
D03*
X441535D02*
D03*
X229134Y187343D02*
D03*
X235433D02*
D03*
X441535Y246988D02*
D03*
X435236D02*
D03*
X435236Y259547D02*
D03*
X441535D02*
D03*
D53*
X227786Y215983D02*
D03*
X233298D02*
D03*
D54*
X359130Y61643D02*
D03*
X352437D02*
D03*
X405780Y136180D02*
D03*
X399087D02*
D03*
X367623Y60616D02*
D03*
X374316D02*
D03*
X447254Y52580D02*
D03*
X453947D02*
D03*
X461624D02*
D03*
X468317D02*
D03*
X461624Y62580D02*
D03*
X468317D02*
D03*
X461624Y72580D02*
D03*
X468317D02*
D03*
D55*
X352437Y76603D02*
D03*
X361099Y70304D02*
D03*
X352437D02*
D03*
D56*
X361099Y76603D02*
D03*
M02*
