G04*
G04 #@! TF.GenerationSoftware,Altium Limited,Altium NEXUS,2.1.8 (74)*
G04*
G04 Layer_Color=32896*
%FSLAX25Y25*%
%MOIN*%
G70*
G01*
G75*
%ADD13C,0.00787*%
%ADD16C,0.01000*%
%ADD17C,0.00591*%
D13*
X326158Y203303D02*
X346158D01*
Y213303D01*
X326158D02*
X346158D01*
X326158Y203303D02*
Y213303D01*
X246159Y213302D02*
X326159D01*
Y203302D02*
Y213302D01*
X246159Y203302D02*
X326159D01*
X246159D02*
Y213302D01*
X356159Y203302D02*
Y213302D01*
X356159Y203302D02*
Y213302D01*
X376159D01*
Y203302D02*
Y213302D01*
X356159Y203302D02*
X376159D01*
X316659Y32302D02*
Y42302D01*
Y32302D02*
X366659D01*
X316659Y42302D02*
X366659D01*
Y32302D02*
Y42302D01*
X246659Y32302D02*
Y42302D01*
X306659Y32302D02*
Y42302D01*
X246659D02*
X306659D01*
X246659Y32302D02*
X306659D01*
D16*
X135614Y8085D02*
Y4150D01*
X133646D01*
X132990Y4806D01*
Y5461D01*
X133646Y6117D01*
X135614D01*
X133646D01*
X132990Y6773D01*
Y7429D01*
X133646Y8085D01*
X135614D01*
X131023Y4150D02*
X129711D01*
X129055Y4806D01*
Y6117D01*
X129711Y6773D01*
X131023D01*
X131678Y6117D01*
Y4806D01*
X131023Y4150D01*
X127087Y7429D02*
Y6773D01*
X127743D01*
X126431D01*
X127087D01*
Y4806D01*
X126431Y4150D01*
D17*
X159090Y122186D02*
X157253Y120349D01*
X159090D02*
X157253Y122186D01*
X159090Y121267D02*
X157253D01*
X158171Y120349D02*
Y122186D01*
M02*
