G04*
G04 #@! TF.GenerationSoftware,Altium Limited,Altium NEXUS,2.1.8 (74)*
G04*
G04 Layer_Color=16711935*
%FSLAX25Y25*%
%MOIN*%
G70*
G01*
G75*
%ADD93R,0.07099X0.07099*%
%ADD94C,0.07099*%
%ADD95C,0.06800*%
%ADD96C,0.16548*%
%ADD97R,0.07296X0.07296*%
%ADD98C,0.07296*%
%ADD99R,0.07099X0.07099*%
%ADD100C,0.04343*%
%ADD101C,0.20485*%
G36*
X61546Y74369D02*
X57546D01*
Y73568D01*
Y72768D01*
X58346D01*
Y71969D01*
X59146D01*
Y71169D01*
X59946D01*
Y70368D01*
Y69569D01*
X60746D01*
Y68769D01*
X55146D01*
Y69569D01*
X58346D01*
Y70368D01*
Y71169D01*
X57546D01*
Y71969D01*
X56746D01*
Y72768D01*
Y73568D01*
X55946D01*
Y74369D01*
X55146D01*
Y75169D01*
X61546D01*
Y74369D01*
D02*
G37*
G36*
X71946Y70368D02*
Y69569D01*
X67146D01*
Y68769D01*
Y67968D01*
X68746D01*
Y67168D01*
Y66369D01*
X69546D01*
Y65569D01*
X70346D01*
Y64768D01*
X71146D01*
Y63968D01*
Y63169D01*
X63946D01*
Y63968D01*
Y64768D01*
X67946D01*
Y65569D01*
Y66369D01*
X67146D01*
Y67168D01*
X66346D01*
Y67968D01*
Y68769D01*
X65546D01*
Y69569D01*
X64746D01*
Y70368D01*
X63946D01*
Y71169D01*
X71946D01*
Y70368D01*
D02*
G37*
G36*
X84746Y67168D02*
Y66369D01*
X79146D01*
Y65569D01*
Y64768D01*
X79946D01*
Y63968D01*
X80746D01*
Y63169D01*
Y62369D01*
X81546D01*
Y61568D01*
X82346D01*
Y60769D01*
X83146D01*
Y59969D01*
X83946D01*
Y59168D01*
X84746D01*
Y58368D01*
X74346D01*
Y59168D01*
Y59969D01*
X79146D01*
Y60769D01*
Y61568D01*
X78346D01*
Y62369D01*
Y63169D01*
X77546D01*
Y63968D01*
X76746D01*
Y64768D01*
X75946D01*
Y65569D01*
Y66369D01*
X75146D01*
Y67168D01*
X74346D01*
Y67968D01*
X84746D01*
Y67168D01*
D02*
G37*
G36*
X99946Y59168D02*
Y58368D01*
Y57569D01*
Y56769D01*
Y55968D01*
Y55168D01*
Y54369D01*
Y53569D01*
Y52768D01*
Y51968D01*
Y51169D01*
Y50368D01*
Y49569D01*
Y48768D01*
Y47969D01*
Y47168D01*
Y46369D01*
Y45568D01*
Y44769D01*
Y43968D01*
Y43169D01*
Y42369D01*
Y41568D01*
Y40769D01*
Y39968D01*
Y39169D01*
Y38368D01*
Y37569D01*
X98346D01*
Y36768D01*
Y35969D01*
Y35168D01*
Y34369D01*
Y33569D01*
Y32768D01*
Y31969D01*
Y31168D01*
Y30369D01*
Y29568D01*
Y28769D01*
Y27968D01*
X94346D01*
Y28769D01*
Y29568D01*
Y30369D01*
Y31168D01*
Y31969D01*
Y32768D01*
Y33569D01*
Y34369D01*
Y35168D01*
Y35969D01*
Y36768D01*
Y37569D01*
Y38368D01*
X91146D01*
Y37569D01*
X90346D01*
Y36768D01*
X89546D01*
Y35969D01*
X48746D01*
Y36768D01*
X47946D01*
Y35969D01*
Y35168D01*
Y34369D01*
Y33569D01*
Y32768D01*
Y31969D01*
Y31168D01*
Y30369D01*
Y29568D01*
Y28769D01*
Y27968D01*
X43946D01*
Y28769D01*
Y29568D01*
Y30369D01*
Y31168D01*
Y31969D01*
Y32768D01*
Y33569D01*
Y34369D01*
Y35168D01*
Y35969D01*
Y36768D01*
Y37569D01*
Y38368D01*
X43146D01*
Y39169D01*
Y39968D01*
Y40769D01*
Y41568D01*
Y42369D01*
Y43169D01*
Y43968D01*
X42346D01*
Y44769D01*
X46346D01*
Y45568D01*
Y46369D01*
Y47168D01*
Y47969D01*
Y48768D01*
X47146D01*
Y49569D01*
Y50368D01*
X47946D01*
Y51169D01*
X48746D01*
Y51968D01*
X85546D01*
Y52768D01*
X87146D01*
Y53569D01*
Y54369D01*
X87946D01*
Y55168D01*
X88746D01*
Y55968D01*
X92746D01*
Y55168D01*
X93546D01*
Y54369D01*
X94346D01*
Y53569D01*
Y52768D01*
X95146D01*
Y51968D01*
Y51169D01*
X94346D01*
Y50368D01*
Y49569D01*
X97546D01*
Y50368D01*
Y51169D01*
Y51968D01*
Y52768D01*
Y53569D01*
Y54369D01*
Y55168D01*
Y55968D01*
Y56769D01*
Y57569D01*
Y58368D01*
Y59168D01*
Y59969D01*
X99946D01*
Y59168D01*
D02*
G37*
D93*
X341159Y208302D02*
D03*
X321159D02*
D03*
X371159D02*
D03*
X361659Y37436D02*
D03*
X301659Y37302D02*
D03*
X465475Y84775D02*
D03*
X381739Y126985D02*
D03*
D94*
X331158Y208303D02*
D03*
X251159Y208302D02*
D03*
X261159D02*
D03*
X271159D02*
D03*
X281159D02*
D03*
X291159D02*
D03*
X301159D02*
D03*
X311159D02*
D03*
X361159D02*
D03*
X351659Y37436D02*
D03*
X341659D02*
D03*
X331659D02*
D03*
X321659D02*
D03*
X291659Y37302D02*
D03*
X281659D02*
D03*
X271659D02*
D03*
X261659D02*
D03*
X251659D02*
D03*
X482605Y82580D02*
D03*
Y72580D02*
D03*
Y62580D02*
D03*
Y52580D02*
D03*
X455475Y84775D02*
D03*
X445474D02*
D03*
X435474D02*
D03*
X421739Y126985D02*
D03*
X411739D02*
D03*
X401739D02*
D03*
X391739D02*
D03*
D95*
X405159Y230802D02*
D03*
Y11802D02*
D03*
X173659D02*
D03*
Y230802D02*
D03*
X450866Y181102D02*
D03*
Y171102D02*
D03*
Y161102D02*
D03*
Y151102D02*
D03*
Y141102D02*
D03*
X139685Y126000D02*
D03*
Y136000D02*
D03*
Y146000D02*
D03*
Y156000D02*
D03*
Y166000D02*
D03*
D96*
X456693Y110236D02*
D03*
Y196850D02*
D03*
X557087D02*
D03*
Y110236D02*
D03*
X133858Y196866D02*
D03*
Y110252D02*
D03*
X33465D02*
D03*
Y196866D02*
D03*
D97*
X52244Y242874D02*
D03*
D98*
Y252874D02*
D03*
X62244Y242874D02*
D03*
Y252874D02*
D03*
X72244Y242874D02*
D03*
Y252874D02*
D03*
X82244Y242874D02*
D03*
Y252874D02*
D03*
X92244Y242874D02*
D03*
Y252874D02*
D03*
X102244Y242874D02*
D03*
Y252874D02*
D03*
X112244Y242874D02*
D03*
Y252874D02*
D03*
X122244Y242874D02*
D03*
Y252874D02*
D03*
X132244Y242874D02*
D03*
Y252874D02*
D03*
X142244Y242874D02*
D03*
Y252874D02*
D03*
D99*
X482605Y42580D02*
D03*
D100*
X241259Y254488D02*
D03*
X258582D02*
D03*
X517717Y21220D02*
D03*
X500394D02*
D03*
X430884Y25679D02*
D03*
X380315Y91902D02*
D03*
X335827Y88110D02*
D03*
D101*
X295276Y255906D02*
D03*
Y19685D02*
D03*
X570866Y255906D02*
D03*
Y19685D02*
D03*
X19685D02*
D03*
Y255906D02*
D03*
M02*
