G04*
G04 #@! TF.GenerationSoftware,Altium Limited,Altium NEXUS,2.1.8 (74)*
G04*
G04 Layer_Color=32896*
%FSLAX25Y25*%
%MOIN*%
G70*
G01*
G75*
%ADD10C,0.00787*%
%ADD11C,0.00984*%
%ADD140C,0.00591*%
%ADD141R,0.16142X0.07480*%
D10*
X527500Y212890D02*
Y249110D01*
X397500Y212890D02*
Y249110D01*
X527500D01*
X397500Y212890D02*
X527500D01*
D11*
X417992Y251669D02*
X417254Y252096D01*
Y251243D01*
X417992Y251669D01*
D140*
X412776Y228953D02*
X408840D01*
X412776Y225017D01*
Y224033D01*
X411792Y223049D01*
X409824D01*
X408840Y224033D01*
X410808Y238953D02*
X412776D01*
X411792D01*
Y233049D01*
X410808Y234033D01*
X516160Y228953D02*
X512224D01*
X516160Y225017D01*
Y224033D01*
X515176Y223049D01*
X513208D01*
X512224Y224033D01*
X518128D02*
X519112Y223049D01*
X521080D01*
X522064Y224033D01*
Y227969D01*
X521080Y228953D01*
X519112D01*
X518128Y227969D01*
Y224033D01*
X512224Y238953D02*
X514192D01*
X513208D01*
Y233049D01*
X512224Y234033D01*
X517144Y237969D02*
X518128Y238953D01*
X520096D01*
X521080Y237969D01*
Y234033D01*
X520096Y233049D01*
X518128D01*
X517144Y234033D01*
Y235017D01*
X518128Y236001D01*
X521080D01*
D141*
X462499Y245370D02*
D03*
M02*
