G04*
G04 #@! TF.GenerationSoftware,Altium Limited,Altium NEXUS,2.1.8 (74)*
G04*
G04 Layer_Color=32896*
%FSLAX25Y25*%
%MOIN*%
G70*
G01*
G75*
%ADD13C,0.00787*%
%ADD15C,0.00630*%
%ADD18C,0.00500*%
%ADD150C,0.00400*%
%ADD151C,0.00781*%
G36*
X211254Y264648D02*
X207507D01*
Y266629D01*
X211254D01*
Y264648D01*
D02*
G37*
G36*
X202880D02*
X199133D01*
Y266629D01*
X202880D01*
Y264648D01*
D02*
G37*
G36*
X317245Y264584D02*
X313498D01*
Y266565D01*
X317245D01*
Y264584D01*
D02*
G37*
G36*
X211254Y260048D02*
X207510D01*
Y262014D01*
X211254D01*
Y260048D01*
D02*
G37*
G36*
X202880D02*
X199136D01*
Y262014D01*
X202880D01*
Y260048D01*
D02*
G37*
G36*
X317245Y259984D02*
X313500D01*
Y261950D01*
X317245D01*
Y259984D01*
D02*
G37*
G36*
X211673Y209324D02*
X210432D01*
Y212963D01*
X211673D01*
Y209324D01*
D02*
G37*
G36*
X203996Y209319D02*
X202726D01*
Y212963D01*
X203996D01*
Y209319D01*
D02*
G37*
G36*
X206555Y209316D02*
X205292D01*
Y212963D01*
X206555D01*
Y209316D01*
D02*
G37*
G36*
X193760Y209315D02*
X192462D01*
Y212963D01*
X193760D01*
Y209315D01*
D02*
G37*
G36*
X209114Y209313D02*
X207855D01*
Y212963D01*
X209114D01*
Y209313D01*
D02*
G37*
G36*
X201437Y209307D02*
X200159D01*
Y212963D01*
X201437D01*
Y209307D01*
D02*
G37*
G36*
X183524Y209306D02*
X182211D01*
Y212963D01*
X183524D01*
Y209306D01*
D02*
G37*
G36*
X186083Y209303D02*
X184779D01*
Y212963D01*
X186083D01*
Y209303D01*
D02*
G37*
G36*
X191201Y209303D02*
X189906D01*
Y212963D01*
X191201D01*
Y209303D01*
D02*
G37*
G36*
X216792Y209303D02*
X215538D01*
Y212963D01*
X216792D01*
Y209303D01*
D02*
G37*
G36*
X214232Y209302D02*
X212973D01*
Y212963D01*
X214232D01*
Y209302D01*
D02*
G37*
G36*
X198878Y209301D02*
X197596D01*
Y212963D01*
X198878D01*
Y209301D01*
D02*
G37*
G36*
X188642Y209299D02*
X187346D01*
Y212963D01*
X188642D01*
Y209299D01*
D02*
G37*
G36*
X196319Y209291D02*
X195037D01*
Y212963D01*
X196319D01*
Y209291D01*
D02*
G37*
G36*
X191201Y182249D02*
X189918D01*
Y185933D01*
X191201D01*
Y182249D01*
D02*
G37*
G36*
X196319Y182247D02*
X195037D01*
Y185933D01*
X196319D01*
Y182247D01*
D02*
G37*
G36*
X216792Y182243D02*
X215524D01*
Y185933D01*
X216792D01*
Y182243D01*
D02*
G37*
G36*
X188642Y182237D02*
X187349D01*
Y185933D01*
X188642D01*
Y182237D01*
D02*
G37*
G36*
X193760Y182234D02*
X192472D01*
Y185933D01*
X193760D01*
Y182234D01*
D02*
G37*
G36*
X183524Y182233D02*
X182221D01*
Y185933D01*
X183524D01*
Y182233D01*
D02*
G37*
G36*
X201437Y182233D02*
X200159D01*
Y185933D01*
X201437D01*
Y182233D01*
D02*
G37*
G36*
X203996Y182231D02*
X202722D01*
Y185933D01*
X203996D01*
Y182231D01*
D02*
G37*
G36*
X209114Y182225D02*
X207851D01*
Y185933D01*
X209114D01*
Y182225D01*
D02*
G37*
G36*
X186083Y182223D02*
X184774D01*
Y185933D01*
X186083D01*
Y182223D01*
D02*
G37*
G36*
X206555Y182220D02*
X205289D01*
Y185933D01*
X206555D01*
Y182220D01*
D02*
G37*
G36*
X214232Y182219D02*
X212984D01*
Y185933D01*
X214232D01*
Y182219D01*
D02*
G37*
G36*
X198878Y182219D02*
X197594D01*
Y185933D01*
X198878D01*
Y182219D01*
D02*
G37*
G36*
X211673Y182212D02*
X210424D01*
Y185933D01*
X211673D01*
Y182212D01*
D02*
G37*
G36*
X96654Y59992D02*
X92907D01*
Y61974D01*
X96654D01*
Y59992D01*
D02*
G37*
G36*
Y55392D02*
X92909D01*
Y57358D01*
X96654D01*
Y55392D01*
D02*
G37*
G36*
X478251Y12014D02*
X474506D01*
Y13980D01*
X478251D01*
Y12014D01*
D02*
G37*
G36*
X470057D02*
X466313D01*
Y13980D01*
X470057D01*
Y12014D01*
D02*
G37*
G36*
X478253Y7399D02*
X474506D01*
Y9380D01*
X478253D01*
Y7399D01*
D02*
G37*
G36*
X470060D02*
X466313D01*
Y9380D01*
X470060D01*
Y7399D01*
D02*
G37*
D13*
X54854Y74476D02*
X54067D01*
X54854D01*
X54067D01*
X54854D01*
D15*
X256534Y244016D02*
X255905D01*
X256534D01*
X255905D01*
X256534D01*
X503071Y31693D02*
X502441D01*
X503071D01*
X502441D01*
X503071D01*
D18*
X52205Y51732D02*
Y78110D01*
X66772D01*
Y51732D02*
Y78110D01*
X52205Y51732D02*
X66772D01*
X52205D02*
Y78110D01*
X66772D01*
Y51732D02*
Y78110D01*
X52205Y51732D02*
X66772D01*
X226811Y111638D02*
X282716D01*
X226811D02*
Y167543D01*
X282716D01*
Y111638D02*
Y167543D01*
X226811Y111638D02*
X282716D01*
X226811D02*
Y167543D01*
X282716D01*
Y111638D02*
Y167543D01*
X265117Y241653D02*
Y277874D01*
X234723D02*
X265117D01*
X234723Y275512D02*
Y277874D01*
Y241653D02*
Y275512D01*
Y241653D02*
X265117D01*
X234566Y275512D02*
X264093D01*
X265117Y241653D02*
Y277874D01*
X234723D02*
X265117D01*
X234723Y275512D02*
Y277874D01*
Y241653D02*
Y275512D01*
Y241653D02*
X265117D01*
X493858Y-2165D02*
Y34055D01*
Y-2165D02*
X524252D01*
Y197D01*
Y34055D01*
X493858D02*
X524252D01*
X494882Y197D02*
X524409D01*
X493858Y-2165D02*
Y34055D01*
Y-2165D02*
X524252D01*
Y197D01*
Y34055D01*
X493858D02*
X524252D01*
D150*
X93114Y57260D02*
Y60063D01*
X96465Y57260D02*
Y60063D01*
X93114Y57260D02*
Y60063D01*
X96465Y57260D02*
Y60063D01*
X478046Y9309D02*
Y12112D01*
X474695Y9309D02*
Y12112D01*
X478046Y9309D02*
Y12112D01*
X474695Y9309D02*
Y12112D01*
X469852Y9309D02*
Y12112D01*
X466502Y9309D02*
Y12112D01*
X469852Y9309D02*
Y12112D01*
X466502Y9309D02*
Y12112D01*
X313705Y261851D02*
Y264654D01*
X317055Y261851D02*
Y264654D01*
X313705Y261851D02*
Y264654D01*
X317055Y261851D02*
Y264654D01*
X199340Y261915D02*
Y264718D01*
X202691Y261915D02*
Y264718D01*
X199340Y261915D02*
Y264718D01*
X202691Y261915D02*
Y264718D01*
X207714Y261915D02*
Y264718D01*
X211065Y261915D02*
Y264718D01*
X207714Y261915D02*
Y264718D01*
X211065Y261915D02*
Y264718D01*
D151*
X495663Y2262D02*
X497350D01*
X497912Y2449D01*
X498100Y2637D01*
X498287Y3012D01*
Y3574D01*
X498100Y3949D01*
X497912Y4136D01*
X497350Y4324D01*
X495663D01*
Y387D01*
X501980Y3387D02*
X501792Y3761D01*
X501417Y4136D01*
X501043Y4324D01*
X500293D01*
X499918Y4136D01*
X499543Y3761D01*
X499356Y3387D01*
X499168Y2824D01*
Y1887D01*
X499356Y1325D01*
X499543Y950D01*
X499918Y575D01*
X500293Y387D01*
X501043D01*
X501417Y575D01*
X501792Y950D01*
X501980Y1325D01*
X503086Y4324D02*
Y387D01*
Y4324D02*
X504773D01*
X505335Y4136D01*
X505522Y3949D01*
X505710Y3574D01*
Y3199D01*
X505522Y2824D01*
X505335Y2637D01*
X504773Y2449D01*
X503086D02*
X504773D01*
X505335Y2262D01*
X505522Y2074D01*
X505710Y1700D01*
Y1137D01*
X505522Y762D01*
X505335Y575D01*
X504773Y387D01*
X503086D01*
X512120Y4324D02*
X509683D01*
Y387D01*
X512120D01*
X509683Y2449D02*
X511183D01*
X512776Y4324D02*
Y387D01*
Y4324D02*
X514088D01*
X514650Y4136D01*
X515025Y3761D01*
X515213Y3387D01*
X515400Y2824D01*
Y1887D01*
X515213Y1325D01*
X515025Y950D01*
X514650Y575D01*
X514088Y387D01*
X512776D01*
X519093Y3387D02*
X518905Y3761D01*
X518530Y4136D01*
X518155Y4324D01*
X517406D01*
X517031Y4136D01*
X516656Y3761D01*
X516468Y3387D01*
X516281Y2824D01*
Y1887D01*
X516468Y1325D01*
X516656Y950D01*
X517031Y575D01*
X517406Y387D01*
X518155D01*
X518530Y575D01*
X518905Y950D01*
X519093Y1325D01*
Y1887D01*
X518155D02*
X519093D01*
X522429Y4324D02*
X519992D01*
Y387D01*
X522429D01*
X519992Y2449D02*
X521492D01*
X263312Y273447D02*
X261625D01*
X261063Y273259D01*
X260876Y273072D01*
X260688Y272697D01*
Y272135D01*
X260876Y271760D01*
X261063Y271572D01*
X261625Y271385D01*
X263312D01*
Y275321D01*
X256996Y272322D02*
X257183Y271947D01*
X257558Y271572D01*
X257933Y271385D01*
X258683D01*
X259057Y271572D01*
X259432Y271947D01*
X259620Y272322D01*
X259807Y272884D01*
Y273822D01*
X259620Y274384D01*
X259432Y274759D01*
X259057Y275134D01*
X258683Y275321D01*
X257933D01*
X257558Y275134D01*
X257183Y274759D01*
X256996Y274384D01*
X255890Y271385D02*
Y275321D01*
Y271385D02*
X254203D01*
X253641Y271572D01*
X253453Y271760D01*
X253266Y272135D01*
Y272510D01*
X253453Y272884D01*
X253641Y273072D01*
X254203Y273259D01*
X255890D02*
X254203D01*
X253641Y273447D01*
X253453Y273634D01*
X253266Y274009D01*
Y274571D01*
X253453Y274946D01*
X253641Y275134D01*
X254203Y275321D01*
X255890D01*
X246855Y271385D02*
X249292D01*
Y275321D01*
X246855D01*
X249292Y273259D02*
X247793D01*
X246199Y271385D02*
Y275321D01*
Y271385D02*
X244887D01*
X244325Y271572D01*
X243950Y271947D01*
X243763Y272322D01*
X243575Y272884D01*
Y273822D01*
X243763Y274384D01*
X243950Y274759D01*
X244325Y275134D01*
X244887Y275321D01*
X246199D01*
X239883Y272322D02*
X240070Y271947D01*
X240445Y271572D01*
X240820Y271385D01*
X241570D01*
X241945Y271572D01*
X242319Y271947D01*
X242507Y272322D01*
X242694Y272884D01*
Y273822D01*
X242507Y274384D01*
X242319Y274759D01*
X241945Y275134D01*
X241570Y275321D01*
X240820D01*
X240445Y275134D01*
X240070Y274759D01*
X239883Y274384D01*
Y273822D01*
X240820D02*
X239883D01*
X236546Y271385D02*
X238983D01*
Y275321D01*
X236546D01*
X238983Y273259D02*
X237484D01*
M02*
