G04*
G04 #@! TF.GenerationSoftware,Altium Limited,Altium NEXUS,2.1.8 (74)*
G04*
G04 Layer_Color=8388736*
%FSLAX25Y25*%
%MOIN*%
G70*
G01*
G75*
%ADD23R,0.06339X0.02402*%
%ADD57R,0.04737X0.03556*%
%ADD58R,0.05328X0.06312*%
G04:AMPARAMS|DCode=59|XSize=63.12mil|YSize=53.28mil|CornerRadius=0mil|HoleSize=0mil|Usage=FLASHONLY|Rotation=270.000|XOffset=0mil|YOffset=0mil|HoleType=Round|Shape=Octagon|*
%AMOCTAGOND59*
4,1,8,-0.01332,-0.03156,0.01332,-0.03156,0.02664,-0.01824,0.02664,0.01824,0.01332,0.03156,-0.01332,0.03156,-0.02664,0.01824,-0.02664,-0.01824,-0.01332,-0.03156,0.0*
%
%ADD59OCTAGOND59*%

%ADD60R,0.04737X0.04343*%
%ADD61R,0.04737X0.04540*%
%ADD62R,0.29147X0.11036*%
%ADD63R,0.12611X0.12611*%
%ADD64R,0.01339X0.04095*%
%ADD65R,0.08674X0.05918*%
%ADD66R,0.06556X0.01743*%
%ADD67R,0.01743X0.06556*%
%ADD68R,0.12217X0.08674*%
%ADD69R,0.08280X0.08280*%
%ADD70R,0.04737X0.06312*%
%ADD71R,0.04737X0.04737*%
%ADD72R,0.04343X0.03950*%
%ADD73R,0.05131X0.05603*%
%ADD74R,0.11627X0.04737*%
%ADD75R,0.02375X0.04540*%
%ADD76R,0.06509X0.04934*%
%ADD77R,0.06587X0.05249*%
%ADD78R,0.02170X0.06300*%
%ADD79R,0.08123X0.04343*%
%ADD80R,0.08123X0.13359*%
%ADD81R,0.06942X0.01902*%
%ADD82R,0.01902X0.06942*%
%ADD83R,0.08674X0.10642*%
%ADD84R,0.02769X0.10642*%
%ADD85R,0.04737X0.05131*%
%ADD86R,0.04737X0.04737*%
%ADD87R,0.06312X0.04737*%
%ADD88R,0.04540X0.04737*%
%ADD89R,0.03950X0.04343*%
%ADD90R,0.04343X0.04737*%
%ADD91R,0.06312X0.05328*%
G04:AMPARAMS|DCode=92|XSize=63.12mil|YSize=53.28mil|CornerRadius=0mil|HoleSize=0mil|Usage=FLASHONLY|Rotation=0.000|XOffset=0mil|YOffset=0mil|HoleType=Round|Shape=Octagon|*
%AMOCTAGOND92*
4,1,8,0.03156,-0.01332,0.03156,0.01332,0.01824,0.02664,-0.01824,0.02664,-0.03156,0.01332,-0.03156,-0.01332,-0.01824,-0.02664,0.01824,-0.02664,0.03156,-0.01332,0.0*
%
%ADD92OCTAGOND92*%

%ADD93R,0.07099X0.07099*%
%ADD94C,0.07099*%
%ADD95C,0.06800*%
%ADD96C,0.16548*%
%ADD97R,0.07296X0.07296*%
%ADD98C,0.07296*%
%ADD99R,0.07099X0.07099*%
%ADD100C,0.04343*%
%ADD101C,0.20485*%
D23*
X289784Y240650D02*
D03*
Y232579D02*
D03*
X297618Y236614D02*
D03*
D57*
X427756Y252067D02*
D03*
Y255807D02*
D03*
Y259547D02*
D03*
X417520D02*
D03*
Y252067D02*
D03*
D58*
X316083Y145890D02*
D03*
X309784Y137228D02*
D03*
Y145890D02*
D03*
D59*
X316083Y137228D02*
D03*
D60*
X142244Y216831D02*
D03*
Y223524D02*
D03*
X476396Y29805D02*
D03*
Y23112D02*
D03*
X468203Y23112D02*
D03*
Y29805D02*
D03*
X381496Y37598D02*
D03*
Y44291D02*
D03*
X388095Y44188D02*
D03*
Y37495D02*
D03*
X410755Y36630D02*
D03*
Y29937D02*
D03*
X401135Y94347D02*
D03*
Y101040D02*
D03*
X412715Y94347D02*
D03*
Y101040D02*
D03*
X391587Y109032D02*
D03*
Y115725D02*
D03*
X401135Y109111D02*
D03*
Y115804D02*
D03*
X412503Y109095D02*
D03*
Y115787D02*
D03*
X315354Y251003D02*
D03*
Y244310D02*
D03*
X200990Y250915D02*
D03*
Y244222D02*
D03*
X209364Y250915D02*
D03*
Y244222D02*
D03*
X182884Y169295D02*
D03*
Y175988D02*
D03*
X193223Y169295D02*
D03*
Y175988D02*
D03*
X299646Y127747D02*
D03*
Y121055D02*
D03*
X302598Y139197D02*
D03*
Y145890D02*
D03*
X81890Y62008D02*
D03*
Y55315D02*
D03*
X112244Y216831D02*
D03*
Y223524D02*
D03*
X102244Y216831D02*
D03*
Y223524D02*
D03*
X82677Y216831D02*
D03*
Y223524D02*
D03*
X224016Y106527D02*
D03*
Y99834D02*
D03*
X72441Y216831D02*
D03*
Y223524D02*
D03*
X132244Y223524D02*
D03*
Y216831D02*
D03*
X62598Y216831D02*
D03*
Y223524D02*
D03*
D61*
X485039Y226378D02*
D03*
Y220079D02*
D03*
X478543Y226378D02*
D03*
Y220079D02*
D03*
X465354Y226378D02*
D03*
Y220079D02*
D03*
X472047Y226378D02*
D03*
Y220079D02*
D03*
X525000Y226342D02*
D03*
Y220042D02*
D03*
X509252Y226342D02*
D03*
Y220042D02*
D03*
D62*
X314655Y193504D02*
D03*
Y175394D02*
D03*
D63*
X110512Y11417D02*
D03*
X94764D02*
D03*
X66142D02*
D03*
X50394D02*
D03*
D64*
X470472Y240631D02*
D03*
X472441D02*
D03*
X474409D02*
D03*
X476378D02*
D03*
X478346D02*
D03*
X480315D02*
D03*
X482283D02*
D03*
X484252D02*
D03*
X486221D02*
D03*
X488189D02*
D03*
X490158D02*
D03*
X492126D02*
D03*
X494095D02*
D03*
X496063D02*
D03*
X498032D02*
D03*
X500000D02*
D03*
X501968D02*
D03*
X503937D02*
D03*
X505905D02*
D03*
X507874D02*
D03*
X509842D02*
D03*
X511811D02*
D03*
X513779D02*
D03*
X515748D02*
D03*
X517717D02*
D03*
X519685D02*
D03*
X521654D02*
D03*
X523622D02*
D03*
X525591D02*
D03*
X527559D02*
D03*
D65*
X536614Y251261D02*
D03*
X461417D02*
D03*
D66*
X391202Y73992D02*
D03*
Y72024D02*
D03*
Y70055D02*
D03*
Y68087D02*
D03*
Y66118D02*
D03*
Y64150D02*
D03*
Y62181D02*
D03*
Y60213D02*
D03*
Y58244D02*
D03*
Y56276D02*
D03*
Y54307D02*
D03*
Y52339D02*
D03*
X424402D02*
D03*
Y54307D02*
D03*
Y56276D02*
D03*
Y58244D02*
D03*
Y60213D02*
D03*
Y62181D02*
D03*
Y64150D02*
D03*
Y66118D02*
D03*
Y68087D02*
D03*
Y70055D02*
D03*
Y72024D02*
D03*
Y73992D02*
D03*
D67*
X396975Y46566D02*
D03*
X398944D02*
D03*
X400912D02*
D03*
X402881D02*
D03*
X404849D02*
D03*
X406818D02*
D03*
X408786D02*
D03*
X410755D02*
D03*
X412723D02*
D03*
X414692D02*
D03*
X416660D02*
D03*
X418629D02*
D03*
Y79766D02*
D03*
X416660D02*
D03*
X414692D02*
D03*
X412723D02*
D03*
X410755D02*
D03*
X408786D02*
D03*
X406818D02*
D03*
X404849D02*
D03*
X402881D02*
D03*
X400912D02*
D03*
X398944D02*
D03*
X396975D02*
D03*
D68*
X49764Y44882D02*
D03*
Y25591D02*
D03*
X100000Y44882D02*
D03*
Y25591D02*
D03*
D69*
X40748Y35236D02*
D03*
X109016D02*
D03*
D70*
X346094Y193504D02*
D03*
X338221D02*
D03*
D71*
X303937Y166559D02*
D03*
X310236D02*
D03*
X358933Y84782D02*
D03*
X352634D02*
D03*
X494095Y41732D02*
D03*
X500394D02*
D03*
X367820Y53874D02*
D03*
X374119D02*
D03*
X280394Y182897D02*
D03*
X274095D02*
D03*
X272441Y99630D02*
D03*
X278740D02*
D03*
X235433Y180512D02*
D03*
X229134D02*
D03*
X310354Y153982D02*
D03*
X316654D02*
D03*
X310236Y159937D02*
D03*
X303937D02*
D03*
D72*
X203357Y228740D02*
D03*
Y234252D02*
D03*
D73*
X423701Y243996D02*
D03*
X410827D02*
D03*
D74*
X321299Y111094D02*
D03*
X299646D02*
D03*
Y95346D02*
D03*
X321299D02*
D03*
D75*
X493504Y218960D02*
D03*
Y227424D02*
D03*
X501378Y227424D02*
D03*
Y218960D02*
D03*
D76*
X517126Y226834D02*
D03*
Y219550D02*
D03*
D77*
X406890Y259311D02*
D03*
Y252303D02*
D03*
D78*
X182884Y212002D02*
D03*
X185443D02*
D03*
X188002D02*
D03*
X190561D02*
D03*
X193120D02*
D03*
X195679D02*
D03*
X198238D02*
D03*
X203357D02*
D03*
X200797D02*
D03*
X205915D02*
D03*
X208475D02*
D03*
X211034D02*
D03*
X213593D02*
D03*
X216152D02*
D03*
X182884Y183215D02*
D03*
X185443D02*
D03*
X188002D02*
D03*
X190561D02*
D03*
X193120D02*
D03*
X195679D02*
D03*
X198238D02*
D03*
X200797D02*
D03*
X203357D02*
D03*
X205915D02*
D03*
X208475D02*
D03*
X211034D02*
D03*
X213593D02*
D03*
X216152D02*
D03*
D79*
X47382Y73976D02*
D03*
Y64921D02*
D03*
Y55866D02*
D03*
D80*
X71595Y64921D02*
D03*
D81*
X285000Y115968D02*
D03*
Y117937D02*
D03*
Y119905D02*
D03*
Y121874D02*
D03*
Y123842D02*
D03*
Y125811D02*
D03*
Y127779D02*
D03*
Y129748D02*
D03*
Y131716D02*
D03*
Y133685D02*
D03*
Y135653D02*
D03*
Y137622D02*
D03*
Y139590D02*
D03*
Y141559D02*
D03*
Y143527D02*
D03*
Y145496D02*
D03*
Y147464D02*
D03*
Y149433D02*
D03*
Y151401D02*
D03*
Y153370D02*
D03*
Y155338D02*
D03*
Y157307D02*
D03*
Y159275D02*
D03*
Y161244D02*
D03*
Y163212D02*
D03*
X224528D02*
D03*
Y161244D02*
D03*
Y159275D02*
D03*
Y157307D02*
D03*
Y155338D02*
D03*
Y153370D02*
D03*
Y151401D02*
D03*
Y149433D02*
D03*
Y147464D02*
D03*
Y145496D02*
D03*
Y143527D02*
D03*
Y141559D02*
D03*
Y139590D02*
D03*
Y137622D02*
D03*
Y135653D02*
D03*
Y133685D02*
D03*
Y131716D02*
D03*
Y129748D02*
D03*
Y127779D02*
D03*
Y125811D02*
D03*
Y123842D02*
D03*
Y121874D02*
D03*
Y119905D02*
D03*
Y117937D02*
D03*
Y115968D02*
D03*
D82*
X278386Y169827D02*
D03*
X276417D02*
D03*
X274449D02*
D03*
X272480D02*
D03*
X270512D02*
D03*
X268543D02*
D03*
X266575D02*
D03*
X264606D02*
D03*
X262638D02*
D03*
X260669D02*
D03*
X258701D02*
D03*
X256732D02*
D03*
X254764D02*
D03*
X252795D02*
D03*
X250827D02*
D03*
X248858D02*
D03*
X246890D02*
D03*
X244921D02*
D03*
X242953D02*
D03*
X240984D02*
D03*
X239016D02*
D03*
X237047D02*
D03*
X235079D02*
D03*
X233110D02*
D03*
X231142D02*
D03*
Y109354D02*
D03*
X233110D02*
D03*
X235079D02*
D03*
X237047D02*
D03*
X239016D02*
D03*
X240984D02*
D03*
X242953D02*
D03*
X244921D02*
D03*
X246890D02*
D03*
X248858D02*
D03*
X250827D02*
D03*
X252795D02*
D03*
X254764D02*
D03*
X256732D02*
D03*
X258701D02*
D03*
X260669D02*
D03*
X262638D02*
D03*
X264606D02*
D03*
X266575D02*
D03*
X268543D02*
D03*
X270512D02*
D03*
X272480D02*
D03*
X274449D02*
D03*
X276417D02*
D03*
X278386D02*
D03*
D83*
X232361Y266181D02*
D03*
X267479D02*
D03*
X232361Y244606D02*
D03*
X267479D02*
D03*
X526614Y9528D02*
D03*
X491496D02*
D03*
X526614Y31102D02*
D03*
X491496D02*
D03*
D84*
X243621Y244606D02*
D03*
X246771D02*
D03*
X249920D02*
D03*
X253070D02*
D03*
X256220D02*
D03*
X515354Y31102D02*
D03*
X512205D02*
D03*
X509055D02*
D03*
X505905D02*
D03*
X502756D02*
D03*
D85*
X94764Y55315D02*
D03*
Y62008D02*
D03*
X476396Y14057D02*
D03*
Y7364D02*
D03*
X468203Y14057D02*
D03*
Y7364D02*
D03*
X315354Y259906D02*
D03*
Y266599D02*
D03*
X200990Y259970D02*
D03*
Y266663D02*
D03*
X209364Y259970D02*
D03*
Y266663D02*
D03*
D86*
X369292Y76702D02*
D03*
Y70402D02*
D03*
X324262Y139236D02*
D03*
Y145535D02*
D03*
X321195Y126949D02*
D03*
Y120650D02*
D03*
X309679Y120682D02*
D03*
Y126981D02*
D03*
X203357Y110063D02*
D03*
Y116362D02*
D03*
D87*
X315354Y228523D02*
D03*
Y236397D02*
D03*
X279134Y240565D02*
D03*
Y232691D02*
D03*
X218771Y245032D02*
D03*
Y237158D02*
D03*
D88*
X435236Y253346D02*
D03*
X441535D02*
D03*
X229134Y187343D02*
D03*
X235433D02*
D03*
X441535Y246988D02*
D03*
X435236D02*
D03*
X435236Y259547D02*
D03*
X441535D02*
D03*
D89*
X227786Y215983D02*
D03*
X233298D02*
D03*
D90*
X359130Y61643D02*
D03*
X352437D02*
D03*
X405780Y136180D02*
D03*
X399087D02*
D03*
X367623Y60616D02*
D03*
X374316D02*
D03*
X447254Y52580D02*
D03*
X453947D02*
D03*
X461624D02*
D03*
X468317D02*
D03*
X461624Y62580D02*
D03*
X468317D02*
D03*
X461624Y72580D02*
D03*
X468317D02*
D03*
D91*
X352437Y76603D02*
D03*
X361099Y70304D02*
D03*
X352437D02*
D03*
D92*
X361099Y76603D02*
D03*
D93*
X341159Y208302D02*
D03*
X321159D02*
D03*
X371159D02*
D03*
X361659Y37436D02*
D03*
X301659Y37302D02*
D03*
X465475Y84775D02*
D03*
X381739Y126985D02*
D03*
D94*
X331158Y208303D02*
D03*
X251159Y208302D02*
D03*
X261159D02*
D03*
X271159D02*
D03*
X281159D02*
D03*
X291159D02*
D03*
X301159D02*
D03*
X311159D02*
D03*
X361159D02*
D03*
X351659Y37436D02*
D03*
X341659D02*
D03*
X331659D02*
D03*
X321659D02*
D03*
X291659Y37302D02*
D03*
X281659D02*
D03*
X271659D02*
D03*
X261659D02*
D03*
X251659D02*
D03*
X482605Y82580D02*
D03*
Y72580D02*
D03*
Y62580D02*
D03*
Y52580D02*
D03*
X455475Y84775D02*
D03*
X445474D02*
D03*
X435474D02*
D03*
X421739Y126985D02*
D03*
X411739D02*
D03*
X401739D02*
D03*
X391739D02*
D03*
D95*
X405159Y230802D02*
D03*
Y11802D02*
D03*
X173659D02*
D03*
Y230802D02*
D03*
X450866Y181102D02*
D03*
Y171102D02*
D03*
Y161102D02*
D03*
Y151102D02*
D03*
Y141102D02*
D03*
X139685Y126000D02*
D03*
Y136000D02*
D03*
Y146000D02*
D03*
Y156000D02*
D03*
Y166000D02*
D03*
D96*
X456693Y110236D02*
D03*
Y196850D02*
D03*
X557087D02*
D03*
Y110236D02*
D03*
X133858Y196866D02*
D03*
Y110252D02*
D03*
X33465D02*
D03*
Y196866D02*
D03*
D97*
X52244Y242874D02*
D03*
D98*
Y252874D02*
D03*
X62244Y242874D02*
D03*
Y252874D02*
D03*
X72244Y242874D02*
D03*
Y252874D02*
D03*
X82244Y242874D02*
D03*
Y252874D02*
D03*
X92244Y242874D02*
D03*
Y252874D02*
D03*
X102244Y242874D02*
D03*
Y252874D02*
D03*
X112244Y242874D02*
D03*
Y252874D02*
D03*
X122244Y242874D02*
D03*
Y252874D02*
D03*
X132244Y242874D02*
D03*
Y252874D02*
D03*
X142244Y242874D02*
D03*
Y252874D02*
D03*
D99*
X482605Y42580D02*
D03*
D100*
X241259Y254488D02*
D03*
X258582D02*
D03*
X517717Y21220D02*
D03*
X500394D02*
D03*
X430884Y25679D02*
D03*
X380315Y91902D02*
D03*
X335827Y88110D02*
D03*
D101*
X295276Y255906D02*
D03*
Y19685D02*
D03*
X570866Y255906D02*
D03*
Y19685D02*
D03*
X19685D02*
D03*
Y255906D02*
D03*
M02*
