G04*
G04 #@! TF.GenerationSoftware,Altium Limited,Altium NEXUS,2.1.8 (74)*
G04*
G04 Layer_Color=32896*
%FSLAX25Y25*%
%MOIN*%
G70*
G01*
G75*
%ADD10C,0.00787*%
%ADD14C,0.00630*%
%ADD16C,0.00500*%
%ADD143C,0.00400*%
%ADD144C,0.00000*%
G36*
X110890Y620485D02*
X107143D01*
Y622466D01*
X110890D01*
Y620485D01*
D02*
G37*
G36*
Y615885D02*
X107146D01*
Y617850D01*
X110890D01*
Y615885D01*
D02*
G37*
G36*
X519854Y611303D02*
X516110D01*
Y613269D01*
X519854D01*
Y611303D01*
D02*
G37*
G36*
X519857Y606688D02*
X516110D01*
Y608669D01*
X519857D01*
Y606688D01*
D02*
G37*
G36*
X111890Y407831D02*
X108143D01*
Y409812D01*
X111890D01*
Y407831D01*
D02*
G37*
G36*
Y403231D02*
X108146D01*
Y405197D01*
X111890D01*
Y403231D01*
D02*
G37*
G36*
X520754Y369503D02*
X517010D01*
Y371469D01*
X520754D01*
Y369503D01*
D02*
G37*
G36*
X520757Y364888D02*
X517010D01*
Y366869D01*
X520757D01*
Y364888D01*
D02*
G37*
G36*
X254797Y337176D02*
X253494D01*
Y340875D01*
X254797D01*
Y337176D01*
D02*
G37*
G36*
X252244D02*
X250935D01*
Y340885D01*
X252244D01*
Y337176D01*
D02*
G37*
G36*
X249669D02*
X248376D01*
Y340871D01*
X249669D01*
Y337176D01*
D02*
G37*
G36*
X247100D02*
X245817D01*
Y340860D01*
X247100D01*
Y337176D01*
D02*
G37*
G36*
X244546D02*
X243258D01*
Y340874D01*
X244546D01*
Y337176D01*
D02*
G37*
G36*
X241980D02*
X240699D01*
Y340861D01*
X241980D01*
Y337176D01*
D02*
G37*
G36*
X239424D02*
X238140D01*
Y340890D01*
X239424D01*
Y337176D01*
D02*
G37*
G36*
X236859D02*
X235581D01*
Y340875D01*
X236859D01*
Y337176D01*
D02*
G37*
G36*
X234296D02*
X233022D01*
Y340877D01*
X234296D01*
Y337176D01*
D02*
G37*
G36*
X231729D02*
X230463D01*
Y340889D01*
X231729D01*
Y337176D01*
D02*
G37*
G36*
X229167D02*
X227904D01*
Y340884D01*
X229167D01*
Y337176D01*
D02*
G37*
G36*
X226594D02*
X225344D01*
Y340896D01*
X226594D01*
Y337176D01*
D02*
G37*
G36*
X224034D02*
X222785D01*
Y340889D01*
X224034D01*
Y337176D01*
D02*
G37*
G36*
X221494D02*
X220226D01*
Y340865D01*
X221494D01*
Y337176D01*
D02*
G37*
G36*
X213490Y331885D02*
X209743D01*
Y333866D01*
X213490D01*
Y331885D01*
D02*
G37*
G36*
X205090D02*
X201343D01*
Y333866D01*
X205090D01*
Y331885D01*
D02*
G37*
G36*
X213490Y327285D02*
X209746D01*
Y329251D01*
X213490D01*
Y327285D01*
D02*
G37*
G36*
X205090D02*
X201346D01*
Y329251D01*
X205090D01*
Y327285D01*
D02*
G37*
G36*
X254807Y310146D02*
X253494D01*
Y313802D01*
X254807D01*
Y310146D01*
D02*
G37*
G36*
X252239D02*
X250935D01*
Y313805D01*
X252239D01*
Y310146D01*
D02*
G37*
G36*
X249671D02*
X248376D01*
Y313809D01*
X249671D01*
Y310146D01*
D02*
G37*
G36*
X247112D02*
X245817D01*
Y313805D01*
X247112D01*
Y310146D01*
D02*
G37*
G36*
X244556D02*
X243258D01*
Y313793D01*
X244556D01*
Y310146D01*
D02*
G37*
G36*
X241981D02*
X240699D01*
Y313817D01*
X241981D01*
Y310146D01*
D02*
G37*
G36*
X239422D02*
X238140D01*
Y313807D01*
X239422D01*
Y310146D01*
D02*
G37*
G36*
X236859D02*
X235581D01*
Y313801D01*
X236859D01*
Y310146D01*
D02*
G37*
G36*
X234292D02*
X233022D01*
Y313789D01*
X234292D01*
Y310146D01*
D02*
G37*
G36*
X231726D02*
X230463D01*
Y313792D01*
X231726D01*
Y310146D01*
D02*
G37*
G36*
X229163D02*
X227904D01*
Y313796D01*
X229163D01*
Y310146D01*
D02*
G37*
G36*
X226586D02*
X225344D01*
Y313784D01*
X226586D01*
Y310146D01*
D02*
G37*
G36*
X224045D02*
X222785D01*
Y313807D01*
X224045D01*
Y310146D01*
D02*
G37*
G36*
X221480D02*
X220226D01*
Y313805D01*
X221480D01*
Y310146D01*
D02*
G37*
G36*
X213854Y294303D02*
X210110D01*
Y296269D01*
X213854D01*
Y294303D01*
D02*
G37*
G36*
X213857Y289688D02*
X210110D01*
Y291669D01*
X213857D01*
Y289688D01*
D02*
G37*
G36*
X572590Y270231D02*
X568843D01*
Y272212D01*
X572590D01*
Y270231D01*
D02*
G37*
G36*
X580254Y270203D02*
X576510D01*
Y272169D01*
X580254D01*
Y270203D01*
D02*
G37*
G36*
X572590Y265631D02*
X568846D01*
Y267597D01*
X572590D01*
Y265631D01*
D02*
G37*
G36*
X580257Y265588D02*
X576510D01*
Y267569D01*
X580257D01*
Y265588D01*
D02*
G37*
G36*
X302854Y177603D02*
X299110D01*
Y179569D01*
X302854D01*
Y177603D01*
D02*
G37*
G36*
X302857Y172988D02*
X299110D01*
Y174969D01*
X302857D01*
Y172988D01*
D02*
G37*
G36*
X288854Y127303D02*
X285110D01*
Y129269D01*
X288854D01*
Y127303D01*
D02*
G37*
G36*
X288857Y122688D02*
X285110D01*
Y124669D01*
X288857D01*
Y122688D01*
D02*
G37*
D10*
X41815Y263342D02*
X41028D01*
X41815D01*
X41028D01*
X41815D01*
X370202Y338800D02*
X369415D01*
X370202D01*
X369415D01*
X370202D01*
X610894Y60181D02*
X610106D01*
X610894D01*
X610106D01*
X610894D01*
X19394Y121709D02*
X18606D01*
X19394D01*
X18606D01*
X19394D01*
X17394Y562819D02*
X16606D01*
X17394D01*
X16606D01*
X17394D01*
X610630Y547181D02*
X609842D01*
X610630D01*
X609842D01*
X610630D01*
X610394Y413791D02*
X609606D01*
X610394D01*
X609606D01*
X610394D01*
X17394Y697098D02*
X16606D01*
X17394D01*
X16606D01*
X17394D01*
Y476819D02*
X16606D01*
X17394D01*
X16606D01*
X17394D01*
X63032Y641854D02*
X62244D01*
X63032D01*
X62244D01*
X63032D01*
X221339Y273472D02*
X220551D01*
X221339D01*
X220551D01*
X221339D01*
D14*
X292753Y321628D02*
X292123D01*
X292753D01*
X292123D01*
X292753D01*
X485276Y322528D02*
X484646D01*
X485276D01*
X484646D01*
X485276D01*
D16*
X26500Y268500D02*
Y338500D01*
X196500D01*
Y315311D02*
Y338500D01*
Y291807D02*
Y315311D01*
Y268500D02*
Y291807D01*
X26500Y268500D02*
X196500D01*
Y291807D02*
X204000D01*
Y315311D01*
X196500D02*
X204000D01*
X26500Y268500D02*
Y338500D01*
X196500D01*
Y315311D02*
Y338500D01*
Y291807D02*
Y315311D01*
Y268500D02*
Y291807D01*
X26500Y268500D02*
X196500D01*
Y291807D02*
X204000D01*
Y315311D01*
X196500D02*
X204000D01*
X367643Y324233D02*
Y352973D01*
X310557D02*
X367643D01*
X310557Y324233D02*
Y352973D01*
Y324233D02*
X367643D01*
Y352973D01*
X310557D02*
X367643D01*
X310557Y324233D02*
Y352973D01*
Y324233D02*
X367643D01*
X343547Y315953D02*
X399453D01*
Y260047D02*
Y315953D01*
X343547Y260047D02*
X399453D01*
X343547D02*
Y315953D01*
X399453D01*
Y260047D02*
Y315953D01*
X343547Y260047D02*
X399453D01*
X343547D02*
Y315953D01*
X246768Y353124D02*
X270942D01*
X301335Y319265D02*
Y355486D01*
X270942D02*
X301335D01*
X270942Y353124D02*
Y355486D01*
Y319265D02*
Y353124D01*
Y319265D02*
X301335D01*
X246768Y353124D02*
X270942D01*
X301335Y319265D02*
Y355486D01*
X270942D02*
X301335D01*
X270942Y353124D02*
Y355486D01*
Y319265D02*
Y353124D01*
Y319265D02*
X301335D01*
X595933Y62347D02*
Y119433D01*
X624673D01*
Y62347D02*
Y119433D01*
X595933Y62347D02*
X624673D01*
X595933D02*
Y119433D01*
X624673D01*
Y62347D02*
Y119433D01*
X595933Y62347D02*
X624673D01*
X33567Y62457D02*
Y119543D01*
X4827Y62457D02*
X33567D01*
X4827D02*
Y119543D01*
X33567D01*
Y62457D02*
Y119543D01*
X4827Y62457D02*
X33567D01*
X4827D02*
Y119543D01*
X33567D01*
X31567Y503567D02*
Y560653D01*
X2827Y503567D02*
X31567D01*
X2827D02*
Y560653D01*
X31567D01*
Y503567D02*
Y560653D01*
X2827Y503567D02*
X31567D01*
X2827D02*
Y560653D01*
X31567D01*
X595669Y549346D02*
Y606433D01*
X624409D01*
Y549346D02*
Y606433D01*
X595669Y549346D02*
X624409D01*
X595669D02*
Y606433D01*
X624409D01*
Y549346D02*
Y606433D01*
X595669Y549346D02*
X624409D01*
X595433Y415957D02*
Y473043D01*
X624173D01*
Y415957D02*
Y473043D01*
X595433Y415957D02*
X624173D01*
X595433D02*
Y473043D01*
X624173D01*
Y415957D02*
Y473043D01*
X595433Y415957D02*
X624173D01*
X31567Y637847D02*
Y694933D01*
X2827Y637847D02*
X31567D01*
X2827D02*
Y694933D01*
X31567D01*
Y637847D02*
Y694933D01*
X2827Y637847D02*
X31567D01*
X2827D02*
Y694933D01*
X31567D01*
Y417567D02*
Y474653D01*
X2827Y417567D02*
X31567D01*
X2827D02*
Y474653D01*
X31567D01*
Y417567D02*
Y474653D01*
X2827Y417567D02*
X31567D01*
X2827D02*
Y474653D01*
X31567D01*
X61870Y683193D02*
X108130D01*
X61870Y653272D02*
X108130D01*
Y683193D01*
X61870Y653272D02*
Y683193D01*
X108130D01*
X61870Y653272D02*
X108130D01*
Y683193D01*
X61870Y653272D02*
Y683193D01*
X217311Y271217D02*
X243689D01*
X217311D02*
Y285784D01*
X243689D01*
Y271217D02*
Y285784D01*
X217311Y271217D02*
X243689D01*
X217311D02*
Y285784D01*
X243689D01*
Y271217D02*
Y285784D01*
X439291Y354024D02*
X463465D01*
X493858Y320165D02*
Y356386D01*
X463465D02*
X493858D01*
X463465Y354024D02*
Y356386D01*
Y320165D02*
Y354024D01*
Y320165D02*
X493858D01*
X439291Y354024D02*
X463465D01*
X493858Y320165D02*
Y356386D01*
X463465D02*
X493858D01*
X463465Y354024D02*
Y356386D01*
Y320165D02*
Y354024D01*
Y320165D02*
X493858D01*
D143*
X213301Y329152D02*
Y331955D01*
X209950Y329152D02*
Y331955D01*
X213301Y329152D02*
Y331955D01*
X209950Y329152D02*
Y331955D01*
X204901Y329152D02*
Y331955D01*
X201550Y329152D02*
Y331955D01*
X204901Y329152D02*
Y331955D01*
X201550Y329152D02*
Y331955D01*
X285299Y124598D02*
Y127402D01*
X288650Y124598D02*
Y127402D01*
X285299Y124598D02*
Y127402D01*
X288650Y124598D02*
Y127402D01*
X299299Y174898D02*
Y177702D01*
X302650Y174898D02*
Y177702D01*
X299299Y174898D02*
Y177702D01*
X302650Y174898D02*
Y177702D01*
X210299Y291598D02*
Y294402D01*
X213650Y291598D02*
Y294402D01*
X210299Y291598D02*
Y294402D01*
X213650Y291598D02*
Y294402D01*
X111701Y405098D02*
Y407902D01*
X108350Y405098D02*
Y407902D01*
X111701Y405098D02*
Y407902D01*
X108350Y405098D02*
Y407902D01*
X110701Y617752D02*
Y620555D01*
X107350Y617752D02*
Y620555D01*
X110701Y617752D02*
Y620555D01*
X107350Y617752D02*
Y620555D01*
X517199Y366798D02*
Y369602D01*
X520550Y366798D02*
Y369602D01*
X517199Y366798D02*
Y369602D01*
X520550Y366798D02*
Y369602D01*
X516299Y608598D02*
Y611402D01*
X519650Y608598D02*
Y611402D01*
X516299Y608598D02*
Y611402D01*
X519650Y608598D02*
Y611402D01*
X572401Y267498D02*
Y270302D01*
X569050Y267498D02*
Y270302D01*
X572401Y267498D02*
Y270302D01*
X569050Y267498D02*
Y270302D01*
X576699Y267498D02*
Y270302D01*
X580050Y267498D02*
Y270302D01*
X576699Y267498D02*
Y270302D01*
X580050Y267498D02*
Y270302D01*
D144*
X536200Y523800D02*
X555800D01*
Y504200D02*
Y523800D01*
X536200Y504200D02*
X555800D01*
X536200D02*
Y523800D01*
X552500Y503900D02*
Y504200D01*
X551300Y503900D02*
X552500D01*
X551300D02*
Y504200D01*
X552500D01*
X550500Y503900D02*
Y504200D01*
X549300Y503900D02*
X550500D01*
X549300D02*
Y504200D01*
X550500D01*
X548600Y503900D02*
Y504200D01*
X547400Y503900D02*
X548600D01*
X547400D02*
Y504200D01*
X548600D01*
X546600Y503900D02*
Y504200D01*
X545400Y503900D02*
X546600D01*
X545400D02*
Y504200D01*
X546600D01*
X544600Y503900D02*
Y504200D01*
X543400Y503900D02*
X544600D01*
X543400D02*
Y504200D01*
X544600D01*
X542700Y503900D02*
Y504200D01*
X541500Y503900D02*
X542700D01*
X541500D02*
Y504200D01*
X542700D01*
X540700Y503900D02*
Y504200D01*
X539500Y503900D02*
X540700D01*
X539500D02*
Y504200D01*
X540700D01*
X535900Y507500D02*
X536200D01*
X535900D02*
Y508700D01*
X536200D01*
Y507500D02*
Y508700D01*
X535900Y509500D02*
X536200D01*
X535900D02*
Y510700D01*
X536200D01*
Y509500D02*
Y510700D01*
X535900Y511400D02*
X536200D01*
X535900D02*
Y512600D01*
X536200D01*
Y511400D02*
Y512600D01*
X535900Y513400D02*
X536200D01*
X535900D02*
Y514600D01*
X536200D01*
Y513400D02*
Y514600D01*
X535900Y515400D02*
X536200D01*
X535900D02*
Y516600D01*
X536200D01*
Y515400D02*
Y516600D01*
X535900Y517300D02*
X536200D01*
X535900D02*
Y518500D01*
X536200D01*
Y517300D02*
Y518500D01*
X535900Y519300D02*
X536200D01*
X535900D02*
Y520500D01*
X536200D01*
Y519300D02*
Y520500D01*
X539500Y523800D02*
Y524100D01*
X540700D01*
Y523800D02*
Y524100D01*
X539500Y523800D02*
X540700D01*
X541500D02*
Y524100D01*
X542700D01*
Y523800D02*
Y524100D01*
X541500Y523800D02*
X542700D01*
X543400D02*
Y524100D01*
X544600D01*
Y523800D02*
Y524100D01*
X543400Y523800D02*
X544600D01*
X545400D02*
Y524100D01*
X546600D01*
Y523800D02*
Y524100D01*
X545400Y523800D02*
X546600D01*
X547400D02*
Y524100D01*
X548600D01*
Y523800D02*
Y524100D01*
X547400Y523800D02*
X548600D01*
X549300D02*
Y524100D01*
X550500D01*
Y523800D02*
Y524100D01*
X549300Y523800D02*
X550500D01*
X551300D02*
Y524100D01*
X552500D01*
Y523800D02*
Y524100D01*
X551300Y523800D02*
X552500D01*
X555800Y520500D02*
X556100D01*
Y519300D02*
Y520500D01*
X555800Y519300D02*
X556100D01*
X555800D02*
Y520500D01*
Y518500D02*
X556100D01*
Y517300D02*
Y518500D01*
X555800Y517300D02*
X556100D01*
X555800D02*
Y518500D01*
Y516600D02*
X556100D01*
Y515400D02*
Y516600D01*
X555800Y515400D02*
X556100D01*
X555800D02*
Y516600D01*
Y514600D02*
X556100D01*
Y513400D02*
Y514600D01*
X555800Y513400D02*
X556100D01*
X555800D02*
Y514600D01*
Y512600D02*
X556100D01*
Y511400D02*
Y512600D01*
X555800Y511400D02*
X556100D01*
X555800D02*
Y512600D01*
Y510700D02*
X556100D01*
Y509500D02*
Y510700D01*
X555800Y509500D02*
X556100D01*
X555800D02*
Y510700D01*
Y508700D02*
X556100D01*
Y507500D02*
Y508700D01*
X555800Y507500D02*
X556100D01*
X555800D02*
Y508700D01*
X550800Y523800D02*
X555800Y518800D01*
X536200Y523800D02*
X555800D01*
Y504200D02*
Y523800D01*
X536200Y504200D02*
X555800D01*
X536200D02*
Y523800D01*
X552500Y503900D02*
Y504200D01*
X551300Y503900D02*
X552500D01*
X551300D02*
Y504200D01*
X552500D01*
X550500Y503900D02*
Y504200D01*
X549300Y503900D02*
X550500D01*
X549300D02*
Y504200D01*
X550500D01*
X548600Y503900D02*
Y504200D01*
X547400Y503900D02*
X548600D01*
X547400D02*
Y504200D01*
X548600D01*
X546600Y503900D02*
Y504200D01*
X545400Y503900D02*
X546600D01*
X545400D02*
Y504200D01*
X546600D01*
X544600Y503900D02*
Y504200D01*
X543400Y503900D02*
X544600D01*
X543400D02*
Y504200D01*
X544600D01*
X542700Y503900D02*
Y504200D01*
X541500Y503900D02*
X542700D01*
X541500D02*
Y504200D01*
X542700D01*
X540700Y503900D02*
Y504200D01*
X539500Y503900D02*
X540700D01*
X539500D02*
Y504200D01*
X540700D01*
X535900Y507500D02*
X536200D01*
X535900D02*
Y508700D01*
X536200D01*
Y507500D02*
Y508700D01*
X535900Y509500D02*
X536200D01*
X535900D02*
Y510700D01*
X536200D01*
Y509500D02*
Y510700D01*
X535900Y511400D02*
X536200D01*
X535900D02*
Y512600D01*
X536200D01*
Y511400D02*
Y512600D01*
X535900Y513400D02*
X536200D01*
X535900D02*
Y514600D01*
X536200D01*
Y513400D02*
Y514600D01*
X535900Y515400D02*
X536200D01*
X535900D02*
Y516600D01*
X536200D01*
Y515400D02*
Y516600D01*
X535900Y517300D02*
X536200D01*
X535900D02*
Y518500D01*
X536200D01*
Y517300D02*
Y518500D01*
X535900Y519300D02*
X536200D01*
X535900D02*
Y520500D01*
X536200D01*
Y519300D02*
Y520500D01*
X539500Y523800D02*
Y524100D01*
X540700D01*
Y523800D02*
Y524100D01*
X539500Y523800D02*
X540700D01*
X541500D02*
Y524100D01*
X542700D01*
Y523800D02*
Y524100D01*
X541500Y523800D02*
X542700D01*
X543400D02*
Y524100D01*
X544600D01*
Y523800D02*
Y524100D01*
X543400Y523800D02*
X544600D01*
X545400D02*
Y524100D01*
X546600D01*
Y523800D02*
Y524100D01*
X545400Y523800D02*
X546600D01*
X547400D02*
Y524100D01*
X548600D01*
Y523800D02*
Y524100D01*
X547400Y523800D02*
X548600D01*
X549300D02*
Y524100D01*
X550500D01*
Y523800D02*
Y524100D01*
X549300Y523800D02*
X550500D01*
X551300D02*
Y524100D01*
X552500D01*
Y523800D02*
Y524100D01*
X551300Y523800D02*
X552500D01*
X555800Y520500D02*
X556100D01*
Y519300D02*
Y520500D01*
X555800Y519300D02*
X556100D01*
X555800D02*
Y520500D01*
Y518500D02*
X556100D01*
Y517300D02*
Y518500D01*
X555800Y517300D02*
X556100D01*
X555800D02*
Y518500D01*
Y516600D02*
X556100D01*
Y515400D02*
Y516600D01*
X555800Y515400D02*
X556100D01*
X555800D02*
Y516600D01*
Y514600D02*
X556100D01*
Y513400D02*
Y514600D01*
X555800Y513400D02*
X556100D01*
X555800D02*
Y514600D01*
Y512600D02*
X556100D01*
Y511400D02*
Y512600D01*
X555800Y511400D02*
X556100D01*
X555800D02*
Y512600D01*
Y510700D02*
X556100D01*
Y509500D02*
Y510700D01*
X555800Y509500D02*
X556100D01*
X555800D02*
Y510700D01*
Y508700D02*
X556100D01*
Y507500D02*
Y508700D01*
X555800Y507500D02*
X556100D01*
X555800D02*
Y508700D01*
X550800Y523800D02*
X555800Y518800D01*
M02*
