G04*
G04 #@! TF.GenerationSoftware,Altium Limited,Altium NEXUS,2.1.8 (74)*
G04*
G04 Layer_Color=16711935*
%FSLAX25Y25*%
%MOIN*%
G70*
G01*
G75*
%ADD15C,0.01000*%
%ADD19C,0.00300*%
%ADD142C,0.00100*%
D15*
X275610Y36038D02*
Y240762D01*
X39390Y36038D02*
Y240762D01*
X275610D01*
X39390Y36038D02*
X275610D01*
X540Y713421D02*
Y783500D01*
Y713421D02*
X121800D01*
Y783500D01*
X540D02*
X121800D01*
X354331Y240158D02*
X590551D01*
X354331Y35433D02*
X590551D01*
Y240158D01*
X354331Y35433D02*
Y240158D01*
D19*
X528044Y323935D02*
Y322150D01*
X527300Y323489D02*
X528788Y322596D01*
Y323489D02*
X527300Y322596D01*
D142*
X550277Y323200D02*
X551377D01*
Y327100D01*
X550277D02*
X551377D01*
X550277Y323200D02*
Y327100D01*
X548308Y323200D02*
X549408D01*
Y327100D01*
X548308D02*
X549408D01*
X548308Y323200D02*
Y327100D01*
X546340Y323200D02*
X547440D01*
Y327100D01*
X546340D02*
X547440D01*
X546340Y323200D02*
Y327100D01*
X544371Y323200D02*
X545471D01*
Y327100D01*
X544371D02*
X545471D01*
X544371Y323200D02*
Y327100D01*
X542403Y323200D02*
X543503D01*
Y327100D01*
X542403D02*
X543503D01*
X542403Y323200D02*
Y327100D01*
X540434Y323200D02*
X541534D01*
Y327100D01*
X540434D02*
X541534D01*
X540434Y323200D02*
Y327100D01*
X538466Y323200D02*
X539566D01*
Y327100D01*
X538466D02*
X539566D01*
X538466Y323200D02*
Y327100D01*
X536497Y323200D02*
X537597D01*
Y327100D01*
X536497D02*
X537597D01*
X536497Y323200D02*
Y327100D01*
X534529Y323200D02*
X535629D01*
Y327100D01*
X534529D02*
X535629D01*
X534529Y323200D02*
Y327100D01*
X532560Y323200D02*
X533660D01*
Y327100D01*
X532560D02*
X533660D01*
X532560Y323200D02*
Y327100D01*
X530592Y323200D02*
X531692D01*
Y327100D01*
X530592D02*
X531692D01*
X530592Y323200D02*
Y327100D01*
X528623Y323200D02*
X529723D01*
Y327100D01*
X528623D02*
X529723D01*
X528623Y323200D02*
Y327100D01*
X525800Y319277D02*
Y320377D01*
X521900D02*
X525800D01*
X521900Y319277D02*
Y320377D01*
Y319277D02*
X525800D01*
Y317308D02*
Y318408D01*
X521900D02*
X525800D01*
X521900Y317308D02*
Y318408D01*
Y317308D02*
X525800D01*
Y315340D02*
Y316440D01*
X521900D02*
X525800D01*
X521900Y315340D02*
Y316440D01*
Y315340D02*
X525800D01*
Y313371D02*
Y314471D01*
X521900D02*
X525800D01*
X521900Y313371D02*
Y314471D01*
Y313371D02*
X525800D01*
Y311403D02*
Y312503D01*
X521900D02*
X525800D01*
X521900Y311403D02*
Y312503D01*
Y311403D02*
X525800D01*
Y309434D02*
Y310534D01*
X521900D02*
X525800D01*
X521900Y309434D02*
Y310534D01*
Y309434D02*
X525800D01*
Y307466D02*
Y308566D01*
X521900D02*
X525800D01*
X521900Y307466D02*
Y308566D01*
Y307466D02*
X525800D01*
Y305497D02*
Y306597D01*
X521900D02*
X525800D01*
X521900Y305497D02*
Y306597D01*
Y305497D02*
X525800D01*
Y303529D02*
Y304629D01*
X521900D02*
X525800D01*
X521900Y303529D02*
Y304629D01*
Y303529D02*
X525800D01*
Y301560D02*
Y302660D01*
X521900D02*
X525800D01*
X521900Y301560D02*
Y302660D01*
Y301560D02*
X525800D01*
Y299592D02*
Y300692D01*
X521900D02*
X525800D01*
X521900Y299592D02*
Y300692D01*
Y299592D02*
X525800D01*
Y297623D02*
Y298723D01*
X521900D02*
X525800D01*
X521900Y297623D02*
Y298723D01*
Y297623D02*
X525800D01*
X528623Y294800D02*
X529723D01*
X528623Y290900D02*
Y294800D01*
Y290900D02*
X529723D01*
Y294800D01*
X530592D02*
X531692D01*
X530592Y290900D02*
Y294800D01*
Y290900D02*
X531692D01*
Y294800D01*
X532560D02*
X533660D01*
X532560Y290900D02*
Y294800D01*
Y290900D02*
X533660D01*
Y294800D01*
X534529D02*
X535629D01*
X534529Y290900D02*
Y294800D01*
Y290900D02*
X535629D01*
Y294800D01*
X536497D02*
X537597D01*
X536497Y290900D02*
Y294800D01*
Y290900D02*
X537597D01*
Y294800D01*
X538466D02*
X539566D01*
X538466Y290900D02*
Y294800D01*
Y290900D02*
X539566D01*
Y294800D01*
X540434D02*
X541534D01*
X540434Y290900D02*
Y294800D01*
Y290900D02*
X541534D01*
Y294800D01*
X542403D02*
X543503D01*
X542403Y290900D02*
Y294800D01*
Y290900D02*
X543503D01*
Y294800D01*
X544371D02*
X545471D01*
X544371Y290900D02*
Y294800D01*
Y290900D02*
X545471D01*
Y294800D01*
X546340D02*
X547440D01*
X546340Y290900D02*
Y294800D01*
Y290900D02*
X547440D01*
Y294800D01*
X548308D02*
X549408D01*
X548308Y290900D02*
Y294800D01*
Y290900D02*
X549408D01*
Y294800D01*
X550277D02*
X551377D01*
X550277Y290900D02*
Y294800D01*
Y290900D02*
X551377D01*
Y294800D01*
X554200Y297623D02*
Y298723D01*
Y297623D02*
X558100D01*
Y298723D01*
X554200D02*
X558100D01*
X554200Y299592D02*
Y300692D01*
Y299592D02*
X558100D01*
Y300692D01*
X554200D02*
X558100D01*
X554200Y301560D02*
Y302660D01*
Y301560D02*
X558100D01*
Y302660D01*
X554200D02*
X558100D01*
X554200Y303529D02*
Y304629D01*
Y303529D02*
X558100D01*
Y304629D01*
X554200D02*
X558100D01*
X554200Y305497D02*
Y306597D01*
Y305497D02*
X558100D01*
Y306597D01*
X554200D02*
X558100D01*
X554200Y307466D02*
Y308566D01*
Y307466D02*
X558100D01*
Y308566D01*
X554200D02*
X558100D01*
X554200Y309434D02*
Y310534D01*
Y309434D02*
X558100D01*
Y310534D01*
X554200D02*
X558100D01*
X554200Y311403D02*
Y312503D01*
Y311403D02*
X558100D01*
Y312503D01*
X554200D02*
X558100D01*
X554200Y313371D02*
Y314471D01*
Y313371D02*
X558100D01*
Y314471D01*
X554200D02*
X558100D01*
X554200Y315340D02*
Y316440D01*
Y315340D02*
X558100D01*
Y316440D01*
X554200D02*
X558100D01*
X554200Y317308D02*
Y318408D01*
Y317308D02*
X558100D01*
Y318408D01*
X554200D02*
X558100D01*
X554200Y319277D02*
Y320377D01*
Y319277D02*
X558100D01*
Y320377D01*
X554200D02*
X558100D01*
X525800Y318200D02*
X530800Y323200D01*
X525800Y294800D02*
X554200D01*
Y323200D01*
X525800D02*
X554200D01*
X525800Y294800D02*
Y323200D01*
M02*
