G04*
G04 #@! TF.GenerationSoftware,Altium Limited,Altium NEXUS,2.1.7 (73)*
G04*
G04 Layer_Color=32768*
%FSLAX44Y44*%
%MOMM*%
G71*
G01*
G75*
%ADD62C,0.0254*%
%ADD63C,0.0762*%
D62*
X646580Y374120D02*
Y376660D01*
X644040Y375390D02*
X646580Y376660D01*
X644040Y375390D02*
X646580Y374120D01*
X628500D02*
Y376660D01*
X631040Y375390D01*
X628500Y374120D02*
X631040Y375390D01*
X644040D02*
X656740D01*
X618340D02*
X631040D01*
X644040Y371580D02*
Y415290D01*
X631040Y371580D02*
Y415290D01*
X572970Y432330D02*
X575510D01*
X574240Y429790D02*
X575510Y432330D01*
X572970D02*
X574240Y429790D01*
X572970Y398250D02*
X575510D01*
X574240Y400790D02*
X575510Y398250D01*
X572970D02*
X574240Y400790D01*
Y429790D02*
Y442490D01*
Y388090D02*
Y400790D01*
X570430Y429790D02*
X631040D01*
X570430Y400790D02*
X631040D01*
X598370Y420380D02*
X600910D01*
X599640Y417840D02*
X600910Y420380D01*
X598370D02*
X599640Y417840D01*
X598370Y410200D02*
X600910D01*
X599640Y412740D02*
X600910Y410200D01*
X598370D02*
X599640Y412740D01*
Y417840D02*
Y430540D01*
Y400040D02*
Y412740D01*
X595830Y417840D02*
X625040D01*
X595830Y412740D02*
X625040D01*
X674170Y428080D02*
X676710D01*
X675440Y425540D02*
X676710Y428080D01*
X674170D02*
X675440Y425540D01*
X674170Y402500D02*
X676710D01*
X675440Y405040D02*
X676710Y402500D01*
X674170D02*
X675440Y405040D01*
Y425540D02*
Y438240D01*
Y392340D02*
Y405040D01*
X650040Y425540D02*
X679250D01*
X650040Y405040D02*
X679250D01*
X633680Y447570D02*
Y450110D01*
X631140Y448840D02*
X633680Y450110D01*
X631140Y448840D02*
X633680Y447570D01*
X622500D02*
Y450110D01*
X625040Y448840D01*
X622500Y447570D02*
X625040Y448840D01*
X631140D02*
X643840D01*
X612340D02*
X625040D01*
X631140Y415290D02*
Y452650D01*
X625040Y415290D02*
Y452650D01*
X652580Y466620D02*
Y469160D01*
X650040Y467890D02*
X652580Y469160D01*
X650040Y467890D02*
X652580Y466620D01*
X622500D02*
Y469160D01*
X625040Y467890D01*
X622500Y466620D02*
X625040Y467890D01*
X650040D02*
X662740D01*
X612340D02*
X625040D01*
X650040Y415290D02*
Y471700D01*
X625040Y415290D02*
Y471700D01*
X635425Y329035D02*
X634367Y330093D01*
Y332209D01*
X635425Y333267D01*
X639657D01*
X640715Y332209D01*
Y330093D01*
X639657Y329035D01*
X635425D01*
X640715Y335383D02*
X639657D01*
Y336441D01*
X640715D01*
Y335383D01*
X635425Y340673D02*
X634367Y341731D01*
Y343847D01*
X635425Y344905D01*
X639657D01*
X640715Y343847D01*
Y341731D01*
X639657Y340673D01*
X635425D01*
X634367Y351253D02*
Y347021D01*
X637541D01*
X636483Y349137D01*
Y350195D01*
X637541Y351253D01*
X639657D01*
X640715Y350195D01*
Y348079D01*
X639657Y347021D01*
X640715Y353369D02*
Y355485D01*
Y354427D01*
X634367D01*
X635425Y353369D01*
X640715Y358659D02*
Y360775D01*
Y359717D01*
X636483D01*
Y358659D01*
X640715Y363949D02*
X636483D01*
Y367123D01*
X637541Y368181D01*
X640715D01*
Y370297D02*
X636483Y374529D01*
X640715Y376645D02*
Y378761D01*
Y377703D01*
X634367D01*
X635425Y376645D01*
X640715Y381935D02*
X639657D01*
Y382993D01*
X640715D01*
Y381935D01*
X635425Y387225D02*
X634367Y388283D01*
Y390398D01*
X635425Y391456D01*
X636483D01*
X637541Y390398D01*
Y389341D01*
Y390398D01*
X638599Y391456D01*
X639657D01*
X640715Y390398D01*
Y388283D01*
X639657Y387225D01*
X640715Y393572D02*
X636483D01*
Y394630D01*
X637541Y395688D01*
X640715D01*
X637541D01*
X636483Y396746D01*
X637541Y397804D01*
X640715D01*
Y399920D02*
X636483D01*
Y400978D01*
X637541Y402036D01*
X640715D01*
X637541D01*
X636483Y403094D01*
X637541Y404152D01*
X640715D01*
X563870Y394652D02*
X562812Y395710D01*
Y397826D01*
X563870Y398885D01*
X568102D01*
X569160Y397826D01*
Y395710D01*
X568102Y394652D01*
X563870D01*
X569160Y401000D02*
X568102D01*
Y402058D01*
X569160D01*
Y401000D01*
Y406290D02*
Y408406D01*
Y407348D01*
X562812D01*
X563870Y406290D01*
X569160Y411580D02*
Y413696D01*
Y412638D01*
X562812D01*
X563870Y411580D01*
X569160Y420044D02*
X562812D01*
X565986Y416870D01*
Y421102D01*
X569160Y423218D02*
Y425334D01*
Y424276D01*
X564928D01*
Y423218D01*
X569160Y428508D02*
X564928D01*
Y431682D01*
X565986Y432740D01*
X569160D01*
Y434856D02*
X564928Y439088D01*
X569160Y445436D02*
Y441204D01*
X564928Y445436D01*
X563870D01*
X562812Y444378D01*
Y442262D01*
X563870Y441204D01*
X569160Y447552D02*
X568102D01*
Y448610D01*
X569160D01*
Y447552D01*
X568102Y452842D02*
X569160Y453900D01*
Y456016D01*
X568102Y457074D01*
X563870D01*
X562812Y456016D01*
Y453900D01*
X563870Y452842D01*
X564928D01*
X565986Y453900D01*
Y457074D01*
X569160Y459190D02*
X564928D01*
Y460248D01*
X565986Y461306D01*
X569160D01*
X565986D01*
X564928Y462364D01*
X565986Y463422D01*
X569160D01*
Y465538D02*
X564928D01*
Y466596D01*
X565986Y467654D01*
X569160D01*
X565986D01*
X564928Y468712D01*
X565986Y469770D01*
X569160D01*
X589270Y394652D02*
X588212Y395710D01*
Y397826D01*
X589270Y398885D01*
X593502D01*
X594560Y397826D01*
Y395710D01*
X593502Y394652D01*
X589270D01*
X594560Y401000D02*
X593502D01*
Y402058D01*
X594560D01*
Y401000D01*
X589270Y406290D02*
X588212Y407348D01*
Y409464D01*
X589270Y410522D01*
X593502D01*
X594560Y409464D01*
Y407348D01*
X593502Y406290D01*
X589270D01*
X594560Y416870D02*
Y412638D01*
X590328Y416870D01*
X589270D01*
X588212Y415812D01*
Y413696D01*
X589270Y412638D01*
X594560Y418986D02*
Y421102D01*
Y420044D01*
X590328D01*
Y418986D01*
X594560Y424276D02*
X590328D01*
Y427450D01*
X591386Y428508D01*
X594560D01*
Y430624D02*
X590328Y434856D01*
X589270Y436972D02*
X588212Y438030D01*
Y440146D01*
X589270Y441204D01*
X593502D01*
X594560Y440146D01*
Y438030D01*
X593502Y436972D01*
X589270D01*
X594560Y443320D02*
X593502D01*
Y444378D01*
X594560D01*
Y443320D01*
X588212Y452842D02*
Y448610D01*
X591386D01*
X590328Y450726D01*
Y451784D01*
X591386Y452842D01*
X593502D01*
X594560Y451784D01*
Y449668D01*
X593502Y448610D01*
X594560Y454958D02*
Y457074D01*
Y456016D01*
X588212D01*
X589270Y454958D01*
X594560Y460248D02*
X590328D01*
Y461306D01*
X591386Y462364D01*
X594560D01*
X591386D01*
X590328Y463422D01*
X591386Y464480D01*
X594560D01*
Y466596D02*
X590328D01*
Y467654D01*
X591386Y468712D01*
X594560D01*
X591386D01*
X590328Y469770D01*
X591386Y470828D01*
X594560D01*
X681580Y393065D02*
X680522Y394123D01*
Y396239D01*
X681580Y397297D01*
X685812D01*
X686870Y396239D01*
Y394123D01*
X685812Y393065D01*
X681580D01*
X686870Y399413D02*
X685812D01*
Y400471D01*
X686870D01*
Y399413D01*
X681580Y404703D02*
X680522Y405761D01*
Y407877D01*
X681580Y408935D01*
X685812D01*
X686870Y407877D01*
Y405761D01*
X685812Y404703D01*
X681580D01*
Y411051D02*
X680522Y412109D01*
Y414225D01*
X681580Y415283D01*
X682638D01*
X683696Y414225D01*
X684754Y415283D01*
X685812D01*
X686870Y414225D01*
Y412109D01*
X685812Y411051D01*
X684754D01*
X683696Y412109D01*
X682638Y411051D01*
X681580D01*
X683696Y412109D02*
Y414225D01*
X686870Y417399D02*
Y419515D01*
Y418457D01*
X680522D01*
X681580Y417399D01*
X686870Y422689D02*
Y424805D01*
Y423747D01*
X682638D01*
Y422689D01*
X686870Y427979D02*
X682638D01*
Y431153D01*
X683696Y432211D01*
X686870D01*
Y434327D02*
X682638Y438559D01*
X686870Y444907D02*
Y440675D01*
X682638Y444907D01*
X681580D01*
X680522Y443849D01*
Y441733D01*
X681580Y440675D01*
X686870Y447023D02*
X685812D01*
Y448080D01*
X686870D01*
Y447023D01*
X681580Y452313D02*
X680522Y453371D01*
Y455486D01*
X681580Y456544D01*
X685812D01*
X686870Y455486D01*
Y453371D01*
X685812Y452313D01*
X681580D01*
X680522Y462892D02*
Y458660D01*
X683696D01*
X682638Y460776D01*
Y461834D01*
X683696Y462892D01*
X685812D01*
X686870Y461834D01*
Y459718D01*
X685812Y458660D01*
X686870Y465008D02*
X682638D01*
Y466066D01*
X683696Y467124D01*
X686870D01*
X683696D01*
X682638Y468182D01*
X683696Y469240D01*
X686870D01*
Y471356D02*
X682638D01*
Y472414D01*
X683696Y473472D01*
X686870D01*
X683696D01*
X682638Y474530D01*
X683696Y475588D01*
X686870D01*
X625975Y453920D02*
X624917Y454978D01*
Y457094D01*
X625975Y458152D01*
X630207D01*
X631265Y457094D01*
Y454978D01*
X630207Y453920D01*
X625975D01*
X631265Y460268D02*
X630207D01*
Y461326D01*
X631265D01*
Y460268D01*
X625975Y465558D02*
X624917Y466616D01*
Y468732D01*
X625975Y469790D01*
X630207D01*
X631265Y468732D01*
Y466616D01*
X630207Y465558D01*
X625975D01*
X631265Y476138D02*
Y471906D01*
X627033Y476138D01*
X625975D01*
X624917Y475080D01*
Y472964D01*
X625975Y471906D01*
X631265Y481428D02*
X624917D01*
X628091Y478254D01*
Y482486D01*
X631265Y484602D02*
Y486718D01*
Y485660D01*
X627033D01*
Y484602D01*
X631265Y489892D02*
X627033D01*
Y493066D01*
X628091Y494124D01*
X631265D01*
Y496240D02*
X627033Y500472D01*
X625975Y502588D02*
X624917Y503646D01*
Y505761D01*
X625975Y506819D01*
X630207D01*
X631265Y505761D01*
Y503646D01*
X630207Y502588D01*
X625975D01*
X631265Y508936D02*
X630207D01*
Y509994D01*
X631265D01*
Y508936D01*
X624917Y518457D02*
X625975Y516341D01*
X628091Y514226D01*
X630207D01*
X631265Y515283D01*
Y517399D01*
X630207Y518457D01*
X629149D01*
X628091Y517399D01*
Y514226D01*
X631265Y520573D02*
Y522689D01*
Y521631D01*
X624917D01*
X625975Y520573D01*
X631265Y525863D02*
X627033D01*
Y526921D01*
X628091Y527979D01*
X631265D01*
X628091D01*
X627033Y529037D01*
X628091Y530095D01*
X631265D01*
Y532211D02*
X627033D01*
Y533269D01*
X628091Y534327D01*
X631265D01*
X628091D01*
X627033Y535385D01*
X628091Y536443D01*
X631265D01*
X635425Y472970D02*
X634367Y474028D01*
Y476144D01*
X635425Y477202D01*
X639657D01*
X640715Y476144D01*
Y474028D01*
X639657Y472970D01*
X635425D01*
X640715Y479318D02*
X639657D01*
Y480376D01*
X640715D01*
Y479318D01*
X635425Y484608D02*
X634367Y485666D01*
Y487782D01*
X635425Y488840D01*
X639657D01*
X640715Y487782D01*
Y485666D01*
X639657Y484608D01*
X635425D01*
X639657Y490956D02*
X640715Y492014D01*
Y494130D01*
X639657Y495188D01*
X635425D01*
X634367Y494130D01*
Y492014D01*
X635425Y490956D01*
X636483D01*
X637541Y492014D01*
Y495188D01*
X635425Y497304D02*
X634367Y498362D01*
Y500478D01*
X635425Y501536D01*
X636483D01*
X637541Y500478D01*
X638599Y501536D01*
X639657D01*
X640715Y500478D01*
Y498362D01*
X639657Y497304D01*
X638599D01*
X637541Y498362D01*
X636483Y497304D01*
X635425D01*
X637541Y498362D02*
Y500478D01*
X640715Y503652D02*
Y505768D01*
Y504710D01*
X636483D01*
Y503652D01*
X640715Y508942D02*
X636483D01*
Y512116D01*
X637541Y513174D01*
X640715D01*
Y515290D02*
X636483Y519522D01*
X640715Y525869D02*
Y521638D01*
X636483Y525869D01*
X635425D01*
X634367Y524812D01*
Y522696D01*
X635425Y521638D01*
X640715Y527985D02*
X639657D01*
Y529044D01*
X640715D01*
Y527985D01*
X634367Y537507D02*
Y533275D01*
X637541D01*
X636483Y535391D01*
Y536449D01*
X637541Y537507D01*
X639657D01*
X640715Y536449D01*
Y534333D01*
X639657Y533275D01*
X640715Y539623D02*
X636483D01*
Y540681D01*
X637541Y541739D01*
X640715D01*
X637541D01*
X636483Y542797D01*
X637541Y543855D01*
X640715D01*
Y545971D02*
X636483D01*
Y547029D01*
X637541Y548087D01*
X640715D01*
X637541D01*
X636483Y549145D01*
X637541Y550203D01*
X640715D01*
D63*
X776190Y329565D02*
X767726D01*
X763494Y333797D01*
X767726Y338029D01*
X776190D01*
X769842D01*
Y329565D01*
X776190Y342261D02*
Y346493D01*
Y344377D01*
X763494D01*
Y342261D01*
X765610Y354957D02*
X767726D01*
Y352841D01*
Y357073D01*
Y354957D01*
X774074D01*
X776190Y357073D01*
Y384580D02*
Y376117D01*
X767726Y384580D01*
X765610D01*
X763494Y382464D01*
Y378233D01*
X765610Y376117D01*
X776190Y401508D02*
X763494D01*
Y407856D01*
X765610Y409972D01*
X769842D01*
X771958Y407856D01*
Y401508D01*
X767726Y416320D02*
Y420552D01*
X769842Y422668D01*
X776190D01*
Y416320D01*
X774074Y414204D01*
X771958Y416320D01*
Y422668D01*
X763494Y435364D02*
X776190D01*
Y429016D01*
X774074Y426900D01*
X769842D01*
X767726Y429016D01*
Y435364D01*
X776190Y439596D02*
Y445944D01*
X774074Y448060D01*
X771958Y445944D01*
Y441712D01*
X769842Y439596D01*
X767726Y441712D01*
Y448060D01*
X765610Y454408D02*
X767726D01*
Y452292D01*
Y456524D01*
Y454408D01*
X774074D01*
X776190Y456524D01*
X767726Y462872D02*
X774074D01*
X776190Y464988D01*
Y471336D01*
X778306D01*
X780422Y469220D01*
Y467104D01*
X776190Y471336D02*
X767726D01*
X776190Y475568D02*
Y479800D01*
Y477684D01*
X763494D01*
Y475568D01*
X776190Y492496D02*
Y488264D01*
X774074Y486148D01*
X769842D01*
X767726Y488264D01*
Y492496D01*
X769842Y494612D01*
X771958D01*
Y486148D01*
X767726Y498843D02*
Y500960D01*
X769842D01*
Y498843D01*
X767726D01*
X774074D02*
Y500960D01*
X776190D01*
Y498843D01*
X774074D01*
X763494Y522119D02*
X776190D01*
Y528467D01*
X774074Y530583D01*
X771958D01*
X769842D01*
X767726Y528467D01*
Y522119D01*
X776190Y543279D02*
Y534815D01*
X767726Y543279D01*
X765610D01*
X763494Y541163D01*
Y536931D01*
X765610Y534815D01*
X776190Y555975D02*
Y547511D01*
X767726Y555975D01*
X765610D01*
X763494Y553859D01*
Y549627D01*
X765610Y547511D01*
X774074Y560207D02*
X776190Y562323D01*
Y566555D01*
X774074Y568671D01*
X765610D01*
X763494Y566555D01*
Y562323D01*
X765610Y560207D01*
X767726D01*
X769842Y562323D01*
Y568671D01*
X778306Y572903D02*
Y581367D01*
X776190Y585599D02*
Y589831D01*
Y587715D01*
X763494D01*
X765610Y585599D01*
X763494Y604643D02*
Y596179D01*
X769842D01*
X767726Y600411D01*
Y602527D01*
X769842Y604643D01*
X774074D01*
X776190Y602527D01*
Y598295D01*
X774074Y596179D01*
X776190Y617338D02*
Y608875D01*
X767726Y617338D01*
X765610D01*
X763494Y615223D01*
Y610990D01*
X765610Y608875D01*
X763494Y621570D02*
X776190D01*
X769842D01*
X767726Y623686D01*
Y627918D01*
X769842Y630034D01*
X776190D01*
X763494Y634266D02*
Y642730D01*
X765610D01*
X774074Y634266D01*
X776190D01*
X763494Y655426D02*
X765610Y651194D01*
X769842Y646962D01*
X774074D01*
X776190Y649078D01*
Y653310D01*
X774074Y655426D01*
X771958D01*
X769842Y653310D01*
Y646962D01*
X757140Y329565D02*
X748676D01*
X744444Y333797D01*
X748676Y338029D01*
X757140D01*
X750792D01*
Y329565D01*
X757140Y342261D02*
Y346493D01*
Y344377D01*
X744444D01*
Y342261D01*
X746560Y354957D02*
X748676D01*
Y352841D01*
Y357073D01*
Y354957D01*
X755024D01*
X757140Y357073D01*
Y376117D02*
Y380349D01*
Y378233D01*
X744444D01*
X746560Y376117D01*
X757140Y399392D02*
X744444D01*
Y405740D01*
X746560Y407856D01*
X750792D01*
X752908Y405740D01*
Y399392D01*
X748676Y414204D02*
Y418436D01*
X750792Y420552D01*
X757140D01*
Y414204D01*
X755024Y412088D01*
X752908Y414204D01*
Y420552D01*
X744444Y433248D02*
X757140D01*
Y426900D01*
X755024Y424784D01*
X750792D01*
X748676Y426900D01*
Y433248D01*
X757140Y437480D02*
Y443828D01*
X755024Y445944D01*
X752908Y443828D01*
Y439596D01*
X750792Y437480D01*
X748676Y439596D01*
Y445944D01*
X746560Y452292D02*
X748676D01*
Y450176D01*
Y454408D01*
Y452292D01*
X755024D01*
X757140Y454408D01*
X748676Y460756D02*
X755024D01*
X757140Y462872D01*
Y469220D01*
X759256D01*
X761372Y467104D01*
Y464988D01*
X757140Y469220D02*
X748676D01*
X757140Y473452D02*
Y477684D01*
Y475568D01*
X744444D01*
Y473452D01*
X757140Y490380D02*
Y486148D01*
X755024Y484032D01*
X750792D01*
X748676Y486148D01*
Y490380D01*
X750792Y492496D01*
X752908D01*
Y484032D01*
X748676Y496727D02*
Y498843D01*
X750792D01*
Y496727D01*
X748676D01*
X755024D02*
Y498843D01*
X757140D01*
Y496727D01*
X755024D01*
X744444Y520003D02*
X757140D01*
Y526351D01*
X755024Y528467D01*
X752908D01*
X750792D01*
X748676Y526351D01*
Y520003D01*
X757140Y532699D02*
Y536931D01*
Y534815D01*
X744444D01*
X746560Y532699D01*
X744444Y551743D02*
Y543279D01*
X750792D01*
X748676Y547511D01*
Y549627D01*
X750792Y551743D01*
X755024D01*
X757140Y549627D01*
Y545395D01*
X755024Y543279D01*
X757140Y564439D02*
Y555975D01*
X748676Y564439D01*
X746560D01*
X744444Y562323D01*
Y558091D01*
X746560Y555975D01*
X759256Y568671D02*
Y577135D01*
X757140Y589831D02*
Y581367D01*
X748676Y589831D01*
X746560D01*
X744444Y587715D01*
Y583483D01*
X746560Y581367D01*
X757140Y602527D02*
Y594063D01*
X748676Y602527D01*
X746560D01*
X744444Y600411D01*
Y596179D01*
X746560Y594063D01*
X755024Y606759D02*
X757140Y608875D01*
Y613106D01*
X755024Y615223D01*
X746560D01*
X744444Y613106D01*
Y608875D01*
X746560Y606759D01*
X748676D01*
X750792Y608875D01*
Y615223D01*
X744444Y619454D02*
X757140D01*
X750792D01*
X748676Y621570D01*
Y625802D01*
X750792Y627918D01*
X757140D01*
X744444Y632150D02*
Y640614D01*
X746560D01*
X755024Y632150D01*
X757140D01*
X744444Y653310D02*
X746560Y649078D01*
X750792Y644846D01*
X755024D01*
X757140Y646962D01*
Y651194D01*
X755024Y653310D01*
X752908D01*
X750792Y651194D01*
Y644846D01*
X725394Y339090D02*
X738090D01*
Y345438D01*
X735974Y347554D01*
X733858D01*
X731742Y345438D01*
Y339090D01*
Y345438D01*
X729626Y347554D01*
X727510D01*
X725394Y345438D01*
Y339090D01*
X738090Y353902D02*
Y358134D01*
X735974Y360250D01*
X731742D01*
X729626Y358134D01*
Y353902D01*
X731742Y351786D01*
X735974D01*
X738090Y353902D01*
X727510Y366598D02*
X729626D01*
Y364482D01*
Y368714D01*
Y366598D01*
X735974D01*
X738090Y368714D01*
X727510Y377178D02*
X729626D01*
Y375062D01*
Y379294D01*
Y377178D01*
X735974D01*
X738090Y379294D01*
Y387758D02*
Y391990D01*
X735974Y394105D01*
X731742D01*
X729626Y391990D01*
Y387758D01*
X731742Y385642D01*
X735974D01*
X738090Y387758D01*
Y398338D02*
X729626D01*
Y400453D01*
X731742Y402570D01*
X738090D01*
X731742D01*
X729626Y404685D01*
X731742Y406801D01*
X738090D01*
Y423729D02*
X725394D01*
Y430077D01*
X727510Y432193D01*
X731742D01*
X733858Y430077D01*
Y423729D01*
X729626Y438541D02*
Y442773D01*
X731742Y444889D01*
X738090D01*
Y438541D01*
X735974Y436425D01*
X733858Y438541D01*
Y444889D01*
X725394Y457585D02*
X738090D01*
Y451237D01*
X735974Y449121D01*
X731742D01*
X729626Y451237D01*
Y457585D01*
X738090Y461817D02*
Y468165D01*
X735974Y470281D01*
X733858Y468165D01*
Y463933D01*
X731742Y461817D01*
X729626Y463933D01*
Y470281D01*
X727510Y476629D02*
X729626D01*
Y474513D01*
Y478745D01*
Y476629D01*
X735974D01*
X738090Y478745D01*
X729626Y485093D02*
X735974D01*
X738090Y487209D01*
Y493557D01*
X740206D01*
X742322Y491441D01*
Y489325D01*
X738090Y493557D02*
X729626D01*
X738090Y497789D02*
Y502021D01*
Y499905D01*
X725394D01*
Y497789D01*
X738090Y514716D02*
Y510485D01*
X735974Y508368D01*
X731742D01*
X729626Y510485D01*
Y514716D01*
X731742Y516832D01*
X733858D01*
Y508368D01*
X729626Y521064D02*
Y523180D01*
X731742D01*
Y521064D01*
X729626D01*
X735974D02*
Y523180D01*
X738090D01*
Y521064D01*
X735974D01*
X729626Y544340D02*
X738090D01*
X733858D01*
X731742Y546456D01*
X729626Y548572D01*
Y550688D01*
X725394Y565500D02*
X727510Y561268D01*
X731742Y557036D01*
X735974D01*
X738090Y559152D01*
Y563384D01*
X735974Y565500D01*
X733858D01*
X731742Y563384D01*
Y557036D01*
X738090Y569732D02*
Y573964D01*
Y571848D01*
X725394D01*
X727510Y569732D01*
X740206Y580312D02*
Y588776D01*
X738090Y593008D02*
Y597240D01*
Y595124D01*
X725394D01*
X727510Y593008D01*
X725394Y612052D02*
X727510Y607820D01*
X731742Y603588D01*
X735974D01*
X738090Y605704D01*
Y609936D01*
X735974Y612052D01*
X733858D01*
X731742Y609936D01*
Y603588D01*
X738090Y616284D02*
Y620516D01*
Y618400D01*
X725394D01*
X727510Y616284D01*
X706344Y348615D02*
Y357079D01*
Y352847D01*
X719040D01*
Y363427D02*
Y367659D01*
X716924Y369775D01*
X712692D01*
X710576Y367659D01*
Y363427D01*
X712692Y361311D01*
X716924D01*
X719040Y363427D01*
X723272Y374007D02*
X710576D01*
Y380355D01*
X712692Y382471D01*
X716924D01*
X719040Y380355D01*
Y374007D01*
Y399398D02*
X706344D01*
Y405746D01*
X708460Y407863D01*
X712692D01*
X714808Y405746D01*
Y399398D01*
X710576Y414210D02*
Y418442D01*
X712692Y420558D01*
X719040D01*
Y414210D01*
X716924Y412094D01*
X714808Y414210D01*
Y420558D01*
X706344Y433254D02*
X719040D01*
Y426906D01*
X716924Y424790D01*
X712692D01*
X710576Y426906D01*
Y433254D01*
X719040Y437486D02*
Y443834D01*
X716924Y445950D01*
X714808Y443834D01*
Y439602D01*
X712692Y437486D01*
X710576Y439602D01*
Y445950D01*
X708460Y452298D02*
X710576D01*
Y450182D01*
Y454414D01*
Y452298D01*
X716924D01*
X719040Y454414D01*
X710576Y460762D02*
X716924D01*
X719040Y462878D01*
Y469226D01*
X721156D01*
X723272Y467110D01*
Y464994D01*
X719040Y469226D02*
X710576D01*
X719040Y473458D02*
Y477690D01*
Y475574D01*
X706344D01*
Y473458D01*
X719040Y490386D02*
Y486154D01*
X716924Y484038D01*
X712692D01*
X710576Y486154D01*
Y490386D01*
X712692Y492502D01*
X714808D01*
Y484038D01*
X710576Y496734D02*
Y498850D01*
X712692D01*
Y496734D01*
X710576D01*
X716924D02*
Y498850D01*
X719040D01*
Y496734D01*
X716924D01*
X710576Y520009D02*
X719040D01*
X714808D01*
X712692Y522125D01*
X710576Y524241D01*
Y526357D01*
X706344Y541169D02*
X708460Y536937D01*
X712692Y532705D01*
X716924D01*
X719040Y534821D01*
Y539053D01*
X716924Y541169D01*
X714808D01*
X712692Y539053D01*
Y532705D01*
X719040Y545401D02*
Y549633D01*
Y547517D01*
X706344D01*
X708460Y545401D01*
X721156Y555981D02*
Y564445D01*
X719040Y568677D02*
Y572909D01*
Y570793D01*
X706344D01*
X708460Y568677D01*
X706344Y587721D02*
X708460Y583489D01*
X712692Y579257D01*
X716924D01*
X719040Y581373D01*
Y585605D01*
X716924Y587721D01*
X714808D01*
X712692Y585605D01*
Y579257D01*
X719040Y591953D02*
Y596185D01*
Y594069D01*
X706344D01*
X708460Y591953D01*
M02*
