%TF.GenerationSoftware,Altium Limited,Altium NEXUS,2.1.7 (73)*%
G04 Layer_Color=255*
%FSLAX44Y44*%
%MOMM*%
%TF.FileFunction,Pads,Bot*%
%TF.Part,Single*%
G01*
G75*
%TA.AperFunction,ViaPad*%
%ADD24C,0.6500*%
%TA.AperFunction,WasherPad*%
%ADD25C,1.5240*%
%TA.AperFunction,ComponentPad*%
%ADD26C,0.9000*%
%ADD27R,1.6000X1.6000*%
%ADD28C,1.6000*%
%ADD29C,2.4000*%
%ADD30C,2.2500*%
%ADD31R,1.7000X1.7000*%
%ADD32C,1.7000*%
%ADD33R,1.6000X1.6000*%
D24*
X698500Y447040D02*
D03*
X393700Y800100D02*
D03*
X621660Y798830D02*
D03*
X581660D02*
D03*
X433070Y800100D02*
D03*
X547370Y850900D02*
D03*
X508000D02*
D03*
X467360D02*
D03*
X547370Y890900D02*
D03*
X508000D02*
D03*
X467360D02*
D03*
D25*
X284480Y886460D02*
D03*
X839470D02*
D03*
Y298450D02*
D03*
X284480D02*
D03*
D26*
X718820Y335280D02*
D03*
X674820D02*
D03*
D27*
X340360Y461010D02*
D03*
X774370Y561340D02*
D03*
X340360Y410210D02*
D03*
Y511810D02*
D03*
X774370Y408940D02*
D03*
D28*
X340360Y486410D02*
D03*
X774370Y586740D02*
D03*
Y612140D02*
D03*
Y637540D02*
D03*
Y662940D02*
D03*
Y688340D02*
D03*
X340360Y384810D02*
D03*
Y689610D02*
D03*
Y664210D02*
D03*
Y638810D02*
D03*
Y613410D02*
D03*
Y588010D02*
D03*
Y562610D02*
D03*
Y537210D02*
D03*
X774370Y434340D02*
D03*
Y459740D02*
D03*
Y485140D02*
D03*
Y510540D02*
D03*
X543560Y424180D02*
D03*
X518160D02*
D03*
X492760D02*
D03*
X467360D02*
D03*
X441960D02*
D03*
D29*
X581650Y845970D02*
D03*
Y896770D02*
D03*
X632450D02*
D03*
Y845970D02*
D03*
X381330Y846020D02*
D03*
Y896820D02*
D03*
X432130D02*
D03*
Y846020D02*
D03*
D30*
X607050Y871370D02*
D03*
X406730Y871420D02*
D03*
D31*
X332740Y321310D02*
D03*
D32*
X367740D02*
D03*
D33*
X568960Y424180D02*
D03*
%TF.MD5,ee0e15951ad88de33e02542d895c3e3a*%
M02*
