G04*
G04 #@! TF.GenerationSoftware,Altium Limited,Altium NEXUS,2.1.7 (73)*
G04*
G04 Layer_Color=128*
%FSLAX44Y44*%
%MOMM*%
G71*
G01*
G75*
%ADD67C,0.0508*%
D67*
X696750Y447040D02*
X700250D01*
X698500Y445290D02*
Y448790D01*
X391950Y800100D02*
X395450D01*
X393700Y798350D02*
Y801850D01*
X619910Y798830D02*
X623410D01*
X621660Y797080D02*
Y800580D01*
X579910Y798830D02*
X583410D01*
X581660Y797080D02*
Y800580D01*
X431320Y800100D02*
X434820D01*
X433070Y798350D02*
Y801850D01*
X545620Y850900D02*
X549120D01*
X547370Y849150D02*
Y852650D01*
X506250Y850900D02*
X509750D01*
X508000Y849150D02*
Y852650D01*
X465610Y850900D02*
X469110D01*
X467360Y849150D02*
Y852650D01*
X545620Y890900D02*
X549120D01*
X547370Y889150D02*
Y892650D01*
X506250Y890900D02*
X509750D01*
X508000Y889150D02*
Y892650D01*
X465610Y890900D02*
X469110D01*
X467360Y889150D02*
Y892650D01*
X268480Y886460D02*
X300480D01*
X284480Y870460D02*
Y902460D01*
X823470Y886460D02*
X855470D01*
X839470Y870460D02*
Y902460D01*
X823470Y298450D02*
X855470D01*
X839470Y282450D02*
Y314450D01*
X268480Y298450D02*
X300480D01*
X284480Y282450D02*
Y314450D01*
X714320Y335280D02*
X723320D01*
X718820Y330780D02*
Y339780D01*
X670320Y335280D02*
X679320D01*
X674820Y330780D02*
Y339780D01*
X334860Y461010D02*
X345860D01*
X340360Y455510D02*
Y466510D01*
X334860Y486410D02*
X345860D01*
X340360Y480910D02*
Y491910D01*
X768870Y561340D02*
X779870D01*
X774370Y555840D02*
Y566840D01*
X768870Y586740D02*
X779870D01*
X774370Y581240D02*
Y592240D01*
X768870Y612140D02*
X779870D01*
X774370Y606640D02*
Y617640D01*
X768870Y637540D02*
X779870D01*
X774370Y632040D02*
Y643040D01*
X768870Y662940D02*
X779870D01*
X774370Y657440D02*
Y668440D01*
X768870Y688340D02*
X779870D01*
X774370Y682840D02*
Y693840D01*
X334860Y410210D02*
X345860D01*
X340360Y404710D02*
Y415710D01*
X334860Y384810D02*
X345860D01*
X340360Y379310D02*
Y390310D01*
X334860Y689610D02*
X345860D01*
X340360Y684110D02*
Y695110D01*
X334860Y664210D02*
X345860D01*
X340360Y658710D02*
Y669710D01*
X334860Y638810D02*
X345860D01*
X340360Y633310D02*
Y644310D01*
X334860Y613410D02*
X345860D01*
X340360Y607910D02*
Y618910D01*
X334860Y588010D02*
X345860D01*
X340360Y582510D02*
Y593510D01*
X334860Y562610D02*
X345860D01*
X340360Y557110D02*
Y568110D01*
X334860Y537210D02*
X345860D01*
X340360Y531710D02*
Y542710D01*
X334860Y511810D02*
X345860D01*
X340360Y506310D02*
Y517310D01*
X573650Y845970D02*
X589650D01*
X581650Y837970D02*
Y853970D01*
X573650Y896770D02*
X589650D01*
X581650Y888770D02*
Y904770D01*
X624450Y896770D02*
X640450D01*
X632450Y888770D02*
Y904770D01*
X599550Y871370D02*
X614550D01*
X607050Y863870D02*
Y878870D01*
X624450Y845970D02*
X640450D01*
X632450Y837970D02*
Y853970D01*
X373330Y846020D02*
X389330D01*
X381330Y838020D02*
Y854020D01*
X373330Y896820D02*
X389330D01*
X381330Y888820D02*
Y904820D01*
X424130Y896820D02*
X440130D01*
X432130Y888820D02*
Y904820D01*
X399230Y871420D02*
X414230D01*
X406730Y863920D02*
Y878920D01*
X424130Y846020D02*
X440130D01*
X432130Y838020D02*
Y854020D01*
X326740Y321310D02*
X338740D01*
X332740Y315310D02*
Y327310D01*
X361740Y321310D02*
X373740D01*
X367740Y315310D02*
Y327310D01*
X768870Y408940D02*
X779870D01*
X774370Y403440D02*
Y414440D01*
X768870Y434340D02*
X779870D01*
X774370Y428840D02*
Y439840D01*
X768870Y459740D02*
X779870D01*
X774370Y454240D02*
Y465240D01*
X768870Y485140D02*
X779870D01*
X774370Y479640D02*
Y490640D01*
X768870Y510540D02*
X779870D01*
X774370Y505040D02*
Y516040D01*
X563460Y424180D02*
X574460D01*
X568960Y418680D02*
Y429680D01*
X538060Y424180D02*
X549060D01*
X543560Y418680D02*
Y429680D01*
X512660Y424180D02*
X523660D01*
X518160Y418680D02*
Y429680D01*
X487260Y424180D02*
X498260D01*
X492760Y418680D02*
Y429680D01*
X461860Y424180D02*
X472860D01*
X467360Y418680D02*
Y429680D01*
X436460Y424180D02*
X447460D01*
X441960Y418680D02*
Y429680D01*
X532920Y279400D02*
X536420D01*
X534670Y277650D02*
Y281150D01*
X577370Y279400D02*
X580870D01*
X579120Y277650D02*
Y281150D01*
X758980Y426720D02*
X762480D01*
X760730Y424970D02*
Y428470D01*
X747550Y389890D02*
X751050D01*
X749300Y388140D02*
Y391640D01*
X747550Y426720D02*
X751050D01*
X749300Y424970D02*
Y428470D01*
X659920Y554990D02*
X663420D01*
X661670Y553240D02*
Y556740D01*
X687860Y485140D02*
X691360D01*
X689610Y483390D02*
Y486890D01*
X610390Y518160D02*
X613890D01*
X612140Y516410D02*
Y519910D01*
X676430Y474980D02*
X679930D01*
X678180Y473230D02*
Y476730D01*
X606580Y466090D02*
X610080D01*
X608330Y464340D02*
Y467840D01*
X746280Y519430D02*
X749780D01*
X748030Y517680D02*
Y521180D01*
X746020Y500640D02*
X749520D01*
X747770Y498890D02*
Y502390D01*
X708180Y382270D02*
X711680D01*
X709930Y380520D02*
Y384020D01*
X454180Y278130D02*
X457680D01*
X455930Y276380D02*
Y279880D01*
X454180Y323850D02*
X457680D01*
X455930Y322100D02*
Y325600D01*
X416080Y278130D02*
X419580D01*
X417830Y276380D02*
Y279880D01*
X416080Y323850D02*
X419580D01*
X417830Y322100D02*
Y325600D01*
X619280Y542290D02*
X622780D01*
X621030Y540540D02*
Y544040D01*
X571020Y669290D02*
X574520D01*
X572770Y667540D02*
Y671040D01*
X437670Y669290D02*
X441170D01*
X439420Y667540D02*
Y671040D01*
X447830Y544830D02*
X451330D01*
X449580Y543080D02*
Y546580D01*
X456720Y533400D02*
X460220D01*
X458470Y531650D02*
Y535150D01*
X610390Y604520D02*
X613890D01*
X612140Y602770D02*
Y606270D01*
X610390Y591820D02*
X613890D01*
X612140Y590070D02*
Y593570D01*
X610390Y553720D02*
X613890D01*
X612140Y551970D02*
Y555470D01*
M02*
