%TF.GenerationSoftware,Altium Limited,Altium NEXUS,2.1.7 (73)*%
G04 Layer_Color=8388736*
%FSLAX44Y44*%
%MOMM*%
%TF.FileFunction,Soldermask,Top*%
%TF.Part,Single*%
G01*
G75*
%TA.AperFunction,SMDPad,CuDef*%
%ADD12R,1.6100X0.6100*%
%ADD41R,1.3032X1.5832*%
%ADD42R,1.2032X1.1032*%
%ADD43R,1.2032X1.3032*%
%ADD44R,2.2032X2.7032*%
%ADD45R,0.7032X2.7032*%
%ADD46R,1.0032X1.1032*%
%ADD47R,1.6002X0.5512*%
%ADD48R,1.1032X1.0032*%
%ADD49R,1.2192X1.7272*%
%ADD50R,1.7272X1.2192*%
%ADD51R,0.9032X1.1032*%
%TA.AperFunction,ViaPad*%
%ADD52C,0.8532*%
%TA.AperFunction,WasherPad*%
%ADD53C,1.7272*%
%TA.AperFunction,ComponentPad*%
%ADD54C,1.1032*%
%ADD55R,1.8032X1.8032*%
%ADD56C,1.8032*%
%ADD57C,2.6032*%
%ADD58C,2.4532*%
%ADD59R,1.9032X1.9032*%
%ADD60C,1.9032*%
%ADD61R,1.8032X1.8032*%
D12*
X627590Y415290D02*
D03*
X647490Y425540D02*
D03*
Y405040D02*
D03*
D41*
X628910Y387350D02*
D03*
X646170D02*
D03*
X638550Y444500D02*
D03*
X621290D02*
D03*
X680980Y400050D02*
D03*
X698240D02*
D03*
D42*
X586740Y289950D02*
D03*
Y306950D02*
D03*
X637540Y532520D02*
D03*
Y549520D02*
D03*
X542290Y289950D02*
D03*
Y306950D02*
D03*
X497840Y288680D02*
D03*
Y305680D02*
D03*
X455930Y308220D02*
D03*
Y291220D02*
D03*
X417830Y306950D02*
D03*
Y289950D02*
D03*
D43*
X608330D02*
D03*
Y306950D02*
D03*
X563880Y289950D02*
D03*
Y306950D02*
D03*
X519430Y289950D02*
D03*
Y306950D02*
D03*
X474980Y290340D02*
D03*
Y307340D02*
D03*
X436880Y291220D02*
D03*
Y308220D02*
D03*
D44*
X741420Y305580D02*
D03*
X652220D02*
D03*
X741420Y360380D02*
D03*
X652220D02*
D03*
D45*
X712820D02*
D03*
X704820D02*
D03*
X696820D02*
D03*
X688820D02*
D03*
X680820D02*
D03*
D46*
X738520Y414020D02*
D03*
X724520D02*
D03*
X738520Y426720D02*
D03*
X724520D02*
D03*
D47*
X659130Y455400D02*
D03*
Y461900D02*
D03*
Y468400D02*
D03*
Y474900D02*
D03*
Y481400D02*
D03*
Y487900D02*
D03*
Y494400D02*
D03*
Y500900D02*
D03*
Y507400D02*
D03*
Y513900D02*
D03*
Y520400D02*
D03*
Y526900D02*
D03*
Y533400D02*
D03*
Y539900D02*
D03*
X732250Y455400D02*
D03*
Y461900D02*
D03*
Y468400D02*
D03*
Y474900D02*
D03*
Y481400D02*
D03*
Y494400D02*
D03*
Y487900D02*
D03*
Y500900D02*
D03*
Y507400D02*
D03*
Y513900D02*
D03*
Y520400D02*
D03*
Y526900D02*
D03*
Y533400D02*
D03*
Y539900D02*
D03*
D48*
X388620Y706150D02*
D03*
Y692150D02*
D03*
X629920Y654670D02*
D03*
Y668670D02*
D03*
D49*
X544830Y782320D02*
D03*
X532130D02*
D03*
X519430D02*
D03*
X506730D02*
D03*
X494030D02*
D03*
X481330D02*
D03*
X468630D02*
D03*
D50*
X417830Y769620D02*
D03*
Y756920D02*
D03*
Y744220D02*
D03*
Y731520D02*
D03*
Y718820D02*
D03*
Y706120D02*
D03*
Y693420D02*
D03*
Y680720D02*
D03*
Y668020D02*
D03*
Y655320D02*
D03*
Y642620D02*
D03*
Y629920D02*
D03*
Y617220D02*
D03*
Y604520D02*
D03*
Y591820D02*
D03*
Y579120D02*
D03*
Y566420D02*
D03*
Y553720D02*
D03*
Y541020D02*
D03*
Y528320D02*
D03*
X595630D02*
D03*
Y541020D02*
D03*
Y553720D02*
D03*
Y566420D02*
D03*
Y579120D02*
D03*
Y591820D02*
D03*
Y604520D02*
D03*
Y617220D02*
D03*
Y629920D02*
D03*
Y642620D02*
D03*
Y655320D02*
D03*
Y668020D02*
D03*
Y680720D02*
D03*
Y693420D02*
D03*
Y706120D02*
D03*
Y718820D02*
D03*
Y731520D02*
D03*
Y744220D02*
D03*
Y756920D02*
D03*
Y769620D02*
D03*
D51*
X622420Y466090D02*
D03*
X637420D02*
D03*
D52*
X698500Y447040D02*
D03*
X393700Y800100D02*
D03*
X621660Y798830D02*
D03*
X581660D02*
D03*
X433070Y800100D02*
D03*
X547370Y850900D02*
D03*
X508000D02*
D03*
X467360D02*
D03*
X547370Y890900D02*
D03*
X508000D02*
D03*
X467360D02*
D03*
X534670Y279400D02*
D03*
X579120D02*
D03*
X760730Y426720D02*
D03*
X749300Y389890D02*
D03*
Y426720D02*
D03*
X661670Y554990D02*
D03*
X689610Y485140D02*
D03*
X612140Y518160D02*
D03*
X678180Y474980D02*
D03*
X608330Y466090D02*
D03*
X748030Y519430D02*
D03*
X747770Y500640D02*
D03*
X709930Y382270D02*
D03*
X455930Y278130D02*
D03*
Y323850D02*
D03*
X417830Y278130D02*
D03*
Y323850D02*
D03*
X621030Y542290D02*
D03*
X572770Y669290D02*
D03*
X439420D02*
D03*
X449580Y544830D02*
D03*
X458470Y533400D02*
D03*
X612140Y604520D02*
D03*
Y591820D02*
D03*
Y553720D02*
D03*
D53*
X284480Y886460D02*
D03*
X839470D02*
D03*
Y298450D02*
D03*
X284480D02*
D03*
D54*
X718820Y335280D02*
D03*
X674820D02*
D03*
D55*
X340360Y461010D02*
D03*
X774370Y561340D02*
D03*
X340360Y410210D02*
D03*
Y511810D02*
D03*
X774370Y408940D02*
D03*
D56*
X340360Y486410D02*
D03*
X774370Y586740D02*
D03*
Y612140D02*
D03*
Y637540D02*
D03*
Y662940D02*
D03*
Y688340D02*
D03*
X340360Y384810D02*
D03*
Y689610D02*
D03*
Y664210D02*
D03*
Y638810D02*
D03*
Y613410D02*
D03*
Y588010D02*
D03*
Y562610D02*
D03*
Y537210D02*
D03*
X774370Y434340D02*
D03*
Y459740D02*
D03*
Y485140D02*
D03*
Y510540D02*
D03*
X543560Y424180D02*
D03*
X518160D02*
D03*
X492760D02*
D03*
X467360D02*
D03*
X441960D02*
D03*
D57*
X581650Y845970D02*
D03*
Y896770D02*
D03*
X632450D02*
D03*
Y845970D02*
D03*
X381330Y846020D02*
D03*
Y896820D02*
D03*
X432130D02*
D03*
Y846020D02*
D03*
D58*
X607050Y871370D02*
D03*
X406730Y871420D02*
D03*
D59*
X332740Y321310D02*
D03*
D60*
X367740D02*
D03*
D61*
X568960Y424180D02*
D03*
%TF.MD5,4610d1a7d00ac729c19cfd1231492809*%
M02*
