M48
;Layer_Color=9474304
;FILE_FORMAT=4:4
METRIC,LZ
;TYPE=PLATED
T1F00S00C0.3500
T2F00S00C1.1000
T3F00S00C1.2000
T4F00S00C1.5000
T5F00S00C1.6000
;TYPE=NON_PLATED
T6F00S00C0.9000
T7F00S00C3.2000
%
T01
X0041783Y0027813
X0045593
Y0032385
X0041783
X0053467Y002794
X0057912
X0070993Y0038227
X007493Y0038989
Y0042672
X0076073
X006985Y0044704
X0068961Y0048514
X0067818Y0047498
X0060833Y0046609
X0061214Y0051816
X0062103Y0054229
X0061214Y0055372
Y0059182
Y0060452
X0066167Y0055499
X0074803Y0051943
X0074777Y0050064
X0045847Y005334
X0044958Y0054483
X0043942Y0066929
X0057277
X003937Y008001
X0043307
X0046736Y008509
Y008909
X00508
X0054737
Y008509
X00508
X0058166Y0079883
X0062166
T02
X0034036Y0038481
X0044196Y0042418
X0046736
X0049276
X0051816
X0054356
X0056896
X0077437Y0043434
Y0040894
Y0045974
Y0048514
Y0051054
Y0056134
Y0058674
Y0061214
Y0063754
Y0066294
Y0068834
X0034036Y0068961
Y0066421
Y0063881
Y0061341
Y0058801
Y0056261
Y0053721
Y0051181
Y0048641
Y0046101
Y0041021
T03
X0033274Y0032131
X0036774
T04
X0040673Y0087142
X0060705Y0087137
T05
X0038133Y0084602
Y0089682
X0043213
Y0084602
X0058165Y0084597
Y0089677
X0063245
Y0084597
T06
X0067482Y0033528
X0071882
T07
X0028448Y0029845
X0083947
X0028448Y0088646
X0083947
M30
