%TF.GenerationSoftware,Altium Limited,Altium NEXUS,2.1.7 (73)*%
G04 Layer_Color=0*
%FSLAX44Y44*%
%MOMM*%
%TF.FileFunction,Other,Mechanical_16*%
%TF.Part,Single*%
G01*
G75*
%TA.AperFunction,NonConductor*%
%ADD39C,0.1270*%
%ADD62C,0.0500*%
D39*
X406730Y793970D02*
X606730D01*
Y511470D02*
Y793970D01*
X406730Y511470D02*
X606730D01*
X406730D02*
Y793970D01*
D62*
X620890Y378100D02*
X654190D01*
X620890Y396600D02*
X654190D01*
X620890Y378100D02*
Y396600D01*
X654190Y378100D02*
Y396600D01*
X613270Y453750D02*
X646570D01*
X613270Y435250D02*
X646570D01*
Y453750D01*
X613270Y435250D02*
Y453750D01*
X639720Y344380D02*
X655720D01*
X639720D02*
Y375380D01*
X664720D01*
Y370380D02*
Y375380D01*
Y370380D02*
X675820D01*
Y375380D01*
X717820D01*
Y370380D02*
Y375380D01*
Y370380D02*
X728920D01*
Y375380D01*
X753920D01*
Y344380D02*
Y375380D01*
X737920Y344380D02*
X753920D01*
X737920Y321880D02*
Y344380D01*
Y321880D02*
X753920D01*
Y289380D02*
Y321880D01*
X737920Y289380D02*
X753920D01*
X737920Y273380D02*
Y289380D01*
X655720Y273380D02*
X737920D01*
X655720D02*
Y290580D01*
X639720D02*
X655720D01*
X639720D02*
Y321880D01*
X655720D01*
Y344380D01*
X672960Y390800D02*
X706260D01*
X672960Y409300D02*
X706260D01*
X672960Y390800D02*
Y409300D01*
X706260Y390800D02*
Y409300D01*
X646950Y831470D02*
Y910870D01*
X639550D02*
X646950D01*
X639550D02*
Y984370D01*
X574550D02*
X639550D01*
X574550Y910870D02*
Y984370D01*
X567150Y910870D02*
X574550D01*
X567150Y831470D02*
Y910870D01*
Y831470D02*
X646950D01*
X446630Y831520D02*
Y910920D01*
X439230D02*
X446630D01*
X439230D02*
Y984420D01*
X374230D02*
X439230D01*
X374230Y910920D02*
Y984420D01*
X366830Y910920D02*
X374230D01*
X366830Y831520D02*
Y910920D01*
Y831520D02*
X446630D01*
%TF.MD5,f57833bbc05dd5aa81deed5a669fadf7*%
M02*
