G04*
G04 #@! TF.GenerationSoftware,Altium Limited,Altium NEXUS,2.1.7 (73)*
G04*
G04 Layer_Color=16711935*
%FSLAX44Y44*%
%MOMM*%
G71*
G01*
G75*
%ADD12C,0.0000*%
%ADD62C,0.0254*%
%ADD64C,0.1000*%
D12*
X642770Y403330D02*
G03*
X642770Y403330I-1270J0D01*
G01*
D62*
X631040Y400790D02*
X644040D01*
X631040D02*
Y429790D01*
X644040D01*
Y400790D02*
Y429790D01*
X625040Y412740D02*
X631040D01*
X625040D02*
Y417840D01*
X631040D01*
Y412740D02*
Y417840D01*
X644040Y428090D02*
X650040D01*
Y422990D02*
Y428090D01*
X644040Y422990D02*
X650040D01*
X644040D02*
Y428090D01*
Y407590D02*
X650040D01*
Y402490D02*
Y407590D01*
X644040Y402490D02*
X650040D01*
X644040D02*
Y407590D01*
D64*
X581990Y289950D02*
X591490D01*
X581990Y306950D02*
X591490D01*
X581990Y289950D02*
Y306950D01*
X591490Y289950D02*
Y306950D01*
X632790Y532520D02*
X642290D01*
X632790Y549520D02*
X642290D01*
X632790Y532520D02*
Y549520D01*
X642290Y532520D02*
Y549520D01*
X740270Y409270D02*
Y418770D01*
X722770Y409270D02*
Y418770D01*
Y409270D02*
X740270D01*
X722770Y418770D02*
X740270D01*
Y421970D02*
Y431470D01*
X722770Y421970D02*
Y431470D01*
Y421970D02*
X740270D01*
X722770Y431470D02*
X740270D01*
X537540Y289950D02*
X547040D01*
X537540Y306950D02*
X547040D01*
X537540Y289950D02*
Y306950D01*
X547040Y289950D02*
Y306950D01*
X493090Y288680D02*
X502590D01*
X493090Y305680D02*
X502590D01*
X493090Y288680D02*
Y305680D01*
X502590Y288680D02*
Y305680D01*
X383870Y707900D02*
X393370D01*
X383870Y690400D02*
X393370D01*
Y707900D01*
X383870Y690400D02*
Y707900D01*
X625170Y652920D02*
X634670D01*
X625170Y670420D02*
X634670D01*
X625170Y652920D02*
Y670420D01*
X634670Y652920D02*
Y670420D01*
X451180Y308220D02*
X460680D01*
X451180Y291220D02*
X460680D01*
Y308220D01*
X451180Y291220D02*
Y308220D01*
X621420Y470840D02*
X638420D01*
X621420Y461340D02*
X638420D01*
X621420D02*
Y470840D01*
X638420Y461340D02*
Y470840D01*
X413080Y306950D02*
X422580D01*
X413080Y289950D02*
X422580D01*
Y306950D01*
X413080Y289950D02*
Y306950D01*
M02*
