%TF.GenerationSoftware,Altium Limited,Altium NEXUS,2.1.7 (73)*%
G04 Layer_Color=8421504*
%FSLAX44Y44*%
%MOMM*%
%TF.FileFunction,Paste,Top*%
%TF.Part,Single*%
G01*
G75*
%TA.AperFunction,Conductor*%
%ADD10C,1.1000*%
%TA.AperFunction,SMDPad,CuDef*%
%ADD12R,1.6100X0.6100*%
%ADD13R,1.1000X1.3800*%
%ADD14R,1.0000X0.9000*%
%ADD15R,1.0000X1.1000*%
%ADD16R,2.0000X2.5000*%
%ADD17R,0.5000X2.5000*%
%ADD18R,0.8000X0.9000*%
%ADD19R,1.3970X0.3480*%
%ADD20R,0.9000X0.8000*%
%ADD21R,1.0160X1.5240*%
%ADD22R,1.5240X1.0160*%
%ADD23R,0.7000X0.9000*%
D10*
X428950Y821370D02*
X476250D01*
D12*
X627590Y415290D02*
D03*
X647490Y425540D02*
D03*
Y405040D02*
D03*
D13*
X628910Y387350D02*
D03*
X646170D02*
D03*
X638550Y444500D02*
D03*
X621290D02*
D03*
X680980Y400050D02*
D03*
X698240D02*
D03*
D14*
X586740Y289950D02*
D03*
Y306950D02*
D03*
X637540Y532520D02*
D03*
Y549520D02*
D03*
X542290Y289950D02*
D03*
Y306950D02*
D03*
X497840Y288680D02*
D03*
Y305680D02*
D03*
X455930Y308220D02*
D03*
Y291220D02*
D03*
X417830Y306950D02*
D03*
Y289950D02*
D03*
D15*
X608330D02*
D03*
Y306950D02*
D03*
X563880Y289950D02*
D03*
Y306950D02*
D03*
X519430Y289950D02*
D03*
Y306950D02*
D03*
X474980Y290340D02*
D03*
Y307340D02*
D03*
X436880Y291220D02*
D03*
Y308220D02*
D03*
D16*
X741420Y305580D02*
D03*
X652220D02*
D03*
X741420Y360380D02*
D03*
X652220D02*
D03*
D17*
X712820D02*
D03*
X704820D02*
D03*
X696820D02*
D03*
X688820D02*
D03*
X680820D02*
D03*
D18*
X738520Y414020D02*
D03*
X724520D02*
D03*
X738520Y426720D02*
D03*
X724520D02*
D03*
D19*
X659130Y455400D02*
D03*
Y461900D02*
D03*
Y468400D02*
D03*
Y474900D02*
D03*
Y481400D02*
D03*
Y487900D02*
D03*
Y494400D02*
D03*
Y500900D02*
D03*
Y507400D02*
D03*
Y513900D02*
D03*
Y520400D02*
D03*
Y526900D02*
D03*
Y533400D02*
D03*
Y539900D02*
D03*
X732250Y455400D02*
D03*
Y461900D02*
D03*
Y468400D02*
D03*
Y474900D02*
D03*
Y481400D02*
D03*
Y494400D02*
D03*
Y487900D02*
D03*
Y500900D02*
D03*
Y507400D02*
D03*
Y513900D02*
D03*
Y520400D02*
D03*
Y526900D02*
D03*
Y533400D02*
D03*
Y539900D02*
D03*
D20*
X388620Y706150D02*
D03*
Y692150D02*
D03*
X629920Y654670D02*
D03*
Y668670D02*
D03*
D21*
X544830Y782320D02*
D03*
X532130D02*
D03*
X519430D02*
D03*
X506730D02*
D03*
X494030D02*
D03*
X481330D02*
D03*
X468630D02*
D03*
D22*
X417830Y769620D02*
D03*
Y756920D02*
D03*
Y744220D02*
D03*
Y731520D02*
D03*
Y718820D02*
D03*
Y706120D02*
D03*
Y693420D02*
D03*
Y680720D02*
D03*
Y668020D02*
D03*
Y655320D02*
D03*
Y642620D02*
D03*
Y629920D02*
D03*
Y617220D02*
D03*
Y604520D02*
D03*
Y591820D02*
D03*
Y579120D02*
D03*
Y566420D02*
D03*
Y553720D02*
D03*
Y541020D02*
D03*
Y528320D02*
D03*
X595630D02*
D03*
Y541020D02*
D03*
Y553720D02*
D03*
Y566420D02*
D03*
Y579120D02*
D03*
Y591820D02*
D03*
Y604520D02*
D03*
Y617220D02*
D03*
Y629920D02*
D03*
Y642620D02*
D03*
Y655320D02*
D03*
Y668020D02*
D03*
Y680720D02*
D03*
Y693420D02*
D03*
Y706120D02*
D03*
Y718820D02*
D03*
Y731520D02*
D03*
Y744220D02*
D03*
Y756920D02*
D03*
Y769620D02*
D03*
D23*
X622420Y466090D02*
D03*
X637420D02*
D03*
%TF.MD5,6bef8c339f012f2ec5459e9130ef9bc5*%
M02*
