%TF.GenerationSoftware,Altium Limited,Altium NEXUS,2.1.6 (59)*%
G04 Layer_Color=0*
%FSLAX45Y45*%
%MOMM*%
%TF.FileFunction,Plated,1,2,PTH,Drill*%
%TF.Part,Single*%
G01*
G75*
%TA.AperFunction,OtherDrill,Pad Free-18 (69.85mm,44.704mm)*%
%ADD68C,0.35000*%
%TA.AperFunction,OtherDrill,Pad Free-14 (39.37mm,80.01mm)*%
%ADD69C,0.35000*%
%TA.AperFunction,OtherDrill,Pad Free-13 (62.166mm,79.883mm)*%
%ADD70C,0.35000*%
%TA.AperFunction,OtherDrill,Pad Free-12 (58.166mm,79.883mm)*%
%ADD71C,0.35000*%
%TA.AperFunction,OtherDrill,Pad Free-11 (43.307mm,80.01mm)*%
%ADD72C,0.35000*%
%TA.AperFunction,OtherDrill,Pad Free-10 (54.737mm,85.09mm)*%
%ADD73C,0.35000*%
%TA.AperFunction,OtherDrill,Pad Free-9 (50.8mm,85.09mm)*%
%ADD74C,0.35000*%
%TA.AperFunction,OtherDrill,Pad Free-8 (46.736mm,85.09mm)*%
%ADD75C,0.35000*%
%TA.AperFunction,OtherDrill,Pad Free-7 (54.737mm,89.09mm)*%
%ADD76C,0.35000*%
%TA.AperFunction,OtherDrill,Pad Free-6 (50.8mm,89.09mm)*%
%ADD77C,0.35000*%
%TA.AperFunction,OtherDrill,Pad Free-6 (46.736mm,89.09mm)*%
%ADD78C,0.35000*%
%TA.AperFunction,ComponentDrill*%
%ADD79C,1.10000*%
%ADD80C,1.20000*%
%ADD81C,1.10000*%
%TA.AperFunction,ViaDrill,NotFilled*%
%ADD82C,0.35000*%
D68*
X6985000Y4470400D02*
D03*
D69*
X3937000Y8001000D02*
D03*
D70*
X6216600Y7988300D02*
D03*
D71*
X5816600D02*
D03*
D72*
X4330700Y8001000D02*
D03*
D73*
X5473700Y8509000D02*
D03*
D74*
X5080000D02*
D03*
D75*
X4673600D02*
D03*
D76*
X5473700Y8909000D02*
D03*
D77*
X5080000D02*
D03*
D78*
X4673600D02*
D03*
D79*
X3403600Y4610100D02*
D03*
Y4864100D02*
D03*
X7743700Y5613400D02*
D03*
Y5867400D02*
D03*
Y6121400D02*
D03*
Y6375400D02*
D03*
Y6629400D02*
D03*
Y6883400D02*
D03*
X3403600Y4102100D02*
D03*
Y3848100D02*
D03*
Y6896100D02*
D03*
Y6642100D02*
D03*
Y6388100D02*
D03*
Y6134100D02*
D03*
Y5880100D02*
D03*
Y5626100D02*
D03*
Y5372100D02*
D03*
Y5118100D02*
D03*
X7743700Y4089400D02*
D03*
Y4343400D02*
D03*
Y4597400D02*
D03*
Y4851400D02*
D03*
Y5105400D02*
D03*
D80*
X3327400Y3213100D02*
D03*
X3677400D02*
D03*
D81*
X5689600Y4241800D02*
D03*
X5435600D02*
D03*
X5181600D02*
D03*
X4927600D02*
D03*
X4673600D02*
D03*
X4419600D02*
D03*
D82*
X3649700Y8109000D02*
D03*
Y8509000D02*
D03*
Y8909000D02*
D03*
X6489700Y8134400D02*
D03*
Y8534400D02*
D03*
Y8909000D02*
D03*
X5346700Y2794000D02*
D03*
X5791200D02*
D03*
X7607300Y4267200D02*
D03*
X7493000Y3898900D02*
D03*
Y4267200D02*
D03*
X6616700Y5549900D02*
D03*
X6896100Y4851400D02*
D03*
X6121400Y5181600D02*
D03*
X6781800Y4749800D02*
D03*
X6083300Y4660900D02*
D03*
X7480300Y5194300D02*
D03*
X7477700Y5006400D02*
D03*
X7099300Y3822700D02*
D03*
X4559300Y2781300D02*
D03*
Y3238500D02*
D03*
X4178300Y2781300D02*
D03*
Y3238500D02*
D03*
X6210300Y5422900D02*
D03*
X5727700Y6692900D02*
D03*
X4394200D02*
D03*
X4495800Y5448300D02*
D03*
X4584700Y5334000D02*
D03*
X6121400Y6045200D02*
D03*
Y5918200D02*
D03*
Y5537200D02*
D03*
%TF.MD5,1c757407309e1ba106bf2f00b3c3c3a5*%
M02*
