%TF.GenerationSoftware,Altium Limited,Altium NEXUS,2.1.6 (59)*%
G04 Layer_Physical_Order=2*
G04 Layer_Color=16711680*
%FSLAX45Y45*%
%MOMM*%
%TF.FileFunction,Copper,L2,Bot,Signal*%
%TF.Part,Single*%
G01*
G75*
%TA.AperFunction,Conductor*%
%ADD11C,0.25400*%
%TA.AperFunction,ViaPad*%
%ADD26C,0.65000*%
%TA.AperFunction,WasherPad*%
%ADD27C,1.52400*%
%TA.AperFunction,ComponentPad*%
%ADD28C,0.90000*%
%ADD29R,1.60000X1.60000*%
%ADD30C,1.60000*%
%ADD31R,1.70000X1.70000*%
%ADD32C,1.70000*%
%ADD33R,1.60000X1.60000*%
G36*
X7924302Y5183573D02*
Y4993204D01*
X7911602Y4987943D01*
X7902833Y4996712D01*
X7894432Y5002326D01*
X7884521Y5004298D01*
X7775040D01*
X7772514Y5016998D01*
X7790450Y5024427D01*
X7809814Y5039286D01*
X7824673Y5058650D01*
X7834014Y5081200D01*
X7837200Y5105400D01*
X7834014Y5129600D01*
X7824673Y5152150D01*
X7809814Y5171514D01*
X7790450Y5186373D01*
X7767900Y5195714D01*
X7765866Y5195981D01*
X7766699Y5208681D01*
X7899194D01*
X7924302Y5183573D01*
D02*
G37*
G36*
X7471117Y2755402D02*
X7466431Y2749298D01*
X5835538D01*
X5828742Y2761998D01*
X5829448Y2763293D01*
X5834214Y2768102D01*
X7464912D01*
X7471117Y2755402D01*
D02*
G37*
G36*
X8671257Y9141157D02*
Y2707943D01*
X7519303D01*
X7514443Y2719676D01*
X7968512Y3173746D01*
X7974126Y3182148D01*
X7976098Y3192058D01*
Y5194300D01*
X7974126Y5204211D01*
X7968512Y5212612D01*
X7928233Y5252891D01*
X7919832Y5258505D01*
X7909921Y5260477D01*
X7520579D01*
X7510668Y5258505D01*
X7502267Y5252891D01*
X7488191Y5238816D01*
X7480300Y5240386D01*
X7462664Y5236878D01*
X7447713Y5226887D01*
X7437722Y5211936D01*
X7434214Y5194300D01*
X7437722Y5176664D01*
X7447713Y5161713D01*
X7462664Y5151722D01*
X7480300Y5148214D01*
X7497936Y5151722D01*
X7512887Y5161713D01*
X7522878Y5176664D01*
X7526386Y5194300D01*
X7525579Y5198354D01*
X7534591Y5208681D01*
X7720701D01*
X7721534Y5195981D01*
X7719500Y5195714D01*
X7696950Y5186373D01*
X7677586Y5171514D01*
X7662727Y5152150D01*
X7654090Y5131298D01*
X6754427D01*
X6642598Y5243127D01*
Y5512843D01*
X6649287Y5517313D01*
X6659278Y5532264D01*
X6662786Y5549900D01*
X6659278Y5567536D01*
X6649287Y5582487D01*
X6634336Y5592478D01*
X6616700Y5595986D01*
X6608809Y5594416D01*
X6165916Y6037309D01*
X6167486Y6045200D01*
X6163978Y6062836D01*
X6153987Y6077787D01*
X6139036Y6087778D01*
X6121400Y6091286D01*
X6103764Y6087778D01*
X6088813Y6077787D01*
X6078822Y6062836D01*
X6075314Y6045200D01*
X6078822Y6027564D01*
X6088813Y6012613D01*
X6103764Y6002622D01*
X6121400Y5999114D01*
X6129291Y6000684D01*
X6572184Y5557791D01*
X6570614Y5549900D01*
X6574122Y5532264D01*
X6584113Y5517313D01*
X6590802Y5512843D01*
Y5232400D01*
X6592774Y5222489D01*
X6598388Y5214088D01*
X6725388Y5087088D01*
X6733789Y5081474D01*
X6743700Y5079502D01*
X7654090D01*
X7662727Y5058650D01*
X7677586Y5039286D01*
X7696950Y5024427D01*
X7714886Y5016998D01*
X7712360Y5004298D01*
X7525511D01*
X7523786Y5006400D01*
X7520278Y5024036D01*
X7510287Y5038988D01*
X7495336Y5048978D01*
X7477700Y5052486D01*
X7460064Y5048978D01*
X7445113Y5038988D01*
X7435123Y5024036D01*
X7431615Y5006400D01*
X7435123Y4988764D01*
X7445113Y4973813D01*
X7460064Y4963823D01*
X7477700Y4960315D01*
X7485591Y4961884D01*
X7487388Y4960088D01*
X7495790Y4954474D01*
X7505700Y4952502D01*
X7712360D01*
X7714886Y4939802D01*
X7696950Y4932373D01*
X7677586Y4917514D01*
X7662727Y4898150D01*
X7654090Y4877298D01*
X6933157D01*
X6928687Y4883987D01*
X6913736Y4893978D01*
X6896100Y4897486D01*
X6878464Y4893978D01*
X6863513Y4883987D01*
X6859043Y4877298D01*
X6754427D01*
X6515598Y5116127D01*
Y5549900D01*
X6513626Y5559811D01*
X6508012Y5568212D01*
X6165916Y5910309D01*
X6167486Y5918200D01*
X6163978Y5935836D01*
X6153987Y5950787D01*
X6139036Y5960778D01*
X6121400Y5964286D01*
X6103764Y5960778D01*
X6088813Y5950787D01*
X6078822Y5935836D01*
X6075314Y5918200D01*
X6078822Y5900564D01*
X6088813Y5885613D01*
X6103764Y5875622D01*
X6121400Y5872114D01*
X6129291Y5873684D01*
X6463802Y5539173D01*
Y5114041D01*
X6451102Y5108780D01*
X6236198Y5323685D01*
Y5385843D01*
X6242887Y5390313D01*
X6252878Y5405264D01*
X6256386Y5422900D01*
X6252878Y5440536D01*
X6242887Y5455487D01*
X6227936Y5465478D01*
X6210300Y5468986D01*
X6192664Y5465478D01*
X6177713Y5455487D01*
X6167722Y5440536D01*
X6164214Y5422900D01*
X6167722Y5405264D01*
X6177713Y5390313D01*
X6184402Y5385843D01*
Y5312958D01*
X6186374Y5303048D01*
X6191988Y5294646D01*
X6735900Y4750733D01*
X6735714Y4749800D01*
X6739222Y4732164D01*
X6749213Y4717213D01*
X6764164Y4707222D01*
X6781800Y4703714D01*
X6782733Y4703900D01*
X6907546Y4579088D01*
X6915948Y4573474D01*
X6925858Y4571502D01*
X7654090D01*
X7662727Y4550650D01*
X7677586Y4531286D01*
X7696950Y4516427D01*
X7719500Y4507086D01*
X7743700Y4503900D01*
X7767900Y4507086D01*
X7790450Y4516427D01*
X7809814Y4531286D01*
X7824673Y4550650D01*
X7834014Y4573200D01*
X7837200Y4597400D01*
X7834014Y4621600D01*
X7824673Y4644150D01*
X7809814Y4663514D01*
X7790450Y4678373D01*
X7767900Y4687714D01*
X7743700Y4690900D01*
X7719500Y4687714D01*
X7696950Y4678373D01*
X7677586Y4663514D01*
X7662727Y4644150D01*
X7654090Y4623298D01*
X6936585D01*
X6824932Y4734951D01*
X6827886Y4749800D01*
X6824378Y4767436D01*
X6814387Y4782387D01*
X6799436Y4792378D01*
X6781800Y4795886D01*
X6766951Y4792932D01*
X6747080Y4812802D01*
X6752341Y4825502D01*
X6859043D01*
X6863513Y4818813D01*
X6878464Y4808822D01*
X6896100Y4805314D01*
X6913736Y4808822D01*
X6928687Y4818813D01*
X6933157Y4825502D01*
X7654090D01*
X7662727Y4804650D01*
X7677586Y4785286D01*
X7696950Y4770427D01*
X7719500Y4761086D01*
X7743700Y4757900D01*
X7767900Y4761086D01*
X7790450Y4770427D01*
X7809814Y4785286D01*
X7824673Y4804650D01*
X7834014Y4827200D01*
X7837200Y4851400D01*
X7834014Y4875600D01*
X7824673Y4898150D01*
X7809814Y4917514D01*
X7790450Y4932373D01*
X7772514Y4939802D01*
X7775040Y4952502D01*
X7873502D01*
Y3223827D01*
X7469573Y2819898D01*
X5828257D01*
X5823787Y2826587D01*
X5808836Y2836578D01*
X5791200Y2840086D01*
X5773564Y2836578D01*
X5758613Y2826587D01*
X5748622Y2811636D01*
X5745114Y2794000D01*
X5748622Y2776364D01*
X5758222Y2761998D01*
X5757540Y2758665D01*
X5753884Y2749298D01*
X5428027D01*
X5391216Y2786109D01*
X5392786Y2794000D01*
X5389278Y2811636D01*
X5379287Y2826587D01*
X5364336Y2836578D01*
X5346700Y2840086D01*
X5329064Y2836578D01*
X5314113Y2826587D01*
X5304122Y2811636D01*
X5300614Y2794000D01*
X5304122Y2776364D01*
X5314113Y2761413D01*
X5329064Y2751422D01*
X5346700Y2747914D01*
X5354591Y2749484D01*
X5384399Y2719676D01*
X5379539Y2707943D01*
X2568243D01*
Y9141157D01*
X8671257Y9141157D01*
D02*
G37*
%LPC*%
G36*
X6502400Y8965508D02*
Y8921700D01*
X6546208D01*
X6544241Y8931591D01*
X6531444Y8950744D01*
X6512292Y8963541D01*
X6502400Y8965508D01*
D02*
G37*
G36*
X6477000D02*
X6467108Y8963541D01*
X6447956Y8950744D01*
X6435159Y8931591D01*
X6433192Y8921700D01*
X6477000D01*
Y8965508D01*
D02*
G37*
G36*
X5486400D02*
Y8921700D01*
X5530208D01*
X5528241Y8931591D01*
X5515444Y8950744D01*
X5496292Y8963541D01*
X5486400Y8965508D01*
D02*
G37*
G36*
X5461000D02*
X5451108Y8963541D01*
X5431956Y8950744D01*
X5419159Y8931591D01*
X5417192Y8921700D01*
X5461000D01*
Y8965508D01*
D02*
G37*
G36*
X5092700D02*
Y8921700D01*
X5136508D01*
X5134541Y8931591D01*
X5121744Y8950744D01*
X5102592Y8963541D01*
X5092700Y8965508D01*
D02*
G37*
G36*
X5067300D02*
X5057408Y8963541D01*
X5038256Y8950744D01*
X5025459Y8931591D01*
X5023492Y8921700D01*
X5067300D01*
Y8965508D01*
D02*
G37*
G36*
X4686300D02*
Y8921700D01*
X4730108D01*
X4728141Y8931591D01*
X4715344Y8950744D01*
X4696192Y8963541D01*
X4686300Y8965508D01*
D02*
G37*
G36*
X4660900D02*
X4651008Y8963541D01*
X4631856Y8950744D01*
X4619059Y8931591D01*
X4617092Y8921700D01*
X4660900D01*
Y8965508D01*
D02*
G37*
G36*
X3662400D02*
Y8921700D01*
X3706208D01*
X3704241Y8931591D01*
X3691444Y8950744D01*
X3672292Y8963541D01*
X3662400Y8965508D01*
D02*
G37*
G36*
X3637000D02*
X3627109Y8963541D01*
X3607956Y8950744D01*
X3595159Y8931591D01*
X3593192Y8921700D01*
X3637000D01*
Y8965508D01*
D02*
G37*
G36*
X6546208Y8896300D02*
X6502400D01*
Y8852492D01*
X6512292Y8854459D01*
X6531444Y8867256D01*
X6544241Y8886408D01*
X6546208Y8896300D01*
D02*
G37*
G36*
X6477000D02*
X6433192D01*
X6435159Y8886408D01*
X6447956Y8867256D01*
X6467108Y8854459D01*
X6477000Y8852492D01*
Y8896300D01*
D02*
G37*
G36*
X5530208D02*
X5486400D01*
Y8852492D01*
X5496292Y8854459D01*
X5515444Y8867256D01*
X5528241Y8886408D01*
X5530208Y8896300D01*
D02*
G37*
G36*
X5461000D02*
X5417192D01*
X5419159Y8886408D01*
X5431956Y8867256D01*
X5451108Y8854459D01*
X5461000Y8852492D01*
Y8896300D01*
D02*
G37*
G36*
X5136508D02*
X5092700D01*
Y8852492D01*
X5102592Y8854459D01*
X5121744Y8867256D01*
X5134541Y8886408D01*
X5136508Y8896300D01*
D02*
G37*
G36*
X5067300D02*
X5023492D01*
X5025459Y8886408D01*
X5038256Y8867256D01*
X5057408Y8854459D01*
X5067300Y8852492D01*
Y8896300D01*
D02*
G37*
G36*
X4730108D02*
X4686300D01*
Y8852492D01*
X4696192Y8854459D01*
X4715344Y8867256D01*
X4728141Y8886408D01*
X4730108Y8896300D01*
D02*
G37*
G36*
X4660900D02*
X4617092D01*
X4619059Y8886408D01*
X4631856Y8867256D01*
X4651008Y8854459D01*
X4660900Y8852492D01*
Y8896300D01*
D02*
G37*
G36*
X3706208D02*
X3662400D01*
Y8852492D01*
X3672292Y8854459D01*
X3691444Y8867256D01*
X3704241Y8886408D01*
X3706208Y8896300D01*
D02*
G37*
G36*
X3637000D02*
X3593192D01*
X3595159Y8886408D01*
X3607956Y8867256D01*
X3627109Y8854459D01*
X3637000Y8852492D01*
Y8896300D01*
D02*
G37*
G36*
X8394700Y9038136D02*
X8360845Y9034801D01*
X8328291Y9024926D01*
X8298289Y9008890D01*
X8271992Y8987308D01*
X8250410Y8961011D01*
X8234374Y8931009D01*
X8224499Y8898455D01*
X8221164Y8864600D01*
X8224499Y8830745D01*
X8234374Y8798191D01*
X8250410Y8768189D01*
X8271992Y8741892D01*
X8298289Y8720310D01*
X8328291Y8704274D01*
X8360845Y8694399D01*
X8394700Y8691064D01*
X8428555Y8694399D01*
X8461109Y8704274D01*
X8491111Y8720310D01*
X8517408Y8741892D01*
X8538990Y8768189D01*
X8555026Y8798191D01*
X8564901Y8830745D01*
X8568236Y8864600D01*
X8564901Y8898455D01*
X8555026Y8931009D01*
X8538990Y8961011D01*
X8517408Y8987308D01*
X8491111Y9008890D01*
X8461109Y9024926D01*
X8428555Y9034801D01*
X8394700Y9038136D01*
D02*
G37*
G36*
X2844800D02*
X2810945Y9034801D01*
X2778391Y9024926D01*
X2748389Y9008890D01*
X2722092Y8987308D01*
X2700510Y8961011D01*
X2684474Y8931009D01*
X2674599Y8898455D01*
X2671264Y8864600D01*
X2674599Y8830745D01*
X2684474Y8798191D01*
X2700510Y8768189D01*
X2722092Y8741892D01*
X2748389Y8720310D01*
X2778391Y8704274D01*
X2810945Y8694399D01*
X2844800Y8691064D01*
X2878655Y8694399D01*
X2911209Y8704274D01*
X2941211Y8720310D01*
X2967508Y8741892D01*
X2989090Y8768189D01*
X3005126Y8798191D01*
X3015001Y8830745D01*
X3018336Y8864600D01*
X3015001Y8898455D01*
X3005126Y8931009D01*
X2989090Y8961011D01*
X2967508Y8987308D01*
X2941211Y9008890D01*
X2911209Y9024926D01*
X2878655Y9034801D01*
X2844800Y9038136D01*
D02*
G37*
G36*
X6502400Y8590908D02*
Y8547100D01*
X6546208D01*
X6544241Y8556992D01*
X6531444Y8576144D01*
X6512292Y8588941D01*
X6502400Y8590908D01*
D02*
G37*
G36*
X6477000D02*
X6467108Y8588941D01*
X6447956Y8576144D01*
X6435159Y8556992D01*
X6433192Y8547100D01*
X6477000D01*
Y8590908D01*
D02*
G37*
G36*
X5486400Y8565508D02*
Y8521700D01*
X5530208D01*
X5528241Y8531592D01*
X5515444Y8550744D01*
X5496292Y8563541D01*
X5486400Y8565508D01*
D02*
G37*
G36*
X5461000D02*
X5451108Y8563541D01*
X5431956Y8550744D01*
X5419159Y8531592D01*
X5417192Y8521700D01*
X5461000D01*
Y8565508D01*
D02*
G37*
G36*
X5092700D02*
Y8521700D01*
X5136508D01*
X5134541Y8531592D01*
X5121744Y8550744D01*
X5102592Y8563541D01*
X5092700Y8565508D01*
D02*
G37*
G36*
X5067300D02*
X5057408Y8563541D01*
X5038256Y8550744D01*
X5025459Y8531592D01*
X5023492Y8521700D01*
X5067300D01*
Y8565508D01*
D02*
G37*
G36*
X4686300D02*
Y8521700D01*
X4730108D01*
X4728141Y8531592D01*
X4715344Y8550744D01*
X4696192Y8563541D01*
X4686300Y8565508D01*
D02*
G37*
G36*
X4660900D02*
X4651008Y8563541D01*
X4631856Y8550744D01*
X4619059Y8531592D01*
X4617092Y8521700D01*
X4660900D01*
Y8565508D01*
D02*
G37*
G36*
X3662400D02*
Y8521700D01*
X3706208D01*
X3704241Y8531592D01*
X3691444Y8550744D01*
X3672292Y8563541D01*
X3662400Y8565508D01*
D02*
G37*
G36*
X3637000D02*
X3627109Y8563541D01*
X3607956Y8550744D01*
X3595159Y8531592D01*
X3593192Y8521700D01*
X3637000D01*
Y8565508D01*
D02*
G37*
G36*
X6546208Y8521700D02*
X6502400D01*
Y8477892D01*
X6512292Y8479859D01*
X6531444Y8492656D01*
X6544241Y8511808D01*
X6546208Y8521700D01*
D02*
G37*
G36*
X6477000D02*
X6433192D01*
X6435159Y8511808D01*
X6447956Y8492656D01*
X6467108Y8479859D01*
X6477000Y8477892D01*
Y8521700D01*
D02*
G37*
G36*
X5530208Y8496300D02*
X5486400D01*
Y8452492D01*
X5496292Y8454459D01*
X5515444Y8467256D01*
X5528241Y8486408D01*
X5530208Y8496300D01*
D02*
G37*
G36*
X5461000D02*
X5417192D01*
X5419159Y8486408D01*
X5431956Y8467256D01*
X5451108Y8454459D01*
X5461000Y8452492D01*
Y8496300D01*
D02*
G37*
G36*
X5136508D02*
X5092700D01*
Y8452492D01*
X5102592Y8454459D01*
X5121744Y8467256D01*
X5134541Y8486408D01*
X5136508Y8496300D01*
D02*
G37*
G36*
X5067300D02*
X5023492D01*
X5025459Y8486408D01*
X5038256Y8467256D01*
X5057408Y8454459D01*
X5067300Y8452492D01*
Y8496300D01*
D02*
G37*
G36*
X4730108D02*
X4686300D01*
Y8452492D01*
X4696192Y8454459D01*
X4715344Y8467256D01*
X4728141Y8486408D01*
X4730108Y8496300D01*
D02*
G37*
G36*
X4660900D02*
X4617092D01*
X4619059Y8486408D01*
X4631856Y8467256D01*
X4651008Y8454459D01*
X4660900Y8452492D01*
Y8496300D01*
D02*
G37*
G36*
X3706208D02*
X3662400D01*
Y8452492D01*
X3672292Y8454459D01*
X3691444Y8467256D01*
X3704241Y8486408D01*
X3706208Y8496300D01*
D02*
G37*
G36*
X3637000D02*
X3593192D01*
X3595159Y8486408D01*
X3607956Y8467256D01*
X3627109Y8454459D01*
X3637000Y8452492D01*
Y8496300D01*
D02*
G37*
G36*
X6502400Y8190908D02*
Y8147100D01*
X6546208D01*
X6544241Y8156992D01*
X6531444Y8176144D01*
X6512292Y8188941D01*
X6502400Y8190908D01*
D02*
G37*
G36*
X6477000D02*
X6467108Y8188941D01*
X6447956Y8176144D01*
X6435159Y8156992D01*
X6433192Y8147100D01*
X6477000D01*
Y8190908D01*
D02*
G37*
G36*
X3662400Y8165508D02*
Y8121700D01*
X3706208D01*
X3704241Y8131592D01*
X3691444Y8150744D01*
X3672292Y8163541D01*
X3662400Y8165508D01*
D02*
G37*
G36*
X3637000D02*
X3627109Y8163541D01*
X3607956Y8150744D01*
X3595159Y8131592D01*
X3593192Y8121700D01*
X3637000D01*
Y8165508D01*
D02*
G37*
G36*
X6546208Y8121700D02*
X6502400D01*
Y8077892D01*
X6512292Y8079859D01*
X6531444Y8092656D01*
X6544241Y8111809D01*
X6546208Y8121700D01*
D02*
G37*
G36*
X6477000D02*
X6433192D01*
X6435159Y8111809D01*
X6447956Y8092656D01*
X6467108Y8079859D01*
X6477000Y8077892D01*
Y8121700D01*
D02*
G37*
G36*
X3706208Y8096300D02*
X3662400D01*
Y8052492D01*
X3672292Y8054459D01*
X3691444Y8067256D01*
X3704241Y8086409D01*
X3706208Y8096300D01*
D02*
G37*
G36*
X3637000D02*
X3593192D01*
X3595159Y8086409D01*
X3607956Y8067256D01*
X3627109Y8054459D01*
X3637000Y8052492D01*
Y8096300D01*
D02*
G37*
G36*
X4343400Y8057508D02*
Y8013700D01*
X4387208D01*
X4385241Y8023592D01*
X4372444Y8042744D01*
X4353292Y8055541D01*
X4343400Y8057508D01*
D02*
G37*
G36*
X4318000D02*
X4308108Y8055541D01*
X4288956Y8042744D01*
X4276159Y8023592D01*
X4274192Y8013700D01*
X4318000D01*
Y8057508D01*
D02*
G37*
G36*
X3949700D02*
Y8013700D01*
X3993508D01*
X3991541Y8023592D01*
X3978744Y8042744D01*
X3959592Y8055541D01*
X3949700Y8057508D01*
D02*
G37*
G36*
X3924300D02*
X3914408Y8055541D01*
X3895256Y8042744D01*
X3882459Y8023592D01*
X3880492Y8013700D01*
X3924300D01*
Y8057508D01*
D02*
G37*
G36*
X6229300Y8044808D02*
Y8001000D01*
X6273108D01*
X6271141Y8010892D01*
X6258344Y8030044D01*
X6239191Y8042841D01*
X6229300Y8044808D01*
D02*
G37*
G36*
X6203900D02*
X6194008Y8042841D01*
X6174856Y8030044D01*
X6162059Y8010892D01*
X6160092Y8001000D01*
X6203900D01*
Y8044808D01*
D02*
G37*
G36*
X5829300D02*
Y8001000D01*
X5873108D01*
X5871141Y8010892D01*
X5858344Y8030044D01*
X5839192Y8042841D01*
X5829300Y8044808D01*
D02*
G37*
G36*
X5803900D02*
X5794008Y8042841D01*
X5774856Y8030044D01*
X5762059Y8010892D01*
X5760092Y8001000D01*
X5803900D01*
Y8044808D01*
D02*
G37*
G36*
X4387208Y7988300D02*
X4343400D01*
Y7944492D01*
X4353292Y7946459D01*
X4372444Y7959256D01*
X4385241Y7978408D01*
X4387208Y7988300D01*
D02*
G37*
G36*
X4318000D02*
X4274192D01*
X4276159Y7978408D01*
X4288956Y7959256D01*
X4308108Y7946459D01*
X4318000Y7944492D01*
Y7988300D01*
D02*
G37*
G36*
X3993508D02*
X3949700D01*
Y7944492D01*
X3959592Y7946459D01*
X3978744Y7959256D01*
X3991541Y7978408D01*
X3993508Y7988300D01*
D02*
G37*
G36*
X3924300D02*
X3880492D01*
X3882459Y7978408D01*
X3895256Y7959256D01*
X3914408Y7946459D01*
X3924300Y7944492D01*
Y7988300D01*
D02*
G37*
G36*
X6273108Y7975600D02*
X6229300D01*
Y7931792D01*
X6239191Y7933759D01*
X6258344Y7946556D01*
X6271141Y7965708D01*
X6273108Y7975600D01*
D02*
G37*
G36*
X6203900D02*
X6160092D01*
X6162059Y7965708D01*
X6174856Y7946556D01*
X6194008Y7933759D01*
X6203900Y7931792D01*
Y7975600D01*
D02*
G37*
G36*
X5873108D02*
X5829300D01*
Y7931792D01*
X5839192Y7933759D01*
X5858344Y7946556D01*
X5871141Y7965708D01*
X5873108Y7975600D01*
D02*
G37*
G36*
X5803900D02*
X5760092D01*
X5762059Y7965708D01*
X5774856Y7946556D01*
X5794008Y7933759D01*
X5803900Y7931792D01*
Y7975600D01*
D02*
G37*
G36*
X3403600Y6989600D02*
X3379400Y6986414D01*
X3356850Y6977073D01*
X3337486Y6962214D01*
X3322627Y6942850D01*
X3313286Y6920300D01*
X3310100Y6896100D01*
X3313286Y6871900D01*
X3322627Y6849350D01*
X3337486Y6829986D01*
X3356850Y6815127D01*
X3379400Y6805786D01*
X3403600Y6802600D01*
X3427800Y6805786D01*
X3450350Y6815127D01*
X3469714Y6829986D01*
X3484573Y6849350D01*
X3493914Y6871900D01*
X3497100Y6896100D01*
X3493914Y6920300D01*
X3484573Y6942850D01*
X3469714Y6962214D01*
X3450350Y6977073D01*
X3427800Y6986414D01*
X3403600Y6989600D01*
D02*
G37*
G36*
X7743700Y6976900D02*
X7719500Y6973714D01*
X7696950Y6964373D01*
X7677586Y6949514D01*
X7662727Y6930150D01*
X7653386Y6907600D01*
X7650200Y6883400D01*
X7653386Y6859200D01*
X7662727Y6836650D01*
X7677586Y6817286D01*
X7696950Y6802427D01*
X7719500Y6793086D01*
X7743700Y6789900D01*
X7767900Y6793086D01*
X7790450Y6802427D01*
X7809814Y6817286D01*
X7824673Y6836650D01*
X7834014Y6859200D01*
X7837200Y6883400D01*
X7834014Y6907600D01*
X7824673Y6930150D01*
X7809814Y6949514D01*
X7790450Y6964373D01*
X7767900Y6973714D01*
X7743700Y6976900D01*
D02*
G37*
G36*
X5727700Y6738986D02*
X5710064Y6735478D01*
X5695113Y6725487D01*
X5690643Y6718798D01*
X4431257D01*
X4426787Y6725487D01*
X4411836Y6735478D01*
X4394200Y6738986D01*
X4376564Y6735478D01*
X4361613Y6725487D01*
X4351622Y6710536D01*
X4348114Y6692900D01*
X4351622Y6675264D01*
X4361613Y6660313D01*
X4376564Y6650322D01*
X4394200Y6646814D01*
X4411836Y6650322D01*
X4426787Y6660313D01*
X4431257Y6667002D01*
X5690643D01*
X5695113Y6660313D01*
X5710064Y6650322D01*
X5727700Y6646814D01*
X5745336Y6650322D01*
X5760287Y6660313D01*
X5770278Y6675264D01*
X5773786Y6692900D01*
X5770278Y6710536D01*
X5760287Y6725487D01*
X5745336Y6735478D01*
X5727700Y6738986D01*
D02*
G37*
G36*
X3403600Y6735600D02*
X3379400Y6732414D01*
X3356850Y6723073D01*
X3337486Y6708214D01*
X3322627Y6688850D01*
X3313286Y6666300D01*
X3310100Y6642100D01*
X3313286Y6617900D01*
X3322627Y6595350D01*
X3337486Y6575986D01*
X3356850Y6561127D01*
X3379400Y6551786D01*
X3403600Y6548600D01*
X3427800Y6551786D01*
X3450350Y6561127D01*
X3469714Y6575986D01*
X3484573Y6595350D01*
X3493914Y6617900D01*
X3497100Y6642100D01*
X3493914Y6666300D01*
X3484573Y6688850D01*
X3469714Y6708214D01*
X3450350Y6723073D01*
X3427800Y6732414D01*
X3403600Y6735600D01*
D02*
G37*
G36*
X7743700Y6722900D02*
X7719500Y6719714D01*
X7696950Y6710373D01*
X7677586Y6695514D01*
X7662727Y6676150D01*
X7653386Y6653600D01*
X7650200Y6629400D01*
X7653386Y6605200D01*
X7662727Y6582650D01*
X7677586Y6563286D01*
X7696950Y6548427D01*
X7719500Y6539086D01*
X7743700Y6535900D01*
X7767900Y6539086D01*
X7790450Y6548427D01*
X7809814Y6563286D01*
X7824673Y6582650D01*
X7834014Y6605200D01*
X7837200Y6629400D01*
X7834014Y6653600D01*
X7824673Y6676150D01*
X7809814Y6695514D01*
X7790450Y6710373D01*
X7767900Y6719714D01*
X7743700Y6722900D01*
D02*
G37*
G36*
X3403600Y6481600D02*
X3379400Y6478414D01*
X3356850Y6469073D01*
X3337486Y6454214D01*
X3322627Y6434850D01*
X3313286Y6412300D01*
X3310100Y6388100D01*
X3313286Y6363900D01*
X3322627Y6341350D01*
X3337486Y6321986D01*
X3356850Y6307127D01*
X3379400Y6297786D01*
X3403600Y6294600D01*
X3427800Y6297786D01*
X3450350Y6307127D01*
X3469714Y6321986D01*
X3484573Y6341350D01*
X3493914Y6363900D01*
X3497100Y6388100D01*
X3493914Y6412300D01*
X3484573Y6434850D01*
X3469714Y6454214D01*
X3450350Y6469073D01*
X3427800Y6478414D01*
X3403600Y6481600D01*
D02*
G37*
G36*
X7743700Y6468900D02*
X7719500Y6465714D01*
X7696950Y6456373D01*
X7677586Y6441514D01*
X7662727Y6422150D01*
X7653386Y6399600D01*
X7650200Y6375400D01*
X7653386Y6351200D01*
X7662727Y6328650D01*
X7677586Y6309286D01*
X7696950Y6294427D01*
X7719500Y6285086D01*
X7743700Y6281900D01*
X7767900Y6285086D01*
X7790450Y6294427D01*
X7809814Y6309286D01*
X7824673Y6328650D01*
X7834014Y6351200D01*
X7837200Y6375400D01*
X7834014Y6399600D01*
X7824673Y6422150D01*
X7809814Y6441514D01*
X7790450Y6456373D01*
X7767900Y6465714D01*
X7743700Y6468900D01*
D02*
G37*
G36*
X3403600Y6227600D02*
X3379400Y6224414D01*
X3356850Y6215073D01*
X3337486Y6200214D01*
X3322627Y6180850D01*
X3313286Y6158300D01*
X3310100Y6134100D01*
X3313286Y6109900D01*
X3322627Y6087350D01*
X3337486Y6067986D01*
X3356850Y6053127D01*
X3379400Y6043786D01*
X3403600Y6040600D01*
X3427800Y6043786D01*
X3450350Y6053127D01*
X3469714Y6067986D01*
X3484573Y6087350D01*
X3493914Y6109900D01*
X3497100Y6134100D01*
X3493914Y6158300D01*
X3484573Y6180850D01*
X3469714Y6200214D01*
X3450350Y6215073D01*
X3427800Y6224414D01*
X3403600Y6227600D01*
D02*
G37*
G36*
X7743700Y6214900D02*
X7719500Y6211714D01*
X7696950Y6202373D01*
X7677586Y6187514D01*
X7662727Y6168150D01*
X7653386Y6145600D01*
X7650200Y6121400D01*
X7653386Y6097200D01*
X7662727Y6074650D01*
X7677586Y6055286D01*
X7696950Y6040427D01*
X7719500Y6031086D01*
X7743700Y6027900D01*
X7767900Y6031086D01*
X7790450Y6040427D01*
X7809814Y6055286D01*
X7824673Y6074650D01*
X7834014Y6097200D01*
X7837200Y6121400D01*
X7834014Y6145600D01*
X7824673Y6168150D01*
X7809814Y6187514D01*
X7790450Y6202373D01*
X7767900Y6211714D01*
X7743700Y6214900D01*
D02*
G37*
G36*
X3403600Y5973600D02*
X3379400Y5970414D01*
X3356850Y5961073D01*
X3337486Y5946214D01*
X3322627Y5926850D01*
X3313286Y5904300D01*
X3310100Y5880100D01*
X3313286Y5855900D01*
X3322627Y5833350D01*
X3337486Y5813986D01*
X3356850Y5799127D01*
X3379400Y5789786D01*
X3403600Y5786600D01*
X3427800Y5789786D01*
X3450350Y5799127D01*
X3469714Y5813986D01*
X3484573Y5833350D01*
X3493914Y5855900D01*
X3497100Y5880100D01*
X3493914Y5904300D01*
X3484573Y5926850D01*
X3469714Y5946214D01*
X3450350Y5961073D01*
X3427800Y5970414D01*
X3403600Y5973600D01*
D02*
G37*
G36*
X7743700Y5960900D02*
X7719500Y5957714D01*
X7696950Y5948373D01*
X7677586Y5933514D01*
X7662727Y5914150D01*
X7653386Y5891600D01*
X7650200Y5867400D01*
X7653386Y5843200D01*
X7662727Y5820650D01*
X7677586Y5801286D01*
X7696950Y5786427D01*
X7719500Y5777086D01*
X7743700Y5773900D01*
X7767900Y5777086D01*
X7790450Y5786427D01*
X7809814Y5801286D01*
X7824673Y5820650D01*
X7834014Y5843200D01*
X7837200Y5867400D01*
X7834014Y5891600D01*
X7824673Y5914150D01*
X7809814Y5933514D01*
X7790450Y5948373D01*
X7767900Y5957714D01*
X7743700Y5960900D01*
D02*
G37*
G36*
X3403600Y5719600D02*
X3379400Y5716414D01*
X3356850Y5707073D01*
X3337486Y5692214D01*
X3322627Y5672850D01*
X3313286Y5650300D01*
X3310100Y5626100D01*
X3313286Y5601900D01*
X3322627Y5579350D01*
X3337486Y5559986D01*
X3356850Y5545127D01*
X3379400Y5535786D01*
X3403600Y5532600D01*
X3427800Y5535786D01*
X3450350Y5545127D01*
X3469714Y5559986D01*
X3484573Y5579350D01*
X3493914Y5601900D01*
X3497100Y5626100D01*
X3493914Y5650300D01*
X3484573Y5672850D01*
X3469714Y5692214D01*
X3450350Y5707073D01*
X3427800Y5716414D01*
X3403600Y5719600D01*
D02*
G37*
G36*
X7836400Y5706100D02*
X7651000D01*
Y5520700D01*
X7836400D01*
Y5706100D01*
D02*
G37*
G36*
X3403600Y5465600D02*
X3379400Y5462414D01*
X3356850Y5453073D01*
X3337486Y5438214D01*
X3322627Y5418850D01*
X3313286Y5396300D01*
X3310100Y5372100D01*
X3313286Y5347900D01*
X3322627Y5325350D01*
X3337486Y5305986D01*
X3356850Y5291127D01*
X3379400Y5281786D01*
X3403600Y5278600D01*
X3427800Y5281786D01*
X3450350Y5291127D01*
X3469714Y5305986D01*
X3484573Y5325350D01*
X3493914Y5347900D01*
X3497100Y5372100D01*
X3493914Y5396300D01*
X3484573Y5418850D01*
X3469714Y5438214D01*
X3450350Y5453073D01*
X3427800Y5462414D01*
X3403600Y5465600D01*
D02*
G37*
G36*
X3496300Y5210800D02*
X3310900D01*
Y5025400D01*
X3496300D01*
Y5210800D01*
D02*
G37*
G36*
X3403600Y4957600D02*
X3379400Y4954414D01*
X3356850Y4945073D01*
X3337486Y4930214D01*
X3322627Y4910850D01*
X3313286Y4888300D01*
X3310100Y4864100D01*
X3313286Y4839900D01*
X3322627Y4817350D01*
X3337486Y4797986D01*
X3356850Y4783127D01*
X3379400Y4773786D01*
X3403600Y4770600D01*
X3427800Y4773786D01*
X3450350Y4783127D01*
X3469714Y4797986D01*
X3484573Y4817350D01*
X3493914Y4839900D01*
X3497100Y4864100D01*
X3493914Y4888300D01*
X3484573Y4910850D01*
X3469714Y4930214D01*
X3450350Y4945073D01*
X3427800Y4954414D01*
X3403600Y4957600D01*
D02*
G37*
G36*
X4495800Y5494386D02*
X4478164Y5490878D01*
X4463213Y5480887D01*
X4453222Y5465936D01*
X4449714Y5448300D01*
X4453222Y5430664D01*
X4463213Y5415713D01*
X4478164Y5405722D01*
X4495800Y5402214D01*
X4513436Y5405722D01*
X4528387Y5415713D01*
X4532857Y5422402D01*
X5094673D01*
X5663702Y4853373D01*
Y4648200D01*
Y4334500D01*
X5596900D01*
Y4149100D01*
X5782300D01*
Y4334500D01*
X5715498D01*
Y4635002D01*
X6046243D01*
X6050713Y4628313D01*
X6065664Y4618322D01*
X6083300Y4614814D01*
X6100936Y4618322D01*
X6115887Y4628313D01*
X6125878Y4643264D01*
X6129386Y4660900D01*
X6125878Y4678536D01*
X6115887Y4693487D01*
X6100936Y4703478D01*
X6083300Y4706986D01*
X6065664Y4703478D01*
X6050713Y4693487D01*
X6046243Y4686798D01*
X5715498D01*
Y4864100D01*
X5713526Y4874011D01*
X5707912Y4882412D01*
X5123712Y5466612D01*
X5115311Y5472226D01*
X5105400Y5474198D01*
X4532857D01*
X4528387Y5480887D01*
X4513436Y5490878D01*
X4495800Y5494386D01*
D02*
G37*
G36*
X3496300Y4702800D02*
X3310900D01*
Y4517400D01*
X3496300D01*
Y4702800D01*
D02*
G37*
G36*
X6997700Y4526908D02*
Y4483100D01*
X7041508D01*
X7039541Y4492992D01*
X7026744Y4512144D01*
X7007592Y4524941D01*
X6997700Y4526908D01*
D02*
G37*
G36*
X6972300D02*
X6962408Y4524941D01*
X6943256Y4512144D01*
X6930459Y4492992D01*
X6928492Y4483100D01*
X6972300D01*
Y4526908D01*
D02*
G37*
G36*
X7041508Y4457700D02*
X6997700D01*
Y4413892D01*
X7007592Y4415859D01*
X7026744Y4428656D01*
X7039541Y4447808D01*
X7041508Y4457700D01*
D02*
G37*
G36*
X6972300D02*
X6928492D01*
X6930459Y4447808D01*
X6943256Y4428656D01*
X6962408Y4415859D01*
X6972300Y4413892D01*
Y4457700D01*
D02*
G37*
G36*
X5194300Y4346438D02*
Y4254500D01*
X5286238D01*
X5284287Y4269315D01*
X5273667Y4294955D01*
X5256772Y4316972D01*
X5234755Y4333867D01*
X5209115Y4344487D01*
X5194300Y4346438D01*
D02*
G37*
G36*
X5168900D02*
X5154085Y4344487D01*
X5128445Y4333867D01*
X5106428Y4316972D01*
X5089533Y4294955D01*
X5078913Y4269315D01*
X5076962Y4254500D01*
X5168900D01*
Y4346438D01*
D02*
G37*
G36*
X6121400Y5583286D02*
X6103764Y5579778D01*
X6088813Y5569787D01*
X6078822Y5554836D01*
X6075314Y5537200D01*
X6078822Y5519564D01*
X6088813Y5504613D01*
X6095502Y5500143D01*
Y5218657D01*
X6088813Y5214187D01*
X6078822Y5199236D01*
X6075314Y5181600D01*
X6078822Y5163964D01*
X6088813Y5149013D01*
X6095502Y5144543D01*
Y4965700D01*
X6097474Y4955789D01*
X6103088Y4947388D01*
X6725388Y4325088D01*
X6733789Y4319474D01*
X6743700Y4317502D01*
X7464065D01*
X7467918Y4304802D01*
X7460413Y4299787D01*
X7450422Y4284836D01*
X7446914Y4267200D01*
X7450422Y4249564D01*
X7460413Y4234613D01*
X7467102Y4230143D01*
Y4036627D01*
X7279073Y3848598D01*
X7136357D01*
X7131887Y3855287D01*
X7116936Y3865278D01*
X7099300Y3868786D01*
X7081664Y3865278D01*
X7066713Y3855287D01*
X7056722Y3840336D01*
X7053214Y3822700D01*
X7056722Y3805064D01*
X7066713Y3790113D01*
X7081664Y3780122D01*
X7099300Y3776614D01*
X7116936Y3780122D01*
X7131887Y3790113D01*
X7136357Y3796802D01*
X7289800D01*
X7299711Y3798774D01*
X7308112Y3804388D01*
X7511312Y4007588D01*
X7516926Y4015989D01*
X7518898Y4025900D01*
Y4230143D01*
X7525587Y4234613D01*
X7535578Y4249564D01*
X7539086Y4267200D01*
X7535578Y4284836D01*
X7525587Y4299787D01*
X7518082Y4304802D01*
X7521935Y4317502D01*
X7578365D01*
X7582218Y4304802D01*
X7574713Y4299787D01*
X7564722Y4284836D01*
X7561214Y4267200D01*
X7564722Y4249564D01*
X7574713Y4234613D01*
X7581402Y4230143D01*
Y4023927D01*
X7500891Y3943416D01*
X7493000Y3944986D01*
X7475364Y3941478D01*
X7460413Y3931487D01*
X7450422Y3916536D01*
X7446914Y3898900D01*
X7450422Y3881264D01*
X7460413Y3866313D01*
X7475364Y3856322D01*
X7493000Y3852814D01*
X7510636Y3856322D01*
X7525587Y3866313D01*
X7535578Y3881264D01*
X7539086Y3898900D01*
X7537516Y3906791D01*
X7625600Y3994875D01*
X7625652Y3994875D01*
X7638300Y3991017D01*
Y3984000D01*
X7731000D01*
Y4089400D01*
Y4194800D01*
X7645898D01*
X7638300Y4194800D01*
X7633198Y4205386D01*
Y4230143D01*
X7639887Y4234613D01*
X7649878Y4249564D01*
X7653386Y4267200D01*
X7649878Y4284836D01*
X7639887Y4299787D01*
X7632382Y4304802D01*
X7636235Y4317502D01*
X7654090D01*
X7662727Y4296650D01*
X7677586Y4277286D01*
X7696950Y4262427D01*
X7719500Y4253086D01*
X7743700Y4249900D01*
X7767900Y4253086D01*
X7790450Y4262427D01*
X7809814Y4277286D01*
X7824673Y4296650D01*
X7834014Y4319200D01*
X7837200Y4343400D01*
X7834014Y4367600D01*
X7824673Y4390150D01*
X7809814Y4409514D01*
X7790450Y4424373D01*
X7767900Y4433714D01*
X7743700Y4436900D01*
X7719500Y4433714D01*
X7696950Y4424373D01*
X7677586Y4409514D01*
X7662727Y4390150D01*
X7654090Y4369298D01*
X6754427D01*
X6147298Y4976427D01*
Y5144543D01*
X6153987Y5149013D01*
X6163978Y5163964D01*
X6167486Y5181600D01*
X6163978Y5199236D01*
X6153987Y5214187D01*
X6147298Y5218657D01*
Y5500143D01*
X6153987Y5504613D01*
X6163978Y5519564D01*
X6167486Y5537200D01*
X6163978Y5554836D01*
X6153987Y5569787D01*
X6139036Y5579778D01*
X6121400Y5583286D01*
D02*
G37*
G36*
X4584700Y5380086D02*
X4567064Y5376578D01*
X4552113Y5366587D01*
X4542122Y5351636D01*
X4538614Y5334000D01*
X4542122Y5316364D01*
X4552113Y5301413D01*
X4567064Y5291422D01*
X4584700Y5287914D01*
X4592591Y5289484D01*
X4901702Y4980373D01*
Y4331410D01*
X4880850Y4322773D01*
X4861486Y4307914D01*
X4846627Y4288550D01*
X4837286Y4266000D01*
X4834100Y4241800D01*
X4837286Y4217600D01*
X4846627Y4195050D01*
X4861486Y4175686D01*
X4880850Y4160827D01*
X4903400Y4151486D01*
X4927600Y4148300D01*
X4951800Y4151486D01*
X4974350Y4160827D01*
X4993714Y4175686D01*
X5008573Y4195050D01*
X5017914Y4217600D01*
X5021100Y4241800D01*
X5017914Y4266000D01*
X5008573Y4288550D01*
X4993714Y4307914D01*
X4974350Y4322773D01*
X4953498Y4331410D01*
Y4991100D01*
X4951526Y5001011D01*
X4945912Y5009412D01*
X4629216Y5326109D01*
X4630786Y5334000D01*
X4627278Y5351636D01*
X4617287Y5366587D01*
X4602336Y5376578D01*
X4584700Y5380086D01*
D02*
G37*
G36*
X4673600Y4335300D02*
X4649400Y4332114D01*
X4626850Y4322773D01*
X4607486Y4307914D01*
X4592627Y4288550D01*
X4583286Y4266000D01*
X4580100Y4241800D01*
X4583286Y4217600D01*
X4592627Y4195050D01*
X4607486Y4175686D01*
X4626850Y4160827D01*
X4649400Y4151486D01*
X4673600Y4148300D01*
X4697800Y4151486D01*
X4720350Y4160827D01*
X4739714Y4175686D01*
X4754573Y4195050D01*
X4763914Y4217600D01*
X4767100Y4241800D01*
X4763914Y4266000D01*
X4754573Y4288550D01*
X4739714Y4307914D01*
X4720350Y4322773D01*
X4697800Y4332114D01*
X4673600Y4335300D01*
D02*
G37*
G36*
X4419600D02*
X4395400Y4332114D01*
X4372850Y4322773D01*
X4353486Y4307914D01*
X4338627Y4288550D01*
X4329286Y4266000D01*
X4326100Y4241800D01*
X4329286Y4217600D01*
X4338627Y4195050D01*
X4353486Y4175686D01*
X4372850Y4160827D01*
X4395400Y4151486D01*
X4419600Y4148300D01*
X4443800Y4151486D01*
X4466350Y4160827D01*
X4485714Y4175686D01*
X4500573Y4195050D01*
X4509914Y4217600D01*
X4513100Y4241800D01*
X4509914Y4266000D01*
X4500573Y4288550D01*
X4485714Y4307914D01*
X4466350Y4322773D01*
X4443800Y4332114D01*
X4419600Y4335300D01*
D02*
G37*
G36*
X5435600D02*
X5411400Y4332114D01*
X5388850Y4322773D01*
X5369486Y4307914D01*
X5354627Y4288550D01*
X5345286Y4266000D01*
X5342100Y4241800D01*
X5345286Y4217600D01*
X5353924Y4196748D01*
X5285173Y4127998D01*
X5215467D01*
X5212941Y4140698D01*
X5234755Y4149733D01*
X5256772Y4166628D01*
X5273667Y4188645D01*
X5284287Y4214285D01*
X5286238Y4229100D01*
X5181600D01*
X5076962D01*
X5078913Y4214285D01*
X5089533Y4188645D01*
X5106428Y4166628D01*
X5128445Y4149733D01*
X5150259Y4140698D01*
X5147733Y4127998D01*
X3496300D01*
Y4194800D01*
X3310900D01*
Y4046025D01*
X3267188Y4002312D01*
X3261574Y3993910D01*
X3259602Y3984000D01*
Y3310800D01*
X3229700D01*
Y3115400D01*
X3425100D01*
Y3310800D01*
X3311397D01*
Y3774260D01*
X3324097Y3778571D01*
X3328428Y3772928D01*
X3350445Y3756033D01*
X3376085Y3745413D01*
X3390900Y3743462D01*
Y3848100D01*
Y3952738D01*
X3376085Y3950787D01*
X3350445Y3940167D01*
X3328428Y3923272D01*
X3324097Y3917629D01*
X3311397Y3921940D01*
Y3973273D01*
X3347525Y4009400D01*
X3496300D01*
Y4076202D01*
X5295900D01*
X5305811Y4078174D01*
X5314212Y4083788D01*
X5390548Y4160124D01*
X5411400Y4151486D01*
X5435600Y4148300D01*
X5459800Y4151486D01*
X5482350Y4160827D01*
X5501714Y4175686D01*
X5516573Y4195050D01*
X5525914Y4217600D01*
X5529100Y4241800D01*
X5525914Y4266000D01*
X5516573Y4288550D01*
X5501714Y4307914D01*
X5482350Y4322773D01*
X5459800Y4332114D01*
X5435600Y4335300D01*
D02*
G37*
G36*
X7756400Y4194800D02*
Y4102100D01*
X7849100D01*
Y4194800D01*
X7756400D01*
D02*
G37*
G36*
X7849100Y4076700D02*
X7756400D01*
Y3984000D01*
X7849100D01*
Y4076700D01*
D02*
G37*
G36*
X3416300Y3952738D02*
Y3860800D01*
X3508238D01*
X3506287Y3875615D01*
X3495667Y3901255D01*
X3478772Y3923272D01*
X3456755Y3940167D01*
X3431115Y3950787D01*
X3416300Y3952738D01*
D02*
G37*
G36*
X3508238Y3835400D02*
X3416300D01*
Y3743462D01*
X3431115Y3745413D01*
X3456755Y3756033D01*
X3478772Y3772928D01*
X3495667Y3794945D01*
X3506287Y3820585D01*
X3508238Y3835400D01*
D02*
G37*
G36*
X7188200Y3411630D02*
X7165687Y3407152D01*
X7146601Y3394399D01*
X7133848Y3375313D01*
X7129370Y3352800D01*
X7133848Y3330287D01*
X7146601Y3311201D01*
X7165687Y3298448D01*
X7188200Y3293970D01*
X7210713Y3298448D01*
X7229799Y3311201D01*
X7242552Y3330287D01*
X7247030Y3352800D01*
X7242552Y3375313D01*
X7229799Y3394399D01*
X7210713Y3407152D01*
X7188200Y3411630D01*
D02*
G37*
G36*
X6748200D02*
X6725687Y3407152D01*
X6706601Y3394399D01*
X6693848Y3375313D01*
X6689370Y3352800D01*
X6693848Y3330287D01*
X6706601Y3311201D01*
X6725687Y3298448D01*
X6748200Y3293970D01*
X6770713Y3298448D01*
X6789799Y3311201D01*
X6802552Y3330287D01*
X6807030Y3352800D01*
X6802552Y3375313D01*
X6789799Y3394399D01*
X6770713Y3407152D01*
X6748200Y3411630D01*
D02*
G37*
G36*
X3690100Y3322781D02*
Y3225800D01*
X3787081D01*
X3784958Y3241920D01*
X3773834Y3268776D01*
X3756138Y3291838D01*
X3733076Y3309534D01*
X3706220Y3320658D01*
X3690100Y3322781D01*
D02*
G37*
G36*
X3664700D02*
X3648580Y3320658D01*
X3621724Y3309534D01*
X3598662Y3291838D01*
X3580966Y3268776D01*
X3569842Y3241920D01*
X3567720Y3225800D01*
X3664700D01*
Y3322781D01*
D02*
G37*
G36*
X3787081Y3200400D02*
X3690100D01*
Y3103419D01*
X3706220Y3105542D01*
X3733076Y3116666D01*
X3756138Y3134362D01*
X3773834Y3157424D01*
X3784958Y3184280D01*
X3787081Y3200400D01*
D02*
G37*
G36*
X3664700D02*
X3567720D01*
X3569842Y3184280D01*
X3580966Y3157424D01*
X3598662Y3134362D01*
X3621724Y3116666D01*
X3648580Y3105542D01*
X3664700Y3103419D01*
Y3200400D01*
D02*
G37*
G36*
X8394700Y3158036D02*
X8360845Y3154701D01*
X8328291Y3144826D01*
X8298289Y3128790D01*
X8271992Y3107208D01*
X8250410Y3080911D01*
X8234374Y3050909D01*
X8224499Y3018355D01*
X8221164Y2984500D01*
X8224499Y2950645D01*
X8234374Y2918091D01*
X8250410Y2888089D01*
X8271992Y2861792D01*
X8298289Y2840210D01*
X8328291Y2824174D01*
X8360845Y2814299D01*
X8394700Y2810964D01*
X8428555Y2814299D01*
X8461109Y2824174D01*
X8491111Y2840210D01*
X8517408Y2861792D01*
X8538990Y2888089D01*
X8555026Y2918091D01*
X8564901Y2950645D01*
X8568236Y2984500D01*
X8564901Y3018355D01*
X8555026Y3050909D01*
X8538990Y3080911D01*
X8517408Y3107208D01*
X8491111Y3128790D01*
X8461109Y3144826D01*
X8428555Y3154701D01*
X8394700Y3158036D01*
D02*
G37*
G36*
X2844800D02*
X2810945Y3154701D01*
X2778391Y3144826D01*
X2748389Y3128790D01*
X2722092Y3107208D01*
X2700510Y3080911D01*
X2684474Y3050909D01*
X2674599Y3018355D01*
X2671264Y2984500D01*
X2674599Y2950645D01*
X2684474Y2918091D01*
X2700510Y2888089D01*
X2722092Y2861792D01*
X2748389Y2840210D01*
X2778391Y2824174D01*
X2810945Y2814299D01*
X2844800Y2810964D01*
X2878655Y2814299D01*
X2911209Y2824174D01*
X2941211Y2840210D01*
X2967508Y2861792D01*
X2989090Y2888089D01*
X3005126Y2918091D01*
X3015001Y2950645D01*
X3018336Y2984500D01*
X3015001Y3018355D01*
X3005126Y3050909D01*
X2989090Y3080911D01*
X2967508Y3107208D01*
X2941211Y3128790D01*
X2911209Y3144826D01*
X2878655Y3154701D01*
X2844800Y3158036D01*
D02*
G37*
G36*
X4559300Y3284586D02*
X4541664Y3281078D01*
X4526713Y3271087D01*
X4516722Y3256136D01*
X4513214Y3238500D01*
X4516722Y3220864D01*
X4526713Y3205913D01*
X4533402Y3201443D01*
Y2818357D01*
X4526713Y2813887D01*
X4516722Y2798936D01*
X4513214Y2781300D01*
X4516722Y2763664D01*
X4526713Y2748713D01*
X4541664Y2738722D01*
X4559300Y2735214D01*
X4576936Y2738722D01*
X4591887Y2748713D01*
X4601878Y2763664D01*
X4605386Y2781300D01*
X4601878Y2798936D01*
X4591887Y2813887D01*
X4585198Y2818357D01*
Y3201443D01*
X4591887Y3205913D01*
X4601878Y3220864D01*
X4605386Y3238500D01*
X4601878Y3256136D01*
X4591887Y3271087D01*
X4576936Y3281078D01*
X4559300Y3284586D01*
D02*
G37*
G36*
X4178300D02*
X4160664Y3281078D01*
X4145713Y3271087D01*
X4135722Y3256136D01*
X4132214Y3238500D01*
X4135722Y3220864D01*
X4145713Y3205913D01*
X4152402Y3201443D01*
Y2818357D01*
X4145713Y2813887D01*
X4135722Y2798936D01*
X4132214Y2781300D01*
X4135722Y2763664D01*
X4145713Y2748713D01*
X4160664Y2738722D01*
X4178300Y2735214D01*
X4195936Y2738722D01*
X4210887Y2748713D01*
X4220878Y2763664D01*
X4224386Y2781300D01*
X4220878Y2798936D01*
X4210887Y2813887D01*
X4204198Y2818357D01*
Y3201443D01*
X4210887Y3205913D01*
X4220878Y3220864D01*
X4224386Y3238500D01*
X4220878Y3256136D01*
X4210887Y3271087D01*
X4195936Y3281078D01*
X4178300Y3284586D01*
D02*
G37*
%LPD*%
D11*
X5417300Y2723400D02*
X7481542D01*
X5346700Y2794000D02*
X5417300Y2723400D01*
X7481542D02*
X7950200Y3192058D01*
X5791200Y2794000D02*
X7480300D01*
X7899400Y3213100D01*
X7607300Y4013200D02*
Y4267200D01*
X7493000Y3898900D02*
X7607300Y4013200D01*
X6743700Y4343400D02*
X7743700D01*
X6121400Y4965700D02*
X6743700Y4343400D01*
X7289800Y3822700D02*
X7493000Y4025900D01*
X7099300Y3822700D02*
X7289800D01*
X7493000Y4025900D02*
Y4267200D01*
X6121400Y6045200D02*
X6616700Y5549900D01*
Y5232400D02*
Y5549900D01*
Y5232400D02*
X6743700Y5105400D01*
X7743700D01*
X6896100Y4851400D02*
X7743700D01*
X6743700D02*
X6896100D01*
X6121400Y5181600D02*
Y5537200D01*
Y4965700D02*
Y5181600D01*
X6210300Y5312958D02*
X6925858Y4597400D01*
X5689600Y4648200D02*
Y4864100D01*
Y4241800D02*
Y4648200D01*
X5702300Y4660900D01*
X6083300D01*
X7480300Y5194300D02*
X7520579Y5234579D01*
X7909921D01*
X7950200Y5194300D01*
Y3192058D02*
Y5194300D01*
X7505700Y4978400D02*
X7884521D01*
X7899400Y3213100D02*
Y4963521D01*
X7477700Y5006400D02*
X7505700Y4978400D01*
X7884521D02*
X7899400Y4963521D01*
X3285500Y3984000D02*
X3403600Y4102100D01*
X3285500Y3255000D02*
Y3984000D01*
Y3255000D02*
X3327400Y3213100D01*
X5295900Y4102100D02*
X5435600Y4241800D01*
X3403600Y4102100D02*
X5295900D01*
X4559300Y2781300D02*
Y3238500D01*
X4178300Y2781300D02*
Y3238500D01*
X5105400Y5448300D02*
X5689600Y4864100D01*
X6210300Y5312958D02*
Y5422900D01*
X6925858Y4597400D02*
X7743700D01*
X4394200Y6692900D02*
X5727700D01*
X4495800Y5448300D02*
X5105400D01*
X4927600Y4241800D02*
Y4991100D01*
X4584700Y5334000D02*
X4927600Y4991100D01*
X6121400Y5918200D02*
X6489700Y5549900D01*
Y5105400D02*
Y5549900D01*
Y5105400D02*
X6743700Y4851400D01*
D26*
X6985000Y4470400D02*
D03*
X3937000Y8001000D02*
D03*
X6216600Y7988300D02*
D03*
X5816600D02*
D03*
X4330700Y8001000D02*
D03*
X5473700Y8509000D02*
D03*
X5080000D02*
D03*
X4673600D02*
D03*
X5473700Y8909000D02*
D03*
X5080000D02*
D03*
X4673600D02*
D03*
X3649700Y8109000D02*
D03*
Y8509000D02*
D03*
Y8909000D02*
D03*
X6489700Y8134400D02*
D03*
Y8534400D02*
D03*
Y8909000D02*
D03*
X5346700Y2794000D02*
D03*
X5791200D02*
D03*
X7607300Y4267200D02*
D03*
X7493000Y3898900D02*
D03*
Y4267200D02*
D03*
X6616700Y5549900D02*
D03*
X6896100Y4851400D02*
D03*
X6121400Y5181600D02*
D03*
X6781800Y4749800D02*
D03*
X6083300Y4660900D02*
D03*
X7480300Y5194300D02*
D03*
X7477700Y5006400D02*
D03*
X7099300Y3822700D02*
D03*
X4559300Y2781300D02*
D03*
Y3238500D02*
D03*
X4178300Y2781300D02*
D03*
Y3238500D02*
D03*
X6210300Y5422900D02*
D03*
X5727700Y6692900D02*
D03*
X4394200D02*
D03*
X4495800Y5448300D02*
D03*
X4584700Y5334000D02*
D03*
X6121400Y6045200D02*
D03*
Y5918200D02*
D03*
Y5537200D02*
D03*
D27*
X2844800Y8864600D02*
D03*
X8394700D02*
D03*
Y2984500D02*
D03*
X2844800D02*
D03*
D28*
X7188200Y3352800D02*
D03*
X6748200D02*
D03*
D29*
X3403600Y4610100D02*
D03*
X7743700Y5613400D02*
D03*
X3403600Y4102100D02*
D03*
Y5118100D02*
D03*
X7743700Y4089400D02*
D03*
D30*
X3403600Y4864100D02*
D03*
X7743700Y5867400D02*
D03*
Y6121400D02*
D03*
Y6375400D02*
D03*
Y6629400D02*
D03*
Y6883400D02*
D03*
X3403600Y3848100D02*
D03*
Y6896100D02*
D03*
Y6642100D02*
D03*
Y6388100D02*
D03*
Y6134100D02*
D03*
Y5880100D02*
D03*
Y5626100D02*
D03*
Y5372100D02*
D03*
X7743700Y4343400D02*
D03*
Y4597400D02*
D03*
Y4851400D02*
D03*
Y5105400D02*
D03*
X5435600Y4241800D02*
D03*
X5181600D02*
D03*
X4927600D02*
D03*
X4673600D02*
D03*
X4419600D02*
D03*
D31*
X3327400Y3213100D02*
D03*
D32*
X3677400D02*
D03*
D33*
X5689600Y4241800D02*
D03*
%TF.MD5,13fc59e7f201b46d99407acc5501a918*%
M02*
