%TF.GenerationSoftware,Altium Limited,Altium NEXUS,2.1.5 (53)*%
G04 Layer_Color=8388736*
%FSLAX44Y44*%
%MOMM*%
%TF.FileFunction,Soldermask,Top*%
%TF.Part,Single*%
G01*
G75*
%TA.AperFunction,SMDPad,CuDef*%
%ADD43R,0.6100X1.6100*%
%ADD85R,1.4032X1.6032*%
%ADD86R,0.5512X1.6002*%
%ADD87R,1.1032X1.2032*%
%ADD88R,1.6032X1.4032*%
%ADD89R,1.2032X2.9532*%
%ADD90R,1.2032X1.2032*%
%ADD91R,1.7632X0.4832*%
%ADD92R,0.4832X1.7632*%
G04:AMPARAMS|DCode=93|XSize=1.6032mm|YSize=1.3532mm|CornerRadius=0mm|HoleSize=0mm|Usage=FLASHONLY|Rotation=180.000|XOffset=0mm|YOffset=0mm|HoleType=Round|Shape=Octagon|*
%AMOCTAGOND93*
4,1,8,-0.8016,0.3383,-0.8016,-0.3383,-0.4633,-0.6766,0.4633,-0.6766,0.8016,-0.3383,0.8016,0.3383,0.4633,0.6766,-0.4633,0.6766,-0.8016,0.3383,0.0*
%
%ADD93OCTAGOND93*%

%ADD94R,1.6032X1.3532*%
%ADD95R,1.2032X1.2032*%
%ADD96R,1.1032X1.0032*%
%ADD97R,1.2032X1.6032*%
%ADD98R,1.2032X1.1032*%
%ADD99R,2.2032X2.7032*%
%ADD100R,0.7032X2.7032*%
%ADD101R,1.3032X1.6032*%
%ADD102R,1.0032X1.1032*%
%ADD103R,1.2032X1.3032*%
%ADD104R,3.3528X3.3528*%
%ADD105R,1.2700X0.5080*%
%ADD106R,0.5080X1.2700*%
%ADD107R,2.0032X1.5032*%
G04:AMPARAMS|DCode=108|XSize=4.0032mm|YSize=1.5032mm|CornerRadius=0mm|HoleSize=0mm|Usage=FLASHONLY|Rotation=270.000|XOffset=0mm|YOffset=0mm|HoleType=Round|Shape=Octagon|*
%AMOCTAGOND108*
4,1,8,-0.3758,-2.0016,0.3758,-2.0016,0.7516,-1.6258,0.7516,1.6258,0.3758,2.0016,-0.3758,2.0016,-0.7516,1.6258,-0.7516,-1.6258,-0.3758,-2.0016,0.0*
%
%ADD108OCTAGOND108*%

%ADD109R,1.5032X4.0032*%
%ADD110R,0.8032X2.2632*%
%ADD111R,0.2802X0.4532*%
%ADD112R,2.4382X1.9282*%
%ADD113R,0.6082X0.7132*%
%ADD114R,0.6082X1.1932*%
%ADD115R,2.2032X3.1032*%
%ADD116R,2.1032X2.1032*%
%ADD117R,1.1032X2.0632*%
%ADD118R,3.3932X2.0632*%
%ADD119R,1.6032X1.3032*%
%ADD120R,3.3032X5.3832*%
%ADD121R,1.6782X0.6532*%
%ADD122R,1.5032X2.0032*%
%ADD123R,1.6652X0.4426*%
%ADD124R,0.4426X1.6652*%
%TA.AperFunction,WasherPad*%
%ADD125C,4.2032*%
%TA.AperFunction,ComponentPad*%
%ADD126C,1.7272*%
%ADD127R,2.0032X2.0032*%
%ADD128C,2.0032*%
%ADD129R,1.8532X1.8532*%
%ADD130C,1.8532*%
%ADD131R,1.8032X1.8032*%
%ADD132R,1.8532X1.8532*%
%ADD133R,1.8032X1.8032*%
%ADD134R,1.9032X1.9032*%
%ADD135C,1.9032*%
%ADD136R,1.9032X1.9032*%
%ADD137C,1.1032*%
%ADD138C,1.8032*%
%ADD139R,1.9812X1.9812*%
%ADD140C,1.9812*%
%ADD141R,4.2032X4.2032*%
D43*
X858610Y417620D02*
D03*
X838110D02*
D03*
X848360Y397720D02*
D03*
D85*
X1550560Y1691640D02*
D03*
X1568560D02*
D03*
X804020Y702310D02*
D03*
X786020D02*
D03*
X556150Y760730D02*
D03*
X574150D02*
D03*
X1517870Y1691640D02*
D03*
X1499870D02*
D03*
X1466960Y1691640D02*
D03*
X1448960D02*
D03*
X1416160D02*
D03*
X1398160D02*
D03*
X1365360D02*
D03*
X1347360D02*
D03*
X113250Y1040130D02*
D03*
X95250D02*
D03*
X90170Y1582420D02*
D03*
X108170D02*
D03*
X261510Y976630D02*
D03*
X279510D02*
D03*
X258970Y1517650D02*
D03*
X276970D02*
D03*
X217060Y934720D02*
D03*
X235060D02*
D03*
X209440Y1477010D02*
D03*
X227440D02*
D03*
X279400Y999490D02*
D03*
X261400D02*
D03*
X276970Y1539240D02*
D03*
X258970D02*
D03*
X173880Y934720D02*
D03*
X191880D02*
D03*
X166260Y1477010D02*
D03*
X184260D02*
D03*
X1498202Y934212D02*
D03*
X1480202D02*
D03*
X1481980Y1540510D02*
D03*
X1499980D02*
D03*
X1337420Y985520D02*
D03*
X1319420D02*
D03*
X1334118Y1604264D02*
D03*
X1316118D02*
D03*
X1379330Y1027430D02*
D03*
X1361330D02*
D03*
X1379330Y1644650D02*
D03*
X1361330D02*
D03*
X1318658Y963930D02*
D03*
X1336658D02*
D03*
X1315610Y1582420D02*
D03*
X1333610D02*
D03*
X1422510Y1027430D02*
D03*
X1404510D02*
D03*
X1422400Y1644650D02*
D03*
X1404400D02*
D03*
D86*
X561000Y863330D02*
D03*
X567500D02*
D03*
X574000D02*
D03*
X580500D02*
D03*
X587000D02*
D03*
X593500D02*
D03*
X600000D02*
D03*
X606500D02*
D03*
X613000D02*
D03*
X619500D02*
D03*
X626000D02*
D03*
X632500D02*
D03*
X639000D02*
D03*
X645500D02*
D03*
X561000Y790210D02*
D03*
X567500D02*
D03*
X574000D02*
D03*
X580500D02*
D03*
X587000D02*
D03*
X600000D02*
D03*
X593500D02*
D03*
X606500D02*
D03*
X613000D02*
D03*
X619500D02*
D03*
X626000D02*
D03*
X632500D02*
D03*
X639000D02*
D03*
X645500D02*
D03*
D87*
X1333364Y1295400D02*
D03*
X1316364D02*
D03*
X1332920Y1314450D02*
D03*
X1315920D02*
D03*
X641740Y883920D02*
D03*
X658740D02*
D03*
X885546Y573922D02*
D03*
X902546D02*
D03*
X1491860Y1450340D02*
D03*
X1474860D02*
D03*
X1491860Y1484630D02*
D03*
X1474860D02*
D03*
X1474860Y1433830D02*
D03*
X1491860D02*
D03*
X1474860Y1468120D02*
D03*
X1491860D02*
D03*
X1496940Y1112520D02*
D03*
X1479940D02*
D03*
X1496940Y1146810D02*
D03*
X1479940D02*
D03*
X1480330Y1096010D02*
D03*
X1497330D02*
D03*
X1479940Y1130300D02*
D03*
X1496940D02*
D03*
X96910Y1710690D02*
D03*
X113910D02*
D03*
X96910Y1675130D02*
D03*
X113910D02*
D03*
X113910Y1694180D02*
D03*
X96910D02*
D03*
X113910Y1658620D02*
D03*
X96910D02*
D03*
X96910Y1149350D02*
D03*
X113910D02*
D03*
X96910Y1115060D02*
D03*
X113910D02*
D03*
X113910Y1132840D02*
D03*
X96910D02*
D03*
X114300Y1098550D02*
D03*
X97300D02*
D03*
X1335650Y1259840D02*
D03*
X1318650D02*
D03*
X1318650Y1243330D02*
D03*
X1335650D02*
D03*
X1482480Y746760D02*
D03*
X1499480D02*
D03*
X1283090Y698500D02*
D03*
X1300090D02*
D03*
X1244990D02*
D03*
X1261990D02*
D03*
X1482870Y772160D02*
D03*
X1499870D02*
D03*
X1464310Y746760D02*
D03*
X1447310D02*
D03*
X1244990Y723900D02*
D03*
X1261990D02*
D03*
X1499480Y797560D02*
D03*
X1482480D02*
D03*
X1463920D02*
D03*
X1446920D02*
D03*
X1300090Y737870D02*
D03*
X1283090D02*
D03*
X1283090Y721360D02*
D03*
X1300090D02*
D03*
X1302630Y858520D02*
D03*
X1285630D02*
D03*
D88*
X732790Y667910D02*
D03*
Y685910D02*
D03*
X848360Y360790D02*
D03*
Y342790D02*
D03*
X728980Y347870D02*
D03*
Y365870D02*
D03*
X764540Y478172D02*
D03*
Y496172D02*
D03*
X858520Y441088D02*
D03*
Y459088D02*
D03*
X1319530Y1647080D02*
D03*
Y1665080D02*
D03*
Y1709310D02*
D03*
Y1727310D02*
D03*
D89*
X705800Y741240D02*
D03*
Y686240D02*
D03*
X665800D02*
D03*
Y741240D02*
D03*
D90*
X732410Y741680D02*
D03*
X748410D02*
D03*
X841120Y692150D02*
D03*
X825120D02*
D03*
X800734Y752856D02*
D03*
X784734D02*
D03*
X801750Y681990D02*
D03*
X785750D02*
D03*
X1036448Y808482D02*
D03*
X1052448D02*
D03*
X1045210Y674370D02*
D03*
X1061210D02*
D03*
X865250Y808482D02*
D03*
X849250D02*
D03*
X841374Y747268D02*
D03*
X825374D02*
D03*
X1335150Y1277620D02*
D03*
X1319150D02*
D03*
X1319150Y1330960D02*
D03*
X1335150D02*
D03*
X158370Y1061720D02*
D03*
X174370D02*
D03*
X152020Y1602740D02*
D03*
X168020D02*
D03*
X132970Y1040130D02*
D03*
X148970D02*
D03*
X143890Y1582420D02*
D03*
X127890D02*
D03*
X262510Y957580D02*
D03*
X278510D02*
D03*
X259970Y1498600D02*
D03*
X275970D02*
D03*
X1444750Y902970D02*
D03*
X1428750D02*
D03*
X1438020Y1521460D02*
D03*
X1422020D02*
D03*
X1459610Y923290D02*
D03*
X1443610D02*
D03*
X1462150Y1540510D02*
D03*
X1446150D02*
D03*
X1336420Y1004570D02*
D03*
X1320420D02*
D03*
X1332610Y1624330D02*
D03*
X1316610D02*
D03*
X1302130Y805180D02*
D03*
X1286130D02*
D03*
X1301750Y822960D02*
D03*
X1285750D02*
D03*
X1413382Y844042D02*
D03*
X1397382D02*
D03*
X1299210Y754380D02*
D03*
X1283210D02*
D03*
X1302130Y840740D02*
D03*
X1286130D02*
D03*
D91*
X866810Y791520D02*
D03*
Y786520D02*
D03*
Y781520D02*
D03*
Y776520D02*
D03*
Y771520D02*
D03*
Y766520D02*
D03*
Y761520D02*
D03*
Y756520D02*
D03*
Y751520D02*
D03*
Y746520D02*
D03*
Y741520D02*
D03*
Y736520D02*
D03*
Y731520D02*
D03*
Y726520D02*
D03*
Y721520D02*
D03*
Y716520D02*
D03*
Y711520D02*
D03*
Y706520D02*
D03*
Y701520D02*
D03*
Y696520D02*
D03*
Y691520D02*
D03*
Y686520D02*
D03*
Y681520D02*
D03*
Y676520D02*
D03*
Y671520D02*
D03*
X1020410D02*
D03*
Y676520D02*
D03*
Y681520D02*
D03*
Y686520D02*
D03*
Y691520D02*
D03*
Y696520D02*
D03*
Y701520D02*
D03*
Y706520D02*
D03*
Y711520D02*
D03*
Y716520D02*
D03*
Y721520D02*
D03*
Y726520D02*
D03*
Y731520D02*
D03*
Y736520D02*
D03*
Y741520D02*
D03*
Y746520D02*
D03*
Y751520D02*
D03*
Y756520D02*
D03*
Y761520D02*
D03*
Y766520D02*
D03*
Y771520D02*
D03*
Y776520D02*
D03*
Y781520D02*
D03*
Y786520D02*
D03*
Y791520D02*
D03*
D92*
X883610Y654720D02*
D03*
X888610D02*
D03*
X893610D02*
D03*
X898610D02*
D03*
X903610D02*
D03*
X908610D02*
D03*
X913610D02*
D03*
X918610D02*
D03*
X923610D02*
D03*
X928610D02*
D03*
X933610D02*
D03*
X938610D02*
D03*
X943610D02*
D03*
X948610D02*
D03*
X953610D02*
D03*
X958610D02*
D03*
X963610D02*
D03*
X968610D02*
D03*
X973610D02*
D03*
X978610D02*
D03*
X983610D02*
D03*
X988610D02*
D03*
X993610D02*
D03*
X998610D02*
D03*
X1003610D02*
D03*
Y808320D02*
D03*
X998610D02*
D03*
X993610D02*
D03*
X988610D02*
D03*
X983610D02*
D03*
X978610D02*
D03*
X973610D02*
D03*
X968610D02*
D03*
X963610D02*
D03*
X958610D02*
D03*
X953610D02*
D03*
X948610D02*
D03*
X943610D02*
D03*
X938610D02*
D03*
X933610D02*
D03*
X928610D02*
D03*
X923610D02*
D03*
X918610D02*
D03*
X913610D02*
D03*
X908610D02*
D03*
X903610D02*
D03*
X898610D02*
D03*
X893610D02*
D03*
X888610D02*
D03*
X883610D02*
D03*
D93*
X785290Y720980D02*
D03*
X1280590Y771780D02*
D03*
D94*
X807290Y736980D02*
D03*
X785290D02*
D03*
X807290Y720980D02*
D03*
X1302590Y787780D02*
D03*
X1280590D02*
D03*
X1302590Y771780D02*
D03*
D95*
X767080Y720470D02*
D03*
Y704470D02*
D03*
X885444Y624458D02*
D03*
Y608458D02*
D03*
X1378204Y1347090D02*
D03*
Y1363090D02*
D03*
X1363218Y1347852D02*
D03*
Y1363852D02*
D03*
X149860Y940690D02*
D03*
Y956690D02*
D03*
X144780Y1484630D02*
D03*
Y1500630D02*
D03*
X1442720Y1022730D02*
D03*
Y1006730D02*
D03*
Y1634870D02*
D03*
Y1618870D02*
D03*
X1262380Y766190D02*
D03*
Y750190D02*
D03*
X1343660Y846710D02*
D03*
Y862710D02*
D03*
X1399540Y723010D02*
D03*
Y707010D02*
D03*
D96*
X821690Y675020D02*
D03*
Y661020D02*
D03*
X593090Y757540D02*
D03*
Y771540D02*
D03*
D97*
X803750Y661670D02*
D03*
X783750D02*
D03*
D98*
X1093470Y667140D02*
D03*
Y684140D02*
D03*
X1111250Y667140D02*
D03*
Y684140D02*
D03*
X1079246Y775344D02*
D03*
Y792344D02*
D03*
X1129030Y667140D02*
D03*
Y684140D02*
D03*
X1146810Y667140D02*
D03*
Y684140D02*
D03*
X1182370Y684140D02*
D03*
Y667140D02*
D03*
X1164590Y684140D02*
D03*
Y667140D02*
D03*
X1003554Y850764D02*
D03*
Y833764D02*
D03*
X537718Y814442D02*
D03*
Y797442D02*
D03*
X515874Y814188D02*
D03*
Y797188D02*
D03*
X286512Y1778390D02*
D03*
Y1795390D02*
D03*
X1243330Y749690D02*
D03*
Y766690D02*
D03*
X1379220Y706510D02*
D03*
Y723510D02*
D03*
X1358646Y869306D02*
D03*
Y852306D02*
D03*
X1449832Y709050D02*
D03*
Y726050D02*
D03*
X1468882Y708796D02*
D03*
Y725796D02*
D03*
D99*
X682192Y873234D02*
D03*
X771392D02*
D03*
X682192Y818434D02*
D03*
X771392D02*
D03*
X1171200Y875520D02*
D03*
X1260400D02*
D03*
X1171200Y820720D02*
D03*
X1260400D02*
D03*
D100*
X710792Y818434D02*
D03*
X718792D02*
D03*
X726792D02*
D03*
X734792D02*
D03*
X742792D02*
D03*
X1199800Y820720D02*
D03*
X1207800D02*
D03*
X1215800D02*
D03*
X1223800D02*
D03*
X1231800D02*
D03*
D101*
X760610Y783590D02*
D03*
X745610D02*
D03*
D102*
X611490Y883920D02*
D03*
X625490D02*
D03*
D103*
X537464Y848106D02*
D03*
Y831106D02*
D03*
X516128Y848106D02*
D03*
Y831106D02*
D03*
X728980Y311540D02*
D03*
Y328540D02*
D03*
X764540Y439302D02*
D03*
Y456302D02*
D03*
X538480Y735720D02*
D03*
Y752720D02*
D03*
X279400Y1041010D02*
D03*
Y1024010D02*
D03*
X276860Y1581150D02*
D03*
Y1564150D02*
D03*
X1318006Y926728D02*
D03*
Y943728D02*
D03*
X1315720Y1540900D02*
D03*
Y1557900D02*
D03*
X1449578Y691506D02*
D03*
Y674506D02*
D03*
X1469136D02*
D03*
Y691506D02*
D03*
D104*
X1386840Y1305560D02*
D03*
D105*
X1410462Y1320546D02*
D03*
Y1315466D02*
D03*
Y1310640D02*
D03*
Y1305560D02*
D03*
Y1300480D02*
D03*
Y1295654D02*
D03*
Y1290574D02*
D03*
X1363218D02*
D03*
Y1295654D02*
D03*
Y1300480D02*
D03*
Y1305560D02*
D03*
Y1310640D02*
D03*
Y1315466D02*
D03*
Y1320546D02*
D03*
D106*
X1401826Y1281938D02*
D03*
X1396746D02*
D03*
X1391920D02*
D03*
X1386840D02*
D03*
X1381760D02*
D03*
X1376934D02*
D03*
X1371854D02*
D03*
Y1329182D02*
D03*
X1376934D02*
D03*
X1381760D02*
D03*
X1386840D02*
D03*
X1391920D02*
D03*
X1396746D02*
D03*
X1401826D02*
D03*
D107*
X1473200Y1261640D02*
D03*
Y1232640D02*
D03*
X1473200Y1210310D02*
D03*
Y1181310D02*
D03*
X1435100Y1340590D02*
D03*
Y1369590D02*
D03*
Y1392660D02*
D03*
Y1421660D02*
D03*
D108*
X1410970Y1242060D02*
D03*
D109*
Y1174060D02*
D03*
D110*
X165100Y1743710D02*
D03*
X177800D02*
D03*
X190500D02*
D03*
X203200D02*
D03*
X215900D02*
D03*
X228600D02*
D03*
X241300D02*
D03*
X254000D02*
D03*
X266700D02*
D03*
Y1650910D02*
D03*
X254000D02*
D03*
X241300D02*
D03*
X228600D02*
D03*
X215900D02*
D03*
X203200D02*
D03*
X190500D02*
D03*
X177800D02*
D03*
X165100D02*
D03*
D111*
X791080Y406720D02*
D03*
X814200D02*
D03*
D112*
X802620Y399350D02*
D03*
D113*
X792720Y410520D02*
D03*
X799320D02*
D03*
X805920D02*
D03*
X812520D02*
D03*
D114*
Y379420D02*
D03*
X805920D02*
D03*
X799320D02*
D03*
X792720D02*
D03*
D115*
X824230Y275590D02*
D03*
X775230D02*
D03*
X824230Y147990D02*
D03*
X775230D02*
D03*
D116*
X799730Y298490D02*
D03*
Y125090D02*
D03*
D117*
X562470Y676640D02*
D03*
X585470D02*
D03*
X608470D02*
D03*
D118*
X585470Y738140D02*
D03*
D119*
X539750Y698620D02*
D03*
Y713620D02*
D03*
X629920Y713620D02*
D03*
Y698620D02*
D03*
D120*
X204470Y999490D02*
D03*
X196850Y1540510D02*
D03*
X1391750Y962470D02*
D03*
X1391920Y1581150D02*
D03*
D121*
X233850Y1041740D02*
D03*
Y1035240D02*
D03*
Y1028740D02*
D03*
Y1022240D02*
D03*
Y1015740D02*
D03*
Y1009240D02*
D03*
Y1002740D02*
D03*
Y996240D02*
D03*
Y989740D02*
D03*
Y983240D02*
D03*
Y976740D02*
D03*
Y970240D02*
D03*
Y963740D02*
D03*
Y957240D02*
D03*
X175090D02*
D03*
Y963740D02*
D03*
Y970240D02*
D03*
Y976740D02*
D03*
Y983240D02*
D03*
Y989740D02*
D03*
Y996240D02*
D03*
Y1002740D02*
D03*
Y1009240D02*
D03*
Y1015740D02*
D03*
Y1022240D02*
D03*
Y1028740D02*
D03*
Y1035240D02*
D03*
Y1041740D02*
D03*
X226230Y1582760D02*
D03*
Y1576260D02*
D03*
Y1569760D02*
D03*
Y1563260D02*
D03*
Y1556760D02*
D03*
Y1550260D02*
D03*
Y1543760D02*
D03*
Y1537260D02*
D03*
Y1530760D02*
D03*
Y1524260D02*
D03*
Y1517760D02*
D03*
Y1511260D02*
D03*
Y1504760D02*
D03*
Y1498260D02*
D03*
X167470D02*
D03*
Y1504760D02*
D03*
Y1511260D02*
D03*
Y1517760D02*
D03*
Y1524260D02*
D03*
Y1530760D02*
D03*
Y1537260D02*
D03*
Y1543760D02*
D03*
Y1550260D02*
D03*
Y1556760D02*
D03*
Y1563260D02*
D03*
Y1569760D02*
D03*
Y1576260D02*
D03*
Y1582760D02*
D03*
X1362370Y920220D02*
D03*
Y926720D02*
D03*
Y933220D02*
D03*
Y939720D02*
D03*
Y946220D02*
D03*
Y952720D02*
D03*
Y959220D02*
D03*
Y965720D02*
D03*
Y972220D02*
D03*
Y978720D02*
D03*
Y985220D02*
D03*
Y991720D02*
D03*
Y998220D02*
D03*
Y1004720D02*
D03*
X1421130D02*
D03*
Y998220D02*
D03*
Y991720D02*
D03*
Y985220D02*
D03*
Y978720D02*
D03*
Y972220D02*
D03*
Y965720D02*
D03*
Y959220D02*
D03*
Y952720D02*
D03*
Y946220D02*
D03*
Y939720D02*
D03*
Y933220D02*
D03*
Y926720D02*
D03*
Y920220D02*
D03*
X1362540Y1538900D02*
D03*
Y1545400D02*
D03*
Y1551900D02*
D03*
Y1558400D02*
D03*
Y1564900D02*
D03*
Y1571400D02*
D03*
Y1577900D02*
D03*
Y1584400D02*
D03*
Y1590900D02*
D03*
Y1597400D02*
D03*
Y1603900D02*
D03*
Y1610400D02*
D03*
Y1616900D02*
D03*
Y1623400D02*
D03*
X1421300D02*
D03*
Y1616900D02*
D03*
Y1610400D02*
D03*
Y1603900D02*
D03*
Y1597400D02*
D03*
Y1590900D02*
D03*
Y1584400D02*
D03*
Y1577900D02*
D03*
Y1571400D02*
D03*
Y1564900D02*
D03*
Y1558400D02*
D03*
Y1551900D02*
D03*
Y1545400D02*
D03*
Y1538900D02*
D03*
D122*
X108690Y1065530D02*
D03*
X137690D02*
D03*
X101070Y1606550D02*
D03*
X130070D02*
D03*
X1480290Y910082D02*
D03*
X1509290D02*
D03*
X1492780Y1517650D02*
D03*
X1463780D02*
D03*
D123*
X1329436Y812360D02*
D03*
Y807360D02*
D03*
Y802360D02*
D03*
Y797360D02*
D03*
Y792360D02*
D03*
Y787360D02*
D03*
Y782360D02*
D03*
Y777360D02*
D03*
Y772360D02*
D03*
Y767360D02*
D03*
Y762360D02*
D03*
Y757360D02*
D03*
X1413764D02*
D03*
Y762360D02*
D03*
Y767360D02*
D03*
Y772360D02*
D03*
Y777360D02*
D03*
Y782360D02*
D03*
Y787360D02*
D03*
Y792360D02*
D03*
Y797360D02*
D03*
Y802360D02*
D03*
Y807360D02*
D03*
Y812360D02*
D03*
D124*
X1344100Y742696D02*
D03*
X1349100D02*
D03*
X1354100D02*
D03*
X1359100D02*
D03*
X1364100D02*
D03*
X1369100D02*
D03*
X1374100D02*
D03*
X1379100D02*
D03*
X1384100D02*
D03*
X1389100D02*
D03*
X1394100D02*
D03*
X1399100D02*
D03*
Y827024D02*
D03*
X1394100D02*
D03*
X1389100D02*
D03*
X1384100D02*
D03*
X1379100D02*
D03*
X1374100D02*
D03*
X1369100D02*
D03*
X1364100D02*
D03*
X1359100D02*
D03*
X1354100D02*
D03*
X1349100D02*
D03*
X1344100D02*
D03*
D125*
X1380000Y1400000D02*
D03*
X130000Y1420000D02*
D03*
X1000000Y230000D02*
D03*
X600000D02*
D03*
X130000D02*
D03*
X1470000D02*
D03*
D126*
X669290Y581406D02*
D03*
Y121666D02*
D03*
X130810Y581406D02*
D03*
Y120396D02*
D03*
X117602Y1863090D02*
D03*
X143002D02*
D03*
X168402D02*
D03*
X193802D02*
D03*
X117602Y1939290D02*
D03*
X143002D02*
D03*
X168402D02*
D03*
X193802D02*
D03*
X1469240Y581140D02*
D03*
Y120130D02*
D03*
X930760Y579870D02*
D03*
Y120130D02*
D03*
D127*
X105410Y694690D02*
D03*
D128*
X130810D02*
D03*
X156210D02*
D03*
X181610D02*
D03*
X207010D02*
D03*
X232410D02*
D03*
X257810D02*
D03*
X283210D02*
D03*
X308610D02*
D03*
X334010D02*
D03*
X359410D02*
D03*
X384810D02*
D03*
X410210D02*
D03*
X435610D02*
D03*
X461010D02*
D03*
Y847090D02*
D03*
X435610D02*
D03*
X410210D02*
D03*
X384810D02*
D03*
X359410D02*
D03*
X334010D02*
D03*
X308610D02*
D03*
X283210D02*
D03*
X257810D02*
D03*
X232410D02*
D03*
X207010D02*
D03*
X181610D02*
D03*
X156210D02*
D03*
X130810D02*
D03*
X105410D02*
D03*
D129*
X913814Y860552D02*
D03*
X1334700Y1931670D02*
D03*
X1334300Y1850390D02*
D03*
X1334700Y1767840D02*
D03*
D130*
X878814Y860552D02*
D03*
X843814D02*
D03*
X808814D02*
D03*
X1060450Y574040D02*
D03*
X1085850Y599440D02*
D03*
Y574040D02*
D03*
X1111250Y599440D02*
D03*
Y574040D02*
D03*
X1136650Y599440D02*
D03*
Y574040D02*
D03*
X1162050Y599440D02*
D03*
Y574040D02*
D03*
X1187450Y599440D02*
D03*
Y574040D02*
D03*
X1212850Y599440D02*
D03*
Y574040D02*
D03*
X1238250Y599440D02*
D03*
Y574040D02*
D03*
X1263650Y599440D02*
D03*
Y574040D02*
D03*
X1289050Y599440D02*
D03*
Y574040D02*
D03*
X1550670Y283360D02*
D03*
Y248360D02*
D03*
Y213360D02*
D03*
X48260Y178640D02*
D03*
Y213640D02*
D03*
Y248640D02*
D03*
X43180Y1299060D02*
D03*
Y1334060D02*
D03*
Y1369060D02*
D03*
X1550000Y1520340D02*
D03*
Y1485340D02*
D03*
Y1450340D02*
D03*
X1549400Y1181530D02*
D03*
Y1146530D02*
D03*
Y1111530D02*
D03*
X43180Y1640130D02*
D03*
Y1675130D02*
D03*
Y1710130D02*
D03*
Y1080620D02*
D03*
Y1115620D02*
D03*
Y1150620D02*
D03*
X1434700Y1931670D02*
D03*
X1409700D02*
D03*
X1384700D02*
D03*
X1359700D02*
D03*
X1359300Y1850390D02*
D03*
X1384300D02*
D03*
X1409300D02*
D03*
X1434300D02*
D03*
X1459300D02*
D03*
X1359700Y1767840D02*
D03*
X1384700D02*
D03*
X1409700D02*
D03*
X1434700D02*
D03*
X1459700D02*
D03*
X1484700D02*
D03*
D131*
X1129030Y751332D02*
D03*
X1393190Y1069340D02*
D03*
X1357630D02*
D03*
X1322070Y1070610D02*
D03*
X1385570Y1493520D02*
D03*
X1351280D02*
D03*
X1316990D02*
D03*
X1573530Y1860550D02*
D03*
Y1786890D02*
D03*
Y1823720D02*
D03*
Y1897380D02*
D03*
Y1934210D02*
D03*
Y1971040D02*
D03*
X209550Y1408430D02*
D03*
X242570D02*
D03*
X275590D02*
D03*
X208280Y1141730D02*
D03*
X242570D02*
D03*
X858774Y493776D02*
D03*
X275590Y1141730D02*
D03*
X1550670Y359664D02*
D03*
X207010Y880110D02*
D03*
D132*
X1060450Y599440D02*
D03*
X1550670Y178360D02*
D03*
X48260Y283640D02*
D03*
X43180Y1404060D02*
D03*
X1550000Y1415340D02*
D03*
X1549400Y1076530D02*
D03*
X43180Y1745130D02*
D03*
Y1185620D02*
D03*
D133*
X1318260Y1205230D02*
D03*
Y1169670D02*
D03*
X1322070Y1370330D02*
D03*
X29210Y695960D02*
D03*
X1216660Y673100D02*
D03*
X1532890Y721360D02*
D03*
X1566418Y746760D02*
D03*
D134*
X1127200Y847090D02*
D03*
X1529640Y624840D02*
D03*
X814578Y599694D02*
D03*
X33020Y623824D02*
D03*
X735382Y599694D02*
D03*
D135*
X1092200Y847090D02*
D03*
X1543050Y1355090D02*
D03*
X1541780Y996390D02*
D03*
X1564640Y624840D02*
D03*
X849578Y599694D02*
D03*
X68020Y623824D02*
D03*
X770382Y599694D02*
D03*
X1541780Y1277620D02*
D03*
X35814Y1541018D02*
D03*
X1541272Y1615440D02*
D03*
X43434Y999236D02*
D03*
D136*
X1543050Y1320090D02*
D03*
X1541780Y961390D02*
D03*
Y1242620D02*
D03*
X35814Y1506018D02*
D03*
X1541272Y1580440D02*
D03*
X43434Y964236D02*
D03*
D137*
X704792Y843534D02*
D03*
X748792D02*
D03*
X1193800Y845820D02*
D03*
X1237800D02*
D03*
D138*
X384810Y880110D02*
D03*
X359410D02*
D03*
X334010D02*
D03*
X308610D02*
D03*
X283210D02*
D03*
X257810D02*
D03*
X232410D02*
D03*
X29210Y848360D02*
D03*
Y822960D02*
D03*
Y797560D02*
D03*
Y772160D02*
D03*
Y721360D02*
D03*
Y746760D02*
D03*
X1216660Y698500D02*
D03*
Y723900D02*
D03*
Y749300D02*
D03*
Y774700D02*
D03*
X1532890Y746760D02*
D03*
Y772160D02*
D03*
Y797560D02*
D03*
Y822960D02*
D03*
X1566418D02*
D03*
Y797560D02*
D03*
Y772160D02*
D03*
D139*
X36830Y1786890D02*
D03*
X1576070Y1723390D02*
D03*
D140*
X62230Y1786890D02*
D03*
X87630D02*
D03*
X113030D02*
D03*
X138430D02*
D03*
X163830D02*
D03*
X189230D02*
D03*
X214630D02*
D03*
X240030D02*
D03*
X265430D02*
D03*
X1550670Y1723390D02*
D03*
X1525270D02*
D03*
X1499870D02*
D03*
X1474470D02*
D03*
X1449070D02*
D03*
X1423670D02*
D03*
X1398270D02*
D03*
X1372870D02*
D03*
X1347470D02*
D03*
D141*
X834390Y59690D02*
D03*
X760730D02*
D03*
%TF.MD5,a3aa4e8a742f437e3fe48b1a7aebc397*%
M02*
